<?xml version="1.0" encoding="UTF-8"?>
<svg xmlns="http://www.w3.org/2000/svg" xmlns:xlink="http://www.w3.org/1999/xlink" width="2400" height="3464"
     viewBox="0 0 2400 3464">
    <path fill-rule="nonzero" fill="rgb(91.40625%, 94.53125%, 100%)" fill-opacity="1"
          d="M 1720.96875 740.898438 L 1720.96875 1175.890625 C 2132.089844 1376.089844 2400 1794.519531 2400 2259.710938 C 2400 2924.621094 1857.851562 3464.339844 1200.25 3463.855469 C 539.71875 3463.367188 0 2923.648438 0 2259.710938 C 0 1794.519531 267.910156 1376.089844 679.035156 1175.890625 L 679.035156 740.898438 C 679.035156 702.898438 709.722656 672.210938 747.71875 672.210938 L 1652.289062 672.210938 C 1690.28125 672.210938 1720.96875 702.898438 1720.96875 740.898438 Z M 1720.96875 740.898438 "/>
    <path fill-rule="nonzero" fill="rgb(78.125%, 84.375%, 92.576599%)" fill-opacity="1"
          d="M 1720.96875 740.898438 L 1720.96875 900.671875 C 1715.609375 900.671875 1710.25 900.671875 1704.410156 900.671875 L 695.597656 900.671875 C 690.238281 900.671875 684.394531 900.671875 679.035156 900.671875 L 679.035156 740.898438 C 679.035156 702.898438 709.722656 672.210938 747.71875 672.210938 L 1652.289062 672.210938 C 1690.28125 672.210938 1720.96875 702.898438 1720.96875 740.898438 Z M 1720.96875 740.898438 "/>
    <path fill-rule="nonzero" fill="rgb(68.554688%, 45.092773%, 87.5%)" fill-opacity="1"
          d="M 1015.140625 0 L 1385.351562 0 C 1507.609375 0 1607.46875 99.859375 1607.46875 222.609375 L 1607.46875 369.230469 C 1607.46875 407.230469 1576.78125 437.910156 1538.789062 437.910156 L 861.214844 437.910156 C 823.21875 437.910156 792.53125 407.230469 792.53125 369.230469 L 792.53125 222.609375 C 792.53125 99.859375 892.390625 0 1015.140625 0 Z M 1015.140625 0 "/>
    <path fill-rule="nonzero" fill="rgb(100%, 40.795898%, 19.993591%)" fill-opacity="1"
          d="M 2141.828125 2753.15625 C 2260.199219 2526.652344 2293.808594 2261.660156 2232.921875 2008.851562 C 1843.230469 2036.621094 1421.390625 2176.898438 1018.058594 2410.230469 C 1085.289062 2444.328125 1153.96875 2481.835938 1224.109375 2523.242188 C 1279.640625 2544.1875 1731.679688 2706.882812 2162.289062 2711.753906 C 2155.46875 2725.878906 2148.648438 2739.519531 2141.828125 2753.15625 Z M 2141.828125 2753.15625 "/>
    <path fill-rule="nonzero" fill="rgb(61.131287%, 32.151794%, 84.375%)" fill-opacity="1"
          d="M 1704.410156 809.578125 L 695.597656 809.578125 C 471.523438 809.578125 355.105469 536.308594 515.851562 375.078125 C 562.128906 329.289062 625.453125 300.550781 695.597656 300.550781 L 1704.410156 300.550781 C 1928.480469 300.550781 2044.898438 573.820312 1884.148438 734.570312 C 1837.878906 780.839844 1774.550781 809.578125 1704.410156 809.578125 Z M 1704.410156 809.578125 "/>
    <path fill-rule="evenodd" fill="rgb(100%, 72.068787%, 0%)" fill-opacity="1"
          d="M 2087.28125 2846.195312 C 2115.039062 2803.332031 2140.371094 2758.515625 2162.289062 2711.753906 C 1731.679688 2706.882812 1279.640625 2544.1875 1224.109375 2523.242188 C 991.761719 2385.390625 774.996094 2291.859375 582.585938 2228.539062 C 417.941406 2174.46875 270.835938 2142.320312 146.132812 2123.808594 C 140.777344 2165.210938 136.878906 2218.308594 137.367188 2261.179688 C 138.339844 2841.8125 604.507812 3314.3125 1176.378906 3326.976562 L 1223.628906 3326.976562 C 1583.109375 3318.695312 1900.21875 3129.695312 2087.28125 2846.195312 Z M 2087.28125 2846.195312 "/>
    <path fill-rule="nonzero" fill="rgb(18.041992%, 23.925781%, 29.80957%)" fill-opacity="1"
          d="M 1015.628906 1499.328125 L 1384.371094 1499.328125 C 1677.128906 1499.328125 1915.808594 1738.5 1915.808594 2030.769531 L 1915.808594 2288.449219 C 1915.808594 2479.402344 1813.03125 2653.300781 1651.308594 2747.800781 L 1651.308594 2911.46875 C 1651.308594 3039.09375 1547.070312 3143.335938 1419.441406 3143.335938 L 980.558594 3143.335938 C 852.933594 3143.335938 748.691406 3039.09375 748.691406 2911.46875 L 748.691406 2747.800781 C 586.96875 2653.300781 484.191406 2479.402344 484.191406 2288.449219 L 484.191406 2030.769531 C 484.191406 1738.5 723.363281 1499.328125 1015.628906 1499.328125 Z M 1015.628906 1499.328125 "/>
    <path fill-rule="nonzero" fill="rgb(63.476562%, 73.242188%, 79.6875%)" fill-opacity="1"
          d="M 943.050781 2904.648438 C 922.589844 2904.648438 906.027344 2888.089844 906.027344 2868.117188 C 906.027344 2847.65625 922.589844 2831.582031 943.050781 2831.582031 L 1457.441406 2831.582031 C 1477.410156 2831.582031 1493.96875 2847.65625 1493.96875 2868.117188 C 1493.96875 2888.089844 1477.410156 2904.648438 1457.441406 2904.648438 Z M 943.050781 2904.648438 "/>
    <path fill-rule="nonzero" fill="rgb(63.476562%, 73.242188%, 79.6875%)" fill-opacity="1"
          d="M 1021.960938 2794.074219 C 1021.960938 2774.105469 1038.039062 2757.542969 1058.5 2757.542969 C 1078.460938 2757.542969 1095.03125 2774.105469 1095.03125 2794.074219 L 1095.03125 2952.875 C 1095.03125 2972.84375 1078.460938 2989.40625 1058.5 2989.40625 C 1038.039062 2989.40625 1021.960938 2972.84375 1021.960938 2952.875 Z M 1021.960938 2794.074219 "/>
    <path fill-rule="nonzero" fill="rgb(63.476562%, 73.242188%, 79.6875%)" fill-opacity="1"
          d="M 1163.21875 2794.074219 C 1163.21875 2774.105469 1179.789062 2757.542969 1200.25 2757.542969 C 1220.210938 2757.542969 1236.78125 2774.105469 1236.78125 2794.074219 L 1236.78125 2952.875 C 1236.78125 2972.84375 1220.210938 2989.40625 1200.25 2989.40625 C 1179.789062 2989.40625 1163.21875 2972.84375 1163.21875 2952.875 Z M 1163.21875 2794.074219 "/>
    <path fill-rule="nonzero" fill="rgb(63.476562%, 73.242188%, 79.6875%)" fill-opacity="1"
          d="M 1304.96875 2794.074219 C 1304.96875 2774.105469 1321.539062 2757.542969 1341.511719 2757.542969 C 1361.960938 2757.542969 1378.039062 2774.105469 1378.039062 2794.074219 L 1378.039062 2952.875 C 1378.039062 2972.84375 1361.960938 2989.40625 1341.511719 2989.40625 C 1321.539062 2989.40625 1304.96875 2972.84375 1304.96875 2952.875 Z M 1304.96875 2794.074219 "/>
    <path fill-rule="nonzero" fill="rgb(63.476562%, 73.242188%, 79.6875%)" fill-opacity="1"
          d="M 1375.609375 1857.851562 C 1457.929688 1794.03125 1581.648438 1780.390625 1645.46875 1861.738281 C 1737.53125 1979.621094 1606.980469 2174.960938 1441.359375 2176.898438 C 1331.769531 2178.371094 1262.589844 2089.710938 1289.871094 1984.011719 C 1302.050781 1938.21875 1331.769531 1892.921875 1375.609375 1857.851562 Z M 1375.609375 1857.851562 "/>
    <path fill-rule="nonzero" fill="rgb(63.476562%, 73.242188%, 79.6875%)" fill-opacity="1"
          d="M 881.671875 1805.238281 C 1047.78125 1807.191406 1178.320312 2002.519531 1085.769531 2120.398438 C 993.707031 2238.769531 772.558594 2159.371094 730.667969 1998.621094 C 702.902344 1892.429688 772.074219 1803.78125 881.671875 1805.238281 Z M 881.671875 1805.238281 "/>
    <path fill-rule="nonzero" fill="rgb(63.476562%, 73.242188%, 79.6875%)" fill-opacity="1"
          d="M 1218.75 2246.070312 L 1396.550781 2540.777344 C 1411.160156 2565.621094 1393.140625 2596.308594 1364.890625 2596.308594 L 1008.808594 2596.308594 C 981.042969 2596.308594 962.046875 2565.621094 978.609375 2539.316406 L 1155.921875 2245.589844 C 1170.039062 2221.71875 1204.628906 2222.691406 1218.75 2246.070312 Z M 1218.75 2246.070312 "/>
    <path fill-rule="nonzero" fill="rgb(48.631287%, 59.959412%, 67.381287%)" fill-opacity="1"
          d="M 730.667969 1998.621094 C 772.558594 2159.371094 993.707031 2238.769531 1085.769531 2120.398438 C 1118.410156 2079 1123.28125 2027.851562 1108.671875 1979.140625 C 1109.640625 2013.230469 1100.390625 2046.359375 1077.980469 2074.609375 C 986.890625 2191.519531 770.613281 2115.53125 724.335938 1958.679688 C 724.824219 1971.339844 726.769531 1984.980469 730.667969 1998.621094 Z M 730.667969 1998.621094 "/>
    <path fill-rule="nonzero" fill="rgb(48.631287%, 59.959412%, 67.381287%)" fill-opacity="1"
          d="M 1284.03125 2032.71875 C 1285.488281 2115.53125 1349.300781 2177.878906 1441.359375 2176.898438 C 1588.46875 2175.441406 1707.820312 2021.519531 1668.359375 1904.121094 C 1669.820312 2011.769531 1562.171875 2129.660156 1433.570312 2131.121094 C 1359.53125 2132.089844 1303.511719 2091.660156 1284.03125 2032.71875 Z M 1284.03125 2032.71875 "/>
    <path fill-rule="nonzero" fill="rgb(48.631287%, 59.959412%, 67.381287%)" fill-opacity="1"
          d="M 1155.921875 2245.589844 L 978.609375 2539.316406 C 963.019531 2563.671875 978.609375 2591.921875 1002.96875 2595.820312 C 1002.480469 2588.515625 1004.429688 2580.71875 1009.300781 2572.925781 L 1186.121094 2279.199219 C 1195.859375 2263.609375 1213.878906 2258.738281 1228.980469 2263.609375 L 1218.75 2246.070312 C 1204.628906 2222.691406 1170.039062 2221.71875 1155.921875 2245.589844 Z M 1155.921875 2245.589844 "/>
</svg>
