<?xml version="1.0" encoding="UTF-8"?>
<svg xmlns="http://www.w3.org/2000/svg" xmlns:xlink="http://www.w3.org/1999/xlink" width="2000" height="2000"
     viewBox="0 0 2000 2000">

    <path fill-rule="evenodd" fill="rgb(99.609375%, 99.609375%, 99.609375%)" fill-opacity="1"
          d="M 1908.238281 1915.15625 L 1889.179688 1915.15625 C 1888.300781 1915.15625 1887.589844 1915.871094 1887.589844 1916.746094 L 1887.589844 1935.800781 C 1887.589844 1936.679688 1888.300781 1937.394531 1889.179688 1937.394531 L 1908.238281 1937.394531 C 1909.109375 1937.394531 1909.828125 1936.679688 1909.828125 1935.800781 L 1909.828125 1916.746094 C 1909.828125 1915.871094 1909.109375 1915.15625 1908.238281 1915.15625 "/>
    <path fill-rule="evenodd" fill="rgb(99.609375%, 99.609375%, 99.609375%)" fill-opacity="1"
          d="M 1865.28125 1916.171875 L 1847.089844 1916.171875 C 1846.261719 1916.171875 1845.578125 1916.855469 1845.578125 1917.691406 L 1845.578125 1935.875 C 1845.578125 1936.710938 1846.261719 1937.394531 1847.089844 1937.394531 L 1865.28125 1937.394531 C 1866.109375 1937.394531 1866.800781 1936.710938 1866.800781 1935.875 L 1866.800781 1917.691406 C 1866.800781 1916.855469 1866.109375 1916.171875 1865.28125 1916.171875 "/>
    <path fill-rule="evenodd" fill="rgb(99.609375%, 99.609375%, 99.609375%)" fill-opacity="1"
          d="M 1822.320312 1917.1875 L 1805.011719 1917.1875 C 1804.210938 1917.1875 1803.558594 1917.839844 1803.558594 1918.636719 L 1803.558594 1935.949219 C 1803.558594 1936.742188 1804.210938 1937.394531 1805.011719 1937.394531 L 1822.320312 1937.394531 C 1823.121094 1937.394531 1823.769531 1936.742188 1823.769531 1935.949219 L 1823.769531 1918.636719 C 1823.769531 1917.839844 1823.121094 1917.1875 1822.320312 1917.1875 "/>
    <path fill-rule="evenodd" fill="rgb(99.609375%, 99.609375%, 99.609375%)" fill-opacity="1"
          d="M 1779.371094 1918.207031 L 1762.929688 1918.207031 C 1762.171875 1918.207031 1761.550781 1918.824219 1761.550781 1919.582031 L 1761.550781 1936.019531 C 1761.550781 1936.777344 1762.171875 1937.394531 1762.929688 1937.394531 L 1779.371094 1937.394531 C 1780.121094 1937.394531 1780.738281 1936.777344 1780.738281 1936.019531 L 1780.738281 1919.582031 C 1780.738281 1918.824219 1780.121094 1918.207031 1779.371094 1918.207031 "/>
    <path fill-rule="evenodd" fill="rgb(99.609375%, 99.609375%, 99.609375%)" fill-opacity="1"
          d="M 1736.410156 1919.222656 L 1720.839844 1919.222656 C 1720.128906 1919.222656 1719.539062 1919.808594 1719.539062 1920.523438 L 1719.539062 1936.09375 C 1719.539062 1936.808594 1720.128906 1937.394531 1720.839844 1937.394531 L 1736.410156 1937.394531 C 1737.128906 1937.394531 1737.710938 1936.808594 1737.710938 1936.09375 L 1737.710938 1920.523438 C 1737.710938 1919.808594 1737.128906 1919.222656 1736.410156 1919.222656 "/>
    <path fill-rule="evenodd" fill="rgb(99.609375%, 99.609375%, 99.609375%)" fill-opacity="1"
          d="M 1693.460938 1920.238281 L 1678.761719 1920.238281 C 1678.078125 1920.238281 1677.53125 1920.792969 1677.53125 1921.46875 L 1677.53125 1936.167969 C 1677.53125 1936.84375 1678.078125 1937.394531 1678.761719 1937.394531 L 1693.460938 1937.394531 C 1694.128906 1937.394531 1694.679688 1936.84375 1694.679688 1936.167969 L 1694.679688 1921.46875 C 1694.679688 1920.792969 1694.128906 1920.238281 1693.460938 1920.238281 "/>
    <path fill-rule="evenodd" fill="rgb(99.609375%, 99.609375%, 99.609375%)" fill-opacity="1"
          d="M 1650.5 1921.257812 L 1636.671875 1921.257812 C 1636.039062 1921.257812 1635.519531 1921.777344 1635.519531 1922.414062 L 1635.519531 1936.238281 C 1635.519531 1936.875 1636.039062 1937.394531 1636.671875 1937.394531 L 1650.5 1937.394531 C 1651.140625 1937.394531 1651.648438 1936.875 1651.648438 1936.238281 L 1651.648438 1922.414062 C 1651.648438 1921.777344 1651.140625 1921.257812 1650.5 1921.257812 "/>
    <path fill-rule="evenodd" fill="rgb(99.609375%, 99.609375%, 99.609375%)" fill-opacity="1"
          d="M 1607.539062 1922.273438 L 1594.589844 1922.273438 C 1593.988281 1922.273438 1593.511719 1922.761719 1593.511719 1923.355469 L 1593.511719 1936.3125 C 1593.511719 1936.90625 1593.988281 1937.394531 1594.589844 1937.394531 L 1607.539062 1937.394531 C 1608.140625 1937.394531 1608.628906 1936.90625 1608.628906 1936.3125 L 1608.628906 1923.355469 C 1608.628906 1922.761719 1608.140625 1922.273438 1607.539062 1922.273438 "/>
    <path fill-rule="evenodd" fill="rgb(99.609375%, 99.609375%, 99.609375%)" fill-opacity="1"
          d="M 1564.589844 1923.292969 L 1552.5 1923.292969 C 1551.949219 1923.292969 1551.488281 1923.746094 1551.488281 1924.300781 L 1551.488281 1936.386719 C 1551.488281 1936.941406 1551.949219 1937.394531 1552.5 1937.394531 L 1564.589844 1937.394531 C 1565.140625 1937.394531 1565.601562 1936.941406 1565.601562 1936.386719 L 1565.601562 1924.300781 C 1565.601562 1923.746094 1565.140625 1923.292969 1564.589844 1923.292969 "/>
    <path fill-rule="evenodd" fill="rgb(93.359375%, 93.75%, 93.359375%)" fill-opacity="1"
          d="M 164.949219 684.898438 L 505.808594 343.769531 C 561.097656 288.441406 651.609375 288.421875 706.933594 343.710938 C 748.1875 384.941406 758.6875 445.738281 738.445312 496.941406 L 997.105469 238.191406 C 1052.398438 182.871094 1142.898438 182.828125 1198.230469 238.128906 C 1247.140625 287.011719 1252.828125 363.410156 1215.289062 418.699219 L 1414.058594 219.871094 C 1469.359375 164.558594 1559.859375 164.519531 1615.191406 219.808594 C 1670.511719 275.101562 1670.550781 365.621094 1615.25 420.941406 L 1583.839844 452.351562 C 1637.859375 422.660156 1707.441406 430.609375 1753.089844 476.230469 C 1808.421875 531.53125 1808.460938 622.039062 1753.160156 677.359375 L 1628.449219 802.089844 C 1678.089844 785.421875 1735.269531 796.738281 1774.640625 836.089844 C 1829.96875 891.378906 1830 981.890625 1774.699219 1037.210938 L 1647.789062 1164.164062 C 1698.171875 1145.855469 1757.03125 1156.800781 1797.269531 1197.015625 C 1852.589844 1252.308594 1852.621094 1342.8125 1797.328125 1398.140625 L 1456.46875 1739.265625 C 1401.179688 1794.59375 1310.671875 1794.617188 1255.339844 1739.328125 C 1215.03125 1699.039062 1204.089844 1640.058594 1222.5 1589.609375 L 1031.96875 1780.203125 C 976.671875 1835.523438 886.171875 1835.558594 830.847656 1780.269531 C 791.4375 1740.882812 780.089844 1683.628906 796.804688 1633.953125 L 721.679688 1709.097656 C 666.378906 1764.414062 575.882812 1764.453125 520.554688 1709.160156 C 465.226562 1653.867188 465.1875 1563.351562 520.492188 1508.03125 L 526.050781 1502.472656 C 472.039062 1532.164062 402.441406 1524.21875 356.789062 1478.59375 C 301.460938 1423.300781 301.421875 1332.785156 356.726562 1277.46875 L 414.296875 1219.882812 C 359.050781 1257.273438 282.804688 1251.589844 233.964844 1202.777344 C 178.636719 1147.488281 178.601562 1056.972656 233.902344 1001.652344 L 317.972656 917.550781 C 266.847656 937.671875 206.1875 927.171875 165.011719 886.019531 C 109.683594 830.730469 109.660156 740.230469 164.949219 684.898438 "/>
    <path fill-rule="evenodd" fill="rgb(93.359375%, 83.201599%, 56.054688%)" fill-opacity="1"
          d="M 822.863281 407.941406 C 779.363281 407.941406 743.769531 443.53125 743.769531 487.03125 C 743.769531 443.53125 708.179688 407.941406 664.679688 407.941406 C 708.179688 407.941406 743.769531 372.339844 743.769531 328.839844 C 743.769531 372.339844 779.363281 407.941406 822.863281 407.941406 "/>
    <path fill="none" stroke-width="98.7619" stroke-linecap="butt" stroke-linejoin="round"
          stroke="rgb(22.75238%, 33.738708%, 55.271912%)" stroke-opacity="1" stroke-miterlimit="2.61313"
          d="M 8228.632812 15920.585938 C 7793.632812 15920.585938 7437.695312 15564.6875 7437.695312 15129.6875 C 7437.695312 15564.6875 7081.796875 15920.585938 6646.796875 15920.585938 C 7081.796875 15920.585938 7437.695312 16276.601562 7437.695312 16711.601562 C 7437.695312 16276.601562 7793.632812 15920.585938 8228.632812 15920.585938 Z M 8228.632812 15920.585938 "
          transform="matrix(0.1, 0, 0, -0.1, 0, 2000)"/>
    <path fill-rule="evenodd" fill="rgb(71.679688%, 85.15625%, 95.701599%)" fill-opacity="1"
          d="M 1876.421875 1398.140625 C 1832.921875 1398.140625 1797.328125 1433.730469 1797.328125 1477.230469 C 1797.328125 1433.730469 1761.738281 1398.140625 1718.238281 1398.140625 C 1761.738281 1398.140625 1797.328125 1362.550781 1797.328125 1319.050781 C 1797.328125 1362.550781 1832.921875 1398.140625 1876.421875 1398.140625 "/>
    <path fill="none" stroke-width="98.7619" stroke-linecap="butt" stroke-linejoin="round"
          stroke="rgb(22.75238%, 33.738708%, 55.271912%)" stroke-opacity="1" stroke-miterlimit="2.61313"
          d="M 18764.21875 6018.59375 C 18329.21875 6018.59375 17973.28125 5662.695312 17973.28125 5227.695312 C 17973.28125 5662.695312 17617.382812 6018.59375 17182.382812 6018.59375 C 17617.382812 6018.59375 17973.28125 6374.492188 17973.28125 6809.492188 C 17973.28125 6374.492188 18329.21875 6018.59375 18764.21875 6018.59375 Z M 18764.21875 6018.59375 "
          transform="matrix(0.1, 0, 0, -0.1, 0, 2000)"/>
    <path fill-rule="evenodd" fill="rgb(84.764099%, 56.054688%, 58.789062%)" fill-opacity="1"
          d="M 1174.738281 1600.566406 C 1200.929688 1600.566406 1222.148438 1621.792969 1222.148438 1647.972656 C 1222.148438 1674.15625 1200.929688 1695.378906 1174.738281 1695.378906 C 1148.558594 1695.378906 1127.339844 1674.15625 1127.339844 1647.972656 C 1127.339844 1621.792969 1148.558594 1600.566406 1174.738281 1600.566406 "/>
    <path fill="none" stroke-width="98.7619" stroke-linecap="butt" stroke-linejoin="round"
          stroke="rgb(22.75238%, 33.738708%, 55.271912%)" stroke-opacity="1" stroke-miterlimit="2.61313"
          d="M 11747.382812 3994.335938 C 12009.296875 3994.335938 12221.484375 3782.070312 12221.484375 3520.273438 C 12221.484375 3258.4375 12009.296875 3046.210938 11747.382812 3046.210938 C 11485.585938 3046.210938 11273.398438 3258.4375 11273.398438 3520.273438 C 11273.398438 3782.070312 11485.585938 3994.335938 11747.382812 3994.335938 Z M 11747.382812 3994.335938 "
          transform="matrix(0.1, 0, 0, -0.1, 0, 2000)"/>
    <path fill-rule="evenodd" fill="rgb(84.764099%, 56.054688%, 58.789062%)" fill-opacity="1"
          d="M 311.078125 491.25 C 337.261719 491.25 358.484375 512.46875 358.484375 538.648438 C 358.484375 564.828125 337.261719 586.058594 311.078125 586.058594 C 284.898438 586.058594 263.675781 564.828125 263.675781 538.648438 C 263.675781 512.46875 284.898438 491.25 311.078125 491.25 "/>
    <path fill="none" stroke-width="98.7619" stroke-linecap="butt" stroke-linejoin="round"
          stroke="rgb(22.75238%, 33.738708%, 55.271912%)" stroke-opacity="1" stroke-miterlimit="2.61313"
          d="M 3110.78125 15087.5 C 3372.617188 15087.5 3584.84375 14875.3125 3584.84375 14613.515625 C 3584.84375 14351.71875 3372.617188 14139.414062 3110.78125 14139.414062 C 2848.984375 14139.414062 2636.757812 14351.71875 2636.757812 14613.515625 C 2636.757812 14875.3125 2848.984375 15087.5 3110.78125 15087.5 Z M 3110.78125 15087.5 "
          transform="matrix(0.1, 0, 0, -0.1, 0, 2000)"/>
    <path fill-rule="evenodd" fill="rgb(85.15625%, 58.396912%, 57.226562%)" fill-opacity="1"
          d="M 1608.78125 302.421875 C 1617.078125 302.421875 1623.871094 309.210938 1623.871094 317.511719 L 1623.871094 339.050781 L 1645.421875 339.050781 C 1653.710938 339.050781 1660.5 345.839844 1660.5 354.140625 C 1660.5 362.429688 1653.710938 369.21875 1645.421875 369.21875 L 1623.871094 369.21875 L 1623.871094 390.769531 C 1623.871094 399.070312 1617.078125 405.851562 1608.78125 405.851562 C 1600.488281 405.851562 1593.699219 399.070312 1593.699219 390.769531 L 1593.699219 369.21875 L 1572.148438 369.21875 C 1563.859375 369.21875 1557.070312 362.429688 1557.070312 354.140625 C 1557.070312 345.839844 1563.859375 339.050781 1572.148438 339.050781 L 1593.699219 339.050781 L 1593.699219 317.511719 C 1593.699219 309.210938 1600.488281 302.421875 1608.78125 302.421875 "/>
    <path fill-rule="evenodd" fill="rgb(71.679688%, 85.15625%, 95.701599%)" fill-opacity="1"
          d="M 309.089844 1190.25 C 317.386719 1190.25 324.175781 1197.039062 324.175781 1205.335938 L 324.175781 1226.882812 L 345.722656 1226.882812 C 354.019531 1226.882812 360.808594 1233.671875 360.808594 1241.964844 C 360.808594 1250.261719 354.019531 1257.050781 345.722656 1257.050781 L 324.175781 1257.050781 L 324.175781 1278.597656 C 324.175781 1286.894531 317.386719 1293.683594 309.089844 1293.683594 C 300.796875 1293.683594 294.007812 1286.894531 294.007812 1278.597656 L 294.007812 1257.050781 L 272.460938 1257.050781 C 264.164062 1257.050781 257.375 1250.261719 257.375 1241.964844 C 257.375 1233.671875 264.164062 1226.882812 272.460938 1226.882812 L 294.007812 1226.882812 L 294.007812 1205.335938 C 294.007812 1197.039062 300.796875 1190.25 309.089844 1190.25 "/>
    <path fill-rule="evenodd" fill="rgb(84.764099%, 56.054688%, 58.789062%)" fill-opacity="1"
          d="M 1746.421875 819.5 C 1767.699219 854.230469 1623.601562 854.230469 1644.878906 819.5 C 1703.910156 723.148438 1686.960938 722.449219 1746.421875 819.5 "/>
    <path fill="none" stroke-width="98.7619" stroke-linecap="butt" stroke-linejoin="round"
          stroke="rgb(22.75238%, 33.738708%, 55.271912%)" stroke-opacity="1" stroke-miterlimit="2.61313"
          d="M 17464.21875 11805 C 17676.992188 11457.695312 16236.015625 11457.695312 16448.789062 11805 C 17039.101562 12768.515625 16869.609375 12775.507812 17464.21875 11805 Z M 17464.21875 11805 "
          transform="matrix(0.1, 0, 0, -0.1, 0, 2000)"/>
    <path fill-rule="evenodd" fill="rgb(93.75%, 85.15625%, 54.101562%)" fill-opacity="1"
          d="M 500.003906 1577.886719 C 521.277344 1612.613281 377.179688 1612.613281 398.457031 1577.886719 C 457.488281 1481.53125 440.546875 1480.835938 500.003906 1577.886719 "/>
    <path fill="none" stroke-width="98.7619" stroke-linecap="butt" stroke-linejoin="round"
          stroke="rgb(22.75238%, 33.738708%, 55.271912%)" stroke-opacity="1" stroke-miterlimit="2.61313"
          d="M 5000.039062 4221.132812 C 5212.773438 3873.867188 3771.796875 3873.867188 3984.570312 4221.132812 C 4574.882812 5184.6875 4405.46875 5191.640625 5000.039062 4221.132812 Z M 5000.039062 4221.132812 "
          transform="matrix(0.1, 0, 0, -0.1, 0, 2000)"/>
    <path fill-rule="evenodd" fill="rgb(77.34375%, 77.34375%, 77.34375%)" fill-opacity="1"
          d="M 422.753906 500.558594 L 1644.371094 500.558594 C 1699.089844 500.558594 1743.871094 545.328125 1743.871094 600.058594 L 1743.871094 1086.492188 C 1743.871094 1141.214844 1699.089844 1185.988281 1644.371094 1185.988281 L 422.753906 1185.988281 C 368.03125 1185.988281 323.257812 1141.214844 323.257812 1086.492188 L 323.257812 600.058594 C 323.257812 545.328125 368.03125 500.558594 422.753906 500.558594 "/>
    <path fill="none" stroke-width="379.998" stroke-linecap="round" stroke-linejoin="round"
          stroke="rgb(77.34375%, 77.34375%, 77.34375%)" stroke-opacity="1" stroke-miterlimit="2.61313"
          d="M 4227.539062 14994.414062 L 16443.710938 14994.414062 C 16990.898438 14994.414062 17438.710938 14546.71875 17438.710938 13999.414062 L 17438.710938 9135.078125 C 17438.710938 8587.851562 16990.898438 8140.117188 16443.710938 8140.117188 L 4227.539062 8140.117188 C 3680.3125 8140.117188 3232.578125 8587.851562 3232.578125 9135.078125 L 3232.578125 13999.414062 C 3232.578125 14546.71875 3680.3125 14994.414062 4227.539062 14994.414062 Z M 4227.539062 14994.414062 "
          transform="matrix(0.1, 0, 0, -0.1, 0, 2000)"/>
    <path fill-rule="evenodd" fill="rgb(77.34375%, 77.34375%, 77.34375%)" fill-opacity="1"
          d="M 1495.121094 1185.988281 L 572.003906 1185.988281 L 572.003906 1064.382812 C 572.003906 1038.539062 593.144531 1017.394531 618.988281 1017.394531 L 1448.140625 1017.394531 C 1473.980469 1017.394531 1495.121094 1038.539062 1495.121094 1064.382812 L 1495.121094 1185.988281 "/>
    <path fill="none" stroke-width="379.998" stroke-linecap="round" stroke-linejoin="round"
          stroke="rgb(77.34375%, 77.34375%, 77.34375%)" stroke-opacity="1" stroke-miterlimit="2.61313"
          d="M 14951.210938 8140.117188 L 5720.039062 8140.117188 L 5720.039062 9356.171875 C 5720.039062 9614.609375 5931.445312 9826.054688 6189.882812 9826.054688 L 14481.40625 9826.054688 C 14739.804688 9826.054688 14951.210938 9614.609375 14951.210938 9356.171875 Z M 14951.210938 8140.117188 "
          transform="matrix(0.1, 0, 0, -0.1, 0, 2000)"/>
    <path fill-rule="evenodd" fill="rgb(77.34375%, 77.34375%, 77.34375%)" fill-opacity="1"
          d="M 849.765625 664.320312 L 1217.359375 664.320312 C 1235.601562 664.320312 1250.519531 679.238281 1250.519531 697.480469 L 1250.519531 783.160156 C 1250.519531 801.398438 1235.601562 816.328125 1217.359375 816.328125 L 849.765625 816.328125 C 831.523438 816.328125 816.601562 801.398438 816.601562 783.160156 L 816.601562 697.480469 C 816.601562 679.238281 831.523438 664.320312 849.765625 664.320312 "/>
    <path fill="none" stroke-width="379.998" stroke-linecap="round" stroke-linejoin="round"
          stroke="rgb(77.34375%, 77.34375%, 77.34375%)" stroke-opacity="1" stroke-miterlimit="2.61313"
          d="M 8497.65625 13356.796875 L 12173.59375 13356.796875 C 12356.015625 13356.796875 12505.195312 13207.617188 12505.195312 13025.195312 L 12505.195312 12168.398438 C 12505.195312 11986.015625 12356.015625 11836.71875 12173.59375 11836.71875 L 8497.65625 11836.71875 C 8315.234375 11836.71875 8166.015625 11986.015625 8166.015625 12168.398438 L 8166.015625 13025.195312 C 8166.015625 13207.617188 8315.234375 13356.796875 8497.65625 13356.796875 Z M 8497.65625 13356.796875 "
          transform="matrix(0.1, 0, 0, -0.1, 0, 2000)"/>
    <path fill-rule="evenodd" fill="rgb(77.34375%, 77.34375%, 77.34375%)" fill-opacity="1"
          d="M 1436.609375 1360.785156 C 1468.949219 1379.453125 1506.390625 1461.125 1506.390625 1499.667969 C 1506.390625 1538.210938 1475.148438 1569.453125 1436.609375 1569.453125 C 1398.070312 1569.453125 1366.820312 1538.210938 1366.820312 1499.667969 C 1366.820312 1461.125 1393.679688 1385.566406 1436.609375 1360.785156 "/>
    <path fill="none" stroke-width="379.998" stroke-linecap="round" stroke-linejoin="round"
          stroke="rgb(77.34375%, 77.34375%, 77.34375%)" stroke-opacity="1" stroke-miterlimit="2.61313"
          d="M 14366.09375 6392.148438 C 14689.492188 6205.46875 15063.90625 5388.75 15063.90625 5003.320312 C 15063.90625 4617.890625 14751.484375 4305.46875 14366.09375 4305.46875 C 13980.703125 4305.46875 13668.203125 4617.890625 13668.203125 5003.320312 C 13668.203125 5388.75 13936.796875 6144.335938 14366.09375 6392.148438 Z M 14366.09375 6392.148438 "
          transform="matrix(0.1, 0, 0, -0.1, 0, 2000)"/>
    <path fill-rule="evenodd" fill="rgb(77.34375%, 77.34375%, 77.34375%)" fill-opacity="1"
          d="M 1240.851562 1237.125 C 1273.191406 1255.792969 1310.640625 1337.464844 1310.640625 1376.007812 C 1310.640625 1414.550781 1279.390625 1445.792969 1240.851562 1445.792969 C 1202.308594 1445.792969 1171.058594 1414.550781 1171.058594 1376.007812 C 1171.058594 1337.464844 1197.929688 1261.90625 1240.851562 1237.125 "/>
    <path fill="none" stroke-width="379.998" stroke-linecap="round" stroke-linejoin="round"
          stroke="rgb(77.34375%, 77.34375%, 77.34375%)" stroke-opacity="1" stroke-miterlimit="2.61313"
          d="M 12408.515625 7628.75 C 12731.914062 7442.070312 13106.40625 6625.351562 13106.40625 6239.921875 C 13106.40625 5854.492188 12793.90625 5542.070312 12408.515625 5542.070312 C 12023.085938 5542.070312 11710.585938 5854.492188 11710.585938 6239.921875 C 11710.585938 6625.351562 11979.296875 7380.9375 12408.515625 7628.75 Z M 12408.515625 7628.75 "
          transform="matrix(0.1, 0, 0, -0.1, 0, 2000)"/>
    <path fill-rule="evenodd" fill="rgb(32.93457%, 32.93457%, 32.93457%)" fill-opacity="1"
          d="M 389.152344 538.960938 L 1610.769531 538.960938 C 1665.488281 538.960938 1710.261719 583.738281 1710.261719 638.460938 L 1710.261719 1124.894531 C 1710.261719 1179.617188 1665.488281 1224.390625 1610.769531 1224.390625 L 389.152344 1224.390625 C 334.429688 1224.390625 289.65625 1179.617188 289.65625 1124.894531 L 289.65625 638.460938 C 289.65625 583.738281 334.429688 538.960938 389.152344 538.960938 "/>
    <path fill-rule="evenodd" fill="rgb(25.488281%, 25.097656%, 25.097656%)" fill-opacity="1"
          d="M 389.152344 538.960938 L 1610.769531 538.960938 C 1665.488281 538.960938 1710.261719 583.738281 1710.261719 638.460938 L 1710.261719 1124.894531 C 1710.261719 1162.667969 1688.929688 1195.699219 1657.710938 1212.539062 C 1666.941406 1197.460938 1672.261719 1179.769531 1672.261719 1160.894531 L 1672.261719 674.460938 C 1672.261719 619.738281 1627.488281 574.960938 1572.769531 574.960938 L 351.152344 574.960938 C 334.203125 574.960938 318.214844 579.261719 304.207031 586.808594 C 321.726562 558.179688 353.304688 538.960938 389.152344 538.960938 "/>
    <path fill-rule="evenodd" fill="rgb(92.1875%, 92.1875%, 90.625%)" fill-opacity="1"
          d="M 1461.519531 1224.390625 L 538.398438 1224.390625 L 538.398438 1102.78125 C 538.398438 1076.941406 559.542969 1055.796875 585.386719 1055.796875 L 1414.53125 1055.796875 C 1440.378906 1055.796875 1461.519531 1076.941406 1461.519531 1102.78125 L 1461.519531 1224.390625 "/>
    <path fill-rule="nonzero" fill="rgb(99.609375%, 99.609375%, 99.609375%)" fill-opacity="1"
          d="M 1388.851562 1175.609375 C 1397.96875 1175.609375 1405.351562 1182.996094 1405.351562 1192.109375 C 1405.351562 1201.222656 1397.96875 1208.609375 1388.851562 1208.609375 L 587.734375 1208.609375 C 578.621094 1208.609375 571.234375 1201.222656 571.234375 1192.109375 L 571.234375 1131.007812 C 571.234375 1121.894531 578.621094 1114.507812 587.734375 1114.507812 C 596.847656 1114.507812 604.234375 1121.894531 604.234375 1131.007812 L 604.234375 1175.609375 L 1388.851562 1175.609375 "/>
    <path fill-rule="evenodd" fill="rgb(85.546875%, 85.546875%, 85.15625%)" fill-opacity="1"
          d="M 1461.519531 1224.390625 L 1423.519531 1224.390625 L 1423.519531 1138.78125 C 1423.519531 1112.941406 1402.378906 1091.796875 1376.53125 1091.796875 L 547.386719 1091.796875 C 544.71875 1091.796875 542.101562 1092.027344 539.554688 1092.457031 C 544.289062 1071.539062 563.089844 1055.796875 585.386719 1055.796875 L 1414.53125 1055.796875 C 1440.378906 1055.796875 1461.519531 1076.941406 1461.519531 1102.78125 L 1461.519531 1224.390625 "/>
    <path fill-rule="evenodd" fill="rgb(92.1875%, 92.1875%, 90.625%)" fill-opacity="1"
          d="M 816.164062 702.71875 L 1183.75 702.71875 C 1202 702.71875 1216.921875 717.640625 1216.921875 735.878906 L 1216.921875 821.558594 C 1216.921875 839.808594 1202 854.730469 1183.75 854.730469 L 816.164062 854.730469 C 797.921875 854.730469 783 839.808594 783 821.558594 L 783 735.878906 C 783 717.640625 797.921875 702.71875 816.164062 702.71875 "/>
    <path fill-rule="nonzero" fill="rgb(99.609375%, 99.609375%, 99.609375%)" fill-opacity="1"
          d="M 1151.089844 805.949219 C 1160.199219 805.949219 1167.589844 813.328125 1167.589844 822.449219 C 1167.589844 831.558594 1160.199219 838.949219 1151.089844 838.949219 L 865.5 838.949219 C 851.824219 838.949219 839.40625 833.359375 830.410156 824.371094 C 821.417969 815.378906 815.835938 802.960938 815.835938 789.28125 C 815.835938 780.171875 823.222656 772.78125 832.335938 772.78125 C 841.445312 772.78125 848.835938 780.171875 848.835938 789.28125 C 848.835938 793.851562 850.714844 798.011719 853.742188 801.039062 C 856.769531 804.070312 860.933594 805.949219 865.5 805.949219 L 1151.089844 805.949219 "/>
    <path fill="none" stroke-width="2.16" stroke-linecap="butt" stroke-linejoin="miter"
          stroke="rgb(92.1875%, 92.1875%, 90.625%)" stroke-opacity="1" stroke-miterlimit="2.61313"
          d="M 11510.898438 11940.507812 C 11601.992188 11940.507812 11675.898438 11866.71875 11675.898438 11775.507812 C 11675.898438 11684.414062 11601.992188 11610.507812 11510.898438 11610.507812 L 8655 11610.507812 C 8518.242188 11610.507812 8394.0625 11666.40625 8304.101562 11756.289062 C 8214.179688 11846.210938 8158.359375 11970.390625 8158.359375 12107.1875 C 8158.359375 12198.28125 8232.226562 12272.1875 8323.359375 12272.1875 C 8414.453125 12272.1875 8488.359375 12198.28125 8488.359375 12107.1875 C 8488.359375 12061.484375 8507.148438 12019.882812 8537.421875 11989.609375 C 8567.695312 11959.296875 8609.335938 11940.507812 8655 11940.507812 Z M 11510.898438 11940.507812 "
          transform="matrix(0.1, 0, 0, -0.1, 0, 2000)"/>
    <path fill-rule="evenodd" fill="rgb(85.546875%, 85.546875%, 85.15625%)" fill-opacity="1"
          d="M 816.164062 702.71875 L 1183.75 702.71875 C 1202 702.71875 1216.921875 717.640625 1216.921875 735.878906 L 1216.921875 821.558594 C 1216.921875 839.808594 1202 854.730469 1183.75 854.730469 L 1178.921875 854.730469 L 1178.921875 771.878906 C 1178.921875 753.640625 1164 738.71875 1145.75 738.71875 L 783 738.71875 L 783 735.878906 C 783 717.640625 797.921875 702.71875 816.164062 702.71875 "/>
    <path fill-rule="evenodd" fill="rgb(32.93457%, 32.93457%, 32.93457%)" fill-opacity="1"
          d="M 1403.011719 1399.1875 C 1435.339844 1417.855469 1472.789062 1499.527344 1472.789062 1538.070312 C 1472.789062 1576.609375 1441.550781 1607.855469 1403.011719 1607.855469 C 1364.460938 1607.855469 1333.21875 1576.609375 1333.21875 1538.070312 C 1333.21875 1499.527344 1360.078125 1423.96875 1403.011719 1399.1875 "/>
    <path fill-rule="evenodd" fill="rgb(25.488281%, 25.097656%, 25.097656%)" fill-opacity="1"
          d="M 1403.011719 1399.1875 C 1435.339844 1417.855469 1472.789062 1499.527344 1472.789062 1538.070312 C 1472.789062 1567.609375 1454.441406 1592.863281 1428.511719 1603.046875 C 1432.539062 1594.222656 1434.789062 1584.40625 1434.789062 1574.070312 C 1434.789062 1536.210938 1398.660156 1456.753906 1366.738281 1436.246094 C 1376.898438 1420.558594 1389.109375 1407.210938 1403.011719 1399.1875 "/>
    <path fill-rule="evenodd" fill="rgb(32.93457%, 32.93457%, 32.93457%)" fill-opacity="1"
          d="M 1207.25 1275.523438 C 1239.589844 1294.195312 1277.039062 1375.867188 1277.039062 1414.40625 C 1277.039062 1452.949219 1245.789062 1484.195312 1207.25 1484.195312 C 1168.710938 1484.195312 1137.460938 1452.949219 1137.460938 1414.40625 C 1137.460938 1375.867188 1164.320312 1300.308594 1207.25 1275.523438 "/>
    <path fill-rule="evenodd" fill="rgb(25.488281%, 25.097656%, 25.097656%)" fill-opacity="1"
          d="M 1207.25 1275.523438 C 1239.589844 1294.195312 1277.039062 1375.867188 1277.039062 1414.40625 C 1277.039062 1443.949219 1258.679688 1469.203125 1232.75 1479.386719 C 1236.789062 1470.5625 1239.039062 1460.746094 1239.039062 1450.40625 C 1239.039062 1412.550781 1202.910156 1333.089844 1170.980469 1312.585938 C 1181.140625 1296.898438 1193.351562 1283.550781 1207.25 1275.523438 "/>
    <path fill="none" stroke-width="229.997" stroke-linecap="round" stroke-linejoin="round"
          stroke="rgb(24.31488%, 27.050781%, 30.589294%)" stroke-opacity="1" stroke-miterlimit="2.61313"
          d="M 3891.523438 14610.390625 L 16107.695312 14610.390625 C 16654.882812 14610.390625 17102.617188 14162.617188 17102.617188 13615.390625 L 17102.617188 8751.054688 C 17102.617188 8203.828125 16654.882812 7756.09375 16107.695312 7756.09375 L 3891.523438 7756.09375 C 3344.296875 7756.09375 2896.5625 8203.828125 2896.5625 8751.054688 L 2896.5625 13615.390625 C 2896.5625 14162.617188 3344.296875 14610.390625 3891.523438 14610.390625 Z M 3891.523438 14610.390625 "
          transform="matrix(0.1, 0, 0, -0.1, 0, 2000)"/>
    <path fill="none" stroke-width="229.997" stroke-linecap="round" stroke-linejoin="round"
          stroke="rgb(24.31488%, 27.050781%, 30.589294%)" stroke-opacity="1" stroke-miterlimit="2.61313"
          d="M 14615.195312 7756.09375 L 5383.984375 7756.09375 L 5383.984375 8972.1875 C 5383.984375 9230.585938 5595.429688 9442.03125 5853.867188 9442.03125 L 14145.3125 9442.03125 C 14403.789062 9442.03125 14615.195312 9230.585938 14615.195312 8972.1875 Z M 14615.195312 7756.09375 "
          transform="matrix(0.1, 0, 0, -0.1, 0, 2000)"/>
    <path fill="none" stroke-width="229.997" stroke-linecap="round" stroke-linejoin="round"
          stroke="rgb(24.31488%, 27.050781%, 30.589294%)" stroke-opacity="1" stroke-miterlimit="2.61313"
          d="M 8161.640625 12972.8125 L 11837.5 12972.8125 C 12020 12972.8125 12169.21875 12823.59375 12169.21875 12641.210938 L 12169.21875 11784.414062 C 12169.21875 11601.914062 12020 11452.695312 11837.5 11452.695312 L 8161.640625 11452.695312 C 7979.21875 11452.695312 7830 11601.914062 7830 11784.414062 L 7830 12641.210938 C 7830 12823.59375 7979.21875 12972.8125 8161.640625 12972.8125 Z M 8161.640625 12972.8125 "
          transform="matrix(0.1, 0, 0, -0.1, 0, 2000)"/>
    <path fill="none" stroke-width="229.997" stroke-linecap="round" stroke-linejoin="round"
          stroke="rgb(24.31488%, 27.050781%, 30.589294%)" stroke-opacity="1" stroke-miterlimit="2.61313"
          d="M 14030.117188 6008.125 C 14353.398438 5821.445312 14727.890625 5004.726562 14727.890625 4619.296875 C 14727.890625 4233.90625 14415.507812 3921.445312 14030.117188 3921.445312 C 13644.609375 3921.445312 13332.1875 4233.90625 13332.1875 4619.296875 C 13332.1875 5004.726562 13600.78125 5760.3125 14030.117188 6008.125 Z M 14030.117188 6008.125 "
          transform="matrix(0.1, 0, 0, -0.1, 0, 2000)"/>
    <path fill="none" stroke-width="229.997" stroke-linecap="round" stroke-linejoin="round"
          stroke="rgb(24.31488%, 27.050781%, 30.589294%)" stroke-opacity="1" stroke-miterlimit="2.61313"
          d="M 12072.5 7244.765625 C 12395.898438 7058.046875 12770.390625 6241.328125 12770.390625 5855.9375 C 12770.390625 5470.507812 12457.890625 5158.046875 12072.5 5158.046875 C 11687.109375 5158.046875 11374.609375 5470.507812 11374.609375 5855.9375 C 11374.609375 6241.328125 11643.203125 6996.914062 12072.5 7244.765625 Z M 12072.5 7244.765625 "
          transform="matrix(0.1, 0, 0, -0.1, 0, 2000)"/>
</svg>
