<?xml version="1.0" encoding="UTF-8"?>
<svg xmlns="http://www.w3.org/2000/svg" xmlns:xlink="http://www.w3.org/1999/xlink" width="3857.1" height="3857.2"
     viewBox="0 0 3857.1 3857.2">
    <defs>
        <clipPath id="clip-0">
            <path clip-rule="nonzero" d="M 0 0 L 3857.101562 0 L 3857.101562 3857.199219 L 0 3857.199219 Z M 0 0 "/>
        </clipPath>
        <clipPath id="clip-1">
            <path clip-rule="evenodd"
                  d="M 3096.398438 3857.199219 L 760.699219 3857.199219 C 340.601562 3857.199219 0 3516.601562 0 3096.5 L 0 760.699219 C 0 340.601562 340.5 0 760.699219 0 L 3096.398438 0 C 3516.5 0 3857.101562 340.601562 3857.101562 760.699219 L 3857.101562 3096.398438 C 3857.199219 3516.601562 3516.601562 3857.199219 3096.398438 3857.199219 "/>
        </clipPath>
        <linearGradient id="linear-pattern-0" gradientUnits="userSpaceOnUse" x1="-0.0653055" y1="0" x2="1.065301" y2="0"
                        gradientTransform="matrix(3411.58, 3411.57, -3411.57, 3411.58, 222.769, 222.82)">
            <stop offset="0" stop-color="rgb(49.411011%, 74.116516%, 25.881958%)" stop-opacity="1"/>
            <stop offset="0.0625" stop-color="rgb(49.375916%, 74.125671%, 26.029968%)" stop-opacity="1"/>
            <stop offset="0.0664062" stop-color="rgb(49.284363%, 74.151611%, 26.425171%)" stop-opacity="1"/>
            <stop offset="0.0703125" stop-color="rgb(49.227905%, 74.16687%, 26.672363%)" stop-opacity="1"/>
            <stop offset="0.0742187" stop-color="rgb(49.169922%, 74.182129%, 26.91803%)" stop-opacity="1"/>
            <stop offset="0.078125" stop-color="rgb(49.113464%, 74.197388%, 27.163696%)" stop-opacity="1"/>
            <stop offset="0.0820312" stop-color="rgb(49.055481%, 74.212646%, 27.409363%)" stop-opacity="1"/>
            <stop offset="0.0859375" stop-color="rgb(48.999023%, 74.229431%, 27.655029%)" stop-opacity="1"/>
            <stop offset="0.0898437" stop-color="rgb(48.94104%, 74.24469%, 27.900696%)" stop-opacity="1"/>
            <stop offset="0.09375" stop-color="rgb(48.884583%, 74.259949%, 28.147888%)" stop-opacity="1"/>
            <stop offset="0.0976562" stop-color="rgb(48.826599%, 74.275208%, 28.393555%)" stop-opacity="1"/>
            <stop offset="0.101562" stop-color="rgb(48.770142%, 74.291992%, 28.639221%)" stop-opacity="1"/>
            <stop offset="0.105469" stop-color="rgb(48.712158%, 74.307251%, 28.884888%)" stop-opacity="1"/>
            <stop offset="0.109375" stop-color="rgb(48.655701%, 74.32251%, 29.130554%)" stop-opacity="1"/>
            <stop offset="0.113281" stop-color="rgb(48.597717%, 74.337769%, 29.376221%)" stop-opacity="1"/>
            <stop offset="0.117187" stop-color="rgb(48.54126%, 74.354553%, 29.623413%)" stop-opacity="1"/>
            <stop offset="0.121094" stop-color="rgb(48.483276%, 74.369812%, 29.86908%)" stop-opacity="1"/>
            <stop offset="0.125" stop-color="rgb(48.426819%, 74.385071%, 30.114746%)" stop-opacity="1"/>
            <stop offset="0.128906" stop-color="rgb(48.368835%, 74.40033%, 30.360413%)" stop-opacity="1"/>
            <stop offset="0.132812" stop-color="rgb(48.312378%, 74.415588%, 30.606079%)" stop-opacity="1"/>
            <stop offset="0.136719" stop-color="rgb(48.254395%, 74.430847%, 30.851746%)" stop-opacity="1"/>
            <stop offset="0.140625" stop-color="rgb(48.197937%, 74.447632%, 31.098938%)" stop-opacity="1"/>
            <stop offset="0.144531" stop-color="rgb(48.141479%, 74.462891%, 31.344604%)" stop-opacity="1"/>
            <stop offset="0.148437" stop-color="rgb(48.085022%, 74.478149%, 31.590271%)" stop-opacity="1"/>
            <stop offset="0.152344" stop-color="rgb(48.027039%, 74.493408%, 31.835938%)" stop-opacity="1"/>
            <stop offset="0.15625" stop-color="rgb(47.970581%, 74.510193%, 32.08313%)" stop-opacity="1"/>
            <stop offset="0.160156" stop-color="rgb(47.912598%, 74.525452%, 32.328796%)" stop-opacity="1"/>
            <stop offset="0.164062" stop-color="rgb(47.85614%, 74.54071%, 32.574463%)" stop-opacity="1"/>
            <stop offset="0.167969" stop-color="rgb(47.798157%, 74.555969%, 32.820129%)" stop-opacity="1"/>
            <stop offset="0.171875" stop-color="rgb(47.741699%, 74.572754%, 33.065796%)" stop-opacity="1"/>
            <stop offset="0.175781" stop-color="rgb(47.683716%, 74.588013%, 33.311462%)" stop-opacity="1"/>
            <stop offset="0.179687" stop-color="rgb(47.627258%, 74.603271%, 33.558655%)" stop-opacity="1"/>
            <stop offset="0.183594" stop-color="rgb(47.569275%, 74.61853%, 33.804321%)" stop-opacity="1"/>
            <stop offset="0.1875" stop-color="rgb(47.512817%, 74.635315%, 34.049988%)" stop-opacity="1"/>
            <stop offset="0.191406" stop-color="rgb(47.454834%, 74.650574%, 34.295654%)" stop-opacity="1"/>
            <stop offset="0.195312" stop-color="rgb(47.398376%, 74.665833%, 34.541321%)" stop-opacity="1"/>
            <stop offset="0.199219" stop-color="rgb(47.340393%, 74.681091%, 34.786987%)" stop-opacity="1"/>
            <stop offset="0.203125" stop-color="rgb(47.283936%, 74.69635%, 35.03418%)" stop-opacity="1"/>
            <stop offset="0.207031" stop-color="rgb(47.225952%, 74.711609%, 35.279846%)" stop-opacity="1"/>
            <stop offset="0.210937" stop-color="rgb(47.169495%, 74.728394%, 35.525513%)" stop-opacity="1"/>
            <stop offset="0.214844" stop-color="rgb(47.111511%, 74.743652%, 35.771179%)" stop-opacity="1"/>
            <stop offset="0.21875" stop-color="rgb(47.055054%, 74.758911%, 36.016846%)" stop-opacity="1"/>
            <stop offset="0.222656" stop-color="rgb(46.99707%, 74.77417%, 36.262512%)" stop-opacity="1"/>
            <stop offset="0.226562" stop-color="rgb(46.940613%, 74.790955%, 36.509705%)" stop-opacity="1"/>
            <stop offset="0.230469" stop-color="rgb(46.882629%, 74.806213%, 36.755371%)" stop-opacity="1"/>
            <stop offset="0.234375" stop-color="rgb(46.826172%, 74.821472%, 37.001038%)" stop-opacity="1"/>
            <stop offset="0.238281" stop-color="rgb(46.769714%, 74.836731%, 37.246704%)" stop-opacity="1"/>
            <stop offset="0.242187" stop-color="rgb(46.713257%, 74.853516%, 37.492371%)" stop-opacity="1"/>
            <stop offset="0.246094" stop-color="rgb(46.655273%, 74.868774%, 37.738037%)" stop-opacity="1"/>
            <stop offset="0.25" stop-color="rgb(46.598816%, 74.884033%, 37.985229%)" stop-opacity="1"/>
            <stop offset="0.253906" stop-color="rgb(46.540833%, 74.899292%, 38.230896%)" stop-opacity="1"/>
            <stop offset="0.257812" stop-color="rgb(46.484375%, 74.914551%, 38.476562%)" stop-opacity="1"/>
            <stop offset="0.261719" stop-color="rgb(46.426392%, 74.92981%, 38.722229%)" stop-opacity="1"/>
            <stop offset="0.265625" stop-color="rgb(46.369934%, 74.946594%, 38.967896%)" stop-opacity="1"/>
            <stop offset="0.269531" stop-color="rgb(46.311951%, 74.961853%, 39.213562%)" stop-opacity="1"/>
            <stop offset="0.273437" stop-color="rgb(46.255493%, 74.977112%, 39.460754%)" stop-opacity="1"/>
            <stop offset="0.277344" stop-color="rgb(46.19751%, 74.992371%, 39.706421%)" stop-opacity="1"/>
            <stop offset="0.28125" stop-color="rgb(46.141052%, 75.009155%, 39.952087%)" stop-opacity="1"/>
            <stop offset="0.285156" stop-color="rgb(46.083069%, 75.024414%, 40.197754%)" stop-opacity="1"/>
            <stop offset="0.289062" stop-color="rgb(46.026611%, 75.039673%, 40.44342%)" stop-opacity="1"/>
            <stop offset="0.292969" stop-color="rgb(45.968628%, 75.054932%, 40.689087%)" stop-opacity="1"/>
            <stop offset="0.296875" stop-color="rgb(45.91217%, 75.071716%, 40.936279%)" stop-opacity="1"/>
            <stop offset="0.300781" stop-color="rgb(45.854187%, 75.086975%, 41.181946%)" stop-opacity="1"/>
            <stop offset="0.304688" stop-color="rgb(45.797729%, 75.102234%, 41.427612%)" stop-opacity="1"/>
            <stop offset="0.308594" stop-color="rgb(45.739746%, 75.117493%, 41.673279%)" stop-opacity="1"/>
            <stop offset="0.3125" stop-color="rgb(45.683289%, 75.132751%, 41.920471%)" stop-opacity="1"/>
            <stop offset="0.316406" stop-color="rgb(45.625305%, 75.14801%, 42.166138%)" stop-opacity="1"/>
            <stop offset="0.320312" stop-color="rgb(45.568848%, 75.164795%, 42.411804%)" stop-opacity="1"/>
            <stop offset="0.324219" stop-color="rgb(45.51239%, 75.180054%, 42.657471%)" stop-opacity="1"/>
            <stop offset="0.328125" stop-color="rgb(45.455933%, 75.195312%, 42.903137%)" stop-opacity="1"/>
            <stop offset="0.332031" stop-color="rgb(45.397949%, 75.210571%, 43.148804%)" stop-opacity="1"/>
            <stop offset="0.335938" stop-color="rgb(45.341492%, 75.227356%, 43.395996%)" stop-opacity="1"/>
            <stop offset="0.339844" stop-color="rgb(45.283508%, 75.242615%, 43.641663%)" stop-opacity="1"/>
            <stop offset="0.34375" stop-color="rgb(45.227051%, 75.257874%, 43.887329%)" stop-opacity="1"/>
            <stop offset="0.347656" stop-color="rgb(45.169067%, 75.273132%, 44.132996%)" stop-opacity="1"/>
            <stop offset="0.351562" stop-color="rgb(45.11261%, 75.289917%, 44.378662%)" stop-opacity="1"/>
            <stop offset="0.355469" stop-color="rgb(45.054626%, 75.305176%, 44.624329%)" stop-opacity="1"/>
            <stop offset="0.359375" stop-color="rgb(44.998169%, 75.320435%, 44.871521%)" stop-opacity="1"/>
            <stop offset="0.363281" stop-color="rgb(44.940186%, 75.335693%, 45.117188%)" stop-opacity="1"/>
            <stop offset="0.367188" stop-color="rgb(44.883728%, 75.350952%, 45.362854%)" stop-opacity="1"/>
            <stop offset="0.371094" stop-color="rgb(44.825745%, 75.366211%, 45.608521%)" stop-opacity="1"/>
            <stop offset="0.375" stop-color="rgb(44.769287%, 75.382996%, 45.854187%)" stop-opacity="1"/>
            <stop offset="0.378906" stop-color="rgb(44.711304%, 75.398254%, 46.099854%)" stop-opacity="1"/>
            <stop offset="0.382812" stop-color="rgb(44.654846%, 75.413513%, 46.347046%)" stop-opacity="1"/>
            <stop offset="0.386719" stop-color="rgb(44.596863%, 75.428772%, 46.592712%)" stop-opacity="1"/>
            <stop offset="0.390625" stop-color="rgb(44.540405%, 75.445557%, 46.838379%)" stop-opacity="1"/>
            <stop offset="0.394531" stop-color="rgb(44.482422%, 75.460815%, 47.084045%)" stop-opacity="1"/>
            <stop offset="0.398438" stop-color="rgb(44.425964%, 75.476074%, 47.329712%)" stop-opacity="1"/>
            <stop offset="0.402344" stop-color="rgb(44.367981%, 75.491333%, 47.575378%)" stop-opacity="1"/>
            <stop offset="0.40625" stop-color="rgb(44.311523%, 75.508118%, 47.822571%)" stop-opacity="1"/>
            <stop offset="0.410156" stop-color="rgb(44.255066%, 75.523376%, 48.068237%)" stop-opacity="1"/>
            <stop offset="0.414062" stop-color="rgb(44.198608%, 75.538635%, 48.313904%)" stop-opacity="1"/>
            <stop offset="0.417969" stop-color="rgb(44.140625%, 75.553894%, 48.55957%)" stop-opacity="1"/>
            <stop offset="0.421875" stop-color="rgb(44.084167%, 75.569153%, 48.805237%)" stop-opacity="1"/>
            <stop offset="0.425781" stop-color="rgb(44.026184%, 75.584412%, 49.050903%)" stop-opacity="1"/>
            <stop offset="0.429688" stop-color="rgb(43.969727%, 75.601196%, 49.298096%)" stop-opacity="1"/>
            <stop offset="0.433594" stop-color="rgb(43.911743%, 75.616455%, 49.543762%)" stop-opacity="1"/>
            <stop offset="0.4375" stop-color="rgb(43.855286%, 75.631714%, 49.789429%)" stop-opacity="1"/>
            <stop offset="0.441406" stop-color="rgb(43.797302%, 75.646973%, 50.035095%)" stop-opacity="1"/>
            <stop offset="0.445312" stop-color="rgb(43.740845%, 75.663757%, 50.282288%)" stop-opacity="1"/>
            <stop offset="0.449219" stop-color="rgb(43.682861%, 75.679016%, 50.527954%)" stop-opacity="1"/>
            <stop offset="0.453125" stop-color="rgb(43.626404%, 75.694275%, 50.773621%)" stop-opacity="1"/>
            <stop offset="0.457031" stop-color="rgb(43.56842%, 75.709534%, 51.019287%)" stop-opacity="1"/>
            <stop offset="0.460937" stop-color="rgb(43.511963%, 75.726318%, 51.264954%)" stop-opacity="1"/>
            <stop offset="0.464844" stop-color="rgb(43.453979%, 75.741577%, 51.51062%)" stop-opacity="1"/>
            <stop offset="0.46875" stop-color="rgb(43.397522%, 75.756836%, 51.757812%)" stop-opacity="1"/>
            <stop offset="0.472656" stop-color="rgb(43.339539%, 75.772095%, 52.003479%)" stop-opacity="1"/>
            <stop offset="0.476562" stop-color="rgb(43.283081%, 75.787354%, 52.249146%)" stop-opacity="1"/>
            <stop offset="0.480469" stop-color="rgb(43.225098%, 75.802612%, 52.494812%)" stop-opacity="1"/>
            <stop offset="0.484375" stop-color="rgb(43.16864%, 75.819397%, 52.740479%)" stop-opacity="1"/>
            <stop offset="0.488281" stop-color="rgb(43.110657%, 75.834656%, 52.986145%)" stop-opacity="1"/>
            <stop offset="0.492188" stop-color="rgb(43.054199%, 75.849915%, 53.233337%)" stop-opacity="1"/>
            <stop offset="0.496094" stop-color="rgb(42.996216%, 75.865173%, 53.479004%)" stop-opacity="1"/>
            <stop offset="0.5" stop-color="rgb(42.939758%, 75.881958%, 53.72467%)" stop-opacity="1"/>
            <stop offset="0.503906" stop-color="rgb(42.883301%, 75.897217%, 53.970337%)" stop-opacity="1"/>
            <stop offset="0.507812" stop-color="rgb(42.826843%, 75.912476%, 54.216003%)" stop-opacity="1"/>
            <stop offset="0.511719" stop-color="rgb(42.76886%, 75.927734%, 54.46167%)" stop-opacity="1"/>
            <stop offset="0.515625" stop-color="rgb(42.712402%, 75.944519%, 54.708862%)" stop-opacity="1"/>
            <stop offset="0.519531" stop-color="rgb(42.654419%, 75.959778%, 54.954529%)" stop-opacity="1"/>
            <stop offset="0.523437" stop-color="rgb(42.597961%, 75.975037%, 55.200195%)" stop-opacity="1"/>
            <stop offset="0.527344" stop-color="rgb(42.539978%, 75.990295%, 55.445862%)" stop-opacity="1"/>
            <stop offset="0.53125" stop-color="rgb(42.483521%, 76.005554%, 55.691528%)" stop-opacity="1"/>
            <stop offset="0.535156" stop-color="rgb(42.425537%, 76.020813%, 55.937195%)" stop-opacity="1"/>
            <stop offset="0.539063" stop-color="rgb(42.36908%, 76.037598%, 56.184387%)" stop-opacity="1"/>
            <stop offset="0.542969" stop-color="rgb(42.311096%, 76.052856%, 56.430054%)" stop-opacity="1"/>
            <stop offset="0.546875" stop-color="rgb(42.254639%, 76.068115%, 56.67572%)" stop-opacity="1"/>
            <stop offset="0.550781" stop-color="rgb(42.196655%, 76.083374%, 56.921387%)" stop-opacity="1"/>
            <stop offset="0.554688" stop-color="rgb(42.140198%, 76.100159%, 57.167053%)" stop-opacity="1"/>
            <stop offset="0.558594" stop-color="rgb(42.082214%, 76.115417%, 57.41272%)" stop-opacity="1"/>
            <stop offset="0.5625" stop-color="rgb(42.025757%, 76.130676%, 57.659912%)" stop-opacity="1"/>
            <stop offset="0.566406" stop-color="rgb(41.967773%, 76.145935%, 57.905579%)" stop-opacity="1"/>
            <stop offset="0.570312" stop-color="rgb(41.911316%, 76.16272%, 58.151245%)" stop-opacity="1"/>
            <stop offset="0.574219" stop-color="rgb(41.853333%, 76.177979%, 58.396912%)" stop-opacity="1"/>
            <stop offset="0.578125" stop-color="rgb(41.796875%, 76.193237%, 58.642578%)" stop-opacity="1"/>
            <stop offset="0.582031" stop-color="rgb(41.738892%, 76.208496%, 58.888245%)" stop-opacity="1"/>
            <stop offset="0.585937" stop-color="rgb(41.682434%, 76.223755%, 59.135437%)" stop-opacity="1"/>
            <stop offset="0.589844" stop-color="rgb(41.625977%, 76.239014%, 59.381104%)" stop-opacity="1"/>
            <stop offset="0.59375" stop-color="rgb(41.569519%, 76.255798%, 59.62677%)" stop-opacity="1"/>
            <stop offset="0.597656" stop-color="rgb(41.511536%, 76.271057%, 59.872437%)" stop-opacity="1"/>
            <stop offset="0.601563" stop-color="rgb(41.455078%, 76.286316%, 60.119629%)" stop-opacity="1"/>
            <stop offset="0.605469" stop-color="rgb(41.397095%, 76.301575%, 60.365295%)" stop-opacity="1"/>
            <stop offset="0.609375" stop-color="rgb(41.340637%, 76.318359%, 60.610962%)" stop-opacity="1"/>
            <stop offset="0.613281" stop-color="rgb(41.282654%, 76.333618%, 60.856628%)" stop-opacity="1"/>
            <stop offset="0.617188" stop-color="rgb(41.226196%, 76.348877%, 61.102295%)" stop-opacity="1"/>
            <stop offset="0.621094" stop-color="rgb(41.168213%, 76.364136%, 61.347961%)" stop-opacity="1"/>
            <stop offset="0.625" stop-color="rgb(41.111755%, 76.38092%, 61.595154%)" stop-opacity="1"/>
            <stop offset="0.628906" stop-color="rgb(41.053772%, 76.396179%, 61.84082%)" stop-opacity="1"/>
            <stop offset="0.632812" stop-color="rgb(40.997314%, 76.411438%, 62.086487%)" stop-opacity="1"/>
            <stop offset="0.636719" stop-color="rgb(40.939331%, 76.426697%, 62.332153%)" stop-opacity="1"/>
            <stop offset="0.640625" stop-color="rgb(40.882874%, 76.443481%, 62.57782%)" stop-opacity="1"/>
            <stop offset="0.644531" stop-color="rgb(40.82489%, 76.45874%, 62.823486%)" stop-opacity="1"/>
            <stop offset="0.648437" stop-color="rgb(40.768433%, 76.473999%, 63.070679%)" stop-opacity="1"/>
            <stop offset="0.652344" stop-color="rgb(40.710449%, 76.489258%, 63.316345%)" stop-opacity="1"/>
            <stop offset="0.65625" stop-color="rgb(40.653992%, 76.504517%, 63.562012%)" stop-opacity="1"/>
            <stop offset="0.660156" stop-color="rgb(40.596008%, 76.519775%, 63.807678%)" stop-opacity="1"/>
            <stop offset="0.664063" stop-color="rgb(40.539551%, 76.53656%, 64.053345%)" stop-opacity="1"/>
            <stop offset="0.667969" stop-color="rgb(40.481567%, 76.551819%, 64.299011%)" stop-opacity="1"/>
            <stop offset="0.671875" stop-color="rgb(40.42511%, 76.567078%, 64.546204%)" stop-opacity="1"/>
            <stop offset="0.675781" stop-color="rgb(40.367126%, 76.582336%, 64.79187%)" stop-opacity="1"/>
            <stop offset="0.679688" stop-color="rgb(40.310669%, 76.599121%, 65.037537%)" stop-opacity="1"/>
            <stop offset="0.683594" stop-color="rgb(40.254211%, 76.61438%, 65.283203%)" stop-opacity="1"/>
            <stop offset="0.6875" stop-color="rgb(40.197754%, 76.629639%, 65.52887%)" stop-opacity="1"/>
            <stop offset="0.691406" stop-color="rgb(40.139771%, 76.644897%, 65.774536%)" stop-opacity="1"/>
            <stop offset="0.695312" stop-color="rgb(40.083313%, 76.661682%, 66.021729%)" stop-opacity="1"/>
            <stop offset="0.699219" stop-color="rgb(40.02533%, 76.676941%, 66.267395%)" stop-opacity="1"/>
            <stop offset="0.703125" stop-color="rgb(39.968872%, 76.6922%, 66.513062%)" stop-opacity="1"/>
            <stop offset="0.707031" stop-color="rgb(39.910889%, 76.707458%, 66.758728%)" stop-opacity="1"/>
            <stop offset="0.710937" stop-color="rgb(39.854431%, 76.722717%, 67.004395%)" stop-opacity="1"/>
            <stop offset="0.714844" stop-color="rgb(39.796448%, 76.737976%, 67.250061%)" stop-opacity="1"/>
            <stop offset="0.71875" stop-color="rgb(39.73999%, 76.754761%, 67.497253%)" stop-opacity="1"/>
            <stop offset="0.722656" stop-color="rgb(39.682007%, 76.77002%, 67.74292%)" stop-opacity="1"/>
            <stop offset="0.726563" stop-color="rgb(39.625549%, 76.785278%, 67.988586%)" stop-opacity="1"/>
            <stop offset="0.730469" stop-color="rgb(39.567566%, 76.800537%, 68.234253%)" stop-opacity="1"/>
            <stop offset="0.734375" stop-color="rgb(39.511108%, 76.817322%, 68.481445%)" stop-opacity="1"/>
            <stop offset="0.738281" stop-color="rgb(39.453125%, 76.832581%, 68.727112%)" stop-opacity="1"/>
            <stop offset="0.742188" stop-color="rgb(39.396667%, 76.847839%, 68.972778%)" stop-opacity="1"/>
            <stop offset="0.746094" stop-color="rgb(39.338684%, 76.863098%, 69.218445%)" stop-opacity="1"/>
            <stop offset="0.75" stop-color="rgb(39.282227%, 76.879883%, 69.464111%)" stop-opacity="1"/>
            <stop offset="0.753906" stop-color="rgb(39.224243%, 76.895142%, 69.709778%)" stop-opacity="1"/>
            <stop offset="0.757812" stop-color="rgb(39.167786%, 76.9104%, 69.95697%)" stop-opacity="1"/>
            <stop offset="0.761719" stop-color="rgb(39.109802%, 76.925659%, 70.202637%)" stop-opacity="1"/>
            <stop offset="0.765625" stop-color="rgb(39.053345%, 76.940918%, 70.448303%)" stop-opacity="1"/>
            <stop offset="0.769531" stop-color="rgb(38.996887%, 76.956177%, 70.69397%)" stop-opacity="1"/>
            <stop offset="0.773437" stop-color="rgb(38.94043%, 76.972961%, 70.939636%)" stop-opacity="1"/>
            <stop offset="0.777344" stop-color="rgb(38.882446%, 76.98822%, 71.185303%)" stop-opacity="1"/>
            <stop offset="0.78125" stop-color="rgb(38.825989%, 77.003479%, 71.432495%)" stop-opacity="1"/>
            <stop offset="0.785156" stop-color="rgb(38.768005%, 77.018738%, 71.678162%)" stop-opacity="1"/>
            <stop offset="0.789063" stop-color="rgb(38.711548%, 77.035522%, 71.923828%)" stop-opacity="1"/>
            <stop offset="0.792969" stop-color="rgb(38.653564%, 77.050781%, 72.169495%)" stop-opacity="1"/>
            <stop offset="0.796875" stop-color="rgb(38.597107%, 77.06604%, 72.415161%)" stop-opacity="1"/>
            <stop offset="0.800781" stop-color="rgb(38.539124%, 77.081299%, 72.660828%)" stop-opacity="1"/>
            <stop offset="0.804688" stop-color="rgb(38.482666%, 77.098083%, 72.90802%)" stop-opacity="1"/>
            <stop offset="0.808594" stop-color="rgb(38.424683%, 77.113342%, 73.153687%)" stop-opacity="1"/>
            <stop offset="0.8125" stop-color="rgb(38.368225%, 77.128601%, 73.399353%)" stop-opacity="1"/>
            <stop offset="0.816406" stop-color="rgb(38.310242%, 77.14386%, 73.64502%)" stop-opacity="1"/>
            <stop offset="0.820312" stop-color="rgb(38.253784%, 77.159119%, 73.890686%)" stop-opacity="1"/>
            <stop offset="0.824219" stop-color="rgb(38.195801%, 77.174377%, 74.136353%)" stop-opacity="1"/>
            <stop offset="0.828125" stop-color="rgb(38.139343%, 77.191162%, 74.383545%)" stop-opacity="1"/>
            <stop offset="0.832031" stop-color="rgb(38.08136%, 77.206421%, 74.629211%)" stop-opacity="1"/>
            <stop offset="0.835937" stop-color="rgb(38.024902%, 77.22168%, 74.874878%)" stop-opacity="1"/>
            <stop offset="0.839844" stop-color="rgb(37.966919%, 77.236938%, 75.120544%)" stop-opacity="1"/>
            <stop offset="0.84375" stop-color="rgb(37.910461%, 77.253723%, 75.366211%)" stop-opacity="1"/>
            <stop offset="0.847656" stop-color="rgb(37.852478%, 77.268982%, 75.611877%)" stop-opacity="1"/>
            <stop offset="0.851563" stop-color="rgb(37.796021%, 77.284241%, 75.85907%)" stop-opacity="1"/>
            <stop offset="0.855469" stop-color="rgb(37.738037%, 77.2995%, 76.104736%)" stop-opacity="1"/>
            <stop offset="0.859375" stop-color="rgb(37.68158%, 77.316284%, 76.350403%)" stop-opacity="1"/>
            <stop offset="0.863281" stop-color="rgb(37.625122%, 77.331543%, 76.596069%)" stop-opacity="1"/>
            <stop offset="0.867188" stop-color="rgb(37.568665%, 77.346802%, 76.841736%)" stop-opacity="1"/>
            <stop offset="0.871094" stop-color="rgb(37.510681%, 77.362061%, 77.087402%)" stop-opacity="1"/>
            <stop offset="0.875" stop-color="rgb(37.454224%, 77.377319%, 77.334595%)" stop-opacity="1"/>
            <stop offset="0.878906" stop-color="rgb(37.39624%, 77.392578%, 77.580261%)" stop-opacity="1"/>
            <stop offset="0.882812" stop-color="rgb(37.339783%, 77.409363%, 77.825928%)" stop-opacity="1"/>
            <stop offset="0.886719" stop-color="rgb(37.281799%, 77.424622%, 78.071594%)" stop-opacity="1"/>
            <stop offset="0.890625" stop-color="rgb(37.225342%, 77.43988%, 78.318787%)" stop-opacity="1"/>
            <stop offset="0.894531" stop-color="rgb(37.167358%, 77.455139%, 78.564453%)" stop-opacity="1"/>
            <stop offset="0.898437" stop-color="rgb(37.110901%, 77.471924%, 78.81012%)" stop-opacity="1"/>
            <stop offset="0.902344" stop-color="rgb(37.052917%, 77.487183%, 79.055786%)" stop-opacity="1"/>
            <stop offset="0.90625" stop-color="rgb(36.99646%, 77.502441%, 79.301453%)" stop-opacity="1"/>
            <stop offset="0.910156" stop-color="rgb(36.938477%, 77.5177%, 79.547119%)" stop-opacity="1"/>
            <stop offset="0.914063" stop-color="rgb(36.882019%, 77.534485%, 79.794312%)" stop-opacity="1"/>
            <stop offset="0.917969" stop-color="rgb(36.824036%, 77.549744%, 80.039978%)" stop-opacity="1"/>
            <stop offset="0.921875" stop-color="rgb(36.767578%, 77.565002%, 80.285645%)" stop-opacity="1"/>
            <stop offset="0.925781" stop-color="rgb(36.709595%, 77.580261%, 80.531311%)" stop-opacity="1"/>
            <stop offset="0.929688" stop-color="rgb(36.653137%, 77.59552%, 80.776978%)" stop-opacity="1"/>
            <stop offset="0.933594" stop-color="rgb(36.595154%, 77.610779%, 81.022644%)" stop-opacity="1"/>
            <stop offset="0.9375" stop-color="rgb(36.538696%, 77.627563%, 81.269836%)" stop-opacity="1"/>
            <stop offset="1" stop-color="rgb(36.503601%, 77.636719%, 81.417847%)" stop-opacity="1"/>
        </linearGradient>
    </defs>
    <g clip-path="url(#clip-0)">
        <g clip-path="url(#clip-1)">
            <path fill-rule="nonzero" fill="url(#linear-pattern-0)"
                  d="M 1928.542969 -1928.550781 L -1928.601562 1928.605469 L 1928.554688 5785.75 L 5785.699219 1928.59375 Z M 1928.542969 -1928.550781 "/>
        </g>
    </g>
    <path fill-rule="evenodd" fill="rgb(100%, 100%, 100%)" fill-opacity="1"
          d="M 2903.601562 863.5 L 953.398438 863.5 C 935.5 863.5 920.898438 848.898438 920.898438 831.101562 C 920.898438 813.199219 935.5 798.601562 953.398438 798.601562 L 2903.601562 798.601562 C 2921.5 798.601562 2936.101562 813.199219 2936.101562 831.101562 C 2936.101562 849 2921.5 863.5 2903.601562 863.5 "/>
    <path fill-rule="evenodd" fill="rgb(100%, 100%, 100%)" fill-opacity="1"
          d="M 2903.601562 3058.601562 L 953.398438 3058.601562 C 935.5 3058.601562 920.898438 3044 920.898438 3026.101562 C 920.898438 3008.199219 935.5 2993.601562 953.398438 2993.601562 L 2903.601562 2993.601562 C 2921.5 2993.601562 2936.101562 3008.199219 2936.101562 3026.101562 C 2936.101562 3044 2921.5 3058.601562 2903.601562 3058.601562 "/>
    <path fill-rule="evenodd" fill="rgb(100%, 100%, 100%)" fill-opacity="1"
          d="M 2948.699219 3346.699219 L 909 3346.699219 C 885.601562 3346.699219 863.601562 3335.398438 850.101562 3316.398438 C 836.601562 3297.300781 833.101562 3272.800781 840.898438 3250.601562 L 921.601562 3020.601562 L 921.601562 836.601562 L 840.300781 606.601562 C 832.601562 584.601562 836 560 849.601562 540.898438 C 863.199219 521.800781 885 510.398438 908.300781 510.398438 L 2948.101562 510.398438 C 2971.5 510.398438 2993.398438 521.699219 3006.898438 540.699219 C 3020.398438 559.800781 3023.800781 584.300781 3016.101562 606.5 L 2935.398438 836.5 L 2935.398438 3018.699219 L 3016.699219 3250.601562 C 3024.398438 3272.601562 3021 3297.101562 3007.398438 3316.300781 C 2993.898438 3335.300781 2972 3346.699219 2948.699219 3346.699219 Z M 908.398438 575.398438 C 905.300781 575.398438 903.398438 577.398438 902.699219 578.5 C 901.800781 579.898438 900.699219 582.199219 901.800781 585 L 984.898438 820.101562 C 986.199219 823.601562 986.699219 827.199219 986.699219 831 L 986.699219 3026.101562 C 986.699219 3029.800781 986.101562 3033.300781 984.800781 3036.800781 L 902.398438 3272.101562 C 901.300781 3275.300781 902.398438 3277.699219 903.300781 3278.800781 C 904.601562 3280.699219 906.601562 3281.699219 909.101562 3281.699219 L 2948.800781 3281.699219 C 2951.898438 3281.699219 2953.800781 3279.699219 2954.5 3278.601562 C 2955.5 3277.199219 2956.5 3274.898438 2955.5 3272.101562 L 2875 3042.601562 C 2872.199219 3037.699219 2870.5 3032.101562 2870.5 3026.101562 L 2870.5 831.101562 C 2870.5 827.398438 2871.101562 823.898438 2872.300781 820.300781 L 2954.800781 585.101562 C 2956 581.898438 2954.699219 579.5 2953.898438 578.398438 C 2952.601562 576.5 2950.601562 575.5 2948.101562 575.5 L 908.398438 575.398438 "/>
    <path fill-rule="evenodd" fill="rgb(100%, 100%, 100%)" fill-opacity="1"
          d="M 1183.5 672.699219 C 1165.601562 672.699219 1151 658.101562 1151 640.199219 L 1151 542.898438 C 1151 525 1165.601562 510.398438 1183.398438 510.398438 C 1201.300781 510.398438 1215.898438 525 1215.898438 542.898438 L 1215.898438 640.199219 C 1216 658.199219 1201.398438 672.699219 1183.5 672.699219 "/>
    <path fill-rule="evenodd" fill="rgb(100%, 100%, 100%)" fill-opacity="1"
          d="M 1481.300781 672.699219 C 1463.398438 672.699219 1448.800781 658.101562 1448.800781 640.199219 L 1448.800781 542.898438 C 1448.800781 525 1463.398438 510.398438 1481.199219 510.398438 C 1499.101562 510.398438 1513.699219 525 1513.699219 542.898438 L 1513.699219 640.199219 C 1513.800781 658.199219 1499.199219 672.699219 1481.300781 672.699219 "/>
    <path fill-rule="evenodd" fill="rgb(100%, 100%, 100%)" fill-opacity="1"
          d="M 1779.601562 672.699219 C 1761.699219 672.699219 1747.101562 658.101562 1747.101562 640.199219 L 1747.101562 542.898438 C 1747.101562 525 1761.699219 510.398438 1779.5 510.398438 C 1797.398438 510.398438 1812 525 1812 542.898438 L 1812 640.199219 C 1812.101562 658.199219 1797.601562 672.699219 1779.601562 672.699219 "/>
    <path fill-rule="evenodd" fill="rgb(100%, 100%, 100%)" fill-opacity="1"
          d="M 2077.398438 672.699219 C 2059.5 672.699219 2045 658.101562 2045 640.199219 L 2045 542.898438 C 2045 525 2059.5 510.398438 2077.398438 510.398438 C 2095.300781 510.398438 2109.898438 525 2109.898438 542.898438 L 2109.898438 640.199219 C 2109.800781 658.199219 2095.398438 672.699219 2077.398438 672.699219 "/>
    <path fill-rule="evenodd" fill="rgb(100%, 100%, 100%)" fill-opacity="1"
          d="M 2375.800781 672.699219 C 2357.898438 672.699219 2343.300781 658.101562 2343.300781 640.199219 L 2343.300781 542.898438 C 2343.300781 525 2357.898438 510.398438 2375.699219 510.398438 C 2393.601562 510.398438 2408.199219 525 2408.199219 542.898438 L 2408.199219 640.199219 C 2408.300781 658.199219 2393.699219 672.699219 2375.800781 672.699219 "/>
    <path fill-rule="evenodd" fill="rgb(100%, 100%, 100%)" fill-opacity="1"
          d="M 2673.5 672.699219 C 2655.601562 672.699219 2641 658.101562 2641 640.199219 L 2641 542.898438 C 2641 525 2655.601562 510.398438 2673.398438 510.398438 C 2691.300781 510.398438 2705.898438 525 2705.898438 542.898438 L 2705.898438 640.199219 C 2706 658.199219 2691.398438 672.699219 2673.5 672.699219 "/>
    <path fill-rule="evenodd" fill="rgb(100%, 100%, 100%)" fill-opacity="1"
          d="M 1183.5 3346.699219 C 1165.601562 3346.699219 1151 3332.101562 1151 3314.199219 L 1151 3216.800781 C 1151 3198.898438 1165.601562 3184.398438 1183.398438 3184.398438 C 1201.300781 3184.398438 1215.898438 3198.898438 1215.898438 3216.800781 L 1215.898438 3314.199219 C 1216 3332.101562 1201.398438 3346.699219 1183.5 3346.699219 "/>
    <path fill-rule="evenodd" fill="rgb(100%, 100%, 100%)" fill-opacity="1"
          d="M 1481.300781 3346.699219 C 1463.398438 3346.699219 1448.800781 3332.101562 1448.800781 3314.199219 L 1448.800781 3216.800781 C 1448.800781 3198.898438 1463.398438 3184.398438 1481.199219 3184.398438 C 1499.101562 3184.398438 1513.699219 3198.898438 1513.699219 3216.800781 L 1513.699219 3314.199219 C 1513.800781 3332.101562 1499.199219 3346.699219 1481.300781 3346.699219 "/>
    <path fill-rule="evenodd" fill="rgb(100%, 100%, 100%)" fill-opacity="1"
          d="M 1779.601562 3346.699219 C 1761.699219 3346.699219 1747.101562 3332.101562 1747.101562 3314.199219 L 1747.101562 3216.800781 C 1747.101562 3198.898438 1761.699219 3184.398438 1779.5 3184.398438 C 1797.398438 3184.398438 1812 3198.898438 1812 3216.800781 L 1812 3314.199219 C 1812.101562 3332.101562 1797.601562 3346.699219 1779.601562 3346.699219 "/>
    <path fill-rule="evenodd" fill="rgb(100%, 100%, 100%)" fill-opacity="1"
          d="M 2077.398438 3346.699219 C 2059.5 3346.699219 2045 3332.101562 2045 3314.199219 L 2045 3216.800781 C 2045 3198.898438 2059.5 3184.398438 2077.398438 3184.398438 C 2095.300781 3184.398438 2109.898438 3198.898438 2109.898438 3216.800781 L 2109.898438 3314.199219 C 2109.800781 3332.101562 2095.398438 3346.699219 2077.398438 3346.699219 "/>
    <path fill-rule="evenodd" fill="rgb(100%, 100%, 100%)" fill-opacity="1"
          d="M 2375.800781 3346.699219 C 2357.898438 3346.699219 2343.300781 3332.101562 2343.300781 3314.199219 L 2343.300781 3216.800781 C 2343.300781 3198.898438 2357.898438 3184.398438 2375.699219 3184.398438 C 2393.601562 3184.398438 2408.199219 3198.898438 2408.199219 3216.800781 L 2408.199219 3314.199219 C 2408.300781 3332.101562 2393.699219 3346.699219 2375.800781 3346.699219 "/>
    <path fill-rule="evenodd" fill="rgb(100%, 100%, 100%)" fill-opacity="1"
          d="M 2673.5 3346.699219 C 2655.601562 3346.699219 2641 3332.101562 2641 3314.199219 L 2641 3216.800781 C 2641 3198.898438 2655.601562 3184.398438 2673.398438 3184.398438 C 2691.300781 3184.398438 2705.898438 3198.898438 2705.898438 3216.800781 L 2705.898438 3314.199219 C 2706 3332.101562 2691.398438 3346.699219 2673.5 3346.699219 "/>
    <path fill-rule="evenodd" fill="rgb(100%, 100%, 100%)" fill-opacity="1"
          d="M 2072.800781 2366.5 L 1782.800781 2366.5 C 1685 2366.5 1605.300781 2286.800781 1605.300781 2189 C 1605.300781 2102.800781 1668 2029.898438 1750.101562 2014.5 C 1764.300781 1928.800781 1838.800781 1863.199219 1928.398438 1863.199219 C 2018 1863.199219 2092.601562 1928.800781 2106.699219 2014.5 C 2188.800781 2029.898438 2251 2102.898438 2250.199219 2189.199219 C 2250.398438 2286.699219 2170.699219 2366.5 2072.800781 2366.5 Z M 1928.601562 1928.199219 C 1864.800781 1928.199219 1812.898438 1980.199219 1812.898438 2044 C 1812.898438 2061.699219 1798.699219 2076.101562 1780.898438 2076.398438 C 1720 2077.398438 1670.398438 2128 1670.398438 2189 C 1670.398438 2251 1720.898438 2301.601562 1783 2301.601562 L 2073 2301.601562 C 2135 2301.601562 2185.601562 2251.101562 2185.601562 2189 C 2186.101562 2127.800781 2137 2077.5 2076.398438 2076.398438 C 2058.601562 2076.101562 2044.398438 2061.699219 2044.398438 2044 C 2044.300781 1980 1992.300781 1928.199219 1928.601562 1928.199219 Z M 2109.199219 2044 Z M 2109.199219 2044 "/>
    <path fill-rule="evenodd" fill="rgb(100%, 100%, 100%)" fill-opacity="1"
          d="M 1609.5 1979.101562 C 1540.800781 1979.101562 1484.898438 1907.898438 1484.898438 1820.300781 C 1484.898438 1732.800781 1540.800781 1661.398438 1609.5 1661.398438 C 1678.199219 1661.398438 1734.199219 1732.699219 1734.199219 1820.300781 C 1734.101562 1907.898438 1678.199219 1979.101562 1609.5 1979.101562 Z M 1609.5 1726.398438 C 1577.699219 1726.398438 1549.800781 1770.199219 1549.800781 1820.199219 C 1549.800781 1871.101562 1577.101562 1914 1609.5 1914 C 1641.300781 1914 1669.199219 1870.199219 1669.199219 1820.199219 C 1669.199219 1770.199219 1641.300781 1726.398438 1609.5 1726.398438 "/>
    <path fill-rule="evenodd" fill="rgb(100%, 100%, 100%)" fill-opacity="1"
          d="M 1928.601562 1808.300781 C 1859.898438 1808.300781 1803.898438 1737.101562 1803.898438 1649.5 C 1803.898438 1562 1859.898438 1490.601562 1928.601562 1490.601562 C 1997.300781 1490.601562 2053.300781 1561.800781 2053.300781 1649.5 C 2053.199219 1737.101562 1997.300781 1808.300781 1928.601562 1808.300781 Z M 1928.601562 1555.699219 C 1896.800781 1555.699219 1868.898438 1599.5 1868.898438 1649.601562 C 1868.898438 1700.5 1896.199219 1743.398438 1928.601562 1743.398438 C 1960.398438 1743.398438 1988.300781 1699.601562 1988.300781 1649.601562 C 1988.199219 1599.5 1960.300781 1555.699219 1928.601562 1555.699219 "/>
    <path fill-rule="evenodd" fill="rgb(100%, 100%, 100%)" fill-opacity="1"
          d="M 2248.199219 1979.101562 C 2179.5 1979.101562 2123.5 1907.898438 2123.5 1820.300781 C 2123.5 1732.800781 2179.5 1661.398438 2248.101562 1661.398438 C 2316.800781 1661.398438 2372.699219 1732.601562 2372.699219 1820.300781 C 2372.800781 1907.898438 2316.898438 1979.101562 2248.199219 1979.101562 Z M 2248.199219 1726.398438 C 2216.398438 1726.398438 2188.5 1770.199219 2188.5 1820.199219 C 2188.5 1870.199219 2216.398438 1914 2248.199219 1914 C 2280 1914 2307.898438 1870.199219 2307.898438 1820.199219 C 2307.800781 1770.199219 2280 1726.398438 2248.199219 1726.398438 "/>
    <path fill-rule="evenodd" fill="rgb(100%, 100%, 100%)" fill-opacity="1"
          d="M 1928.601562 2636.398438 C 1538.199219 2636.398438 1220.699219 2318.800781 1220.699219 1928.601562 C 1220.699219 1538.398438 1538.199219 1220.699219 1928.5 1220.699219 C 2318.800781 1220.699219 2636.300781 1538.300781 2636.300781 1928.5 C 2636.398438 2318.898438 2318.800781 2636.398438 1928.601562 2636.398438 Z M 1928.601562 1285.601562 C 1574.101562 1285.601562 1285.601562 1574 1285.601562 1928.5 C 1285.601562 2283.101562 1574 2571.398438 1928.5 2571.398438 C 2283 2571.398438 2571.398438 2283.101562 2571.398438 1928.5 C 2571.5 1574 2283 1285.601562 1928.601562 1285.601562 "/>
</svg>
