<?xml version="1.0" encoding="UTF-8"?>
<svg xmlns="http://www.w3.org/2000/svg" xmlns:xlink="http://www.w3.org/1999/xlink" width="3845.23" height="3953.21"
     viewBox="0 0 3845.23 3953.21">
    <defs>
        <clipPath id="clip-0">
            <path clip-rule="nonzero" d="M 2187 643 L 2482 643 L 2482 778 L 2187 778 Z M 2187 643 "/>
        </clipPath>
        <clipPath id="clip-1">
            <path clip-rule="nonzero"
                  d="M 2187.269531 777.828125 L 2199.101562 730.46875 L 2356.488281 643.910156 L 2481.691406 710.671875 L 2359.371094 772.789062 L 2187.269531 777.828125 "/>
        </clipPath>
        <clipPath id="clip-2">
            <path clip-rule="nonzero"
                  d="M 2187.269531 777.828125 L 2199.101562 730.46875 L 2356.488281 643.910156 L 2481.691406 710.671875 L 2359.371094 772.789062 L 2187.269531 777.828125 "/>
        </clipPath>
        <linearGradient id="linear-pattern-0" gradientUnits="userSpaceOnUse" x1="-0.0000256945" y1="0" x2="0.922964"
                        y2="0" gradientTransform="matrix(317.919, -147.184, 154.471, 302.911, 2169.09, 742.16)">
            <stop offset="0" stop-color="rgb(15.686035%, 56.077576%, 78.822327%)" stop-opacity="1"/>
            <stop offset="0.015625" stop-color="rgb(15.686035%, 56.077576%, 78.999329%)" stop-opacity="1"/>
            <stop offset="0.03125" stop-color="rgb(15.686035%, 56.237793%, 79.196167%)" stop-opacity="1"/>
            <stop offset="0.046875" stop-color="rgb(15.686035%, 56.433105%, 79.356384%)" stop-opacity="1"/>
            <stop offset="0.0625" stop-color="rgb(15.686035%, 56.593323%, 79.551697%)" stop-opacity="1"/>
            <stop offset="0.078125" stop-color="rgb(15.686035%, 56.790161%, 79.711914%)" stop-opacity="1"/>
            <stop offset="0.09375" stop-color="rgb(15.77301%, 56.861877%, 79.997253%)" stop-opacity="1"/>
            <stop offset="0.109375" stop-color="rgb(15.969849%, 56.932068%, 80.282593%)" stop-opacity="1"/>
            <stop offset="0.125" stop-color="rgb(16.078186%, 57.12738%, 80.44281%)" stop-opacity="1"/>
            <stop offset="0.140625" stop-color="rgb(16.078186%, 57.287598%, 80.639648%)" stop-opacity="1"/>
            <stop offset="0.15625" stop-color="rgb(16.078186%, 57.484436%, 80.799866%)" stop-opacity="1"/>
            <stop offset="0.171875" stop-color="rgb(16.078186%, 57.646179%, 80.993652%)" stop-opacity="1"/>
            <stop offset="0.1875" stop-color="rgb(16.078186%, 57.823181%, 81.350708%)" stop-opacity="1"/>
            <stop offset="0.21875" stop-color="rgb(16.078186%, 58.1604%, 81.689453%)" stop-opacity="1"/>
            <stop offset="0.234375" stop-color="rgb(16.200256%, 58.375549%, 81.904602%)" stop-opacity="1"/>
            <stop offset="0.25" stop-color="rgb(16.397095%, 58.430481%, 82.064819%)" stop-opacity="1"/>
            <stop offset="0.265625" stop-color="rgb(16.470337%, 58.517456%, 82.347107%)" stop-opacity="1"/>
            <stop offset="0.28125" stop-color="rgb(16.470337%, 58.712769%, 82.633972%)" stop-opacity="1"/>
            <stop offset="0.296875" stop-color="rgb(16.470337%, 58.872986%, 82.794189%)" stop-opacity="1"/>
            <stop offset="0.3125" stop-color="rgb(16.470337%, 59.069824%, 82.991028%)" stop-opacity="1"/>
            <stop offset="0.34375" stop-color="rgb(16.470337%, 59.408569%, 83.329773%)" stop-opacity="1"/>
            <stop offset="0.375" stop-color="rgb(16.627502%, 59.603882%, 83.683777%)" stop-opacity="1"/>
            <stop offset="0.390625" stop-color="rgb(16.822815%, 59.745789%, 83.882141%)" stop-opacity="1"/>
            <stop offset="0.40625" stop-color="rgb(16.862488%, 59.942627%, 84.042358%)" stop-opacity="1"/>
            <stop offset="0.421875" stop-color="rgb(16.862488%, 60.102844%, 84.341431%)" stop-opacity="1"/>
            <stop offset="0.4375" stop-color="rgb(16.862488%, 60.298157%, 84.611511%)" stop-opacity="1"/>
            <stop offset="0.453125" stop-color="rgb(16.862488%, 60.391235%, 84.771729%)" stop-opacity="1"/>
            <stop offset="0.46875" stop-color="rgb(16.862488%, 60.441589%, 84.968567%)" stop-opacity="1"/>
            <stop offset="0.484375" stop-color="rgb(16.862488%, 60.636902%, 85.128784%)" stop-opacity="1"/>
            <stop offset="0.5" stop-color="rgb(16.876221%, 60.797119%, 85.339355%)" stop-opacity="1"/>
            <stop offset="0.53125" stop-color="rgb(17.071533%, 60.993958%, 85.699463%)" stop-opacity="1"/>
            <stop offset="0.546875" stop-color="rgb(17.254639%, 61.331177%, 86.038208%)" stop-opacity="1"/>
            <stop offset="0.5625" stop-color="rgb(17.254639%, 61.528015%, 86.233521%)" stop-opacity="1"/>
            <stop offset="0.578125" stop-color="rgb(17.254639%, 61.688232%, 86.393738%)" stop-opacity="1"/>
            <stop offset="0.59375" stop-color="rgb(17.254639%, 61.883545%, 86.69281%)" stop-opacity="1"/>
            <stop offset="0.609375" stop-color="rgb(17.254639%, 62.043762%, 86.964417%)" stop-opacity="1"/>
            <stop offset="0.625" stop-color="rgb(17.254639%, 62.240601%, 87.124634%)" stop-opacity="1"/>
            <stop offset="0.640625" stop-color="rgb(17.303467%, 62.35199%, 87.319946%)" stop-opacity="1"/>
            <stop offset="0.65625" stop-color="rgb(17.498779%, 62.382507%, 87.480164%)" stop-opacity="1"/>
            <stop offset="0.671875" stop-color="rgb(17.64679%, 62.579346%, 87.690735%)" stop-opacity="1"/>
            <stop offset="0.6875" stop-color="rgb(17.64679%, 62.744141%, 88.046265%)" stop-opacity="1"/>
            <stop offset="0.703125" stop-color="rgb(17.64679%, 62.916565%, 88.22937%)" stop-opacity="1"/>
            <stop offset="0.71875" stop-color="rgb(17.64679%, 63.113403%, 88.389587%)" stop-opacity="1"/>
            <stop offset="0.75" stop-color="rgb(17.64679%, 63.25531%, 88.705444%)" stop-opacity="1"/>
            <stop offset="0.765625" stop-color="rgb(17.64679%, 63.452148%, 89.044189%)" stop-opacity="1"/>
            <stop offset="0.78125" stop-color="rgb(17.729187%, 63.612366%, 89.315796%)" stop-opacity="1"/>
            <stop offset="0.796875" stop-color="rgb(17.926025%, 63.807678%, 89.476013%)" stop-opacity="1"/>
            <stop offset="0.8125" stop-color="rgb(18.03894%, 63.967896%, 89.672852%)" stop-opacity="1"/>
            <stop offset="0.828125" stop-color="rgb(18.03894%, 64.164734%, 89.833069%)" stop-opacity="1"/>
            <stop offset="0.84375" stop-color="rgb(18.03894%, 64.312744%, 90.040588%)" stop-opacity="1"/>
            <stop offset="0.875" stop-color="rgb(18.03894%, 64.485168%, 90.402222%)" stop-opacity="1"/>
            <stop offset="0.890625" stop-color="rgb(18.03894%, 64.680481%, 90.740967%)" stop-opacity="1"/>
            <stop offset="0.90625" stop-color="rgb(18.03894%, 64.840698%, 90.937805%)" stop-opacity="1"/>
            <stop offset="0.921875" stop-color="rgb(18.03894%, 65.037537%, 91.098022%)" stop-opacity="1"/>
            <stop offset="0.9375" stop-color="rgb(18.138123%, 65.197754%, 91.394043%)" stop-opacity="1"/>
            <stop offset="0.96875" stop-color="rgb(18.334961%, 65.458679%, 91.732788%)" stop-opacity="1"/>
            <stop offset="1" stop-color="rgb(18.431091%, 65.750122%, 92.053223%)" stop-opacity="1"/>
        </linearGradient>
        <clipPath id="clip-3">
            <path clip-rule="nonzero" d="M 2164 577 L 2332 577 L 2332 697 L 2164 697 Z M 2164 577 "/>
        </clipPath>
        <clipPath id="clip-4">
            <path clip-rule="nonzero"
                  d="M 2164.199219 696.859375 L 2188.539062 599.269531 L 2202.511719 577.660156 L 2331.851562 647.320312 L 2246.160156 694.199219 L 2164.199219 696.859375 "/>
        </clipPath>
        <clipPath id="clip-5">
            <path clip-rule="nonzero"
                  d="M 2164.199219 696.859375 L 2188.539062 599.269531 L 2202.511719 577.660156 L 2331.851562 647.320312 L 2246.160156 694.199219 L 2164.199219 696.859375 "/>
        </clipPath>
        <linearGradient id="linear-pattern-1" gradientUnits="userSpaceOnUse" x1="-0.00000641161" y1="0" x2="0.990325"
                        y2="0" gradientTransform="matrix(186.61, -86.3934, 90.6704, 177.801, 2150.55, 670.09)">
            <stop offset="0" stop-color="rgb(27.450562%, 60.391235%, 78.822327%)" stop-opacity="1"/>
            <stop offset="0.015625" stop-color="rgb(27.450562%, 60.391235%, 79.013062%)" stop-opacity="1"/>
            <stop offset="0.03125" stop-color="rgb(27.450562%, 60.577393%, 79.2099%)" stop-opacity="1"/>
            <stop offset="0.046875" stop-color="rgb(27.630615%, 60.772705%, 79.396057%)" stop-opacity="1"/>
            <stop offset="0.0625" stop-color="rgb(27.827454%, 60.958862%, 79.59137%)" stop-opacity="1"/>
            <stop offset="0.078125" stop-color="rgb(27.842712%, 61.155701%, 79.777527%)" stop-opacity="1"/>
            <stop offset="0.09375" stop-color="rgb(27.842712%, 61.341858%, 80.140686%)" stop-opacity="1"/>
            <stop offset="0.125" stop-color="rgb(27.998352%, 61.694336%, 80.517578%)" stop-opacity="1"/>
            <stop offset="0.15625" stop-color="rgb(28.19519%, 61.920166%, 80.891418%)" stop-opacity="1"/>
            <stop offset="0.171875" stop-color="rgb(28.234863%, 62.101746%, 81.268311%)" stop-opacity="1"/>
            <stop offset="0.1875" stop-color="rgb(28.234863%, 62.297058%, 81.512451%)" stop-opacity="1"/>
            <stop offset="0.203125" stop-color="rgb(28.366089%, 62.483215%, 81.698608%)" stop-opacity="1"/>
            <stop offset="0.21875" stop-color="rgb(28.562927%, 62.680054%, 81.895447%)" stop-opacity="1"/>
            <stop offset="0.234375" stop-color="rgb(28.627014%, 62.866211%, 82.081604%)" stop-opacity="1"/>
            <stop offset="0.25" stop-color="rgb(28.627014%, 63.061523%, 82.394409%)" stop-opacity="1"/>
            <stop offset="0.265625" stop-color="rgb(28.738403%, 63.247681%, 82.66449%)" stop-opacity="1"/>
            <stop offset="0.28125" stop-color="rgb(28.935242%, 63.444519%, 82.850647%)" stop-opacity="1"/>
            <stop offset="0.296875" stop-color="rgb(29.019165%, 63.630676%, 83.047485%)" stop-opacity="1"/>
            <stop offset="0.3125" stop-color="rgb(29.019165%, 63.825989%, 83.233643%)" stop-opacity="1"/>
            <stop offset="0.328125" stop-color="rgb(29.019165%, 64.012146%, 83.428955%)" stop-opacity="1"/>
            <stop offset="0.34375" stop-color="rgb(29.10614%, 64.208984%, 83.615112%)" stop-opacity="1"/>
            <stop offset="0.359375" stop-color="rgb(29.302979%, 64.395142%, 83.811951%)" stop-opacity="1"/>
            <stop offset="0.375" stop-color="rgb(29.411316%, 64.590454%, 83.998108%)" stop-opacity="1"/>
            <stop offset="0.390625" stop-color="rgb(29.411316%, 64.778137%, 84.266663%)" stop-opacity="1"/>
            <stop offset="0.40625" stop-color="rgb(29.411316%, 64.97345%, 84.580994%)" stop-opacity="1"/>
            <stop offset="0.421875" stop-color="rgb(29.411316%, 65.097046%, 84.767151%)" stop-opacity="1"/>
            <stop offset="0.4375" stop-color="rgb(29.469299%, 65.155029%, 84.963989%)" stop-opacity="1"/>
            <stop offset="0.453125" stop-color="rgb(29.664612%, 65.350342%, 85.150146%)" stop-opacity="1"/>
            <stop offset="0.46875" stop-color="rgb(29.803467%, 65.536499%, 85.394287%)" stop-opacity="1"/>
            <stop offset="0.5" stop-color="rgb(29.803467%, 65.771484%, 85.771179%)" stop-opacity="1"/>
            <stop offset="0.515625" stop-color="rgb(29.83551%, 66.114807%, 86.114502%)" stop-opacity="1"/>
            <stop offset="0.53125" stop-color="rgb(30.032349%, 66.300964%, 86.302185%)" stop-opacity="1"/>
            <stop offset="0.546875" stop-color="rgb(30.195618%, 66.497803%, 86.521912%)" stop-opacity="1"/>
            <stop offset="0.5625" stop-color="rgb(30.195618%, 66.68396%, 86.885071%)" stop-opacity="1"/>
            <stop offset="0.578125" stop-color="rgb(30.195618%, 66.879272%, 87.071228%)" stop-opacity="1"/>
            <stop offset="0.59375" stop-color="rgb(30.203247%, 67.0578%, 87.266541%)" stop-opacity="1"/>
            <stop offset="0.625" stop-color="rgb(30.400085%, 67.253113%, 87.644958%)" stop-opacity="1"/>
            <stop offset="0.640625" stop-color="rgb(30.587769%, 67.63916%, 88.031006%)" stop-opacity="1"/>
            <stop offset="0.65625" stop-color="rgb(30.587769%, 67.835999%, 88.227844%)" stop-opacity="1"/>
            <stop offset="0.671875" stop-color="rgb(30.767822%, 68.022156%, 88.414001%)" stop-opacity="1"/>
            <stop offset="0.6875" stop-color="rgb(30.963135%, 68.217468%, 88.609314%)" stop-opacity="1"/>
            <stop offset="0.703125" stop-color="rgb(30.979919%, 68.234253%, 88.796997%)" stop-opacity="1"/>
            <stop offset="0.71875" stop-color="rgb(30.979919%, 68.399048%, 89.15863%)" stop-opacity="1"/>
            <stop offset="0.75" stop-color="rgb(31.135559%, 68.751526%, 89.535522%)" stop-opacity="1"/>
            <stop offset="0.78125" stop-color="rgb(31.330872%, 69.12384%, 89.907837%)" stop-opacity="1"/>
            <stop offset="0.796875" stop-color="rgb(31.37207%, 69.360352%, 90.284729%)" stop-opacity="1"/>
            <stop offset="0.8125" stop-color="rgb(31.507874%, 69.546509%, 90.531921%)" stop-opacity="1"/>
            <stop offset="0.828125" stop-color="rgb(31.703186%, 69.741821%, 90.718079%)" stop-opacity="1"/>
            <stop offset="0.84375" stop-color="rgb(31.764221%, 69.927979%, 90.913391%)" stop-opacity="1"/>
            <stop offset="0.859375" stop-color="rgb(31.764221%, 70.124817%, 91.099548%)" stop-opacity="1"/>
            <stop offset="0.875" stop-color="rgb(31.764221%, 70.195007%, 91.412354%)" stop-opacity="1"/>
            <stop offset="0.890625" stop-color="rgb(31.874084%, 70.306396%, 91.682434%)" stop-opacity="1"/>
            <stop offset="0.90625" stop-color="rgb(32.070923%, 70.501709%, 91.870117%)" stop-opacity="1"/>
            <stop offset="0.921875" stop-color="rgb(32.156372%, 70.687866%, 92.06543%)" stop-opacity="1"/>
            <stop offset="0.9375" stop-color="rgb(32.156372%, 70.884705%, 92.251587%)" stop-opacity="1"/>
            <stop offset="0.953125" stop-color="rgb(32.156372%, 71.070862%, 92.539978%)" stop-opacity="1"/>
            <stop offset="0.96875" stop-color="rgb(32.241821%, 71.266174%, 92.834473%)" stop-opacity="1"/>
            <stop offset="0.984375" stop-color="rgb(32.43866%, 71.37146%, 93.02063%)" stop-opacity="1"/>
            <stop offset="1" stop-color="rgb(32.548523%, 71.447754%, 93.217468%)" stop-opacity="1"/>
        </linearGradient>
        <clipPath id="clip-6">
            <path clip-rule="nonzero" d="M 1768 913 L 1940 913 L 1940 1037 L 1768 1037 Z M 1768 913 "/>
        </clipPath>
        <clipPath id="clip-7">
            <path clip-rule="nonzero"
                  d="M 1768.871094 1036.441406 L 1788.648438 954.988281 L 1835.238281 913.25 L 1939.410156 970.738281 L 1845.171875 1024.660156 L 1768.871094 1036.441406 "/>
        </clipPath>
    </defs>
    <path fill-rule="nonzero" fill="rgb(100%, 100%, 100%)" fill-opacity="1"
          d="M 0 3953.210938 L 3845.230469 3953.210938 L 3845.230469 0 L 0 0 Z M 0 3953.210938 "/>
    <path fill-rule="nonzero" fill="rgb(19.993591%, 71.289062%, 100%)" fill-opacity="1"
          d="M 1922.648438 1243.441406 L 1046.710938 743.710938 L 1922.648438 287.140625 L 2798.53125 747.511719 L 1922.648438 1243.441406 "/>
    <path fill-rule="nonzero" fill="rgb(1.567078%, 10.205078%, 25.097656%)" fill-opacity="1"
          d="M 2798.53125 747.511719 L 1922.648438 1243.441406 L 1922.648438 3707.890625 L 2798.53125 3212.078125 L 2798.53125 747.511719 "/>
    <path fill-rule="nonzero" fill="rgb(5.883789%, 27.43988%, 65.039062%)" fill-opacity="1"
          d="M 1922.648438 3707.890625 L 1046.710938 3208.21875 L 1046.710938 743.710938 L 1922.648438 1243.441406 L 1922.648438 3707.890625 "/>
    <path fill-rule="nonzero" fill="rgb(84.764099%, 51.756287%, 5.488586%)" fill-opacity="1"
          d="M 2642 2532.671875 L 2778.671875 2455.28125 L 2778.671875 2393.910156 L 2642 2471.339844 L 2642 2532.671875 "/>
    <path fill-rule="nonzero" fill="rgb(25.097656%, 24.31488%, 25.87738%)" fill-opacity="1"
          d="M 2503.449219 2610.441406 L 2640.238281 2533 L 2640.238281 2471.699219 L 2503.449219 2549.058594 L 2503.449219 2610.441406 "/>
    <path fill-rule="nonzero" fill="rgb(25.097656%, 24.31488%, 25.87738%)" fill-opacity="1"
          d="M 2364.960938 2688.089844 L 2501.640625 2610.75 L 2501.640625 2549.371094 L 2364.960938 2626.71875 L 2364.960938 2688.089844 "/>
    <path fill-rule="nonzero" fill="rgb(25.097656%, 24.31488%, 25.87738%)" fill-opacity="1"
          d="M 2226.46875 2765.878906 L 2363.160156 2688.511719 L 2363.160156 2627.160156 L 2226.46875 2704.480469 L 2226.46875 2765.878906 "/>
    <path fill-rule="nonzero" fill="rgb(84.764099%, 51.756287%, 5.488586%)" fill-opacity="1"
          d="M 2087.941406 2843.53125 L 2224.671875 2766.160156 L 2224.671875 2704.929688 L 2087.941406 2782.179688 L 2087.941406 2843.53125 "/>
    <path fill-rule="nonzero" fill="rgb(25.097656%, 24.31488%, 25.87738%)" fill-opacity="1"
          d="M 1949.5 2921.261719 L 2086.191406 2843.929688 L 2086.191406 2782.609375 L 1949.5 2859.921875 L 1949.5 2921.261719 "/>
    <path fill-rule="nonzero" fill="rgb(84.764099%, 51.756287%, 5.488586%)" fill-opacity="1"
          d="M 2642 2640.320312 L 2778.671875 2562.878906 L 2778.671875 2501.621094 L 2642 2578.960938 L 2642 2640.320312 "/>
    <path fill-rule="nonzero" fill="rgb(84.764099%, 51.756287%, 5.488586%)" fill-opacity="1"
          d="M 2503.449219 2718.058594 L 2640.238281 2640.640625 L 2640.238281 2579.289062 L 2503.449219 2656.679688 L 2503.449219 2718.058594 "/>
    <path fill-rule="nonzero" fill="rgb(84.764099%, 51.756287%, 5.488586%)" fill-opacity="1"
          d="M 2364.960938 2795.738281 L 2501.640625 2718.390625 L 2501.640625 2657.011719 L 2364.960938 2734.390625 L 2364.960938 2795.738281 "/>
    <path fill-rule="nonzero" fill="rgb(84.764099%, 51.756287%, 5.488586%)" fill-opacity="1"
          d="M 2226.46875 2873.460938 L 2363.160156 2796.101562 L 2363.160156 2734.78125 L 2226.46875 2812.21875 L 2226.46875 2873.460938 "/>
    <path fill-rule="nonzero" fill="rgb(25.097656%, 24.31488%, 25.87738%)" fill-opacity="1"
          d="M 2087.941406 2951.21875 L 2224.671875 2873.890625 L 2224.671875 2812.460938 L 2087.941406 2889.871094 L 2087.941406 2951.21875 "/>
    <path fill-rule="nonzero" fill="rgb(84.764099%, 51.756287%, 5.488586%)" fill-opacity="1"
          d="M 1949.5 3028.910156 L 2086.191406 2951.53125 L 2086.191406 2890.210938 L 1949.5 2967.609375 L 1949.5 3028.910156 "/>
    <path fill-rule="nonzero" fill="rgb(25.097656%, 24.31488%, 25.87738%)" fill-opacity="1"
          d="M 2642 2747.929688 L 2778.671875 2670.550781 L 2778.671875 2609.210938 L 2642 2686.578125 L 2642 2747.929688 "/>
    <path fill-rule="nonzero" fill="rgb(25.097656%, 24.31488%, 25.87738%)" fill-opacity="1"
          d="M 2503.449219 2825.71875 L 2640.238281 2748.230469 L 2640.238281 2686.980469 L 2503.449219 2764.28125 L 2503.449219 2825.71875 "/>
    <path fill-rule="nonzero" fill="rgb(25.097656%, 24.31488%, 25.87738%)" fill-opacity="1"
          d="M 2364.960938 2903.371094 L 2501.640625 2826 L 2501.640625 2764.769531 L 2364.960938 2842.011719 L 2364.960938 2903.371094 "/>
    <path fill-rule="nonzero" fill="rgb(84.764099%, 51.756287%, 5.488586%)" fill-opacity="1"
          d="M 2226.46875 2981.109375 L 2363.160156 2903.75 L 2363.160156 2842.339844 L 2226.46875 2919.621094 L 2226.46875 2981.109375 "/>
    <path fill-rule="nonzero" fill="rgb(25.097656%, 24.31488%, 25.87738%)" fill-opacity="1"
          d="M 2087.941406 3058.820312 L 2224.671875 2981.519531 L 2224.671875 2920.121094 L 2087.941406 2997.53125 L 2087.941406 3058.820312 "/>
    <path fill-rule="nonzero" fill="rgb(25.097656%, 24.31488%, 25.87738%)" fill-opacity="1"
          d="M 1949.5 3136.558594 L 2086.191406 3059.210938 L 2086.191406 2997.859375 L 1949.5 3075.160156 L 1949.5 3136.558594 "/>
    <path fill-rule="nonzero" fill="rgb(84.764099%, 51.756287%, 5.488586%)" fill-opacity="1"
          d="M 2642 2855.621094 L 2778.671875 2778.148438 L 2778.671875 2716.851562 L 2642 2794.210938 L 2642 2855.621094 "/>
    <path fill-rule="nonzero" fill="rgb(84.764099%, 51.756287%, 5.488586%)" fill-opacity="1"
          d="M 2503.449219 2933.328125 L 2640.238281 2855.941406 L 2640.238281 2794.589844 L 2503.449219 2871.871094 L 2503.449219 2933.328125 "/>
    <path fill-rule="nonzero" fill="rgb(25.097656%, 24.31488%, 25.87738%)" fill-opacity="1"
          d="M 2364.960938 3011.011719 L 2501.640625 2933.660156 L 2501.640625 2872.308594 L 2364.960938 2949.660156 L 2364.960938 3011.011719 "/>
    <path fill-rule="nonzero" fill="rgb(25.097656%, 24.31488%, 25.87738%)" fill-opacity="1"
          d="M 2226.46875 3088.710938 L 2363.160156 3011.398438 L 2363.160156 2950.050781 L 2226.46875 3027.328125 L 2226.46875 3088.710938 "/>
    <path fill-rule="nonzero" fill="rgb(25.097656%, 24.31488%, 25.87738%)" fill-opacity="1"
          d="M 2087.941406 3166.449219 L 2224.671875 3089.109375 L 2224.671875 3027.828125 L 2087.941406 3105.101562 L 2087.941406 3166.449219 "/>
    <path fill-rule="nonzero" fill="rgb(84.764099%, 51.756287%, 5.488586%)" fill-opacity="1"
          d="M 1949.5 3244.121094 L 2086.191406 3166.851562 L 2086.191406 3105.460938 L 1949.5 3182.839844 L 1949.5 3244.121094 "/>
    <path fill-rule="nonzero" fill="rgb(84.764099%, 51.756287%, 5.488586%)" fill-opacity="1"
          d="M 2642 2963.148438 L 2778.671875 2885.769531 L 2778.671875 2824.390625 L 2642 2901.839844 L 2642 2963.148438 "/>
    <path fill-rule="nonzero" fill="rgb(84.764099%, 51.756287%, 5.488586%)" fill-opacity="1"
          d="M 2503.449219 3040.859375 L 2640.238281 2963.53125 L 2640.238281 2902.230469 L 2503.449219 2979.480469 L 2503.449219 3040.859375 "/>
    <path fill-rule="nonzero" fill="rgb(84.764099%, 51.756287%, 5.488586%)" fill-opacity="1"
          d="M 2364.960938 3118.671875 L 2501.640625 3041.28125 L 2501.640625 2979.960938 L 2364.960938 3057.308594 L 2364.960938 3118.671875 "/>
    <path fill-rule="nonzero" fill="rgb(25.097656%, 24.31488%, 25.87738%)" fill-opacity="1"
          d="M 2226.46875 3196.269531 L 2363.160156 3119.019531 L 2363.160156 3057.558594 L 2226.46875 3134.988281 L 2226.46875 3196.269531 "/>
    <path fill-rule="nonzero" fill="rgb(25.097656%, 24.31488%, 25.87738%)" fill-opacity="1"
          d="M 2087.941406 3274.089844 L 2224.671875 3196.730469 L 2224.671875 3135.300781 L 2087.941406 3212.71875 L 2087.941406 3274.089844 "/>
    <path fill-rule="nonzero" fill="rgb(84.764099%, 51.756287%, 5.488586%)" fill-opacity="1"
          d="M 1949.5 3351.808594 L 2086.191406 3274.398438 L 2086.191406 3213.148438 L 1949.5 3290.371094 L 1949.5 3351.808594 "/>
    <path fill-rule="nonzero" fill="rgb(25.097656%, 24.31488%, 25.87738%)" fill-opacity="1"
          d="M 2642 3070.800781 L 2778.671875 2993.339844 L 2778.671875 2932.039062 L 2642 3009.359375 L 2642 3070.800781 "/>
    <path fill-rule="nonzero" fill="rgb(25.097656%, 24.31488%, 25.87738%)" fill-opacity="1"
          d="M 2503.449219 3148.589844 L 2640.238281 3071.078125 L 2640.238281 3009.78125 L 2503.449219 3087.140625 L 2503.449219 3148.589844 "/>
    <path fill-rule="nonzero" fill="rgb(25.097656%, 24.31488%, 25.87738%)" fill-opacity="1"
          d="M 2364.960938 3226.230469 L 2501.640625 3148.878906 L 2501.640625 3087.46875 L 2364.960938 3164.789062 L 2364.960938 3226.230469 "/>
    <path fill-rule="nonzero" fill="rgb(25.097656%, 24.31488%, 25.87738%)" fill-opacity="1"
          d="M 2226.46875 3304.050781 L 2363.160156 3226.589844 L 2363.160156 3165.148438 L 2226.46875 3242.589844 L 2226.46875 3304.050781 "/>
    <path fill-rule="nonzero" fill="rgb(84.764099%, 51.756287%, 5.488586%)" fill-opacity="1"
          d="M 2087.941406 3381.660156 L 2224.671875 3304.359375 L 2224.671875 3242.949219 L 2087.941406 3320.300781 L 2087.941406 3381.660156 "/>
    <path fill-rule="nonzero" fill="rgb(25.097656%, 24.31488%, 25.87738%)" fill-opacity="1"
          d="M 1949.5 3459.378906 L 2086.191406 3382.039062 L 2086.191406 3320.800781 L 1949.5 3398.101562 L 1949.5 3459.378906 "/>
    <path fill-rule="nonzero" fill="rgb(84.764099%, 51.756287%, 5.488586%)" fill-opacity="1"
          d="M 2642 1413.050781 L 2778.671875 1335.710938 L 2778.671875 1274.46875 L 2642 1351.820312 L 2642 1413.050781 "/>
    <path fill-rule="nonzero" fill="rgb(25.097656%, 24.31488%, 25.87738%)" fill-opacity="1"
          d="M 2503.449219 1490.890625 L 2640.238281 1413.480469 L 2640.238281 1352.269531 L 2503.449219 1429.511719 L 2503.449219 1490.890625 "/>
    <path fill-rule="nonzero" fill="rgb(25.097656%, 24.31488%, 25.87738%)" fill-opacity="1"
          d="M 2364.960938 1568.570312 L 2501.640625 1491.21875 L 2501.640625 1430.058594 L 2364.960938 1507.28125 L 2364.960938 1568.570312 "/>
    <path fill-rule="nonzero" fill="rgb(25.097656%, 24.31488%, 25.87738%)" fill-opacity="1"
          d="M 2226.46875 1646.339844 L 2363.160156 1568.921875 L 2363.160156 1507.609375 L 2226.46875 1584.960938 L 2226.46875 1646.339844 "/>
    <path fill-rule="nonzero" fill="rgb(25.097656%, 24.31488%, 25.87738%)" fill-opacity="1"
          d="M 2087.941406 1724.078125 L 2224.671875 1646.671875 L 2224.671875 1585.351562 L 2087.941406 1662.789062 L 2087.941406 1724.078125 "/>
    <path fill-rule="nonzero" fill="rgb(84.764099%, 51.756287%, 5.488586%)" fill-opacity="1"
          d="M 1949.5 1801.871094 L 2086.191406 1724.519531 L 2086.191406 1663.121094 L 1949.5 1740.539062 L 1949.5 1801.871094 "/>
    <path fill-rule="nonzero" fill="rgb(25.097656%, 24.31488%, 25.87738%)" fill-opacity="1"
          d="M 2642 1520.738281 L 2778.671875 1443.441406 L 2778.671875 1382.058594 L 2642 1459.5 L 2642 1520.738281 "/>
    <path fill-rule="nonzero" fill="rgb(25.097656%, 24.31488%, 25.87738%)" fill-opacity="1"
          d="M 2503.449219 1598.558594 L 2640.238281 1521.140625 L 2640.238281 1459.851562 L 2503.449219 1537.238281 L 2503.449219 1598.558594 "/>
    <path fill-rule="nonzero" fill="rgb(25.097656%, 24.31488%, 25.87738%)" fill-opacity="1"
          d="M 2364.960938 1676.28125 L 2501.640625 1598.808594 L 2501.640625 1537.511719 L 2364.960938 1614.820312 L 2364.960938 1676.28125 "/>
    <path fill-rule="nonzero" fill="rgb(84.764099%, 51.756287%, 5.488586%)" fill-opacity="1"
          d="M 2226.46875 1753.960938 L 2363.160156 1676.53125 L 2363.160156 1615.25 L 2226.46875 1692.621094 L 2226.46875 1753.960938 "/>
    <path fill-rule="nonzero" fill="rgb(84.764099%, 51.756287%, 5.488586%)" fill-opacity="1"
          d="M 2087.941406 1831.671875 L 2224.671875 1754.371094 L 2224.671875 1693.050781 L 2087.941406 1770.359375 L 2087.941406 1831.671875 "/>
    <path fill-rule="nonzero" fill="rgb(84.764099%, 51.756287%, 5.488586%)" fill-opacity="1"
          d="M 1949.5 1909.421875 L 2086.191406 1832.03125 L 2086.191406 1770.769531 L 1949.5 1848.148438 L 1949.5 1909.421875 "/>
    <path fill-rule="nonzero" fill="rgb(25.097656%, 24.31488%, 25.87738%)" fill-opacity="1"
          d="M 2642 1628.421875 L 2778.671875 1551.058594 L 2778.671875 1489.710938 L 2642 1567.070312 L 2642 1628.421875 "/>
    <path fill-rule="nonzero" fill="rgb(25.097656%, 24.31488%, 25.87738%)" fill-opacity="1"
          d="M 2503.449219 1706.210938 L 2640.238281 1628.828125 L 2640.238281 1567.449219 L 2503.449219 1644.71875 L 2503.449219 1706.210938 "/>
    <path fill-rule="nonzero" fill="rgb(25.097656%, 24.31488%, 25.87738%)" fill-opacity="1"
          d="M 2364.960938 1783.929688 L 2501.640625 1706.550781 L 2501.640625 1645.101562 L 2364.960938 1722.488281 L 2364.960938 1783.929688 "/>
    <path fill-rule="nonzero" fill="rgb(25.097656%, 24.31488%, 25.87738%)" fill-opacity="1"
          d="M 2226.46875 1861.558594 L 2363.160156 1784.199219 L 2363.160156 1722.910156 L 2226.46875 1800.210938 L 2226.46875 1861.558594 "/>
    <path fill-rule="nonzero" fill="rgb(25.097656%, 24.31488%, 25.87738%)" fill-opacity="1"
          d="M 2087.941406 1939.328125 L 2224.671875 1861.941406 L 2224.671875 1800.558594 L 2087.941406 1877.980469 L 2087.941406 1939.328125 "/>
    <path fill-rule="nonzero" fill="rgb(25.097656%, 24.31488%, 25.87738%)" fill-opacity="1"
          d="M 1949.5 2017.070312 L 2086.191406 1939.660156 L 2086.191406 1878.328125 L 1949.5 1955.71875 L 1949.5 2017.070312 "/>
    <path fill-rule="nonzero" fill="rgb(84.764099%, 51.756287%, 5.488586%)" fill-opacity="1"
          d="M 2642 1736.019531 L 2778.671875 1658.648438 L 2778.671875 1597.359375 L 2642 1674.628906 L 2642 1736.019531 "/>
    <path fill-rule="nonzero" fill="rgb(25.097656%, 24.31488%, 25.87738%)" fill-opacity="1"
          d="M 2503.449219 1813.738281 L 2640.238281 1736.421875 L 2640.238281 1675.089844 L 2503.449219 1752.429688 L 2503.449219 1813.738281 "/>
    <path fill-rule="nonzero" fill="rgb(25.097656%, 24.31488%, 25.87738%)" fill-opacity="1"
          d="M 2364.960938 1891.570312 L 2501.640625 1814.160156 L 2501.640625 1752.808594 L 2364.960938 1830.109375 L 2364.960938 1891.570312 "/>
    <path fill-rule="nonzero" fill="rgb(84.764099%, 51.756287%, 5.488586%)" fill-opacity="1"
          d="M 2226.46875 1969.230469 L 2363.160156 1891.839844 L 2363.160156 1830.46875 L 2226.46875 1907.820312 L 2226.46875 1969.230469 "/>
    <path fill-rule="nonzero" fill="rgb(84.764099%, 51.756287%, 5.488586%)" fill-opacity="1"
          d="M 2087.941406 2046.96875 L 2224.671875 1969.609375 L 2224.671875 1908.179688 L 2087.941406 1985.648438 L 2087.941406 2046.96875 "/>
    <path fill-rule="nonzero" fill="rgb(84.764099%, 51.756287%, 5.488586%)" fill-opacity="1"
          d="M 1949.5 2124.671875 L 2086.191406 2047.300781 L 2086.191406 1985.960938 L 1949.5 2063.371094 L 1949.5 2124.671875 "/>
    <path fill-rule="nonzero" fill="rgb(84.764099%, 51.756287%, 5.488586%)" fill-opacity="1"
          d="M 2642 1843.679688 L 2778.671875 1766.289062 L 2778.671875 1704.980469 L 2642 1782.351562 L 2642 1843.679688 "/>
    <path fill-rule="nonzero" fill="rgb(84.764099%, 51.756287%, 5.488586%)" fill-opacity="1"
          d="M 2503.449219 1921.421875 L 2640.238281 1844.011719 L 2640.238281 1782.75 L 2503.449219 1860.019531 L 2503.449219 1921.421875 "/>
    <path fill-rule="nonzero" fill="rgb(84.764099%, 51.756287%, 5.488586%)" fill-opacity="1"
          d="M 2364.960938 1999.089844 L 2501.640625 1921.640625 L 2501.640625 1860.351562 L 2364.960938 1937.769531 L 2364.960938 1999.089844 "/>
    <path fill-rule="nonzero" fill="rgb(25.097656%, 24.31488%, 25.87738%)" fill-opacity="1"
          d="M 2226.46875 2076.859375 L 2363.160156 1999.410156 L 2363.160156 1938.101562 L 2226.46875 2015.480469 L 2226.46875 2076.859375 "/>
    <path fill-rule="nonzero" fill="rgb(25.097656%, 24.31488%, 25.87738%)" fill-opacity="1"
          d="M 2087.941406 2154.558594 L 2224.671875 2077.21875 L 2224.671875 2015.890625 L 2087.941406 2093.21875 L 2087.941406 2154.558594 "/>
    <path fill-rule="nonzero" fill="rgb(25.097656%, 24.31488%, 25.87738%)" fill-opacity="1"
          d="M 1949.5 2232.230469 L 2086.191406 2154.949219 L 2086.191406 2093.609375 L 1949.5 2170.980469 L 1949.5 2232.230469 "/>
    <path fill-rule="nonzero" fill="rgb(84.764099%, 51.756287%, 5.488586%)" fill-opacity="1"
          d="M 2642 1951.269531 L 2778.671875 1873.898438 L 2778.671875 1812.648438 L 2642 1889.960938 L 2642 1951.269531 "/>
    <path fill-rule="nonzero" fill="rgb(84.764099%, 51.756287%, 5.488586%)" fill-opacity="1"
          d="M 2503.449219 2029.101562 L 2640.238281 1951.578125 L 2640.238281 1890.351562 L 2503.449219 1967.660156 L 2503.449219 2029.101562 "/>
    <path fill-rule="nonzero" fill="rgb(84.764099%, 51.756287%, 5.488586%)" fill-opacity="1"
          d="M 2364.960938 2106.730469 L 2501.640625 2029.398438 L 2501.640625 1968.058594 L 2364.960938 2045.410156 L 2364.960938 2106.730469 "/>
    <path fill-rule="nonzero" fill="rgb(84.764099%, 51.756287%, 5.488586%)" fill-opacity="1"
          d="M 2226.46875 2184.421875 L 2363.160156 2107.109375 L 2363.160156 2045.789062 L 2226.46875 2123.070312 L 2226.46875 2184.421875 "/>
    <path fill-rule="nonzero" fill="rgb(25.097656%, 24.31488%, 25.87738%)" fill-opacity="1"
          d="M 2087.941406 2262.21875 L 2224.671875 2184.929688 L 2224.671875 2123.460938 L 2087.941406 2200.871094 L 2087.941406 2262.21875 "/>
    <path fill-rule="nonzero" fill="rgb(84.764099%, 51.756287%, 5.488586%)" fill-opacity="1"
          d="M 1949.5 2339.898438 L 2086.191406 2262.539062 L 2086.191406 2201.25 L 1949.5 2278.53125 L 1949.5 2339.898438 "/>
    <path fill-rule="nonzero" fill="rgb(25.097656%, 24.31488%, 25.87738%)" fill-opacity="1"
          d="M 2642 2058.890625 L 2778.671875 1981.480469 L 2778.671875 1920.238281 L 2642 1997.601562 L 2642 2058.890625 "/>
    <path fill-rule="nonzero" fill="rgb(25.097656%, 24.31488%, 25.87738%)" fill-opacity="1"
          d="M 2503.449219 2136.589844 L 2640.238281 2059.261719 L 2640.238281 1998.011719 L 2503.449219 2075.289062 L 2503.449219 2136.589844 "/>
    <path fill-rule="nonzero" fill="rgb(84.764099%, 51.756287%, 5.488586%)" fill-opacity="1"
          d="M 2364.960938 2214.359375 L 2501.640625 2137.058594 L 2501.640625 2075.679688 L 2364.960938 2153.070312 L 2364.960938 2214.359375 "/>
    <path fill-rule="nonzero" fill="rgb(25.097656%, 24.31488%, 25.87738%)" fill-opacity="1"
          d="M 2226.46875 2292.050781 L 2363.160156 2214.679688 L 2363.160156 2153.328125 L 2226.46875 2230.671875 L 2226.46875 2292.050781 "/>
    <path fill-rule="nonzero" fill="rgb(84.764099%, 51.756287%, 5.488586%)" fill-opacity="1"
          d="M 2087.941406 2369.820312 L 2224.671875 2292.449219 L 2224.671875 2231.128906 L 2087.941406 2308.488281 L 2087.941406 2369.820312 "/>
    <path fill-rule="nonzero" fill="rgb(25.097656%, 24.31488%, 25.87738%)" fill-opacity="1"
          d="M 1949.5 2447.460938 L 2086.191406 2370.171875 L 2086.191406 2308.820312 L 1949.5 2386.199219 L 1949.5 2447.460938 "/>
    <path fill-rule="nonzero" fill="rgb(84.764099%, 51.756287%, 5.488586%)" fill-opacity="1"
          d="M 2642 2166.519531 L 2778.671875 2089.191406 L 2778.671875 2027.828125 L 2642 2105.171875 L 2642 2166.519531 "/>
    <path fill-rule="nonzero" fill="rgb(25.097656%, 24.31488%, 25.87738%)" fill-opacity="1"
          d="M 2503.449219 2244.320312 L 2640.238281 2166.929688 L 2640.238281 2105.550781 L 2503.449219 2182.910156 L 2503.449219 2244.320312 "/>
    <path fill-rule="nonzero" fill="rgb(25.097656%, 24.31488%, 25.87738%)" fill-opacity="1"
          d="M 2364.960938 2322.011719 L 2501.640625 2244.53125 L 2501.640625 2183.320312 L 2364.960938 2260.660156 L 2364.960938 2322.011719 "/>
    <path fill-rule="nonzero" fill="rgb(25.097656%, 24.31488%, 25.87738%)" fill-opacity="1"
          d="M 2226.46875 2399.660156 L 2363.160156 2322.371094 L 2363.160156 2260.898438 L 2226.46875 2338.308594 L 2226.46875 2399.660156 "/>
    <path fill-rule="nonzero" fill="rgb(25.097656%, 24.31488%, 25.87738%)" fill-opacity="1"
          d="M 2087.941406 2477.320312 L 2224.671875 2399.988281 L 2224.671875 2338.75 L 2087.941406 2416.109375 L 2087.941406 2477.320312 "/>
    <path fill-rule="nonzero" fill="rgb(84.764099%, 51.756287%, 5.488586%)" fill-opacity="1"
          d="M 1949.5 2555.148438 L 2086.191406 2477.898438 L 2086.191406 2416.5 L 1949.5 2493.769531 L 1949.5 2555.148438 "/>
    <path fill-rule="nonzero" fill="rgb(25.097656%, 24.31488%, 25.87738%)" fill-opacity="1"
          d="M 2642 2274.140625 L 2778.671875 2196.78125 L 2778.671875 2135.46875 L 2642 2212.710938 L 2642 2274.140625 "/>
    <path fill-rule="nonzero" fill="rgb(25.097656%, 24.31488%, 25.87738%)" fill-opacity="1"
          d="M 2503.449219 2351.910156 L 2640.238281 2274.550781 L 2640.238281 2213.148438 L 2503.449219 2290.480469 L 2503.449219 2351.910156 "/>
    <path fill-rule="nonzero" fill="rgb(84.764099%, 51.756287%, 5.488586%)" fill-opacity="1"
          d="M 2364.960938 2429.648438 L 2501.640625 2352.289062 L 2501.640625 2290.859375 L 2364.960938 2368.269531 L 2364.960938 2429.648438 "/>
    <path fill-rule="nonzero" fill="rgb(25.097656%, 24.31488%, 25.87738%)" fill-opacity="1"
          d="M 2226.46875 2507.300781 L 2363.160156 2429.960938 L 2363.160156 2368.539062 L 2226.46875 2446.011719 L 2226.46875 2507.300781 "/>
    <path fill-rule="nonzero" fill="rgb(25.097656%, 24.31488%, 25.87738%)" fill-opacity="1"
          d="M 2087.941406 2585.101562 L 2224.671875 2507.679688 L 2224.671875 2446.28125 L 2087.941406 2523.621094 L 2087.941406 2585.101562 "/>
    <path fill-rule="nonzero" fill="rgb(25.097656%, 24.31488%, 25.87738%)" fill-opacity="1"
          d="M 1949.5 2662.800781 L 2086.191406 2585.371094 L 2086.191406 2524.078125 L 1949.5 2601.359375 L 1949.5 2662.800781 "/>
    <path fill-rule="nonzero" fill="rgb(84.764099%, 51.756287%, 5.488586%)" fill-opacity="1"
          d="M 2642 1018.160156 L 2778.671875 940.769531 L 2778.671875 879.351562 L 2642 956.808594 L 2642 1018.160156 "/>
    <path fill-rule="nonzero" fill="rgb(25.097656%, 24.31488%, 25.87738%)" fill-opacity="1"
          d="M 2503.449219 1095.910156 L 2640.238281 1018.449219 L 2640.238281 957.140625 L 2503.449219 1034.488281 L 2503.449219 1095.910156 "/>
    <path fill-rule="nonzero" fill="rgb(84.764099%, 51.756287%, 5.488586%)" fill-opacity="1"
          d="M 2364.960938 1173.609375 L 2501.640625 1096.199219 L 2501.640625 1034.890625 L 2364.960938 1112.179688 L 2364.960938 1173.609375 "/>
    <path fill-rule="nonzero" fill="rgb(25.097656%, 24.31488%, 25.87738%)" fill-opacity="1"
          d="M 2226.46875 1251.328125 L 2363.160156 1174 L 2363.160156 1112.519531 L 2226.46875 1189.980469 L 2226.46875 1251.328125 "/>
    <path fill-rule="nonzero" fill="rgb(25.097656%, 24.31488%, 25.87738%)" fill-opacity="1"
          d="M 2087.941406 1329.078125 L 2224.671875 1251.660156 L 2224.671875 1190.308594 L 2087.941406 1267.71875 L 2087.941406 1329.078125 "/>
    <path fill-rule="nonzero" fill="rgb(84.764099%, 51.756287%, 5.488586%)" fill-opacity="1"
          d="M 1949.5 1406.699219 L 2086.191406 1329.371094 L 2086.191406 1267.96875 L 1949.5 1345.378906 L 1949.5 1406.699219 "/>
    <path fill-rule="nonzero" fill="rgb(84.764099%, 51.756287%, 5.488586%)" fill-opacity="1"
          d="M 2642 1125.78125 L 2778.671875 1048.421875 L 2778.671875 986.96875 L 2642 1064.320312 L 2642 1125.78125 "/>
    <path fill-rule="nonzero" fill="rgb(25.097656%, 24.31488%, 25.87738%)" fill-opacity="1"
          d="M 2503.449219 1203.53125 L 2640.238281 1126.089844 L 2640.238281 1064.761719 L 2503.449219 1142.109375 L 2503.449219 1203.53125 "/>
    <path fill-rule="nonzero" fill="rgb(25.097656%, 24.31488%, 25.87738%)" fill-opacity="1"
          d="M 2364.960938 1281.210938 L 2501.640625 1203.808594 L 2501.640625 1142.558594 L 2364.960938 1219.828125 L 2364.960938 1281.210938 "/>
    <path fill-rule="nonzero" fill="rgb(25.097656%, 24.31488%, 25.87738%)" fill-opacity="1"
          d="M 2226.46875 1358.921875 L 2363.160156 1281.558594 L 2363.160156 1220.179688 L 2226.46875 1297.570312 L 2226.46875 1358.921875 "/>
    <path fill-rule="nonzero" fill="rgb(84.764099%, 51.756287%, 5.488586%)" fill-opacity="1"
          d="M 2087.941406 1436.691406 L 2224.671875 1359.300781 L 2224.671875 1298.019531 L 2087.941406 1375.261719 L 2087.941406 1436.691406 "/>
    <path fill-rule="nonzero" fill="rgb(25.097656%, 24.31488%, 25.87738%)" fill-opacity="1"
          d="M 1949.5 1514.320312 L 2086.191406 1437.050781 L 2086.191406 1375.671875 L 1949.5 1453.03125 L 1949.5 1514.320312 "/>
    <path fill-rule="nonzero" fill="rgb(84.764099%, 51.756287%, 5.488586%)" fill-opacity="1"
          d="M 2642 1233.320312 L 2778.671875 1155.941406 L 2778.671875 1094.609375 L 2642 1172 L 2642 1233.320312 "/>
    <path fill-rule="nonzero" fill="rgb(84.764099%, 51.756287%, 5.488586%)" fill-opacity="1"
          d="M 2503.449219 1311.148438 L 2640.238281 1233.710938 L 2640.238281 1172.351562 L 2503.449219 1249.769531 L 2503.449219 1311.148438 "/>
    <path fill-rule="nonzero" fill="rgb(25.097656%, 24.31488%, 25.87738%)" fill-opacity="1"
          d="M 2364.960938 1388.839844 L 2501.640625 1311.429688 L 2501.640625 1250.171875 L 2364.960938 1327.421875 L 2364.960938 1388.839844 "/>
    <path fill-rule="nonzero" fill="rgb(25.097656%, 24.31488%, 25.87738%)" fill-opacity="1"
          d="M 2226.46875 1466.570312 L 2363.160156 1389.148438 L 2363.160156 1327.808594 L 2226.46875 1405.160156 L 2226.46875 1466.570312 "/>
    <path fill-rule="nonzero" fill="rgb(25.097656%, 24.31488%, 25.87738%)" fill-opacity="1"
          d="M 2087.941406 1544.261719 L 2224.671875 1466.960938 L 2224.671875 1405.660156 L 2087.941406 1482.929688 L 2087.941406 1544.261719 "/>
    <path fill-rule="nonzero" fill="rgb(25.097656%, 24.31488%, 25.87738%)" fill-opacity="1"
          d="M 1949.5 1621.941406 L 2086.191406 1544.671875 L 2086.191406 1483.308594 L 1949.5 1560.648438 L 1949.5 1621.941406 "/>
    <path fill-rule="nonzero" fill="rgb(44.700623%, 44.309998%, 45.872498%)" fill-opacity="1"
          d="M 1203.339844 2519.980469 L 1066.621094 2441.960938 L 1066.621094 2380.53125 L 1203.339844 2458.601562 L 1203.339844 2519.980469 "/>
    <path fill-rule="nonzero" fill="rgb(44.700623%, 44.309998%, 45.872498%)" fill-opacity="1"
          d="M 1341.820312 2598.210938 L 1205.03125 2520.191406 L 1205.03125 2458.929688 L 1341.820312 2536.960938 L 1341.820312 2598.210938 "/>
    <path fill-rule="nonzero" fill="rgb(99.21875%, 89.84375%, 12.156677%)" fill-opacity="1"
          d="M 1480.300781 2676.578125 L 1343.691406 2598.621094 L 1343.691406 2537.269531 L 1480.300781 2615.261719 L 1480.300781 2676.578125 "/>
    <path fill-rule="nonzero" fill="rgb(99.21875%, 89.84375%, 12.156677%)" fill-opacity="1"
          d="M 1618.851562 2754.851562 L 1482.121094 2676.910156 L 1482.121094 2615.589844 L 1618.851562 2693.550781 L 1618.851562 2754.851562 "/>
    <path fill-rule="nonzero" fill="rgb(44.700623%, 44.309998%, 45.872498%)" fill-opacity="1"
          d="M 1757.351562 2833.261719 L 1620.660156 2755.21875 L 1620.660156 2693.941406 L 1757.351562 2771.898438 L 1757.351562 2833.261719 "/>
    <path fill-rule="nonzero" fill="rgb(44.700623%, 44.309998%, 45.872498%)" fill-opacity="1"
          d="M 1895.828125 2911.601562 L 1759.148438 2833.539062 L 1759.148438 2772.230469 L 1895.828125 2850.210938 L 1895.828125 2911.601562 "/>
    <path fill-rule="nonzero" fill="rgb(44.700623%, 44.309998%, 45.872498%)" fill-opacity="1"
          d="M 1203.339844 2627.539062 L 1066.621094 2549.578125 L 1066.621094 2488.230469 L 1203.339844 2566.261719 L 1203.339844 2627.539062 "/>
    <path fill-rule="nonzero" fill="rgb(44.700623%, 44.309998%, 45.872498%)" fill-opacity="1"
          d="M 1341.820312 2705.96875 L 1205.03125 2627.921875 L 1205.03125 2566.5 L 1341.820312 2644.570312 L 1341.820312 2705.96875 "/>
    <path fill-rule="nonzero" fill="rgb(44.700623%, 44.309998%, 45.872498%)" fill-opacity="1"
          d="M 1480.300781 2784.171875 L 1343.691406 2706.210938 L 1343.691406 2644.980469 L 1480.300781 2722.910156 L 1480.300781 2784.171875 "/>
    <path fill-rule="nonzero" fill="rgb(44.700623%, 44.309998%, 45.872498%)" fill-opacity="1"
          d="M 1618.851562 2862.578125 L 1482.121094 2784.558594 L 1482.121094 2723.121094 L 1618.851562 2801.148438 L 1618.851562 2862.578125 "/>
    <path fill-rule="nonzero" fill="rgb(99.21875%, 89.84375%, 12.156677%)" fill-opacity="1"
          d="M 1757.351562 2940.828125 L 1620.660156 2862.878906 L 1620.660156 2801.558594 L 1757.351562 2879.460938 L 1757.351562 2940.828125 "/>
    <path fill-rule="nonzero" fill="rgb(44.700623%, 44.309998%, 45.872498%)" fill-opacity="1"
          d="M 1895.828125 3019.179688 L 1759.148438 2941.179688 L 1759.148438 2879.820312 L 1895.828125 2957.808594 L 1895.828125 3019.179688 "/>
    <path fill-rule="nonzero" fill="rgb(99.21875%, 89.84375%, 12.156677%)" fill-opacity="1"
          d="M 1203.339844 2735.109375 L 1066.621094 2657.171875 L 1066.621094 2595.871094 L 1203.339844 2673.878906 L 1203.339844 2735.109375 "/>
    <path fill-rule="nonzero" fill="rgb(99.21875%, 89.84375%, 12.156677%)" fill-opacity="1"
          d="M 1341.820312 2813.5 L 1205.03125 2735.488281 L 1205.03125 2674.171875 L 1341.820312 2752.171875 L 1341.820312 2813.5 "/>
    <path fill-rule="nonzero" fill="rgb(44.700623%, 44.309998%, 45.872498%)" fill-opacity="1"
          d="M 1480.300781 2891.828125 L 1343.691406 2813.921875 L 1343.691406 2752.558594 L 1480.300781 2830.53125 L 1480.300781 2891.828125 "/>
    <path fill-rule="nonzero" fill="rgb(44.700623%, 44.309998%, 45.872498%)" fill-opacity="1"
          d="M 1618.851562 2970.121094 L 1482.121094 2892.210938 L 1482.121094 2830.910156 L 1618.851562 2908.769531 L 1618.851562 2970.121094 "/>
    <path fill-rule="nonzero" fill="rgb(99.21875%, 89.84375%, 12.156677%)" fill-opacity="1"
          d="M 1757.351562 3048.429688 L 1620.660156 2970.441406 L 1620.660156 2909.101562 L 1757.351562 2987.089844 L 1757.351562 3048.429688 "/>
    <path fill-rule="nonzero" fill="rgb(99.21875%, 89.84375%, 12.156677%)" fill-opacity="1"
          d="M 1895.828125 3126.800781 L 1759.148438 3048.789062 L 1759.148438 2987.429688 L 1895.828125 3065.429688 L 1895.828125 3126.800781 "/>
    <path fill-rule="nonzero" fill="rgb(99.21875%, 89.84375%, 12.156677%)" fill-opacity="1"
          d="M 1203.339844 2842.78125 L 1066.621094 2764.800781 L 1066.621094 2703.398438 L 1203.339844 2781.539062 L 1203.339844 2842.78125 "/>
    <path fill-rule="nonzero" fill="rgb(44.700623%, 44.309998%, 45.872498%)" fill-opacity="1"
          d="M 1341.820312 2921.109375 L 1205.03125 2843.070312 L 1205.03125 2781.761719 L 1341.820312 2859.78125 L 1341.820312 2921.109375 "/>
    <path fill-rule="nonzero" fill="rgb(99.21875%, 89.84375%, 12.156677%)" fill-opacity="1"
          d="M 1480.300781 2999.449219 L 1343.691406 2921.460938 L 1343.691406 2860.199219 L 1480.300781 2938.148438 L 1480.300781 2999.449219 "/>
    <path fill-rule="nonzero" fill="rgb(99.21875%, 89.84375%, 12.156677%)" fill-opacity="1"
          d="M 1618.851562 3077.789062 L 1482.121094 2999.859375 L 1482.121094 2938.449219 L 1618.851562 3016.441406 L 1618.851562 3077.789062 "/>
    <path fill-rule="nonzero" fill="rgb(44.700623%, 44.309998%, 45.872498%)" fill-opacity="1"
          d="M 1757.351562 3156.101562 L 1620.660156 3078.121094 L 1620.660156 3016.769531 L 1757.351562 3094.699219 L 1757.351562 3156.101562 "/>
    <path fill-rule="nonzero" fill="rgb(99.21875%, 89.84375%, 12.156677%)" fill-opacity="1"
          d="M 1895.828125 3234.460938 L 1759.148438 3156.359375 L 1759.148438 3095.128906 L 1895.828125 3173.011719 L 1895.828125 3234.460938 "/>
    <path fill-rule="nonzero" fill="rgb(44.700623%, 44.309998%, 45.872498%)" fill-opacity="1"
          d="M 1203.339844 2950.429688 L 1066.621094 2872.441406 L 1066.621094 2811.101562 L 1203.339844 2889.078125 L 1203.339844 2950.429688 "/>
    <path fill-rule="nonzero" fill="rgb(44.700623%, 44.309998%, 45.872498%)" fill-opacity="1"
          d="M 1341.820312 3028.761719 L 1205.03125 2950.738281 L 1205.03125 2889.320312 L 1341.820312 2967.351562 L 1341.820312 3028.761719 "/>
    <path fill-rule="nonzero" fill="rgb(99.21875%, 89.84375%, 12.156677%)" fill-opacity="1"
          d="M 1480.300781 3107.140625 L 1343.691406 3029.140625 L 1343.691406 2967.71875 L 1480.300781 3045.691406 L 1480.300781 3107.140625 "/>
    <path fill-rule="nonzero" fill="rgb(99.21875%, 89.84375%, 12.156677%)" fill-opacity="1"
          d="M 1618.851562 3185.46875 L 1482.121094 3107.441406 L 1482.121094 3046.070312 L 1618.851562 3124 L 1618.851562 3185.46875 "/>
    <path fill-rule="nonzero" fill="rgb(44.700623%, 44.309998%, 45.872498%)" fill-opacity="1"
          d="M 1757.351562 3263.660156 L 1620.660156 3185.71875 L 1620.660156 3124.359375 L 1757.351562 3202.441406 L 1757.351562 3263.660156 "/>
    <path fill-rule="nonzero" fill="rgb(44.700623%, 44.309998%, 45.872498%)" fill-opacity="1"
          d="M 1895.828125 3342.050781 L 1759.148438 3264.109375 L 1759.148438 3202.71875 L 1895.828125 3280.648438 L 1895.828125 3342.050781 "/>
    <path fill-rule="nonzero" fill="rgb(44.700623%, 44.309998%, 45.872498%)" fill-opacity="1"
          d="M 1203.339844 3058 L 1066.621094 2980.039062 L 1066.621094 2918.699219 L 1203.339844 2996.730469 L 1203.339844 3058 "/>
    <path fill-rule="nonzero" fill="rgb(99.21875%, 89.84375%, 12.156677%)" fill-opacity="1"
          d="M 1341.820312 3136.421875 L 1205.03125 3058.308594 L 1205.03125 2997.03125 L 1341.820312 3075.019531 L 1341.820312 3136.421875 "/>
    <path fill-rule="nonzero" fill="rgb(99.21875%, 89.84375%, 12.156677%)" fill-opacity="1"
          d="M 1480.300781 3214.769531 L 1343.691406 3136.710938 L 1343.691406 3075.429688 L 1480.300781 3153.308594 L 1480.300781 3214.769531 "/>
    <path fill-rule="nonzero" fill="rgb(99.21875%, 89.84375%, 12.156677%)" fill-opacity="1"
          d="M 1618.851562 3292.980469 L 1482.121094 3215.078125 L 1482.121094 3153.660156 L 1618.851562 3231.589844 L 1618.851562 3292.980469 "/>
    <path fill-rule="nonzero" fill="rgb(44.700623%, 44.309998%, 45.872498%)" fill-opacity="1"
          d="M 1757.351562 3371.289062 L 1620.660156 3293.300781 L 1620.660156 3232.039062 L 1757.351562 3309.980469 L 1757.351562 3371.289062 "/>
    <path fill-rule="nonzero" fill="rgb(99.21875%, 89.84375%, 12.156677%)" fill-opacity="1"
          d="M 1895.828125 3449.699219 L 1759.148438 3371.710938 L 1759.148438 3310.308594 L 1895.828125 3388.339844 L 1895.828125 3449.699219 "/>
    <path fill-rule="nonzero" fill="rgb(99.21875%, 89.84375%, 12.156677%)" fill-opacity="1"
          d="M 1203.339844 1400.480469 L 1066.621094 1322.460938 L 1066.621094 1261.121094 L 1203.339844 1339.019531 L 1203.339844 1400.480469 "/>
    <path fill-rule="nonzero" fill="rgb(44.700623%, 44.309998%, 45.872498%)" fill-opacity="1"
          d="M 1341.820312 1478.769531 L 1205.03125 1400.730469 L 1205.03125 1339.351562 L 1341.820312 1417.421875 L 1341.820312 1478.769531 "/>
    <path fill-rule="nonzero" fill="rgb(44.700623%, 44.309998%, 45.872498%)" fill-opacity="1"
          d="M 1480.300781 1557.078125 L 1343.691406 1479.101562 L 1343.691406 1417.71875 L 1480.300781 1495.789062 L 1480.300781 1557.078125 "/>
    <path fill-rule="nonzero" fill="rgb(44.700623%, 44.309998%, 45.872498%)" fill-opacity="1"
          d="M 1618.851562 1635.410156 L 1482.121094 1557.410156 L 1482.121094 1496.058594 L 1618.851562 1574.058594 L 1618.851562 1635.410156 "/>
    <path fill-rule="nonzero" fill="rgb(99.21875%, 89.84375%, 12.156677%)" fill-opacity="1"
          d="M 1757.351562 1713.75 L 1620.660156 1635.761719 L 1620.660156 1574.441406 L 1757.351562 1652.371094 L 1757.351562 1713.75 "/>
    <path fill-rule="nonzero" fill="rgb(44.700623%, 44.309998%, 45.872498%)" fill-opacity="1"
          d="M 1895.828125 1792.089844 L 1759.148438 1714.078125 L 1759.148438 1652.730469 L 1895.828125 1730.738281 L 1895.828125 1792.089844 "/>
    <path fill-rule="nonzero" fill="rgb(99.21875%, 89.84375%, 12.156677%)" fill-opacity="1"
          d="M 1203.339844 1508.070312 L 1066.621094 1430.140625 L 1066.621094 1368.730469 L 1203.339844 1446.78125 L 1203.339844 1508.070312 "/>
    <path fill-rule="nonzero" fill="rgb(99.21875%, 89.84375%, 12.156677%)" fill-opacity="1"
          d="M 1341.820312 1586.351562 L 1205.03125 1508.371094 L 1205.03125 1446.949219 L 1341.820312 1524.929688 L 1341.820312 1586.351562 "/>
    <path fill-rule="nonzero" fill="rgb(44.700623%, 44.309998%, 45.872498%)" fill-opacity="1"
          d="M 1480.300781 1664.761719 L 1343.691406 1586.78125 L 1343.691406 1525.421875 L 1480.300781 1603.359375 L 1480.300781 1664.761719 "/>
    <path fill-rule="nonzero" fill="rgb(44.700623%, 44.309998%, 45.872498%)" fill-opacity="1"
          d="M 1618.851562 1743.050781 L 1482.121094 1665.070312 L 1482.121094 1603.71875 L 1618.851562 1681.601562 L 1618.851562 1743.050781 "/>
    <path fill-rule="nonzero" fill="rgb(99.21875%, 89.84375%, 12.156677%)" fill-opacity="1"
          d="M 1757.351562 1821.421875 L 1620.660156 1743.378906 L 1620.660156 1681.980469 L 1757.351562 1760.078125 L 1757.351562 1821.421875 "/>
    <path fill-rule="nonzero" fill="rgb(99.21875%, 89.84375%, 12.156677%)" fill-opacity="1"
          d="M 1895.828125 1899.75 L 1759.148438 1821.699219 L 1759.148438 1760.339844 L 1895.828125 1838.308594 L 1895.828125 1899.75 "/>
    <path fill-rule="nonzero" fill="rgb(99.21875%, 89.84375%, 12.156677%)" fill-opacity="1"
          d="M 1203.339844 1615.78125 L 1066.621094 1537.699219 L 1066.621094 1476.328125 L 1203.339844 1554.261719 L 1203.339844 1615.78125 "/>
    <path fill-rule="nonzero" fill="rgb(44.700623%, 44.309998%, 45.872498%)" fill-opacity="1"
          d="M 1341.820312 1693.960938 L 1205.03125 1616.019531 L 1205.03125 1554.589844 L 1341.820312 1632.660156 L 1341.820312 1693.960938 "/>
    <path fill-rule="nonzero" fill="rgb(44.700623%, 44.309998%, 45.872498%)" fill-opacity="1"
          d="M 1480.300781 1772.359375 L 1343.691406 1694.421875 L 1343.691406 1633.019531 L 1480.300781 1710.980469 L 1480.300781 1772.359375 "/>
    <path fill-rule="nonzero" fill="rgb(44.700623%, 44.309998%, 45.872498%)" fill-opacity="1"
          d="M 1618.851562 1850.671875 L 1482.121094 1772.601562 L 1482.121094 1711.359375 L 1618.851562 1789.289062 L 1618.851562 1850.671875 "/>
    <path fill-rule="nonzero" fill="rgb(44.700623%, 44.309998%, 45.872498%)" fill-opacity="1"
          d="M 1757.351562 1929 L 1620.660156 1851 L 1620.660156 1789.761719 L 1757.351562 1867.558594 L 1757.351562 1929 "/>
    <path fill-rule="nonzero" fill="rgb(99.21875%, 89.84375%, 12.156677%)" fill-opacity="1"
          d="M 1895.828125 2007.339844 L 1759.148438 1929.320312 L 1759.148438 1867.96875 L 1895.828125 1945.960938 L 1895.828125 2007.339844 "/>
    <path fill-rule="nonzero" fill="rgb(99.21875%, 89.84375%, 12.156677%)" fill-opacity="1"
          d="M 1203.339844 1723.230469 L 1066.621094 1645.328125 L 1066.621094 1583.910156 L 1203.339844 1662.039062 L 1203.339844 1723.230469 "/>
    <path fill-rule="nonzero" fill="rgb(99.21875%, 89.84375%, 12.156677%)" fill-opacity="1"
          d="M 1341.820312 1801.609375 L 1205.03125 1723.511719 L 1205.03125 1662.269531 L 1341.820312 1740.25 L 1341.820312 1801.609375 "/>
    <path fill-rule="nonzero" fill="rgb(99.21875%, 89.84375%, 12.156677%)" fill-opacity="1"
          d="M 1480.300781 1879.921875 L 1343.691406 1801.941406 L 1343.691406 1740.671875 L 1480.300781 1818.679688 L 1480.300781 1879.921875 "/>
    <path fill-rule="nonzero" fill="rgb(99.21875%, 89.84375%, 12.156677%)" fill-opacity="1"
          d="M 1618.851562 1958.238281 L 1482.121094 1880.300781 L 1482.121094 1818.871094 L 1618.851562 1896.921875 L 1618.851562 1958.238281 "/>
    <path fill-rule="nonzero" fill="rgb(99.21875%, 89.84375%, 12.156677%)" fill-opacity="1"
          d="M 1757.351562 2036.609375 L 1620.660156 1958.621094 L 1620.660156 1897.328125 L 1757.351562 1975.238281 L 1757.351562 2036.609375 "/>
    <path fill-rule="nonzero" fill="rgb(44.700623%, 44.309998%, 45.872498%)" fill-opacity="1"
          d="M 1895.828125 2114.960938 L 1759.148438 2036.96875 L 1759.148438 1975.539062 L 1895.828125 2053.601562 L 1895.828125 2114.960938 "/>
    <path fill-rule="nonzero" fill="rgb(99.21875%, 89.84375%, 12.156677%)" fill-opacity="1"
          d="M 1203.339844 1830.960938 L 1066.621094 1752.96875 L 1066.621094 1691.601562 L 1203.339844 1769.539062 L 1203.339844 1830.960938 "/>
    <path fill-rule="nonzero" fill="rgb(99.21875%, 89.84375%, 12.156677%)" fill-opacity="1"
          d="M 1341.820312 1909.25 L 1205.03125 1831.21875 L 1205.03125 1769.890625 L 1341.820312 1847.898438 L 1341.820312 1909.25 "/>
    <path fill-rule="nonzero" fill="rgb(99.21875%, 89.84375%, 12.156677%)" fill-opacity="1"
          d="M 1480.300781 1987.601562 L 1343.691406 1909.628906 L 1343.691406 1848.179688 L 1480.300781 1926.230469 L 1480.300781 1987.601562 "/>
    <path fill-rule="nonzero" fill="rgb(99.21875%, 89.84375%, 12.156677%)" fill-opacity="1"
          d="M 1618.851562 2065.898438 L 1482.121094 1987.871094 L 1482.121094 1926.578125 L 1618.851562 2004.511719 L 1618.851562 2065.898438 "/>
    <path fill-rule="nonzero" fill="rgb(44.700623%, 44.309998%, 45.872498%)" fill-opacity="1"
          d="M 1757.351562 2144.308594 L 1620.660156 2066.25 L 1620.660156 2004.949219 L 1757.351562 2082.828125 L 1757.351562 2144.308594 "/>
    <path fill-rule="nonzero" fill="rgb(99.21875%, 89.84375%, 12.156677%)" fill-opacity="1"
          d="M 1895.828125 2222.550781 L 1759.148438 2144.539062 L 1759.148438 2083.269531 L 1895.828125 2161.191406 L 1895.828125 2222.550781 "/>
    <path fill-rule="nonzero" fill="rgb(44.700623%, 44.309998%, 45.872498%)" fill-opacity="1"
          d="M 1203.339844 1938.53125 L 1066.621094 1860.511719 L 1066.621094 1799.21875 L 1203.339844 1877.179688 L 1203.339844 1938.53125 "/>
    <path fill-rule="nonzero" fill="rgb(44.700623%, 44.309998%, 45.872498%)" fill-opacity="1"
          d="M 1341.820312 2016.839844 L 1205.03125 1938.828125 L 1205.03125 1877.511719 L 1341.820312 1955.511719 L 1341.820312 2016.839844 "/>
    <path fill-rule="nonzero" fill="rgb(44.700623%, 44.309998%, 45.872498%)" fill-opacity="1"
          d="M 1480.300781 2095.21875 L 1343.691406 2017.128906 L 1343.691406 1955.890625 L 1480.300781 2033.960938 L 1480.300781 2095.21875 "/>
    <path fill-rule="nonzero" fill="rgb(44.700623%, 44.309998%, 45.872498%)" fill-opacity="1"
          d="M 1618.851562 2173.511719 L 1482.121094 2095.601562 L 1482.121094 2034.179688 L 1618.851562 2112.109375 L 1618.851562 2173.511719 "/>
    <path fill-rule="nonzero" fill="rgb(44.700623%, 44.309998%, 45.872498%)" fill-opacity="1"
          d="M 1757.351562 2251.828125 L 1620.660156 2173.808594 L 1620.660156 2112.539062 L 1757.351562 2190.539062 L 1757.351562 2251.828125 "/>
    <path fill-rule="nonzero" fill="rgb(99.21875%, 89.84375%, 12.156677%)" fill-opacity="1"
          d="M 1895.828125 2330.140625 L 1759.148438 2252.199219 L 1759.148438 2190.890625 L 1895.828125 2268.851562 L 1895.828125 2330.140625 "/>
    <path fill-rule="nonzero" fill="rgb(44.700623%, 44.309998%, 45.872498%)" fill-opacity="1"
          d="M 1203.339844 2046.121094 L 1066.621094 1968.160156 L 1066.621094 1906.929688 L 1203.339844 1984.839844 L 1203.339844 2046.121094 "/>
    <path fill-rule="nonzero" fill="rgb(44.700623%, 44.309998%, 45.872498%)" fill-opacity="1"
          d="M 1341.820312 2124.480469 L 1205.03125 2046.429688 L 1205.03125 1985.140625 L 1341.820312 2063.148438 L 1341.820312 2124.480469 "/>
    <path fill-rule="nonzero" fill="rgb(44.700623%, 44.309998%, 45.872498%)" fill-opacity="1"
          d="M 1480.300781 2202.871094 L 1343.691406 2124.761719 L 1343.691406 2063.53125 L 1480.300781 2141.519531 L 1480.300781 2202.871094 "/>
    <path fill-rule="nonzero" fill="rgb(99.21875%, 89.84375%, 12.156677%)" fill-opacity="1"
          d="M 1618.851562 2281.179688 L 1482.121094 2203.171875 L 1482.121094 2141.871094 L 1618.851562 2219.839844 L 1618.851562 2281.179688 "/>
    <path fill-rule="nonzero" fill="rgb(44.700623%, 44.309998%, 45.872498%)" fill-opacity="1"
          d="M 1757.351562 2359.46875 L 1620.660156 2281.511719 L 1620.660156 2220.078125 L 1757.351562 2298.070312 L 1757.351562 2359.46875 "/>
    <path fill-rule="nonzero" fill="rgb(44.700623%, 44.309998%, 45.872498%)" fill-opacity="1"
          d="M 1895.828125 2437.820312 L 1759.148438 2359.769531 L 1759.148438 2298.511719 L 1895.828125 2376.488281 L 1895.828125 2437.820312 "/>
    <path fill-rule="nonzero" fill="rgb(44.700623%, 44.309998%, 45.872498%)" fill-opacity="1"
          d="M 1203.339844 2153.769531 L 1066.621094 2075.871094 L 1066.621094 2014.46875 L 1203.339844 2092.429688 L 1203.339844 2153.769531 "/>
    <path fill-rule="nonzero" fill="rgb(44.700623%, 44.309998%, 45.872498%)" fill-opacity="1"
          d="M 1341.820312 2232.230469 L 1205.03125 2154.070312 L 1205.03125 2092.859375 L 1341.820312 2170.761719 L 1341.820312 2232.230469 "/>
    <path fill-rule="nonzero" fill="rgb(44.700623%, 44.309998%, 45.872498%)" fill-opacity="1"
          d="M 1480.300781 2310.519531 L 1343.691406 2232.550781 L 1343.691406 2171.171875 L 1480.300781 2249.03125 L 1480.300781 2310.519531 "/>
    <path fill-rule="nonzero" fill="rgb(99.21875%, 89.84375%, 12.156677%)" fill-opacity="1"
          d="M 1618.851562 2388.75 L 1482.121094 2310.769531 L 1482.121094 2249.410156 L 1618.851562 2327.398438 L 1618.851562 2388.75 "/>
    <path fill-rule="nonzero" fill="rgb(99.21875%, 89.84375%, 12.156677%)" fill-opacity="1"
          d="M 1757.351562 2467.128906 L 1620.660156 2389.128906 L 1620.660156 2327.789062 L 1757.351562 2405.75 L 1757.351562 2467.128906 "/>
    <path fill-rule="nonzero" fill="rgb(44.700623%, 44.309998%, 45.872498%)" fill-opacity="1"
          d="M 1895.828125 2545.390625 L 1759.148438 2467.460938 L 1759.148438 2406.128906 L 1895.828125 2484.058594 L 1895.828125 2545.390625 "/>
    <path fill-rule="nonzero" fill="rgb(99.21875%, 89.84375%, 12.156677%)" fill-opacity="1"
          d="M 1203.339844 2261.441406 L 1066.621094 2183.441406 L 1066.621094 2122.03125 L 1203.339844 2200.019531 L 1203.339844 2261.441406 "/>
    <path fill-rule="nonzero" fill="rgb(44.700623%, 44.309998%, 45.872498%)" fill-opacity="1"
          d="M 1341.820312 2339.800781 L 1205.03125 2261.671875 L 1205.03125 2200.371094 L 1341.820312 2278.339844 L 1341.820312 2339.800781 "/>
    <path fill-rule="nonzero" fill="rgb(99.21875%, 89.84375%, 12.156677%)" fill-opacity="1"
          d="M 1480.300781 2418.070312 L 1343.691406 2340.058594 L 1343.691406 2278.78125 L 1480.300781 2356.738281 L 1480.300781 2418.070312 "/>
    <path fill-rule="nonzero" fill="rgb(99.21875%, 89.84375%, 12.156677%)" fill-opacity="1"
          d="M 1618.851562 2496.339844 L 1482.121094 2418.410156 L 1482.121094 2357 L 1618.851562 2435 L 1618.851562 2496.339844 "/>
    <path fill-rule="nonzero" fill="rgb(44.700623%, 44.309998%, 45.872498%)" fill-opacity="1"
          d="M 1757.351562 2574.71875 L 1620.660156 2496.738281 L 1620.660156 2435.410156 L 1757.351562 2513.359375 L 1757.351562 2574.71875 "/>
    <path fill-rule="nonzero" fill="rgb(99.21875%, 89.84375%, 12.156677%)" fill-opacity="1"
          d="M 1895.828125 2653.058594 L 1759.148438 2575.101562 L 1759.148438 2513.75 L 1895.828125 2591.648438 L 1895.828125 2653.058594 "/>
    <path fill-rule="nonzero" fill="rgb(99.21875%, 89.84375%, 12.156677%)" fill-opacity="1"
          d="M 1203.339844 1005.378906 L 1066.621094 927.339844 L 1066.621094 866.039062 L 1203.339844 944.070312 L 1203.339844 1005.378906 "/>
    <path fill-rule="nonzero" fill="rgb(99.21875%, 89.84375%, 12.156677%)" fill-opacity="1"
          d="M 1341.820312 1083.800781 L 1205.03125 1005.660156 L 1205.03125 944.328125 L 1341.820312 1022.359375 L 1341.820312 1083.800781 "/>
    <path fill-rule="nonzero" fill="rgb(99.21875%, 89.84375%, 12.156677%)" fill-opacity="1"
          d="M 1480.300781 1162.121094 L 1343.691406 1084.089844 L 1343.691406 1022.789062 L 1480.300781 1100.691406 L 1480.300781 1162.121094 "/>
    <path fill-rule="nonzero" fill="rgb(99.21875%, 89.84375%, 12.156677%)" fill-opacity="1"
          d="M 1618.851562 1240.390625 L 1482.121094 1162.429688 L 1482.121094 1101.050781 L 1618.851562 1178.878906 L 1618.851562 1240.390625 "/>
    <path fill-rule="nonzero" fill="rgb(44.700623%, 44.309998%, 45.872498%)" fill-opacity="1"
          d="M 1757.351562 1318.738281 L 1620.660156 1240.71875 L 1620.660156 1179.398438 L 1757.351562 1257.328125 L 1757.351562 1318.738281 "/>
    <path fill-rule="nonzero" fill="rgb(99.21875%, 89.84375%, 12.156677%)" fill-opacity="1"
          d="M 1895.828125 1397.078125 L 1759.148438 1319.101562 L 1759.148438 1257.71875 L 1895.828125 1335.710938 L 1895.828125 1397.078125 "/>
    <path fill-rule="nonzero" fill="rgb(44.700623%, 44.309998%, 45.872498%)" fill-opacity="1"
          d="M 1203.339844 1113.039062 L 1066.621094 1035.078125 L 1066.621094 973.609375 L 1203.339844 1051.738281 L 1203.339844 1113.039062 "/>
    <path fill-rule="nonzero" fill="rgb(44.700623%, 44.309998%, 45.872498%)" fill-opacity="1"
          d="M 1341.820312 1191.328125 L 1205.03125 1113.339844 L 1205.03125 1051.988281 L 1341.820312 1130 L 1341.820312 1191.328125 "/>
    <path fill-rule="nonzero" fill="rgb(44.700623%, 44.309998%, 45.872498%)" fill-opacity="1"
          d="M 1480.300781 1269.691406 L 1343.691406 1191.730469 L 1343.691406 1130.328125 L 1480.300781 1208.320312 L 1480.300781 1269.691406 "/>
    <path fill-rule="nonzero" fill="rgb(44.700623%, 44.309998%, 45.872498%)" fill-opacity="1"
          d="M 1618.851562 1347.929688 L 1482.121094 1270.03125 L 1482.121094 1208.671875 L 1618.851562 1286.609375 L 1618.851562 1347.929688 "/>
    <path fill-rule="nonzero" fill="rgb(99.21875%, 89.84375%, 12.156677%)" fill-opacity="1"
          d="M 1757.351562 1426.300781 L 1620.660156 1348.339844 L 1620.660156 1287.050781 L 1757.351562 1364.898438 L 1757.351562 1426.300781 "/>
    <path fill-rule="nonzero" fill="rgb(99.21875%, 89.84375%, 12.156677%)" fill-opacity="1"
          d="M 1895.828125 1504.648438 L 1759.148438 1426.710938 L 1759.148438 1365.269531 L 1895.828125 1443.320312 L 1895.828125 1504.648438 "/>
    <path fill-rule="nonzero" fill="rgb(99.21875%, 89.84375%, 12.156677%)" fill-opacity="1"
          d="M 1203.339844 1220.679688 L 1066.621094 1142.699219 L 1066.621094 1081.269531 L 1203.339844 1159.28125 L 1203.339844 1220.679688 "/>
    <path fill-rule="nonzero" fill="rgb(44.700623%, 44.309998%, 45.872498%)" fill-opacity="1"
          d="M 1341.820312 1298.941406 L 1205.03125 1220.898438 L 1205.03125 1159.578125 L 1341.820312 1237.570312 L 1341.820312 1298.941406 "/>
    <path fill-rule="nonzero" fill="rgb(44.700623%, 44.309998%, 45.872498%)" fill-opacity="1"
          d="M 1480.300781 1377.328125 L 1343.691406 1299.21875 L 1343.691406 1237.949219 L 1480.300781 1316 L 1480.300781 1377.328125 "/>
    <path fill-rule="nonzero" fill="rgb(99.21875%, 89.84375%, 12.156677%)" fill-opacity="1"
          d="M 1618.851562 1455.601562 L 1482.121094 1377.621094 L 1482.121094 1316.328125 L 1618.851562 1394.261719 L 1618.851562 1455.601562 "/>
    <path fill-rule="nonzero" fill="rgb(44.700623%, 44.309998%, 45.872498%)" fill-opacity="1"
          d="M 1757.351562 1533.871094 L 1620.660156 1455.929688 L 1620.660156 1394.578125 L 1757.351562 1472.578125 L 1757.351562 1533.871094 "/>
    <path fill-rule="nonzero" fill="rgb(44.700623%, 44.309998%, 45.872498%)" fill-opacity="1"
          d="M 1895.828125 1612.289062 L 1759.148438 1534.25 L 1759.148438 1472.929688 L 1895.828125 1550.871094 L 1895.828125 1612.289062 "/>
    <path fill-rule="nonzero" fill="rgb(19.993591%, 71.289062%, 100%)" fill-opacity="1"
          d="M 1801.320312 1101.898438 L 1312.929688 824.179688 L 2064.148438 398.941406 L 2552.519531 676.769531 L 1801.320312 1101.898438 "/>
    <g clip-path="url(#clip-0)">
        <g clip-path="url(#clip-1)">
            <g clip-path="url(#clip-2)">
                <path fill-rule="nonzero" fill="url(#linear-pattern-0)"
                      d="M 2132.019531 669.488281 L 2243.503906 888.101562 L 2536.9375 752.25 L 2425.457031 533.640625 Z M 2132.019531 669.488281 "/>
            </g>
        </g>
    </g>
    <path fill-rule="nonzero" fill="rgb(34.910583%, 76.951599%, 100%)" fill-opacity="1"
          d="M 2185.628906 737.871094 L 1884.46875 572.320312 L 2057.25 477.230469 L 2358.371094 642.878906 L 2185.628906 737.871094 "/>
    <path fill-rule="nonzero" fill="rgb(1.567078%, 10.205078%, 25.097656%)" fill-opacity="1"
          d="M 2358.371094 681.75 L 2185.628906 776.898438 L 2185.628906 737.871094 L 2358.371094 642.878906 L 2358.371094 681.75 "/>
    <path fill-rule="nonzero" fill="rgb(5.883789%, 27.43988%, 65.039062%)" fill-opacity="1"
          d="M 2185.628906 776.898438 L 1884.46875 611.328125 L 1884.46875 572.328125 L 2185.628906 737.871094 L 2185.628906 776.898438 "/>
    <g clip-path="url(#clip-3)">
        <g clip-path="url(#clip-4)">
            <g clip-path="url(#clip-5)">
                <path fill-rule="nonzero" fill="url(#linear-pattern-1)"
                      d="M 2115.023438 600.425781 L 2196.21875 759.652344 L 2381.027344 674.09375 L 2299.828125 514.867188 Z M 2115.023438 600.425781 "/>
            </g>
        </g>
    </g>
    <path fill-rule="nonzero" fill="rgb(34.910583%, 76.951599%, 100%)" fill-opacity="1"
          d="M 2163.480469 663.058594 L 1968.421875 555.820312 L 2067.101562 501.511719 L 2262.121094 608.78125 L 2163.480469 663.058594 "/>
    <path fill-rule="nonzero" fill="rgb(1.567078%, 10.205078%, 25.097656%)" fill-opacity="1"
          d="M 2262.160156 642.609375 L 2163.480469 696.878906 L 2163.480469 663.058594 L 2262.121094 608.78125 L 2262.160156 642.609375 "/>
    <path fill-rule="nonzero" fill="rgb(5.883789%, 27.43988%, 65.039062%)" fill-opacity="1"
          d="M 2163.480469 696.878906 L 1968.421875 589.648438 L 1968.421875 555.820312 L 2163.480469 663.058594 L 2163.480469 696.878906 "/>
    <path fill-rule="nonzero" fill="rgb(15.281677%, 54.881287%, 76.951599%)" fill-opacity="1"
          d="M 1558.320312 920.648438 L 1578.121094 839.199219 L 1624.710938 797.460938 L 1728.878906 854.960938 L 1634.640625 908.871094 L 1558.320312 920.648438 "/>
    <path fill-rule="nonzero" fill="rgb(5.883789%, 27.43988%, 65.039062%)" fill-opacity="1"
          d="M 1465.621094 866.710938 L 1558.28125 920.671875 L 1558.359375 804.621094 L 1465.621094 750.730469 L 1465.621094 866.710938 "/>
    <path fill-rule="nonzero" fill="rgb(1.567078%, 10.205078%, 25.097656%)" fill-opacity="1"
          d="M 1558.28125 920.671875 L 1651.589844 866.730469 L 1651.589844 750.671875 L 1558.359375 804.621094 L 1558.28125 920.671875 "/>
    <path fill-rule="nonzero" fill="rgb(25.097656%, 24.31488%, 25.87738%)" fill-opacity="1"
          d="M 1646.761719 766.480469 L 1646.761719 854.601562 L 1565.128906 901.71875 L 1565.070312 813.878906 L 1646.761719 766.480469 "/>
    <path fill-rule="nonzero" fill="rgb(1.567078%, 10.205078%, 25.097656%)" fill-opacity="1"
          d="M 1646.761719 852.96875 L 1646.761719 854.371094 L 1565.128906 901.460938 L 1565.128906 899.511719 L 1646.761719 852.96875 "/>
    <path fill-rule="nonzero" fill="rgb(1.567078%, 10.205078%, 25.097656%)" fill-opacity="1"
          d="M 1646.761719 834.21875 L 1646.761719 835.578125 L 1565.070312 882.71875 L 1565.070312 880.769531 L 1646.761719 834.21875 "/>
    <path fill-rule="nonzero" fill="rgb(1.567078%, 10.205078%, 25.097656%)" fill-opacity="1"
          d="M 1646.761719 815.488281 L 1646.761719 816.890625 L 1565.070312 864.019531 L 1565.070312 862.070312 L 1646.761719 815.488281 "/>
    <path fill-rule="nonzero" fill="rgb(1.567078%, 10.205078%, 25.097656%)" fill-opacity="1"
          d="M 1646.761719 796.78125 L 1646.761719 798.171875 L 1565.070312 845.238281 L 1565.070312 843.320312 L 1646.761719 796.78125 "/>
    <path fill-rule="nonzero" fill="rgb(1.567078%, 10.205078%, 25.097656%)" fill-opacity="1"
          d="M 1646.761719 778.050781 L 1646.761719 779.421875 L 1565.070312 826.511719 L 1565.070312 824.558594 L 1646.761719 778.050781 "/>
    <path fill-rule="nonzero" fill="rgb(1.567078%, 10.205078%, 25.097656%)" fill-opacity="1"
          d="M 1571.488281 810.210938 L 1571.539062 897.710938 L 1570.21875 898.5 L 1570.171875 810.949219 L 1571.488281 810.210938 "/>
    <path fill-rule="nonzero" fill="rgb(1.567078%, 10.205078%, 25.097656%)" fill-opacity="1"
          d="M 1577.839844 806.578125 L 1577.839844 894.089844 L 1576.570312 894.851562 L 1576.480469 807.300781 L 1577.839844 806.578125 "/>
    <path fill-rule="nonzero" fill="rgb(1.567078%, 10.205078%, 25.097656%)" fill-opacity="1"
          d="M 1584.148438 802.921875 L 1584.199219 890.46875 L 1582.898438 891.21875 L 1582.898438 803.710938 L 1584.148438 802.921875 "/>
    <path fill-rule="nonzero" fill="rgb(1.567078%, 10.205078%, 25.097656%)" fill-opacity="1"
          d="M 1590.5 799.289062 L 1590.570312 886.820312 L 1589.199219 887.621094 L 1589.128906 800.070312 L 1590.5 799.289062 "/>
    <path fill-rule="nonzero" fill="rgb(1.567078%, 10.205078%, 25.097656%)" fill-opacity="1"
          d="M 1596.878906 795.679688 L 1596.878906 883.210938 L 1595.570312 883.949219 L 1595.488281 796.449219 L 1596.878906 795.679688 "/>
    <path fill-rule="nonzero" fill="rgb(1.567078%, 10.205078%, 25.097656%)" fill-opacity="1"
          d="M 1603.179688 792.03125 L 1603.179688 879.609375 L 1601.910156 880.328125 L 1601.871094 792.800781 L 1603.179688 792.03125 "/>
    <path fill-rule="nonzero" fill="rgb(1.567078%, 10.205078%, 25.097656%)" fill-opacity="1"
          d="M 1609.539062 788.421875 L 1609.539062 875.941406 L 1608.171875 876.730469 L 1608.171875 789.199219 L 1609.539062 788.421875 "/>
    <path fill-rule="nonzero" fill="rgb(1.567078%, 10.205078%, 25.097656%)" fill-opacity="1"
          d="M 1615.898438 784.769531 L 1615.898438 872.289062 L 1614.570312 873.089844 L 1614.46875 785.570312 L 1615.898438 784.769531 "/>
    <path fill-rule="nonzero" fill="rgb(1.567078%, 10.205078%, 25.097656%)" fill-opacity="1"
          d="M 1622.199219 781.140625 L 1622.25 868.699219 L 1620.878906 869.410156 L 1620.878906 781.929688 L 1622.199219 781.140625 "/>
    <path fill-rule="nonzero" fill="rgb(1.567078%, 10.205078%, 25.097656%)" fill-opacity="1"
          d="M 1628.5 777.539062 L 1628.550781 865.058594 L 1627.238281 865.800781 L 1627.191406 778.300781 L 1628.5 777.539062 "/>
    <path fill-rule="nonzero" fill="rgb(1.567078%, 10.205078%, 25.097656%)" fill-opacity="1"
          d="M 1634.921875 773.851562 L 1634.921875 861.421875 L 1633.550781 862.160156 L 1633.488281 774.648438 L 1634.921875 773.851562 "/>
    <path fill-rule="nonzero" fill="rgb(1.567078%, 10.205078%, 25.097656%)" fill-opacity="1"
          d="M 1641.238281 770.269531 L 1641.238281 857.769531 L 1639.859375 858.558594 L 1639.859375 770.949219 L 1641.238281 770.269531 "/>
    <path fill-rule="nonzero" fill="rgb(44.700623%, 44.309998%, 45.872498%)" fill-opacity="1"
          d="M 1551.421875 813.910156 L 1551.421875 901.289062 L 1469.78125 854.238281 L 1469.730469 766.53125 L 1551.421875 813.910156 "/>
    <path fill-rule="nonzero" fill="rgb(5.883789%, 27.43988%, 65.039062%)" fill-opacity="1"
          d="M 1551.421875 899.539062 L 1551.421875 901.460938 L 1469.78125 854.421875 L 1469.78125 853.058594 L 1551.421875 899.539062 "/>
    <path fill-rule="nonzero" fill="rgb(5.883789%, 27.43988%, 65.039062%)" fill-opacity="1"
          d="M 1551.421875 880.800781 L 1551.421875 882.738281 L 1469.78125 835.699219 L 1469.78125 834.28125 L 1551.421875 880.800781 "/>
    <path fill-rule="nonzero" fill="rgb(5.883789%, 27.43988%, 65.039062%)" fill-opacity="1"
          d="M 1551.421875 862.070312 L 1551.421875 864.050781 L 1469.730469 816.960938 L 1469.730469 815.558594 L 1551.421875 862.070312 "/>
    <path fill-rule="nonzero" fill="rgb(5.883789%, 27.43988%, 65.039062%)" fill-opacity="1"
          d="M 1551.421875 843.320312 L 1551.421875 845.269531 L 1469.730469 798.21875 L 1469.730469 796.859375 L 1551.421875 843.320312 "/>
    <path fill-rule="nonzero" fill="rgb(5.883789%, 27.43988%, 65.039062%)" fill-opacity="1"
          d="M 1551.421875 824.609375 L 1551.421875 826.550781 L 1469.730469 779.53125 L 1469.730469 778.109375 L 1551.421875 824.609375 "/>
    <path fill-rule="nonzero" fill="rgb(5.883789%, 27.43988%, 65.039062%)" fill-opacity="1"
          d="M 1546.390625 810.949219 L 1546.390625 898.371094 L 1545.058594 897.621094 L 1545.058594 810.210938 L 1546.390625 810.949219 "/>
    <path fill-rule="nonzero" fill="rgb(5.883789%, 27.43988%, 65.039062%)" fill-opacity="1"
          d="M 1540.019531 807.359375 L 1540.019531 894.730469 L 1538.710938 894.011719 L 1538.710938 806.609375 L 1540.019531 807.359375 "/>
    <path fill-rule="nonzero" fill="rgb(5.883789%, 27.43988%, 65.039062%)" fill-opacity="1"
          d="M 1533.640625 803.738281 L 1533.640625 891.121094 L 1532.390625 890.390625 L 1532.339844 802.941406 L 1533.640625 803.738281 "/>
    <path fill-rule="nonzero" fill="rgb(5.883789%, 27.43988%, 65.039062%)" fill-opacity="1"
          d="M 1527.351562 800.089844 L 1527.351562 887.480469 L 1525.96875 886.71875 L 1525.96875 799.351562 L 1527.351562 800.089844 "/>
    <path fill-rule="nonzero" fill="rgb(5.883789%, 27.43988%, 65.039062%)" fill-opacity="1"
          d="M 1521.050781 796.46875 L 1521.050781 883.859375 L 1519.679688 883.121094 L 1519.621094 795.710938 L 1521.050781 796.46875 "/>
    <path fill-rule="nonzero" fill="rgb(5.883789%, 27.43988%, 65.039062%)" fill-opacity="1"
          d="M 1514.679688 792.820312 L 1514.679688 880.25 L 1513.328125 879.449219 L 1513.328125 792.058594 L 1514.679688 792.820312 "/>
    <path fill-rule="nonzero" fill="rgb(5.883789%, 27.43988%, 65.039062%)" fill-opacity="1"
          d="M 1508.320312 789.238281 L 1508.320312 876.578125 L 1507.011719 875.828125 L 1507.011719 788.441406 L 1508.320312 789.238281 "/>
    <path fill-rule="nonzero" fill="rgb(5.883789%, 27.43988%, 65.039062%)" fill-opacity="1"
          d="M 1501.96875 785.570312 L 1502.019531 872.980469 L 1500.648438 872.21875 L 1500.648438 784.789062 L 1501.96875 785.570312 "/>
    <path fill-rule="nonzero" fill="rgb(5.883789%, 27.43988%, 65.039062%)" fill-opacity="1"
          d="M 1495.660156 781.949219 L 1495.660156 869.339844 L 1494.351562 868.578125 L 1494.289062 781.210938 L 1495.660156 781.949219 "/>
    <path fill-rule="nonzero" fill="rgb(5.883789%, 27.43988%, 65.039062%)" fill-opacity="1"
          d="M 1489.300781 778.300781 L 1489.351562 865.679688 L 1487.988281 864.949219 L 1487.988281 777.539062 L 1489.300781 778.300781 "/>
    <path fill-rule="nonzero" fill="rgb(5.883789%, 27.43988%, 65.039062%)" fill-opacity="1"
          d="M 1482.949219 774.679688 L 1483 862.070312 L 1481.671875 861.300781 L 1481.628906 773.910156 L 1482.949219 774.679688 "/>
    <path fill-rule="nonzero" fill="rgb(5.883789%, 27.43988%, 65.039062%)" fill-opacity="1"
          d="M 1476.648438 771.058594 L 1476.648438 858.460938 L 1475.328125 857.75 L 1475.28125 770.320312 L 1476.648438 771.058594 "/>
    <path fill-rule="nonzero" fill="rgb(5.883789%, 27.43988%, 65.039062%)" fill-opacity="1"
          d="M 1465.621094 750.730469 L 1558.539062 697.050781 L 1651.589844 750.671875 L 1558.359375 804.621094 L 1465.621094 750.730469 "/>
    <path fill-rule="nonzero" fill="rgb(19.993591%, 71.289062%, 100%)" fill-opacity="1"
          d="M 1558.539062 703.988281 L 1477.410156 750.910156 L 1558.609375 797.921875 L 1639.789062 750.871094 L 1558.539062 703.988281 "/>
    <g clip-path="url(#clip-6)">
        <g clip-path="url(#clip-7)">
            <path fill-rule="nonzero" fill="rgb(15.281677%, 54.881287%, 76.951599%)" fill-opacity="1"
                  d="M 1768.871094 1036.441406 L 1939.410156 1036.441406 L 1939.410156 913.25 L 1768.871094 913.25 Z M 1768.871094 1036.441406 "/>
        </g>
    </g>
    <path fill-rule="nonzero" fill="rgb(5.883789%, 27.43988%, 65.039062%)" fill-opacity="1"
          d="M 1676.160156 982.488281 L 1768.800781 1036.46875 L 1768.871094 920.410156 L 1676.160156 866.519531 L 1676.160156 982.488281 "/>
    <path fill-rule="nonzero" fill="rgb(1.567078%, 10.205078%, 25.097656%)" fill-opacity="1"
          d="M 1768.800781 1036.46875 L 1862.109375 982.519531 L 1862.109375 866.460938 L 1768.871094 920.410156 L 1768.800781 1036.46875 "/>
    <path fill-rule="nonzero" fill="rgb(25.097656%, 24.31488%, 25.87738%)" fill-opacity="1"
          d="M 1857.269531 882.269531 L 1857.269531 970.378906 L 1775.648438 1017.5 L 1775.589844 929.671875 L 1857.269531 882.269531 "/>
    <path fill-rule="nonzero" fill="rgb(1.567078%, 10.205078%, 25.097656%)" fill-opacity="1"
          d="M 1857.269531 968.761719 L 1857.269531 970.148438 L 1775.648438 1017.25 L 1775.648438 1015.300781 L 1857.269531 968.761719 "/>
    <path fill-rule="nonzero" fill="rgb(1.567078%, 10.205078%, 25.097656%)" fill-opacity="1"
          d="M 1857.269531 950.019531 L 1857.269531 951.390625 L 1775.589844 998.511719 L 1775.589844 996.558594 L 1857.269531 950.019531 "/>
    <path fill-rule="nonzero" fill="rgb(1.567078%, 10.205078%, 25.097656%)" fill-opacity="1"
          d="M 1857.269531 931.289062 L 1857.269531 932.679688 L 1775.589844 979.808594 L 1775.589844 977.851562 L 1857.269531 931.289062 "/>
    <path fill-rule="nonzero" fill="rgb(1.567078%, 10.205078%, 25.097656%)" fill-opacity="1"
          d="M 1857.269531 912.570312 L 1857.269531 913.960938 L 1775.589844 961.03125 L 1775.589844 959.109375 L 1857.269531 912.570312 "/>
    <path fill-rule="nonzero" fill="rgb(1.567078%, 10.205078%, 25.097656%)" fill-opacity="1"
          d="M 1857.269531 893.851562 L 1857.269531 895.210938 L 1775.589844 942.308594 L 1775.589844 940.359375 L 1857.269531 893.851562 "/>
    <path fill-rule="nonzero" fill="rgb(1.567078%, 10.205078%, 25.097656%)" fill-opacity="1"
          d="M 1782.019531 926 L 1782.070312 1013.5 L 1780.761719 1014.300781 L 1780.699219 926.738281 L 1782.019531 926 "/>
    <path fill-rule="nonzero" fill="rgb(1.567078%, 10.205078%, 25.097656%)" fill-opacity="1"
          d="M 1788.378906 922.378906 L 1788.378906 1009.878906 L 1787.109375 1010.628906 L 1787.011719 923.089844 L 1788.378906 922.378906 "/>
    <path fill-rule="nonzero" fill="rgb(1.567078%, 10.205078%, 25.097656%)" fill-opacity="1"
          d="M 1794.679688 918.710938 L 1794.738281 1006.25 L 1793.410156 1007.011719 L 1793.410156 919.5 L 1794.679688 918.710938 "/>
    <path fill-rule="nonzero" fill="rgb(1.567078%, 10.205078%, 25.097656%)" fill-opacity="1"
          d="M 1801.039062 915.078125 L 1801.089844 1002.609375 L 1799.71875 1003.410156 L 1799.671875 915.851562 L 1801.039062 915.078125 "/>
    <path fill-rule="nonzero" fill="rgb(1.567078%, 10.205078%, 25.097656%)" fill-opacity="1"
          d="M 1807.378906 911.480469 L 1807.378906 999 L 1806.078125 999.738281 L 1806.019531 912.238281 L 1807.378906 911.480469 "/>
    <path fill-rule="nonzero" fill="rgb(1.567078%, 10.205078%, 25.097656%)" fill-opacity="1"
          d="M 1813.691406 907.820312 L 1813.691406 995.410156 L 1812.449219 996.121094 L 1812.390625 908.589844 L 1813.691406 907.820312 "/>
    <path fill-rule="nonzero" fill="rgb(1.567078%, 10.205078%, 25.097656%)" fill-opacity="1"
          d="M 1820.058594 904.199219 L 1820.058594 991.738281 L 1818.691406 992.53125 L 1818.691406 905 L 1820.058594 904.199219 "/>
    <path fill-rule="nonzero" fill="rgb(1.567078%, 10.205078%, 25.097656%)" fill-opacity="1"
          d="M 1826.421875 900.558594 L 1826.421875 988.078125 L 1825.101562 988.890625 L 1825.011719 901.359375 L 1826.421875 900.558594 "/>
    <path fill-rule="nonzero" fill="rgb(1.567078%, 10.205078%, 25.097656%)" fill-opacity="1"
          d="M 1832.738281 896.929688 L 1832.769531 984.488281 L 1831.410156 985.210938 L 1831.410156 897.710938 L 1832.738281 896.929688 "/>
    <path fill-rule="nonzero" fill="rgb(1.567078%, 10.205078%, 25.097656%)" fill-opacity="1"
          d="M 1839.039062 893.328125 L 1839.078125 980.851562 L 1837.761719 981.589844 L 1837.710938 894.089844 L 1839.039062 893.328125 "/>
    <path fill-rule="nonzero" fill="rgb(1.567078%, 10.205078%, 25.097656%)" fill-opacity="1"
          d="M 1845.441406 889.648438 L 1845.441406 977.210938 L 1844.078125 977.949219 L 1844 890.441406 L 1845.441406 889.648438 "/>
    <path fill-rule="nonzero" fill="rgb(1.567078%, 10.205078%, 25.097656%)" fill-opacity="1"
          d="M 1851.75 886.058594 L 1851.75 973.558594 L 1850.378906 974.351562 L 1850.378906 886.738281 L 1851.75 886.058594 "/>
    <path fill-rule="nonzero" fill="rgb(44.700623%, 44.309998%, 45.872498%)" fill-opacity="1"
          d="M 1761.960938 929.699219 L 1761.960938 1017.089844 L 1680.320312 970.03125 L 1680.28125 882.328125 L 1761.960938 929.699219 "/>
    <path fill-rule="nonzero" fill="rgb(5.883789%, 27.43988%, 65.039062%)" fill-opacity="1"
          d="M 1761.960938 1015.328125 L 1761.960938 1017.25 L 1680.320312 970.21875 L 1680.320312 968.851562 L 1761.960938 1015.328125 "/>
    <path fill-rule="nonzero" fill="rgb(5.883789%, 27.43988%, 65.039062%)" fill-opacity="1"
          d="M 1761.960938 996.589844 L 1761.960938 998.53125 L 1680.320312 951.488281 L 1680.320312 950.058594 L 1761.960938 996.589844 "/>
    <path fill-rule="nonzero" fill="rgb(5.883789%, 27.43988%, 65.039062%)" fill-opacity="1"
          d="M 1761.960938 977.851562 L 1761.960938 979.828125 L 1680.28125 932.75 L 1680.28125 931.351562 L 1761.960938 977.851562 "/>
    <path fill-rule="nonzero" fill="rgb(5.883789%, 27.43988%, 65.039062%)" fill-opacity="1"
          d="M 1761.960938 959.109375 L 1761.960938 961.050781 L 1680.28125 914.011719 L 1680.28125 912.640625 L 1761.960938 959.109375 "/>
    <path fill-rule="nonzero" fill="rgb(5.883789%, 27.43988%, 65.039062%)" fill-opacity="1"
          d="M 1761.960938 940.390625 L 1761.960938 942.339844 L 1680.28125 895.320312 L 1680.28125 893.898438 L 1761.960938 940.390625 "/>
    <path fill-rule="nonzero" fill="rgb(5.883789%, 27.43988%, 65.039062%)" fill-opacity="1"
          d="M 1756.898438 926.738281 L 1756.898438 1014.160156 L 1755.589844 1013.410156 L 1755.589844 926 L 1756.898438 926.738281 "/>
    <path fill-rule="nonzero" fill="rgb(5.883789%, 27.43988%, 65.039062%)" fill-opacity="1"
          d="M 1750.539062 923.148438 L 1750.539062 1010.511719 L 1749.230469 1009.800781 L 1749.230469 922.398438 L 1750.539062 923.148438 "/>
    <path fill-rule="nonzero" fill="rgb(5.883789%, 27.43988%, 65.039062%)" fill-opacity="1"
          d="M 1744.179688 919.539062 L 1744.179688 1006.921875 L 1742.921875 1006.179688 L 1742.871094 918.730469 L 1744.179688 919.539062 "/>
    <path fill-rule="nonzero" fill="rgb(5.883789%, 27.43988%, 65.039062%)" fill-opacity="1"
          d="M 1737.878906 915.878906 L 1737.878906 1003.269531 L 1736.511719 1002.511719 L 1736.511719 915.148438 L 1737.878906 915.878906 "/>
    <path fill-rule="nonzero" fill="rgb(5.883789%, 27.43988%, 65.039062%)" fill-opacity="1"
          d="M 1731.570312 912.261719 L 1731.570312 999.660156 L 1730.199219 998.910156 L 1730.160156 911.5 L 1731.570312 912.261719 "/>
    <path fill-rule="nonzero" fill="rgb(5.883789%, 27.43988%, 65.039062%)" fill-opacity="1"
          d="M 1725.21875 908.609375 L 1725.21875 996.039062 L 1723.839844 995.238281 L 1723.839844 907.851562 L 1725.21875 908.609375 "/>
    <path fill-rule="nonzero" fill="rgb(5.883789%, 27.43988%, 65.039062%)" fill-opacity="1"
          d="M 1718.839844 905.03125 L 1718.839844 992.371094 L 1717.539062 991.621094 L 1717.539062 904.230469 L 1718.839844 905.03125 "/>
    <path fill-rule="nonzero" fill="rgb(5.883789%, 27.43988%, 65.039062%)" fill-opacity="1"
          d="M 1712.488281 901.359375 L 1712.539062 988.769531 L 1711.171875 988.011719 L 1711.171875 900.589844 L 1712.488281 901.359375 "/>
    <path fill-rule="nonzero" fill="rgb(5.883789%, 27.43988%, 65.039062%)" fill-opacity="1"
          d="M 1706.191406 897.730469 L 1706.191406 985.128906 L 1704.859375 984.359375 L 1704.820312 897 L 1706.191406 897.730469 "/>
    <path fill-rule="nonzero" fill="rgb(5.883789%, 27.43988%, 65.039062%)" fill-opacity="1"
          d="M 1699.839844 894.089844 L 1699.890625 981.480469 L 1698.511719 980.738281 L 1698.511719 893.328125 L 1699.839844 894.089844 "/>
    <path fill-rule="nonzero" fill="rgb(5.883789%, 27.43988%, 65.039062%)" fill-opacity="1"
          d="M 1693.46875 890.46875 L 1693.539062 977.851562 L 1692.21875 977.089844 L 1692.148438 889.699219 L 1693.46875 890.46875 "/>
    <path fill-rule="nonzero" fill="rgb(5.883789%, 27.43988%, 65.039062%)" fill-opacity="1"
          d="M 1687.171875 886.839844 L 1687.171875 974.25 L 1685.871094 973.539062 L 1685.800781 886.109375 L 1687.171875 886.839844 "/>
    <path fill-rule="nonzero" fill="rgb(5.883789%, 27.43988%, 65.039062%)" fill-opacity="1"
          d="M 1676.160156 866.519531 L 1769.070312 812.839844 L 1862.109375 866.460938 L 1768.871094 920.410156 L 1676.160156 866.519531 "/>
    <path fill-rule="nonzero" fill="rgb(19.993591%, 71.289062%, 100%)" fill-opacity="1"
          d="M 1769.070312 819.769531 L 1687.949219 866.710938 L 1769.128906 913.71875 L 1850.308594 866.648438 L 1769.070312 819.769531 "/>
</svg>
