<?xml version="1.0" encoding="UTF-8"?>
<svg xmlns="http://www.w3.org/2000/svg" xmlns:xlink="http://www.w3.org/1999/xlink" width="2388" height="3002"
     viewBox="0 0 2388 3002">
    <path fill-rule="evenodd" fill="rgb(0%, 0%, 0%)" fill-opacity="1"
          d="M 1859.53125 1796.148438 L 1719.710938 2038.324219 C 1710.46875 2054.296875 1690.011719 2059.738281 1674.039062 2050.496094 C 1658.078125 2041.246094 1652.621094 2020.785156 1661.871094 2004.824219 L 1801.699219 1762.648438 C 1810.949219 1746.691406 1831.398438 1741.230469 1847.371094 1750.480469 C 1863.328125 1759.730469 1868.78125 1780.191406 1859.53125 1796.148438 Z M 1575.539062 1027.5 L 1364.191406 855.800781 C 1349.878906 844.171875 1347.710938 823.140625 1359.339844 808.839844 C 1370.980469 794.53125 1392.011719 792.359375 1406.308594 803.988281 L 1617.671875 975.691406 C 1631.96875 987.320312 1634.140625 1008.351562 1622.511719 1022.660156 C 1610.878906 1036.960938 1589.839844 1039.128906 1575.539062 1027.5 Z M 1871.609375 1641.710938 C 1999.339844 1420.460938 1790.019531 1184.339844 1789.429688 1183.660156 C 1777.289062 1169.71875 1778.761719 1148.558594 1792.710938 1136.421875 C 1806.648438 1124.28125 1827.808594 1125.761719 1839.941406 1139.699219 C 1840.628906 1140.480469 2081.328125 1411.851562 1929.441406 1674.941406 C 1920.269531 1690.910156 1899.878906 1696.410156 1883.910156 1687.238281 C 1867.941406 1678.070312 1862.429688 1657.679688 1871.609375 1641.710938 Z M 1610.359375 2191.050781 C 1620.25 2206.585938 1615.691406 2227.214844 1600.148438 2237.113281 L 1265.53125 2450.066406 C 1250 2459.960938 1229.371094 2455.398438 1219.46875 2439.863281 C 1209.570312 2424.335938 1214.140625 2403.707031 1229.671875 2393.804688 L 1564.289062 2180.855469 C 1579.828125 2170.953125 1600.460938 2175.523438 1610.359375 2191.050781 Z M 1836.960938 972.191406 Z M 2375.519531 1781.179688 C 2450.628906 1457.699219 2159.699219 1191.839844 1838.5 973.25 L 1836.910156 972.308594 L 1836.949219 972.21875 C 1793.570312 944.960938 1753.898438 920.421875 1714.460938 896.039062 C 1438.738281 725.570312 1168.671875 558.910156 1149.328125 407.5 L 1149.441406 407.488281 C 1133.410156 284.039062 1271.71875 180.371094 1678.328125 107.460938 L 1217.210938 24.371094 C 1217.808594 25.660156 1218.339844 27 1218.789062 28.390625 C 1224.421875 45.949219 1214.75 64.761719 1197.191406 70.390625 L 1052.238281 117.101562 C 1034.679688 122.730469 1015.871094 113.070312 1010.230469 95.511719 C 1004.601562 77.949219 1014.269531 59.128906 1031.828125 53.5 L 1156.28125 13.390625 L 1087.460938 1 C 946.273438 19.878906 689.207031 76.390625 559.152344 104.96875 L 516.871094 114.230469 C 375.28125 162.609375 331.570312 212.628906 350.019531 267.011719 C 380.691406 357.398438 545.707031 473.109375 740.832031 609.941406 C 1005.25 795.371094 1323.019531 1018.21875 1461.511719 1290.890625 C 1655.148438 1672.148438 1501.730469 2138.914062 382.320312 2707.496094 L 382.363281 2707.578125 C 381.214844 2708.164062 380.042969 2708.660156 378.863281 2709.101562 C 306.011719 2743.957031 230.105469 2779.011719 150.867188 2814.277344 C 101.753906 2836.132812 51.648438 2857.980469 0.527344 2879.789062 L 673.171875 3001.003906 C 1845.691406 2513.863281 2298.351562 2113.550781 2375.519531 1781.179688 Z M 583.714844 2728.152344 L 979.175781 2576.046875 C 996.367188 2569.472656 1015.648438 2578.085938 1022.230469 2595.285156 C 1028.800781 2612.476562 1020.179688 2631.757812 1002.988281 2638.335938 L 607.53125 2790.4375 C 590.332031 2797.011719 571.050781 2788.398438 564.476562 2771.199219 C 557.902344 2754.007812 566.515625 2734.726562 583.714844 2728.152344 Z M 1235.578125 765.929688 L 941.847656 521.820312 C 927.695312 510.050781 925.765625 489 937.539062 474.839844 C 949.3125 460.691406 970.359375 458.761719 984.511719 470.53125 L 1278.238281 714.628906 C 1292.398438 726.410156 1294.339844 747.449219 1282.558594 761.621094 C 1270.789062 775.769531 1249.738281 777.699219 1235.578125 765.929688 Z M 948.453125 122.019531 C 955.308594 139.140625 946.992188 158.609375 929.871094 165.460938 C 929.15625 165.75 677.285156 264.320312 850.519531 355.308594 C 866.84375 363.898438 873.105469 384.128906 864.511719 400.449219 C 855.921875 416.769531 835.699219 423.039062 819.375 414.449219 C 516.140625 255.191406 903.90625 103.878906 905.007812 103.441406 C 922.132812 96.589844 941.589844 104.898438 948.453125 122.019531 "/>
</svg>
