<?xml version="1.0" encoding="UTF-8"?>
<svg xmlns="http://www.w3.org/2000/svg" xmlns:xlink="http://www.w3.org/1999/xlink" width="1947" height="2176"
     viewBox="0 0 1947 2176">
    <path fill-rule="nonzero" fill="rgb(0%, 0%, 0%)" fill-opacity="1"
          d="M 948.066406 1.730469 C 918.699219 6.808594 878.09375 22.761719 848.726562 40.878906 C 811.386719 64.089844 776.941406 99.621094 736.335938 156.898438 C 661.289062 263.488281 597.117188 299.75 502.855469 289.589844 C 464.785156 285.238281 458.625 285.96875 455.363281 294.308594 C 450.648438 307 462.25 314.96875 493.066406 319.679688 C 528.59375 324.761719 514.457031 326.570312 437.597656 326.570312 C 360.734375 326.570312 356.386719 326.941406 337.894531 335.269531 C 305.265625 350.140625 280.25 386.390625 273.359375 429.898438 C 271.550781 440.769531 267.921875 446.210938 257.773438 453.101562 C 211.367188 485.011719 175.472656 536.128906 159.886719 593.050781 C 149.371094 630.390625 147.195312 672.441406 151.90625 747.128906 C 154.085938 783.019531 159.160156 862.78125 163.144531 924.78125 C 167.136719 986.410156 170.398438 1039.710938 170.398438 1042.96875 C 170.398438 1046.230469 162.785156 1051.671875 150.820312 1056.75 C 97.164062 1078.859375 48.582031 1135.421875 36.980469 1189.4375 C 34.804688 1199.230469 31.90625 1218.804688 30.816406 1232.582031 C 29.003906 1256.875 25.742188 1263.761719 15.226562 1263.761719 C 8.703125 1263.761719 0 1286.242188 0 1303.28125 C 0 1323.945312 10.152344 1373.976562 18.125 1392.828125 C 22.839844 1403.703125 25.378906 1417.484375 25.378906 1433.070312 C 25.378906 1453.011719 23.925781 1458.453125 16.316406 1467.511719 C 7.976562 1477.304688 7.25 1480.929688 7.25 1516.097656 C 7.25 1549.085938 8.339844 1554.886719 14.503906 1561.050781 C 18.488281 1565.039062 23.566406 1568.304688 25.378906 1568.304688 C 27.554688 1568.304688 29.003906 1612.171875 29.003906 1692.296875 C 29.003906 1830.425781 31.179688 1848.554688 51.121094 1887.710938 C 73.597656 1932.664062 131.96875 1977.257812 176.5625 1983.421875 L 193.964844 1985.597656 L 203.75 2012.0625 C 232.394531 2087.472656 296.925781 2147.292969 373.425781 2169.046875 C 395.902344 2175.207031 424.90625 2175.570312 969.816406 2175.570312 L 1542.640625 2175.570312 L 1570.929688 2167.234375 C 1605.371094 2157.445312 1626.390625 2146.929688 1655.398438 2125.542969 C 1693.109375 2097.988281 1730.808594 2044.332031 1743.859375 2000.824219 C 1748.210938 1985.960938 1748.941406 1985.960938 1770.691406 1981.972656 C 1836.671875 1970.371094 1894.320312 1914.898438 1912.441406 1844.925781 C 1916.800781 1828.613281 1917.878906 1797.796875 1917.878906 1696.285156 C 1917.878906 1577.367188 1918.25 1567.941406 1924.410156 1565.765625 C 1941.089844 1559.964844 1943.261719 1554.164062 1943.261719 1518.632812 C 1943.261719 1484.191406 1939.269531 1469.691406 1927.308594 1459.902344 C 1918.609375 1452.652344 1920.058594 1425.097656 1930.570312 1394.644531 C 1939.269531 1368.175781 1946.890625 1325.394531 1946.890625 1300.015625 C 1946.890625 1281.886719 1941.089844 1269.199219 1930.210938 1264.125 C 1922.230469 1260.5 1921.511719 1257.960938 1921.511719 1237.296875 C 1921.511719 1164.058594 1876.921875 1091.550781 1812.019531 1059.289062 C 1797.878906 1052.039062 1784.109375 1046.230469 1781.558594 1046.230469 C 1778.660156 1046.230469 1776.488281 1045.140625 1776.488281 1043.328125 C 1776.488281 1041.878906 1779.03125 1009.609375 1781.558594 971.910156 C 1801.871094 710.511719 1802.589844 634.378906 1786.28125 583.980469 C 1769.238281 532.5 1731.171875 479.570312 1690.199219 451.648438 C 1673.890625 440.050781 1672.070312 437.519531 1668.089844 417.210938 C 1662.648438 390.378906 1651.050781 370.078125 1631.109375 352.320312 C 1606.089844 329.46875 1597.75 327.660156 1519.078125 325.480469 C 1455.628906 324.03125 1450.191406 323.308594 1465.421875 319.320312 C 1474.851562 317.148438 1485 313.160156 1487.898438 310.261719 C 1494.429688 305.179688 1495.519531 293.578125 1489.710938 289.949219 C 1487.539062 288.871094 1465.789062 287.058594 1441.859375 286.691406 C 1348.679688 284.519531 1303.359375 255.148438 1232.671875 150.730469 C 1199.679688 101.429688 1173.210938 71.699219 1142.03125 48.5 C 1123.179688 34.359375 1081.480469 14.421875 1056.828125 7.890625 C 1030.730469 1 973.445312 -2.261719 948.066406 1.730469 Z M 1029.640625 28.921875 C 1103.960938 44.871094 1153.269531 80.769531 1202.941406 155.089844 C 1217.441406 176.839844 1228.320312 194.238281 1227.589844 194.238281 C 1226.5 194.238281 1217.078125 181.558594 1206.929688 165.960938 C 1167.769531 108.320312 1120.269531 68.441406 1068.789062 49.949219 C 1047.769531 42.699219 1033.628906 40.519531 998.457031 39.070312 C 947.339844 37.261719 912.535156 44.511719 869.03125 65.898438 C 851.992188 74.238281 846.191406 76.050781 851.992188 70.980469 C 867.941406 57.921875 918.335938 34.71875 942.628906 29.640625 C 973.082031 22.761719 1000.269531 22.761719 1029.640625 28.921875 Z M 1041.238281 63.359375 C 1109.398438 80.769531 1157.621094 121.011719 1202.570312 197.871094 C 1237.019531 256.601562 1237.378906 259.859375 1203.300781 208.738281 C 1177.558594 169.589844 1135.871094 126.089844 1104.691406 105.78125 C 1060.089844 76.78125 1004.980469 61.550781 953.503906 64.449219 L 922.6875 66.269531 L 944.441406 61.910156 C 977.070312 55.019531 1010.789062 55.75 1041.238281 63.359375 Z M 1018.761719 97.078125 C 1076.410156 111.21875 1129.699219 153.28125 1179.011719 223.25 C 1197.140625 248.988281 1237.378906 321.5 1234.839844 323.671875 C 1233.03125 325.480469 706.246094 325.121094 704.433594 323.308594 C 703.707031 322.589844 710.597656 308.808594 720.019531 292.128906 C 807.394531 134.058594 905.644531 69.890625 1018.761719 97.078125 Z M 1259.488281 232.308594 C 1282.339844 259.5 1282.339844 259.859375 1263.480469 239.558594 C 1252.25 227.601562 1239.558594 212.730469 1235.199219 206.929688 C 1225.050781 192.070312 1230.851562 198.230469 1259.488281 232.308594 Z M 696.09375 254.429688 C 685.214844 265.660156 668.539062 278.710938 659.113281 283.429688 C 634.460938 296.121094 633.371094 294.308594 656.210938 278.710938 C 667.089844 271.460938 683.769531 258.410156 693.195312 249.710938 C 717.484375 227.230469 719.296875 230.5 696.09375 254.429688 Z M 1294.660156 265.660156 C 1299.378906 271.460938 1299.011719 271.828125 1293.570312 267.109375 C 1289.949219 264.578125 1287.050781 261.679688 1287.050781 260.949219 C 1287.050781 258.050781 1289.949219 259.859375 1294.660156 265.660156 Z M 1594.488281 369.71875 C 1607.898438 376.609375 1618.78125 389.660156 1623.859375 404.160156 C 1630.378906 423.730469 1629.300781 678.609375 1622.410156 710.148438 C 1605.730469 789.910156 1550.980469 844.289062 1475.941406 856.261719 L 1461.070312 858.789062 L 1461.070312 823.988281 C 1461.070312 785.558594 1457.441406 773.601562 1444.03125 767.429688 C 1438.589844 764.890625 1410.308594 763.441406 1370.070312 763.441406 C 1302.28125 763.441406 1287.410156 766.339844 1281.96875 779.761719 C 1280.890625 783.019531 1279.800781 803.691406 1279.800781 825.078125 C 1279.800781 849.730469 1278.351562 865.320312 1275.808594 867.128906 C 1273.640625 868.589844 1272.910156 874.390625 1274 881.269531 C 1276.171875 892.148438 1275.449219 893.230469 1264.929688 895.410156 C 1258.769531 896.5 1121 897.589844 958.941406 897.589844 L 664.191406 897.589844 L 662.011719 880.191406 C 660.566406 870.761719 658.753906 843.929688 657.664062 820.730469 C 654.765625 761.269531 658.027344 763.441406 568.476562 763.441406 L 499.589844 763.441406 L 489.078125 773.960938 C 478.929688 784.46875 478.566406 785.558594 478.566406 821.089844 L 478.566406 857.339844 L 466.964844 855.53125 C 460.4375 854.441406 441.582031 847.191406 425.632812 839.21875 C 376.6875 815.648438 342.96875 775.410156 327.746094 721.390625 C 322.308594 702.53125 321.582031 681.511719 322.308594 551.351562 C 323.394531 386.390625 322.667969 389.660156 348.046875 372.980469 L 360.011719 364.640625 L 972.355469 364.640625 C 1491.160156 364.640625 1586.148438 365.359375 1594.488281 369.71875 Z M 1719.210938 541.199219 C 1747.480469 584.710938 1758 618.058594 1760.898438 674.621094 C 1762.351562 707.96875 1752.558594 1005.988281 1749.660156 1009.25 C 1748.941406 1009.609375 1748.941406 927.320312 1748.941406 826.171875 C 1749.300781 616.25 1750.019531 623.5 1718.121094 558.238281 C 1708.328125 537.941406 1700.351562 520.539062 1700.351562 519.089844 C 1700.351562 513.648438 1704.339844 518.359375 1719.210938 541.199219 Z M 226.59375 560.78125 C 197.589844 622.410156 197.589844 622.78125 197.949219 814.929688 C 197.949219 908.101562 197.589844 983.871094 197.226562 983.511719 C 193.964844 980.609375 184.902344 700.71875 186.710938 671.71875 C 189.25 633.289062 198.675781 594.140625 211.003906 569.839844 C 220.429688 550.988281 239.644531 523.070312 241.457031 525.25 C 242.183594 525.980469 235.65625 541.929688 226.59375 560.78125 Z M 1663.738281 627.488281 C 1673.53125 742.78125 1663.011719 791.359375 1618.058594 842.839844 C 1584.339844 881.269531 1541.558594 902.660156 1474.851562 913.898438 C 1461.070312 916.078125 1461.070312 916.078125 1461.070312 903.390625 C 1461.070312 892.871094 1462.519531 890.339844 1469.410156 888.890625 C 1506.03125 882 1520.53125 877.648438 1542.640625 866.769531 C 1575.640625 850.089844 1598.121094 830.519531 1618.058594 800.421875 C 1650.320312 752.210938 1658.660156 709.789062 1656.128906 605.738281 C 1654.308594 532.140625 1656.488281 537.941406 1663.738281 627.488281 Z M 298.378906 734.441406 C 312.878906 783.019531 348.046875 831.609375 388.289062 857.710938 C 406.417969 869.308594 438.324219 881.628906 468.777344 888.160156 C 476.75 889.980469 478.566406 892.511719 478.566406 901.210938 C 478.566406 911 477.476562 912.089844 466.601562 912.089844 C 448.472656 912.089844 414.03125 902.300781 388.652344 889.980469 C 354.933594 873.660156 318.320312 837.769531 302.726562 805.5 C 277.351562 753.660156 275.539062 727.910156 285.324219 583.980469 C 288.226562 545.550781 288.226562 547.371094 290.402344 629.300781 C 292.214844 691.300781 294.390625 719.941406 298.378906 734.441406 Z M 242.546875 969.371094 C 243.269531 1142.308594 245.082031 1436.335938 246.535156 1622.6875 C 248.710938 1923.601562 249.796875 1964.207031 254.871094 1982.695312 C 263.9375 2014.238281 278.074219 2040.34375 300.554688 2067.894531 L 320.492188 2092.1875 L 304.179688 2077.683594 C 268.648438 2046.144531 247.257812 2009.527344 237.109375 1964.207031 C 231.308594 1938.101562 230.945312 1894.960938 233.480469 1307.269531 C 235.65625 772.511719 236.746094 654.679688 240.734375 654.679688 C 240.734375 654.679688 241.820312 796.070312 242.546875 969.371094 Z M 1713.769531 1392.464844 L 1713.039062 1958.042969 L 1703.25 1984.507812 C 1678.96875 2051.582031 1633.640625 2096.175781 1568.019531 2118.652344 L 1539.019531 2128.441406 L 1212.730469 2128.800781 C 1033.261719 2128.800781 902.023438 2128.441406 920.875 2127.714844 C 1011.148438 2125.179688 1166.320312 2118.289062 1276.171875 2112.125 C 1342.878906 2108.140625 1412.488281 2104.875 1430.621094 2104.875 C 1469.050781 2104.875 1510.738281 2095.449219 1538.289062 2080.585938 C 1566.570312 2064.992188 1599.929688 2029.828125 1615.160156 1999.375 C 1636.539062 1957.320312 1638.359375 1941.003906 1639.089844 1800.335938 C 1639.808594 1664.378906 1640.898438 1667.640625 1651.410156 1832.960938 C 1659.75 1970.734375 1654.671875 2001.910156 1615.160156 2061.007812 C 1604.28125 2077.320312 1597.03125 2090.375 1598.839844 2090.375 C 1602.828125 2090.375 1634.371094 2064.992188 1646.339844 2051.945312 C 1659.390625 2037.804688 1679.691406 2005.175781 1686.941406 1986.683594 C 1702.53125 1946.441406 1703.980469 1925.414062 1703.980469 1732.175781 C 1703.980469 1311.617188 1709.421875 663.378906 1711.949219 745.320312 C 1713.769531 790.269531 1714.5 1081.398438 1713.769531 1392.464844 Z M 630.109375 789.550781 C 634.460938 794.980469 631.199219 866.769531 626.847656 862.421875 C 625.398438 860.96875 623.585938 845.738281 622.859375 828.699219 L 621.769531 797.890625 L 571.378906 796.800781 C 535.847656 796.070312 519.535156 797.160156 515.90625 800.421875 C 511.554688 803.691406 510.832031 811.300781 511.917969 833.058594 C 512.644531 854.078125 511.917969 861.328125 508.65625 861.328125 C 502.132812 861.328125 502.132812 795.710938 508.292969 789.550781 C 514.457031 783.378906 625.035156 783.378906 630.109375 789.550781 Z M 1431.339844 789.550781 C 1436.058594 794.261719 1437.140625 825.441406 1433.519531 847.558594 C 1429.171875 872.210938 1425.539062 862.058594 1427.359375 831.96875 C 1429.171875 809.121094 1428.441406 801.871094 1424.460938 799.339844 C 1421.558594 797.519531 1396.898438 796.070312 1369.710938 796.070312 C 1310.609375 796.070312 1311.699219 795.351562 1314.960938 837.039062 C 1316.78125 861.328125 1316.410156 864.960938 1310.980469 864.960938 C 1305.898438 864.960938 1305.179688 859.878906 1305.179688 827.25 C 1305.179688 794.261719 1305.898438 789.179688 1311.699219 787.730469 C 1326.570312 783.75 1426.988281 785.199219 1431.339844 789.550781 Z M 630.109375 921.878906 L 629.023438 953.78125 L 509.382812 953.78125 L 508.292969 926.949219 C 507.570312 912.089844 507.933594 897.949219 509.019531 895.050781 C 510.46875 891.429688 524.246094 890.339844 571.015625 890.339844 L 631.199219 890.339844 Z M 1430.261719 922.960938 L 1430.261719 953.78125 L 1306.988281 953.78125 L 1305.898438 926.949219 C 1305.179688 912.089844 1305.539062 897.949219 1306.628906 895.050781 C 1308.441406 891.058594 1320.769531 890.339844 1369.351562 891.058594 L 1430.261719 892.148438 Z M 1276.171875 937.46875 C 1276.171875 944.71875 1273.640625 944.71875 968.007812 944.71875 C 662.375 944.71875 659.839844 944.71875 659.839844 937.46875 C 659.839844 930.21875 662.375 930.21875 968.007812 930.21875 C 1273.640625 930.21875 1276.171875 930.21875 1276.171875 937.46875 Z M 643.886719 993.660156 C 644.972656 998.371094 644.609375 1007.078125 642.800781 1012.519531 L 639.171875 1022.671875 L 566.300781 1023.75 L 493.066406 1024.480469 L 493.066406 984.601562 L 641.710938 984.601562 Z M 1445.839844 1003.449219 L 1444.761719 1022.671875 L 1292.488281 1022.671875 L 1291.398438 1012.148438 C 1290.679688 1006.710938 1291.039062 998.011719 1292.128906 993.300781 L 1294.300781 984.601562 L 1446.929688 984.601562 Z M 630.835938 1093.359375 L 630.835938 1136.871094 L 507.570312 1136.871094 L 507.570312 1049.859375 L 630.835938 1049.859375 Z M 1431.339844 1119.460938 C 1430.621094 1169.5 1429.171875 1189.074219 1425.910156 1190.164062 C 1422.640625 1191.253906 1422.28125 1185.089844 1423.730469 1166.230469 L 1425.910156 1140.5 L 1316.058594 1140.5 L 1316.058594 1161.519531 C 1316.058594 1173.121094 1317.859375 1184.363281 1320.398438 1186.902344 C 1323.660156 1190.164062 1322.941406 1191.253906 1316.78125 1191.253906 C 1308.800781 1191.253906 1308.800781 1190.890625 1308.800781 1120.558594 L 1308.800781 1049.859375 L 1432.070312 1049.859375 Z M 1567.300781 1083.210938 C 1576.730469 1094.089844 1575.28125 1109.679688 1564.039062 1118.378906 C 1544.820312 1133.609375 1522.710938 1123.089844 1522.710938 1099.160156 C 1522.710938 1074.511719 1551.351562 1064.359375 1567.300781 1083.210938 Z M 1826.878906 1120.921875 C 1859.519531 1149.191406 1878 1190.164062 1878 1233.671875 C 1878 1257.960938 1877.28125 1260.136719 1870.390625 1260.136719 C 1866.398438 1260.136719 1856.25 1263.039062 1847.910156 1267.027344 C 1832.320312 1273.914062 1769.238281 1280.441406 1769.238281 1275 C 1769.238281 1273.550781 1771.78125 1264.125 1774.679688 1254.335938 C 1781.199219 1232.945312 1781.558594 1218.078125 1776.128906 1197.777344 C 1773.230469 1187.265625 1772.859375 1167.320312 1774.679688 1136.140625 L 1777.21875 1090.101562 L 1793.890625 1098.441406 C 1803.320312 1103.519531 1818.179688 1113.308594 1826.878906 1120.921875 Z M 173.660156 1156.808594 C 173.300781 1178.5625 173.300781 1206.476562 172.9375 1218.441406 C 172.9375 1230.40625 174.023438 1248.898438 175.835938 1259.773438 C 178.738281 1278.265625 178.375 1279.351562 171.847656 1276.449219 C 168.222656 1274.640625 155.535156 1273.550781 144.296875 1274.277344 C 131.96875 1274.640625 118.554688 1272.828125 111.664062 1269.5625 C 105.136719 1266.664062 93.535156 1263.398438 85.5625 1261.949219 L 71.421875 1259.773438 L 73.234375 1229.679688 C 76.496094 1179.289062 101.152344 1137.960938 144.296875 1109.679688 L 168.585938 1094.089844 L 171.125 1105.328125 C 172.574219 1111.859375 173.660156 1134.691406 173.660156 1156.808594 Z M 630.109375 1181.101562 L 631.199219 1198.503906 L 507.570312 1198.503906 L 507.570312 1182.914062 C 507.570312 1174.210938 508.65625 1165.871094 510.105469 1164.429688 C 511.554688 1163.339844 538.75 1162.609375 570.652344 1162.96875 L 629.023438 1164.058594 Z M 489.441406 1226.058594 C 489.441406 1226.058594 479.289062 1226.78125 466.964844 1227.144531 C 427.445312 1228.234375 391.191406 1250.710938 371.613281 1285.878906 L 360.734375 1305.453125 L 359.648438 1390.65625 C 358.5625 1470.054688 358.925781 1477.667969 366.171875 1496.515625 C 381.765625 1538.9375 412.578125 1566.125 459.710938 1580.269531 C 473.851562 1584.253906 485.816406 1588.96875 485.816406 1590.78125 C 485.816406 1596.945312 462.613281 1605.285156 450.648438 1603.472656 C 413.667969 1597.308594 366.898438 1561.414062 348.410156 1524.433594 C 331.730469 1491.078125 329.195312 1471.867188 330.644531 1384.492188 C 331.730469 1306.179688 331.730469 1305.089844 342.246094 1282.976562 C 361.824219 1240.195312 406.777344 1207.929688 453.910156 1202.855469 L 476.75 1200.316406 L 482.914062 1213.003906 C 486.542969 1219.894531 489.441406 1225.695312 489.441406 1226.058594 Z M 1506.390625 1206.476562 C 1542.289062 1215.542969 1577.808594 1244.546875 1594.128906 1277.902344 L 1604.28125 1298.203125 L 1604.28125 1493.980469 L 1591.949219 1519.359375 C 1576.359375 1550.902344 1551.351562 1576.28125 1521.980469 1590.054688 C 1490.441406 1604.921875 1478.839844 1606.730469 1461.429688 1598.757812 C 1453.460938 1594.769531 1447.300781 1590.417969 1447.660156 1588.605469 C 1448.378906 1586.792969 1458.539062 1583.167969 1470.859375 1580.628906 C 1520.890625 1570.480469 1560.050781 1536.761719 1573.820312 1492.167969 C 1580.351562 1469.691406 1581.078125 1459.902344 1579.988281 1389.929688 C 1578.898438 1317.78125 1578.179688 1311.617188 1570.199219 1293.488281 C 1558.960938 1268.839844 1529.230469 1241.28125 1503.851562 1232.222656 C 1485.71875 1226.058594 1462.519531 1225.695312 1063.71875 1225.695312 L 642.800781 1225.695312 L 652.226562 1214.09375 L 661.652344 1202.128906 L 971.996094 1202.128906 C 1277.621094 1202.128906 1282.339844 1202.128906 1288.859375 1209.378906 C 1295.019531 1216.269531 1300.101562 1216.632812 1371.160156 1216.632812 L 1446.570312 1216.632812 L 1454.550781 1207.566406 C 1462.878906 1198.140625 1471.949219 1197.777344 1506.390625 1206.476562 Z M 1503.128906 1265.210938 C 1524.160156 1275 1538.289062 1291.316406 1544.089844 1312.707031 C 1550.621094 1335.910156 1549.171875 1461.710938 1542.289062 1484.554688 C 1532.488281 1517.910156 1504.578125 1542.5625 1465.789062 1551.265625 L 1444.03125 1556.703125 L 1441.5 1516.097656 C 1439.320312 1478.753906 1438.230469 1475.128906 1429.53125 1467.511719 C 1420.46875 1459.175781 1419.019531 1459.175781 1351.941406 1460.265625 C 1292.488281 1461.351562 1282.691406 1462.074219 1277.261719 1467.875 C 1270.011719 1475.128906 1269.289062 1488.179688 1273.640625 1540.023438 L 1276.890625 1575.554688 L 651.5 1575.554688 L 654.765625 1538.210938 C 659.113281 1484.914062 658.390625 1478.390625 649.6875 1469.328125 C 642.4375 1462.074219 638.085938 1461.710938 584.792969 1460.988281 C 496.691406 1460.265625 489.441406 1463.890625 489.441406 1508.84375 C 489.441406 1522.984375 488.351562 1539.664062 487.265625 1545.824219 L 485.089844 1556.703125 L 466.601562 1551.265625 C 434.335938 1541.835938 406.417969 1516.460938 395.539062 1487.457031 C 393.003906 1481.292969 391.554688 1443.949219 391.554688 1395.730469 C 391.554688 1322.855469 392.277344 1312.707031 398.441406 1300.742188 C 407.503906 1283.339844 418.378906 1273.1875 438.683594 1264.125 C 455 1256.875 459.347656 1256.511719 969.816406 1256.511719 L 1484.640625 1256.511719 Z M 184.902344 1345.335938 L 184.902344 1379.777344 L 58.007812 1379.777344 L 54.382812 1370.351562 C 49.308594 1357.296875 50.03125 1320.320312 55.109375 1315.246094 C 58.007812 1312.34375 78.3125 1310.890625 122.179688 1310.890625 L 184.902344 1310.890625 Z M 1896.128906 1317.78125 C 1897.941406 1321.769531 1899.761719 1334.09375 1899.761719 1345.335938 C 1899.761719 1380.863281 1902.289062 1379.777344 1825.429688 1379.777344 L 1758.359375 1379.777344 L 1758.359375 1347.511719 C 1758.359375 1308.71875 1751.109375 1311.980469 1833.410156 1311.253906 C 1888.160156 1310.890625 1892.5 1311.253906 1896.128906 1317.78125 Z M 170.761719 1415.304688 C 158.433594 1439.597656 130.519531 1473.3125 101.152344 1499.78125 C 85.199219 1514.28125 73.234375 1526.609375 73.960938 1527.335938 C 76.496094 1530.234375 101.152344 1517.910156 126.894531 1501.59375 L 152.269531 1484.914062 L 152.269531 1508.480469 C 152.269531 1530.597656 151.542969 1532.410156 142.84375 1535.675781 C 133.054688 1539.664062 43.507812 1540.75 43.507812 1537.121094 C 43.507812 1535.675781 56.195312 1520.808594 71.785156 1503.40625 C 113.839844 1457.363281 140.304688 1425.097656 146.832031 1412.40625 C 151.542969 1403.34375 154.808594 1401.53125 164.960938 1401.53125 L 177.648438 1401.53125 Z M 1824.351562 1439.597656 C 1839.210938 1457.363281 1863.859375 1485.640625 1879.449219 1502.316406 C 1894.679688 1518.632812 1907.011719 1533.863281 1907.011719 1535.675781 C 1907.011719 1541.113281 1804.410156 1540.386719 1798.96875 1534.949219 C 1796.429688 1532.410156 1794.621094 1520.082031 1794.621094 1505.945312 L 1794.621094 1480.929688 L 1803.679688 1489.628906 C 1813.828125 1499.058594 1856.609375 1522.621094 1870.75 1526.609375 C 1876.921875 1528.421875 1868.570312 1518.632812 1844.648438 1496.15625 C 1814.921875 1467.875 1772.859375 1414.945312 1772.859375 1405.519531 C 1772.859375 1404.066406 1778.308594 1403.703125 1784.828125 1404.792969 C 1794.621094 1406.605469 1802.589844 1413.496094 1824.351562 1439.597656 Z M 187.800781 1781.117188 L 186.710938 1888.070312 L 168.585938 1875.746094 C 158.433594 1868.855469 146.105469 1856.164062 139.582031 1846.015625 L 128.703125 1828.25 L 126.53125 1569.390625 L 143.933594 1567.214844 C 155.171875 1566.125 163.144531 1562.867188 167.136719 1557.789062 C 175.472656 1547.277344 181.273438 1518.996094 181.273438 1487.09375 C 181.273438 1472.589844 182.363281 1459.539062 184.175781 1458.089844 C 187.074219 1454.824219 189.25 1625.222656 187.800781 1781.117188 Z M 1769.238281 1500.144531 C 1769.238281 1549.449219 1780.121094 1568.304688 1808.761719 1568.304688 L 1818.910156 1568.304688 L 1821.441406 1683.59375 C 1823.980469 1799.972656 1822.53125 1821.359375 1811.289062 1843.476562 C 1803.679688 1857.617188 1769.960938 1887.347656 1761.261719 1887.347656 C 1759.449219 1887.347656 1758.359375 1789.820312 1758.359375 1670.539062 C 1758.71875 1479.476562 1759.089844 1454.824219 1763.800781 1460.988281 C 1767.789062 1466.066406 1769.238281 1477.667969 1769.238281 1500.144531 Z M 1411.769531 1487.09375 C 1416.480469 1491.441406 1417.570312 1501.230469 1417.570312 1533.136719 C 1417.570312 1555.613281 1418.660156 1577.726562 1419.738281 1582.804688 C 1421.558594 1590.78125 1421.191406 1591.144531 1417.570312 1585.34375 C 1415.390625 1581.71875 1412.488281 1563.953125 1411.769531 1545.464844 C 1408.871094 1490.714844 1413.941406 1495.792969 1359.921875 1495.792969 C 1303.359375 1495.792969 1301.550781 1496.878906 1308.078125 1528.0625 C 1313.519531 1553.4375 1313.878906 1593.683594 1308.800781 1593.683594 C 1306.988281 1593.683594 1305.179688 1592.59375 1305.179688 1590.78125 C 1305.179688 1589.328125 1302.640625 1566.488281 1299.738281 1539.664062 C 1296.839844 1512.832031 1295.390625 1489.628906 1297.199219 1487.816406 C 1298.648438 1486.367188 1316.058594 1484.554688 1335.988281 1483.828125 C 1355.929688 1483.46875 1379.859375 1482.378906 1389.289062 1482.015625 C 1400.53125 1481.65625 1408.140625 1483.105469 1411.769531 1487.09375 Z M 630.472656 1488.179688 C 634.824219 1491.078125 634.824219 1499.417969 629.386719 1545.464844 C 625.761719 1574.828125 622.496094 1599.84375 621.769531 1600.570312 C 621.046875 1600.929688 619.234375 1595.492188 617.785156 1587.882812 C 615.246094 1574.828125 619.597656 1536.398438 625.035156 1519.359375 C 630.109375 1504.132812 621.046875 1500.507812 574.640625 1497.96875 C 550.351562 1496.878906 528.957031 1497.605469 525.695312 1499.417969 C 522.070312 1501.59375 520.621094 1508.117188 520.984375 1520.082031 C 521.347656 1529.511719 519.535156 1551.265625 516.632812 1568.304688 L 511.554688 1599.121094 L 512.644531 1546.550781 C 513.007812 1517.546875 514.457031 1491.804688 516.269531 1489.269531 C 519.535156 1484.191406 622.132812 1483.105469 630.472656 1488.179688 Z M 95.714844 1697.734375 C 98.25 1823.175781 98.613281 1828.25 106.953125 1846.378906 C 118.554688 1871.757812 141.757812 1896.046875 165.6875 1907.285156 C 182 1915.261719 184.539062 1917.800781 180.910156 1922.152344 C 177.648438 1926.136719 177.648438 1928.316406 181.273438 1932.664062 C 188.890625 1941.730469 184.175781 1941.730469 161.699219 1932.664062 C 122.539062 1916.714844 93.535156 1885.53125 80.125 1844.925781 C 72.875 1823.539062 72.511719 1814.113281 72.511719 1695.195312 L 72.511719 1568.304688 L 93.175781 1568.304688 Z M 1878 1685.769531 C 1878 1750.304688 1876.191406 1811.574219 1874.378906 1822.085938 C 1866.398438 1865.230469 1838.128906 1905.472656 1802.960938 1924.328125 C 1783.019531 1935.203125 1758.359375 1941.003906 1758.359375 1934.839844 C 1758.359375 1932.664062 1760.898438 1930.851562 1763.800781 1930.851562 C 1768.519531 1930.851562 1770.691406 1926.863281 1769.601562 1919.25 C 1769.601562 1918.164062 1777.941406 1912 1788.449219 1906.199219 C 1810.929688 1893.511719 1826.878906 1876.46875 1841.019531 1850.003906 L 1850.808594 1831.152344 L 1851.898438 1699.542969 L 1852.988281 1568.304688 L 1878 1568.304688 Z M 1586.148438 1946.804688 C 1570.558594 2006.984375 1519.808594 2049.40625 1458.539062 2053.390625 C 1435.328125 2054.84375 1432.070312 2054.480469 1434.238281 2049.40625 C 1435.328125 2046.144531 1442.21875 2042.515625 1449.46875 2041.429688 C 1495.519531 2034.542969 1527.78125 2015.6875 1549.171875 1984.144531 C 1572.011719 1950.429688 1573.460938 1936.652344 1573.460938 1760.09375 L 1573.460938 1605.285156 L 1581.800781 1599.84375 L 1589.78125 1594.769531 L 1590.859375 1759.730469 C 1591.589844 1899.3125 1590.859375 1928.316406 1586.148438 1946.804688 Z M 366.898438 1774.953125 L 367.988281 1939.917969 L 378.5 1962.757812 C 396.265625 2001.183594 435.78125 2032.003906 474.941406 2038.167969 C 505.753906 2042.878906 515.183594 2054.117188 488.351562 2054.117188 C 437.597656 2054.117188 382.851562 2017.5 359.648438 1967.832031 L 349.859375 1947.167969 L 348.769531 1772.054688 L 347.683594 1596.582031 L 356.75 1603.472656 L 365.8125 1609.996094 Z M 1248.980469 1619.785156 L 1244.269531 1631.75 L 964.742188 1632.835938 L 685.214844 1633.5625 L 681.230469 1623.773438 C 679.054688 1618.332031 675.429688 1612.53125 673.253906 1611.085938 C 670.714844 1609.632812 800.507812 1608.183594 961.480469 1608.183594 L 1254.058594 1608.183594 Z M 1437.871094 1639 C 1441.859375 1645.164062 1443.308594 1652.414062 1441.859375 1661.117188 C 1437.871094 1684.320312 1438.230469 1684.320312 1362.820312 1684.320312 C 1285.601562 1684.320312 1283.421875 1683.59375 1283.421875 1658.214844 C 1283.421875 1630.660156 1285.960938 1629.933594 1363.550781 1629.933594 L 1432.070312 1629.933594 Z M 1531.769531 1947.53125 C 1521.621094 1973.996094 1491.890625 1998.648438 1462.160156 2005.175781 L 1450.191406 2007.710938 L 1450.191406 1967.832031 C 1450.191406 1946.078125 1449.109375 1918.164062 1448.019531 1906.199219 L 1445.480469 1883.722656 L 1456 1881.546875 C 1481.378906 1876.46875 1487.539062 1863.78125 1486.808594 1817.375 C 1486.449219 1788.007812 1485 1778.945312 1479.199219 1769.515625 C 1471.21875 1756.464844 1470.140625 1738.703125 1474.121094 1681.417969 L 1476.660156 1648.425781 L 1500.589844 1642.625 C 1514 1639.363281 1527.058594 1635.375 1529.960938 1633.5625 C 1534.671875 1630.660156 1535.390625 1649.152344 1536.480469 1781.480469 C 1537.210938 1911.636719 1536.480469 1934.839844 1531.769531 1947.53125 Z M 435.421875 1643.714844 L 456.085938 1649.515625 L 458.261719 1674.894531 C 465.511719 1759.003906 465.511719 1760.09375 457.175781 1771.695312 C 450.285156 1781.117188 449.199219 1786.917969 449.199219 1822.085938 C 449.199219 1843.839844 451.011719 1864.867188 453.183594 1868.855469 C 455 1872.84375 462.613281 1877.921875 469.5 1880.457031 L 481.828125 1885.167969 L 482.914062 1944.265625 C 483.640625 1986.324219 482.914062 2003.363281 480.015625 2003.363281 C 472.402344 2003.363281 448.109375 1991.761719 436.144531 1983.058594 C 429.621094 1977.980469 419.832031 1966.378906 414.394531 1956.957031 L 404.242188 1939.917969 L 402.429688 1786.554688 C 400.617188 1634.289062 400.617188 1633.199219 407.867188 1635.375 C 411.855469 1636.824219 424.179688 1640.449219 435.421875 1643.714844 Z M 642.800781 1640.449219 C 649.324219 1646.613281 650.050781 1669.816406 643.886719 1678.882812 L 638.085938 1687.941406 L 571.742188 1687.941406 C 523.882812 1687.941406 503.582031 1686.496094 499.589844 1683.230469 C 492.34375 1677.429688 489.804688 1665.828125 492.703125 1650.964844 L 495.242188 1639 L 560.140625 1637.1875 C 625.398438 1635.375 637.363281 1635.734375 642.800781 1640.449219 Z M 1255.871094 1699.183594 C 1259.859375 1739.425781 1258.410156 1759.367188 1250.789062 1772.054688 C 1244.988281 1781.84375 1243.539062 1790.546875 1243.539062 1819.550781 C 1243.539062 1866.320312 1249.339844 1877.195312 1276.539062 1881.910156 L 1289.589844 1884.082031 L 1291.761719 1919.25 C 1293.210938 1938.464844 1294.300781 1966.378906 1294.300781 1980.523438 L 1294.300781 2006.984375 L 642.800781 2006.984375 L 640.625 1982.335938 C 639.171875 1968.921875 638.085938 1942.089844 638.085938 1922.515625 L 638.085938 1887.347656 L 648.964844 1887.347656 C 662.738281 1887.347656 679.777344 1879.007812 683.40625 1870.308594 C 684.855469 1866.679688 687.03125 1847.828125 687.757812 1828.613281 C 689.570312 1796.710938 689.207031 1792.355469 681.59375 1779.667969 C 673.976562 1766.980469 673.613281 1762.992188 675.792969 1727.101562 C 676.878906 1705.707031 679.054688 1685.769531 680.140625 1682.503906 C 681.957031 1677.792969 713.859375 1677.066406 968.007812 1677.066406 L 1253.328125 1677.066406 Z M 1440.769531 1795.257812 C 1444.390625 1798.882812 1446.570312 1807.222656 1446.570312 1818.460938 C 1446.570312 1849.277344 1451.640625 1847.464844 1365 1847.464844 C 1278.351562 1847.464844 1283.421875 1849.277344 1283.421875 1818.460938 C 1283.421875 1789.820312 1284.148438 1789.457031 1365 1789.457031 C 1424.089844 1789.457031 1436.058594 1790.546875 1440.769531 1795.257812 Z M 641.710938 1800.335938 C 648.964844 1807.585938 651.136719 1826.074219 646.789062 1842.753906 C 644.609375 1851.089844 644.25 1851.089844 569.199219 1851.089844 C 485.816406 1851.089844 493.429688 1853.265625 487.628906 1827.886719 C 484.730469 1814.113281 491.617188 1797.433594 501.40625 1795.621094 C 505.753906 1794.898438 537.660156 1793.808594 572.101562 1793.445312 C 630.109375 1793.082031 634.824219 1793.445312 641.710938 1800.335938 Z M 1424.460938 1957.679688 C 1424.460938 1983.421875 1424.089844 2003.726562 1423.371094 2003 C 1422.28125 2002.273438 1419.738281 1987.046875 1417.570312 1969.28125 C 1412.859375 1935.203125 1416.109375 1877.921875 1421.558594 1900.035156 C 1422.640625 1905.835938 1424.089844 1931.9375 1424.460938 1957.679688 Z M 615.96875 1970.734375 C 615.96875 2003.363281 614.882812 2010.613281 611.984375 2003.363281 C 606.90625 1991.761719 603.644531 1923.601562 607.269531 1910.1875 C 610.167969 1900.035156 610.167969 1900.035156 613.070312 1914.535156 C 614.519531 1922.515625 615.96875 1947.890625 615.96875 1970.734375 Z M 1322.578125 1936.289062 C 1326.570312 1967.832031 1324.03125 2014.601562 1319.320312 1994.296875 C 1316.78125 1983.058594 1314.960938 1903.296875 1317.5 1905.835938 C 1318.230469 1906.5625 1320.398438 1920.335938 1322.578125 1936.289062 Z M 515.546875 1993.9375 C 511.917969 2020.402344 507.933594 1997.199219 508.292969 1950.792969 L 508.292969 1907.285156 L 513.007812 1943.175781 C 515.546875 1963.121094 516.632812 1985.960938 515.546875 1993.9375 Z M 1300.820312 2044.332031 C 1303 2046.144531 1305.179688 2049.769531 1305.179688 2052.667969 C 1305.179688 2057.019531 1260.21875 2057.746094 975.253906 2057.746094 C 649.324219 2057.746094 645.335938 2057.746094 645.335938 2050.492188 C 645.335938 2043.96875 648.238281 2043.242188 689.929688 2042.515625 C 789.992188 2039.980469 1296.480469 2041.789062 1300.820312 2044.332031 Z M 1300.820312 2044.332031 "/>
    <path fill-rule="nonzero" fill="rgb(0%, 0%, 0%)" fill-opacity="1"
          d="M 368.351562 393.28125 C 360.371094 401.980469 363.636719 414.671875 374.515625 417.210938 C 378.863281 418.300781 650.773438 418.660156 978.519531 418.300781 C 1574.191406 417.210938 1574.550781 417.210938 1579.261719 409.960938 C 1583.609375 403.429688 1583.25 401.261719 1578.539062 394.371094 L 1573.101562 386.390625 L 973.808594 386.390625 C 386.476562 386.390625 374.515625 386.390625 368.351562 393.28125 Z M 368.351562 393.28125 "/>
    <path fill-rule="nonzero" fill="rgb(0%, 0%, 0%)" fill-opacity="1"
          d="M 360.371094 478.480469 C 359.285156 481.378906 358.925781 486.820312 359.648438 490.441406 C 360.734375 496.609375 385.390625 496.96875 969.816406 496.96875 L 1578.898438 496.96875 L 1578.898438 475.21875 L 970.542969 474.128906 C 443.035156 473.410156 362.1875 474.128906 360.371094 478.480469 Z M 360.371094 478.480469 "/>
    <path fill-rule="nonzero" fill="rgb(0%, 0%, 0%)" fill-opacity="1"
          d="M 519.171875 602.839844 C 489.078125 617.699219 488.714844 666.640625 518.808594 682.230469 C 539.109375 692.75 568.476562 684.769531 577.902344 665.921875 C 590.957031 640.539062 581.527344 612.261719 556.152344 601.75 C 540.558594 595.21875 534.035156 595.589844 519.171875 602.839844 Z M 558.324219 625.679688 C 562.3125 629.660156 565.578125 635.101562 565.578125 638 C 565.578125 657.578125 544.910156 673.890625 529.683594 665.921875 C 505.753906 652.871094 513.371094 618.429688 540.195312 618.429688 C 546.359375 618.429688 554.339844 621.691406 558.324219 625.679688 Z M 558.324219 625.679688 "/>
    <path fill-rule="nonzero" fill="rgb(0%, 0%, 0%)" fill-opacity="1"
          d="M 704.070312 643.800781 C 673.613281 645.25 647.875 647.429688 646.789062 648.160156 C 632.648438 662.660156 1389.648438 666.28125 1509.648438 652.5 C 1530.320312 649.960938 1531.039062 649.601562 1520.890625 646.339844 C 1507.480469 641.988281 784.191406 639.820312 704.070312 643.800781 Z M 704.070312 643.800781 "/>
    <path fill-rule="nonzero" fill="rgb(0%, 0%, 0%)" fill-opacity="1"
          d="M 1823.621094 1198.140625 C 1814.558594 1215.542969 1822.171875 1260.136719 1834.5 1260.136719 C 1842.839844 1260.136719 1845.371094 1253.246094 1845.371094 1229.320312 C 1845.371094 1197.777344 1833.050781 1180.738281 1823.621094 1198.140625 Z M 1823.621094 1198.140625 "/>
    <path fill-rule="nonzero" fill="rgb(0%, 0%, 0%)" fill-opacity="1"
          d="M 108.402344 1197.054688 C 105.863281 1200.316406 102.964844 1211.917969 102.238281 1223.15625 C 101.152344 1239.835938 102.238281 1245.636719 107.679688 1252.523438 C 116.378906 1263.398438 121.816406 1260.5 126.894531 1242.734375 C 131.96875 1223.519531 131.242188 1208.65625 124.71875 1199.230469 C 118.191406 1189.800781 114.929688 1189.4375 108.402344 1197.054688 Z M 108.402344 1197.054688 "/>
    <path fill-rule="nonzero" fill="rgb(0%, 0%, 0%)" fill-opacity="1"
          d="M 539.472656 1320.320312 C 520.257812 1330.472656 513.007812 1358.386719 523.882812 1379.777344 C 535.484375 1402.257812 570.652344 1408.78125 590.59375 1392.101562 C 621.769531 1366 604.367188 1314.15625 564.488281 1314.519531 C 556.152344 1314.882812 544.910156 1317.054688 539.472656 1320.320312 Z M 578.992188 1340.621094 C 590.230469 1351.136719 589.867188 1366.363281 577.902344 1375.789062 C 565.941406 1385.214844 557.960938 1385.214844 548.175781 1376.878906 C 535.484375 1366.363281 534.394531 1352.585938 545.273438 1342.074219 C 556.511719 1330.472656 567.753906 1330.109375 578.992188 1340.621094 Z M 578.992188 1340.621094 "/>
    <path fill-rule="nonzero" fill="rgb(0%, 0%, 0%)" fill-opacity="1"
          d="M 777.667969 1361.652344 C 735.976562 1363.097656 692.46875 1364.550781 681.59375 1364.914062 C 668.175781 1365.277344 663.464844 1366.363281 667.089844 1368.539062 C 674.703125 1372.890625 935.738281 1379.777344 1093.808594 1379.777344 C 1239.921875 1379.777344 1464.339844 1373.976562 1491.890625 1369.988281 L 1510.019531 1367.089844 L 1482.820312 1364.550781 C 1443.308594 1360.925781 867.21875 1358.386719 777.667969 1361.652344 Z M 777.667969 1361.652344 "/>
    <path fill-rule="nonzero" fill="rgb(0%, 0%, 0%)" fill-opacity="1"
          d="M 869.03125 1764.804688 C 848.363281 1797.433594 813.558594 1855.441406 805.585938 1871.394531 C 799.421875 1883.359375 795.429688 1886.984375 785.644531 1888.796875 C 769.328125 1891.695312 757.726562 1905.113281 755.1875 1922.515625 C 753.738281 1934.117188 755.1875 1938.828125 763.167969 1948.253906 C 771.140625 1958.042969 775.492188 1959.855469 788.542969 1959.855469 C 801.59375 1959.855469 805.945312 1958.042969 813.558594 1948.617188 C 822.988281 1937.375 825.886719 1919.25 819.722656 1909.460938 C 817.546875 1906.199219 823.347656 1890.609375 836.398438 1862.691406 C 861.054688 1810.847656 885.707031 1749.578125 883.53125 1747.039062 C 882.441406 1746.3125 875.917969 1753.929688 869.03125 1764.804688 Z M 799.421875 1925.414062 C 799.421875 1934.476562 797.972656 1936.289062 790.71875 1936.289062 C 780.570312 1936.289062 773.679688 1927.226562 776.941406 1918.527344 C 778.753906 1914.171875 782.742188 1912.726562 789.269531 1913.449219 C 797.972656 1914.535156 799.421875 1916.351562 799.421875 1925.414062 Z M 799.421875 1925.414062 "/>
</svg>
