<?xml version="1.0" encoding="UTF-8"?>
<svg xmlns="http://www.w3.org/2000/svg" xmlns:xlink="http://www.w3.org/1999/xlink" width="2000" height="2000"
     viewBox="0 0 2000 2000">
    <path fill-rule="evenodd" fill="rgb(95.701599%, 96.875%, 98.046875%)" fill-opacity="1"
          d="M 0 0.078125 L 1999.921875 0.078125 L 1999.921875 2000 L 0 2000 L 0 0.078125 "/>
    <path fill-rule="evenodd" fill="rgb(95.701599%, 96.875%, 98.046875%)" fill-opacity="1"
          d="M 1908.238281 1915.15625 L 1889.179688 1915.15625 C 1888.300781 1915.15625 1887.589844 1915.871094 1887.589844 1916.746094 L 1887.589844 1935.800781 C 1887.589844 1936.679688 1888.300781 1937.394531 1889.179688 1937.394531 L 1908.238281 1937.394531 C 1909.109375 1937.394531 1909.828125 1936.679688 1909.828125 1935.800781 L 1909.828125 1916.746094 C 1909.828125 1915.871094 1909.109375 1915.15625 1908.238281 1915.15625 "/>
    <path fill-rule="evenodd" fill="rgb(95.701599%, 96.875%, 98.046875%)" fill-opacity="1"
          d="M 1865.28125 1916.171875 L 1847.089844 1916.171875 C 1846.261719 1916.171875 1845.578125 1916.855469 1845.578125 1917.691406 L 1845.578125 1935.875 C 1845.578125 1936.710938 1846.261719 1937.394531 1847.089844 1937.394531 L 1865.28125 1937.394531 C 1866.109375 1937.394531 1866.800781 1936.710938 1866.800781 1935.875 L 1866.800781 1917.691406 C 1866.800781 1916.855469 1866.109375 1916.171875 1865.28125 1916.171875 "/>
    <path fill-rule="evenodd" fill="rgb(95.701599%, 96.875%, 98.046875%)" fill-opacity="1"
          d="M 1822.320312 1917.1875 L 1805.011719 1917.1875 C 1804.210938 1917.1875 1803.558594 1917.839844 1803.558594 1918.636719 L 1803.558594 1935.949219 C 1803.558594 1936.742188 1804.210938 1937.394531 1805.011719 1937.394531 L 1822.320312 1937.394531 C 1823.121094 1937.394531 1823.769531 1936.742188 1823.769531 1935.949219 L 1823.769531 1918.636719 C 1823.769531 1917.839844 1823.121094 1917.1875 1822.320312 1917.1875 "/>
    <path fill-rule="evenodd" fill="rgb(95.701599%, 96.875%, 98.046875%)" fill-opacity="1"
          d="M 1779.371094 1918.207031 L 1762.929688 1918.207031 C 1762.171875 1918.207031 1761.550781 1918.824219 1761.550781 1919.582031 L 1761.550781 1936.019531 C 1761.550781 1936.777344 1762.171875 1937.394531 1762.929688 1937.394531 L 1779.371094 1937.394531 C 1780.121094 1937.394531 1780.738281 1936.777344 1780.738281 1936.019531 L 1780.738281 1919.582031 C 1780.738281 1918.824219 1780.121094 1918.207031 1779.371094 1918.207031 "/>
    <path fill-rule="evenodd" fill="rgb(95.701599%, 96.875%, 98.046875%)" fill-opacity="1"
          d="M 1736.410156 1919.222656 L 1720.839844 1919.222656 C 1720.128906 1919.222656 1719.539062 1919.808594 1719.539062 1920.523438 L 1719.539062 1936.09375 C 1719.539062 1936.808594 1720.128906 1937.394531 1720.839844 1937.394531 L 1736.410156 1937.394531 C 1737.128906 1937.394531 1737.710938 1936.808594 1737.710938 1936.09375 L 1737.710938 1920.523438 C 1737.710938 1919.808594 1737.128906 1919.222656 1736.410156 1919.222656 "/>
    <path fill-rule="evenodd" fill="rgb(95.701599%, 96.875%, 98.046875%)" fill-opacity="1"
          d="M 1693.460938 1920.238281 L 1678.761719 1920.238281 C 1678.078125 1920.238281 1677.53125 1920.792969 1677.53125 1921.46875 L 1677.53125 1936.167969 C 1677.53125 1936.84375 1678.078125 1937.394531 1678.761719 1937.394531 L 1693.460938 1937.394531 C 1694.128906 1937.394531 1694.679688 1936.84375 1694.679688 1936.167969 L 1694.679688 1921.46875 C 1694.679688 1920.792969 1694.128906 1920.238281 1693.460938 1920.238281 "/>
    <path fill-rule="evenodd" fill="rgb(95.701599%, 96.875%, 98.046875%)" fill-opacity="1"
          d="M 1650.5 1921.257812 L 1636.671875 1921.257812 C 1636.039062 1921.257812 1635.519531 1921.777344 1635.519531 1922.414062 L 1635.519531 1936.238281 C 1635.519531 1936.875 1636.039062 1937.394531 1636.671875 1937.394531 L 1650.5 1937.394531 C 1651.140625 1937.394531 1651.648438 1936.875 1651.648438 1936.238281 L 1651.648438 1922.414062 C 1651.648438 1921.777344 1651.140625 1921.257812 1650.5 1921.257812 "/>
    <path fill-rule="evenodd" fill="rgb(95.701599%, 96.875%, 98.046875%)" fill-opacity="1"
          d="M 1607.539062 1922.273438 L 1594.589844 1922.273438 C 1593.988281 1922.273438 1593.511719 1922.761719 1593.511719 1923.355469 L 1593.511719 1936.3125 C 1593.511719 1936.90625 1593.988281 1937.394531 1594.589844 1937.394531 L 1607.539062 1937.394531 C 1608.140625 1937.394531 1608.628906 1936.90625 1608.628906 1936.3125 L 1608.628906 1923.355469 C 1608.628906 1922.761719 1608.140625 1922.273438 1607.539062 1922.273438 "/>
    <path fill-rule="evenodd" fill="rgb(95.701599%, 96.875%, 98.046875%)" fill-opacity="1"
          d="M 1564.589844 1923.292969 L 1552.5 1923.292969 C 1551.949219 1923.292969 1551.488281 1923.746094 1551.488281 1924.300781 L 1551.488281 1936.386719 C 1551.488281 1936.941406 1551.949219 1937.394531 1552.5 1937.394531 L 1564.589844 1937.394531 C 1565.140625 1937.394531 1565.601562 1936.941406 1565.601562 1936.386719 L 1565.601562 1924.300781 C 1565.601562 1923.746094 1565.140625 1923.292969 1564.589844 1923.292969 "/>
    <path fill-rule="nonzero" fill="rgb(24.31488%, 27.050781%, 30.589294%)" fill-opacity="1"
          d="M 612.628906 295.320312 L 731.863281 295.320312 C 747.75 295.320312 760.628906 308.199219 760.628906 324.089844 L 760.628906 425.480469 C 760.628906 441.371094 747.75 454.238281 731.863281 454.238281 L 612.628906 454.238281 C 596.742188 454.238281 583.863281 441.371094 583.863281 425.480469 L 583.863281 324.089844 C 583.863281 308.199219 596.742188 295.320312 612.628906 295.320312 "/>
    <path fill-rule="nonzero" fill="rgb(24.31488%, 27.050781%, 30.589294%)" fill-opacity="1"
          d="M 505.8125 396.710938 L 838.675781 396.710938 C 858.976562 396.710938 877.410156 405 890.757812 418.339844 C 904.101562 431.691406 912.386719 450.121094 912.386719 470.421875 L 912.386719 1675.992188 C 912.386719 1691.878906 899.507812 1704.757812 883.621094 1704.757812 L 460.871094 1704.757812 C 444.984375 1704.757812 432.105469 1691.878906 432.105469 1675.992188 L 432.105469 470.421875 C 432.105469 450.121094 440.386719 431.691406 453.734375 418.339844 C 467.078125 405 485.515625 396.710938 505.8125 396.710938 Z M 626.363281 1540.066406 C 610.480469 1540.066406 597.601562 1552.945312 597.601562 1568.832031 C 597.601562 1584.71875 610.480469 1597.597656 626.363281 1597.597656 L 718.125 1597.597656 C 734.011719 1597.597656 746.890625 1584.71875 746.890625 1568.832031 C 746.890625 1552.945312 734.011719 1540.066406 718.125 1540.066406 Z M 643.480469 640.488281 C 643.480469 656.378906 656.359375 669.25 672.246094 669.25 C 688.132812 669.25 701.011719 656.378906 701.011719 640.488281 L 701.011719 623.371094 L 718.125 623.371094 C 734.011719 623.371094 746.890625 610.5 746.890625 594.609375 C 746.890625 578.71875 734.011719 565.851562 718.125 565.851562 L 701.011719 565.851562 L 701.011719 548.730469 C 701.011719 532.839844 688.132812 519.960938 672.246094 519.960938 C 656.359375 519.960938 643.480469 532.839844 643.480469 548.730469 L 643.480469 565.851562 L 626.363281 565.851562 C 610.480469 565.851562 597.601562 578.71875 597.601562 594.609375 C 597.601562 610.5 610.480469 623.371094 626.363281 623.371094 L 643.480469 623.371094 L 643.480469 640.488281 "/>
    <path fill-rule="nonzero" fill="rgb(24.31488%, 27.050781%, 30.589294%)" fill-opacity="1"
          d="M 1161.238281 1603.367188 L 1239.289062 1603.367188 L 1239.289062 1675.992188 C 1239.289062 1691.878906 1252.171875 1704.757812 1268.058594 1704.757812 L 1387.289062 1704.757812 C 1403.179688 1704.757812 1416.058594 1691.878906 1416.058594 1675.992188 L 1416.058594 1603.367188 L 1494.109375 1603.367188 C 1514.410156 1603.367188 1532.839844 1595.082031 1546.191406 1581.734375 C 1559.53125 1568.390625 1567.808594 1549.957031 1567.808594 1529.65625 L 1567.808594 324.089844 C 1567.808594 308.199219 1554.941406 295.320312 1539.050781 295.320312 L 1116.300781 295.320312 C 1100.410156 295.320312 1087.53125 308.199219 1087.53125 324.089844 L 1087.53125 1529.65625 C 1087.53125 1549.957031 1095.820312 1568.390625 1109.160156 1581.734375 C 1122.511719 1595.082031 1140.941406 1603.367188 1161.238281 1603.367188 Z M 1298.910156 1359.589844 C 1298.910156 1343.703125 1311.789062 1330.824219 1327.671875 1330.824219 C 1343.558594 1330.824219 1356.441406 1343.703125 1356.441406 1359.589844 L 1356.441406 1376.703125 L 1373.558594 1376.703125 C 1389.441406 1376.703125 1402.320312 1389.585938 1402.320312 1405.46875 C 1402.320312 1421.355469 1389.441406 1434.234375 1373.558594 1434.234375 L 1356.441406 1434.234375 L 1356.441406 1451.351562 C 1356.441406 1467.238281 1343.558594 1480.117188 1327.671875 1480.117188 C 1311.789062 1480.117188 1298.910156 1467.238281 1298.910156 1451.351562 L 1298.910156 1434.234375 L 1281.789062 1434.234375 C 1265.910156 1434.234375 1253.03125 1421.355469 1253.03125 1405.46875 C 1253.03125 1389.585938 1265.910156 1376.703125 1281.789062 1376.703125 L 1298.910156 1376.703125 Z M 1281.789062 460.011719 C 1265.910156 460.011719 1253.03125 447.128906 1253.03125 431.25 C 1253.03125 415.359375 1265.910156 402.480469 1281.789062 402.480469 L 1373.558594 402.480469 C 1389.441406 402.480469 1402.320312 415.359375 1402.320312 431.25 C 1402.320312 447.128906 1389.441406 460.011719 1373.558594 460.011719 L 1281.789062 460.011719 "/>
</svg>
