<?xml version="1.0" encoding="UTF-8"?>
<svg xmlns="http://www.w3.org/2000/svg" xmlns:xlink="http://www.w3.org/1999/xlink" width="2788" height="3001"
     viewBox="0 0 2788 3001">
    <path fill-rule="nonzero" fill="rgb(13.719177%, 12.156677%, 12.547302%)" fill-opacity="1"
          d="M 1031.238281 97.929688 L 1060.328125 47.558594 C 1086.609375 2.03125 1144.660156 -13.460938 1190.03125 12.738281 L 1286.320312 68.328125 C 1331.449219 94.390625 1347.109375 152.371094 1321.269531 197.421875 L 1291.75 248.558594 C 1285.539062 243.511719 1278.941406 238.800781 1271.96875 234.488281 L 1271.230469 234.039062 L 1057.171875 110.328125 C 1048.730469 105.449219 1040.058594 101.328125 1031.238281 97.929688 Z M 988.734375 773.398438 L 683.679688 1301.761719 L 557.113281 919.050781 L 728.179688 622.730469 C 734.402344 627.800781 741.011719 632.53125 748.007812 636.851562 L 748.746094 637.300781 L 962.796875 761.011719 C 971.238281 765.890625 979.910156 770 988.734375 773.398438 Z M 508.316406 1605.511719 C 395.484375 1800.96875 309.589844 1949.789062 309.617188 1949.808594 C 288.898438 1985.691406 255.429688 2009.828125 218.203125 2019.804688 C 88.84375 2054.453125 -17.6875 1914.738281 48.945312 1799.320312 L 381.460938 1223.320312 L 508.316406 1605.511719 "/>
    <path fill-rule="nonzero" fill="rgb(63.084412%, 11.767578%, 18.821716%)" fill-opacity="1"
          d="M 1027.859375 161.058594 L 1241.160156 284.328125 C 1299.691406 320.5 1318.449219 394.921875 1284.601562 453.539062 L 1161.328125 666.851562 C 1125.160156 725.371094 1050.738281 744.128906 992.109375 710.28125 L 778.808594 587.011719 C 720.289062 550.839844 701.527344 476.421875 735.378906 417.789062 L 858.648438 204.488281 C 894.820312 145.960938 969.246094 127.210938 1027.859375 161.058594 "/>
    <path fill-rule="nonzero" fill="rgb(63.084412%, 11.767578%, 18.821716%)" fill-opacity="1"
          d="M 676.011719 405.371094 C 499.714844 264.820312 32.65625 209.191406 31.140625 209 L 31.152344 208.898438 C -2.667969 204.878906 -11.429688 159.351562 18.777344 143.21875 C 305.492188 -10 661.726562 95.628906 820.285156 157.179688 C 816.210938 162.429688 812.367188 167.921875 808.804688 173.691406 L 808.355469 174.421875 L 684.648438 388.480469 C 681.445312 394.019531 678.570312 399.648438 676.011719 405.371094 "/>
    <path fill-rule="nonzero" fill="rgb(63.084412%, 11.767578%, 18.821716%)" fill-opacity="1"
          d="M 1346.199219 460.738281 C 1478.839844 567.359375 1748.210938 823.019531 1758.871094 1147.941406 C 1759.960938 1181.839844 1716.140625 1197.960938 1695.191406 1169.191406 C 1680.851562 1150.148438 1407.820312 789.929688 1203.050781 709.710938 C 1205.890625 705.820312 1208.601562 701.800781 1211.171875 697.648438 L 1211.621094 696.910156 L 1335.328125 482.851562 C 1339.5 475.628906 1343.109375 468.238281 1346.199219 460.738281 "/>
    <path fill-rule="nonzero" fill="rgb(13.719177%, 12.156677%, 12.547302%)" fill-opacity="1"
          d="M 859.796875 2315.570312 L 866.085938 2314.308594 L 943.015625 2091.769531 C 946.46875 2079.257812 956.761719 2069.152344 970.371094 2066.605469 L 1282 2008.175781 L 1306.109375 1799.140625 L 1306.199219 1799.160156 C 1307.589844 1786.949219 1380.550781 1672.871094 1451.441406 1563.390625 L 1742.101562 1891.230469 L 1742.179688 1891.171875 C 1748.621094 1898.398438 1758.019531 1902.949219 1768.46875 1902.910156 L 1926.789062 1902.058594 L 1672.011719 2143.835938 C 1662.890625 2152.511719 1659.46875 2164.933594 1661.859375 2176.414062 L 1721.910156 2563.992188 C 1683.859375 2566.375 1648.53125 2561.742188 1635.328125 2585.738281 L 1407.941406 3000 L 896.300781 3000 L 1045.648438 2533.488281 C 1050.390625 2521.0625 1047.828125 2506.46875 1037.898438 2496.371094 Z M 2029.269531 1901.519531 L 2330.539062 1899.910156 C 2336.761719 1900.019531 2343.101562 1898.460938 2348.859375 1895.101562 L 2787.691406 1638.839844 L 2787.691406 2315.128906 L 2343.269531 2317.667969 L 2343.269531 2317.75 C 2320.519531 2317.75 2084.429688 2445.371094 2038.269531 2464.632812 L 1790.578125 2549.769531 L 1733.609375 2182.070312 Z M 2267.96875 784.410156 L 2752.539062 666.429688 C 2771.949219 666.429688 2787.691406 682.171875 2787.691406 701.589844 L 2787.691406 1014.140625 L 2562.191406 1196.269531 L 2391.710938 1136.101562 L 2267.96875 784.410156 "/>
    <path fill-rule="evenodd" fill="rgb(63.084412%, 11.767578%, 18.821716%)" fill-opacity="1"
          d="M 2118.539062 834.929688 Z M 422.039062 2423.671875 L 270.480469 2929.6875 L 37.816406 2929.6875 C -8.46875 2929.6875 -8.46875 3000 37.816406 3000 L 822.789062 3000 L 973.128906 2530.46875 L 777.59375 2332.007812 L 449.289062 2397.667969 C 435.511719 2400.410156 425.226562 2410.882812 422.039062 2423.671875 Z M 1687.578125 2636.4375 L 1488.019531 3000 L 2752.539062 3000 C 2771.949219 3000 2787.691406 2984.257812 2787.691406 2964.84375 L 2787.691406 2385.445312 L 2351.289062 2387.980469 L 2062.730469 2530.523438 L 1773.800781 2629.84375 C 1769.339844 2631.371094 1765.109375 2632.035156 1761.128906 2632.015625 C 1738.5 2636.402344 1709.621094 2635.039062 1687.578125 2636.4375 Z M 1491.078125 1502.269531 L 1784.078125 1832.789062 L 2008.929688 1831.578125 C 2012.589844 1830.910156 2016.238281 1830.941406 2019.761719 1831.53125 L 2321.539062 1829.910156 L 2787.691406 1557.710938 L 2787.691406 1104.261719 L 2592 1262.28125 C 2582.78125 1270.320312 2569.589844 1273.308594 2557.230469 1268.949219 L 2352.558594 1196.710938 C 2342.898438 1193.289062 2334.808594 1185.710938 2331.140625 1175.289062 L 2199.449219 801.089844 L 2142.359375 815 C 2131.320312 817.660156 2122.78125 825.289062 2118.46875 834.910156 L 1895.910156 1324.078125 L 1609.539062 1343.738281 C 1597.089844 1344.570312 1586.589844 1351.789062 1581.03125 1362 C 1569.75 1381.101562 1533.609375 1436.761719 1491.078125 1502.269531 "/>
    <path fill-rule="evenodd" fill="rgb(63.084412%, 11.767578%, 18.821716%)" fill-opacity="1"
          d="M 428.292969 1142.199219 L 555.148438 1524.378906 L 636.800781 1382.960938 L 510.234375 1000.25 L 428.292969 1142.199219 "/>
</svg>
