<?xml version="1.0" encoding="UTF-8"?>
<svg xmlns="http://www.w3.org/2000/svg" xmlns:xlink="http://www.w3.org/1999/xlink" width="2000" height="2000"
     viewBox="0 0 2000 2000">
    <rect x="-200" y="-200" width="2400" height="2400" fill="rgb(100%, 100%, 100%)" fill-opacity="1"/>
    <path fill-rule="nonzero" fill="rgb(13.330078%, 13.330078%, 13.330078%)" fill-opacity="1"
          d="M 1481.46875 1127.492188 C 1480.011719 1125.546875 1478.519531 1123.628906 1477.011719 1121.777344 C 1478.859375 1123.902344 1480.328125 1125.800781 1481.46875 1127.492188 "/>
    <path fill-rule="nonzero" fill="rgb(13.330078%, 13.330078%, 13.330078%)" fill-opacity="1"
          d="M 526.917969 1111.734375 C 526.871094 1111.804688 526.828125 1111.894531 526.78125 1111.988281 L 526.757812 1111.988281 Z M 526.917969 1111.734375 "/>
    <path fill-rule="nonzero" fill="rgb(13.330078%, 13.330078%, 13.330078%)" fill-opacity="1"
          d="M 417.1875 1154.320312 C 416.890625 1155.097656 416.570312 1155.898438 416.273438 1156.695312 C 416.273438 1156.078125 416.457031 1155.507812 416.800781 1155.003906 C 416.960938 1154.777344 417.097656 1154.546875 417.1875 1154.320312 "/>
    <path fill-rule="nonzero" fill="rgb(13.330078%, 13.330078%, 13.330078%)" fill-opacity="1"
          d="M 446.988281 1213.917969 C 438.914062 1212.132812 432.304688 1208.335938 427.136719 1202.480469 C 433.199219 1208.289062 440.425781 1212.269531 446.988281 1213.917969 "/>
    <path fill-rule="nonzero" fill="rgb(13.330078%, 13.330078%, 13.330078%)" fill-opacity="1"
          d="M 612.976562 1229.054688 C 612.769531 1229.035156 612.425781 1229.011719 611.96875 1228.964844 Z M 612.976562 1229.054688 "/>
    <path fill-rule="nonzero" fill="rgb(13.330078%, 13.330078%, 13.330078%)" fill-opacity="1"
          d="M 650.183594 1373.339844 C 650.136719 1373.386719 650.136719 1373.410156 650.136719 1373.410156 L 650.023438 1373.476562 C 650.09375 1373.433594 650.136719 1373.386719 650.183594 1373.339844 "/>
    <path fill-rule="nonzero" fill="rgb(13.330078%, 13.330078%, 13.330078%)" fill-opacity="1"
          d="M 1692.921875 1402.523438 C 1692.71875 1402.660156 1692.558594 1402.726562 1692.378906 1402.75 C 1691.28125 1403.621094 1690.160156 1404.445312 1688.878906 1405.039062 C 1688.851562 1405.085938 1688.828125 1405.105469 1688.789062 1405.128906 C 1576.128906 1474.035156 1437.429688 1457.84375 1343 1367.121094 C 1201.941406 1231.550781 1237.519531 1016.324219 1399.828125 918.171875 C 1400.628906 917.691406 1401.148438 917.890625 1401.359375 918.808594 L 1419.660156 994.410156 L 1419.679688 994.410156 L 1419.71875 994.621094 L 1419.71875 994.671875 L 1426.789062 1023.824219 C 1426.839844 1023.984375 1426.808594 1024.121094 1426.769531 1024.257812 C 1430.039062 1035.417969 1434.609375 1048.867188 1440.859375 1063.046875 C 1440.921875 1063.230469 1440.988281 1063.390625 1441.058594 1063.550781 C 1447.328125 1077.15625 1454.640625 1090.191406 1462.988281 1102.65625 C 1463.179688 1102.929688 1463.148438 1103.207031 1462.96875 1103.433594 C 1466.171875 1108.121094 1469.578125 1112.765625 1473.238281 1117.246094 C 1473.289062 1117.316406 1473.328125 1117.382812 1473.421875 1117.453125 C 1474.539062 1118.757812 1475.660156 1120.082031 1476.738281 1121.433594 C 1476.828125 1121.523438 1476.898438 1121.636719 1476.988281 1121.730469 C 1477.011719 1121.753906 1477.011719 1121.753906 1477.011719 1121.777344 C 1478.519531 1123.628906 1480.011719 1125.546875 1481.46875 1127.492188 C 1481.519531 1127.5625 1481.558594 1127.652344 1481.609375 1127.722656 C 1486.960938 1134.835938 1491.878906 1142.152344 1496.21875 1147.9375 L 1496.25 1147.960938 C 1496.109375 1148.257812 1495.988281 1148.53125 1495.898438 1148.832031 C 1495.648438 1149.425781 1495.441406 1150.042969 1495.238281 1150.660156 L 1494.960938 1151.484375 C 1493.589844 1155.828125 1492.859375 1160.449219 1492.859375 1165.25 C 1492.859375 1166.804688 1492.929688 1168.359375 1493.089844 1169.871094 C 1493.160156 1170.464844 1493.230469 1171.058594 1493.320312 1171.652344 C 1493.75 1174.925781 1494.558594 1178.058594 1495.671875 1181.054688 C 1495.929688 1181.761719 1496.199219 1182.472656 1496.5 1183.15625 C 1502.828125 1198.023438 1516.78125 1208.839844 1533.449219 1210.691406 C 1534.03125 1210.761719 1534.601562 1210.828125 1535.171875 1210.851562 C 1536.289062 1210.945312 1537.429688 1210.988281 1538.601562 1210.988281 C 1541.691406 1210.988281 1544.710938 1210.691406 1547.609375 1210.097656 C 1548.109375 1210.007812 1548.621094 1209.890625 1549.121094 1209.753906 C 1549.351562 1209.710938 1549.578125 1209.640625 1549.808594 1209.570312 C 1550.308594 1209.457031 1550.789062 1209.34375 1551.269531 1209.183594 C 1555.039062 1208.128906 1558.609375 1206.574219 1561.898438 1204.585938 C 1562.289062 1204.378906 1562.679688 1204.128906 1563.070312 1203.875 C 1563.339844 1203.71875 1563.601562 1203.535156 1563.871094 1203.351562 L 1563.871094 1203.375 C 1564.101562 1203.214844 1564.378906 1203.054688 1564.648438 1202.917969 C 1564.628906 1202.894531 1564.628906 1202.894531 1564.601562 1202.871094 C 1564.941406 1202.640625 1565.289062 1202.390625 1565.628906 1202.140625 C 1565.859375 1201.980469 1566.070312 1201.820312 1566.289062 1201.636719 C 1566.519531 1201.453125 1566.78125 1201.269531 1567 1201.085938 C 1567.191406 1200.949219 1567.371094 1200.789062 1567.558594 1200.652344 C 1570.589844 1198.183594 1573.320312 1195.300781 1575.601562 1192.097656 C 1575.789062 1191.847656 1575.988281 1191.597656 1576.171875 1191.320312 C 1576.5 1190.863281 1576.789062 1190.40625 1577.070312 1189.949219 C 1577.25 1189.675781 1577.410156 1189.402344 1577.570312 1189.125 C 1580.21875 1184.871094 1582.140625 1180.183594 1583.238281 1175.175781 C 1583.269531 1175.039062 1583.308594 1174.878906 1583.328125 1174.742188 C 1583.46875 1174.101562 1583.609375 1173.4375 1583.699219 1172.773438 L 1583.769531 1172.292969 C 1584.160156 1170.007812 1584.339844 1167.652344 1584.339844 1165.25 C 1584.339844 1163.511719 1584.230469 1161.773438 1584.039062 1160.082031 C 1584.039062 1160.011719 1584.019531 1159.945312 1584.019531 1159.875 C 1583.929688 1158.960938 1583.789062 1158.046875 1583.609375 1157.15625 C 1583.578125 1156.996094 1583.539062 1156.855469 1583.519531 1156.699219 C 1583.039062 1154.042969 1582.308594 1151.484375 1581.371094 1149.035156 C 1581.25 1148.761719 1581.160156 1148.488281 1581.050781 1148.210938 C 1580.820312 1147.617188 1580.589844 1147.046875 1580.308594 1146.472656 C 1580.199219 1146.222656 1580.089844 1145.972656 1579.96875 1145.71875 C 1578.53125 1142.65625 1576.75 1139.796875 1574.660156 1137.167969 C 1574.371094 1136.753906 1574.050781 1136.367188 1573.730469 1135.976562 C 1573.660156 1135.886719 1573.589844 1135.816406 1573.5 1135.726562 C 1573.199219 1135.359375 1572.878906 1134.972656 1572.558594 1134.605469 C 1571.28125 1133.164062 1569.878906 1131.835938 1568.421875 1130.601562 C 1568.011719 1130.238281 1567.558594 1129.871094 1567.121094 1129.527344 C 1566.910156 1129.367188 1566.730469 1129.207031 1566.519531 1129.046875 C 1566.089844 1128.703125 1565.660156 1128.382812 1565.191406 1128.066406 C 1563.320312 1126.714844 1561.328125 1125.503906 1559.25 1124.453125 C 1558.699219 1124.152344 1558.148438 1123.878906 1557.578125 1123.628906 C 1557.539062 1123.605469 1557.511719 1123.582031 1557.460938 1123.582031 C 1556.921875 1123.332031 1556.300781 1123.054688 1555.730469 1122.851562 C 1554.558594 1122.347656 1553.351562 1121.933594 1552.121094 1121.546875 C 1551.449219 1121.339844 1550.789062 1121.15625 1550.128906 1120.976562 C 1549.671875 1120.859375 1549.230469 1120.746094 1548.78125 1120.65625 C 1548.089844 1120.496094 1547.378906 1120.359375 1546.671875 1120.242188 C 1545.871094 1120.105469 1545.070312 1119.96875 1544.25 1119.875 L 1544.230469 1119.875 C 1544.179688 1119.808594 1544.089844 1119.714844 1544.019531 1119.625 C 1541.230469 1116.5625 1538.460938 1113.222656 1535.988281 1109.65625 C 1535.71875 1109.265625 1535.421875 1108.832031 1535.101562 1108.375 C 1534.691406 1107.757812 1534.28125 1107.136719 1533.890625 1106.542969 C 1529.058594 1099.25 1524.859375 1092.59375 1521.238281 1086.714844 C 1517.949219 1082.898438 1515.660156 1079.125 1514.398438 1075.351562 L 1514.398438 1075.328125 C 1509.488281 1066.980469 1506.558594 1061.535156 1505.710938 1059.914062 C 1505.53125 1059.59375 1505.441406 1059.410156 1505.441406 1059.410156 L 1505.390625 1059.320312 C 1488.929688 1030.800781 1472.371094 1004.113281 1463.199219 970.269531 C 1456.910156 947.050781 1450.78125 923.820312 1444.808594 900.601562 C 1444.558594 899.601562 1444.929688 898.929688 1445.910156 898.609375 C 1580.039062 854.25 1720.78125 909.960938 1789.160156 1031.921875 C 1862.480469 1162.644531 1815.78125 1322.683594 1692.921875 1402.523438 M 1350.859375 743.53125 C 1345.101562 748.769531 1339.449219 754.03125 1333.921875 759.320312 C 1208.929688 878.941406 1084.140625 998.78125 959.542969 1118.824219 C 958.878906 1119.441406 958.167969 1119.535156 957.367188 1119.097656 C 943.511719 1111.324219 928.554688 1107.4375 912.523438 1107.460938 C 911.308594 1107.460938 911.148438 1107.046875 912.019531 1106.203125 L 1337.320312 697.089844 C 1337.941406 696.488281 1338.949219 696.789062 1339.179688 697.609375 L 1351.371094 741.769531 C 1351.570312 742.460938 1351.390625 743.058594 1350.859375 743.53125 M 972.964844 1212.222656 L 940.8125 1212.773438 C 940.035156 1212.796875 939.394531 1212.132812 939.4375 1211.332031 C 939.714844 1206.09375 938.480469 1201.246094 935.734375 1196.789062 C 935.324219 1196.125 935.414062 1195.253906 935.984375 1194.707031 L 959.839844 1171.492188 C 960.410156 1170.921875 960.957031 1170.945312 961.460938 1171.609375 C 970.3125 1183.15625 974.542969 1196.285156 974.199219 1210.988281 C 974.179688 1211.789062 973.765625 1212.203125 972.964844 1212.222656 M 972.164062 1229.996094 C 967.867188 1241.773438 961.234375 1252.015625 952.269531 1260.730469 C 951.605469 1261.371094 951.035156 1261.300781 950.53125 1260.546875 L 933.972656 1235.070312 C 931.800781 1231.753906 934.246094 1227.363281 938.203125 1227.457031 L 970.976562 1228.234375 C 971.867188 1228.253906 972.484375 1229.148438 972.164062 1229.996094 M 931.25 1272.691406 C 920.433594 1275.597656 909.433594 1276.921875 898.226562 1276.714844 C 897.382812 1276.695312 897.0625 1276.28125 897.269531 1275.480469 C 898.433594 1270.496094 900.605469 1261.714844 903.832031 1249.160156 C 905.476562 1242.710938 915.195312 1244.8125 917.964844 1249.113281 C 922.746094 1256.546875 927.480469 1263.613281 932.121094 1270.359375 C 932.714844 1271.226562 932.257812 1272.417969 931.25 1272.691406 M 888.394531 1242.824219 L 876.707031 1270.496094 C 876.363281 1271.320312 875.769531 1271.546875 874.96875 1271.160156 C 857.953125 1262.996094 845.285156 1246.414062 840.207031 1228.78125 C 839.933594 1227.867188 840.277344 1227.410156 841.238281 1227.433594 L 873.4375 1227.914062 C 874.191406 1227.9375 874.902344 1228.347656 875.265625 1229.035156 C 878.214844 1234.386719 882.402344 1238.457031 887.820312 1241.246094 C 888.394531 1241.542969 888.644531 1242.230469 888.394531 1242.824219 M 839.085938 1210.578125 C 840.230469 1193.90625 846.359375 1179.359375 857.496094 1166.898438 C 858 1166.324219 858.433594 1166.394531 858.800781 1167.058594 C 865.457031 1179.382812 876.683594 1196.628906 871.378906 1211.242188 C 871.171875 1211.835938 870.738281 1212.132812 870.121094 1212.132812 L 840.550781 1212.132812 C 839.523438 1212.132812 839.019531 1211.605469 839.085938 1210.578125 M 800.117188 1111.988281 C 799.203125 1112.007812 798.652344 1111.550781 798.492188 1110.660156 C 781.753906 1020.234375 737.292969 946.960938 665.140625 890.859375 C 665.003906 890.769531 664.980469 890.589844 665.050781 890.449219 L 731.875 782.691406 C 732.902344 781.019531 733.75 781.128906 734.390625 782.980469 L 845.855469 1110.386719 C 846.0625 1111.003906 845.832031 1111.300781 845.195312 1111.324219 Z M 743.148438 1193.355469 C 743.125 1194.453125 742.554688 1194.957031 741.457031 1194.867188 L 587.203125 1180.824219 L 494.714844 1172.410156 C 494.054688 1172.339844 493.550781 1171.769531 493.597656 1171.105469 C 493.640625 1170.441406 494.214844 1169.9375 494.875 1169.960938 C 498.03125 1170.097656 501.464844 1169.136719 504.4375 1169.183594 C 530.234375 1169.640625 556.03125 1170.191406 581.828125 1170.851562 C 635.386719 1172.226562 688.925781 1174.078125 742.441406 1176.386719 C 743.285156 1176.410156 743.722656 1176.867188 743.699219 1177.738281 Z M 731.371094 1240.949219 C 715.476562 1295.171875 686.730469 1339.699219 650.183594 1373.339844 C 650.140625 1373.386719 650.09375 1373.433594 650.023438 1373.476562 C 540.730469 1473.988281 361.820312 1477.328125 248.34375 1352.050781 C 127.730469 1218.902344 160.820312 1019.296875 310.777344 925.691406 C 396.078125 872.429688 507.820312 867.808594 595.890625 919.148438 C 596.53125 919.519531 596.648438 920.019531 596.257812 920.640625 C 569.546875 963.308594 543.179688 1006.261719 516.03125 1048.707031 C 515.253906 1049.917969 514.5 1051.132812 513.699219 1052.34375 L 513.722656 1052.386719 L 473.8125 1118.574219 C 473.8125 1118.574219 470.359375 1117.820312 465.03125 1117.957031 C 463.203125 1118 461.144531 1118.140625 458.925781 1118.460938 C 458.148438 1118.574219 457.347656 1118.710938 456.523438 1118.847656 C 455.128906 1119.121094 453.6875 1119.464844 452.203125 1119.898438 C 451.835938 1119.992188 451.449219 1120.128906 451.058594 1120.242188 C 450.691406 1120.359375 450.351562 1120.472656 449.984375 1120.585938 C 449.410156 1120.769531 448.863281 1120.976562 448.292969 1121.203125 C 448.132812 1121.25 447.972656 1121.316406 447.832031 1121.386719 C 446.460938 1121.914062 445.089844 1122.507812 443.71875 1123.214844 C 442.027344 1124.0625 440.332031 1125.046875 438.640625 1126.210938 C 438.160156 1126.507812 437.65625 1126.851562 437.175781 1127.242188 C 436.789062 1127.492188 436.421875 1127.765625 436.058594 1128.066406 C 435.597656 1128.40625 435.164062 1128.75 434.707031 1129.140625 C 434.523438 1129.277344 434.339844 1129.4375 434.136719 1129.621094 C 432.144531 1131.3125 430.203125 1133.253906 428.328125 1135.472656 C 427.847656 1136.046875 427.34375 1136.640625 426.886719 1137.234375 C 426.40625 1137.851562 425.925781 1138.46875 425.46875 1139.109375 C 425.011719 1139.726562 424.574219 1140.34375 424.140625 1141.007812 C 421.832031 1144.460938 419.683594 1148.417969 417.761719 1152.945312 C 417.578125 1153.359375 417.394531 1153.792969 417.234375 1154.226562 C 417.210938 1154.25 417.210938 1154.296875 417.1875 1154.320312 C 417.097656 1154.546875 416.960938 1154.777344 416.800781 1155.003906 C 416.457031 1155.507812 416.273438 1156.078125 416.273438 1156.699219 C 414.261719 1162.140625 413.394531 1167.355469 413.4375 1172.25 C 413.4375 1172.886719 413.460938 1173.53125 413.507812 1174.167969 C 413.507812 1174.398438 413.53125 1174.625 413.554688 1174.832031 C 413.871094 1179.269531 414.949219 1183.429688 416.546875 1187.273438 C 416.800781 1187.867188 417.050781 1188.460938 417.347656 1189.035156 C 419.773438 1194.179688 423.203125 1198.707031 427.113281 1202.4375 C 427.113281 1202.4375 427.136719 1202.460938 427.136719 1202.480469 C 432.304688 1208.335938 438.914062 1212.132812 446.988281 1213.917969 C 447.765625 1214.097656 448.542969 1214.257812 449.296875 1214.375 C 449.6875 1214.441406 450.097656 1214.511719 450.511719 1214.558594 C 450.921875 1214.625 451.3125 1214.671875 451.699219 1214.695312 C 453.597656 1214.832031 456.753906 1215.105469 460.9375 1215.449219 C 463.84375 1215.699219 467.25 1216 471.023438 1216.316406 C 471.847656 1216.410156 472.671875 1216.476562 473.492188 1216.546875 C 473.929688 1216.59375 474.339844 1216.617188 474.773438 1216.660156 C 479.003906 1217.027344 483.648438 1217.441406 488.585938 1217.875 C 489.433594 1217.941406 490.28125 1218.035156 491.125 1218.101562 C 500.089844 1218.902344 509.949219 1219.769531 520.035156 1220.6875 C 521.476562 1220.800781 522.914062 1220.9375 524.355469 1221.074219 C 533.527344 1221.898438 542.835938 1222.722656 551.777344 1223.523438 C 553.238281 1223.660156 554.65625 1223.796875 556.097656 1223.910156 C 557.472656 1224.046875 558.820312 1224.164062 560.167969 1224.277344 C 561.953125 1224.4375 563.714844 1224.597656 565.453125 1224.757812 C 566.34375 1224.847656 567.214844 1224.917969 568.058594 1225.007812 L 568.082031 1225.007812 C 577.023438 1225.808594 585.210938 1226.542969 592.097656 1227.160156 C 593.671875 1227.296875 595.207031 1227.433594 596.648438 1227.570312 L 598.839844 1227.777344 C 601.519531 1228.027344 603.875 1228.234375 605.863281 1228.417969 C 606.664062 1228.484375 607.417969 1228.554688 608.082031 1228.621094 C 611.375 1228.917969 613.203125 1229.078125 613.203125 1229.078125 L 613.226562 1229.078125 L 730.683594 1239.941406 C 731.304688 1240.011719 731.53125 1240.332031 731.371094 1240.949219 M 620.570312 962.171875 L 621.09375 961.339844 L 621.117188 961.339844 C 624.457031 956.109375 627.816406 950.890625 631.203125 945.679688 C 631.636719 944.988281 632.574219 944.828125 633.214844 945.359375 C 685.929688 989.46875 720.28125 1045.117188 736.21875 1112.285156 C 736.3125 1112.652344 736.035156 1112.96875 735.671875 1112.992188 C 675.5 1114.84375 615.332031 1116.585938 555.117188 1118.207031 C 555.046875 1118.207031 554.496094 1118.207031 553.46875 1118.183594 C 551.410156 1118.160156 547.453125 1118.09375 541.578125 1118.023438 C 535.722656 1117.933594 529.914062 1118.574219 524.125 1119.921875 C 522.960938 1120.199219 522.617188 1119.785156 523.144531 1118.710938 C 524.308594 1116.308594 525.5 1114.089844 526.757812 1111.988281 L 526.78125 1111.988281 C 526.824219 1111.894531 526.871094 1111.804688 526.917969 1111.734375 L 527.992188 1110.019531 L 539.3125 1091.929688 L 553.011719 1070.066406 L 563.417969 1053.464844 L 593.972656 1004.660156 L 594.039062 1004.546875 C 594.933594 1002.808594 596.554688 1000.085938 598.886719 996.359375 C 606.046875 984.941406 613.296875 973.53125 620.570312 962.171875 M 903.511719 1150.179688 L 919.3125 1150.132812 C 920.046875 1150.132812 920.410156 1151.027344 919.910156 1151.527344 L 908.816406 1162.804688 C 908.40625 1163.214844 907.695312 1163.078125 907.46875 1162.527344 L 902.757812 1151.324219 C 902.527344 1150.773438 902.941406 1150.179688 903.511719 1150.179688 M 770.113281 750.578125 C 954.601562 713.78125 1150.039062 676.121094 1324.679688 646.839844 C 1325.429688 646.730469 1325.910156 647.050781 1326.101562 647.800781 L 1328.769531 659.101562 C 1328.980469 660.019531 1328.75 660.789062 1328.089844 661.429688 L 885.902344 1086.328125 C 885.238281 1086.96875 884.757812 1086.851562 884.460938 1085.984375 L 769.976562 750.808594 C 769.929688 750.691406 769.996094 750.601562 770.113281 750.578125 M 1761.421875 900.140625 C 1667.808594 821.910156 1544.449219 801.710938 1428.890625 837.601562 C 1428.089844 837.851562 1427.570312 837.550781 1427.359375 836.75 C 1409.25 770.910156 1390.980469 705.140625 1372.519531 639.390625 C 1367.609375 621.820312 1361.980469 599.140625 1356.171875 579.171875 C 1355.070312 575.421875 1352.761719 572.789062 1348.851562 572.929688 C 1347.800781 572.949219 1346.878906 572.269531 1346.628906 571.261719 L 1341.511719 550.238281 C 1341.371094 549.710938 1341.789062 549.210938 1342.308594 549.230469 L 1356.578125 549.390625 C 1357.289062 549.421875 1357.679688 549.761719 1357.789062 550.441406 C 1359.511719 562.289062 1372.339844 571.601562 1383.449219 580.058594 C 1399.53125 592.300781 1420.679688 577.980469 1417.339844 558.730469 C 1416.289062 552.691406 1411.691406 547.75 1407.738281 543.148438 C 1407.238281 542.53125 1407.191406 541.890625 1407.601562 541.230469 C 1414.808594 529.890625 1413.75 520.371094 1404.441406 512.691406 C 1396.191406 505.871094 1380.660156 508.5 1370.828125 508.941406 C 1370.070312 508.960938 1369.480469 508.640625 1369.089844 507.980469 C 1359.601562 491.488281 1340.5 488.429688 1323.648438 488.910156 C 1273.378906 490.371094 1228.761719 507.910156 1185.378906 533.269531 C 1179.621094 536.628906 1175.699219 540.179688 1173.628906 543.859375 C 1164.960938 559.210938 1174.589844 579.238281 1192.808594 580.269531 C 1197.269531 580.519531 1203.699219 578.671875 1212.039062 574.761719 C 1244.980469 559.300781 1272.191406 545.808594 1309.738281 546.078125 C 1310.570312 546.078125 1311.070312 546.488281 1311.28125 547.289062 L 1318.390625 576.308594 C 1318.570312 577.070312 1318.210938 577.820312 1317.519531 578.160156 C 1307.691406 582.78125 1312.171875 595.679688 1314.871094 603.960938 C 1315.140625 604.808594 1314.839844 605.308594 1313.980469 605.46875 C 1127.570312 637.371094 941.703125 672.300781 756.4375 710.28125 C 755.773438 710.421875 755.109375 710.03125 754.902344 709.390625 L 748.613281 690.128906 C 748.339844 689.289062 748.613281 688.738281 749.460938 688.441406 L 759.296875 685.148438 C 759.914062 684.941406 760.117188 684.53125 759.914062 683.910156 L 752.503906 660.929688 C 752.273438 660.21875 751.519531 659.828125 750.789062 660.039062 L 736.539062 664.289062 C 735.761719 664.539062 735.238281 664.269531 734.9375 663.519531 L 727.460938 644.640625 C 727.117188 643.78125 727.390625 642.769531 728.148438 642.199219 C 760.597656 617.449219 782.507812 597.609375 827.355469 606.890625 C 831.449219 607.730469 834.71875 606.710938 837.167969 603.851562 C 841.96875 598.21875 837.144531 587.71875 833.507812 582.710938 C 821.867188 566.679688 805.699219 558.378906 785 557.828125 C 760.371094 557.148438 734.617188 558.089844 711.335938 556 C 693.453125 554.398438 675.617188 552.371094 657.800781 549.898438 C 637.582031 547.089844 610.804688 545.691406 593.375 558.378906 C 577.984375 569.609375 575.5625 587.878906 587.179688 602.800781 C 599.34375 618.351562 623.128906 628.910156 643.390625 635.339844 C 644.125 635.570312 644.625 636.25 644.648438 637.03125 L 645.222656 675.640625 C 645.246094 676.429688 645.65625 676.851562 646.457031 676.871094 L 667.222656 677.230469 C 668.273438 677.261719 669.144531 676.390625 669.121094 675.320312 L 668.296875 642.949219 C 668.273438 641.878906 668.777344 641.421875 669.828125 641.628906 L 675.226562 642.628906 C 676.027344 642.789062 676.394531 643.269531 676.277344 644.101562 C 674.679688 657.660156 681.972656 669.25 697.25 665.070312 C 698.097656 664.820312 698.554688 665.160156 698.601562 666.050781 L 699.011719 675.980469 C 699.035156 676.730469 698.691406 677.210938 697.980469 677.421875 L 684.511719 681.261719 C 683.941406 681.421875 683.757812 681.808594 683.960938 682.378906 L 692.449219 704.910156 C 692.722656 705.621094 693.476562 706.03125 694.207031 705.820312 L 706.605469 702.621094 C 707.359375 702.441406 707.839844 702.710938 708.089844 703.421875 L 715.820312 725.929688 C 716.140625 726.859375 716.027344 727.890625 715.5 728.738281 L 629.875 865.480469 C 629.394531 866.230469 628.777344 866.371094 628.023438 865.929688 C 422.996094 748.359375 164.640625 870.320312 119.242188 1101.398438 C 92.144531 1239.28125 151.992188 1378.945312 269.816406 1454.960938 C 471.550781 1585.136719 734.253906 1478.015625 793.667969 1247.605469 C 793.875 1246.828125 794.355469 1246.460938 795.15625 1246.503906 L 806.496094 1247.191406 C 807.296875 1247.238281 807.984375 1247.742188 808.328125 1248.449219 C 833.003906 1301.828125 888.875 1324.949219 945.15625 1305.898438 C 945.980469 1305.625 947.351562 1304.890625 949.273438 1303.726562 C 949.890625 1303.359375 950.394531 1303.496094 950.761719 1304.113281 L 973.308594 1342.855469 C 973.765625 1343.679688 973.539062 1344.066406 972.601562 1344.042969 C 945.179688 1343.222656 944.152344 1379.46875 973.285156 1379.605469 C 987.511719 1379.652344 1022.179688 1382.992188 1033.871094 1376.886719 C 1044.800781 1371.191406 1045.050781 1355.617188 1035.738281 1348.136719 C 1027.648438 1341.621094 1010.5 1343.566406 1000.519531 1343.65625 C 999.632812 1343.65625 998.96875 1343.289062 998.535156 1342.535156 L 969.648438 1293.386719 C 969.285156 1292.75 969.398438 1292.199219 969.96875 1291.742188 C 1014.679688 1257.347656 1026.371094 1195.710938 992.085938 1149.425781 C 991.605469 1148.785156 991.652344 1148.191406 992.222656 1147.617188 C 993.390625 1146.472656 995.652344 1145.628906 996.589844 1144.738281 C 1119.421875 1027.027344 1242.230469 909.289062 1365.070312 791.539062 C 1365.710938 790.921875 1366.140625 791.058594 1366.371094 791.910156 L 1383.480469 855.980469 C 1383.660156 856.671875 1383.429688 857.171875 1382.808594 857.5 C 1155.03125 976.78125 1123.308594 1290.894531 1334.03125 1444.191406 C 1515.429688 1576.171875 1770.019531 1504.359375 1859.089844 1299.953125 C 1920.640625 1158.6875 1878.058594 997.621094 1761.421875 900.140625 "/>
</svg>
