<?xml version="1.0" encoding="UTF-8"?>
<svg xmlns="http://www.w3.org/2000/svg" xmlns:xlink="http://www.w3.org/1999/xlink" width="3750" height="2354"
     viewBox="0 0 3750 2354">
    <path fill-rule="nonzero" fill="rgb(0%, 0%, 0%)" fill-opacity="1"
          d="M 1658.691406 2346.0625 C 1412.800781 2330.144531 1370.460938 2324.976562 1079.058594 2275.289062 C 979.71875 2258.347656 891.800781 2244.203125 883.691406 2243.851562 C 872.59375 2243.378906 874.390625 2242.167969 890.953125 2238.960938 C 903.0625 2236.617188 973.644531 2233.082031 1047.808594 2231.101562 C 1417.601562 2221.257812 1552.539062 2213.421875 1741.238281 2190.832031 C 1809.339844 2182.679688 1877.449219 2176.128906 1892.578125 2176.273438 C 1907.71875 2176.433594 1978.300781 2183.140625 2049.429688 2191.1875 C 2272.730469 2216.453125 2403.261719 2224.644531 2679.578125 2230.746094 C 2758.28125 2232.476562 2832.570312 2235.476562 2844.679688 2237.414062 C 2864.859375 2240.636719 2862.109375 2241.730469 2811.660156 2250.644531 C 2285.210938 2343.625 1993.660156 2367.753906 1658.691406 2346.0625 Z M 1496.339844 2145.132812 C 1453.960938 2142.679688 1369.75 2137.925781 1309.21875 2134.566406 C 1182.210938 2127.539062 931.296875 2110.300781 783.636719 2098.46875 C 499.640625 2075.710938 407.011719 2067.8125 405.4375 2066.246094 C 400.457031 2061.269531 525.601562 2056.769531 800.148438 2052.0625 C 1197.871094 2045.246094 1304.789062 2042.046875 1457.808594 2032.382812 C 1599.039062 2023.464844 1785.730469 2005.21875 1840.300781 1995 C 1870.03125 1989.433594 1890.019531 1989.851562 1958.628906 1997.519531 C 2306.460938 2036.382812 2446.828125 2044.304688 2930.121094 2052.335938 C 3125.28125 2055.578125 3299.820312 2060.144531 3317.980469 2062.496094 C 3336.140625 2064.839844 3347.28125 2067.125 3342.75 2067.5625 C 3255.308594 2076.1875 3064.539062 2091.691406 2723.609375 2117.898438 C 2445.949219 2139.25 2256.539062 2146.257812 1911.839844 2147.9375 C 1725.691406 2148.851562 1538.710938 2147.589844 1496.339844 2145.132812 Z M 1543.109375 1965.5625 C 1384.640625 1962.054688 1160.800781 1951.503906 979.007812 1938.972656 C 870.042969 1931.460938 709.066406 1920.367188 621.285156 1914.316406 C 533.503906 1908.269531 413.660156 1900.894531 354.960938 1897.933594 C 296.265625 1894.96875 247.304688 1891.601562 246.164062 1890.464844 C 242.285156 1886.585938 427.953125 1881.394531 676.320312 1878.4375 C 1295.269531 1871.066406 1607.898438 1854.503906 1829.289062 1817.3125 C 1878.980469 1808.972656 1885.960938 1809.101562 1969.628906 1819.933594 C 2276.921875 1859.710938 2493.730469 1871.472656 3059.320312 1879.050781 C 3210.660156 1881.078125 3366.679688 1884.3125 3406.03125 1886.230469 L 3477.578125 1889.726562 L 3422.539062 1894.0625 C 3197.210938 1911.808594 2998.640625 1925.855469 2905.21875 1930.679688 C 2844.679688 1933.800781 2756.769531 1938.8125 2709.851562 1941.816406 C 2662.929688 1944.832031 2582.441406 1949.851562 2530.980469 1952.976562 C 2445.121094 1958.207031 1743.378906 1970.054688 1647.679688 1967.894531 C 1624.980469 1967.378906 1577.921875 1966.332031 1543.109375 1965.5625 Z M 1111.089844 1778.6875 C 1086.878906 1777.710938 1031.160156 1774.34375 987.265625 1771.203125 C 865.257812 1762.472656 384.5 1749.371094 182.382812 1749.269531 C 8.238281 1749.179688 2.144531 1748.8125 2.144531 1738.589844 C 2.144531 1728.308594 10.539062 1727.9375 295.203125 1725.601562 C 474.398438 1724.128906 624.617188 1720.222656 681.824219 1715.546875 C 815.363281 1704.632812 2800.410156 1704.316406 2968.511719 1715.1875 C 3030.558594 1719.207031 3231.78125 1723.847656 3415.660156 1725.503906 C 3726.660156 1728.3125 3750 1729.179688 3750 1737.960938 C 3750 1746.71875 3728.71875 1747.664062 3456.941406 1750.980469 C 3128.449219 1755.007812 2854.929688 1763.050781 2746.5 1771.878906 C 2680.25 1777.269531 1226.410156 1783.316406 1111.089844 1778.6875 Z M 160.925781 1668.042969 C 27.578125 1666.703125 2.777344 1665.1875 0.125 1658.285156 C -2.628906 1651.105469 38.417969 1650.105469 335.679688 1650.105469 C 655.285156 1650.105469 674.269531 1650.648438 672.523438 1659.746094 C 670.804688 1668.675781 657.855469 1669.386719 494.632812 1669.5 C 397.8125 1669.5625 247.644531 1668.914062 160.925781 1668.042969 Z M 2975.390625 1667.730469 C 2949.738281 1666.515625 2940.988281 1664.0625 2940.988281 1658.101562 C 2940.988281 1651.1875 2995.511719 1650.105469 3345.5 1650.105469 C 3701.390625 1650.105469 3750 1651.101562 3750 1658.367188 C 3750 1662.910156 3748.140625 1666.925781 3745.871094 1667.292969 C 3736.441406 1668.8125 3006.949219 1669.242188 2975.390625 1667.730469 Z M 730.976562 1593.703125 C 615.816406 1477.097656 573.019531 1396.324219 549.058594 1250.390625 C 538.941406 1188.769531 536.261719 1048.871094 544.007812 986.871094 L 547.78125 956.679688 L 645.070312 956.660156 C 698.582031 956.648438 770.839844 953.988281 805.652344 950.75 C 873.976562 944.398438 964.320312 931.929688 967.882812 928.371094 C 969.09375 927.160156 972.664062 896.5 975.816406 860.25 C 993.667969 655.011719 998.699219 600 1000.5 590.371094 C 1001.589844 584.5 1004.378906 563.601562 1006.691406 543.921875 C 1009 524.25 1011.621094 510.621094 1012.519531 513.648438 C 1013.421875 516.679688 1021.75 598.410156 1031.03125 695.269531 C 1040.308594 792.128906 1049.300781 882.089844 1051 895.179688 L 1054.109375 918.988281 L 1077.089844 915.398438 C 1180.828125 899.191406 1430.730469 833.28125 1567.878906 785.949219 C 1661.511719 753.628906 1869.109375 670.800781 1975.410156 623.351562 C 2014.609375 605.851562 2220.039062 504.429688 2431.921875 397.96875 C 2643.808594 291.511719 2836.980469 196.359375 2861.191406 186.511719 C 2885.410156 176.671875 2908.070312 165.761719 2911.570312 162.269531 C 2915.058594 158.78125 2922.050781 122.851562 2927.101562 82.421875 C 2932.148438 42 2937.421875 5.941406 2938.820312 2.308594 C 2940.679688 -2.539062 2959.371094 0.0507812 3008.929688 12.011719 L 3076.511719 28.328125 L 3060.789062 83.871094 C 3023.101562 217.058594 3021.589844 243.140625 3047.929688 305.601562 C 3084.359375 391.960938 3121.300781 527.75 3140.171875 644.628906 C 3148.898438 698.691406 3151.96875 742.621094 3152.148438 816.339844 C 3152.839844 1090.730469 3093.71875 1257.121094 2874.949219 1596.441406 L 2833.679688 1660.46875 L 1815.621094 1660.796875 L 797.558594 1661.121094 Z M 1270.691406 1471.269531 C 1282.800781 1469.308594 1324.859375 1462.8125 1364.148438 1456.839844 C 1535.878906 1430.722656 1651.371094 1399.699219 1955.878906 1297.890625 C 2410.179688 1145.988281 2441.71875 1138.121094 2610.789062 1134.371094 C 2714.601562 1132.070312 2729.089844 1132.960938 2792.398438 1145.519531 C 2830.230469 1153.03125 2861.71875 1158.699219 2862.359375 1158.121094 C 2865.480469 1155.289062 2892.328125 1005.460938 2901.910156 937.421875 C 2919.238281 814.378906 2924.480469 707.078125 2924.480469 475.289062 L 2924.480469 258.289062 L 2793.769531 322.050781 C 2721.890625 357.121094 2545.429688 443.460938 2401.648438 513.941406 C 1912.160156 753.851562 1707.148438 836.390625 1391.769531 920.53125 C 1134.058594 989.28125 850.449219 1030.980469 640.546875 1030.980469 L 577.257812 1030.980469 L 573.445312 1050.238281 C 566.875 1083.460938 569.046875 1205.191406 577.007812 1249.839844 C 587.023438 1306.03125 602.324219 1336.21875 636.210938 1366.6875 C 693.039062 1417.785156 786.890625 1453.425781 910.652344 1470.910156 C 968.816406 1479.125 1220.570312 1479.378906 1270.691406 1471.269531 Z M 800.148438 1281.140625 C 762.3125 1278.730469 710.367188 1274.078125 684.71875 1270.820312 C 659.070312 1267.550781 634.921875 1264.871094 631.058594 1264.871094 C 626.011719 1264.871094 624.035156 1253.660156 624.035156 1224.96875 L 624.035156 1185.070312 L 710.714844 1189.128906 C 815.550781 1194.050781 978.742188 1186.121094 1083.578125 1171.019531 C 1316.589844 1137.460938 1570.710938 1068.691406 1720.660156 998.601562 C 1750.199219 984.800781 1809.640625 959.609375 1852.738281 942.621094 C 2024.96875 874.769531 2247.75 767.179688 2561.261719 600.449219 C 2632.390625 562.621094 2713.5 519.480469 2741.5 504.578125 L 2792.398438 477.488281 L 2792.398438 518.960938 C 2792.398438 541.769531 2790.160156 560.429688 2787.410156 560.429688 C 2784.671875 560.429688 2732.050781 592.960938 2670.46875 632.730469 C 2608.890625 672.488281 2512.691406 732.230469 2456.691406 765.480469 C 2400.691406 798.738281 2341.261719 834.058594 2324.609375 843.960938 C 2101.640625 978.390625 1918.878906 1059.441406 1739.429688 1126.679688 C 1572.570312 1188.960938 1451.328125 1223.191406 1300.960938 1250.5 C 1152.730469 1277.410156 943.011719 1290.238281 800.152344 1281.140625 Z M 3002.261719 1260.019531 C 3048.070312 1165.488281 3064.21875 1119.199219 3082.140625 1031.089844 C 3100.980469 938.480469 3106 772.238281 3092.710938 681.5 C 3080.921875 601.070312 3055.308594 493.421875 3040.320312 461.371094 C 3033.960938 447.75 3030.390625 441.558594 3032.398438 447.609375 C 3038.910156 467.25 3043.839844 775.46875 3039 860.371094 C 3030.609375 1007.660156 3008.511719 1144.550781 2972.828125 1270.351562 C 2963.808594 1302.140625 2955.921875 1330.640625 2955.289062 1333.660156 C 2954.660156 1336.691406 2949.949219 1347.089844 2944.820312 1356.773438 C 2939.691406 1366.46875 2935.570312 1376.375 2935.660156 1378.796875 C 2936.03125 1388.34375 2965.78125 1335.300781 3002.261719 1260.019531 Z M 3002.261719 1260.019531 "/>
</svg>
