<?xml version="1.0" encoding="UTF-8" standalone="no"?>
<!-- Created with Inkscape (http://www.inkscape.org/) -->

<svg
        version="1.1"
        id="svg2"
        width="2666.6667"
        height="2666.6667"
        viewBox="0 0 2666.6667 2666.6667"
        sodipodi:docname="vecteezy_steel-icon-vector-design-templates_.eps"
        xmlns:inkscape="http://www.inkscape.org/namespaces/inkscape"
        xmlns:sodipodi="http://sodipodi.sourceforge.net/DTD/sodipodi-0.dtd"
        xmlns="http://www.w3.org/2000/svg"
        xmlns:svg="http://www.w3.org/2000/svg">
    <defs
            id="defs6"/>
    <sodipodi:namedview
            id="namedview4"
            pagecolor="#ffffff"
            bordercolor="#000000"
            borderopacity="0.25"
            inkscape:showpageshadow="2"
            inkscape:pageopacity="0.0"
            inkscape:pagecheckerboard="0"
            inkscape:deskcolor="#d1d1d1"/>
    <g
            id="g8"
            inkscape:groupmode="layer"
            inkscape:label="ink_ext_XXXXXX"
            transform="matrix(1.3333333,0,0,-1.3333333,0,2666.6667)">
        <g
                id="g10"
                transform="scale(0.1)">
            <path
                    d="M 14666.4,8078.8 13634,7833.4 v 1524.1 l 1032.4,171.8 z m -1072.7,1272 v 0 h 0.1 c -0.1,0 -0.1,0 -0.1,0 z m 456.8,341.2 c 58.1,14.7 104.7,53.6 130.4,104.3 l 226.5,-56.7 -494.8,-82.3 z m -942.9,-1986 -1032.3,-260.2 v 1631.3 l 1032.3,182.1 z m -187,3590.3 1032.3,182.2 V 9925.3 L 12920.6,9665 Z m 1974.9,-1620.9 c 3.3,19.9 3.8,40.6 1.2,61.5 -11.1,86.6 -72.9,156.2 -157.6,177.4 l -536.2,134.2 V 11536 c 0,59.8 -26.2,116.1 -72,154.6 -12.1,10.1 -25.1,18.6 -38.8,25.5 l 1,8.1 -29.1,3.6 c -24.7,8.1 -51,11.3 -77.4,9.4 l -8863.62,1080.8 -30.27,-248.2 8046.19,-981.1 -283,-49.9 -7732.42,974.7 -31.27,-248.1 7578.39,-955.2 V 9691.5 l -7542.52,1237 -40.46,-246.6 7589.38,-1244.8 -685,-120.9 v 0 c -20.5,-3.6 -39.7,-10.3 -57.4,-19.4 l -6806.66,1108.7 -40.19,-246.7 6737.55,-1097.5 V 7480.4 L 5132.06,8801.7 5083.64,8556.4 11936.7,7203.5 c 28,-14.1 58.7,-21.5 89.9,-21.5 16.5,0 33.3,2 49.8,6.2 l 1128.8,284.6 c 89.8,22.6 152.4,103.1 152.4,195.6 v 1648.3 c 0,59.8 -26.2,116.2 -72,154.6 -9.3,7.8 -19.2,14.6 -29.5,20.5 l 184.1,46.4 c -35,-36.5 -56.2,-85.8 -56.2,-139.8 V 7772.3 c 0,-62.1 28,-119.8 76.7,-158.3 36.1,-28.5 79.8,-43.5 124.7,-43.5 15.6,0 31.4,1.8 47,5.5 l 1128.9,268.4 c 91.3,21.7 155.1,102.4 155.1,196.3 v 1545.5 c 0,31.3 -7.3,61.8 -20.9,89.2"
                    style="fill:#000000;fill-opacity:1;fill-rule:nonzero;stroke:none"
                    id="path12"/>
        </g>
    </g>
</svg>
