<?xml version="1.0" encoding="UTF-8"?>
<svg xmlns="http://www.w3.org/2000/svg" xmlns:xlink="http://www.w3.org/1999/xlink" width="2012" height="3002"
     viewBox="0 0 2012 3002">
    <path fill-rule="nonzero" fill="rgb(50.193787%, 50.193787%, 50.193787%)" fill-opacity="1"
          d="M 767.1875 1606.101562 C 725.90625 1606.101562 692.675781 1639.300781 692.675781 1680.609375 C 692.675781 1721.890625 725.878906 1755.121094 767.1875 1755.121094 C 808.371094 1755.121094 841.695312 1721.871094 841.695312 1680.609375 C 841.695312 1639.320312 808.503906 1606.101562 767.1875 1606.101562 "/>
    <path fill-rule="nonzero" fill="rgb(50.193787%, 50.193787%, 50.193787%)" fill-opacity="1"
          d="M 767.1875 1512.339844 C 860.011719 1512.339844 935.453125 1587.828125 935.453125 1680.609375 C 935.453125 1773.390625 859.972656 1848.878906 767.1875 1848.878906 C 674.417969 1848.878906 598.914062 1773.289062 598.914062 1680.609375 C 598.914062 1587.839844 674.507812 1512.339844 767.1875 1512.339844 "/>
    <path fill-rule="nonzero" fill="rgb(19.993591%, 19.993591%, 19.993591%)" fill-opacity="1"
          d="M 1006 2511.886719 C 964.71875 2511.886719 931.488281 2545.085938 931.488281 2586.394531 C 931.488281 2627.683594 964.691406 2660.90625 1006 2660.90625 C 1047.289062 2660.90625 1080.511719 2627.703125 1080.511719 2586.394531 C 1080.511719 2545.113281 1047.300781 2511.886719 1006 2511.886719 "/>
    <path fill-rule="nonzero" fill="rgb(50.193787%, 50.193787%, 50.193787%)" fill-opacity="1"
          d="M 1006 2418.128906 C 1098.769531 2418.128906 1174.269531 2493.714844 1174.269531 2586.394531 C 1174.269531 2679.164062 1098.679688 2754.664062 1006 2754.664062 C 913.230469 2754.664062 837.730469 2679.074219 837.730469 2586.394531 C 837.730469 2493.625 913.320312 2418.128906 1006 2418.128906 "/>
    <path fill-rule="nonzero" fill="rgb(19.993591%, 19.993591%, 19.993591%)" fill-opacity="1"
          d="M 621.683594 2323.296875 C 608.210938 2309.824219 589.566406 2301.476562 568.992188 2301.476562 C 527.710938 2301.476562 494.484375 2334.6875 494.484375 2375.992188 C 494.484375 2417.269531 527.683594 2450.503906 568.992188 2450.503906 C 610.167969 2450.503906 643.503906 2417.25 643.503906 2375.992188 C 643.503906 2355.414062 635.160156 2336.773438 621.683594 2323.296875 "/>
    <path fill-rule="nonzero" fill="rgb(50.193787%, 50.193787%, 50.193787%)" fill-opacity="1"
          d="M 568.992188 2207.71875 C 615.441406 2207.71875 657.527344 2226.570312 687.96875 2257.015625 C 718.414062 2287.457031 737.265625 2329.539062 737.265625 2375.992188 C 737.265625 2468.773438 661.769531 2544.261719 568.992188 2544.261719 C 476.222656 2544.261719 400.726562 2468.671875 400.726562 2375.992188 C 400.726562 2283.222656 476.3125 2207.71875 568.992188 2207.71875 "/>
    <path fill-rule="nonzero" fill="rgb(19.993591%, 19.993591%, 19.993591%)" fill-opacity="1"
          d="M 1443.011719 2269.109375 C 1401.730469 2269.109375 1368.488281 2302.308594 1368.488281 2343.617188 C 1368.488281 2384.890625 1401.800781 2418.128906 1443.011719 2418.128906 C 1484.289062 2418.128906 1517.511719 2384.917969 1517.511719 2343.617188 C 1517.511719 2302.433594 1484.261719 2269.109375 1443.011719 2269.109375 "/>
    <path fill-rule="nonzero" fill="rgb(50.193787%, 50.193787%, 50.193787%)" fill-opacity="1"
          d="M 1443.011719 2175.351562 C 1535.820312 2175.351562 1611.269531 2250.828125 1611.269531 2343.617188 C 1611.269531 2436.386719 1535.691406 2511.886719 1443.011719 2511.886719 C 1350.191406 2511.886719 1274.738281 2436.46875 1274.738281 2343.617188 C 1274.738281 2250.847656 1350.328125 2175.351562 1443.011719 2175.351562 "/>
    <path fill-rule="nonzero" fill="rgb(19.993591%, 19.993591%, 19.993591%)" fill-opacity="1"
          d="M 75.140625 1996.171875 C 54.214844 1981.101562 25.023438 1985.859375 9.957031 2006.789062 C -5.109375 2027.71875 -0.347656 2056.90625 20.578125 2071.972656 C 38.96875 2085.199219 57.695312 2096.007812 76.523438 2104.507812 C 149.425781 2137.40625 227.078125 2138.847656 298.035156 2115.917969 C 364.941406 2094.292969 425.78125 2050.832031 470.617188 1991.679688 C 507.621094 2041.640625 554.070312 2078.113281 604.859375 2101.027344 C 647.332031 2120.183594 692.964844 2129.773438 738.722656 2129.765625 C 784.503906 2129.761719 830.117188 2120.148438 872.546875 2100.964844 C 923.015625 2078.132812 969.175781 2041.902344 1006 1992.328125 C 1042.820312 2041.902344 1088.980469 2078.132812 1139.449219 2100.957031 C 1181.878906 2120.148438 1227.5 2129.753906 1273.28125 2129.761719 C 1319.039062 2129.765625 1364.671875 2120.183594 1407.140625 2101.027344 C 1457.929688 2078.113281 1504.390625 2041.640625 1541.378906 1991.679688 C 1586.210938 2050.824219 1647.058594 2094.292969 1713.960938 2115.917969 C 1784.921875 2138.847656 1862.578125 2137.40625 1935.480469 2104.507812 C 1954.308594 2096.007812 1973.03125 2085.199219 1991.421875 2071.972656 C 2012.351562 2056.90625 2017.109375 2027.71875 2002.039062 2006.789062 C 1986.980469 1985.859375 1957.789062 1981.101562 1936.859375 1996.171875 C 1924.148438 2005.308594 1910.800781 2012.957031 1897.03125 2019.179688 C 1846.371094 2042.035156 1792.191406 2042.964844 1742.53125 2026.921875 C 1691.621094 2010.464844 1645.238281 1976.328125 1611.671875 1929.640625 C 1601.488281 1915.5 1592.390625 1899.898438 1584.628906 1883.039062 C 1580.328125 1872.050781 1571.898438 1862.648438 1560.300781 1857.398438 C 1536.710938 1846.738281 1508.929688 1857.21875 1498.269531 1880.800781 L 1498.320312 1880.890625 C 1468.46875 1946.890625 1421.621094 1991.808594 1368.691406 2015.695312 C 1338.121094 2029.480469 1305.601562 2036.375 1273.28125 2036.375 C 1240.96875 2036.375 1208.46875 2029.449219 1177.898438 2015.628906 C 1125.710938 1992.019531 1079.480469 1947.878906 1049.671875 1883.089844 C 1045.371094 1872.058594 1036.921875 1862.640625 1025.28125 1857.390625 C 1001.691406 1846.75 973.917969 1857.25 963.273438 1880.839844 L 963.335938 1880.890625 C 933.5625 1946.878906 886.878906 1991.761719 834.09375 2015.632812 C 803.539062 2029.449219 771.027344 2036.382812 738.722656 2036.382812 C 706.398438 2036.382812 673.878906 2029.480469 643.3125 2015.695312 C 590.964844 1992.078125 544.578125 1947.871094 514.6875 1883.070312 C 510.382812 1872.058594 501.941406 1862.640625 490.308594 1857.390625 C 466.714844 1846.738281 438.941406 1857.238281 428.292969 1880.828125 L 428.355469 1880.890625 C 420.367188 1898.589844 410.9375 1914.898438 400.335938 1929.640625 C 366.746094 1976.328125 320.382812 2010.464844 269.46875 2026.921875 C 219.8125 2042.964844 165.632812 2042.035156 114.976562 2019.179688 C 101.195312 2012.957031 87.851562 2005.308594 75.140625 1996.171875 "/>
    <path fill-rule="nonzero" fill="rgb(19.993591%, 19.993591%, 19.993591%)" fill-opacity="1"
          d="M 1282.308594 1027.898438 C 1489.191406 1086.910156 1668.910156 1210.519531 1798.199219 1375.570312 C 1932.058594 1546.441406 2011.871094 1761.558594 2011.871094 1995.128906 C 2011.871094 2272.875 1899.269531 2524.351562 1717.25 2706.375 C 1535.230469 2888.398438 1283.75 3001 1006 3001 C 728.253906 3001 476.769531 2888.398438 294.753906 2706.375 C 112.730469 2524.351562 0.128906 2272.875 0.128906 1995.128906 C 0.128906 1761.558594 79.945312 1546.449219 213.804688 1375.570312 C 343.101562 1210.519531 522.820312 1086.910156 729.691406 1027.898438 L 729.691406 309.601562 C 669.988281 299.738281 625.296875 247.601562 625.296875 186.679688 L 625.296875 125.570312 C 625.296875 57.058594 681.394531 1 749.859375 1 L 1262.148438 1 C 1330.671875 1 1386.710938 57.070312 1386.710938 125.570312 L 1386.710938 186.679688 C 1386.710938 247.558594 1341.980469 299.808594 1282.308594 309.609375 Z M 1724.589844 1433.058594 C 1601.328125 1275.699219 1427.371094 1159.851562 1227.28125 1109.988281 C 1205.28125 1106.128906 1188.558594 1086.929688 1188.558594 1063.828125 L 1188.558594 264.371094 C 1188.558594 238.480469 1209.550781 217.488281 1235.429688 217.488281 L 1262.148438 217.488281 C 1279.128906 217.488281 1292.949219 203.488281 1292.949219 186.679688 L 1292.949219 125.570312 C 1292.949219 108.679688 1279.078125 94.761719 1262.148438 94.761719 L 749.859375 94.761719 C 732.910156 94.761719 719.054688 108.609375 719.054688 125.570312 L 719.054688 186.679688 C 719.054688 203.671875 732.835938 217.488281 749.859375 217.488281 L 776.570312 217.488281 C 802.460938 217.488281 823.453125 238.480469 823.453125 264.371094 L 823.453125 1063.828125 C 823.460938 1084.910156 809.140625 1104.101562 787.75 1109.351562 L 787.722656 1109.25 C 586.371094 1158.691406 411.296875 1274.910156 287.410156 1433.058594 C 166.171875 1587.820312 93.886719 1782.949219 93.886719 1995.128906 C 93.886719 2247 195.984375 2475.035156 361.039062 2640.089844 C 526.085938 2805.144531 754.128906 2907.242188 1006 2907.242188 C 1257.871094 2907.242188 1485.910156 2805.144531 1650.960938 2640.089844 C 1816.011719 2475.035156 1918.109375 2247 1918.109375 1995.128906 C 1918.109375 1782.949219 1845.828125 1587.820312 1724.589844 1433.058594 "/>
</svg>
