<?xml version="1.0" encoding="UTF-8" standalone="no"?>
<!-- Created with Inkscape (http://www.inkscape.org/) -->

<svg
        version="1.1"
        id="svg2"
        width="5164"
        height="5164"
        viewBox="0 0 5164 5164"
        sodipodi:docname="vecteezy_chassis-icon-style_8345767.eps"
        xmlns:inkscape="http://www.inkscape.org/namespaces/inkscape"
        xmlns:sodipodi="http://sodipodi.sourceforge.net/DTD/sodipodi-0.dtd"
        xmlns="http://www.w3.org/2000/svg"
        xmlns:svg="http://www.w3.org/2000/svg">
    <defs
            id="defs6"/>
    <sodipodi:namedview
            id="namedview4"
            pagecolor="#ffffff"
            bordercolor="#000000"
            borderopacity="0.25"
            inkscape:showpageshadow="2"
            inkscape:pageopacity="0.0"
            inkscape:pagecheckerboard="0"
            inkscape:deskcolor="#d1d1d1"/>
    <g
            id="g8"
            inkscape:groupmode="layer"
            inkscape:label="ink_ext_XXXXXX"
            transform="matrix(1.3333333,0,0,-1.3333333,0,5164)">
        <g
                id="g10"
                transform="scale(0.1)">
            <path
                    d="m 33540,9489 h -2555 c -217,0 -394,177 -394,394 0,217 177,394 394,394 h 2555 c 218,0 394,-177 394,-394 0,-218 -175,-394 -394,-394 z m 0,-2317 h -2555 c -217,0 -394,176 -394,393 0,218 177,394 394,394 h 2555 c 218,0 394,-176 394,-394 0,-217 -175,-393 -394,-393 z m -3845,3977 V 3983 c 0,-574 466,-1039 1039,-1039 h 3057 c 573,0 1039,466 1039,1039 v 7166 c 0,573 -466,1039 -1039,1039 h -3057 c -572,0 -1039,-466 -1039,-1039 z m 3845,-6294 h -2555 c -217,0 -394,177 -394,394 0,217 177,394 394,394 h 2555 c 218,0 394,-177 394,-394 0,-217 -175,-394 -394,-394 v 0"
                    style="fill:#100f0d;fill-opacity:1;fill-rule:evenodd;stroke:none"
                    id="path12"/>
            <path
                    d="M 22243,8557 H 9823 V 6575 h 8157 c 217,0 394,-177 394,-394 V 3374 h 1983 v 2807 c 0,217 177,394 394,394 h 8157 v 1982 h -6665 v 0"
                    style="fill:#100f0d;fill-opacity:1;fill-rule:evenodd;stroke:none"
                    id="path14"/>
            <path
                    d="M 20750,11925 H 16880 V 9345 h 4969 v 2580 h -1099"
                    style="fill:#100f0d;fill-opacity:1;fill-rule:evenodd;stroke:none"
                    id="path16"/>
            <path
                    d="m 18374,17654 v -4941 h 1982 v 4941 h -1982"
                    style="fill:#100f0d;fill-opacity:1;fill-rule:evenodd;stroke:none"
                    id="path18"/>
            <path
                    d="M 7745,9489 H 5189 c -217,0 -394,177 -394,394 0,217 177,394 394,394 h 2556 c 217,0 394,-177 394,-394 0,-218 -177,-394 -394,-394 z M 5189,5643 h 2556 c 217,0 394,-177 394,-394 0,-217 -177,-394 -394,-394 H 5189 c -217,0 -394,177 -394,394 0,217 176,394 394,394 z m 0,2316 h 2556 c 217,0 394,-176 394,-394 0,-217 -177,-393 -394,-393 H 5189 c -217,0 -394,176 -394,393 0,219 176,394 394,394 z M 3899,11149 V 3983 c 0,-574 466,-1039 1039,-1039 h 3057 c 574,0 1039,466 1039,1039 v 2194 3 3 2760 7 7 2191 c 0,573 -466,1039 -1039,1039 H 4939 c -574,1 -1040,-465 -1040,-1038 v 0"
                    style="fill:#100f0d;fill-opacity:1;fill-rule:evenodd;stroke:none"
                    id="path20"/>
            <path
                    d="m 16571,22240 c -310,0 -562,-252 -562,-562 v -2674 c 0,-310 252,-562 562,-562 h 5588 c 310,0 562,252 562,562 v 2674 c 0,310 -252,562 -562,562 h -1401 -8 -8 -2752 -10 -10 -1399 v 0"
                    style="fill:#100f0d;fill-opacity:1;fill-rule:evenodd;stroke:none"
                    id="path22"/>
            <path
                    d="m 18374,27969 v -4941 h 1982 v 4941 h -1982"
                    style="fill:#100f0d;fill-opacity:1;fill-rule:evenodd;stroke:none"
                    id="path24"/>
            <path
                    d="m 30985,29241 h 2555 c 218,0 394,-177 394,-394 0,-217 -176,-394 -394,-394 h -2555 c -217,0 -394,177 -394,394 0,218 176,394 394,394 z m 0,2318 h 2555 c 218,0 394,-177 394,-394 0,-217 -176,-394 -394,-394 h -2555 c -217,0 -394,177 -394,394 0,217 176,394 394,394 z m 0,2316 h 2555 c 218,0 394,-177 394,-394 0,-217 -176,-394 -394,-394 h -2555 c -217,0 -394,177 -394,394 0,218 176,394 394,394 z m -251,1911 c -573,0 -1039,-466 -1039,-1039 v -7166 c 0,-573 466,-1039 1039,-1039 h 3057 c 573,0 1039,466 1039,1039 v 7166 c 0,573 -466,1039 -1039,1039 h -3057 v 0"
                    style="fill:#100f0d;fill-opacity:1;fill-rule:evenodd;stroke:none"
                    id="path26"/>
            <path
                    d="m 22637,32156 v -1982 h 6270 v 1982 h -6270"
                    style="fill:#100f0d;fill-opacity:1;fill-rule:evenodd;stroke:none"
                    id="path28"/>
            <path
                    d="m 16880,33572 v -4815 h 4969 v 4815 h -1099 -2769 -1 -3 -1097"
                    style="fill:#100f0d;fill-opacity:1;fill-rule:evenodd;stroke:none"
                    id="path30"/>
            <path
                    d="m 18374,35357 v -997 h 1982 v 997 h -1982"
                    style="fill:#100f0d;fill-opacity:1;fill-rule:evenodd;stroke:none"
                    id="path32"/>
            <path
                    d="m 9823,32156 v -1982 h 6270 v 1982 H 9823"
                    style="fill:#100f0d;fill-opacity:1;fill-rule:evenodd;stroke:none"
                    id="path34"/>
            <path
                    d="M 7745,33087 H 5189 c -217,0 -394,177 -394,394 0,217 177,394 394,394 h 2556 c 217,0 394,-177 394,-394 0,-217 -177,-394 -394,-394 z M 5189,29241 h 2556 c 217,0 394,-177 394,-394 0,-217 -177,-394 -394,-394 H 5189 c -217,0 -394,177 -394,394 0,218 176,394 394,394 z m 2556,2318 c 217,0 394,-177 394,-394 0,-217 -177,-394 -394,-394 H 5189 c -217,0 -394,177 -394,394 0,217 177,394 394,394 z m -3846,3188 v -7166 c 0,-573 466,-1039 1039,-1039 h 3057 c 574,0 1039,466 1039,1039 v 2195 3 3 2760 7 7 2191 c 0,573 -466,1039 -1039,1039 H 4939 c -574,0 -1040,-466 -1040,-1039 v 0"
                    style="fill:#100f0d;fill-opacity:1;fill-rule:evenodd;stroke:none"
                    id="path36"/>
        </g>
    </g>
</svg>
