<?xml version="1.0" encoding="UTF-8"?>
<svg xmlns="http://www.w3.org/2000/svg" xmlns:xlink="http://www.w3.org/1999/xlink" width="2248.45" height="3303.46"
     viewBox="0 0 2248.45 3303.46">
    <defs>
        <clipPath id="clip-0">

        </clipPath>
        <clipPath id="clip-1">
            <path clip-rule="evenodd"
                  d="M 642.566406 1409.828125 C 643.839844 1419.941406 645.085938 1430.039062 646.28125 1440.101562 C 645.085938 1430.039062 643.851562 1419.960938 642.566406 1409.828125 Z M 532.066406 1159.261719 C 538.132812 1147.050781 548.390625 1126.609375 563.703125 1096.28125 C 551.859375 1114.851562 541.351562 1136.070312 532.066406 1159.261719 Z M 1683.230469 1121.820312 C 1680.761719 1115.800781 1678.230469 1109.78125 1675.628906 1103.738281 C 1624.648438 984.328125 1559.28125 871.300781 1491.851562 760.421875 C 1433.910156 860.730469 1451.269531 984.359375 1462.601562 1099.53125 C 1487.050781 1348.308594 1570.230469 1586.109375 1731.320312 1777.359375 C 1726.351562 1593.261719 1725.980469 1417.171875 1733.648438 1266.121094 L 1732.371094 1261.660156 L 1731.710938 1259.441406 L 1731.050781 1257.199219 L 1729.078125 1250.53125 L 1728.398438 1248.300781 L 1727.738281 1246.070312 L 1727.191406 1244.261719 L 1727.058594 1243.851562 L 1726.378906 1241.621094 L 1725.699219 1239.398438 L 1723.589844 1232.71875 L 1722.910156 1230.488281 L 1720.761719 1223.820312 L 1720.019531 1221.589844 L 1719.308594 1219.371094 L 1718.578125 1217.140625 L 1717.109375 1212.679688 L 1716.351562 1210.460938 L 1715.609375 1208.21875 L 1714.851562 1206 L 1714.089844 1203.78125 L 1713.320312 1201.550781 L 1712.558594 1199.308594 L 1711.800781 1197.101562 L 1711.011719 1194.859375 L 1710.25 1192.640625 L 1709.460938 1190.410156 L 1708.679688 1188.179688 L 1708.679688 1188.148438 L 1707.890625 1185.960938 L 1707.070312 1183.730469 L 1706.289062 1181.488281 L 1706.230469 1181.398438 L 1704.660156 1177.039062 L 1703.839844 1174.808594 L 1703.03125 1172.578125 L 1702.210938 1170.359375 L 1701.871094 1169.441406 L 1701.371094 1168.128906 L 1700.53125 1165.890625 L 1699.71875 1163.660156 L 1698.878906 1161.429688 L 1698.351562 1160.070312 L 1698.011719 1159.210938 L 1697.171875 1156.980469 L 1695.460938 1152.511719 L 1694.78125 1150.699219 L 1694.601562 1150.28125 L 1693.730469 1148.050781 L 1692.859375 1145.808594 L 1692 1143.570312 L 1691.101562 1141.351562 L 1691.101562 1141.320312 L 1690.210938 1139.101562 L 1688.429688 1134.640625 L 1687.53125 1132.398438 L 1686.640625 1130.160156 L 1685.71875 1127.929688 L 1684.800781 1125.691406 L 1683.910156 1123.460938 C 1683.621094 1122.910156 1683.410156 1122.371094 1683.230469 1121.820312 Z M 574.289062 1662.539062 C 670.867188 1496.46875 719.8125 1306.28125 733.101562 1111.328125 C 739.328125 1020.070312 737.867188 927.359375 728.835938 836.25 C 692.257812 900.269531 655.671875 964.210938 619.292969 1028.160156 C 614.132812 1037.261719 607.5 1045.328125 599.777344 1052.371094 C 587.972656 1063.121094 577.164062 1076.058594 567.261719 1090.808594 C 550.675781 1123.851562 537.242188 1150.28125 530.253906 1163.828125 C 526.394531 1173.710938 522.78125 1183.949219 519.367188 1194.46875 C 547.328125 1364.710938 572.332031 1551.691406 574.289062 1662.539062 Z M 498.039062 2132.101562 C 703.015625 2165.929688 919.664062 2177.171875 1125.398438 2176.910156 C 1329.058594 2176.648438 1542.421875 2165.070312 1745.449219 2132.648438 C 1740.851562 2040.960938 1736.808594 1948.589844 1733.761719 1857.550781 C 1537.660156 1649.03125 1438.539062 1382.328125 1412.589844 1100.160156 C 1394.488281 903.5 1415.820312 852.300781 1443.160156 680.929688 C 1372.898438 566.671875 1302.640625 452.96875 1238.96875 334.621094 L 1238.449219 333.609375 L 1235.511719 328.121094 L 1227.421875 312.988281 C 1192.589844 317.441406 1157.648438 319.191406 1124.21875 319.191406 C 1090.671875 319.191406 1055.589844 317.429688 1020.640625 312.941406 L 1012.550781 328.039062 C 934.148438 474.46875 852.292969 619.660156 769.835938 764.398438 C 771.882812 778.699219 773.707031 793.019531 775.363281 807.339844 C 787 908.21875 789.691406 1011.148438 783.175781 1112.46875 C 767.746094 1352.210938 700.152344 1583.449219 561.367188 1776.5 C 544.964844 1862.570312 521.785156 1988.671875 498.039062 2132.101562 Z M 1124.21875 267.550781 C 1371.851562 267.550781 1432.308594 167.28125 1438.25 156 C 1441.738281 149.550781 1443.628906 142.269531 1443.628906 134.738281 L 1443.628906 45.199219 C 1443.628906 20.179688 1423.488281 0.0390625 1398.460938 0.0390625 L 849.984375 0 C 824.964844 0 804.820312 20.148438 804.820312 45.160156 L 804.820312 134.699219 C 804.820312 142.269531 806.710938 149.519531 810.203125 155.960938 C 816.125 167.28125 876.589844 267.550781 1124.21875 267.550781 Z M 374.105469 341.488281 Z M 304.203125 1082.449219 C 317.9375 1082.449219 329.613281 1071.171875 330.007812 1057.398438 C 332.332031 977.539062 358.242188 892.730469 387.371094 818.828125 C 419.597656 737.121094 460.296875 657.398438 504.382812 581.460938 C 524.464844 546.871094 546.945312 508.308594 570.179688 475.679688 C 578.398438 464.128906 574.972656 447.898438 563.429688 439.980469 C 551.6875 431.921875 535.507812 434.859375 527.40625 446.589844 C 420.753906 601.058594 282.742188 865.648438 278.371094 1056.019531 C 278.054688 1070.140625 289.035156 1082.300781 303.335938 1082.449219 C 303.625 1082.449219 303.914062 1082.449219 304.203125 1082.449219 Z M 376.535156 1770.191406 L 53.105469 1770.191406 C 29.730469 1770.191406 10.109375 1752.171875 8.21875 1728.769531 C -55.253906 970.328125 269.019531 347.949219 292.921875 303.308594 C 320.289062 244.871094 474.875 180.648438 753.167969 111.671875 L 753.167969 134.699219 C 753.167969 150.621094 757.160156 166.210938 764.621094 180.230469 C 782.453125 213.71875 818.898438 242.671875 851.164062 260.921875 C 886.53125 280.929688 926.074219 294.621094 967.019531 303.671875 C 859.003906 505.398438 588.023438 978.789062 574.421875 1002.628906 C 571.976562 1006.921875 568.761719 1010.679688 565.003906 1014.199219 C 408.804688 1152.140625 408.238281 1571.261719 421.449219 1721.050781 C 422.5 1733.679688 418.21875 1746.058594 409.605469 1755.460938 C 401.253906 1764.808594 389.183594 1770.191406 376.535156 1770.191406 Z M 1958.929688 1082.261719 L 1962.640625 1082.199219 C 1976.949219 1081.878906 1988.109375 1070.050781 1987.800781 1055.75 C 1983.390625 864.511719 1845.390625 601.710938 1738.71875 446.289062 C 1730.660156 434.519531 1714.589844 431.460938 1702.851562 439.640625 C 1691.238281 447.71875 1687.949219 463.871094 1696.089844 475.589844 C 1719.390625 509.011719 1741.480469 545.859375 1761.96875 580.988281 C 1806.121094 656.730469 1846.878906 736.300781 1879.089844 817.859375 C 1908.351562 891.960938 1934.300781 977.148438 1936.160156 1057.261719 C 1936.449219 1070.179688 1946.320312 1080.769531 1958.929688 1082.261719 Z M 2195.320312 1770.191406 L 1871.890625 1770.191406 C 1845.46875 1770.191406 1824.480469 1747.550781 1826.710938 1721.261719 C 1877.980469 1125.71875 1550.089844 806.660156 1281.019531 303.761719 C 1361.109375 286.121094 1495.269531 228.390625 1495.269531 134.738281 L 1495.269531 111.96875 C 1773.550781 180.988281 1928.148438 245.421875 1955.519531 303.609375 C 1979.421875 348.511719 2303.691406 970.941406 2240.230469 1729.089844 C 2238.371094 1752.171875 2219.011719 1770.191406 2195.320312 1770.191406 Z M 1769.480469 3303.460938 L 1223.710938 3303.460938 C 1200.050781 3303.460938 1180.429688 3285.179688 1178.539062 3261.507812 C 1159.699219 2991.03125 1139.300781 2850.71875 1123.960938 2778.101562 C 1108.621094 2850.671875 1088.199219 2991.03125 1069.378906 3261.507812 C 1067.769531 3285.179688 1048.121094 3303.460938 1024.199219 3303.460938 L 478.945312 3303.460938 C 466.3125 3303.460938 454.203125 3298.070312 445.628906 3288.960938 C 350.207031 3185.191406 419.230469 2619.140625 489.78125 2182.640625 C 697.484375 2216.050781 915.988281 2227.660156 1124.511719 2227.660156 C 1329.300781 2227.660156 1543.761719 2216.441406 1748.128906 2184.398438 C 1777.679688 2743.109375 1826.289062 3263.039062 1802.78125 3288.648438 C 1793.929688 3298.101562 1781.878906 3303.460938 1769.480469 3303.460938 "/>
        </clipPath>
        <linearGradient id="linear-pattern-0" gradientUnits="userSpaceOnUse" x1="-0.0245489" y1="0" x2="1.02455" y2="0"
                        gradientTransform="matrix(2143.22, 0, 0, 2143.22, 52.6138, 1651.73)">
            <stop offset="0" stop-color="rgb(11.372375%, 37.254333%, 37.646484%)" stop-opacity="1"/>
            <stop offset="0.03125" stop-color="rgb(11.325073%, 37.1521%, 37.542725%)" stop-opacity="1"/>
            <stop offset="0.0390625" stop-color="rgb(11.230469%, 36.949158%, 37.336731%)" stop-opacity="1"/>
            <stop offset="0.046875" stop-color="rgb(11.13739%, 36.746216%, 37.130737%)" stop-opacity="1"/>
            <stop offset="0.0546875" stop-color="rgb(11.044312%, 36.543274%, 36.924744%)" stop-opacity="1"/>
            <stop offset="0.0625" stop-color="rgb(10.951233%, 36.341858%, 36.71875%)" stop-opacity="1"/>
            <stop offset="0.0703125" stop-color="rgb(10.858154%, 36.138916%, 36.512756%)" stop-opacity="1"/>
            <stop offset="0.078125" stop-color="rgb(10.765076%, 35.935974%, 36.308289%)" stop-opacity="1"/>
            <stop offset="0.0859375" stop-color="rgb(10.671997%, 35.734558%, 36.102295%)" stop-opacity="1"/>
            <stop offset="0.09375" stop-color="rgb(10.578918%, 35.531616%, 35.896301%)" stop-opacity="1"/>
            <stop offset="0.101563" stop-color="rgb(10.48584%, 35.328674%, 35.690308%)" stop-opacity="1"/>
            <stop offset="0.109375" stop-color="rgb(10.391235%, 35.125732%, 35.484314%)" stop-opacity="1"/>
            <stop offset="0.117188" stop-color="rgb(10.298157%, 34.924316%, 35.279846%)" stop-opacity="1"/>
            <stop offset="0.125" stop-color="rgb(10.205078%, 34.721375%, 35.073853%)" stop-opacity="1"/>
            <stop offset="0.132812" stop-color="rgb(10.112%, 34.518433%, 34.867859%)" stop-opacity="1"/>
            <stop offset="0.140625" stop-color="rgb(10.018921%, 34.317017%, 34.661865%)" stop-opacity="1"/>
            <stop offset="0.148438" stop-color="rgb(9.925842%, 34.114075%, 34.455872%)" stop-opacity="1"/>
            <stop offset="0.15625" stop-color="rgb(9.832764%, 33.911133%, 34.249878%)" stop-opacity="1"/>
            <stop offset="0.164062" stop-color="rgb(9.739685%, 33.709717%, 34.04541%)" stop-opacity="1"/>
            <stop offset="0.171875" stop-color="rgb(9.646606%, 33.506775%, 33.839417%)" stop-opacity="1"/>
            <stop offset="0.179688" stop-color="rgb(9.553528%, 33.303833%, 33.633423%)" stop-opacity="1"/>
            <stop offset="0.1875" stop-color="rgb(9.460449%, 33.100891%, 33.427429%)" stop-opacity="1"/>
            <stop offset="0.195312" stop-color="rgb(9.365845%, 32.899475%, 33.221436%)" stop-opacity="1"/>
            <stop offset="0.203125" stop-color="rgb(9.272766%, 32.696533%, 33.016968%)" stop-opacity="1"/>
            <stop offset="0.210938" stop-color="rgb(9.179688%, 32.493591%, 32.810974%)" stop-opacity="1"/>
            <stop offset="0.21875" stop-color="rgb(9.086609%, 32.292175%, 32.60498%)" stop-opacity="1"/>
            <stop offset="0.226562" stop-color="rgb(8.99353%, 32.089233%, 32.398987%)" stop-opacity="1"/>
            <stop offset="0.234375" stop-color="rgb(8.900452%, 31.886292%, 32.192993%)" stop-opacity="1"/>
            <stop offset="0.242188" stop-color="rgb(8.807373%, 31.68335%, 31.988525%)" stop-opacity="1"/>
            <stop offset="0.25" stop-color="rgb(8.714294%, 31.481934%, 31.782532%)" stop-opacity="1"/>
            <stop offset="0.257813" stop-color="rgb(8.621216%, 31.278992%, 31.576538%)" stop-opacity="1"/>
            <stop offset="0.265625" stop-color="rgb(8.528137%, 31.07605%, 31.370544%)" stop-opacity="1"/>
            <stop offset="0.273438" stop-color="rgb(8.435059%, 30.874634%, 31.164551%)" stop-opacity="1"/>
            <stop offset="0.28125" stop-color="rgb(8.34198%, 30.671692%, 30.958557%)" stop-opacity="1"/>
            <stop offset="0.289063" stop-color="rgb(8.247375%, 30.46875%, 30.754089%)" stop-opacity="1"/>
            <stop offset="0.296875" stop-color="rgb(8.154297%, 30.267334%, 30.548096%)" stop-opacity="1"/>
            <stop offset="0.304688" stop-color="rgb(8.061218%, 30.064392%, 30.342102%)" stop-opacity="1"/>
            <stop offset="0.3125" stop-color="rgb(7.96814%, 29.86145%, 30.136108%)" stop-opacity="1"/>
            <stop offset="0.320313" stop-color="rgb(7.875061%, 29.658508%, 29.930115%)" stop-opacity="1"/>
            <stop offset="0.328125" stop-color="rgb(7.781982%, 29.457092%, 29.725647%)" stop-opacity="1"/>
            <stop offset="0.335938" stop-color="rgb(7.688904%, 29.25415%, 29.519653%)" stop-opacity="1"/>
            <stop offset="0.34375" stop-color="rgb(7.595825%, 29.051208%, 29.31366%)" stop-opacity="1"/>
            <stop offset="0.351563" stop-color="rgb(7.502747%, 28.849792%, 29.107666%)" stop-opacity="1"/>
            <stop offset="0.359375" stop-color="rgb(7.409668%, 28.646851%, 28.901672%)" stop-opacity="1"/>
            <stop offset="0.367188" stop-color="rgb(7.316589%, 28.443909%, 28.697205%)" stop-opacity="1"/>
            <stop offset="0.375" stop-color="rgb(7.223511%, 28.242493%, 28.491211%)" stop-opacity="1"/>
            <stop offset="0.382813" stop-color="rgb(7.128906%, 28.039551%, 28.285217%)" stop-opacity="1"/>
            <stop offset="0.390625" stop-color="rgb(7.035828%, 27.836609%, 28.079224%)" stop-opacity="1"/>
            <stop offset="0.398438" stop-color="rgb(6.942749%, 27.633667%, 27.87323%)" stop-opacity="1"/>
            <stop offset="0.40625" stop-color="rgb(6.84967%, 27.432251%, 27.667236%)" stop-opacity="1"/>
            <stop offset="0.414063" stop-color="rgb(6.756592%, 27.229309%, 27.462769%)" stop-opacity="1"/>
            <stop offset="0.421875" stop-color="rgb(6.663513%, 27.026367%, 27.256775%)" stop-opacity="1"/>
            <stop offset="0.429688" stop-color="rgb(6.570435%, 26.824951%, 27.050781%)" stop-opacity="1"/>
            <stop offset="0.4375" stop-color="rgb(6.477356%, 26.622009%, 26.844788%)" stop-opacity="1"/>
            <stop offset="0.445313" stop-color="rgb(6.384277%, 26.419067%, 26.638794%)" stop-opacity="1"/>
            <stop offset="0.453125" stop-color="rgb(6.291199%, 26.216125%, 26.434326%)" stop-opacity="1"/>
            <stop offset="0.460938" stop-color="rgb(6.19812%, 26.014709%, 26.228333%)" stop-opacity="1"/>
            <stop offset="0.46875" stop-color="rgb(6.103516%, 25.811768%, 26.022339%)" stop-opacity="1"/>
            <stop offset="0.476563" stop-color="rgb(6.010437%, 25.608826%, 25.816345%)" stop-opacity="1"/>
            <stop offset="0.484375" stop-color="rgb(5.917358%, 25.40741%, 25.610352%)" stop-opacity="1"/>
            <stop offset="0.492188" stop-color="rgb(5.82428%, 25.204468%, 25.405884%)" stop-opacity="1"/>
            <stop offset="0.5" stop-color="rgb(5.731201%, 25.001526%, 25.19989%)" stop-opacity="1"/>
            <stop offset="0.507813" stop-color="rgb(5.638123%, 24.80011%, 24.993896%)" stop-opacity="1"/>
            <stop offset="0.515625" stop-color="rgb(5.545044%, 24.597168%, 24.787903%)" stop-opacity="1"/>
            <stop offset="0.523438" stop-color="rgb(5.451965%, 24.394226%, 24.581909%)" stop-opacity="1"/>
            <stop offset="0.53125" stop-color="rgb(5.358887%, 24.191284%, 24.377441%)" stop-opacity="1"/>
            <stop offset="0.539062" stop-color="rgb(5.265808%, 23.989868%, 24.171448%)" stop-opacity="1"/>
            <stop offset="0.546875" stop-color="rgb(5.172729%, 23.786926%, 23.965454%)" stop-opacity="1"/>
            <stop offset="0.554688" stop-color="rgb(5.079651%, 23.583984%, 23.75946%)" stop-opacity="1"/>
            <stop offset="0.5625" stop-color="rgb(4.985046%, 23.382568%, 23.553467%)" stop-opacity="1"/>
            <stop offset="0.570313" stop-color="rgb(4.891968%, 23.179626%, 23.347473%)" stop-opacity="1"/>
            <stop offset="0.578125" stop-color="rgb(4.798889%, 22.976685%, 23.143005%)" stop-opacity="1"/>
            <stop offset="0.585938" stop-color="rgb(4.705811%, 22.773743%, 22.937012%)" stop-opacity="1"/>
            <stop offset="0.59375" stop-color="rgb(4.612732%, 22.572327%, 22.731018%)" stop-opacity="1"/>
            <stop offset="0.601563" stop-color="rgb(4.519653%, 22.369385%, 22.525024%)" stop-opacity="1"/>
            <stop offset="0.609375" stop-color="rgb(4.426575%, 22.166443%, 22.319031%)" stop-opacity="1"/>
            <stop offset="0.617188" stop-color="rgb(4.333496%, 21.965027%, 22.114563%)" stop-opacity="1"/>
            <stop offset="0.625" stop-color="rgb(4.240417%, 21.762085%, 21.908569%)" stop-opacity="1"/>
            <stop offset="0.632813" stop-color="rgb(4.147339%, 21.559143%, 21.702576%)" stop-opacity="1"/>
            <stop offset="0.640625" stop-color="rgb(4.05426%, 21.357727%, 21.496582%)" stop-opacity="1"/>
            <stop offset="0.648438" stop-color="rgb(3.959656%, 21.154785%, 21.290588%)" stop-opacity="1"/>
            <stop offset="0.65625" stop-color="rgb(3.866577%, 20.951843%, 21.086121%)" stop-opacity="1"/>
            <stop offset="0.664062" stop-color="rgb(3.773499%, 20.748901%, 20.880127%)" stop-opacity="1"/>
            <stop offset="0.671875" stop-color="rgb(3.68042%, 20.547485%, 20.674133%)" stop-opacity="1"/>
            <stop offset="0.679688" stop-color="rgb(3.587341%, 20.344543%, 20.46814%)" stop-opacity="1"/>
            <stop offset="0.6875" stop-color="rgb(3.494263%, 20.141602%, 20.262146%)" stop-opacity="1"/>
            <stop offset="0.695313" stop-color="rgb(3.401184%, 19.940186%, 20.056152%)" stop-opacity="1"/>
            <stop offset="0.703125" stop-color="rgb(3.308105%, 19.737244%, 19.851685%)" stop-opacity="1"/>
            <stop offset="0.710938" stop-color="rgb(3.215027%, 19.534302%, 19.645691%)" stop-opacity="1"/>
            <stop offset="0.71875" stop-color="rgb(3.121948%, 19.33136%, 19.439697%)" stop-opacity="1"/>
            <stop offset="0.726563" stop-color="rgb(3.02887%, 19.129944%, 19.233704%)" stop-opacity="1"/>
            <stop offset="0.734375" stop-color="rgb(2.935791%, 18.927002%, 19.02771%)" stop-opacity="1"/>
            <stop offset="0.742188" stop-color="rgb(2.841187%, 18.72406%, 18.823242%)" stop-opacity="1"/>
            <stop offset="0.75" stop-color="rgb(2.748108%, 18.522644%, 18.617249%)" stop-opacity="1"/>
            <stop offset="0.757813" stop-color="rgb(2.655029%, 18.319702%, 18.411255%)" stop-opacity="1"/>
            <stop offset="0.765625" stop-color="rgb(2.561951%, 18.11676%, 18.205261%)" stop-opacity="1"/>
            <stop offset="0.773438" stop-color="rgb(2.468872%, 17.915344%, 17.999268%)" stop-opacity="1"/>
            <stop offset="0.78125" stop-color="rgb(2.375793%, 17.712402%, 17.7948%)" stop-opacity="1"/>
            <stop offset="0.789062" stop-color="rgb(2.282715%, 17.50946%, 17.588806%)" stop-opacity="1"/>
            <stop offset="0.796875" stop-color="rgb(2.189636%, 17.306519%, 17.382812%)" stop-opacity="1"/>
            <stop offset="0.804688" stop-color="rgb(2.096558%, 17.105103%, 17.176819%)" stop-opacity="1"/>
            <stop offset="0.8125" stop-color="rgb(2.003479%, 16.902161%, 16.970825%)" stop-opacity="1"/>
            <stop offset="0.820313" stop-color="rgb(1.9104%, 16.699219%, 16.764832%)" stop-opacity="1"/>
            <stop offset="0.828125" stop-color="rgb(1.817322%, 16.497803%, 16.560364%)" stop-opacity="1"/>
            <stop offset="0.835938" stop-color="rgb(1.722717%, 16.294861%, 16.35437%)" stop-opacity="1"/>
            <stop offset="0.84375" stop-color="rgb(1.629639%, 16.091919%, 16.148376%)" stop-opacity="1"/>
            <stop offset="0.851563" stop-color="rgb(1.53656%, 15.890503%, 15.942383%)" stop-opacity="1"/>
            <stop offset="0.859375" stop-color="rgb(1.443481%, 15.687561%, 15.736389%)" stop-opacity="1"/>
            <stop offset="0.867188" stop-color="rgb(1.350403%, 15.484619%, 15.531921%)" stop-opacity="1"/>
            <stop offset="0.875" stop-color="rgb(1.257324%, 15.281677%, 15.325928%)" stop-opacity="1"/>
            <stop offset="0.882813" stop-color="rgb(1.164246%, 15.080261%, 15.119934%)" stop-opacity="1"/>
            <stop offset="0.890625" stop-color="rgb(1.071167%, 14.877319%, 14.91394%)" stop-opacity="1"/>
            <stop offset="0.898438" stop-color="rgb(0.978088%, 14.674377%, 14.707947%)" stop-opacity="1"/>
            <stop offset="0.90625" stop-color="rgb(0.88501%, 14.472961%, 14.503479%)" stop-opacity="1"/>
            <stop offset="0.914062" stop-color="rgb(0.791931%, 14.27002%, 14.297485%)" stop-opacity="1"/>
            <stop offset="0.921875" stop-color="rgb(0.697327%, 14.067078%, 14.091492%)" stop-opacity="1"/>
            <stop offset="0.929688" stop-color="rgb(0.604248%, 13.864136%, 13.885498%)" stop-opacity="1"/>
            <stop offset="0.9375" stop-color="rgb(0.511169%, 13.66272%, 13.679504%)" stop-opacity="1"/>
            <stop offset="0.945313" stop-color="rgb(0.418091%, 13.459778%, 13.473511%)" stop-opacity="1"/>
            <stop offset="0.953125" stop-color="rgb(0.325012%, 13.256836%, 13.269043%)" stop-opacity="1"/>
            <stop offset="0.960938" stop-color="rgb(0.231934%, 13.05542%, 13.063049%)" stop-opacity="1"/>
            <stop offset="0.96875" stop-color="rgb(0.138855%, 12.852478%, 12.857056%)" stop-opacity="1"/>
            <stop offset="1" stop-color="rgb(0.0457764%, 12.649536%, 12.651062%)" stop-opacity="1"/>
        </linearGradient>
    </defs>
    <g clip-path="url(#clip-0)">
        <g clip-path="url(#clip-1)">
            <path fill-rule="nonzero" fill="url(#linear-pattern-0)"
                  d="M 0 0 L 0 3303.460938 L 2248.449219 3303.460938 L 2248.449219 0 Z M 0 0 "/>
        </g>
    </g>
</svg>
