<?xml version="1.0" encoding="UTF-8"?>
<svg xmlns="http://www.w3.org/2000/svg" xmlns:xlink="http://www.w3.org/1999/xlink" width="3002" height="2016"
     viewBox="0 0 3002 2016">
    <path fill-rule="nonzero" fill="rgb(0%, 0%, 39.988708%)" fill-opacity="1"
          d="M 1373.640625 115.210938 C 1398.621094 108.539062 1413.460938 82.878906 1406.78125 57.898438 C 1400.109375 32.921875 1374.449219 18.089844 1349.480469 24.761719 L 1060.679688 102.140625 L 1060.628906 102.078125 C 1042.980469 106.808594 1030.390625 121.019531 1026.871094 137.761719 L 959.929688 387.621094 L 701.199219 582.578125 L 701.160156 582.53125 C 690.523438 590.539062 684.257812 602.21875 682.8125 614.488281 L 607.433594 1011.929688 L 291.445312 1197.191406 C 274.90625 1206.894531 266.519531 1225.183594 268.609375 1243.082031 L 302.59375 1630.546875 L 162.980469 1738.246094 C 151.035156 1747.472656 144.773438 1761.335938 144.765625 1775.34375 L 144.765625 1968.492188 C 144.765625 1994.382812 165.757812 2015.371094 191.644531 2015.371094 C 217.535156 2015.371094 238.523438 1994.382812 238.523438 1968.492188 L 238.523438 1798.179688 L 377.136719 1691.078125 C 391.136719 1681.921875 399.765625 1665.542969 398.207031 1647.714844 L 398.195312 1647.714844 L 364.4375 1262.855469 L 669.59375 1083.738281 C 682.613281 1077.523438 692.605469 1065.410156 695.492188 1050.160156 L 695.394531 1050.035156 L 771.929688 646.511719 L 1027.140625 454.191406 C 1036.210938 448.089844 1043.199219 438.808594 1046.261719 427.429688 L 1046.199219 427.378906 L 1110.980469 185.578125 L 1373.640625 115.210938 "/>
    <path fill-rule="nonzero" fill="rgb(0%, 0%, 39.988708%)" fill-opacity="1"
          d="M 962.207031 2008.230469 C 984.152344 2021.878906 1013.019531 2015.15625 1026.660156 1993.214844 C 1040.308594 1971.269531 1033.589844 1942.402344 1011.648438 1928.753906 L 711.726562 1742.402344 L 689.769531 1493.25 C 688.445312 1478.355469 680.292969 1465.714844 668.667969 1458.128906 L 344.109375 1200.996094 C 323.890625 1185.019531 294.53125 1188.464844 278.554688 1208.6875 C 262.574219 1228.90625 266.019531 1258.265625 286.242188 1274.242188 L 598.347656 1521.511719 L 620.417969 1769.828125 C 620.410156 1785.503906 628.265625 1800.828125 642.554688 1809.710938 L 642.597656 1809.648438 L 962.207031 2008.230469 "/>
    <path fill-rule="nonzero" fill="rgb(0%, 0%, 39.988708%)" fill-opacity="1"
          d="M 1289.929688 489.949219 C 1264.648438 484.699219 1239.878906 500.929688 1234.628906 526.210938 C 1229.378906 551.488281 1245.609375 576.261719 1270.890625 581.511719 L 1872.640625 706.398438 L 1872.640625 706.519531 C 1890.308594 710.179688 1907.71875 703.371094 1918.429688 690.328125 L 2222.738281 369.269531 C 2231.328125 360.210938 2235.589844 348.621094 2235.589844 337.039062 L 2235.589844 92.929688 C 2235.589844 68.5 2216.910156 48.429688 2193.058594 46.25 L 1825.441406 1.011719 L 1825.441406 0.988281 C 1808.070312 -1.140625 1791.75 6.511719 1782.03125 19.621094 L 1673.101562 142.460938 L 1378.589844 26.410156 C 1354.53125 17 1327.390625 28.890625 1317.980469 52.949219 C 1308.578125 77.019531 1320.46875 104.160156 1344.53125 113.558594 L 1666.371094 240.390625 C 1684.699219 249.011719 1707.269531 244.980469 1721.378906 229.050781 L 1721.289062 228.898438 L 1838.25 97 L 2141.839844 134.371094 L 2141.839844 318.53125 L 1866.148438 609.539062 L 1289.929688 489.949219 "/>
    <path fill-rule="nonzero" fill="rgb(0%, 0%, 39.988708%)" fill-opacity="1"
          d="M 1912.210938 1377.65625 C 1888.148438 1386.957031 1876.171875 1414.015625 1885.46875 1438.078125 C 1894.78125 1462.140625 1921.828125 1474.113281 1945.898438 1464.8125 L 2438.300781 1274.742188 L 2438.359375 1274.886719 C 2462.5 1265.566406 2474.53125 1238.425781 2465.210938 1214.277344 L 2464.390625 1212.285156 L 2387.398438 981.359375 L 2501.441406 789.570312 L 2501.511719 789.609375 C 2508.191406 778.371094 2509.628906 765.46875 2506.550781 753.75 L 2433.480469 365.261719 C 2429.550781 344.371094 2412.320312 329.351562 2392.179688 327.300781 L 2197.140625 291.078125 C 2171.761719 286.429688 2147.410156 303.238281 2142.761719 328.621094 C 2138.109375 353.988281 2154.921875 378.351562 2180.289062 383 L 2347.390625 414.03125 L 2411.980469 756.890625 L 2297.511719 949.410156 C 2289.628906 961.070312 2287.058594 976.140625 2291.851562 990.53125 L 2292.050781 990.460938 L 2363.101562 1203.613281 L 1912.210938 1377.65625 "/>
    <path fill-rule="nonzero" fill="rgb(0%, 0%, 39.988708%)" fill-opacity="1"
          d="M 2763.480469 1968.492188 C 2763.480469 1994.382812 2784.46875 2015.371094 2810.351562 2015.371094 C 2836.238281 2015.371094 2857.230469 1994.382812 2857.230469 1968.492188 L 2857.230469 1742.082031 C 2857.230469 1723.101562 2845.960938 1706.746094 2829.730469 1699.375 L 2732.589844 1643.300781 L 2821.570312 1489.179688 L 2821.75 1489.285156 C 2828.648438 1477.324219 2829.679688 1463.589844 2825.75 1451.410156 L 2714.429688 1035.972656 L 2709.609375 838.269531 C 2709.058594 816.128906 2693.21875 797.960938 2672.449219 793.589844 L 2468.351562 738.898438 C 2443.378906 732.230469 2417.710938 747.058594 2411.039062 772.039062 C 2404.371094 797.011719 2419.210938 822.679688 2444.191406 829.351562 L 2616.949219 875.640625 L 2621.089844 1040.214844 C 2620.78125 1045.160156 2621.261719 1050.230469 2622.609375 1055.28125 L 2622.671875 1055.265625 L 2730.96875 1459.421875 L 2630.621094 1633.230469 C 2629.78125 1634.421875 2628.980469 1635.652344 2628.238281 1636.941406 C 2615.300781 1659.355469 2622.980469 1688.03125 2645.398438 1700.976562 L 2763.480469 1768.90625 L 2763.480469 1968.492188 "/>
    <path fill-rule="nonzero" fill="rgb(0%, 0%, 39.988708%)" fill-opacity="1"
          d="M 1438.851562 973.011719 C 1440.871094 998.800781 1463.410156 1018.0625 1489.199219 1016.039062 C 1514.988281 1014.019531 1534.25 991.46875 1532.230469 965.691406 C 1532.199219 965.238281 1519.820312 807.308594 1338.011719 792.761719 C 1268.378906 787.191406 1210.898438 774.679688 1171.578125 763.878906 L 1318.089844 563.261719 L 1318.261719 563.378906 C 1320.261719 560.648438 1321.921875 557.769531 1323.25 554.789062 C 1339.28125 525.21875 1420.460938 360.058594 1252.128906 327.988281 C 1144.320312 307.449219 1065.851562 244.699219 1065.621094 244.53125 C 1045.289062 228.648438 1015.941406 232.261719 1000.070312 252.578125 C 984.191406 272.910156 987.796875 302.261719 1008.121094 318.128906 C 1008.398438 318.351562 1104.300781 395.03125 1234.910156 419.898438 C 1284.21875 429.300781 1247.378906 499.171875 1241.03125 510.539062 L 1060.910156 757.191406 C 1057.511719 761 1054.679688 765.429688 1052.621094 770.410156 C 1042.710938 794.320312 1054.050781 821.761719 1077.960938 831.671875 L 1078 831.578125 C 1079.21875 832.089844 1182.191406 874.269531 1330.691406 886.140625 C 1432.710938 894.300781 1438.828125 972.789062 1438.851562 973.011719 "/>
    <path fill-rule="nonzero" fill="rgb(0%, 0%, 39.988708%)" fill-opacity="1"
          d="M 1452.210938 936.570312 L 1011.019531 1386.101562 C 1002.460938 1393.644531 996.621094 1404.300781 995.390625 1416.535156 L 940.414062 1963.917969 C 937.886719 1989.601562 956.671875 2012.480469 982.351562 2015.003906 C 1008.03125 2017.53125 1030.910156 1998.75 1033.441406 1973.066406 L 1086.890625 1442.265625 L 1485.539062 1036.082031 L 1884.191406 1442.265625 L 1937.628906 1973.066406 C 1940.160156 1998.75 1963.039062 2017.53125 1988.71875 2015.003906 C 2014.398438 2012.480469 2033.179688 1989.601562 2030.660156 1963.917969 L 1975.691406 1416.542969 C 1974.460938 1404.292969 1968.601562 1393.621094 1960.039062 1386.078125 L 1518.871094 936.570312 L 1518.589844 936.300781 C 1501.71875 919.421875 1474.578125 917.808594 1455.460938 933.570312 C 1454.871094 934.050781 1454.300781 934.570312 1453.738281 935.089844 C 1453.21875 935.578125 1452.71875 936.070312 1452.210938 936.570312 "/>
    <path fill-rule="nonzero" fill="rgb(0%, 0%, 39.988708%)" fill-opacity="1"
          d="M 2954.121094 2015.371094 C 2980.011719 2015.371094 3001 1994.382812 3001 1968.492188 C 3001 1942.601562 2980.011719 1921.613281 2954.121094 1921.613281 L 47.878906 1921.613281 C 21.988281 1921.613281 1 1942.601562 1 1968.492188 C 1 1994.382812 21.988281 2015.371094 47.878906 2015.371094 L 2954.121094 2015.371094 "/>
    <path fill-rule="evenodd" fill="rgb(32.542419%, 48.631287%, 88.671875%)" fill-opacity="1"
          d="M 1345.910156 501.570312 L 1866.148438 609.539062 L 2141.839844 318.53125 L 2141.839844 134.371094 L 1838.25 97 L 1721.289062 228.898438 L 1721.378906 229.050781 C 1707.269531 244.980469 1684.699219 249.011719 1666.371094 240.390625 L 1358.800781 119.191406 L 1110.980469 185.578125 L 1090.53125 261.941406 C 1121.929688 282.121094 1180.570312 314.359375 1252.128906 327.988281 C 1371.75 350.78125 1365.371094 440.78125 1345.910156 501.570312 "/>
    <path fill-rule="evenodd" fill="rgb(32.542419%, 48.631287%, 88.671875%)" fill-opacity="1"
          d="M 1872.640625 706.398438 L 1300.300781 587.621094 L 1171.578125 763.878906 C 1210.898438 774.679688 1268.378906 787.191406 1338.011719 792.761719 C 1481.140625 804.210938 1519.261719 904.53125 1529.019531 946.921875 L 1940.910156 1366.578125 L 2363.101562 1203.613281 L 2292.050781 990.460938 L 2291.851562 990.53125 C 2287.058594 976.140625 2289.628906 961.070312 2297.511719 949.410156 L 2411.980469 756.890625 L 2347.390625 414.03125 L 2205.328125 387.648438 L 1918.429688 690.328125 C 1907.71875 703.371094 1890.308594 710.179688 1872.640625 706.519531 L 1872.640625 706.398438 "/>
    <path fill-rule="evenodd" fill="rgb(32.542419%, 48.631287%, 88.671875%)" fill-opacity="1"
          d="M 1046.199219 427.378906 Z M 1060.910156 757.191406 L 1240.828125 510.800781 C 1240.890625 510.710938 1240.949219 510.621094 1241.03125 510.539062 C 1241.070312 510.441406 1241.121094 510.351562 1241.179688 510.261719 C 1247.960938 498.058594 1283.828125 429.21875 1234.910156 419.898438 C 1165.601562 406.710938 1106.058594 378.910156 1065.398438 355.699219 L 1046.261719 427.429688 C 1043.199219 438.808594 1036.210938 448.089844 1027.140625 454.191406 L 771.929688 646.511719 L 695.394531 1050.035156 L 695.492188 1050.160156 C 692.605469 1065.410156 682.613281 1077.523438 669.59375 1083.738281 L 397.605469 1243.378906 L 668.667969 1458.128906 C 680.292969 1465.714844 688.445312 1478.355469 689.769531 1493.25 L 711.726562 1742.402344 L 947.921875 1889.164062 L 995.390625 1416.535156 C 996.621094 1404.300781 1002.460938 1393.644531 1011.019531 1386.101562 L 1434.410156 954.710938 C 1425.851562 930.929688 1401.121094 891.78125 1330.691406 886.140625 C 1182.191406 874.269531 1079.21875 832.089844 1078 831.578125 L 1077.960938 831.671875 C 1054.050781 821.761719 1042.710938 794.320312 1052.621094 770.410156 C 1054.679688 765.429688 1057.511719 761 1060.910156 757.191406 "/>
    <path fill-rule="evenodd" fill="rgb(32.542419%, 48.631287%, 88.671875%)" fill-opacity="1"
          d="M 1485.539062 1036.082031 L 1086.890625 1442.265625 L 1038.621094 1921.613281 L 1932.449219 1921.613281 L 1884.191406 1442.265625 L 1485.539062 1036.082031 "/>
    <path fill-rule="evenodd" fill="rgb(32.542419%, 48.631287%, 88.671875%)" fill-opacity="1"
          d="M 398.195312 1647.714844 Z M 642.597656 1809.648438 Z M 620.417969 1769.828125 L 598.347656 1521.511719 L 371.351562 1341.671875 L 398.207031 1647.714844 C 399.765625 1665.542969 391.136719 1681.921875 377.136719 1691.078125 L 238.523438 1798.179688 L 238.523438 1921.613281 L 822.800781 1921.613281 L 642.554688 1809.710938 C 628.265625 1800.828125 620.410156 1785.503906 620.417969 1769.828125 "/>
    <path fill-rule="evenodd" fill="rgb(32.542419%, 48.631287%, 88.671875%)" fill-opacity="1"
          d="M 2622.671875 1055.265625 Z M 1979.25 1451.941406 L 2026.410156 1921.613281 L 2763.480469 1921.613281 L 2763.480469 1768.90625 L 2645.398438 1700.976562 C 2622.980469 1688.03125 2615.300781 1659.355469 2628.238281 1636.941406 C 2628.980469 1635.652344 2629.78125 1634.421875 2630.621094 1633.230469 L 2730.96875 1459.421875 L 2622.609375 1055.28125 C 2621.261719 1050.230469 2620.78125 1045.160156 2621.089844 1040.214844 L 2616.949219 875.640625 L 2473.171875 837.109375 L 2387.398438 981.359375 L 2464.390625 1212.285156 L 2465.210938 1214.277344 C 2474.53125 1238.425781 2462.5 1265.566406 2438.359375 1274.886719 L 2438.300781 1274.742188 L 1979.25 1451.941406 "/>
</svg>
