<?xml version="1.0" encoding="UTF-8"?>
<svg xmlns="http://www.w3.org/2000/svg" xmlns:xlink="http://www.w3.org/1999/xlink" width="3001" height="1886"
     viewBox="0 0 3001 1886">
    <path fill-rule="evenodd" fill="rgb(9.790039%, 9.790039%, 9.790039%)" fill-opacity="1"
          d="M 1750.289062 366.191406 L 1329.160156 1327.570312 L 1326.191406 1334.335938 L 1379.578125 1383.214844 L 1543.050781 1382.8125 C 1554.78125 1413.585938 1595.539062 1418.023438 1614.339844 1392.019531 L 1660.320312 1327.570312 L 1810.140625 1117.546875 L 1884.328125 1013.554688 C 1901.691406 989.324219 1887.339844 955.261719 1858.859375 949.730469 L 1861.269531 594.890625 C 1894.96875 586.070312 1893.488281 543.25 1882.621094 529.769531 L 1810.140625 440.179688 L 1750.289062 366.191406 "/>
    <path fill-rule="evenodd" fill="rgb(9.790039%, 9.790039%, 9.790039%)" fill-opacity="1"
          d="M 188.773438 578.910156 L 421.941406 888.429688 C 491.707031 815.601562 598.761719 790.289062 694.566406 826.578125 L 1059.03125 30.578125 L 485.023438 0.738281 C 468.242188 0.0195312 452.914062 9.011719 445.859375 24.089844 L 320.601562 290.921875 L 185.605469 534.628906 C 177.828125 548.75 179.039062 566.011719 188.773438 578.910156 "/>
    <path fill-rule="evenodd" fill="rgb(42.747498%, 42.747498%, 42.747498%)" fill-opacity="1"
          d="M 2898.589844 1409.054688 L 2719.441406 1409.054688 C 2584.328125 1222.148438 2307.058594 1222.148438 2171.960938 1409.054688 L 1851.011719 1409.054688 C 1828.378906 1409.054688 1810.140625 1390.808594 1810.140625 1368.191406 C 1810.140625 988.222656 1810.140625 634.261719 1810.140625 263.441406 C 1810.140625 240.808594 1828.378906 222.570312 1851.011719 222.570312 L 2461.03125 222.578125 C 2566.648438 222.578125 2653.039062 299.898438 2678.300781 413.761719 L 2096.421875 413.75 C 2073.800781 413.75 2055.558594 431.988281 2055.558594 454.609375 L 2055.558594 800 C 2055.558594 916.753906 2150.421875 1011.609375 2267.171875 1011.609375 L 2914.121094 1011.609375 C 2930.179688 1037.675781 2939.460938 1068.339844 2939.460938 1101.121094 L 2939.460938 1367.949219 C 2939.460938 1390.566406 2921.21875 1409.054688 2898.589844 1409.054688 Z M 2300.738281 1185.035156 L 2095.941406 1185.035156 C 2042.101562 1185.035156 2042.109375 1103.304688 2095.941406 1103.304688 L 2300.738281 1103.3125 C 2354.660156 1103.3125 2354.398438 1185.035156 2300.738281 1185.035156 "/>
    <path fill-rule="evenodd" fill="rgb(42.747498%, 42.747498%, 42.747498%)" fill-opacity="1"
          d="M 2898.589844 1678.066406 L 2775.589844 1678.066406 C 2805.390625 1541.136719 2747.398438 1403.9375 2635.859375 1327.570312 L 2898.589844 1327.570312 C 2955.019531 1327.570312 3000.988281 1373.535156 3000.988281 1429.976562 L 3000.988281 1575.664062 C 3001.238281 1632.097656 2955.261719 1678.066406 2898.589844 1678.066406 Z M 2115.789062 1678.074219 L 1456.320312 1678.085938 C 1484.578125 1547.5625 1433.75 1413.496094 1326.191406 1334.335938 L 1329.160156 1327.570312 L 2255.53125 1327.570312 C 2143.960938 1403.957031 2086.039062 1541.121094 2115.789062 1678.074219 Z M 796.527344 1678.085938 L 734.417969 1678.085938 C 764.175781 1541.121094 706.273438 1403.972656 594.683594 1327.570312 L 936.253906 1327.570312 C 818.675781 1409.425781 771.070312 1537.558594 796.527344 1678.085938 Z M 73.675781 1673.648438 C 31.683594 1660.867188 1 1621.757812 1 1575.664062 L 1 1429.976562 C 1 1373.542969 46.96875 1327.570312 103.402344 1327.570312 L 214.355469 1327.570312 C 104.242188 1402.960938 46.070312 1537.835938 73.675781 1673.648438 "/>
    <path fill-rule="evenodd" fill="rgb(42.747498%, 42.747498%, 42.747498%)" fill-opacity="1"
          d="M 1003.28125 1292 L 815.027344 1205.375 C 888.371094 1096.898438 866.648438 950.664062 765.53125 867.691406 L 1138.691406 52.910156 L 1682.941406 316.320312 L 1254.660156 1294.035156 C 1175.078125 1261.371094 1083.328125 1259.980469 1003.28125 1292 Z M 1750.289062 366.191406 L 1882.621094 529.769531 L 1810.140625 440.179688 Z M 1326.191406 1334.335938 L 1750.289062 366.191406 L 1329.160156 1327.570312 L 1326.191406 1334.335938 "/>
    <path fill-rule="evenodd" fill="rgb(42.747498%, 42.747498%, 42.747498%)" fill-opacity="1"
          d="M 404.519531 1561.074219 C 344.925781 1561.074219 344.925781 1651.5625 404.519531 1651.5625 C 464.117188 1651.5625 464.117188 1561.074219 404.519531 1561.074219 "/>
    <path fill-rule="evenodd" fill="rgb(42.747498%, 42.747498%, 42.747498%)" fill-opacity="1"
          d="M 1126.421875 1561.074219 C 1066.820312 1561.074219 1066.820312 1651.5625 1126.421875 1651.5625 C 1186.011719 1651.5625 1186.011719 1561.074219 1126.421875 1561.074219 "/>
    <path fill-rule="evenodd" fill="rgb(42.747498%, 42.747498%, 42.747498%)" fill-opacity="1"
          d="M 2445.699219 1561.074219 C 2386.101562 1561.074219 2386.101562 1651.5625 2445.699219 1651.5625 C 2505.410156 1651.5625 2505.128906 1561.074219 2445.699219 1561.074219 "/>
    <path fill-rule="evenodd" fill="rgb(42.747498%, 42.747498%, 42.747498%)" fill-opacity="1"
          d="M 604.9375 1258.492188 C 497.425781 1258.492188 410.113281 1171.171875 410.113281 1063.667969 C 410.113281 956.160156 497.433594 868.839844 604.9375 868.839844 C 712.445312 868.839844 799.761719 956.167969 799.761719 1063.667969 C 799.761719 1171.171875 712.449219 1258.492188 604.9375 1258.492188 "/>
    <path fill-rule="evenodd" fill="rgb(42.747498%, 42.747498%, 42.747498%)" fill-opacity="1"
          d="M 242.75 1310.117188 L 416.921875 1041.78125 C 439.636719 1006.917969 507.644531 1052.152344 485.269531 1086.292969 L 365.367188 1271.007812 C 321.390625 1276.117188 279.953125 1289.707031 242.75 1310.117188 "/>
    <path fill-rule="evenodd" fill="rgb(9.790039%, 9.790039%, 9.790039%)" fill-opacity="1"
          d="M 1126.421875 1327.335938 C 972.699219 1327.335938 847.441406 1452.601562 847.441406 1606.320312 C 847.441406 1760.039062 972.457031 1885.304688 1126.421875 1885.304688 C 1280.390625 1885.304688 1405.398438 1760.039062 1405.398438 1606.320312 C 1405.398438 1452.601562 1280.390625 1327.335938 1126.421875 1327.335938 Z M 999.449219 1606.3125 C 999.449219 1536.261719 1056.371094 1479.347656 1126.421875 1479.347656 C 1196.46875 1479.347656 1253.390625 1536.261719 1253.390625 1606.3125 C 1253.390625 1676.363281 1196.46875 1733.28125 1126.421875 1733.28125 C 1056.371094 1733.28125 999.449219 1676.363281 999.449219 1606.3125 "/>
    <path fill-rule="evenodd" fill="rgb(9.790039%, 9.790039%, 9.790039%)" fill-opacity="1"
          d="M 404.519531 1327.335938 C 250.800781 1327.335938 125.535156 1452.601562 125.535156 1606.320312 C 125.535156 1760.039062 250.550781 1885.304688 404.519531 1885.304688 C 558.488281 1885.304688 683.503906 1760.039062 683.503906 1606.320312 C 683.503906 1452.601562 558.238281 1327.335938 404.519531 1327.335938 Z M 404.519531 1479.347656 C 474.570312 1479.347656 531.488281 1536.261719 531.488281 1606.3125 C 531.488281 1676.363281 474.570312 1733.28125 404.519531 1733.28125 C 334.46875 1733.28125 277.554688 1676.363281 277.554688 1606.3125 C 277.554688 1536.261719 334.46875 1479.347656 404.519531 1479.347656 "/>
    <path fill-rule="evenodd" fill="rgb(9.790039%, 9.790039%, 9.790039%)" fill-opacity="1"
          d="M 2445.699219 1327.335938 C 2291.980469 1327.335938 2166.710938 1452.601562 2166.710938 1606.320312 C 2166.710938 1760.039062 2291.730469 1885.304688 2445.699219 1885.304688 C 2599.421875 1885.304688 2724.679688 1760.039062 2724.679688 1606.320312 C 2724.679688 1452.601562 2599.421875 1327.335938 2445.699219 1327.335938 Z M 2318.730469 1606.3125 C 2318.730469 1536.261719 2375.648438 1479.347656 2445.699219 1479.347656 C 2515.75 1479.347656 2572.671875 1536.261719 2572.671875 1606.3125 C 2572.671875 1676.363281 2515.75 1733.28125 2445.699219 1733.28125 C 2375.648438 1733.28125 2318.730469 1676.363281 2318.730469 1606.3125 "/>
    <path fill-rule="evenodd" fill="rgb(9.790039%, 9.790039%, 9.790039%)" fill-opacity="1"
          d="M 2137.28125 800.011719 C 2137.28125 871.519531 2195.660156 929.886719 2267.171875 929.886719 L 2748.761719 929.886719 L 2690.398438 495.488281 L 2137.28125 495.480469 L 2137.28125 800.011719 "/>
</svg>
