<?xml version="1.0" encoding="UTF-8"?>
<svg xmlns="http://www.w3.org/2000/svg" xmlns:xlink="http://www.w3.org/1999/xlink" width="3001" height="3000"
     viewBox="0 0 3001 3000">
    <path fill-rule="evenodd" fill="rgb(0%, 0%, 39.988708%)" fill-opacity="1"
          d="M 2411.28125 2999.988281 L 590.6875 2999.988281 C 265.546875 2999.988281 1 2735.441406 1 2410.273438 L 1 589.710938 C 1 264.558594 265.527344 0.0195312 590.6875 0.0195312 L 2411.28125 0.0195312 C 2736.441406 0.0195312 3001 264.539062 3001 589.710938 L 3001 2410.300781 C 3000.96875 2735.460938 2736.429688 2999.988281 2411.28125 2999.988281 Z M 590.6875 68.71875 C 303.429688 68.71875 69.703125 302.421875 69.703125 589.710938 L 69.703125 2410.300781 C 69.703125 2697.585938 303.402344 2931.289062 590.6875 2931.289062 L 2411.28125 2931.289062 C 2698.570312 2931.289062 2932.269531 2697.585938 2932.269531 2410.300781 L 2932.269531 589.710938 C 2932.269531 302.449219 2698.570312 68.71875 2411.28125 68.71875 L 590.6875 68.71875 "/>
    <path fill-rule="evenodd" fill="rgb(0%, 0%, 39.988708%)" fill-opacity="1"
          d="M 2966.621094 856.660156 L 2312.238281 856.660156 C 2150.71875 856.660156 2019.351562 725.269531 2019.351562 563.769531 L 2019.351562 34.371094 C 2019.351562 -10.851562 2088.050781 -10.851562 2088.050781 34.371094 L 2088.050781 563.75 C 2088.050781 687.371094 2188.628906 787.941406 2312.21875 787.941406 L 2966.601562 787.941406 C 3011.828125 787.941406 3011.820312 856.660156 2966.621094 856.660156 "/>
    <path fill-rule="evenodd" fill="rgb(100%, 39.988708%, 0%)" fill-opacity="1"
          d="M 2315.03125 2569.214844 L 686.945312 2569.214844 C 641.730469 2569.214844 641.730469 2500.511719 686.945312 2500.511719 L 2315.03125 2500.511719 C 2360.238281 2500.511719 2360.25 2569.214844 2315.03125 2569.214844 "/>
    <path fill-rule="evenodd" fill="rgb(100%, 39.988708%, 0%)" fill-opacity="1"
          d="M 802.980469 1247.261719 L 375.972656 1247.261719 C 343.535156 1247.261719 329.242188 1206.078125 354.652344 1185.949219 C 467.414062 1096.609375 714 974.851562 714 845.46875 C 714 689.160156 510.863281 627.160156 423.046875 755.75 C 397.539062 793.109375 340.8125 754.359375 366.328125 717.011719 C 491.992188 533.050781 782.691406 621.800781 782.691406 845.5 C 782.691406 985.449219 612.308594 1092.398438 484.203125 1178.578125 L 802.953125 1178.578125 C 848.132812 1178.578125 848.214844 1247.261719 802.980469 1247.261719 "/>
    <path fill-rule="evenodd" fill="rgb(100%, 39.988708%, 0%)" fill-opacity="1"
          d="M 1187.558594 945.621094 C 1097.109375 945.621094 1023.519531 872.03125 1023.519531 781.570312 C 1023.519531 691.121094 1097.109375 617.53125 1187.558594 617.53125 C 1278.019531 617.53125 1351.609375 691.121094 1351.609375 781.570312 C 1351.609375 872.03125 1278.019531 945.621094 1187.558594 945.621094 Z M 1187.558594 686.191406 C 1062.050781 686.191406 1062.03125 876.941406 1187.558594 876.941406 C 1313.101562 876.941406 1313.078125 686.191406 1187.558594 686.191406 "/>
    <path fill-rule="evenodd" fill="rgb(100%, 39.988708%, 0%)" fill-opacity="1"
          d="M 1154.398438 1247.261719 C 1121.328125 1247.261719 1107.289062 1204.621094 1134.238281 1185.089844 C 1292.46875 1070.519531 1283.070312 785.78125 1282.949219 782.929688 C 1281.140625 737.671875 1349.828125 735.050781 1351.609375 780.210938 C 1352.128906 793.398438 1362.25 1104.828125 1174.558594 1240.75 C 1168.449219 1245.140625 1161.390625 1247.261719 1154.398438 1247.261719 "/>
    <path fill-rule="evenodd" fill="rgb(100%, 39.988708%, 0%)" fill-opacity="1"
          d="M 1292.878906 2405.574219 C 977.402344 2405.574219 773.460938 2061.328125 934.152344 1782.941406 C 1048.539062 1584.75 1302.851562 1516.578125 1501.058594 1631.03125 C 1540.25 1653.648438 1505.808594 1713.109375 1466.710938 1690.519531 C 1200.269531 1536.578125 879.578125 1783.640625 959.054688 2080.046875 C 1038.761719 2377.300781 1439.609375 2430.019531 1593.441406 2163.53125 C 1616.03125 2124.410156 1675.570312 2158.683594 1652.929688 2197.882812 C 1578.25 2327.21875 1441.171875 2405.574219 1292.878906 2405.574219 "/>
    <path fill-rule="evenodd" fill="rgb(100%, 39.988708%, 0%)" fill-opacity="1"
          d="M 1938.300781 2405.503906 C 1836.171875 2405.503906 1753.058594 2322.421875 1753.058594 2220.296875 L 1753.058594 1941.738281 C 1753.058594 1896.519531 1821.769531 1896.53125 1821.769531 1941.738281 L 1821.769531 2220.289062 C 1821.769531 2373.621094 2054.78125 2373.578125 2054.78125 2220.289062 L 2054.769531 1941.738281 C 2054.769531 1896.519531 2123.480469 1896.53125 2123.480469 1941.738281 L 2123.480469 2220.289062 C 2123.53125 2322.394531 2040.441406 2405.503906 1938.300781 2405.503906 "/>
    <path fill-rule="evenodd" fill="rgb(85.546875%, 85.546875%, 85.546875%)" fill-opacity="1"
          d="M 2829.078125 2233.003906 C 2829.058594 2558.160156 2564.5 2822.691406 2239.359375 2822.691406 L 418.769531 2822.691406 C 356.308594 2822.691406 296.089844 2812.929688 239.546875 2794.851562 C 332.226562 2879.550781 455.53125 2931.28125 590.6875 2931.28125 L 2411.28125 2931.28125 C 2698.570312 2931.28125 2932.269531 2697.578125 2932.269531 2410.292969 L 2932.269531 856.648438 L 2829.078125 856.648438 L 2829.078125 2233.003906 "/>
</svg>
