<?xml version="1.0" encoding="UTF-8"?>
<svg xmlns="http://www.w3.org/2000/svg" xmlns:xlink="http://www.w3.org/1999/xlink" width="3200" height="3200"
     viewBox="0 0 3200 3200">
    <defs>
        <clipPath id="clip-0">
            <path clip-rule="nonzero" d="M 442 425 L 1941 425 L 1941 2821 L 442 2821 Z M 442 425 "/>
        </clipPath>
        <clipPath id="clip-1">
            <path clip-rule="evenodd"
                  d="M 452.0625 2748.328125 C 418.492188 2577.050781 485.003906 2505.21875 501.65625 2424.320312 C 456.507812 2296.210938 432.425781 1815.238281 520.84375 1723.640625 C 462.179688 1639.058594 438.121094 1161.191406 511.015625 1029.609375 C 465.007812 868.769531 562.914062 455.929688 721.4375 472.871094 C 1057.21875 405.46875 1376.480469 414.460938 1689.5 472.671875 C 1799.988281 442.949219 1827.640625 925.699219 1801.808594 998.359375 C 1865.300781 1114.808594 1897.960938 1532.371094 1845.160156 1680.96875 C 1945.839844 1818.761719 1931.261719 2286.289062 1881.039062 2421.171875 C 1884.480469 2479.730469 1971.589844 2608.929688 1928.789062 2784.808594 C 1463.519531 2771.148438 575.800781 2895.261719 452.0625 2748.328125 "/>
        </clipPath>
        <linearGradient id="linear-pattern-0" gradientUnits="userSpaceOnUse" x1="-0.71374" y1="0" x2="1.755595" y2="0"
                        gradientTransform="matrix(-638.287, -1002.34, 1002.34, -638.287, 1469.19, 2209.67)">
            <stop offset="0" stop-color="rgb(79.214478%, 41.175842%, 13.33313%)" stop-opacity="1"/>
            <stop offset="0.25" stop-color="rgb(79.214478%, 41.175842%, 13.33313%)" stop-opacity="1"/>
            <stop offset="0.28125" stop-color="rgb(79.214478%, 41.175842%, 13.33313%)" stop-opacity="1"/>
            <stop offset="0.289062" stop-color="rgb(79.214478%, 41.175842%, 13.33313%)" stop-opacity="1"/>
            <stop offset="0.292969" stop-color="rgb(79.412842%, 41.351318%, 13.484192%)" stop-opacity="1"/>
            <stop offset="0.296875" stop-color="rgb(79.60968%, 41.525269%, 13.635254%)" stop-opacity="1"/>
            <stop offset="0.300781" stop-color="rgb(79.806519%, 41.699219%, 13.786316%)" stop-opacity="1"/>
            <stop offset="0.304688" stop-color="rgb(80.003357%, 41.873169%, 13.938904%)" stop-opacity="1"/>
            <stop offset="0.308594" stop-color="rgb(80.198669%, 42.047119%, 14.089966%)" stop-opacity="1"/>
            <stop offset="0.3125" stop-color="rgb(80.395508%, 42.221069%, 14.241028%)" stop-opacity="1"/>
            <stop offset="0.316406" stop-color="rgb(80.592346%, 42.39502%, 14.39209%)" stop-opacity="1"/>
            <stop offset="0.320312" stop-color="rgb(80.789185%, 42.56897%, 14.543152%)" stop-opacity="1"/>
            <stop offset="0.324219" stop-color="rgb(80.986023%, 42.74292%, 14.694214%)" stop-opacity="1"/>
            <stop offset="0.328125" stop-color="rgb(81.182861%, 42.91687%, 14.846802%)" stop-opacity="1"/>
            <stop offset="0.332031" stop-color="rgb(81.3797%, 43.09082%, 14.997864%)" stop-opacity="1"/>
            <stop offset="0.335938" stop-color="rgb(81.576538%, 43.264771%, 15.148926%)" stop-opacity="1"/>
            <stop offset="0.339844" stop-color="rgb(81.773376%, 43.438721%, 15.299988%)" stop-opacity="1"/>
            <stop offset="0.34375" stop-color="rgb(81.970215%, 43.612671%, 15.45105%)" stop-opacity="1"/>
            <stop offset="0.347656" stop-color="rgb(82.167053%, 43.786621%, 15.602112%)" stop-opacity="1"/>
            <stop offset="0.351562" stop-color="rgb(82.363892%, 43.960571%, 15.7547%)" stop-opacity="1"/>
            <stop offset="0.355469" stop-color="rgb(82.559204%, 44.134521%, 15.905762%)" stop-opacity="1"/>
            <stop offset="0.359375" stop-color="rgb(82.756042%, 44.308472%, 16.056824%)" stop-opacity="1"/>
            <stop offset="0.363281" stop-color="rgb(82.952881%, 44.482422%, 16.207886%)" stop-opacity="1"/>
            <stop offset="0.367188" stop-color="rgb(83.149719%, 44.656372%, 16.358948%)" stop-opacity="1"/>
            <stop offset="0.371094" stop-color="rgb(83.346558%, 44.830322%, 16.51001%)" stop-opacity="1"/>
            <stop offset="0.375" stop-color="rgb(83.543396%, 45.004272%, 16.662598%)" stop-opacity="1"/>
            <stop offset="0.378906" stop-color="rgb(83.740234%, 45.178223%, 16.81366%)" stop-opacity="1"/>
            <stop offset="0.382812" stop-color="rgb(83.937073%, 45.352173%, 16.964722%)" stop-opacity="1"/>
            <stop offset="0.386719" stop-color="rgb(84.133911%, 45.526123%, 17.115784%)" stop-opacity="1"/>
            <stop offset="0.390625" stop-color="rgb(84.33075%, 45.700073%, 17.266846%)" stop-opacity="1"/>
            <stop offset="0.394531" stop-color="rgb(84.526062%, 45.874023%, 17.417908%)" stop-opacity="1"/>
            <stop offset="0.398438" stop-color="rgb(84.7229%, 46.0495%, 17.570496%)" stop-opacity="1"/>
            <stop offset="0.402344" stop-color="rgb(84.919739%, 46.22345%, 17.721558%)" stop-opacity="1"/>
            <stop offset="0.40625" stop-color="rgb(85.116577%, 46.3974%, 17.87262%)" stop-opacity="1"/>
            <stop offset="0.410156" stop-color="rgb(85.313416%, 46.57135%, 18.023682%)" stop-opacity="1"/>
            <stop offset="0.414062" stop-color="rgb(85.510254%, 46.7453%, 18.174744%)" stop-opacity="1"/>
            <stop offset="0.417969" stop-color="rgb(85.707092%, 46.91925%, 18.325806%)" stop-opacity="1"/>
            <stop offset="0.421875" stop-color="rgb(85.903931%, 47.093201%, 18.478394%)" stop-opacity="1"/>
            <stop offset="0.425781" stop-color="rgb(86.100769%, 47.267151%, 18.629456%)" stop-opacity="1"/>
            <stop offset="0.429687" stop-color="rgb(86.297607%, 47.441101%, 18.780518%)" stop-opacity="1"/>
            <stop offset="0.433594" stop-color="rgb(86.494446%, 47.615051%, 18.93158%)" stop-opacity="1"/>
            <stop offset="0.4375" stop-color="rgb(86.691284%, 47.789001%, 19.082642%)" stop-opacity="1"/>
            <stop offset="0.441406" stop-color="rgb(86.886597%, 47.962952%, 19.233704%)" stop-opacity="1"/>
            <stop offset="0.445312" stop-color="rgb(87.083435%, 48.136902%, 19.386292%)" stop-opacity="1"/>
            <stop offset="0.449219" stop-color="rgb(87.280273%, 48.310852%, 19.537354%)" stop-opacity="1"/>
            <stop offset="0.453125" stop-color="rgb(87.477112%, 48.484802%, 19.688416%)" stop-opacity="1"/>
            <stop offset="0.457031" stop-color="rgb(87.67395%, 48.658752%, 19.839478%)" stop-opacity="1"/>
            <stop offset="0.460938" stop-color="rgb(87.870789%, 48.832703%, 19.99054%)" stop-opacity="1"/>
            <stop offset="0.464844" stop-color="rgb(88.067627%, 49.006653%, 20.141602%)" stop-opacity="1"/>
            <stop offset="0.46875" stop-color="rgb(88.264465%, 49.180603%, 20.294189%)" stop-opacity="1"/>
            <stop offset="0.472656" stop-color="rgb(88.461304%, 49.354553%, 20.445251%)" stop-opacity="1"/>
            <stop offset="0.476562" stop-color="rgb(88.658142%, 49.528503%, 20.596313%)" stop-opacity="1"/>
            <stop offset="0.480469" stop-color="rgb(88.853455%, 49.702454%, 20.747375%)" stop-opacity="1"/>
            <stop offset="0.484375" stop-color="rgb(89.050293%, 49.876404%, 20.898438%)" stop-opacity="1"/>
            <stop offset="0.488281" stop-color="rgb(89.247131%, 50.050354%, 21.0495%)" stop-opacity="1"/>
            <stop offset="0.492188" stop-color="rgb(89.44397%, 50.224304%, 21.202087%)" stop-opacity="1"/>
            <stop offset="0.496094" stop-color="rgb(89.640808%, 50.398254%, 21.353149%)" stop-opacity="1"/>
            <stop offset="0.5" stop-color="rgb(89.837646%, 50.572205%, 21.504211%)" stop-opacity="1"/>
            <stop offset="0.503906" stop-color="rgb(90.034485%, 50.746155%, 21.655273%)" stop-opacity="1"/>
            <stop offset="0.507812" stop-color="rgb(90.231323%, 50.920105%, 21.806335%)" stop-opacity="1"/>
            <stop offset="0.511719" stop-color="rgb(90.428162%, 51.094055%, 21.957397%)" stop-opacity="1"/>
            <stop offset="0.515625" stop-color="rgb(90.625%, 51.269531%, 22.108459%)" stop-opacity="1"/>
            <stop offset="0.519531" stop-color="rgb(90.821838%, 51.443481%, 22.259521%)" stop-opacity="1"/>
            <stop offset="0.523438" stop-color="rgb(91.018677%, 51.617432%, 22.412109%)" stop-opacity="1"/>
            <stop offset="0.527344" stop-color="rgb(91.213989%, 51.791382%, 22.563171%)" stop-opacity="1"/>
            <stop offset="0.53125" stop-color="rgb(91.410828%, 51.965332%, 22.714233%)" stop-opacity="1"/>
            <stop offset="0.535156" stop-color="rgb(91.607666%, 52.139282%, 22.865295%)" stop-opacity="1"/>
            <stop offset="0.539062" stop-color="rgb(91.804504%, 52.313232%, 23.016357%)" stop-opacity="1"/>
            <stop offset="0.542969" stop-color="rgb(92.001343%, 52.487183%, 23.167419%)" stop-opacity="1"/>
            <stop offset="0.546875" stop-color="rgb(92.198181%, 52.661133%, 23.320007%)" stop-opacity="1"/>
            <stop offset="0.550781" stop-color="rgb(92.39502%, 52.835083%, 23.471069%)" stop-opacity="1"/>
            <stop offset="0.554688" stop-color="rgb(92.591858%, 53.009033%, 23.622131%)" stop-opacity="1"/>
            <stop offset="0.558594" stop-color="rgb(92.788696%, 53.182983%, 23.773193%)" stop-opacity="1"/>
            <stop offset="0.5625" stop-color="rgb(92.985535%, 53.356934%, 23.924255%)" stop-opacity="1"/>
            <stop offset="0.566406" stop-color="rgb(93.180847%, 53.530884%, 24.075317%)" stop-opacity="1"/>
            <stop offset="0.570312" stop-color="rgb(93.377686%, 53.704834%, 24.227905%)" stop-opacity="1"/>
            <stop offset="0.574219" stop-color="rgb(93.574524%, 53.878784%, 24.378967%)" stop-opacity="1"/>
            <stop offset="0.578125" stop-color="rgb(93.771362%, 54.052734%, 24.530029%)" stop-opacity="1"/>
            <stop offset="0.582031" stop-color="rgb(93.968201%, 54.226685%, 24.681091%)" stop-opacity="1"/>
            <stop offset="0.585938" stop-color="rgb(94.165039%, 54.400635%, 24.832153%)" stop-opacity="1"/>
            <stop offset="0.589844" stop-color="rgb(94.361877%, 54.574585%, 24.983215%)" stop-opacity="1"/>
            <stop offset="0.59375" stop-color="rgb(94.558716%, 54.748535%, 25.135803%)" stop-opacity="1"/>
            <stop offset="0.597656" stop-color="rgb(94.755554%, 54.922485%, 25.286865%)" stop-opacity="1"/>
            <stop offset="0.601562" stop-color="rgb(94.952393%, 55.096436%, 25.437927%)" stop-opacity="1"/>
            <stop offset="0.605469" stop-color="rgb(95.149231%, 55.270386%, 25.588989%)" stop-opacity="1"/>
            <stop offset="0.609375" stop-color="rgb(95.346069%, 55.444336%, 25.740051%)" stop-opacity="1"/>
            <stop offset="0.613281" stop-color="rgb(95.541382%, 55.618286%, 25.891113%)" stop-opacity="1"/>
            <stop offset="0.617188" stop-color="rgb(95.73822%, 55.792236%, 26.043701%)" stop-opacity="1"/>
            <stop offset="0.621094" stop-color="rgb(95.935059%, 55.966187%, 26.194763%)" stop-opacity="1"/>
            <stop offset="0.625" stop-color="rgb(96.131897%, 56.141663%, 26.345825%)" stop-opacity="1"/>
            <stop offset="0.628906" stop-color="rgb(96.328735%, 56.315613%, 26.496887%)" stop-opacity="1"/>
            <stop offset="0.632812" stop-color="rgb(96.525574%, 56.489563%, 26.647949%)" stop-opacity="1"/>
            <stop offset="0.636719" stop-color="rgb(96.722412%, 56.663513%, 26.799011%)" stop-opacity="1"/>
            <stop offset="0.640625" stop-color="rgb(96.91925%, 56.837463%, 26.951599%)" stop-opacity="1"/>
            <stop offset="0.644531" stop-color="rgb(97.116089%, 57.011414%, 27.102661%)" stop-opacity="1"/>
            <stop offset="0.648437" stop-color="rgb(97.312927%, 57.185364%, 27.253723%)" stop-opacity="1"/>
            <stop offset="0.652344" stop-color="rgb(97.50824%, 57.359314%, 27.404785%)" stop-opacity="1"/>
            <stop offset="0.65625" stop-color="rgb(97.705078%, 57.533264%, 27.555847%)" stop-opacity="1"/>
            <stop offset="0.660156" stop-color="rgb(97.901917%, 57.707214%, 27.706909%)" stop-opacity="1"/>
            <stop offset="0.664062" stop-color="rgb(98.098755%, 57.881165%, 27.859497%)" stop-opacity="1"/>
            <stop offset="0.667969" stop-color="rgb(98.295593%, 58.055115%, 28.010559%)" stop-opacity="1"/>
            <stop offset="0.671875" stop-color="rgb(98.492432%, 58.229065%, 28.161621%)" stop-opacity="1"/>
            <stop offset="0.675781" stop-color="rgb(98.68927%, 58.403015%, 28.312683%)" stop-opacity="1"/>
            <stop offset="0.679688" stop-color="rgb(98.886108%, 58.576965%, 28.463745%)" stop-opacity="1"/>
            <stop offset="0.683594" stop-color="rgb(99.082947%, 58.750916%, 28.614807%)" stop-opacity="1"/>
            <stop offset="0.6875" stop-color="rgb(99.279785%, 58.924866%, 28.767395%)" stop-opacity="1"/>
            <stop offset="0.75" stop-color="rgb(99.443054%, 59.069824%, 28.892517%)" stop-opacity="1"/>
            <stop offset="1" stop-color="rgb(99.606323%, 59.214783%, 29.019165%)" stop-opacity="1"/>
        </linearGradient>
        <clipPath id="clip-2">
            <path clip-rule="nonzero" d="M 442 496 L 1941 496 L 1941 2821 L 442 2821 Z M 442 496 "/>
        </clipPath>
        <clipPath id="clip-3">
            <path clip-rule="evenodd"
                  d="M 501.59375 2424.128906 C 501.613281 2424.191406 501.636719 2424.261719 501.65625 2424.320312 C 499.703125 2433.820312 497.050781 2443.199219 493.960938 2452.628906 C 525.734375 2472.550781 552.3125 2472.558594 572.339844 2473.261719 C 542.390625 2459.488281 521.007812 2442.011719 501.59375 2424.128906 Z M 473.460938 1509.589844 C 482.617188 1609.371094 499.417969 1692.75 520.84375 1723.640625 C 508.730469 1736.179688 498.738281 1756.050781 490.613281 1781.300781 C 508.582031 1758.359375 529.136719 1739.941406 556.367188 1733.210938 C 510.355469 1676.171875 491.660156 1593.121094 473.460938 1509.589844 Z M 510.820312 1028.859375 C 510.886719 1029.109375 510.949219 1029.359375 511.015625 1029.609375 C 508.519531 1034.121094 506.136719 1039.050781 503.863281 1044.351562 C 516.839844 1052.769531 531.992188 1057.839844 547.050781 1063.039062 C 534.621094 1052.160156 521.117188 1042.828125 510.820312 1028.859375 Z M 1736.25 496.769531 C 1781.660156 629.058594 1781.371094 873.339844 1748.710938 1008 C 1823.441406 1244.140625 1802.761719 1492.960938 1751.628906 1706.589844 C 1844.179688 1985.71875 1804.179688 2206.859375 1727.671875 2412.03125 C 1549.070312 2740.941406 961.078125 2580.351562 572.234375 2657.878906 C 526.183594 2667.769531 487.578125 2629.871094 450.445312 2582.539062 C 441.265625 2626.378906 438.527344 2679.269531 452.0625 2748.328125 C 575.800781 2895.261719 1463.519531 2771.148438 1928.789062 2784.808594 C 1971.589844 2608.929688 1884.480469 2479.71875 1881.039062 2421.171875 C 1931.261719 2286.289062 1945.839844 1818.761719 1845.160156 1680.96875 C 1897.96875 1532.371094 1865.300781 1114.808594 1801.808594 998.359375 C 1829.261719 936.921875 1795.898438 566.21875 1736.25 496.769531 "/>
        </clipPath>
        <linearGradient id="linear-pattern-1" gradientUnits="userSpaceOnUse" x1="-0.172088" y1="0" x2="1.339182" y2="0"
                        gradientTransform="matrix(-1061.65, -1554.82, 1554.82, -1061.65, 1783.32, 2631.5)">
            <stop offset="0" stop-color="rgb(69.410706%, 31.37207%, 3.529358%)" stop-opacity="1"/>
            <stop offset="0.125" stop-color="rgb(69.578552%, 31.529236%, 3.677368%)" stop-opacity="1"/>
            <stop offset="0.132812" stop-color="rgb(69.865417%, 31.799316%, 3.929138%)" stop-opacity="1"/>
            <stop offset="0.140625" stop-color="rgb(70.100403%, 32.022095%, 4.138184%)" stop-opacity="1"/>
            <stop offset="0.148438" stop-color="rgb(70.336914%, 32.243347%, 4.345703%)" stop-opacity="1"/>
            <stop offset="0.15625" stop-color="rgb(70.573425%, 32.466125%, 4.554749%)" stop-opacity="1"/>
            <stop offset="0.164062" stop-color="rgb(70.809937%, 32.688904%, 4.762268%)" stop-opacity="1"/>
            <stop offset="0.171875" stop-color="rgb(71.044922%, 32.910156%, 4.971313%)" stop-opacity="1"/>
            <stop offset="0.179688" stop-color="rgb(71.281433%, 33.132935%, 5.178833%)" stop-opacity="1"/>
            <stop offset="0.1875" stop-color="rgb(71.517944%, 33.355713%, 5.387878%)" stop-opacity="1"/>
            <stop offset="0.195312" stop-color="rgb(71.754456%, 33.576965%, 5.595398%)" stop-opacity="1"/>
            <stop offset="0.203125" stop-color="rgb(71.989441%, 33.799744%, 5.804443%)" stop-opacity="1"/>
            <stop offset="0.210938" stop-color="rgb(72.225952%, 34.022522%, 6.013489%)" stop-opacity="1"/>
            <stop offset="0.21875" stop-color="rgb(72.462463%, 34.243774%, 6.221008%)" stop-opacity="1"/>
            <stop offset="0.226563" stop-color="rgb(72.698975%, 34.466553%, 6.430054%)" stop-opacity="1"/>
            <stop offset="0.234375" stop-color="rgb(72.93396%, 34.687805%, 6.637573%)" stop-opacity="1"/>
            <stop offset="0.242188" stop-color="rgb(73.170471%, 34.910583%, 6.846619%)" stop-opacity="1"/>
            <stop offset="0.25" stop-color="rgb(73.406982%, 35.133362%, 7.054138%)" stop-opacity="1"/>
            <stop offset="0.257812" stop-color="rgb(73.643494%, 35.354614%, 7.263184%)" stop-opacity="1"/>
            <stop offset="0.265625" stop-color="rgb(73.880005%, 35.577393%, 7.470703%)" stop-opacity="1"/>
            <stop offset="0.273438" stop-color="rgb(74.11499%, 35.800171%, 7.679749%)" stop-opacity="1"/>
            <stop offset="0.28125" stop-color="rgb(74.351501%, 36.021423%, 7.887268%)" stop-opacity="1"/>
            <stop offset="0.289062" stop-color="rgb(74.588013%, 36.244202%, 8.096313%)" stop-opacity="1"/>
            <stop offset="0.296875" stop-color="rgb(74.824524%, 36.46698%, 8.305359%)" stop-opacity="1"/>
            <stop offset="0.304688" stop-color="rgb(75.059509%, 36.688232%, 8.512878%)" stop-opacity="1"/>
            <stop offset="0.3125" stop-color="rgb(75.296021%, 36.911011%, 8.721924%)" stop-opacity="1"/>
            <stop offset="0.320312" stop-color="rgb(75.532532%, 37.133789%, 8.929443%)" stop-opacity="1"/>
            <stop offset="0.328125" stop-color="rgb(75.769043%, 37.355042%, 9.138489%)" stop-opacity="1"/>
            <stop offset="0.335938" stop-color="rgb(76.004028%, 37.57782%, 9.346008%)" stop-opacity="1"/>
            <stop offset="0.34375" stop-color="rgb(76.24054%, 37.800598%, 9.555054%)" stop-opacity="1"/>
            <stop offset="0.351562" stop-color="rgb(76.477051%, 38.021851%, 9.762573%)" stop-opacity="1"/>
            <stop offset="0.359375" stop-color="rgb(76.713562%, 38.244629%, 9.971619%)" stop-opacity="1"/>
            <stop offset="0.367188" stop-color="rgb(76.948547%, 38.467407%, 10.180664%)" stop-opacity="1"/>
            <stop offset="0.375" stop-color="rgb(77.185059%, 38.68866%, 10.388184%)" stop-opacity="1"/>
            <stop offset="0.382812" stop-color="rgb(77.42157%, 38.911438%, 10.597229%)" stop-opacity="1"/>
            <stop offset="0.390625" stop-color="rgb(77.658081%, 39.13269%, 10.804749%)" stop-opacity="1"/>
            <stop offset="0.398438" stop-color="rgb(77.893066%, 39.355469%, 11.013794%)" stop-opacity="1"/>
            <stop offset="0.40625" stop-color="rgb(78.129578%, 39.578247%, 11.221313%)" stop-opacity="1"/>
            <stop offset="0.414062" stop-color="rgb(78.366089%, 39.7995%, 11.430359%)" stop-opacity="1"/>
            <stop offset="0.421875" stop-color="rgb(78.6026%, 40.022278%, 11.637878%)" stop-opacity="1"/>
            <stop offset="0.429688" stop-color="rgb(78.837585%, 40.245056%, 11.846924%)" stop-opacity="1"/>
            <stop offset="0.4375" stop-color="rgb(79.074097%, 40.466309%, 12.054443%)" stop-opacity="1"/>
            <stop offset="0.445312" stop-color="rgb(79.310608%, 40.689087%, 12.263489%)" stop-opacity="1"/>
            <stop offset="0.453125" stop-color="rgb(79.547119%, 40.911865%, 12.472534%)" stop-opacity="1"/>
            <stop offset="0.460937" stop-color="rgb(79.782104%, 41.133118%, 12.680054%)" stop-opacity="1"/>
            <stop offset="0.46875" stop-color="rgb(80.018616%, 41.355896%, 12.889099%)" stop-opacity="1"/>
            <stop offset="0.476562" stop-color="rgb(80.255127%, 41.578674%, 13.096619%)" stop-opacity="1"/>
            <stop offset="0.484375" stop-color="rgb(80.491638%, 41.799927%, 13.305664%)" stop-opacity="1"/>
            <stop offset="0.492188" stop-color="rgb(80.726624%, 42.022705%, 13.513184%)" stop-opacity="1"/>
            <stop offset="0.5" stop-color="rgb(80.963135%, 42.245483%, 13.722229%)" stop-opacity="1"/>
            <stop offset="0.507812" stop-color="rgb(81.199646%, 42.466736%, 13.929749%)" stop-opacity="1"/>
            <stop offset="0.515625" stop-color="rgb(81.436157%, 42.689514%, 14.138794%)" stop-opacity="1"/>
            <stop offset="0.523438" stop-color="rgb(81.671143%, 42.912292%, 14.346313%)" stop-opacity="1"/>
            <stop offset="0.53125" stop-color="rgb(81.907654%, 43.133545%, 14.555359%)" stop-opacity="1"/>
            <stop offset="0.539062" stop-color="rgb(82.144165%, 43.356323%, 14.764404%)" stop-opacity="1"/>
            <stop offset="0.546875" stop-color="rgb(82.380676%, 43.577576%, 14.971924%)" stop-opacity="1"/>
            <stop offset="0.554688" stop-color="rgb(82.615662%, 43.800354%, 15.180969%)" stop-opacity="1"/>
            <stop offset="0.5625" stop-color="rgb(82.852173%, 44.023132%, 15.388489%)" stop-opacity="1"/>
            <stop offset="0.570312" stop-color="rgb(83.088684%, 44.244385%, 15.597534%)" stop-opacity="1"/>
            <stop offset="0.578125" stop-color="rgb(83.325195%, 44.467163%, 15.805054%)" stop-opacity="1"/>
            <stop offset="0.585937" stop-color="rgb(83.560181%, 44.689941%, 16.014099%)" stop-opacity="1"/>
            <stop offset="0.59375" stop-color="rgb(83.796692%, 44.911194%, 16.221619%)" stop-opacity="1"/>
            <stop offset="0.601562" stop-color="rgb(84.033203%, 45.133972%, 16.430664%)" stop-opacity="1"/>
            <stop offset="0.609375" stop-color="rgb(84.269714%, 45.35675%, 16.638184%)" stop-opacity="1"/>
            <stop offset="0.617188" stop-color="rgb(84.5047%, 45.578003%, 16.847229%)" stop-opacity="1"/>
            <stop offset="0.625" stop-color="rgb(84.741211%, 45.800781%, 17.056274%)" stop-opacity="1"/>
            <stop offset="0.632812" stop-color="rgb(84.977722%, 46.02356%, 17.263794%)" stop-opacity="1"/>
            <stop offset="0.640625" stop-color="rgb(85.214233%, 46.244812%, 17.472839%)" stop-opacity="1"/>
            <stop offset="0.648438" stop-color="rgb(85.449219%, 46.46759%, 17.680359%)" stop-opacity="1"/>
            <stop offset="0.65625" stop-color="rgb(85.68573%, 46.690369%, 17.889404%)" stop-opacity="1"/>
            <stop offset="0.664063" stop-color="rgb(85.922241%, 46.911621%, 18.096924%)" stop-opacity="1"/>
            <stop offset="0.671875" stop-color="rgb(86.158752%, 47.134399%, 18.305969%)" stop-opacity="1"/>
            <stop offset="0.679687" stop-color="rgb(86.393738%, 47.357178%, 18.513489%)" stop-opacity="1"/>
            <stop offset="0.6875" stop-color="rgb(86.630249%, 47.57843%, 18.722534%)" stop-opacity="1"/>
            <stop offset="0.695313" stop-color="rgb(86.86676%, 47.801208%, 18.93158%)" stop-opacity="1"/>
            <stop offset="0.703125" stop-color="rgb(87.103271%, 48.023987%, 19.139099%)" stop-opacity="1"/>
            <stop offset="0.710938" stop-color="rgb(87.338257%, 48.245239%, 19.348145%)" stop-opacity="1"/>
            <stop offset="0.71875" stop-color="rgb(87.574768%, 48.468018%, 19.555664%)" stop-opacity="1"/>
            <stop offset="0.726563" stop-color="rgb(87.811279%, 48.68927%, 19.764709%)" stop-opacity="1"/>
            <stop offset="0.734375" stop-color="rgb(88.047791%, 48.912048%, 19.972229%)" stop-opacity="1"/>
            <stop offset="0.742188" stop-color="rgb(88.284302%, 49.134827%, 20.181274%)" stop-opacity="1"/>
            <stop offset="0.75" stop-color="rgb(88.519287%, 49.356079%, 20.388794%)" stop-opacity="1"/>
            <stop offset="0.757812" stop-color="rgb(88.755798%, 49.578857%, 20.597839%)" stop-opacity="1"/>
            <stop offset="0.765625" stop-color="rgb(88.99231%, 49.801636%, 20.805359%)" stop-opacity="1"/>
            <stop offset="0.78125" stop-color="rgb(89.260864%, 50.053406%, 21.043396%)" stop-opacity="1"/>
            <stop offset="0.8125" stop-color="rgb(89.4104%, 50.195312%, 21.176147%)" stop-opacity="1"/>
            <stop offset="0.875" stop-color="rgb(89.4104%, 50.195312%, 21.176147%)" stop-opacity="1"/>
            <stop offset="1" stop-color="rgb(89.4104%, 50.195312%, 21.176147%)" stop-opacity="1"/>
        </linearGradient>
        <clipPath id="clip-4">
            <path clip-rule="nonzero" d="M 1545 1078 L 2708 1078 L 2708 2821 L 1545 2821 Z M 1545 1078 "/>
        </clipPath>
        <clipPath id="clip-5">
            <path clip-rule="evenodd"
                  d="M 1553.03125 2764.589844 C 1526.980469 2631.699219 1578.589844 2575.96875 1591.511719 2513.210938 C 1556.480469 2413.820312 1537.800781 2040.671875 1606.390625 1969.601562 C 1560.878906 1903.988281 1542.210938 1533.238281 1598.769531 1431.160156 C 1565.191406 1307.921875 1620.410156 1112.128906 1726.359375 1112.878906 C 1986.871094 1060.589844 2229.980469 1080.800781 2495.539062 1094.738281 C 2596.609375 1084.648438 2623.078125 1355.71875 2600.199219 1406.910156 C 2649.460938 1497.261719 2674.800781 1821.210938 2633.828125 1936.5 C 2711.949219 2043.398438 2700.628906 2406.121094 2661.671875 2510.769531 C 2664.339844 2556.199219 2731.921875 2656.429688 2698.71875 2792.890625 C 2337.75 2782.289062 1649.03125 2878.578125 1553.03125 2764.589844 "/>
        </clipPath>
        <linearGradient id="linear-pattern-2" gradientUnits="userSpaceOnUse" x1="-0.713748" y1="0" x2="1.651605" y2="0"
                        gradientTransform="matrix(-495.201, -777.641, 777.641, -495.201, 2318.61, 2361.66)">
            <stop offset="0" stop-color="rgb(79.214478%, 41.175842%, 13.33313%)" stop-opacity="1"/>
            <stop offset="0.25" stop-color="rgb(79.214478%, 41.175842%, 13.33313%)" stop-opacity="1"/>
            <stop offset="0.28125" stop-color="rgb(79.214478%, 41.175842%, 13.33313%)" stop-opacity="1"/>
            <stop offset="0.296875" stop-color="rgb(79.214478%, 41.175842%, 13.33313%)" stop-opacity="1"/>
            <stop offset="0.304687" stop-color="rgb(79.284668%, 41.238403%, 13.386536%)" stop-opacity="1"/>
            <stop offset="0.3125" stop-color="rgb(79.544067%, 41.467285%, 13.586426%)" stop-opacity="1"/>
            <stop offset="0.320312" stop-color="rgb(79.920959%, 41.801453%, 13.876343%)" stop-opacity="1"/>
            <stop offset="0.328125" stop-color="rgb(80.297852%, 42.134094%, 14.16626%)" stop-opacity="1"/>
            <stop offset="0.335937" stop-color="rgb(80.674744%, 42.466736%, 14.456177%)" stop-opacity="1"/>
            <stop offset="0.34375" stop-color="rgb(81.051636%, 42.800903%, 14.746094%)" stop-opacity="1"/>
            <stop offset="0.351562" stop-color="rgb(81.428528%, 43.133545%, 15.036011%)" stop-opacity="1"/>
            <stop offset="0.359375" stop-color="rgb(81.80542%, 43.467712%, 15.325928%)" stop-opacity="1"/>
            <stop offset="0.367187" stop-color="rgb(82.182312%, 43.800354%, 15.615845%)" stop-opacity="1"/>
            <stop offset="0.375" stop-color="rgb(82.559204%, 44.134521%, 15.905762%)" stop-opacity="1"/>
            <stop offset="0.382812" stop-color="rgb(82.936096%, 44.467163%, 16.195679%)" stop-opacity="1"/>
            <stop offset="0.390625" stop-color="rgb(83.312988%, 44.801331%, 16.485596%)" stop-opacity="1"/>
            <stop offset="0.398437" stop-color="rgb(83.68988%, 45.133972%, 16.775513%)" stop-opacity="1"/>
            <stop offset="0.40625" stop-color="rgb(84.066772%, 45.46814%, 17.06543%)" stop-opacity="1"/>
            <stop offset="0.414062" stop-color="rgb(84.443665%, 45.800781%, 17.355347%)" stop-opacity="1"/>
            <stop offset="0.421875" stop-color="rgb(84.820557%, 46.134949%, 17.645264%)" stop-opacity="1"/>
            <stop offset="0.429687" stop-color="rgb(85.197449%, 46.46759%, 17.935181%)" stop-opacity="1"/>
            <stop offset="0.4375" stop-color="rgb(85.572815%, 46.800232%, 18.225098%)" stop-opacity="1"/>
            <stop offset="0.445312" stop-color="rgb(85.949707%, 47.134399%, 18.513489%)" stop-opacity="1"/>
            <stop offset="0.453125" stop-color="rgb(86.326599%, 47.467041%, 18.803406%)" stop-opacity="1"/>
            <stop offset="0.460937" stop-color="rgb(86.703491%, 47.801208%, 19.093323%)" stop-opacity="1"/>
            <stop offset="0.46875" stop-color="rgb(87.080383%, 48.13385%, 19.38324%)" stop-opacity="1"/>
            <stop offset="0.476562" stop-color="rgb(87.457275%, 48.468018%, 19.673157%)" stop-opacity="1"/>
            <stop offset="0.484375" stop-color="rgb(87.834167%, 48.800659%, 19.963074%)" stop-opacity="1"/>
            <stop offset="0.492187" stop-color="rgb(88.21106%, 49.134827%, 20.252991%)" stop-opacity="1"/>
            <stop offset="0.5" stop-color="rgb(88.587952%, 49.467468%, 20.542908%)" stop-opacity="1"/>
            <stop offset="0.507812" stop-color="rgb(88.964844%, 49.801636%, 20.832825%)" stop-opacity="1"/>
            <stop offset="0.515625" stop-color="rgb(89.341736%, 50.134277%, 21.122742%)" stop-opacity="1"/>
            <stop offset="0.523438" stop-color="rgb(89.718628%, 50.468445%, 21.412659%)" stop-opacity="1"/>
            <stop offset="0.53125" stop-color="rgb(90.09552%, 50.801086%, 21.702576%)" stop-opacity="1"/>
            <stop offset="0.539062" stop-color="rgb(90.472412%, 51.135254%, 21.992493%)" stop-opacity="1"/>
            <stop offset="0.546875" stop-color="rgb(90.849304%, 51.467896%, 22.28241%)" stop-opacity="1"/>
            <stop offset="0.554687" stop-color="rgb(91.226196%, 51.800537%, 22.572327%)" stop-opacity="1"/>
            <stop offset="0.5625" stop-color="rgb(91.603088%, 52.134705%, 22.862244%)" stop-opacity="1"/>
            <stop offset="0.570312" stop-color="rgb(91.97998%, 52.467346%, 23.152161%)" stop-opacity="1"/>
            <stop offset="0.578125" stop-color="rgb(92.356873%, 52.801514%, 23.442078%)" stop-opacity="1"/>
            <stop offset="0.585938" stop-color="rgb(92.733765%, 53.134155%, 23.731995%)" stop-opacity="1"/>
            <stop offset="0.59375" stop-color="rgb(93.110657%, 53.468323%, 24.021912%)" stop-opacity="1"/>
            <stop offset="0.601562" stop-color="rgb(93.487549%, 53.800964%, 24.311829%)" stop-opacity="1"/>
            <stop offset="0.609375" stop-color="rgb(93.864441%, 54.135132%, 24.601746%)" stop-opacity="1"/>
            <stop offset="0.617188" stop-color="rgb(94.241333%, 54.467773%, 24.891663%)" stop-opacity="1"/>
            <stop offset="0.625" stop-color="rgb(94.618225%, 54.801941%, 25.18158%)" stop-opacity="1"/>
            <stop offset="0.632812" stop-color="rgb(94.995117%, 55.134583%, 25.471497%)" stop-opacity="1"/>
            <stop offset="0.640625" stop-color="rgb(95.370483%, 55.46875%, 25.761414%)" stop-opacity="1"/>
            <stop offset="0.648437" stop-color="rgb(95.747375%, 55.801392%, 26.051331%)" stop-opacity="1"/>
            <stop offset="0.65625" stop-color="rgb(96.124268%, 56.135559%, 26.341248%)" stop-opacity="1"/>
            <stop offset="0.664062" stop-color="rgb(96.50116%, 56.468201%, 26.631165%)" stop-opacity="1"/>
            <stop offset="0.671875" stop-color="rgb(96.878052%, 56.800842%, 26.921082%)" stop-opacity="1"/>
            <stop offset="0.679687" stop-color="rgb(97.254944%, 57.13501%, 27.210999%)" stop-opacity="1"/>
            <stop offset="0.6875" stop-color="rgb(97.631836%, 57.467651%, 27.500916%)" stop-opacity="1"/>
            <stop offset="0.695312" stop-color="rgb(98.008728%, 57.801819%, 27.790833%)" stop-opacity="1"/>
            <stop offset="0.703125" stop-color="rgb(98.38562%, 58.13446%, 28.08075%)" stop-opacity="1"/>
            <stop offset="0.710938" stop-color="rgb(98.762512%, 58.468628%, 28.369141%)" stop-opacity="1"/>
            <stop offset="0.71875" stop-color="rgb(99.139404%, 58.80127%, 28.659058%)" stop-opacity="1"/>
            <stop offset="0.75" stop-color="rgb(99.467468%, 59.091187%, 28.910828%)" stop-opacity="1"/>
            <stop offset="1" stop-color="rgb(99.606323%, 59.214783%, 29.019165%)" stop-opacity="1"/>
        </linearGradient>
        <clipPath id="clip-6">
            <path clip-rule="nonzero" d="M 1545 1110 L 2708 1110 L 2708 2821 L 1545 2821 Z M 1545 1110 "/>
        </clipPath>
        <clipPath id="clip-7">
            <path clip-rule="evenodd"
                  d="M 2539.269531 1110.171875 C 2595.699219 1204.679688 2584.339844 1309.921875 2559 1414.390625 C 2616.980469 1597.589844 2600.941406 1790.640625 2561.269531 1956.378906 C 2633.070312 2172.941406 2602.039062 2344.5 2542.679688 2503.679688 C 2404.121094 2758.851562 1947.941406 2634.261719 1646.261719 2694.421875 C 1610.53125 2702.089844 1580.578125 2672.679688 1551.769531 2635.960938 C 1544.648438 2669.980469 1542.53125 2711.011719 1553.03125 2764.589844 C 1649.03125 2878.578125 2337.75 2782.289062 2698.71875 2792.890625 C 2731.921875 2656.429688 2664.339844 2556.199219 2661.671875 2510.769531 C 2700.628906 2406.121094 2711.949219 2043.398438 2633.828125 1936.5 C 2674.800781 1821.210938 2649.460938 1497.261719 2600.199219 1406.910156 C 2621.5 1359.25 2622.359375 1181.160156 2539.269531 1110.171875 "/>
        </clipPath>
        <linearGradient id="linear-pattern-3" gradientUnits="userSpaceOnUse" x1="-0.197168" y1="0" x2="1.326722" y2="0"
                        gradientTransform="matrix(-668.174, -1221.88, 1221.88, -668.174, 2472.78, 2707.33)">
            <stop offset="0" stop-color="rgb(70.587158%, 32.548523%, 4.705811%)" stop-opacity="1"/>
            <stop offset="0.125" stop-color="rgb(70.587158%, 32.548523%, 4.705811%)" stop-opacity="1"/>
            <stop offset="0.140625" stop-color="rgb(70.751953%, 32.702637%, 4.849243%)" stop-opacity="1"/>
            <stop offset="0.148438" stop-color="rgb(71.031189%, 32.963562%, 5.093384%)" stop-opacity="1"/>
            <stop offset="0.15625" stop-color="rgb(71.260071%, 33.178711%, 5.2948%)" stop-opacity="1"/>
            <stop offset="0.164062" stop-color="rgb(71.488953%, 33.39386%, 5.496216%)" stop-opacity="1"/>
            <stop offset="0.171875" stop-color="rgb(71.717834%, 33.609009%, 5.696106%)" stop-opacity="1"/>
            <stop offset="0.179688" stop-color="rgb(71.946716%, 33.822632%, 5.897522%)" stop-opacity="1"/>
            <stop offset="0.1875" stop-color="rgb(72.174072%, 34.037781%, 6.097412%)" stop-opacity="1"/>
            <stop offset="0.195312" stop-color="rgb(72.402954%, 34.25293%, 6.298828%)" stop-opacity="1"/>
            <stop offset="0.203125" stop-color="rgb(72.631836%, 34.468079%, 6.498718%)" stop-opacity="1"/>
            <stop offset="0.210938" stop-color="rgb(72.860718%, 34.681702%, 6.700134%)" stop-opacity="1"/>
            <stop offset="0.21875" stop-color="rgb(73.0896%, 34.896851%, 6.90155%)" stop-opacity="1"/>
            <stop offset="0.226563" stop-color="rgb(73.318481%, 35.112%, 7.10144%)" stop-opacity="1"/>
            <stop offset="0.234375" stop-color="rgb(73.547363%, 35.327148%, 7.302856%)" stop-opacity="1"/>
            <stop offset="0.242188" stop-color="rgb(73.776245%, 35.540771%, 7.502747%)" stop-opacity="1"/>
            <stop offset="0.25" stop-color="rgb(74.005127%, 35.75592%, 7.704163%)" stop-opacity="1"/>
            <stop offset="0.257812" stop-color="rgb(74.234009%, 35.971069%, 7.904053%)" stop-opacity="1"/>
            <stop offset="0.265625" stop-color="rgb(74.462891%, 36.186218%, 8.105469%)" stop-opacity="1"/>
            <stop offset="0.273438" stop-color="rgb(74.691772%, 36.399841%, 8.305359%)" stop-opacity="1"/>
            <stop offset="0.28125" stop-color="rgb(74.920654%, 36.61499%, 8.506775%)" stop-opacity="1"/>
            <stop offset="0.289062" stop-color="rgb(75.149536%, 36.830139%, 8.708191%)" stop-opacity="1"/>
            <stop offset="0.296875" stop-color="rgb(75.376892%, 37.045288%, 8.908081%)" stop-opacity="1"/>
            <stop offset="0.304688" stop-color="rgb(75.605774%, 37.258911%, 9.109497%)" stop-opacity="1"/>
            <stop offset="0.3125" stop-color="rgb(75.834656%, 37.47406%, 9.309387%)" stop-opacity="1"/>
            <stop offset="0.320312" stop-color="rgb(76.063538%, 37.689209%, 9.510803%)" stop-opacity="1"/>
            <stop offset="0.328125" stop-color="rgb(76.292419%, 37.904358%, 9.710693%)" stop-opacity="1"/>
            <stop offset="0.335937" stop-color="rgb(76.521301%, 38.117981%, 9.912109%)" stop-opacity="1"/>
            <stop offset="0.34375" stop-color="rgb(76.750183%, 38.33313%, 10.113525%)" stop-opacity="1"/>
            <stop offset="0.351563" stop-color="rgb(76.979065%, 38.548279%, 10.313416%)" stop-opacity="1"/>
            <stop offset="0.359375" stop-color="rgb(77.207947%, 38.761902%, 10.514832%)" stop-opacity="1"/>
            <stop offset="0.367188" stop-color="rgb(77.436829%, 38.977051%, 10.714722%)" stop-opacity="1"/>
            <stop offset="0.375" stop-color="rgb(77.66571%, 39.1922%, 10.916138%)" stop-opacity="1"/>
            <stop offset="0.382812" stop-color="rgb(77.894592%, 39.407349%, 11.116028%)" stop-opacity="1"/>
            <stop offset="0.390625" stop-color="rgb(78.123474%, 39.620972%, 11.317444%)" stop-opacity="1"/>
            <stop offset="0.398438" stop-color="rgb(78.35083%, 39.836121%, 11.51886%)" stop-opacity="1"/>
            <stop offset="0.40625" stop-color="rgb(78.579712%, 40.05127%, 11.71875%)" stop-opacity="1"/>
            <stop offset="0.414062" stop-color="rgb(78.808594%, 40.266418%, 11.920166%)" stop-opacity="1"/>
            <stop offset="0.421875" stop-color="rgb(79.037476%, 40.480042%, 12.120056%)" stop-opacity="1"/>
            <stop offset="0.429688" stop-color="rgb(79.266357%, 40.69519%, 12.321472%)" stop-opacity="1"/>
            <stop offset="0.4375" stop-color="rgb(79.495239%, 40.910339%, 12.521362%)" stop-opacity="1"/>
            <stop offset="0.445312" stop-color="rgb(79.724121%, 41.125488%, 12.722778%)" stop-opacity="1"/>
            <stop offset="0.453125" stop-color="rgb(79.953003%, 41.339111%, 12.924194%)" stop-opacity="1"/>
            <stop offset="0.460938" stop-color="rgb(80.181885%, 41.55426%, 13.124084%)" stop-opacity="1"/>
            <stop offset="0.46875" stop-color="rgb(80.410767%, 41.769409%, 13.3255%)" stop-opacity="1"/>
            <stop offset="0.476562" stop-color="rgb(80.639648%, 41.984558%, 13.525391%)" stop-opacity="1"/>
            <stop offset="0.484375" stop-color="rgb(80.86853%, 42.198181%, 13.726807%)" stop-opacity="1"/>
            <stop offset="0.492187" stop-color="rgb(81.097412%, 42.41333%, 13.926697%)" stop-opacity="1"/>
            <stop offset="0.5" stop-color="rgb(81.326294%, 42.628479%, 14.128113%)" stop-opacity="1"/>
            <stop offset="0.507812" stop-color="rgb(81.55365%, 42.843628%, 14.329529%)" stop-opacity="1"/>
            <stop offset="0.515625" stop-color="rgb(81.782532%, 43.057251%, 14.529419%)" stop-opacity="1"/>
            <stop offset="0.523438" stop-color="rgb(82.011414%, 43.2724%, 14.730835%)" stop-opacity="1"/>
            <stop offset="0.53125" stop-color="rgb(82.240295%, 43.487549%, 14.930725%)" stop-opacity="1"/>
            <stop offset="0.539062" stop-color="rgb(82.469177%, 43.702698%, 15.132141%)" stop-opacity="1"/>
            <stop offset="0.546875" stop-color="rgb(82.698059%, 43.916321%, 15.332031%)" stop-opacity="1"/>
            <stop offset="0.554688" stop-color="rgb(82.926941%, 44.13147%, 15.533447%)" stop-opacity="1"/>
            <stop offset="0.5625" stop-color="rgb(83.155823%, 44.346619%, 15.734863%)" stop-opacity="1"/>
            <stop offset="0.570312" stop-color="rgb(83.384705%, 44.561768%, 15.934753%)" stop-opacity="1"/>
            <stop offset="0.578125" stop-color="rgb(83.613586%, 44.775391%, 16.136169%)" stop-opacity="1"/>
            <stop offset="0.585938" stop-color="rgb(83.842468%, 44.99054%, 16.33606%)" stop-opacity="1"/>
            <stop offset="0.59375" stop-color="rgb(84.07135%, 45.205688%, 16.537476%)" stop-opacity="1"/>
            <stop offset="0.601562" stop-color="rgb(84.300232%, 45.420837%, 16.737366%)" stop-opacity="1"/>
            <stop offset="0.609375" stop-color="rgb(84.529114%, 45.63446%, 16.938782%)" stop-opacity="1"/>
            <stop offset="0.617187" stop-color="rgb(84.75647%, 45.849609%, 17.140198%)" stop-opacity="1"/>
            <stop offset="0.625" stop-color="rgb(84.985352%, 46.064758%, 17.340088%)" stop-opacity="1"/>
            <stop offset="0.632812" stop-color="rgb(85.214233%, 46.279907%, 17.541504%)" stop-opacity="1"/>
            <stop offset="0.640625" stop-color="rgb(85.443115%, 46.49353%, 17.741394%)" stop-opacity="1"/>
            <stop offset="0.648438" stop-color="rgb(85.671997%, 46.708679%, 17.94281%)" stop-opacity="1"/>
            <stop offset="0.65625" stop-color="rgb(85.900879%, 46.923828%, 18.1427%)" stop-opacity="1"/>
            <stop offset="0.664062" stop-color="rgb(86.129761%, 47.138977%, 18.344116%)" stop-opacity="1"/>
            <stop offset="0.671875" stop-color="rgb(86.358643%, 47.3526%, 18.544006%)" stop-opacity="1"/>
            <stop offset="0.679688" stop-color="rgb(86.587524%, 47.567749%, 18.745422%)" stop-opacity="1"/>
            <stop offset="0.6875" stop-color="rgb(86.816406%, 47.782898%, 18.946838%)" stop-opacity="1"/>
            <stop offset="0.695313" stop-color="rgb(87.045288%, 47.998047%, 19.146729%)" stop-opacity="1"/>
            <stop offset="0.703125" stop-color="rgb(87.27417%, 48.21167%, 19.348145%)" stop-opacity="1"/>
            <stop offset="0.710938" stop-color="rgb(87.503052%, 48.426819%, 19.548035%)" stop-opacity="1"/>
            <stop offset="0.71875" stop-color="rgb(87.730408%, 48.641968%, 19.749451%)" stop-opacity="1"/>
            <stop offset="0.726563" stop-color="rgb(87.95929%, 48.857117%, 19.949341%)" stop-opacity="1"/>
            <stop offset="0.734375" stop-color="rgb(88.188171%, 49.07074%, 20.150757%)" stop-opacity="1"/>
            <stop offset="0.742188" stop-color="rgb(88.417053%, 49.285889%, 20.352173%)" stop-opacity="1"/>
            <stop offset="0.75" stop-color="rgb(88.645935%, 49.501038%, 20.552063%)" stop-opacity="1"/>
            <stop offset="0.757812" stop-color="rgb(88.874817%, 49.716187%, 20.753479%)" stop-opacity="1"/>
            <stop offset="0.765625" stop-color="rgb(89.103699%, 49.92981%, 20.953369%)" stop-opacity="1"/>
            <stop offset="0.773438" stop-color="rgb(89.332581%, 50.144958%, 21.154785%)" stop-opacity="1"/>
            <stop offset="0.78125" stop-color="rgb(89.561462%, 50.360107%, 21.354675%)" stop-opacity="1"/>
            <stop offset="0.8125" stop-color="rgb(89.738464%, 50.527954%, 21.511841%)" stop-opacity="1"/>
            <stop offset="0.875" stop-color="rgb(89.802551%, 50.587463%, 21.568298%)" stop-opacity="1"/>
            <stop offset="1" stop-color="rgb(89.802551%, 50.587463%, 21.568298%)" stop-opacity="1"/>
        </linearGradient>
    </defs>
    <rect x="-320" y="-320" width="3840" height="3840" fill="rgb(97.65625%, 97.65625%, 97.65625%)" fill-opacity="1"/>
    <path fill-rule="evenodd" fill="rgb(74.021912%, 74.021912%, 74.021912%)" fill-opacity="1"
          d="M 2936.96875 2800.28125 C 2936.96875 2853.351562 2342.898438 2896.359375 1610.089844 2896.359375 C 877.269531 2896.359375 283.203125 2853.351562 283.203125 2800.28125 C 283.207031 2747.21875 877.269531 2704.210938 1610.089844 2704.210938 C 2342.898438 2704.210938 2936.960938 2747.21875 2936.96875 2800.28125 "/>
    <g clip-path="url(#clip-0)">
        <g clip-path="url(#clip-1)">
            <path fill-rule="nonzero" fill="url(#linear-pattern-0)"
                  d="M 866.585938 3598.925781 L 3099.644531 2176.917969 L 1523.5 -298.195312 L -709.558594 1123.8125 Z M 866.585938 3598.925781 "/>
        </g>
    </g>
    <path fill-rule="evenodd" fill="rgb(100%, 94.921875%, 91.796875%)" fill-opacity="1"
          d="M 887.128906 1542.441406 C 933.378906 1578.109375 1007.839844 1642.46875 1070.890625 1637.511719 C 1064.660156 1698.449219 1074.539062 1751.589844 1116.109375 1789.398438 L 1153.210938 1760.410156 C 1115.011719 1731.011719 1101.839844 1686.578125 1102.199219 1634.039062 C 1178.398438 1635.480469 1219.660156 1580.261719 1273.789062 1545.921875 C 1220.859375 1546.601562 1168.859375 1554.710938 1111.800781 1584.308594 C 1131.808594 1525.289062 1093.96875 1452.28125 1070.890625 1403.308594 C 1054.351562 1455.980469 1022.671875 1533.191406 1052.789062 1588.691406 C 1008.820312 1558.609375 940.785156 1546.21875 887.128906 1542.441406 "/>
    <path fill-rule="evenodd" fill="rgb(100%, 94.921875%, 91.796875%)" fill-opacity="1"
          d="M 1206.050781 1614.359375 C 1407.621094 1676.511719 1612.011719 1406.179688 1429.261719 1306.300781 C 1494.199219 1131.511719 1290.261719 1076.761719 1210.761719 1129.410156 C 1196.199219 1036.5 1001.398438 994.160156 949.558594 1119.519531 C 830.96875 1071.828125 712.976562 1182.351562 761.816406 1297.878906 C 587.066406 1496.351562 845.832031 1680.28125 989.96875 1629.851562 C 940.574219 1610.570312 876.300781 1551.640625 848.539062 1531.71875 C 917.773438 1524.160156 968.480469 1536.988281 1030.398438 1557 C 1017.269531 1487.421875 1045.109375 1428.691406 1069.269531 1365.550781 C 1103.730469 1427.839844 1140.789062 1486.898438 1129.96875 1558.890625 C 1203.941406 1528.359375 1239.988281 1529.160156 1305.28125 1537.339844 C 1271.859375 1561.171875 1243.519531 1584.191406 1206.050781 1614.359375 "/>
    <path fill-rule="evenodd" fill="rgb(100%, 94.921875%, 91.796875%)" fill-opacity="1"
          d="M 1327.878906 1889.871094 C 1327.949219 1890.371094 1328.140625 1891.878906 1328.050781 1891.378906 C 1328.300781 1892.738281 1328.519531 1894.71875 1328.660156 1897.179688 C 1328.660156 1897.191406 1328.660156 1897.199219 1328.660156 1897.199219 C 1328.808594 1899.488281 1328.890625 1902.460938 1328.890625 1906.058594 C 1328.890625 1915.089844 1328.070312 1924.359375 1326.429688 1933.890625 C 1326.429688 1933.910156 1326.421875 1933.929688 1326.421875 1933.949219 C 1324.929688 1943.320312 1322.699219 1952.460938 1319.730469 1961.378906 C 1319.71875 1961.398438 1319.710938 1961.429688 1319.699219 1961.449219 C 1316.878906 1970.359375 1313.398438 1978.800781 1309.261719 1986.789062 C 1305.128906 1994.609375 1300.511719 2001.558594 1295.398438 2007.691406 L 1295.398438 2007.699219 C 1291.898438 2011.921875 1288.140625 2015.761719 1284.078125 2019.238281 C 1280 2022.730469 1275.890625 2025.679688 1271.75 2028.109375 C 1267.589844 2030.550781 1263.578125 2032.371094 1259.699219 2033.621094 C 1259.648438 2033.628906 1259.589844 2033.648438 1259.539062 2033.671875 C 1255.699219 2035.039062 1252.308594 2035.660156 1249.359375 2035.660156 C 1243.039062 2035.660156 1239.328125 2033.75 1236.238281 2029.21875 C 1233.199219 2024.789062 1231.179688 2016.898438 1231.179688 2005.539062 C 1231.179688 1996.761719 1232.210938 1987.808594 1234.269531 1978.671875 C 1236.351562 1969.46875 1239.171875 1960.589844 1242.71875 1952 C 1246.421875 1943.398438 1250.78125 1935.351562 1255.800781 1927.820312 C 1260.820312 1920.289062 1266.238281 1913.789062 1272.050781 1908.261719 C 1277.839844 1902.761719 1283.839844 1898.488281 1290.058594 1895.378906 C 1296.320312 1892.320312 1302.378906 1890.871094 1308.398438 1890.871094 C 1310.300781 1890.871094 1312.480469 1891.011719 1314.910156 1891.300781 C 1315.019531 1891.308594 1315.121094 1891.320312 1315.21875 1891.320312 C 1317.511719 1891.460938 1319.808594 1891.789062 1322.128906 1892.339844 C 1324.378906 1892.871094 1326.710938 1891.859375 1327.878906 1889.871094 Z M 887.945312 1889.871094 C 888.011719 1890.371094 888.199219 1891.878906 888.117188 1891.378906 C 888.367188 1892.738281 888.585938 1894.71875 888.730469 1897.179688 C 888.730469 1897.191406 888.730469 1897.199219 888.730469 1897.199219 C 888.871094 1899.488281 888.953125 1902.460938 888.953125 1906.058594 C 888.953125 1915.089844 888.136719 1924.359375 886.5 1933.890625 C 886.496094 1933.910156 886.492188 1933.929688 886.488281 1933.949219 C 885 1943.320312 882.769531 1952.460938 879.800781 1961.378906 C 879.789062 1961.398438 879.78125 1961.429688 879.773438 1961.449219 C 876.953125 1970.359375 873.472656 1978.800781 869.328125 1986.789062 C 865.199219 1994.609375 860.578125 2001.558594 855.476562 2007.691406 C 855.472656 2007.691406 855.46875 2007.699219 855.464844 2007.699219 C 851.972656 2011.921875 848.203125 2015.761719 844.144531 2019.238281 C 840.074219 2022.730469 835.960938 2025.679688 831.8125 2028.109375 C 827.660156 2030.550781 823.644531 2032.371094 819.769531 2033.621094 C 819.714844 2033.628906 819.660156 2033.648438 819.609375 2033.671875 C 815.769531 2035.039062 812.375 2035.660156 809.429688 2035.660156 C 803.105469 2035.660156 799.402344 2033.75 796.308594 2029.21875 C 793.269531 2024.789062 791.25 2016.898438 791.25 2005.539062 C 791.25 1996.761719 792.277344 1987.808594 794.339844 1978.671875 C 796.414062 1969.46875 799.234375 1960.589844 802.785156 1952 C 806.488281 1943.398438 810.847656 1935.351562 815.871094 1927.820312 C 820.882812 1920.289062 826.304688 1913.789062 832.117188 1908.261719 C 837.910156 1902.761719 843.910156 1898.488281 850.128906 1895.378906 C 856.390625 1892.320312 862.445312 1890.871094 868.472656 1890.871094 C 870.367188 1890.871094 872.546875 1891.011719 874.980469 1891.300781 C 875.082031 1891.308594 875.183594 1891.320312 875.285156 1891.320312 C 877.582031 1891.460938 879.882812 1891.789062 882.199219 1892.339844 C 884.449219 1892.871094 886.777344 1891.859375 887.945312 1889.871094 Z M 1415.160156 1858.988281 C 1413.609375 1859 1412.148438 1859.679688 1411.148438 1860.851562 C 1410.148438 1862.03125 1409.71875 1863.589844 1409.980469 1865.109375 L 1411.261719 1872.78125 C 1407.960938 1877.648438 1404.410156 1883.699219 1400.378906 1891.46875 C 1400.378906 1891.480469 1400.371094 1891.488281 1400.371094 1891.5 C 1396.03125 1900.019531 1391.558594 1909.429688 1386.929688 1919.761719 C 1382.300781 1930.101562 1377.761719 1940.890625 1373.289062 1952.128906 C 1368.820312 1963.378906 1364.808594 1974.179688 1361.261719 1984.53125 C 1361.25 1984.550781 1361.238281 1984.578125 1361.230469 1984.601562 C 1357.828125 1994.949219 1355.039062 2004.398438 1352.859375 2012.96875 C 1350.660156 2021.460938 1349.480469 2028.160156 1349.480469 2033.558594 C 1349.480469 2038.96875 1351.890625 2044.160156 1356.128906 2047.371094 C 1360.378906 2050.738281 1366.570312 2053.160156 1375.519531 2055.828125 C 1377.398438 2056.390625 1379.429688 2055.859375 1380.800781 2054.449219 C 1382.160156 2053.039062 1382.628906 2050.988281 1382.011719 2049.128906 C 1381.878906 2048.738281 1381.710938 2047.941406 1381.589844 2046.941406 L 1381.589844 2040.460938 C 1381.589844 2034.679688 1382.171875 2027.71875 1383.371094 2019.628906 L 1383.371094 2019.621094 C 1384.570312 2011.351562 1386.230469 2002.609375 1388.351562 1993.390625 C 1390.460938 1984.160156 1392.890625 1974.691406 1395.609375 1964.988281 L 1395.628906 1964.96875 C 1398.511719 1955.238281 1401.480469 1945.980469 1404.511719 1937.179688 C 1407.539062 1928.410156 1410.621094 1920.421875 1413.769531 1913.21875 C 1413.78125 1913.210938 1413.789062 1913.199219 1413.789062 1913.179688 C 1413.808594 1913.140625 1413.828125 1913.101562 1413.851562 1913.050781 C 1414.148438 1919.25 1414.371094 1925.710938 1414.738281 1931.660156 C 1414.738281 1931.679688 1414.738281 1931.710938 1414.738281 1931.730469 C 1415.660156 1943.898438 1416.820312 1955.988281 1418.199219 1968 C 1418.210938 1968.03125 1418.210938 1968.050781 1418.21875 1968.070312 C 1419.761719 1980.101562 1421.609375 1992.140625 1423.769531 2004.171875 C 1425.941406 2016.238281 1428.648438 2028.761719 1431.890625 2041.730469 C 1431.988281 2042.140625 1432.140625 2042.53125 1432.328125 2042.890625 C 1434.898438 2047.789062 1439.828125 2050.878906 1445.929688 2052.800781 C 1452.070312 2054.851562 1458.910156 2055.820312 1466.390625 2055.820312 L 1467.769531 2055.820312 C 1468.820312 2055.820312 1469.921875 2055.699219 1471.039062 2055.320312 C 1473.671875 2054.449219 1475.171875 2051.679688 1474.460938 2049 C 1474.648438 2043.308594 1475.421875 2035.71875 1476.859375 2026.160156 C 1478.53125 2016.179688 1480.71875 2005.339844 1483.449219 1993.640625 C 1486.339844 1981.808594 1489.601562 1969.828125 1493.238281 1957.691406 C 1497.019531 1945.589844 1501.019531 1934.421875 1505.238281 1924.179688 C 1509.578125 1913.851562 1514.050781 1905.171875 1518.570312 1898.160156 C 1523.140625 1891.320312 1527.480469 1887.488281 1530.859375 1886.121094 C 1532.238281 1885.558594 1533.328125 1884.429688 1533.828125 1883.019531 C 1534.328125 1881.609375 1534.210938 1880.050781 1533.488281 1878.738281 C 1532.339844 1876.621094 1530.859375 1874.609375 1529.089844 1872.671875 C 1527.339844 1870.730469 1525.398438 1868.980469 1523.300781 1867.398438 C 1521.238281 1865.851562 1519.050781 1864.550781 1516.769531 1863.488281 C 1514.460938 1862.261719 1512.179688 1861.351562 1509.828125 1860.921875 C 1509.261719 1860.820312 1508.671875 1860.808594 1508.089844 1860.898438 C 1502.929688 1861.691406 1500.46875 1865.429688 1497.738281 1870.03125 C 1495.039062 1874.429688 1492.28125 1880.210938 1489.308594 1887.558594 C 1489.308594 1887.578125 1489.300781 1887.589844 1489.300781 1887.609375 C 1486.488281 1894.789062 1483.550781 1903.148438 1480.460938 1912.71875 C 1477.371094 1922.300781 1474.289062 1932.710938 1471.210938 1943.941406 L 1471.210938 1943.960938 C 1468.128906 1955.050781 1465.128906 1966.75 1462.210938 1979.050781 C 1462.199219 1979.070312 1462.199219 1979.078125 1462.191406 1979.101562 C 1461.140625 1983.691406 1460.230469 1988.351562 1459.21875 1992.96875 C 1457.550781 1984.441406 1456.269531 1975.988281 1455.550781 1967.660156 C 1454.339844 1951.71875 1453.730469 1935.480469 1453.730469 1918.929688 C 1453.730469 1910.601562 1453.960938 1902.820312 1454.410156 1895.589844 C 1454.859375 1888.210938 1455.488281 1882.75 1456.148438 1879.570312 C 1456.320312 1878.738281 1456.289062 1877.871094 1456.058594 1877.058594 C 1455.359375 1874.609375 1454 1873.539062 1452.730469 1872.558594 C 1451.5 1871.609375 1450.101562 1870.820312 1448.46875 1869.988281 C 1445.289062 1868.160156 1441.660156 1866.46875 1437.539062 1864.878906 C 1433.550781 1863.289062 1429.550781 1861.921875 1425.539062 1860.800781 C 1421.46875 1859.660156 1418.179688 1859 1415.160156 1858.988281 Z M 1198.621094 1858.539062 C 1195.960938 1858.539062 1191.671875 1858.941406 1184.71875 1859.71875 L 1184.828125 1859.699219 C 1177.949219 1860.308594 1169.988281 1861 1160.960938 1861.769531 C 1151.96875 1862.53125 1142.511719 1863.289062 1132.589844 1864.058594 C 1132.578125 1864.058594 1132.578125 1864.058594 1132.570312 1864.058594 C 1122.859375 1864.660156 1114.171875 1864.96875 1106.5 1864.96875 C 1101.449219 1864.96875 1097.039062 1864.820312 1093.261719 1864.53125 C 1089.800781 1864.101562 1087.300781 1863.441406 1086.191406 1862.921875 C 1083.609375 1861.730469 1080.550781 1862.808594 1079.28125 1865.339844 C 1078.46875 1866.960938 1077.839844 1868.730469 1077.308594 1870.679688 C 1077.269531 1870.820312 1077.230469 1870.96875 1077.210938 1871.121094 C 1076.859375 1873.03125 1076.660156 1874.761719 1076.660156 1876.421875 C 1076.660156 1882.46875 1078.828125 1888.179688 1082.859375 1892.601562 C 1082.910156 1892.660156 1082.96875 1892.71875 1083.019531 1892.78125 C 1087.519531 1897.269531 1093.890625 1899.371094 1100.988281 1899.371094 C 1105.609375 1899.371094 1110.800781 1899.128906 1116.570312 1898.660156 C 1116.621094 1898.660156 1116.660156 1898.648438 1116.699219 1898.648438 C 1120.050781 1898.300781 1123.710938 1897.859375 1127.261719 1897.460938 C 1126.839844 1898.839844 1126.550781 1899.988281 1126.078125 1901.460938 C 1126.058594 1901.519531 1126.039062 1901.570312 1126.03125 1901.628906 C 1124.839844 1905.78125 1123.429688 1910.101562 1121.78125 1914.589844 C 1121.769531 1914.640625 1121.75 1914.679688 1121.730469 1914.730469 C 1120.210938 1919.300781 1118.609375 1923.941406 1116.941406 1928.648438 C 1115.261719 1933.238281 1113.648438 1937.679688 1112.121094 1941.96875 L 1112.121094 1941.960938 C 1107.980469 1953.449219 1104.308594 1963.710938 1101.089844 1972.761719 C 1097.871094 1981.808594 1095.019531 1989.949219 1092.558594 1997.179688 C 1092.558594 1997.199219 1092.550781 1997.21875 1092.539062 1997.238281 C 1090.238281 2004.289062 1088.179688 2010.648438 1086.339844 2016.320312 C 1086.328125 2016.351562 1086.320312 2016.378906 1086.308594 2016.398438 C 1084.609375 2021.980469 1083.128906 2027.179688 1081.878906 2032.019531 C 1081.53125 2033.390625 1081.75 2034.851562 1082.480469 2036.058594 C 1089.921875 2048.300781 1099.960938 2056.039062 1111.921875 2057.828125 C 1114.761719 2058.25 1117.410156 2056.320312 1117.890625 2053.488281 C 1118.949219 2047.128906 1120.160156 2040.601562 1121.519531 2033.921875 C 1122.878906 2027.289062 1124.46875 2020.339844 1126.28125 2013.089844 L 1126.28125 2013.070312 C 1128.261719 2005.621094 1130.46875 1997.621094 1132.910156 1989.089844 C 1132.910156 1989.070312 1132.910156 1989.058594 1132.921875 1989.050781 C 1135.5 1980.550781 1138.460938 1971.289062 1141.808594 1961.238281 C 1141.820312 1961.230469 1141.820312 1961.21875 1141.828125 1961.199219 C 1143.488281 1956.058594 1145.460938 1950.28125 1147.75 1943.890625 C 1147.75 1943.878906 1147.761719 1943.871094 1147.761719 1943.851562 C 1150.039062 1937.328125 1152.378906 1930.820312 1154.808594 1924.300781 L 1154.820312 1924.269531 C 1157.398438 1917.75 1159.980469 1911.53125 1162.550781 1905.628906 C 1162.558594 1905.609375 1162.570312 1905.601562 1162.570312 1905.578125 C 1164.710938 1900.550781 1166.589844 1896.46875 1168.398438 1892.621094 C 1172.339844 1892.191406 1176.269531 1891.78125 1180.109375 1891.539062 C 1185.058594 1891.238281 1189.929688 1891.089844 1194.71875 1891.089844 C 1197.289062 1891.089844 1200.449219 1891.238281 1204.179688 1891.539062 C 1204.25 1891.539062 1204.328125 1891.550781 1204.398438 1891.550781 C 1208.308594 1891.699219 1212.230469 1891.929688 1216.140625 1892.230469 C 1217.761719 1892.351562 1219.351562 1891.71875 1220.441406 1890.519531 C 1221.53125 1889.320312 1222 1887.691406 1221.730469 1886.089844 C 1220.429688 1878.648438 1218.390625 1872.46875 1215.300781 1867.53125 C 1211.96875 1861.78125 1205.578125 1858.53125 1198.621094 1858.539062 Z M 1048.550781 1858.539062 C 1045.890625 1858.539062 1041.589844 1858.941406 1034.648438 1859.71875 L 1034.761719 1859.699219 C 1027.878906 1860.308594 1019.921875 1861 1010.890625 1861.769531 C 1001.890625 1862.53125 992.433594 1863.289062 982.519531 1864.058594 C 982.507812 1864.058594 982.503906 1864.058594 982.496094 1864.058594 C 972.789062 1864.660156 964.09375 1864.96875 956.425781 1864.96875 C 951.375 1864.96875 946.972656 1864.820312 943.191406 1864.53125 C 939.726562 1864.101562 937.230469 1863.441406 936.113281 1862.921875 C 933.535156 1861.730469 930.480469 1862.808594 929.210938 1865.339844 C 928.402344 1866.960938 927.761719 1868.730469 927.234375 1870.679688 C 927.191406 1870.820312 927.160156 1870.96875 927.132812 1871.121094 C 926.785156 1873.03125 926.589844 1874.761719 926.589844 1876.421875 C 926.589844 1882.46875 928.753906 1888.179688 932.785156 1892.601562 C 932.839844 1892.660156 932.894531 1892.71875 932.949219 1892.78125 C 937.445312 1897.269531 943.820312 1899.371094 950.910156 1899.371094 C 955.535156 1899.371094 960.722656 1899.128906 966.5 1898.660156 C 966.542969 1898.660156 966.585938 1898.648438 966.628906 1898.648438 C 969.972656 1898.300781 973.640625 1897.859375 977.183594 1897.460938 C 976.765625 1898.839844 976.480469 1899.988281 976.003906 1901.460938 C 975.988281 1901.519531 975.972656 1901.570312 975.953125 1901.628906 C 974.769531 1905.78125 973.355469 1910.101562 971.710938 1914.589844 C 971.691406 1914.640625 971.675781 1914.679688 971.65625 1914.730469 C 970.136719 1919.300781 968.539062 1923.941406 966.867188 1928.648438 C 965.183594 1933.238281 963.578125 1937.679688 962.050781 1941.96875 L 962.050781 1941.960938 C 957.910156 1953.449219 954.234375 1963.710938 951.015625 1972.761719 C 947.792969 1981.808594 944.949219 1989.949219 942.488281 1997.179688 C 942.484375 1997.199219 942.476562 1997.21875 942.46875 1997.238281 C 940.171875 2004.289062 938.105469 2010.648438 936.265625 2016.320312 C 936.253906 2016.351562 936.246094 2016.378906 936.238281 2016.398438 C 934.53125 2021.980469 933.058594 2027.179688 931.808594 2032.019531 C 931.457031 2033.390625 931.671875 2034.851562 932.40625 2036.058594 C 939.847656 2048.300781 949.886719 2056.039062 961.851562 2057.828125 C 964.6875 2058.25 967.339844 2056.320312 967.8125 2053.488281 C 968.871094 2047.128906 970.085938 2040.601562 971.449219 2033.921875 C 972.808594 2027.289062 974.394531 2020.339844 976.207031 2013.089844 L 976.207031 2013.070312 C 978.183594 2005.621094 980.394531 1997.621094 982.832031 1989.089844 C 982.832031 1989.070312 982.832031 1989.058594 982.84375 1989.050781 C 985.425781 1980.550781 988.390625 1971.289062 991.738281 1961.238281 C 991.742188 1961.230469 991.746094 1961.21875 991.753906 1961.199219 C 993.417969 1956.058594 995.390625 1950.28125 997.671875 1943.890625 C 997.675781 1943.878906 997.683594 1943.871094 997.6875 1943.851562 C 999.960938 1937.328125 1002.308594 1930.820312 1004.730469 1924.300781 L 1004.75 1924.269531 C 1007.328125 1917.75 1009.910156 1911.53125 1012.480469 1905.628906 C 1012.488281 1905.609375 1012.488281 1905.601562 1012.5 1905.578125 C 1014.640625 1900.550781 1016.511719 1896.46875 1018.320312 1892.621094 C 1022.269531 1892.191406 1026.199219 1891.78125 1030.039062 1891.539062 C 1034.988281 1891.238281 1039.859375 1891.089844 1044.648438 1891.089844 C 1047.210938 1891.089844 1050.378906 1891.238281 1054.109375 1891.539062 C 1054.179688 1891.539062 1054.25 1891.550781 1054.320312 1891.550781 C 1058.238281 1891.699219 1062.148438 1891.929688 1066.070312 1892.230469 C 1067.691406 1892.351562 1069.269531 1891.71875 1070.359375 1890.519531 C 1071.449219 1889.320312 1071.929688 1887.691406 1071.648438 1886.089844 C 1070.359375 1878.648438 1068.320312 1872.46875 1065.230469 1867.53125 C 1061.898438 1861.78125 1055.511719 1858.53125 1048.550781 1858.539062 Z M 723.855469 1858.539062 C 714.21875 1858.539062 704.773438 1860.261719 695.644531 1863.671875 C 686.578125 1866.921875 678 1871.53125 669.957031 1877.480469 C 669.945312 1877.488281 669.929688 1877.5 669.917969 1877.519531 C 662.0625 1883.449219 654.796875 1890.480469 648.125 1898.578125 C 648.121094 1898.589844 648.117188 1898.589844 648.117188 1898.601562 C 641.574219 1906.578125 635.917969 1915.429688 631.15625 1925.109375 C 631.15625 1925.109375 631.15625 1925.109375 631.148438 1925.121094 C 626.382812 1934.648438 622.65625 1944.808594 619.96875 1955.570312 C 619.964844 1955.578125 619.960938 1955.601562 619.953125 1955.621094 C 617.40625 1966.28125 616.136719 1977.191406 616.136719 1988.308594 C 616.136719 2009.671875 621.28125 2026.710938 632.238281 2038.53125 C 643.175781 2050.320312 659.25 2056.191406 679.199219 2056.519531 C 680.015625 2056.53125 680.824219 2056.351562 681.558594 2056 C 685.792969 2053.96875 690.1875 2051.179688 694.828125 2047.660156 C 699.613281 2044.148438 704.363281 2040.109375 709.089844 2035.550781 C 713.960938 2030.988281 718.8125 2025.980469 723.652344 2020.519531 C 728.484375 2015.058594 733.160156 2009.371094 737.679688 2003.449219 C 738.574219 2002.28125 738.933594 2000.78125 738.671875 1999.320312 C 738.136719 1996.398438 736.550781 1993.808594 734.460938 1991.71875 C 732.464844 1989.71875 729.25 1989.660156 727.179688 1991.570312 C 715.375 2002.46875 704.527344 2011.269531 694.699219 2017.96875 C 685.417969 2024.300781 677.953125 2027.929688 672.527344 2029.410156 C 668.992188 2028.300781 666.027344 2025.738281 663.285156 2020.378906 C 660.296875 2014.53125 658.578125 2006.21875 658.578125 1995.441406 C 658.578125 1964.589844 668.773438 1934.398438 689.574219 1904.46875 C 689.578125 1904.46875 689.582031 1904.460938 689.585938 1904.460938 C 692.488281 1900.25 695.597656 1896.421875 698.902344 1892.96875 C 702.355469 1889.519531 705.839844 1886.609375 709.347656 1884.21875 C 712.882812 1881.820312 716.273438 1880.039062 719.492188 1878.828125 C 719.53125 1878.808594 719.566406 1878.800781 719.601562 1878.789062 C 722.914062 1877.460938 725.917969 1876.859375 728.675781 1876.859375 C 732.1875 1876.859375 734.101562 1877.621094 734.871094 1878.238281 C 735.644531 1878.859375 736.058594 1879.441406 736.058594 1881.71875 C 736.058594 1884.28125 734.949219 1887.800781 732.09375 1892.160156 C 732.085938 1892.171875 732.078125 1892.179688 732.070312 1892.191406 C 729.359375 1896.390625 725.53125 1900.609375 720.5 1904.78125 C 719.023438 1906 718.332031 1907.929688 718.691406 1909.820312 C 719.644531 1914.761719 722.019531 1919.289062 725.554688 1923.011719 C 725.585938 1923.039062 725.617188 1923.078125 725.648438 1923.109375 C 729.273438 1926.738281 733.875 1929.101562 738.902344 1929.871094 C 740.382812 1930.101562 741.890625 1929.679688 743.046875 1928.730469 C 746.003906 1926.300781 748.675781 1923.449219 751.054688 1920.210938 C 753.363281 1917.078125 755.351562 1913.851562 757.019531 1910.519531 C 758.851562 1907.011719 760.21875 1903.441406 761.09375 1899.820312 C 762.109375 1896.21875 762.648438 1892.621094 762.648438 1889.070312 C 762.648438 1879.800781 758.757812 1871.601562 751.59375 1866.261719 C 744.558594 1860.898438 735.140625 1858.539062 723.855469 1858.539062 Z M 1282.679688 1858.078125 C 1274.210938 1858.078125 1265.890625 1860.449219 1258.011719 1864.980469 C 1257.988281 1864.988281 1257.980469 1864.988281 1257.96875 1865 C 1250.390625 1869.449219 1243.308594 1875.410156 1236.71875 1882.808594 C 1230.308594 1890.011719 1224.441406 1898.359375 1219.070312 1907.828125 C 1213.730469 1917.109375 1209.089844 1926.929688 1205.171875 1937.28125 C 1205.171875 1937.300781 1205.160156 1937.320312 1205.148438 1937.339844 C 1201.390625 1947.691406 1198.410156 1958.199219 1196.210938 1968.859375 C 1196.210938 1968.890625 1196.199219 1968.910156 1196.199219 1968.941406 C 1194.148438 1979.640625 1193.121094 1989.839844 1193.121094 1999.558594 C 1193.121094 2017.761719 1196.921875 2032.238281 1205.351562 2042.421875 C 1205.351562 2042.429688 1205.351562 2042.429688 1205.351562 2042.441406 C 1213.890625 2052.71875 1226.570312 2057.890625 1241.789062 2057.890625 C 1252.238281 2057.890625 1262.988281 2055.46875 1273.941406 2050.800781 C 1284.898438 2046.128906 1295.179688 2039.539062 1304.738281 2031.101562 C 1312.078125 2024.710938 1318.910156 2017.320312 1325.238281 2008.941406 C 1331.570312 2000.539062 1337.039062 1991.511719 1341.621094 1981.871094 C 1346.378906 1972.199219 1350.019531 1962.050781 1352.558594 1951.449219 C 1355.261719 1940.628906 1356.621094 1929.621094 1356.621094 1918.480469 C 1356.621094 1911.558594 1355.929688 1905.71875 1354.300781 1900.808594 C 1352.960938 1896.300781 1351.140625 1892.449219 1348.628906 1889.328125 C 1346.460938 1886.289062 1343.851562 1883.808594 1340.78125 1882.160156 C 1338.640625 1880.800781 1336.589844 1879.601562 1334.648438 1878.628906 C 1333.128906 1877.871094 1331.351562 1877.890625 1329.851562 1878.679688 C 1328.351562 1879.46875 1327.328125 1880.929688 1327.089844 1882.601562 C 1326.328125 1881.371094 1325.371094 1880.269531 1324.28125 1879.171875 C 1322.308594 1876.851562 1319.921875 1874.640625 1317.109375 1872.488281 C 1314.371094 1870.390625 1311.398438 1868.398438 1308.21875 1866.480469 C 1304.96875 1864.371094 1301.75 1862.628906 1298.539062 1861.28125 C 1295.800781 1860.078125 1293.121094 1859.269531 1290.460938 1858.871094 C 1287.96875 1858.359375 1285.378906 1858.089844 1282.679688 1858.078125 Z M 842.746094 1858.078125 C 834.277344 1858.078125 825.957031 1860.449219 818.074219 1864.980469 C 818.058594 1864.988281 818.046875 1864.988281 818.03125 1865 C 810.449219 1869.449219 803.371094 1875.410156 796.785156 1882.808594 C 790.378906 1890.011719 784.503906 1898.359375 779.140625 1907.828125 C 773.796875 1917.109375 769.160156 1926.929688 765.238281 1937.28125 C 765.230469 1937.300781 765.222656 1937.320312 765.21875 1937.339844 C 761.453125 1947.691406 758.472656 1958.199219 756.277344 1968.859375 C 756.273438 1968.890625 756.265625 1968.910156 756.261719 1968.941406 C 754.21875 1979.640625 753.183594 1989.839844 753.183594 1999.558594 C 753.183594 2017.761719 756.988281 2032.238281 765.417969 2042.421875 C 765.417969 2042.429688 765.417969 2042.429688 765.417969 2042.441406 C 773.957031 2052.71875 786.640625 2057.890625 801.851562 2057.890625 C 812.308594 2057.890625 823.058594 2055.46875 834.011719 2050.800781 C 844.960938 2046.128906 855.242188 2039.539062 864.804688 2031.101562 C 872.144531 2024.710938 878.976562 2017.320312 885.304688 2008.941406 C 891.640625 2000.539062 897.101562 1991.511719 901.6875 1981.871094 C 906.441406 1972.199219 910.089844 1962.050781 912.625 1951.449219 C 915.332031 1940.628906 916.6875 1929.621094 916.6875 1918.480469 C 916.6875 1911.558594 915.992188 1905.71875 914.367188 1900.808594 C 913.019531 1896.300781 911.203125 1892.449219 908.699219 1889.328125 C 906.523438 1886.289062 903.917969 1883.808594 900.839844 1882.160156 C 898.699219 1880.800781 896.652344 1879.601562 894.714844 1878.628906 C 893.199219 1877.871094 891.414062 1877.890625 889.914062 1878.679688 C 888.417969 1879.46875 887.390625 1880.929688 887.15625 1882.601562 C 886.398438 1881.371094 885.4375 1880.269531 884.347656 1879.171875 C 882.371094 1876.851562 879.988281 1874.640625 877.179688 1872.488281 C 874.4375 1870.390625 871.46875 1868.398438 868.289062 1866.480469 C 865.039062 1864.371094 861.8125 1862.628906 858.605469 1861.28125 C 855.867188 1860.078125 853.183594 1859.269531 850.523438 1858.871094 C 848.039062 1858.359375 845.449219 1858.089844 842.746094 1858.078125 "/>
    <g clip-path="url(#clip-2)">
        <g clip-path="url(#clip-3)">
            <path fill-rule="nonzero" fill="url(#linear-pattern-1)"
                  d="M 926.011719 3609.195312 L 3088.546875 2132.589844 L 1484.105469 -217.164062 L -678.429688 1259.441406 Z M 926.011719 3609.195312 "/>
        </g>
    </g>
    <path fill-rule="evenodd" fill="rgb(85.15625%, 46.263123%, 17.259216%)" fill-opacity="1"
          d="M 709.8125 470.660156 C 672.367188 470.421875 646.519531 495.078125 624.199219 524.089844 C 970.402344 467.820312 1387.128906 479.878906 1751.769531 509.710938 C 1740.398438 483.460938 1718.859375 468.671875 1689.410156 471.089844 C 1355.539062 408.46875 1010.441406 408.371094 709.8125 470.660156 "/>
    <g clip-path="url(#clip-4)">
        <g clip-path="url(#clip-5)">
            <path fill-rule="nonzero" fill="url(#linear-pattern-2)"
                  d="M 1874.625 3424.503906 L 3555.601562 2354.0625 L 2384.277344 514.664062 L 703.300781 1585.109375 Z M 1874.625 3424.503906 "/>
        </g>
    </g>
    <path fill-rule="evenodd" fill="rgb(100%, 94.921875%, 91.796875%)" fill-opacity="1"
          d="M 1931.871094 1916.648438 C 1967.75 1944.320312 2025.519531 1994.25 2074.441406 1990.410156 C 2069.609375 2037.679688 2077.269531 2078.910156 2109.519531 2108.238281 L 2138.308594 2085.75 C 2108.660156 2062.941406 2098.449219 2028.46875 2098.730469 1987.710938 C 2157.851562 1988.828125 2189.859375 1945.988281 2231.851562 1919.351562 C 2190.789062 1919.871094 2150.449219 1926.171875 2106.171875 1949.128906 C 2121.699219 1903.339844 2092.339844 1846.699219 2074.441406 1808.710938 C 2061.601562 1849.570312 2037.03125 1909.46875 2060.398438 1952.53125 C 2026.28125 1929.199219 1973.5 1919.578125 1931.871094 1916.648438 "/>
    <path fill-rule="evenodd" fill="rgb(100%, 94.921875%, 91.796875%)" fill-opacity="1"
          d="M 2179.300781 1972.441406 C 2335.679688 2020.660156 2494.261719 1810.929688 2352.46875 1733.441406 C 2402.859375 1597.839844 2244.628906 1555.359375 2182.949219 1596.210938 C 2171.648438 1524.128906 2020.519531 1491.269531 1980.300781 1588.53125 C 1888.300781 1551.53125 1796.761719 1637.28125 1834.648438 1726.910156 C 1699.078125 1880.890625 1899.828125 2023.589844 2011.660156 1984.460938 C 1973.339844 1969.5 1923.46875 1923.789062 1901.929688 1908.328125 C 1955.648438 1902.460938 1994.980469 1912.421875 2043.019531 1927.949219 C 2032.839844 1873.960938 2054.441406 1828.398438 2073.179688 1779.410156 C 2099.921875 1827.738281 2128.660156 1873.558594 2120.269531 1929.410156 C 2177.660156 1905.71875 2205.628906 1906.339844 2256.28125 1912.691406 C 2230.359375 1931.179688 2208.371094 1949.039062 2179.300781 1972.441406 "/>
    <path fill-rule="evenodd" fill="rgb(100%, 94.921875%, 91.796875%)" fill-opacity="1"
          d="M 2273.820312 2186.191406 C 2273.871094 2186.578125 2274.019531 2187.75 2273.949219 2187.359375 C 2274.140625 2188.421875 2274.308594 2189.949219 2274.429688 2191.871094 L 2274.429688 2191.878906 C 2274.539062 2193.660156 2274.601562 2195.960938 2274.601562 2198.761719 C 2274.601562 2205.761719 2273.96875 2212.949219 2272.699219 2220.339844 C 2272.691406 2220.359375 2272.691406 2220.378906 2272.679688 2220.390625 C 2271.53125 2227.660156 2269.800781 2234.75 2267.488281 2241.671875 C 2267.488281 2241.691406 2267.480469 2241.710938 2267.46875 2241.730469 C 2265.289062 2248.640625 2262.578125 2255.191406 2259.371094 2261.390625 C 2256.171875 2267.449219 2252.578125 2272.851562 2248.621094 2277.601562 L 2248.621094 2277.609375 C 2245.910156 2280.878906 2242.980469 2283.859375 2239.839844 2286.558594 C 2236.679688 2289.269531 2233.488281 2291.558594 2230.269531 2293.449219 C 2227.050781 2295.328125 2223.929688 2296.75 2220.921875 2297.71875 C 2220.878906 2297.730469 2220.839844 2297.738281 2220.800781 2297.761719 C 2217.820312 2298.820312 2215.191406 2299.300781 2212.898438 2299.300781 C 2207.988281 2299.300781 2205.121094 2297.820312 2202.71875 2294.308594 C 2200.371094 2290.859375 2198.800781 2284.75 2198.800781 2275.929688 C 2198.800781 2269.121094 2199.589844 2262.179688 2201.191406 2255.078125 C 2202.808594 2247.949219 2204.988281 2241.058594 2207.75 2234.390625 C 2210.621094 2227.730469 2214 2221.46875 2217.898438 2215.628906 C 2221.789062 2209.800781 2225.988281 2204.75 2230.5 2200.460938 C 2235 2196.199219 2239.648438 2192.878906 2244.480469 2190.46875 C 2249.328125 2188.101562 2254.03125 2186.96875 2258.710938 2186.96875 C 2260.179688 2186.96875 2261.871094 2187.078125 2263.761719 2187.300781 C 2263.839844 2187.308594 2263.921875 2187.308594 2263.988281 2187.320312 C 2265.78125 2187.421875 2267.558594 2187.679688 2269.359375 2188.109375 C 2271.101562 2188.519531 2272.910156 2187.738281 2273.820312 2186.191406 Z M 1932.511719 2186.191406 C 1932.558594 2186.578125 1932.699219 2187.75 1932.640625 2187.359375 C 1932.828125 2188.421875 1933 2189.949219 1933.109375 2191.871094 L 1933.109375 2191.878906 C 1933.21875 2193.660156 1933.289062 2195.960938 1933.289062 2198.761719 C 1933.289062 2205.761719 1932.648438 2212.949219 1931.378906 2220.339844 C 1931.378906 2220.359375 1931.378906 2220.378906 1931.371094 2220.390625 C 1930.21875 2227.660156 1928.488281 2234.75 1926.179688 2241.671875 C 1926.179688 2241.691406 1926.171875 2241.710938 1926.171875 2241.730469 C 1923.980469 2248.640625 1921.28125 2255.191406 1918.058594 2261.390625 C 1914.859375 2267.449219 1911.269531 2272.851562 1907.308594 2277.601562 C 1907.308594 2277.601562 1907.308594 2277.609375 1907.300781 2277.609375 C 1904.601562 2280.878906 1901.671875 2283.859375 1898.519531 2286.558594 C 1895.359375 2289.269531 1892.171875 2291.558594 1888.960938 2293.449219 C 1885.730469 2295.328125 1882.621094 2296.75 1879.609375 2297.71875 C 1879.570312 2297.730469 1879.53125 2297.738281 1879.488281 2297.761719 C 1876.511719 2298.820312 1873.878906 2299.300781 1871.589844 2299.300781 C 1866.679688 2299.300781 1863.808594 2297.820312 1861.410156 2294.308594 C 1859.050781 2290.859375 1857.488281 2284.75 1857.488281 2275.929688 C 1857.488281 2269.121094 1858.28125 2262.179688 1859.878906 2255.078125 C 1861.488281 2247.949219 1863.679688 2241.058594 1866.441406 2234.390625 C 1869.308594 2227.730469 1872.691406 2221.46875 1876.589844 2215.628906 C 1880.480469 2209.800781 1884.679688 2204.75 1889.191406 2200.460938 C 1893.679688 2196.199219 1898.339844 2192.878906 1903.171875 2190.46875 C 1908.019531 2188.101562 1912.71875 2186.96875 1917.398438 2186.96875 C 1918.871094 2186.96875 1920.558594 2187.078125 1922.449219 2187.300781 C 1922.53125 2187.308594 1922.601562 2187.308594 1922.679688 2187.320312 C 1924.460938 2187.421875 1926.25 2187.679688 1928.050781 2188.109375 C 1929.789062 2188.519531 1931.601562 2187.738281 1932.511719 2186.191406 Z M 2341.53125 2162.238281 C 2340.328125 2162.238281 2339.199219 2162.769531 2338.421875 2163.679688 C 2337.648438 2164.601562 2337.308594 2165.800781 2337.511719 2166.988281 L 2338.5 2172.941406 C 2335.949219 2176.710938 2333.191406 2181.410156 2330.070312 2187.429688 C 2330.058594 2187.441406 2330.058594 2187.449219 2330.058594 2187.460938 C 2326.691406 2194.070312 2323.21875 2201.371094 2319.628906 2209.378906 C 2316.039062 2217.398438 2312.519531 2225.769531 2309.050781 2234.5 C 2305.578125 2243.230469 2302.46875 2251.601562 2299.710938 2259.628906 C 2299.710938 2259.648438 2299.699219 2259.671875 2299.691406 2259.691406 C 2297.058594 2267.71875 2294.890625 2275.050781 2293.199219 2281.699219 C 2291.488281 2288.28125 2290.578125 2293.480469 2290.578125 2297.671875 C 2290.578125 2301.871094 2292.449219 2305.898438 2295.730469 2308.390625 C 2299.03125 2311 2303.828125 2312.878906 2310.78125 2314.949219 C 2312.238281 2315.378906 2313.808594 2314.96875 2314.871094 2313.878906 C 2315.929688 2312.789062 2316.289062 2311.199219 2315.808594 2309.75 C 2315.710938 2309.449219 2315.578125 2308.820312 2315.488281 2308.050781 L 2315.488281 2303.019531 C 2315.488281 2298.539062 2315.941406 2293.140625 2316.871094 2286.871094 C 2316.871094 2286.859375 2316.871094 2286.859375 2316.871094 2286.851562 C 2317.800781 2280.441406 2319.089844 2273.660156 2320.730469 2266.5 C 2322.371094 2259.339844 2324.25 2252 2326.371094 2244.46875 L 2326.378906 2244.449219 C 2328.621094 2236.910156 2330.921875 2229.71875 2333.269531 2222.898438 C 2335.621094 2216.089844 2338.011719 2209.898438 2340.460938 2204.308594 C 2340.460938 2204.300781 2340.46875 2204.289062 2340.46875 2204.28125 C 2340.480469 2204.238281 2340.5 2204.21875 2340.511719 2204.179688 C 2340.75 2208.980469 2340.921875 2214 2341.210938 2218.609375 C 2341.210938 2218.628906 2341.210938 2218.648438 2341.210938 2218.671875 C 2341.921875 2228.109375 2342.820312 2237.488281 2343.890625 2246.808594 C 2343.898438 2246.828125 2343.898438 2246.839844 2343.910156 2246.859375 C 2345.101562 2256.199219 2346.539062 2265.53125 2348.21875 2274.871094 C 2349.898438 2284.230469 2352 2293.949219 2354.511719 2304.011719 C 2354.589844 2304.320312 2354.710938 2304.628906 2354.851562 2304.910156 C 2356.839844 2308.710938 2360.671875 2311.109375 2365.410156 2312.601562 C 2370.171875 2314.179688 2375.46875 2314.941406 2381.28125 2314.941406 L 2382.351562 2314.941406 C 2383.160156 2314.941406 2384.011719 2314.839844 2384.878906 2314.558594 C 2386.921875 2313.878906 2388.089844 2311.730469 2387.539062 2309.648438 C 2387.679688 2305.238281 2388.28125 2299.351562 2389.398438 2291.929688 C 2390.691406 2284.191406 2392.390625 2275.78125 2394.519531 2266.699219 C 2396.75 2257.53125 2399.28125 2248.230469 2402.109375 2238.808594 C 2405.039062 2229.421875 2408.148438 2220.761719 2411.421875 2212.808594 C 2414.789062 2204.789062 2418.25 2198.058594 2421.761719 2192.621094 C 2425.300781 2187.320312 2428.679688 2184.351562 2431.289062 2183.289062 C 2432.371094 2182.851562 2433.210938 2181.96875 2433.601562 2180.878906 C 2433.988281 2179.78125 2433.898438 2178.578125 2433.339844 2177.558594 C 2432.441406 2175.910156 2431.289062 2174.351562 2429.921875 2172.839844 C 2428.558594 2171.351562 2427.058594 2169.980469 2425.429688 2168.761719 C 2423.828125 2167.558594 2422.128906 2166.550781 2420.371094 2165.71875 C 2418.578125 2164.769531 2416.800781 2164.070312 2414.980469 2163.730469 C 2414.539062 2163.648438 2414.078125 2163.648438 2413.628906 2163.71875 C 2409.621094 2164.328125 2407.710938 2167.230469 2405.601562 2170.800781 C 2403.5 2174.210938 2401.371094 2178.699219 2399.058594 2184.398438 C 2399.058594 2184.410156 2399.050781 2184.429688 2399.050781 2184.441406 C 2396.871094 2190.011719 2394.589844 2196.5 2392.191406 2203.921875 C 2389.800781 2211.351562 2387.410156 2219.429688 2385.019531 2228.148438 C 2382.628906 2236.761719 2380.300781 2245.839844 2378.03125 2255.378906 C 2378.03125 2255.390625 2378.019531 2255.410156 2378.019531 2255.421875 C 2377.210938 2258.980469 2376.5 2262.601562 2375.71875 2266.179688 C 2374.421875 2259.570312 2373.429688 2253.011719 2372.871094 2246.539062 C 2371.929688 2234.179688 2371.460938 2221.578125 2371.460938 2208.738281 C 2371.460938 2202.269531 2371.628906 2196.238281 2371.980469 2190.628906 C 2372.328125 2184.910156 2372.820312 2180.671875 2373.328125 2178.199219 C 2373.46875 2177.558594 2373.441406 2176.890625 2373.261719 2176.25 C 2372.71875 2174.359375 2371.660156 2173.53125 2370.679688 2172.761719 C 2369.730469 2172.03125 2368.640625 2171.410156 2367.371094 2170.769531 C 2364.910156 2169.351562 2362.101562 2168.039062 2358.898438 2166.808594 C 2355.800781 2165.570312 2352.699219 2164.511719 2349.589844 2163.640625 C 2346.429688 2162.761719 2343.878906 2162.238281 2341.53125 2162.238281 Z M 2173.539062 2161.878906 C 2171.46875 2161.878906 2168.140625 2162.199219 2162.75 2162.800781 L 2162.839844 2162.789062 C 2157.5 2163.261719 2151.320312 2163.800781 2144.320312 2164.390625 C 2137.339844 2164.980469 2130 2165.570312 2122.308594 2166.171875 C 2122.300781 2166.171875 2122.300781 2166.171875 2122.289062 2166.171875 C 2114.761719 2166.640625 2108.011719 2166.871094 2102.058594 2166.871094 C 2098.148438 2166.871094 2094.730469 2166.75 2091.800781 2166.53125 C 2089.109375 2166.199219 2087.171875 2165.691406 2086.300781 2165.289062 C 2084.308594 2164.359375 2081.929688 2165.199219 2080.949219 2167.160156 C 2080.320312 2168.421875 2079.828125 2169.789062 2079.421875 2171.300781 C 2079.390625 2171.410156 2079.359375 2171.53125 2079.339844 2171.648438 C 2079.070312 2173.128906 2078.921875 2174.46875 2078.921875 2175.761719 C 2078.921875 2180.449219 2080.589844 2184.878906 2083.71875 2188.308594 C 2083.769531 2188.359375 2083.808594 2188.398438 2083.851562 2188.449219 C 2087.339844 2191.941406 2092.289062 2193.558594 2097.789062 2193.558594 C 2101.371094 2193.558594 2105.398438 2193.378906 2109.878906 2193.011719 C 2109.910156 2193.011719 2109.949219 2193.011719 2109.980469 2193 C 2112.570312 2192.730469 2115.421875 2192.390625 2118.171875 2192.078125 C 2117.851562 2193.148438 2117.621094 2194.039062 2117.25 2195.191406 C 2117.238281 2195.230469 2117.230469 2195.269531 2117.21875 2195.320312 C 2116.300781 2198.539062 2115.199219 2201.890625 2113.921875 2205.371094 C 2113.910156 2205.410156 2113.890625 2205.441406 2113.878906 2205.480469 C 2112.699219 2209.019531 2111.460938 2212.621094 2110.160156 2216.28125 C 2108.859375 2219.839844 2107.609375 2223.289062 2106.429688 2226.609375 L 2106.429688 2226.601562 C 2103.21875 2235.519531 2100.359375 2243.480469 2097.871094 2250.5 C 2095.371094 2257.519531 2093.160156 2263.839844 2091.25 2269.449219 C 2091.25 2269.460938 2091.238281 2269.480469 2091.238281 2269.5 C 2089.449219 2274.960938 2087.851562 2279.898438 2086.421875 2284.300781 C 2086.421875 2284.320312 2086.410156 2284.339844 2086.398438 2284.359375 C 2085.078125 2288.691406 2083.941406 2292.71875 2082.96875 2296.480469 C 2082.691406 2297.539062 2082.859375 2298.671875 2083.429688 2299.609375 C 2089.199219 2309.101562 2096.988281 2315.109375 2106.269531 2316.5 C 2108.46875 2316.828125 2110.53125 2315.328125 2110.898438 2313.140625 C 2111.71875 2308.199219 2112.660156 2303.140625 2113.71875 2297.949219 C 2114.769531 2292.808594 2116.011719 2287.421875 2117.410156 2281.789062 L 2117.410156 2281.78125 C 2118.949219 2275.988281 2120.660156 2269.789062 2122.550781 2263.171875 C 2122.550781 2263.160156 2122.550781 2263.148438 2122.558594 2263.140625 C 2124.558594 2256.550781 2126.859375 2249.359375 2129.460938 2241.570312 C 2129.460938 2241.558594 2129.46875 2241.539062 2129.46875 2241.53125 C 2130.761719 2237.539062 2132.289062 2233.058594 2134.070312 2228.101562 C 2134.070312 2228.089844 2134.070312 2228.078125 2134.078125 2228.070312 C 2135.839844 2223.019531 2137.660156 2217.960938 2139.539062 2212.898438 L 2139.550781 2212.878906 C 2141.558594 2207.820312 2143.558594 2203 2145.550781 2198.421875 C 2145.558594 2198.410156 2145.558594 2198.398438 2145.570312 2198.378906 C 2147.230469 2194.480469 2148.679688 2191.308594 2150.089844 2188.328125 C 2153.140625 2187.988281 2156.191406 2187.679688 2159.171875 2187.488281 C 2163.011719 2187.261719 2166.789062 2187.140625 2170.511719 2187.140625 C 2172.5 2187.140625 2174.960938 2187.25 2177.851562 2187.488281 C 2177.910156 2187.488281 2177.960938 2187.488281 2178.019531 2187.5 C 2181.050781 2187.609375 2184.089844 2187.789062 2187.128906 2188.019531 C 2188.390625 2188.121094 2189.609375 2187.628906 2190.460938 2186.699219 C 2191.308594 2185.769531 2191.679688 2184.5 2191.460938 2183.261719 C 2190.460938 2177.480469 2188.871094 2172.699219 2186.480469 2168.859375 C 2183.890625 2164.398438 2178.941406 2161.878906 2173.539062 2161.878906 Z M 2057.109375 2161.878906 C 2055.039062 2161.878906 2051.710938 2162.199219 2046.320312 2162.800781 L 2046.410156 2162.789062 C 2041.070312 2163.261719 2034.890625 2163.800781 2027.890625 2164.390625 C 2020.910156 2164.980469 2013.570312 2165.570312 2005.878906 2166.171875 C 2005.871094 2166.171875 2005.871094 2166.171875 2005.859375 2166.171875 C 1998.328125 2166.640625 1991.578125 2166.871094 1985.628906 2166.871094 C 1981.71875 2166.871094 1978.300781 2166.75 1975.371094 2166.53125 C 1972.679688 2166.199219 1970.738281 2165.691406 1969.871094 2165.289062 C 1967.871094 2164.359375 1965.5 2165.199219 1964.519531 2167.160156 C 1963.890625 2168.421875 1963.398438 2169.789062 1962.980469 2171.300781 C 1962.949219 2171.410156 1962.929688 2171.53125 1962.910156 2171.648438 C 1962.640625 2173.128906 1962.488281 2174.46875 1962.488281 2175.761719 C 1962.488281 2180.449219 1964.160156 2184.878906 1967.289062 2188.308594 C 1967.339844 2188.359375 1967.378906 2188.398438 1967.421875 2188.449219 C 1970.910156 2191.941406 1975.851562 2193.558594 1981.359375 2193.558594 C 1984.941406 2193.558594 1988.96875 2193.378906 1993.449219 2193.011719 C 1993.480469 2193.011719 1993.519531 2193.011719 1993.550781 2193 C 1996.140625 2192.730469 1998.988281 2192.390625 2001.738281 2192.078125 C 2001.410156 2193.148438 2001.191406 2194.039062 2000.820312 2195.191406 C 2000.808594 2195.230469 2000.800781 2195.269531 2000.789062 2195.320312 C 1999.859375 2198.539062 1998.769531 2201.890625 1997.488281 2205.371094 C 1997.480469 2205.410156 1997.460938 2205.441406 1997.449219 2205.480469 C 1996.269531 2209.019531 1995.03125 2212.621094 1993.730469 2216.28125 C 1992.429688 2219.839844 1991.179688 2223.289062 1990 2226.609375 L 1990 2226.601562 C 1986.789062 2235.519531 1983.929688 2243.480469 1981.441406 2250.5 C 1978.941406 2257.519531 1976.730469 2263.839844 1974.820312 2269.449219 C 1974.820312 2269.460938 1974.808594 2269.480469 1974.808594 2269.5 C 1973.019531 2274.960938 1971.421875 2279.898438 1969.988281 2284.300781 C 1969.980469 2284.320312 1969.980469 2284.339844 1969.96875 2284.359375 C 1968.648438 2288.691406 1967.5 2292.71875 1966.539062 2296.480469 C 1966.261719 2297.539062 1966.429688 2298.671875 1967 2299.609375 C 1972.769531 2309.101562 1980.558594 2315.109375 1989.839844 2316.5 C 1992.039062 2316.828125 1994.101562 2315.328125 1994.46875 2313.140625 C 1995.289062 2308.199219 1996.230469 2303.140625 1997.289062 2297.949219 C 1998.339844 2292.808594 1999.570312 2287.421875 2000.980469 2281.789062 L 2000.980469 2281.78125 C 2002.511719 2275.988281 2004.230469 2269.789062 2006.121094 2263.171875 C 2006.121094 2263.160156 2006.121094 2263.148438 2006.128906 2263.140625 C 2008.128906 2256.550781 2010.429688 2249.359375 2013.03125 2241.570312 C 2013.03125 2241.558594 2013.039062 2241.539062 2013.039062 2241.53125 C 2014.328125 2237.539062 2015.859375 2233.058594 2017.628906 2228.101562 C 2017.640625 2228.089844 2017.640625 2228.078125 2017.648438 2228.070312 C 2019.410156 2223.019531 2021.230469 2217.960938 2023.109375 2212.898438 L 2023.121094 2212.878906 C 2025.121094 2207.820312 2027.121094 2203 2029.121094 2198.421875 C 2029.128906 2198.410156 2029.128906 2198.398438 2029.140625 2198.378906 C 2030.800781 2194.480469 2032.25 2191.308594 2033.648438 2188.328125 C 2036.710938 2187.988281 2039.761719 2187.679688 2042.738281 2187.488281 C 2046.578125 2187.261719 2050.359375 2187.140625 2054.078125 2187.140625 C 2056.070312 2187.140625 2058.53125 2187.25 2061.421875 2187.488281 C 2061.46875 2187.488281 2061.53125 2187.488281 2061.589844 2187.5 C 2064.621094 2187.609375 2067.660156 2187.789062 2070.699219 2188.019531 C 2071.949219 2188.121094 2073.179688 2187.628906 2074.03125 2186.699219 C 2074.878906 2185.769531 2075.238281 2184.5 2075.03125 2183.261719 C 2074.03125 2177.480469 2072.441406 2172.699219 2070.050781 2168.859375 C 2067.460938 2164.398438 2062.511719 2161.878906 2057.109375 2161.878906 Z M 1805.199219 2161.878906 C 1797.71875 2161.878906 1790.398438 2163.21875 1783.308594 2165.871094 C 1776.28125 2168.378906 1769.621094 2171.96875 1763.378906 2176.578125 C 1763.371094 2176.589844 1763.359375 2176.601562 1763.351562 2176.609375 C 1757.261719 2181.210938 1751.621094 2186.671875 1746.441406 2192.949219 C 1746.441406 2192.960938 1746.441406 2192.960938 1746.441406 2192.960938 C 1741.359375 2199.148438 1736.96875 2206.019531 1733.28125 2213.53125 C 1733.28125 2213.53125 1733.28125 2213.53125 1733.269531 2213.539062 C 1729.578125 2220.941406 1726.691406 2228.820312 1724.601562 2237.160156 C 1724.601562 2237.179688 1724.589844 2237.191406 1724.589844 2237.199219 C 1722.609375 2245.480469 1721.628906 2253.941406 1721.628906 2262.570312 C 1721.628906 2279.140625 1725.621094 2292.359375 1734.121094 2301.519531 C 1742.601562 2310.671875 1755.078125 2315.230469 1770.550781 2315.480469 C 1771.191406 2315.488281 1771.808594 2315.359375 1772.378906 2315.078125 C 1775.671875 2313.511719 1779.078125 2311.339844 1782.679688 2308.609375 C 1786.390625 2305.890625 1790.078125 2302.75 1793.738281 2299.210938 C 1797.519531 2295.679688 1801.289062 2291.789062 1805.039062 2287.550781 C 1808.789062 2283.320312 1812.421875 2278.898438 1815.921875 2274.308594 C 1816.621094 2273.398438 1816.898438 2272.238281 1816.691406 2271.109375 C 1816.28125 2268.839844 1815.050781 2266.828125 1813.429688 2265.210938 C 1811.878906 2263.660156 1809.390625 2263.609375 1807.78125 2265.101562 C 1798.621094 2273.550781 1790.199219 2280.378906 1782.578125 2285.578125 C 1775.378906 2290.488281 1769.589844 2293.308594 1765.378906 2294.449219 C 1762.640625 2293.589844 1760.328125 2291.609375 1758.210938 2287.449219 C 1755.890625 2282.910156 1754.550781 2276.460938 1754.550781 2268.089844 C 1754.550781 2244.160156 1762.460938 2220.738281 1778.601562 2197.519531 L 1778.609375 2197.511719 C 1780.871094 2194.238281 1783.28125 2191.28125 1785.839844 2188.601562 C 1788.519531 2185.921875 1791.21875 2183.660156 1793.941406 2181.808594 C 1796.691406 2179.949219 1799.320312 2178.558594 1801.820312 2177.628906 C 1801.839844 2177.609375 1801.871094 2177.601562 1801.898438 2177.589844 C 1804.46875 2176.558594 1806.800781 2176.101562 1808.941406 2176.101562 C 1811.660156 2176.101562 1813.148438 2176.691406 1813.75 2177.171875 C 1814.339844 2177.648438 1814.671875 2178.101562 1814.671875 2179.871094 C 1814.671875 2181.859375 1813.808594 2184.589844 1811.589844 2187.96875 C 1811.578125 2187.980469 1811.578125 2187.980469 1811.570312 2187.988281 C 1809.46875 2191.25 1806.5 2194.53125 1802.601562 2197.761719 C 1801.449219 2198.710938 1800.910156 2200.210938 1801.191406 2201.671875 C 1801.929688 2205.511719 1803.78125 2209.019531 1806.519531 2211.898438 C 1806.539062 2211.929688 1806.570312 2211.960938 1806.589844 2211.980469 C 1809.398438 2214.789062 1812.96875 2216.628906 1816.871094 2217.230469 C 1818.019531 2217.398438 1819.191406 2217.078125 1820.089844 2216.339844 C 1822.378906 2214.449219 1824.449219 2212.238281 1826.300781 2209.730469 C 1828.089844 2207.308594 1829.628906 2204.800781 1830.929688 2202.210938 C 1832.351562 2199.488281 1833.410156 2196.71875 1834.089844 2193.910156 C 1834.878906 2191.121094 1835.300781 2188.328125 1835.300781 2185.570312 C 1835.300781 2178.378906 1832.28125 2172.019531 1826.71875 2167.878906 C 1821.261719 2163.71875 1813.960938 2161.890625 1805.199219 2161.878906 Z M 2238.75 2161.53125 C 2232.179688 2161.53125 2225.71875 2163.371094 2219.609375 2166.878906 C 2219.601562 2166.890625 2219.589844 2166.890625 2219.578125 2166.898438 C 2213.699219 2170.351562 2208.199219 2174.980469 2203.089844 2180.710938 C 2198.121094 2186.300781 2193.570312 2192.78125 2189.398438 2200.128906 C 2185.261719 2207.320312 2181.660156 2214.941406 2178.621094 2222.96875 C 2178.609375 2222.988281 2178.609375 2223.011719 2178.601562 2223.019531 C 2175.679688 2231.050781 2173.371094 2239.199219 2171.671875 2247.480469 C 2171.660156 2247.5 2171.660156 2247.519531 2171.648438 2247.539062 C 2170.070312 2255.839844 2169.269531 2263.75 2169.269531 2271.289062 C 2169.269531 2285.410156 2172.21875 2296.648438 2178.761719 2304.550781 L 2178.761719 2304.558594 C 2185.378906 2312.53125 2195.21875 2316.550781 2207.019531 2316.550781 C 2215.140625 2316.550781 2223.46875 2314.671875 2231.96875 2311.050781 C 2240.46875 2307.429688 2248.441406 2302.308594 2255.859375 2295.761719 C 2261.558594 2290.808594 2266.859375 2285.070312 2271.769531 2278.570312 C 2276.679688 2272.058594 2280.921875 2265.050781 2284.480469 2257.570312 C 2288.171875 2250.070312 2291 2242.191406 2292.960938 2233.96875 C 2295.058594 2225.570312 2296.121094 2217.03125 2296.121094 2208.390625 C 2296.121094 2203.019531 2295.578125 2198.488281 2294.320312 2194.679688 C 2293.269531 2191.179688 2291.859375 2188.199219 2289.921875 2185.78125 C 2288.230469 2183.421875 2286.210938 2181.488281 2283.820312 2180.210938 C 2282.160156 2179.148438 2280.570312 2178.21875 2279.070312 2177.46875 C 2277.890625 2176.878906 2276.511719 2176.898438 2275.351562 2177.511719 C 2274.179688 2178.121094 2273.390625 2179.261719 2273.210938 2180.558594 C 2272.621094 2179.601562 2271.871094 2178.738281 2271.03125 2177.890625 C 2269.488281 2176.089844 2267.640625 2174.378906 2265.46875 2172.710938 C 2263.339844 2171.078125 2261.03125 2169.53125 2258.570312 2168.050781 C 2256.050781 2166.410156 2253.539062 2165.058594 2251.058594 2164.011719 C 2248.929688 2163.078125 2246.851562 2162.449219 2244.78125 2162.140625 C 2242.859375 2161.738281 2240.851562 2161.53125 2238.75 2161.53125 Z M 1897.441406 2161.53125 C 1890.871094 2161.53125 1884.410156 2163.371094 1878.300781 2166.878906 C 1878.289062 2166.890625 1878.269531 2166.890625 1878.261719 2166.898438 C 1872.378906 2170.351562 1866.890625 2174.980469 1861.78125 2180.710938 C 1856.808594 2186.300781 1852.25 2192.78125 1848.089844 2200.128906 C 1843.941406 2207.320312 1840.351562 2214.941406 1837.308594 2222.96875 C 1837.300781 2222.988281 1837.289062 2223.011719 1837.289062 2223.019531 C 1834.371094 2231.050781 1832.058594 2239.199219 1830.351562 2247.480469 C 1830.351562 2247.5 1830.351562 2247.519531 1830.339844 2247.539062 C 1828.75 2255.839844 1827.949219 2263.75 1827.949219 2271.289062 C 1827.949219 2285.410156 1830.898438 2296.648438 1837.441406 2304.550781 L 1837.441406 2304.558594 C 1844.070312 2312.53125 1853.910156 2316.550781 1865.710938 2316.550781 C 1873.820312 2316.550781 1882.160156 2314.671875 1890.660156 2311.050781 C 1899.160156 2307.429688 1907.128906 2302.308594 1914.550781 2295.761719 C 1920.25 2290.808594 1925.550781 2285.070312 1930.460938 2278.570312 C 1935.371094 2272.058594 1939.609375 2265.050781 1943.171875 2257.570312 C 1946.851562 2250.070312 1949.679688 2242.191406 1951.648438 2233.96875 C 1953.75 2225.570312 1954.800781 2217.03125 1954.800781 2208.390625 C 1954.800781 2203.019531 1954.269531 2198.488281 1953 2194.679688 C 1951.960938 2191.179688 1950.550781 2188.199219 1948.609375 2185.78125 C 1946.921875 2183.421875 1944.898438 2181.488281 1942.511719 2180.210938 C 1940.851562 2179.148438 1939.261719 2178.21875 1937.761719 2177.46875 C 1936.578125 2176.878906 1935.199219 2176.898438 1934.03125 2177.511719 C 1932.871094 2178.121094 1932.070312 2179.261719 1931.890625 2180.558594 C 1931.300781 2179.601562 1930.558594 2178.738281 1929.710938 2177.890625 C 1928.179688 2176.089844 1926.328125 2174.378906 1924.148438 2172.710938 C 1922.019531 2171.078125 1919.71875 2169.53125 1917.261719 2168.050781 C 1914.730469 2166.410156 1912.230469 2165.058594 1909.738281 2164.011719 C 1907.621094 2163.078125 1905.53125 2162.449219 1903.46875 2162.140625 C 1901.550781 2161.738281 1899.53125 2161.53125 1897.441406 2161.53125 "/>
    <g clip-path="url(#clip-6)">
        <g clip-path="url(#clip-7)">
            <path fill-rule="nonzero" fill="url(#linear-pattern-3)"
                  d="M 1816.324219 3379.265625 L 3476.347656 2471.496094 L 2458.125 609.484375 L 798.101562 1517.253906 Z M 1816.324219 3379.265625 "/>
        </g>
    </g>
    <path fill-rule="evenodd" fill="rgb(85.15625%, 46.263123%, 17.259216%)" fill-opacity="1"
          d="M 2106.898438 1074.960938 C 1998.679688 1074.699219 1892.480469 1081.261719 1740.238281 1107.398438 C 1709.171875 1107.21875 1675.21875 1124.890625 1644.980469 1145.199219 C 1932.300781 1101.550781 2255 1106.769531 2557.628906 1129.921875 C 2542.429688 1111.210938 2528.351562 1089.089844 2482.679688 1089.628906 C 2327.488281 1082.660156 2215.121094 1075.21875 2106.898438 1074.960938 "/>
</svg>
