<?xml version="1.0" encoding="UTF-8"?>
<svg xmlns="http://www.w3.org/2000/svg" xmlns:xlink="http://www.w3.org/1999/xlink" width="2328" height="2071"
     viewBox="0 0 2328 2071">
    <path fill-rule="nonzero" fill="rgb(0%, 0%, 0%)" fill-opacity="1"
          d="M 944.078125 7.25 C 944.078125 10.871094 947.703125 14.5 951.328125 14.5 C 955.679688 14.5 958.578125 10.871094 958.578125 7.25 C 958.578125 2.898438 955.679688 0 951.328125 0 C 947.703125 0 944.078125 2.898438 944.078125 7.25 Z M 944.078125 7.25 "/>
    <path fill-rule="nonzero" fill="rgb(0%, 0%, 0%)" fill-opacity="1"
          d="M 1854.800781 41.328125 C 1846.820312 49.308594 1850.449219 58.011719 1861.328125 58.011719 C 1867.128906 58.011719 1872.199219 55.109375 1872.199219 51.480469 C 1872.199219 42.058594 1860.601562 35.53125 1854.800781 41.328125 Z M 1854.800781 41.328125 "/>
    <path fill-rule="nonzero" fill="rgb(0%, 0%, 0%)" fill-opacity="1"
          d="M 1357.378906 50.761719 C 1357.378906 54.378906 1361.011719 58.011719 1365.359375 58.011719 C 1368.980469 58.011719 1370.429688 54.378906 1368.261719 50.761719 C 1366.078125 46.410156 1362.460938 43.511719 1360.28125 43.511719 C 1358.828125 43.511719 1357.378906 46.410156 1357.378906 50.761719 Z M 1357.378906 50.761719 "/>
    <path fill-rule="nonzero" fill="rgb(0%, 0%, 0%)" fill-opacity="1"
          d="M 1684.398438 60.179688 C 1669.179688 79.039062 1691.648438 107.320312 1711.949219 94.261719 C 1724.28125 87.011719 1719.210938 55.109375 1704.710938 52.210938 C 1698.179688 51.480469 1689.480469 55.109375 1684.398438 60.179688 Z M 1684.398438 60.179688 "/>
    <path fill-rule="nonzero" fill="rgb(0%, 0%, 0%)" fill-opacity="1"
          d="M 778.753906 110.210938 C 781.65625 129.789062 802.683594 136.320312 809.207031 119.640625 C 815.007812 103.691406 808.484375 94.261719 791.082031 94.261719 C 780.203125 94.261719 776.582031 98.609375 778.753906 110.210938 Z M 778.753906 110.210938 "/>
    <path fill-rule="nonzero" fill="rgb(0%, 0%, 0%)" fill-opacity="1"
          d="M 1937.460938 159.519531 C 1937.460938 163.148438 1941.089844 166.769531 1944.710938 166.769531 C 1949.058594 166.769531 1951.960938 163.148438 1951.960938 159.519531 C 1951.960938 155.171875 1949.058594 152.269531 1944.710938 152.269531 C 1941.089844 152.269531 1937.460938 155.171875 1937.460938 159.519531 Z M 1937.460938 159.519531 "/>
    <path fill-rule="nonzero" fill="rgb(0%, 0%, 0%)" fill-opacity="1"
          d="M 894.769531 171.121094 C 897.671875 186.351562 910.722656 187.800781 913.621094 171.851562 C 915.074219 164.601562 911.445312 159.519531 904.199219 159.519531 C 896.945312 159.519531 893.320312 163.871094 894.769531 171.121094 Z M 894.769531 171.121094 "/>
    <path fill-rule="nonzero" fill="rgb(0%, 0%, 0%)" fill-opacity="1"
          d="M 2039.699219 203.75 C 2030.269531 216.078125 2023.75 226.230469 2025.191406 227.679688 C 2036.070312 236.378906 2059.28125 245.078125 2063.628906 241.460938 C 2070.160156 234.929688 2069.429688 181.269531 2062.898438 182 C 2059.28125 182 2049.128906 192.148438 2039.699219 203.75 Z M 2039.699219 203.75 "/>
    <path fill-rule="nonzero" fill="rgb(0%, 0%, 0%)" fill-opacity="1"
          d="M 332.820312 193.601562 C 324.121094 201.578125 327.019531 210.28125 338.621094 210.28125 C 344.421875 210.28125 349.496094 205.199219 349.496094 199.398438 C 349.496094 187.800781 340.796875 184.898438 332.820312 193.601562 Z M 332.820312 193.601562 "/>
    <path fill-rule="nonzero" fill="rgb(0%, 0%, 0%)" fill-opacity="1"
          d="M 1788.089844 232.761719 C 1780.839844 245.078125 1804.769531 266.109375 1814.921875 255.960938 C 1820 250.878906 1821.441406 242.179688 1819.269531 236.378906 C 1814.191406 223.328125 1795.339844 221.160156 1788.089844 232.761719 Z M 1788.089844 232.761719 "/>
    <path fill-rule="nonzero" fill="rgb(0%, 0%, 0%)" fill-opacity="1"
          d="M 452.460938 247.980469 C 433.609375 266.839844 451.011719 300.910156 477.113281 295.839844 C 499.589844 291.488281 506.117188 271.191406 491.617188 254.511719 C 475.664062 237.109375 464.785156 235.660156 452.460938 247.980469 Z M 452.460938 247.980469 "/>
    <path fill-rule="nonzero" fill="rgb(0%, 0%, 0%)" fill-opacity="1"
          d="M 851.992188 251.609375 L 640.261719 253.78125 L 547.449219 310.339844 C 496.691406 341.519531 433.609375 378.5 407.503906 392.28125 C 353.125 420.558594 265.386719 506.839844 101.511719 691.019531 L 0 805.578125 L 26.101562 844.738281 C 100.0625 951.328125 358.925781 1248.617188 499.589844 1387.835938 C 539.472656 1428.441406 670.714844 1564.039062 790.355469 1689.476562 C 910 1814.917969 1041.960938 1951.964844 1083.300781 1994.019531 L 1157.980469 2070.152344 L 1430.621094 1798.242188 C 1732.980469 1497.328125 1829.421875 1396.539062 1991.121094 1214.539062 C 2199.21875 980.328125 2332.640625 817.179688 2326.839844 803.410156 C 2325.390625 798.339844 2286.230469 754.101562 2241.28125 704.800781 C 2195.589844 655.488281 2123.808594 575.730469 2081.03125 527.871094 C 2017.21875 455.359375 1994.75 435.058594 1954.140625 414.03125 C 1927.308594 399.53125 1865.679688 361.820312 1817.820312 330.640625 C 1714.859375 263.210938 1667.71875 240.011719 1662.648438 254.511719 C 1661.199219 259.589844 1639.441406 294.390625 1614.070312 331.371094 L 1568.390625 398.078125 L 1613.339844 433.609375 C 1674.980469 482.910156 1865.679688 616.328125 1873.648438 616.328125 C 1881.628906 616.328125 1874.378906 603.28125 1813.46875 506.121094 C 1761.988281 424.910156 1679.320312 275.539062 1685.851562 275.539062 C 1689.480469 275.539062 1709.78125 308.890625 1745.308594 373.429688 C 1820.71875 509.738281 1893.949219 614.878906 1965.738281 690.289062 C 2007.070312 733.800781 2042.601562 767.148438 2044.769531 765.699219 C 2046.230469 763.53125 2030.269531 717.121094 2007.789062 662.019531 C 1986.039062 606.910156 1958.488281 534.398438 1947.609375 501.039062 L 1926.578125 440.128906 L 1863.5 393.730469 C 1827.96875 367.621094 1799.691406 345.148438 1799.691406 342.96875 C 1799.691406 340.800781 1810.570312 347.320312 1823.621094 356.75 C 1835.941406 366.898438 1870.03125 388.648438 1899.03125 405.328125 C 1950.511719 435.78125 1951.238281 436.511719 1965.738281 484.371094 C 1973.71875 511.191406 1999.089844 585.878906 2022.300781 650.410156 L 2064.359375 768.609375 L 2135.410156 768.609375 L 2131.058594 741.050781 C 2116.558594 651.140625 2101.328125 606.179688 2067.25 552.519531 C 2047.679688 522.070312 2040.429688 508.300781 2051.300781 521.339844 C 2095.53125 576.449219 2131.789062 616.328125 2213.71875 701.171875 L 2299.289062 790.359375 L 2054.929688 790.359375 L 2023.75 882.441406 C 1972.988281 1035.441406 1862.050781 1278.347656 1796.070312 1382.035156 C 1776.488281 1412.492188 1687.308594 1519.078125 1645.25 1562.585938 C 1622.039062 1585.789062 1658.300781 1538.65625 1707.609375 1479.925781 C 1783.738281 1390.015625 1801.871094 1360.285156 1872.199219 1210.914062 C 1963.558594 1015.859375 2044.769531 815.738281 2035.351562 806.308594 C 2025.921875 796.878906 1934.558594 962.199219 1805.488281 1225.414062 C 1655.398438 1529.234375 1635.101562 1561.136719 1495.878906 1704.703125 C 1432.789062 1769.964844 1342.878906 1859.152344 1295.75 1903.382812 L 1210.910156 1982.417969 L 1250.789062 1903.382812 C 1296.46875 1811.292969 1375.511719 1630.746094 1383.480469 1599.566406 C 1386.390625 1585.789062 1385.660156 1579.988281 1381.308594 1582.886719 C 1374.058594 1587.964844 1345.78125 1643.070312 1237.019531 1869.300781 C 1205.839844 1934.5625 1179.011719 1984.59375 1177.558594 1980.242188 C 1170.308594 1959.214844 1209.460938 1808.394531 1243.539062 1722.832031 L 1280.519531 1629.292969 L 1263.851562 1498.050781 C 1255.140625 1425.542969 1229.769531 1242.816406 1208.011719 1091.273438 C 1186.261719 939.730469 1168.859375 813.558594 1168.859375 809.941406 C 1168.859375 807.03125 1165.960938 804.859375 1163.058594 804.859375 C 1149.28125 804.859375 1101.429688 1038.339844 1060.820312 1303.003906 C 1044.140625 1407.417969 1025.289062 1521.980469 1017.308594 1556.785156 C 1001.359375 1630.746094 999.183594 1623.492188 1069.519531 1741.683594 C 1093.441406 1781.566406 1110.851562 1819.273438 1110.851562 1831.597656 C 1111.570312 1843.199219 1117.378906 1885.253906 1125.351562 1925.132812 C 1132.601562 1965.015625 1137.679688 1998.371094 1136.230469 1999.820312 C 1133.328125 2003.445312 1105.050781 1941.089844 1026.738281 1759.085938 C 989.03125 1671.351562 932.476562 1555.335938 900.570312 1500.230469 C 868.667969 1445.121094 836.035156 1384.9375 828.0625 1366.085938 C 807.03125 1318.226562 712.773438 1030.371094 675.066406 901.300781 L 643.164062 790.359375 L 290.039062 790.359375 L 312.519531 817.179688 C 325.566406 832.410156 360.371094 877.371094 390.828125 917.25 C 421.28125 957.128906 493.789062 1046.320312 551.796875 1115.925781 C 857.792969 1479.925781 854.890625 1476.300781 958.578125 1720.660156 C 983.230469 1779.390625 1023.839844 1861.324219 1048.488281 1901.929688 L 1092.71875 1975.894531 L 1026.738281 1907.007812 C 990.484375 1869.300781 898.398438 1772.867188 822.261719 1693.101562 L 683.769531 1548.082031 L 607.632812 1395.816406 C 566.300781 1312.425781 505.390625 1189.886719 473.488281 1123.902344 C 419.105469 1010.78125 336.445312 865.769531 300.917969 821.539062 C 285.6875 801.230469 285.6875 801.960938 302.363281 851.988281 C 312.519531 879.550781 347.324219 975.261719 380.675781 1064.441406 C 414.753906 1153.628906 439.410156 1223.964844 435.78125 1220.339844 C 426.355469 1210.914062 346.597656 1011.511719 309.617188 906.371094 C 292.214844 856.339844 275.535156 809.941406 273.359375 803.410156 C 269.011719 792.53125 253.785156 790.359375 151.542969 788.910156 L 34.082031 786.730469 L 121.09375 699.71875 C 179.101562 640.988281 195.777344 627.210938 171.847656 656.210938 C 152.996094 680.140625 121.816406 715.671875 103.691406 734.53125 L 70.332031 769.328125 L 167.5 767.148438 L 264.660156 764.980469 L 320.492188 598.929688 C 350.945312 508.300781 380.675781 430.710938 386.476562 427.089844 C 433.609375 398.078125 487.265625 369.800781 487.265625 372.699219 C 487.265625 374.878906 472.039062 385.03125 453.183594 395.898438 C 410.40625 420.558594 385.75 441.589844 385.75 454.640625 C 385.75 459.710938 363.273438 528.601562 334.996094 606.910156 C 307.441406 685.941406 284.238281 751.199219 284.238281 751.929688 C 284.238281 762.078125 321.21875 737.429688 400.976562 672.890625 C 446.660156 636.640625 673.613281 457.53125 710.59375 428.53125 L 741.050781 404.609375 L 720.746094 378.5 C 685.214844 333.550781 644.609375 268.28125 648.238281 263.941406 C 650.410156 261.761719 676.515625 288.589844 705.519531 324.121094 C 734.523438 358.921875 759.902344 390.101562 762.800781 393.730469 C 764.980469 396.628906 816.460938 376.320312 875.917969 348.050781 C 1041.238281 269.738281 1086.191406 247.261719 1074.589844 248.710938 C 1068.789062 249.429688 968.730469 250.878906 851.992188 251.609375 Z M 1785.921875 331.371094 C 1795.339844 342.96875 1794.621094 343.691406 1783.738281 334.269531 C 1771.410156 324.839844 1767.789062 319.039062 1773.589844 319.039062 C 1775.039062 319.039062 1780.839844 324.839844 1785.921875 331.371094 Z M 516.269531 350.949219 C 516.269531 352.398438 510.46875 358.199219 503.945312 363.28125 C 492.34375 372.699219 491.617188 371.980469 501.042969 360.371094 C 510.46875 348.769531 516.269531 345.148438 516.269531 350.949219 Z M 2016.5 530.769531 C 2024.46875 555.429688 2030.269531 576.449219 2028.820312 577.910156 C 2027.371094 580.078125 2020.121094 563.398438 2013.589844 542.371094 C 2006.351562 521.339844 1999.089844 499.589844 1996.921875 494.519531 C 1995.46875 490.171875 1995.46875 485.820312 1997.640625 485.820312 C 1999.820312 485.820312 2008.519531 506.121094 2016.5 530.769531 Z M 226.230469 590.230469 C 226.230469 591.679688 220.429688 597.480469 213.90625 602.558594 C 202.304688 611.980469 201.578125 611.261719 211.003906 599.660156 C 220.429688 588.058594 226.230469 584.429688 226.230469 590.230469 Z M 2258.679688 875.191406 C 2239.101562 898.390625 2205.75 938.28125 2184.71875 964.378906 C 2163.691406 990.480469 2101.328125 1060.089844 2046.949219 1120.277344 C 1991.839844 1179.734375 1920.058594 1260.21875 1886.699219 1297.925781 C 1814.191406 1381.3125 1810.570312 1385.660156 1820 1366.8125 C 1830.140625 1346.507812 2146.289062 981.058594 2260.128906 857.789062 C 2301.460938 812.839844 2300.011719 825.890625 2258.679688 875.191406 Z M 498.144531 1329.828125 C 543.824219 1385.660156 591.679688 1445.121094 604.003906 1461.070312 C 617.058594 1477.027344 590.230469 1450.921875 543.824219 1403.0625 C 498.144531 1355.210938 438.683594 1288.5 411.855469 1254.417969 C 384.300781 1220.339844 350.222656 1179.734375 335.722656 1164.507812 C 319.042969 1146.382812 329.195312 1152.183594 362.546875 1181.1875 C 391.550781 1206.5625 452.460938 1273.273438 498.144531 1329.828125 Z M 647.511719 1513.277344 C 656.9375 1524.878906 656.210938 1525.605469 645.335938 1516.179688 C 638.085938 1511.105469 632.285156 1505.304688 632.285156 1503.851562 C 632.285156 1498.050781 638.085938 1501.675781 647.511719 1513.277344 Z M 647.511719 1513.277344 "/>
    <path fill-rule="nonzero" fill="rgb(0%, 0%, 0%)" fill-opacity="1"
          d="M 1114.46875 261.03125 C 1080.390625 272.640625 952.050781 329.191406 830.234375 385.03125 C 801.230469 398.078125 777.304688 411.859375 777.304688 415.480469 C 777.304688 419.109375 786.003906 429.261719 797.605469 437.230469 C 808.484375 445.929688 848.363281 480.738281 886.070312 514.820312 C 986.132812 604.011719 975.980469 599.660156 994.832031 567.75 C 1012.230469 538.019531 1125.351562 384.300781 1129.699219 384.300781 C 1131.878906 384.300781 1081.121094 465.511719 1022.390625 553.25 C 1007.160156 576.449219 994.832031 598.210938 994.832031 601.828125 C 994.832031 604.730469 1032.539062 640.988281 1078.21875 681.589844 L 1161.609375 755.550781 L 1247.171875 680.871094 C 1382.039062 561.949219 1529.230469 415.480469 1520.53125 406.78125 C 1503.128906 389.378906 1191.339844 246.53125 1171.761719 247.261719 C 1160.160156 247.261719 1134.78125 253.78125 1114.46875 261.03125 Z M 1114.46875 261.03125 "/>
    <path fill-rule="nonzero" fill="rgb(0%, 0%, 0%)" fill-opacity="1"
          d="M 1282.691406 274.089844 C 1310.25 287.140625 1377.679688 319.039062 1433.519531 345.871094 C 1489.351562 372.699219 1537.210938 395.898438 1539.378906 396.628906 C 1544.460938 399.53125 1650.320312 261.03125 1645.96875 257.410156 C 1644.519531 255.960938 1550.980469 253.78125 1438.589844 252.339844 L 1234.121094 250.160156 Z M 1282.691406 274.089844 "/>
    <path fill-rule="nonzero" fill="rgb(0%, 0%, 0%)" fill-opacity="1"
          d="M 189.976562 308.171875 C 189.976562 313.96875 195.050781 319.039062 200.851562 319.039062 C 206.652344 319.039062 211.726562 313.96875 211.726562 308.171875 C 211.726562 302.371094 206.652344 297.289062 200.851562 297.289062 C 195.050781 297.289062 189.976562 302.371094 189.976562 308.171875 Z M 189.976562 308.171875 "/>
    <path fill-rule="nonzero" fill="rgb(0%, 0%, 0%)" fill-opacity="1"
          d="M 1873.648438 324.121094 C 1877.28125 342.25 1893.949219 344.421875 1893.949219 327.019531 C 1893.949219 318.320312 1889.609375 311.789062 1882.351562 311.789062 C 1875.828125 311.789062 1872.199219 316.871094 1873.648438 324.121094 Z M 1873.648438 324.121094 "/>
    <path fill-rule="nonzero" fill="rgb(0%, 0%, 0%)" fill-opacity="1"
          d="M 31.902344 385.75 C 20.300781 397.359375 21.027344 409.679688 33.355469 419.828125 C 53.65625 436.511719 82.660156 407.5 65.984375 387.199219 C 55.832031 374.878906 43.503906 374.148438 31.902344 385.75 Z M 31.902344 385.75 "/>
    <path fill-rule="nonzero" fill="rgb(0%, 0%, 0%)" fill-opacity="1"
          d="M 294.390625 385.03125 C 288.589844 395.179688 302.363281 408.960938 312.519531 403.160156 C 316.867188 400.25 320.492188 395.179688 320.492188 391.558594 C 320.492188 382.121094 299.464844 377.050781 294.390625 385.03125 Z M 294.390625 385.03125 "/>
    <path fill-rule="nonzero" fill="rgb(0%, 0%, 0%)" fill-opacity="1"
          d="M 182.722656 417.660156 C 182.722656 423.460938 186.347656 426.359375 189.976562 424.179688 C 194.324219 422.011719 197.226562 416.929688 197.226562 412.578125 C 197.226562 408.960938 194.324219 406.058594 189.976562 406.058594 C 186.347656 406.058594 182.722656 411.128906 182.722656 417.660156 Z M 182.722656 417.660156 "/>
    <path fill-rule="nonzero" fill="rgb(0%, 0%, 0%)" fill-opacity="1"
          d="M 256.683594 435.78125 C 257.410156 445.210938 262.484375 452.460938 266.113281 451.011719 C 276.988281 448.839844 274.8125 425.628906 263.933594 422.011719 C 257.410156 419.828125 254.511719 424.179688 256.683594 435.78125 Z M 256.683594 435.78125 "/>
    <path fill-rule="nonzero" fill="rgb(0%, 0%, 0%)" fill-opacity="1"
          d="M 661.289062 490.171875 C 615.605469 528.601562 565.574219 570.648438 551.074219 585.148438 L 524.96875 611.261719 L 575.726562 678.691406 C 625.035156 744.679688 639.535156 757.730469 639.535156 736.699219 C 639.535156 721.46875 701.171875 532.21875 725.820312 472.769531 C 738.148438 443.761719 746.851562 420.558594 746.125 420.558594 C 745.398438 421.28125 706.972656 452.460938 661.289062 490.171875 Z M 661.289062 490.171875 "/>
    <path fill-rule="nonzero" fill="rgb(0%, 0%, 0%)" fill-opacity="1"
          d="M 1469.769531 494.519531 C 1429.890625 535.851562 1384.941406 582.25 1369.710938 598.929688 L 1342.160156 628.660156 L 1405.960938 665.640625 C 1495.148438 716.398438 1632.191406 783.109375 1649.601562 783.109375 C 1657.570312 783.109375 1661.921875 779.480469 1660.46875 773.679688 C 1659.019531 769.328125 1632.921875 687.390625 1603.191406 593.128906 C 1574.191406 498.140625 1548.089844 420.558594 1545.910156 420.558594 C 1543.730469 420.558594 1509.648438 453.910156 1469.769531 494.519531 Z M 1469.769531 494.519531 "/>
    <path fill-rule="nonzero" fill="rgb(0%, 0%, 0%)" fill-opacity="1"
          d="M 2093.359375 435.058594 C 2088.28125 443.761719 2094.808594 456.808594 2104.960938 456.808594 C 2113.660156 456.808594 2113.660156 437.230469 2104.960938 431.429688 C 2101.328125 429.261719 2096.261719 430.710938 2093.359375 435.058594 Z M 2093.359375 435.058594 "/>
    <path fill-rule="nonzero" fill="rgb(0%, 0%, 0%)" fill-opacity="1"
          d="M 2183.988281 438.691406 C 2183.988281 444.488281 2187.621094 449.558594 2191.25 449.558594 C 2195.589844 449.558594 2198.5 444.488281 2198.5 438.691406 C 2198.5 432.890625 2195.589844 427.808594 2191.25 427.808594 C 2187.621094 427.808594 2183.988281 432.890625 2183.988281 438.691406 Z M 2183.988281 438.691406 "/>
    <path fill-rule="nonzero" fill="rgb(0%, 0%, 0%)" fill-opacity="1"
          d="M 753.378906 451.011719 C 751.199219 460.441406 730.175781 524.96875 705.519531 594.578125 C 681.589844 664.191406 659.839844 735.96875 656.9375 753.371094 L 651.863281 785.28125 L 672.890625 780.210938 C 684.492188 777.308594 711.320312 767.148438 731.621094 757.730469 C 772.226562 739.601562 941.902344 640.261719 946.976562 631.558594 C 950.605469 625.761719 771.503906 435.058594 762.800781 435.058594 C 759.902344 435.058594 755.550781 442.308594 753.378906 451.011719 Z M 753.378906 451.011719 "/>
    <path fill-rule="nonzero" fill="rgb(0%, 0%, 0%)" fill-opacity="1"
          d="M 124.714844 489.441406 C 124.714844 495.238281 129.792969 500.320312 135.59375 500.320312 C 141.394531 500.320312 146.46875 495.238281 146.46875 489.441406 C 146.46875 483.640625 141.394531 478.570312 135.59375 478.570312 C 129.792969 478.570312 124.714844 483.640625 124.714844 489.441406 Z M 124.714844 489.441406 "/>
    <path fill-rule="nonzero" fill="rgb(0%, 0%, 0%)" fill-opacity="1"
          d="M 237.832031 485.089844 C 232.03125 494.519531 240.730469 515.539062 248.710938 510.46875 C 252.332031 508.300781 258.859375 500.320312 262.484375 492.339844 C 269.011719 480.738281 267.558594 478.570312 255.957031 478.570312 C 247.984375 478.570312 240.007812 481.460938 237.832031 485.089844 Z M 237.832031 485.089844 "/>
    <path fill-rule="nonzero" fill="rgb(0%, 0%, 0%)" fill-opacity="1"
          d="M 2256.5 582.980469 C 2256.5 589.511719 2260.128906 594.578125 2263.75 594.578125 C 2268.109375 594.578125 2271 591.679688 2271 588.058594 C 2271 583.710938 2268.109375 578.628906 2263.75 576.449219 C 2260.128906 574.28125 2256.5 577.179688 2256.5 582.980469 Z M 2256.5 582.980469 "/>
    <path fill-rule="nonzero" fill="rgb(0%, 0%, 0%)" fill-opacity="1"
          d="M 2268.109375 666.359375 C 2265.199219 671.441406 2264.480469 677.238281 2266.660156 679.421875 C 2273.179688 685.941406 2280.429688 676.519531 2276.808594 666.359375 C 2273.910156 658.390625 2272.460938 658.390625 2268.109375 666.359375 Z M 2268.109375 666.359375 "/>
    <path fill-rule="nonzero" fill="rgb(0%, 0%, 0%)" fill-opacity="1"
          d="M 668.539062 796.878906 C 668.539062 807.03125 764.980469 1115.925781 791.804688 1192.789062 C 831.6875 1305.175781 965.828125 1579.988281 981.054688 1580.714844 C 983.957031 1580.714844 987.582031 1569.839844 989.757812 1556.785156 C 996.285156 1509.652344 1047.039062 1231.941406 1075.320312 1086.921875 C 1101.429688 950.601562 1128.980469 836.039062 1143.480469 802.679688 C 1148.558594 791.078125 1134.78125 790.359375 908.546875 790.359375 C 763.527344 790.359375 668.539062 793.261719 668.539062 796.878906 Z M 1002.089844 877.371094 C 1002.089844 880.988281 999.183594 884.621094 994.832031 884.621094 C 991.210938 884.621094 987.582031 880.988281 987.582031 877.371094 C 987.582031 873.019531 991.210938 870.121094 994.832031 870.121094 C 999.183594 870.121094 1002.089844 873.019531 1002.089844 877.371094 Z M 1002.089844 877.371094 "/>
    <path fill-rule="nonzero" fill="rgb(0%, 0%, 0%)" fill-opacity="1"
          d="M 1179.730469 817.910156 C 1185.539062 833.140625 1209.460938 964.378906 1233.390625 1109.398438 C 1299.378906 1511.105469 1307.351562 1563.3125 1308.800781 1606.089844 C 1309.53125 1627.847656 1312.429688 1645.972656 1314.601562 1645.972656 C 1321.128906 1645.972656 1417.570312 1442.222656 1453.820312 1352.308594 C 1484.28125 1276.171875 1585.058594 976.710938 1618.421875 863.589844 C 1627.121094 834.589844 1635.820312 805.578125 1638 800.511719 C 1640.898438 791.808594 1603.191406 790.359375 1405.960938 790.359375 L 1170.308594 790.359375 Z M 1179.730469 817.910156 "/>
    <path fill-rule="nonzero" fill="rgb(0%, 0%, 0%)" fill-opacity="1"
          d="M 1644.519531 865.039062 C 1579.261719 1091.996094 1467.601562 1413.21875 1422.640625 1500.953125 C 1413.941406 1517.632812 1408.871094 1533.582031 1411.039062 1535.757812 C 1413.210938 1537.933594 1416.109375 1537.933594 1417.570312 1536.480469 C 1428.441406 1520.53125 1507.480469 1424.09375 1669.179688 1229.039062 C 1775.039062 1101.421875 1894.679688 955.679688 1936.011719 904.921875 C 1976.621094 854.160156 2017.21875 807.761719 2025.921875 801.960938 C 2041.148438 791.078125 2026.648438 790.359375 1854.070312 790.359375 L 1665.550781 790.359375 Z M 1644.519531 865.039062 "/>
    <path fill-rule="nonzero" fill="rgb(0%, 0%, 0%)" fill-opacity="1"
          d="M 73.960938 1033.269531 C 73.960938 1039.070312 79.035156 1044.140625 84.835938 1044.140625 C 90.636719 1044.140625 95.710938 1039.070312 95.710938 1033.269531 C 95.710938 1027.460938 90.636719 1022.390625 84.835938 1022.390625 C 79.035156 1022.390625 73.960938 1027.460938 73.960938 1033.269531 Z M 73.960938 1033.269531 "/>
    <path fill-rule="nonzero" fill="rgb(0%, 0%, 0%)" fill-opacity="1"
          d="M 255.234375 1218.164062 C 255.234375 1221.792969 258.859375 1225.414062 262.484375 1225.414062 C 266.835938 1225.414062 269.734375 1221.792969 269.734375 1218.164062 C 269.734375 1213.8125 266.835938 1210.914062 262.484375 1210.914062 C 258.859375 1210.914062 255.234375 1213.8125 255.234375 1218.164062 Z M 255.234375 1218.164062 "/>
    <path fill-rule="nonzero" fill="rgb(0%, 0%, 0%)" fill-opacity="1"
          d="M 389.375 1326.929688 C 391.550781 1330.554688 395.175781 1334.179688 397.351562 1334.179688 C 398.804688 1334.179688 400.253906 1330.554688 400.253906 1326.929688 C 400.253906 1322.578125 396.628906 1319.679688 392.277344 1319.679688 C 388.652344 1319.679688 387.203125 1322.578125 389.375 1326.929688 Z M 389.375 1326.929688 "/>
    <path fill-rule="nonzero" fill="rgb(0%, 0%, 0%)" fill-opacity="1"
          d="M 272.636719 1443.667969 C 265.386719 1455.996094 282.0625 1469.773438 292.214844 1459.625 C 300.917969 1450.921875 295.117188 1435.695312 284.238281 1435.695312 C 280.613281 1435.695312 275.535156 1439.320312 272.636719 1443.667969 Z M 272.636719 1443.667969 "/>
    <path fill-rule="nonzero" fill="rgb(0%, 0%, 0%)" fill-opacity="1"
          d="M 388.652344 1446.570312 C 382.851562 1460.347656 397.351562 1472.671875 412.578125 1466.871094 C 426.355469 1461.796875 421.28125 1440.042969 405.332031 1437.144531 C 398.804688 1435.695312 390.828125 1440.042969 388.652344 1446.570312 Z M 388.652344 1446.570312 "/>
    <path fill-rule="nonzero" fill="rgb(0%, 0%, 0%)" fill-opacity="1"
          d="M 498.144531 1489.351562 C 482.1875 1513.277344 494.515625 1544.457031 519.894531 1544.457031 C 546.722656 1544.457031 559.050781 1515.453125 542.371094 1490.074219 C 527.148438 1467.597656 512.644531 1466.871094 498.144531 1489.351562 Z M 498.144531 1489.351562 "/>
    <path fill-rule="nonzero" fill="rgb(0%, 0%, 0%)" fill-opacity="1"
          d="M 2089.730469 1573.460938 C 2089.730469 1577.085938 2093.359375 1580.714844 2096.980469 1580.714844 C 2101.328125 1580.714844 2104.230469 1577.085938 2104.230469 1573.460938 C 2104.230469 1569.113281 2101.328125 1566.210938 2096.980469 1566.210938 C 2093.359375 1566.210938 2089.730469 1569.113281 2089.730469 1573.460938 Z M 2089.730469 1573.460938 "/>
    <path fill-rule="nonzero" fill="rgb(0%, 0%, 0%)" fill-opacity="1"
          d="M 1705.429688 1584.339844 C 1691.648438 1601.015625 1699.628906 1620.59375 1719.929688 1620.59375 C 1731.53125 1620.59375 1738.789062 1616.246094 1740.230469 1607.542969 C 1743.128906 1594.488281 1730.078125 1573.460938 1719.929688 1573.460938 C 1717.03125 1573.460938 1710.511719 1578.539062 1705.429688 1584.339844 Z M 1705.429688 1584.339844 "/>
    <path fill-rule="nonzero" fill="rgb(0%, 0%, 0%)" fill-opacity="1"
          d="M 610.53125 1641.621094 C 610.53125 1646.695312 615.605469 1656.125 622.132812 1661.199219 C 632.285156 1669.175781 635.183594 1668.453125 643.886719 1656.851562 C 659.113281 1636.546875 656.210938 1631.46875 632.285156 1631.46875 C 618.507812 1631.46875 610.53125 1635.09375 610.53125 1641.621094 Z M 610.53125 1641.621094 "/>
    <path fill-rule="nonzero" fill="rgb(0%, 0%, 0%)" fill-opacity="1"
          d="M 1527.058594 1762.710938 C 1521.25 1772.867188 1542.289062 1793.890625 1552.429688 1788.089844 C 1566.210938 1779.390625 1561.859375 1754.738281 1546.628906 1754.738281 C 1538.660156 1754.738281 1529.960938 1758.363281 1527.058594 1762.710938 Z M 1527.058594 1762.710938 "/>
    <path fill-rule="nonzero" fill="rgb(0%, 0%, 0%)" fill-opacity="1"
          d="M 1806.941406 1849 C 1806.941406 1852.625 1810.570312 1856.25 1814.191406 1856.25 C 1818.539062 1856.25 1821.441406 1852.625 1821.441406 1849 C 1821.441406 1844.648438 1818.539062 1841.75 1814.191406 1841.75 C 1810.570312 1841.75 1806.941406 1844.648438 1806.941406 1849 Z M 1806.941406 1849 "/>
    <path fill-rule="nonzero" fill="rgb(0%, 0%, 0%)" fill-opacity="1"
          d="M 871.566406 1921.507812 C 871.566406 1925.132812 875.195312 1928.761719 878.816406 1928.761719 C 883.167969 1928.761719 886.070312 1925.132812 886.070312 1921.507812 C 886.070312 1917.160156 883.167969 1914.257812 878.816406 1914.257812 C 875.195312 1914.257812 871.566406 1917.160156 871.566406 1921.507812 Z M 871.566406 1921.507812 "/>
    <path fill-rule="nonzero" fill="rgb(0%, 0%, 0%)" fill-opacity="1"
          d="M 1310.25 1932.386719 C 1300.101562 1941.8125 1292.128906 1957.765625 1292.128906 1967.914062 C 1292.128906 1986.769531 1316.78125 2015.773438 1332.730469 2015.773438 C 1353.03125 2015.773438 1379.859375 1997.644531 1383.480469 1981.695312 C 1390.011719 1955.589844 1381.308594 1932.386719 1361.011719 1922.960938 C 1334.898438 1910.632812 1329.828125 1912.085938 1310.25 1932.386719 Z M 1310.25 1932.386719 "/>
    <path fill-rule="nonzero" fill="rgb(0%, 0%, 0%)" fill-opacity="1"
          d="M 1470.5 1920.785156 C 1465.421875 1928.761719 1472.679688 1950.511719 1480.648438 1950.511719 C 1483.550781 1950.511719 1490.078125 1945.4375 1495.878906 1938.910156 C 1503.128906 1929.488281 1503.128906 1926.585938 1494.429688 1920.785156 C 1481.378906 1912.808594 1475.570312 1912.808594 1470.5 1920.785156 Z M 1470.5 1920.785156 "/>
</svg>
