<?xml version="1.0" encoding="UTF-8"?>
<svg xmlns="http://www.w3.org/2000/svg" xmlns:xlink="http://www.w3.org/1999/xlink" width="3000" height="2064"
     viewBox="0 0 3000 2064">
    <path fill-rule="evenodd" fill="rgb(0%, 0%, 0%)" fill-opacity="1"
          d="M 1745.210938 789.671875 L 1281.941406 789.671875 C 1272.421875 789.671875 1263.140625 785.761719 1256.539062 778.679688 L 1026.488281 536.660156 C 1013.539062 522.980469 1013.539062 501.488281 1026.730469 488.058594 L 1488.300781 11.109375 C 1501.480469 -2.558594 1525.660156 -2.558594 1538.851562 11.109375 L 2000.660156 488.308594 C 2013.851562 501.738281 2013.851562 523.230469 2000.910156 536.910156 L 1770.851562 778.921875 C 1764.269531 785.761719 1754.980469 789.671875 1745.210938 789.671875 Z M 1297.089844 719.339844 L 1730.320312 719.339844 L 1926.671875 512.730469 L 1513.699219 86.089844 L 1100.730469 512.96875 L 1297.089844 719.339844 "/>
    <path fill-rule="evenodd" fill="rgb(0%, 0%, 0%)" fill-opacity="1"
          d="M 1281.941406 789.671875 C 1258.03125 789.671875 1241.25 766.261719 1248.488281 743.75 L 1480.238281 24.789062 C 1494.289062 -19.230469 1561.320312 2.191406 1547.160156 46.269531 L 1315.398438 765.238281 C 1310.519531 780.390625 1296.839844 789.671875 1281.941406 789.671875 "/>
    <path fill-rule="evenodd" fill="rgb(0%, 0%, 0%)" fill-opacity="1"
          d="M 1745.210938 789.671875 C 1730.320312 789.671875 1716.640625 780.140625 1711.761719 765.25 L 1480 46.28125 C 1465.910156 2.140625 1532.820312 -19.378906 1546.910156 24.800781 L 1778.671875 743.761719 C 1785.960938 766.609375 1768.890625 789.671875 1745.210938 789.671875 "/>
    <path fill-rule="evenodd" fill="rgb(0%, 0%, 0%)" fill-opacity="1"
          d="M 1763.039062 1518.65625 C 1740.058594 1518.65625 1723.878906 1497.691406 1728.609375 1476.167969 L 1914.210938 628.488281 L 1770.859375 779.179688 C 1764.269531 786.261719 1754.988281 790.171875 1745.460938 790.171875 L 1281.941406 790.160156 C 1272.421875 790.160156 1263.140625 786.25 1256.539062 779.171875 L 1113.191406 628.488281 L 1295.621094 1462.238281 C 1305.460938 1507.277344 1236.921875 1522.59375 1227 1477.132812 L 1017.710938 520.539062 C 1010.070312 485.871094 1053.128906 463.191406 1077.550781 488.789062 L 1297.101562 719.820312 L 1730.320312 719.828125 L 1949.871094 488.800781 C 1974.300781 463.179688 2017.328125 485.929688 2009.699219 520.550781 L 1797.230469 1491.300781 C 1793.808594 1507.421875 1779.160156 1518.65625 1763.039062 1518.65625 "/>
    <path fill-rule="evenodd" fill="rgb(0%, 0%, 0%)" fill-opacity="1"
          d="M 1635.570312 1463.210938 C 1613.910156 1463.210938 1597.421875 1443.460938 1600.890625 1422.421875 L 1703.949219 789.660156 L 1324.441406 789.671875 L 1442.640625 1411.441406 C 1451.371094 1457.089844 1381.929688 1469.855469 1373.53125 1424.386719 L 1247.519531 760.859375 C 1243.410156 739.21875 1260.089844 719.089844 1282.199219 719.089844 L 1745.710938 719.089844 C 1766.96875 719.089844 1783.96875 738.300781 1780.378906 759.871094 L 1670.730469 1433.417969 C 1667.558594 1451.003906 1652.660156 1463.210938 1635.570312 1463.210938 "/>
    <path fill-rule="evenodd" fill="rgb(0%, 0%, 0%)" fill-opacity="1"
          d="M 2093.949219 1345.253906 C 2084.671875 1345.253906 2075.640625 1341.59375 2069.039062 1334.996094 L 1828.488281 1094.445312 C 1819.949219 1085.898438 1816.53125 1073.6875 1818.96875 1061.960938 L 1911.769531 638.25 C 1915.191406 622.378906 1929.109375 610.898438 1945.46875 610.648438 L 2437.808594 602.589844 C 2457.550781 602.429688 2473.890625 618.238281 2473.46875 638.25 L 2462.730469 1302.03125 C 2462.480469 1320.835938 2447.339844 1336.214844 2428.539062 1336.710938 Z M 1891.988281 1058.308594 L 2108.371094 1274.6875 L 2393.359375 1267.609375 L 2403.128906 673.921875 L 1974.78125 681 L 1891.988281 1058.308594 "/>
    <path fill-rule="evenodd" fill="rgb(0%, 0%, 0%)" fill-opacity="1"
          d="M 1885.878906 956.46875 C 1849.101562 956.46875 1837.398438 906.660156 1869.769531 890.039062 L 2422.421875 606.738281 C 2463.871094 585.621094 2495.53125 648.28125 2454.660156 669.269531 C 2393.78125 700.53125 1906.53125 956.46875 1885.878906 956.46875 "/>
    <path fill-rule="evenodd" fill="rgb(0%, 0%, 0%)" fill-opacity="1"
          d="M 2093.949219 1345.253906 C 2068.03125 1345.253906 2050.378906 1317.789062 2062.691406 1293.964844 L 2407.28125 621.640625 C 2428.28125 580.441406 2491.171875 612.539062 2469.800781 653.878906 L 2125.21875 1326.203125 C 2119.109375 1338.421875 2106.898438 1345.253906 2093.949219 1345.253906 "/>
    <path fill-rule="evenodd" fill="rgb(0%, 0%, 0%)" fill-opacity="1"
          d="M 1874.160156 1616.820312 C 1839.660156 1616.820312 1836.96875 1570.652344 1744.480469 1513.523438 C 1731.769531 1505.707031 1725.421875 1490.808594 1728.601562 1476.160156 L 1819.210938 1062.460938 C 1825.089844 1035.390625 1858.871094 1025.691406 1878.300781 1045.121094 L 2108.109375 1274.933594 L 2426.808594 1266.867188 C 2461.730469 1265.867188 2476.648438 1312.496094 2446.589844 1331.589844 L 2103.710938 1551.382812 C 2076.921875 1568.34375 2007.808594 1539.03125 1892.960938 1611.453125 C 1887.351562 1614.871094 1880.761719 1616.820312 1874.160156 1616.820312 Z M 1802.359375 1467.367188 C 1831.660156 1487.640625 1858.039062 1510.589844 1881.480469 1536.230469 C 1939.609375 1504.488281 2005.550781 1487.382812 2074.410156 1486.410156 L 2302.511719 1340.125 L 2094.679688 1345.253906 C 2085.160156 1345.253906 2075.628906 1341.839844 2069.039062 1334.996094 L 1873.910156 1139.863281 Z M 1241.640625 1515.722656 C 1176.398438 1515.722656 1218.429688 1412.1875 1264.359375 1420.242188 C 1296.609375 1425.902344 1309.289062 1482.972656 1278.019531 1500.09375 C 1264.609375 1507.4375 1255.191406 1515.722656 1241.640625 1515.722656 "/>
    <path fill-rule="evenodd" fill="rgb(0%, 0%, 0%)" fill-opacity="1"
          d="M 1808.46875 1550.890625 C 1789.621094 1550.890625 1772.519531 1530.550781 1744.480469 1513.277344 C 1731.78125 1505.460938 1725.429688 1490.328125 1728.609375 1475.914062 L 1819.21875 1062.21875 C 1825.101562 1035.140625 1858.878906 1025.449219 1878.308594 1044.878906 L 2118.859375 1285.429688 C 2134.058594 1300.621094 2132.238281 1326.175781 2114.71875 1338.667969 L 1829.230469 1544.296875 C 1822.878906 1548.6875 1815.789062 1550.890625 1808.46875 1550.890625 Z M 1802.359375 1467.367188 C 1804.558594 1468.835938 1806.75 1470.535156 1808.960938 1472.003906 L 2039.738281 1305.9375 L 1873.921875 1140.121094 L 1802.359375 1467.367188 "/>
    <path fill-rule="evenodd" fill="rgb(0%, 0%, 0%)" fill-opacity="1"
          d="M 933.203125 1345.253906 L 598.386719 1336.710938 C 579.578125 1336.214844 564.4375 1321.082031 564.199219 1302.03125 L 553.457031 638.25 C 553.050781 618.75 569.007812 602.171875 589.117188 602.589844 L 1081.460938 610.648438 C 1097.820312 610.898438 1111.738281 622.378906 1115.160156 638.25 L 1207.960938 1061.960938 C 1210.398438 1073.6875 1206.980469 1085.898438 1198.441406 1094.445312 L 957.886719 1334.996094 C 951.515625 1341.59375 942.488281 1345.253906 933.203125 1345.253906 Z M 634.039062 1267.351562 L 919.035156 1274.433594 L 1135.410156 1058.050781 L 1052.871094 680.488281 L 624.515625 673.410156 Z M 1241.160156 746.929688 C 1217.539062 746.929688 1192.160156 711.03125 1167.398438 684.898438 C 1135.488281 651.230469 1186.511719 602.609375 1218.449219 636.300781 C 1250.621094 670.261719 1298.621094 705.308594 1265.578125 737.171875 C 1258.75 743.75 1249.949219 746.929688 1241.160156 746.929688 "/>
    <path fill-rule="evenodd" fill="rgb(0%, 0%, 0%)" fill-opacity="1"
          d="M 1141.269531 956.46875 C 1120.289062 956.46875 634.066406 700.648438 572.5 669.269531 C 531.300781 648.261719 563.394531 585.371094 604.734375 606.738281 L 1157.390625 890.039062 C 1190.359375 906.851562 1177.691406 956.46875 1141.269531 956.46875 "/>
    <path fill-rule="evenodd" fill="rgb(0%, 0%, 0%)" fill-opacity="1"
          d="M 933.203125 1345.253906 C 920.5 1345.253906 908.046875 1338.175781 901.941406 1326.203125 L 557.355469 653.890625 C 536.230469 612.441406 598.886719 580.769531 619.878906 621.648438 L 964.464844 1293.976562 C 976.3125 1317.230469 959.617188 1345.253906 933.203125 1345.253906 "/>
    <path fill-rule="evenodd" fill="rgb(0%, 0%, 0%)" fill-opacity="1"
          d="M 943.460938 1557.480469 C 919.582031 1557.480469 624.203125 1359.632812 580.308594 1331.34375 C 551.003906 1312.460938 564.039062 1265.894531 600.089844 1266.621094 C 645.261719 1267.53125 934.554688 1267.957031 953.464844 1281.765625 L 1224.789062 1477.132812 C 1262.210938 1503.851562 1221.390625 1561.132812 1183.769531 1534.28125 L 921.238281 1345.253906 L 724.160156 1340.371094 L 962.269531 1493.007812 C 991.183594 1511.558594 979.078125 1557.480469 943.460938 1557.480469 Z M 1807.738281 1550.152344 C 1779.238281 1550.152344 1763.28125 1510.828125 1739.601562 1473.953125 C 1714.710938 1435.179688 1773.859375 1396.761719 1798.941406 1436.097656 C 1823.449219 1474.523438 1866.171875 1520.3125 1826.789062 1544.777344 C 1820.671875 1548.449219 1814.328125 1550.152344 1807.738281 1550.152344 Z M 1635.570312 1463.210938 C 1613.910156 1463.210938 1597.421875 1443.460938 1600.890625 1422.421875 L 1624.578125 1277.601562 C 1632.101562 1231.699219 1701.441406 1243.40625 1693.941406 1288.835938 L 1670.25 1433.652344 C 1667.558594 1451.003906 1652.660156 1463.210938 1635.570312 1463.210938 Z M 1350.078125 1148.910156 C 1333.46875 1148.910156 1318.820312 1137.1875 1315.648438 1120.339844 L 1249.21875 771.351562 C 1246.289062 765.601562 1196.898438 731.570312 1230.171875 700.039062 C 1266.941406 665.179688 1314.578125 736.738281 1316.628906 747.660156 L 1385.011719 1106.898438 C 1389.378906 1129.746094 1371.039062 1148.910156 1350.078125 1148.910156 "/>
    <path fill-rule="evenodd" fill="rgb(0%, 0%, 0%)" fill-opacity="1"
          d="M 1204.519531 1540.632812 C 1197.441406 1540.632812 1190.121094 1538.4375 1184.011719 1534.035156 L 912.691406 1338.667969 C 895.238281 1325.964844 893.175781 1300.546875 908.546875 1285.429688 L 1149.101562 1044.878906 C 1181.691406 1012.28125 1231.699219 1061.628906 1198.921875 1094.699219 L 987.671875 1305.949219 L 1225.53125 1477.144531 C 1253.269531 1496.933594 1239.128906 1540.632812 1204.519531 1540.632812 Z M 1407.949219 1453.445312 C 1391.339844 1453.445312 1376.691406 1441.71875 1373.519531 1424.871094 L 1315.648438 1120.339844 C 1306.898438 1074.597656 1376.390625 1062.089844 1384.761719 1107.390625 L 1442.628906 1411.921875 C 1446.699219 1433.199219 1431.011719 1453.445312 1407.949219 1453.445312 "/>
    <path fill-rule="evenodd" fill="rgb(0%, 0%, 0%)" fill-opacity="1"
          d="M 2635.140625 2063.492188 L 364.914062 2063.492188 C 345.625 2063.492188 329.742188 2047.867188 329.742188 2028.320312 C 329.742188 1891.121094 308.351562 1814.460938 429.621094 1724.273438 C 480.417969 1686.425781 542.203125 1661.019531 583.722656 1660.773438 C 692.046875 1490.269531 936.496094 1437.0625 1118.558594 1536.230469 C 1315.609375 1321.074219 1685.289062 1321.460938 1881.46875 1536.230469 C 2063.53125 1437.0625 2307.980469 1490.269531 2416.308594 1660.773438 C 2556.488281 1661.019531 2670.289062 1763.34375 2670.289062 1888.871094 L 2670.289062 2028.320312 C 2670.300781 2047.621094 2654.671875 2063.492188 2635.140625 2063.492188 Z M 400.085938 1993.160156 L 2600.210938 1993.160156 L 2600.210938 1888.878906 C 2600.210938 1794.832031 2504.230469 1722.703125 2399.460938 1731.84375 C 2385.050781 1733.066406 2372.601562 1725.738281 2366 1713.53125 C 2280.199219 1554.828125 2048.328125 1509.476562 1893.199219 1610.953125 C 1878.058594 1620.96875 1857.789062 1617.550781 1846.558594 1603.382812 C 1679.261719 1392.71875 1320.789062 1392.730469 1153.46875 1603.382812 C 1115.148438 1651.621094 1083.089844 1556.742188 918.789062 1556.742188 C 809.378906 1556.742188 707.785156 1606.808594 651.132812 1686.660156 C 660.347656 1737.011719 607.898438 1730.867188 583.980469 1730.867188 C 532.519531 1730.867188 399.753906 1808.621094 399.847656 1888.632812 L 400.085938 1993.160156 "/>
    <path fill-rule="evenodd" fill="rgb(0%, 0%, 0%)" fill-opacity="1"
          d="M 2965.320312 2063.492188 L 34.734375 2063.492188 C -11.566406 2063.492188 -11.578125 1993.152344 34.734375 1993.152344 L 2965.320312 1993.160156 C 3011.550781 1993.160156 3011.570312 2063.492188 2965.320312 2063.492188 "/>
    <path fill-rule="evenodd" fill="rgb(0%, 0%, 0%)" fill-opacity="1"
          d="M 829.414062 1858.355469 C 802.082031 1858.355469 785.632812 1828.800781 798.882812 1805.609375 C 831.25 1748.957031 855.632812 1680.613281 897.785156 1704.746094 C 940.082031 1728.957031 892.390625 1785.054688 859.9375 1840.769531 C 853.339844 1852.007812 841.625 1858.355469 829.414062 1858.355469 "/>
    <path fill-rule="evenodd" fill="rgb(0%, 0%, 0%)" fill-opacity="1"
          d="M 1176.199219 1923.3125 C 1136.648438 1923.3125 1132.96875 1862.34375 1115.871094 1799.25 C 1103.769531 1754.617188 1171.890625 1736.3125 1183.761719 1781.183594 C 1198.011719 1835.085938 1238 1923.3125 1176.199219 1923.3125 "/>
    <path fill-rule="evenodd" fill="rgb(0%, 0%, 0%)" fill-opacity="1"
          d="M 1434.089844 1685.203125 C 1394.539062 1685.203125 1390.859375 1624.230469 1373.761719 1561.140625 C 1361.648438 1516.480469 1429.800781 1498.257812 1441.648438 1543.074219 C 1455.898438 1596.945312 1495.898438 1685.203125 1434.089844 1685.203125 "/>
    <path fill-rule="evenodd" fill="rgb(0%, 0%, 0%)" fill-opacity="1"
          d="M 1496.609375 1927.222656 C 1469.269531 1927.222656 1452.828125 1897.664062 1466.078125 1874.476562 C 1498.441406 1817.820312 1522.828125 1749.476562 1564.980469 1773.609375 C 1607.28125 1797.820312 1559.589844 1853.917969 1527.128906 1909.636719 C 1520.53125 1920.871094 1508.820312 1927.222656 1496.609375 1927.222656 "/>
    <path fill-rule="evenodd" fill="rgb(0%, 0%, 0%)" fill-opacity="1"
          d="M 2117.640625 1836.617188 C 2078.101562 1836.617188 2074.421875 1775.644531 2057.320312 1712.554688 C 2045.21875 1667.921875 2113.339844 1649.617188 2125.210938 1694.488281 C 2139.460938 1748.359375 2179.460938 1836.617188 2117.640625 1836.617188 "/>
    <path fill-rule="evenodd" fill="rgb(0%, 0%, 0%)" fill-opacity="1"
          d="M 2339.140625 1914.765625 C 2298.441406 1914.765625 2290.410156 1856.152344 2330.101562 1845.65625 C 2393.980469 1828.761719 2458.371094 1796.703125 2471.011719 1844.1875 C 2483.429688 1890.828125 2412.191406 1896.820312 2348.171875 1913.546875 C 2345.261719 1914.28125 2342.078125 1914.765625 2339.140625 1914.765625 "/>
    <path fill-rule="evenodd" fill="rgb(0%, 0%, 0%)" fill-opacity="1"
          d="M 1957.441406 1993.160156 C 1916.738281 1993.160156 1908.699219 1934.546875 1948.398438 1924.050781 C 2012.269531 1907.15625 2076.660156 1875.101562 2089.308594 1922.585938 C 2101.699219 1969.128906 2030.46875 1975.347656 1966.46875 1991.941406 C 1963.539062 1992.667969 1960.371094 1993.160156 1957.441406 1993.160156 "/>
    <path fill-rule="evenodd" fill="rgb(0%, 0%, 0%)" fill-opacity="1"
          d="M 1791.859375 1782.402344 C 1752.320312 1782.402344 1748.640625 1721.433594 1731.539062 1658.34375 C 1719.441406 1613.707031 1787.558594 1595.402344 1799.429688 1640.273438 C 1813.679688 1694.148438 1853.679688 1782.402344 1791.859375 1782.402344 "/>
    <path fill-rule="evenodd" fill="rgb(0%, 0%, 0%)" fill-opacity="1"
          d="M 588.863281 1945.78125 C 549.320312 1945.78125 545.640625 1884.8125 528.535156 1821.71875 C 516.429688 1777.058594 584.574219 1758.835938 596.425781 1803.652344 C 610.679688 1857.550781 650.667969 1945.78125 588.863281 1945.78125 "/>
</svg>
