<?xml version="1.0" encoding="UTF-8"?>
<svg xmlns="http://www.w3.org/2000/svg" xmlns:xlink="http://www.w3.org/1999/xlink" width="4001" height="4001"
     viewBox="0 0 4001 4001">
    <path fill-rule="evenodd" fill="rgb(100%, 100%, 100%)" fill-opacity="1"
          d="M 0.835938 0.789062 L 4000.839844 0.789062 L 4000.839844 4000.785156 L 0.835938 4000.785156 L 0.835938 0.789062 "/>
    <path fill-rule="evenodd" fill="rgb(10.205078%, 10.205078%, 10.205078%)" fill-opacity="1"
          d="M 2673.011719 766.238281 L 2881.929688 827.808594 C 2902.441406 833.851562 2914.269531 855.570312 2908.230469 876.078125 L 2891.371094 933.289062 L 2607.878906 849.75 L 2624.730469 792.539062 C 2630.78125 772.03125 2652.5 760.191406 2673.011719 766.238281 "/>
    <path fill-rule="evenodd" fill="rgb(0%, 0%, 0%)" fill-opacity="1"
          d="M 2914.988281 940.261719 L 2589.921875 844.460938 C 2585.238281 843.078125 2580.289062 845.78125 2578.910156 850.460938 C 2577.53125 855.128906 2580.230469 860.089844 2584.910156 861.46875 L 2909.980469 957.261719 C 2914.660156 958.640625 2919.609375 955.941406 2920.988281 951.269531 C 2922.371094 946.589844 2919.671875 941.628906 2914.988281 940.261719 "/>
    <path fill-rule="evenodd" fill="rgb(5.488586%, 27.43988%, 50.976562%)" fill-opacity="1"
          d="M 2570.28125 977.320312 L 2853.769531 1060.871094 L 2886.359375 950.300781 L 2602.859375 866.761719 L 2570.28125 977.320312 "/>
    <path fill-rule="evenodd" fill="rgb(0%, 0%, 0%)" fill-opacity="1"
          d="M 2733.058594 783.929688 L 2821.878906 810.109375 L 2826.96875 792.871094 L 2738.140625 766.691406 L 2733.058594 783.929688 "/>
    <path fill-rule="evenodd" fill="rgb(0%, 0%, 0%)" fill-opacity="1"
          d="M 2637.691406 773.269531 L 2614.570312 851.71875 L 2607.878906 849.75 L 2624.730469 792.539062 C 2627.058594 784.660156 2631.699219 778.058594 2637.691406 773.269531 "/>
    <path fill-rule="evenodd" fill="rgb(0%, 0%, 0%)" fill-opacity="1"
          d="M 2659.128906 764.78125 L 2631.988281 856.859375 L 2623.28125 854.289062 L 2649.019531 766.941406 C 2652.261719 765.78125 2655.648438 765.039062 2659.128906 764.78125 "/>
    <path fill-rule="evenodd" fill="rgb(0%, 0%, 0%)" fill-opacity="1"
          d="M 2677.269531 767.488281 L 2649.421875 861.988281 L 2640.710938 859.421875 L 2668.480469 765.191406 C 2669.988281 765.449219 2671.5 765.789062 2673.011719 766.238281 L 2677.269531 767.488281 "/>
    <path fill-rule="evenodd" fill="rgb(0%, 0%, 0%)" fill-opacity="1"
          d="M 2694.699219 772.628906 L 2666.851562 867.128906 L 2658.128906 864.558594 L 2685.980469 770.058594 L 2694.699219 772.628906 "/>
    <path fill-rule="evenodd" fill="rgb(0%, 0%, 0%)" fill-opacity="1"
          d="M 2712.121094 777.761719 L 2684.269531 872.261719 L 2675.558594 869.691406 L 2703.410156 775.199219 L 2712.121094 777.761719 "/>
    <path fill-rule="evenodd" fill="rgb(0%, 0%, 0%)" fill-opacity="1"
          d="M 2729.550781 782.898438 L 2701.699219 877.398438 L 2692.988281 874.828125 L 2720.828125 780.328125 L 2729.550781 782.898438 "/>
    <path fill-rule="evenodd" fill="rgb(0%, 0%, 0%)" fill-opacity="1"
          d="M 2746.980469 788.039062 L 2719.128906 882.53125 L 2710.410156 879.96875 L 2738.261719 785.46875 L 2746.980469 788.039062 "/>
    <path fill-rule="evenodd" fill="rgb(0%, 0%, 0%)" fill-opacity="1"
          d="M 2764.398438 793.171875 L 2736.550781 887.671875 L 2727.839844 885.101562 L 2755.691406 790.601562 L 2764.398438 793.171875 "/>
    <path fill-rule="evenodd" fill="rgb(0%, 0%, 0%)" fill-opacity="1"
          d="M 2781.828125 798.308594 L 2753.980469 892.800781 L 2745.269531 890.238281 L 2773.121094 795.738281 L 2781.828125 798.308594 "/>
    <path fill-rule="evenodd" fill="rgb(0%, 0%, 0%)" fill-opacity="1"
          d="M 2799.25 803.441406 L 2771.410156 897.941406 L 2762.691406 895.371094 L 2790.539062 800.871094 L 2799.25 803.441406 "/>
    <path fill-rule="evenodd" fill="rgb(0%, 0%, 0%)" fill-opacity="1"
          d="M 2816.679688 808.578125 L 2788.828125 903.078125 L 2780.121094 900.511719 L 2807.96875 806.011719 L 2816.679688 808.578125 "/>
    <path fill-rule="evenodd" fill="rgb(0%, 0%, 0%)" fill-opacity="1"
          d="M 2834.109375 813.710938 L 2806.261719 908.210938 L 2797.550781 905.640625 L 2825.390625 811.140625 L 2834.109375 813.710938 "/>
    <path fill-rule="evenodd" fill="rgb(0%, 0%, 0%)" fill-opacity="1"
          d="M 2851.53125 818.851562 L 2823.691406 913.351562 L 2814.96875 910.78125 L 2842.820312 816.28125 L 2851.53125 818.851562 "/>
    <path fill-rule="evenodd" fill="rgb(0%, 0%, 0%)" fill-opacity="1"
          d="M 2868.960938 823.980469 L 2841.109375 918.480469 L 2832.398438 915.910156 L 2860.25 821.421875 L 2868.960938 823.980469 "/>
    <path fill-rule="evenodd" fill="rgb(0%, 0%, 0%)" fill-opacity="1"
          d="M 2886.308594 829.390625 L 2858.539062 923.621094 L 2849.828125 921.050781 L 2877.671875 826.550781 L 2881.929688 827.808594 C 2883.441406 828.25 2884.898438 828.78125 2886.308594 829.390625 "/>
    <path fill-rule="evenodd" fill="rgb(0%, 0%, 0%)" fill-opacity="1"
          d="M 2901.710938 841.398438 L 2875.96875 928.75 L 2867.25 926.191406 L 2894.390625 834.109375 C 2897.160156 836.21875 2899.621094 838.679688 2901.710938 841.398438 "/>
    <path fill-rule="evenodd" fill="rgb(0%, 0%, 0%)" fill-opacity="1"
          d="M 2884.679688 931.320312 L 2907.800781 852.871094 C 2910.230469 860.148438 2910.550781 868.199219 2908.230469 876.078125 L 2891.371094 933.289062 L 2884.679688 931.320312 "/>
    <path fill-rule="evenodd" fill="rgb(5.488586%, 27.43988%, 50.976562%)" fill-opacity="1"
          d="M 2467 892.921875 L 2371.550781 691.378906 C 2352.550781 651.28125 2314.570312 627.238281 2270.191406 627.238281 L 1459.019531 627.238281 C 1397.25 627.238281 1346.871094 677.621094 1346.871094 739.390625 L 1346.871094 771.820312 L 2263.308594 771.820312 L 2330.039062 923.078125 L 2453.519531 888.910156 L 2441.261719 885.269531 L 2467 892.921875 "/>
    <path fill-rule="evenodd" fill="rgb(6.272888%, 33.738708%, 61.914062%)" fill-opacity="1"
          d="M 2882.980469 3374.335938 L 1118.691406 3374.335938 C 1056.921875 3374.335938 1006.539062 3323.953125 1006.539062 3262.1875 L 1006.539062 770.53125 C 1006.539062 708.761719 1056.921875 658.378906 1118.691406 658.378906 L 1366.890625 658.378906 L 1753.929688 885.269531 L 2441.261719 885.269531 L 2914.929688 1026.03125 C 2963.25 1040.390625 2995.128906 1083.128906 2995.128906 1133.53125 L 2995.128906 3262.1875 C 2995.128906 3323.953125 2944.75 3374.335938 2882.980469 3374.335938 "/>
    <path fill-rule="evenodd" fill="rgb(99.609375%, 76.171875%, 0%)" fill-opacity="1"
          d="M 1556.339844 2663.539062 L 1666.640625 2835.261719 L 1769.980469 2996.128906 C 1779.53125 3011.007812 1780.160156 3028.632812 1771.679688 3044.152344 C 1763.199219 3059.671875 1748.03125 3068.671875 1730.351562 3068.671875 L 1303.078125 3068.671875 C 1285.398438 3068.671875 1270.230469 3059.671875 1261.75 3044.152344 C 1253.269531 3028.632812 1253.898438 3011.007812 1263.460938 2996.128906 L 1366.789062 2835.261719 L 1477.089844 2663.539062 C 1486.019531 2649.648438 1500.210938 2641.898438 1516.71875 2641.898438 C 1533.230469 2641.898438 1547.421875 2649.648438 1556.339844 2663.539062 "/>
    <path fill-rule="nonzero" fill="rgb(6.871033%, 6.011963%, 5.760193%)" fill-opacity="1"
          d="M 1532.429688 2678.890625 C 1530.578125 2676.011719 1528.339844 2673.851562 1525.761719 2672.441406 C 1523.179688 2671.03125 1520.160156 2670.320312 1516.71875 2670.320312 C 1513.28125 2670.320312 1510.25 2671.03125 1507.671875 2672.441406 C 1505.089844 2673.851562 1502.851562 2676.011719 1501 2678.890625 L 1287.371094 3011.484375 C 1285.390625 3014.550781 1284.351562 3017.738281 1284.238281 3020.90625 C 1284.121094 3024.089844 1284.941406 3027.347656 1286.679688 3030.542969 C 1288.421875 3033.726562 1290.71875 3036.164062 1293.449219 3037.789062 C 1296.179688 3039.40625 1299.429688 3040.246094 1303.078125 3040.246094 L 1730.351562 3040.246094 C 1734.011719 3040.246094 1737.25 3039.40625 1739.980469 3037.789062 C 1742.71875 3036.164062 1745.011719 3033.726562 1746.75 3030.542969 C 1748.5 3027.347656 1749.308594 3024.089844 1749.199219 3020.90625 C 1749.078125 3017.738281 1748.039062 3014.550781 1746.070312 3011.484375 Z M 1530.410156 2663.898438 C 1534.46875 2666.109375 1537.890625 2669.359375 1540.628906 2673.628906 L 1754.269531 3006.21875 C 1757.191406 3010.773438 1758.75 3015.621094 1758.921875 3020.566406 C 1759.101562 3025.496094 1757.890625 3030.441406 1755.300781 3035.195312 C 1752.691406 3039.96875 1749.179688 3043.664062 1744.941406 3046.179688 C 1740.691406 3048.703125 1735.769531 3050.011719 1730.351562 3050.011719 L 1303.078125 3050.011719 C 1297.660156 3050.011719 1292.75 3048.703125 1288.488281 3046.179688 C 1284.25 3043.664062 1280.75 3039.96875 1278.140625 3035.195312 C 1275.539062 3030.441406 1274.328125 3025.496094 1274.511719 3020.566406 C 1274.691406 3015.621094 1276.238281 3010.773438 1279.160156 3006.21875 L 1492.800781 2673.628906 C 1495.539062 2669.359375 1498.960938 2666.109375 1503.019531 2663.898438 C 1507.078125 2661.679688 1511.660156 2660.550781 1516.71875 2660.550781 C 1521.769531 2660.550781 1526.359375 2661.679688 1530.410156 2663.898438 "/>
    <path fill-rule="evenodd" fill="rgb(0%, 0%, 0%)" fill-opacity="1"
          d="M 1496.421875 2862.859375 C 1491.691406 2849.441406 1487.628906 2821.878906 1472.199219 2817.710938 C 1480.960938 2844.699219 1471.148438 2851.109375 1476.96875 2879.96875 C 1460.089844 2871.128906 1456.761719 2847.03125 1441.558594 2837.53125 C 1446.628906 2885.980469 1439.089844 2855.730469 1455.980469 2909.898438 C 1438.679688 2906.789062 1431.011719 2897.679688 1422.839844 2889.289062 C 1428.429688 2939.058594 1457.191406 2967.03125 1490.019531 2976.988281 C 1475.699219 2969.308594 1465.621094 2960.058594 1464.71875 2946.328125 C 1471.53125 2952.871094 1479.410156 2955.640625 1492.640625 2956.609375 C 1486.039062 2941.910156 1477.511719 2937.121094 1481.589844 2916.550781 C 1490.089844 2927.308594 1487.589844 2930.5 1503.519531 2936.03125 C 1502.769531 2909.320312 1514.851562 2889.011719 1514.570312 2864.921875 C 1532.558594 2909.710938 1532.671875 2902.789062 1533.199219 2935.460938 C 1542.128906 2928.621094 1552.390625 2920.609375 1560.949219 2911.261719 C 1551.980469 2947.078125 1550.941406 2943.359375 1542.011719 2957.179688 C 1554.679688 2957.5 1559.910156 2953.789062 1569.351562 2949.820312 C 1562.96875 2963.761719 1559.75 2970.039062 1549.730469 2976.179688 C 1579.769531 2966.03125 1602.699219 2940.910156 1600.761719 2904.320312 C 1591.871094 2911.191406 1592.308594 2913.398438 1578.199219 2915.769531 C 1591.71875 2898.75 1601.628906 2909.410156 1593.410156 2853.320312 C 1579.851562 2870.058594 1583.738281 2883.828125 1561.039062 2881.871094 C 1568.519531 2859.089844 1569.128906 2831.691406 1558.25 2812.070312 C 1556.410156 2838.828125 1550.300781 2847.769531 1538.480469 2863.378906 C 1543.03125 2833.050781 1522.289062 2792.078125 1510.378906 2763.019531 C 1501 2796.898438 1508.101562 2843.511719 1496.421875 2862.859375 "/>
    <path fill-rule="evenodd" fill="rgb(0%, 0%, 0%)" fill-opacity="1"
          d="M 1611.488281 3005.84375 L 1423.78125 3005.84375 L 1423.78125 2991.398438 L 1611.488281 2991.398438 L 1611.488281 3005.84375 "/>
    <path fill-rule="nonzero" fill="rgb(5.488586%, 27.43988%, 50.976562%)" fill-opacity="1"
          d="M 1615.859375 2400.46875 C 1587.078125 2429.25 1540.421875 2429.25 1511.640625 2400.46875 C 1482.859375 2371.691406 1482.859375 2325.019531 1511.640625 2296.238281 L 2385.808594 1422.070312 C 2414.589844 1393.289062 2461.25 1393.289062 2490.03125 1422.070312 C 2518.808594 1450.851562 2518.808594 1497.519531 2490.03125 1526.300781 L 1615.859375 2400.46875 "/>
    <path fill-rule="nonzero" fill="rgb(5.488586%, 27.43988%, 50.976562%)" fill-opacity="1"
          d="M 2490.03125 2296.238281 C 2518.808594 2325.019531 2518.808594 2371.691406 2490.03125 2400.46875 C 2461.25 2429.25 2414.589844 2429.25 2385.808594 2400.46875 L 1511.640625 1526.300781 C 1482.859375 1497.519531 1482.859375 1450.851562 1511.640625 1422.070312 C 1540.421875 1393.289062 1587.078125 1393.289062 1615.859375 1422.070312 L 2490.03125 2296.238281 "/>
</svg>
