<?xml version="1.0" encoding="UTF-8"?>
<svg xmlns="http://www.w3.org/2000/svg" xmlns:xlink="http://www.w3.org/1999/xlink" width="3001" height="2984"
     viewBox="0 0 3001 2984">
    <path fill-rule="evenodd" fill="rgb(0%, 0%, 0%)" fill-opacity="1"
          d="M 2965.839844 2983.203125 L 2427.019531 2983.203125 C 2407.730469 2983.203125 2391.859375 2967.335938 2391.859375 2948.042969 L 2391.859375 773.261719 C 2391.859375 730.53125 2357.191406 695.859375 2314.460938 695.859375 L 687.523438 695.859375 C 644.796875 695.859375 610.128906 730.53125 610.128906 773.261719 L 610.128906 2948.054688 C 610.128906 2967.335938 594.507812 2983.214844 574.96875 2983.214844 L 36.15625 2983.203125 C 16.625 2983.203125 0.996094 2967.335938 0.996094 2948.042969 L 1.003906 35.949219 C 1.003906 16.421875 16.625 0.789062 36.164062 0.789062 L 2965.839844 0.800781 C 2985.121094 0.800781 3001 16.421875 3001 35.960938 L 3001 2948.054688 C 3000.988281 2967.335938 2985.121094 2983.203125 2965.839844 2983.203125 Z M 2462.179688 2912.894531 L 2930.679688 2912.894531 L 2930.679688 71.109375 L 71.316406 71.109375 L 71.316406 2912.894531 L 539.816406 2912.894531 L 539.816406 773.261719 C 539.816406 691.710938 605.984375 625.550781 687.523438 625.550781 L 2314.230469 625.550781 C 2395.769531 625.550781 2461.929688 691.710938 2461.929688 773.261719 L 2461.929688 2912.894531 L 2462.179688 2912.894531 "/>
    <path fill-rule="evenodd" fill="rgb(0%, 0%, 0%)" fill-opacity="1"
          d="M 2427.019531 2859.425781 L 574.976562 2859.425781 C 528.691406 2859.425781 528.683594 2789.105469 574.976562 2789.105469 L 2427.019531 2789.117188 C 2473.238281 2789.117188 2473.261719 2859.425781 2427.019531 2859.425781 "/>
    <path fill-rule="evenodd" fill="rgb(0%, 0%, 0%)" fill-opacity="1"
          d="M 1501 2859.425781 C 1481.46875 2859.425781 1465.839844 2843.558594 1465.839844 2824.265625 L 1465.839844 660.699219 C 1465.839844 614.359375 1536.160156 614.351562 1536.160156 660.699219 L 1536.160156 2824.265625 C 1536.160156 2843.558594 1520.28125 2859.425781 1501 2859.425781 "/>
    <path fill-rule="evenodd" fill="rgb(0%, 0%, 0%)" fill-opacity="1"
          d="M 2823.738281 1414.371094 L 2569.351562 1414.371094 C 2543.011719 1414.371094 2525.621094 1386.390625 2538.339844 1362.609375 L 2665.539062 1125.550781 C 2678.730469 1100.859375 2714.359375 1100.859375 2727.550781 1125.550781 L 2854.738281 1362.609375 C 2867.738281 1386.921875 2849.328125 1414.371094 2823.738281 1414.371094 Z M 2627.949219 1344.050781 L 2764.910156 1344.050781 L 2696.550781 1216.359375 Z M 2627.949219 1344.050781 "/>
    <path fill-rule="evenodd" fill="rgb(0%, 0%, 0%)" fill-opacity="1"
          d="M 2696.308594 1877 C 2683.359375 1877 2671.398438 1869.929688 2665.300781 1858.449219 L 2538.109375 1621.390625 C 2525.410156 1597.640625 2542.71875 1569.628906 2569.109375 1569.628906 L 2823.5 1569.628906 C 2849.839844 1569.628906 2867.230469 1597.609375 2854.5 1621.390625 L 2727.308594 1858.449219 C 2721.210938 1869.929688 2709.25 1877 2696.308594 1877 Z M 2627.949219 1639.949219 L 2696.550781 1767.390625 L 2764.910156 1639.949219 Z M 2627.949219 1639.949219 "/>
    <path fill-rule="evenodd" fill="rgb(0%, 0%, 0%)" fill-opacity="1"
          d="M 2050.308594 482.730469 L 951.683594 482.730469 C 907.003906 482.730469 870.871094 446.351562 870.871094 401.910156 L 870.871094 255.429688 C 870.871094 210.75 907.25 174.621094 951.683594 174.621094 L 2050.308594 174.621094 C 2094.988281 174.621094 2131.371094 211 2131.371094 255.429688 L 2131.371094 401.910156 C 2131.371094 446.589844 2094.988281 482.730469 2050.308594 482.730469 Z M 951.683594 244.691406 C 945.824219 244.691406 940.945312 249.570312 940.945312 255.429688 L 940.945312 401.910156 C 940.945312 407.769531 945.824219 412.648438 951.683594 412.648438 L 2050.308594 412.660156 C 2056.171875 412.660156 2060.808594 407.78125 2060.808594 401.921875 L 2060.808594 255.441406 C 2060.808594 249.578125 2055.929688 244.699219 2050.308594 244.699219 L 951.683594 244.691406 "/>
    <path fill-rule="evenodd" fill="rgb(0%, 0%, 0%)" fill-opacity="1"
          d="M 2965.839844 2019.34375 L 2427.019531 2019.34375 C 2380.800781 2019.34375 2380.789062 1949.03125 2427.019531 1949.03125 L 2965.839844 1949.03125 C 3012.070312 1949.03125 3012.070312 2019.34375 2965.839844 2019.34375 Z M 2965.839844 1034.96875 L 2427.019531 1034.96875 C 2380.738281 1034.96875 2380.71875 964.660156 2427.019531 964.660156 L 2965.839844 964.660156 C 3012.128906 964.660156 3012.128906 1034.96875 2965.839844 1034.96875 "/>
</svg>
