<?xml version="1.0" encoding="UTF-8"?>
<svg xmlns="http://www.w3.org/2000/svg" xmlns:xlink="http://www.w3.org/1999/xlink" width="1824" height="3001"
     viewBox="0 0 1824 3001">
    <path fill-rule="nonzero" fill="rgb(0%, 0%, 0%)" fill-opacity="1"
          d="M 0.460938 392.75 C 0.460938 396.730469 0.957031 400.589844 1.886719 404.28125 L 166.96875 1236.558594 C 170.269531 1259.21875 189.785156 1276.621094 213.355469 1276.621094 L 1610.640625 1276.621094 C 1632.578125 1276.640625 1652.199219 1261.191406 1656.621094 1238.859375 L 1656.601562 1238.710938 L 1822.109375 404.28125 C 1823.039062 400.589844 1823.539062 396.730469 1823.539062 392.75 C 1823.539062 284.300781 1779.570312 186.121094 1708.5 115.039062 C 1637.429688 43.96875 1539.238281 0 1430.789062 0 C 1342.171875 0 1267.101562 30.128906 1200.808594 88.941406 C 1197.03125 91.929688 1193.640625 95.550781 1190.828125 99.789062 L 1190.878906 99.898438 C 1161.058594 144.800781 1124.539062 180.171875 1084.230469 205.960938 C 1029.230469 241.179688 967.09375 258.628906 905.378906 258.339844 C 843.824219 258.050781 782.398438 240.03125 728.613281 204.300781 C 691.023438 179.339844 657.078125 145.558594 629.355469 102.980469 C 627.242188 99.179688 624.570312 95.601562 621.316406 92.390625 L 621.132812 92.390625 C 557.925781 29.898438 481.476562 0 393.203125 0 C 284.761719 0 186.574219 43.96875 115.5 115.039062 C 44.425781 186.121094 0.460938 284.300781 0.460938 392.75 "/>
    <path fill-rule="nonzero" fill="rgb(0%, 0%, 0%)" fill-opacity="1"
          d="M 1415.421875 1335.210938 L 1415.421875 1692.921875 L 408.574219 1947.449219 L 408.574219 1335.210938 Z M 1415.421875 1789.300781 L 1415.421875 1997.910156 L 408.574219 2251.246094 L 408.574219 2043.832031 Z M 1415.421875 2094.269531 L 1415.421875 2301.886719 L 411.9375 2554.695312 C 409.726562 2535.617188 408.574219 2516.226562 408.574219 2496.578125 L 408.574219 2347.609375 Z M 1415.421875 2398.253906 L 1415.421875 2496.578125 C 1415.421875 2635.058594 1358.789062 2760.941406 1267.578125 2852.160156 C 1176.359375 2943.378906 1050.488281 3000.003906 912.007812 3000.003906 L 912 3000.003906 C 773.519531 3000.003906 647.636719 2943.378906 556.417969 2852.160156 C 499.46875 2795.210938 456.015625 2724.753906 431.394531 2646.15625 L 1415.421875 2398.253906 "/>
</svg>
