<?xml version="1.0" encoding="UTF-8"?>
<svg xmlns="http://www.w3.org/2000/svg" xmlns:xlink="http://www.w3.org/1999/xlink" width="2585" height="1753"
     viewBox="0 0 2585 1753">
    <path fill-rule="nonzero" fill="rgb(0%, 0%, 0%)" fill-opacity="1"
          d="M 1290.121094 2.089844 C 1175.550781 14.421875 1080.929688 53.941406 1024.371094 113.390625 C 999.714844 139.5 989.566406 160.160156 989.203125 184.089844 C 989.203125 206.570312 995.003906 217.441406 1017.480469 236.300781 C 1041.410156 256.601562 1050.46875 277.988281 1043.589844 300.109375 C 1037.789062 320.050781 1026.179688 336.359375 982.675781 384.578125 C 937.71875 434.96875 919.230469 459.988281 905.453125 488.628906 C 887.324219 527.058594 892.402344 564.410156 917.414062 574.921875 C 934.816406 582.171875 951.132812 579.988281 990.652344 565.859375 C 1037.058594 548.820312 1060.628906 536.121094 1097.960938 507.121094 C 1115 494.070312 1138.210938 476.671875 1149.441406 468.328125 C 1161.050781 459.988281 1170.480469 452.011719 1170.480469 450.199219 C 1170.480469 445.851562 1133.128906 447.300781 1111.378906 453.101562 C 1076.941406 462.171875 1061.710938 472.320312 1023.28125 511.46875 C 985.578125 549.179688 973.976562 556.429688 948.234375 556.429688 C 935.542969 556.429688 920.316406 541.929688 920.316406 529.601562 C 920.316406 516.179688 931.917969 487.539062 945.332031 467.96875 C 951.859375 458.539062 979.050781 427.71875 1005.878906 399.441406 C 1072.230469 329.839844 1084.191406 304.460938 1072.230469 260.949219 C 1069.320312 251.160156 1060.628906 238.839844 1044.671875 222.878906 C 1020.738281 198.230469 1016.03125 189.171875 1019.660156 173.941406 C 1027.988281 141.308594 1110.660156 102.160156 1198.390625 89.109375 C 1241.539062 82.578125 1347.039062 84.03125 1401.421875 92 C 1504.019531 107.230469 1597.191406 136.960938 1677.320312 179.738281 L 1711.398438 197.871094 L 1758.890625 192.429688 C 1785.359375 189.171875 1824.878906 185.539062 1846.628906 184.089844 L 1886.511719 181.191406 L 1853.878906 161.609375 C 1688.921875 62.269531 1520.339844 6.078125 1369.878906 0.28125 C 1343.050781 -0.449219 1307.160156 0.28125 1290.121094 2.089844 Z M 1290.121094 2.089844 "/>
    <path fill-rule="nonzero" fill="rgb(0%, 0%, 0%)" fill-opacity="1"
          d="M 1273.441406 118.109375 C 1236.820312 121.371094 1188.609375 132.96875 1158.878906 144.929688 C 1136.039062 154 1097.960938 177.929688 1097.960938 183 C 1097.960938 184.449219 1113.191406 182.640625 1131.679688 179.019531 C 1237.910156 158.351562 1331.089844 164.148438 1426.441406 197.871094 C 1456.160156 208.378906 1502.210938 229.410156 1521.058594 241.371094 C 1527.949219 245.359375 1534.480469 244.269531 1571.820312 232.671875 C 1628.011719 215.269531 1669.710938 204.761719 1683.121094 204.761719 C 1700.160156 204.761719 1691.460938 199.679688 1643.96875 181.191406 C 1548.980469 144.570312 1464.140625 124.269531 1378.941406 117.75 C 1323.109375 113.761719 1316.578125 113.761719 1273.441406 118.109375 Z M 1273.441406 118.109375 "/>
    <path fill-rule="nonzero" fill="rgb(0%, 0%, 0%)" fill-opacity="1"
          d="M 1188.609375 199.320312 C 1153.070312 207.289062 1119.359375 225.421875 1110.660156 241.738281 C 1100.5 260.949219 1105.21875 263.851562 1136.039062 257.328125 C 1206.371094 242.460938 1310.058594 259.859375 1374.230469 297.210938 L 1394.53125 309.171875 L 1414.109375 299.378906 C 1424.628906 293.941406 1451.449219 281.621094 1473.199219 271.828125 C 1495.320312 262.398438 1513.449219 254.058594 1514.171875 253.339844 C 1520.339844 248.621094 1415.558594 215.269531 1360.820312 204.03125 C 1312.589844 194.609375 1221.601562 191.699219 1188.609375 199.320312 Z M 1188.609375 199.320312 "/>
    <path fill-rule="nonzero" fill="rgb(0%, 0%, 0%)" fill-opacity="1"
          d="M 1904.640625 250.441406 C 1679.128906 268.929688 1522.511719 310.261719 1366.25 392.191406 C 1228.851562 464.699219 1130.960938 539.019531 971.074219 692.75 C 866.296875 793.535156 827.144531 824.714844 769.859375 852.265625 C 725.988281 873.660156 688.648438 882.722656 645.140625 882.722656 C 606.714844 882.722656 580.96875 877.285156 542.90625 861.332031 C 495.046875 841.390625 469.667969 820.726562 369.242188 719.570312 C 311.960938 662.289062 260.117188 613.351562 240.539062 598.851562 C 155.339844 535.398438 84.28125 518 38.597656 549.898438 C 32.796875 553.890625 28.449219 557.878906 28.449219 559.328125 C 28.449219 560.78125 37.875 562.230469 49.476562 562.589844 C 80.292969 564.039062 108.933594 579.628906 139.023438 611.179688 C 185.429688 660.480469 222.410156 726.828125 240.902344 793.898438 C 243.800781 804.414062 247.425781 846.105469 249.601562 891.785156 C 255.039062 1016.503906 261.203125 1044.417969 293.109375 1093 C 328.277344 1146.296875 334.800781 1187.988281 324.289062 1288.050781 C 310.875 1414.21875 284.40625 1534.949219 257.941406 1589.691406 C 223.136719 1661.476562 164.765625 1699.90625 99.144531 1693.742188 C 71.953125 1691.207031 41.496094 1679.96875 17.570312 1664.015625 C -2.367188 1650.601562 -4.183594 1652.050781 6.332031 1672.355469 C 29.535156 1716.582031 82.464844 1741.601562 143.375 1736.886719 C 235.101562 1730 348.9375 1664.738281 429.425781 1572.652344 C 472.570312 1523.347656 503.75 1472.589844 554.507812 1370.351562 C 580.246094 1318.507812 611.0625 1260.5 623.390625 1241.644531 C 653.480469 1195.238281 693 1156.449219 728.167969 1139.046875 C 772.394531 1117.292969 794.152344 1112.941406 860.496094 1113.300781 C 966.722656 1113.664062 1039.960938 1133.96875 1242.980469 1219.167969 C 1356.828125 1267.023438 1408.671875 1279.351562 1496.769531 1278.988281 C 1684.929688 1278.265625 1889.410156 1202.492188 2073.589844 1064.722656 C 2260.660156 925.140625 2407.128906 761.269531 2545.988281 535.769531 C 2567.019531 501.320312 2584.421875 471.589844 2584.421875 469.410156 C 2584.421875 461.808594 2549.25 489.359375 2507.558594 530.691406 C 2483.988281 553.53125 2464.78125 571.289062 2464.78125 570.570312 C 2464.78125 562.589844 2478.191406 508.929688 2486.890625 481.019531 C 2499.578125 441.140625 2527.859375 379.5 2544.539062 354.851562 C 2550.699219 345.429688 2554.691406 337.089844 2553.960938 336 C 2546.710938 328.75 2506.109375 363.558594 2487.25 393.28125 C 2480 404.160156 2439.398438 483.191406 2396.609375 568.75 C 2354.199219 654.320312 2313.589844 732.988281 2306.699219 743.871094 C 2285.679688 776.855469 2265.738281 795.347656 2210.988281 831.964844 C 2181.980469 851.542969 2119.988281 899.398438 2073.21875 938.554688 C 1975.699219 1020.128906 1920.230469 1060.371094 1855.691406 1096.261719 C 1716.109375 1173.851562 1577.621094 1209.015625 1429.699219 1204.304688 C 1351.03125 1201.765625 1317.308594 1195.238281 1236.820312 1166.960938 C 1080.929688 1112.214844 1050.46875 1103.152344 976.511719 1090.824219 C 925.394531 1082.488281 830.042969 1082.488281 791.613281 1090.824219 C 726.714844 1105.328125 678.136719 1132.15625 635.71875 1176.75 C 602.363281 1212.277344 579.882812 1248.171875 528.039062 1347.511719 C 487.070312 1426.542969 447.914062 1493.253906 436.3125 1502.679688 C 433.777344 1504.855469 439.941406 1491.078125 450.453125 1472.226562 C 460.96875 1453.375 480.910156 1413.855469 494.683594 1384.128906 C 540.003906 1286.964844 576.257812 1215.542969 592.933594 1189.4375 C 658.921875 1087.5625 774.9375 1033.542969 946.058594 1025.566406 C 1008.78125 1022.667969 1074.039062 1027.742188 1165.039062 1042.605469 C 1253.859375 1057.109375 1275.25 1058.558594 1308.25 1051.671875 C 1348.128906 1043.332031 1406.128906 1013.242188 1382.570312 1013.242188 C 1351.390625 1013.242188 1267.28125 999.101562 1154.160156 975.171875 C 1075.488281 958.496094 996.816406 954.507812 940.980469 963.933594 C 893.125 971.910156 830.765625 990.398438 768.046875 1015.050781 C 709.3125 1038.253906 672.695312 1050.945312 681.035156 1045.507812 C 683.9375 1043.691406 704.964844 1030.644531 727.804688 1016.503906 C 750.644531 1002.726562 790.886719 974.808594 817.355469 955.234375 C 843.820312 935.292969 874.273438 913.902344 884.789062 907.375 C 895.300781 900.851562 904.726562 895.414062 905.089844 895.050781 C 905.8125 894.324219 904.726562 888.523438 902.554688 881.632812 C 900.011719 874.382812 897.839844 862.421875 897.476562 854.082031 C 897.113281 844.65625 895.664062 840.664062 893.125 842.480469 C 891.3125 844.292969 872.097656 859.519531 851.070312 876.195312 C 775.660156 936.742188 735.054688 954.507812 666.171875 957.769531 C 576.257812 962.121094 489.972656 932.03125 428.703125 874.382812 C 415.289062 862.058594 385.558594 827.617188 362.71875 798.25 C 339.878906 768.519531 307.972656 729.730469 292.019531 711.601562 C 276.429688 693.839844 266.28125 680.78125 269.90625 682.601562 C 278.242188 687.308594 334.800781 744.949219 381.570312 796.4375 C 452.628906 874.746094 504.472656 902.664062 596.5625 912.453125 C 716.203125 924.777344 798.5 887.433594 953.308594 749.671875 C 1063.519531 651.78125 1116.820312 608.269531 1183.890625 562.230469 C 1289.03125 490.441406 1417.730469 428.449219 1533.390625 393.640625 C 1659.558594 356.300781 1763.609375 337.089844 1865.839844 332.738281 C 1924.941406 330.191406 1935.089844 335.269531 1885.789062 342.519531 C 1820.160156 351.949219 1759.25 370.441406 1708.859375 396.179688 C 1667.53125 417.210938 1623.300781 459.628906 1605.898438 493.710938 C 1571.820312 561.871094 1568.921875 651.058594 1599.011719 710.148438 C 1610.25 732.269531 1647.230469 768.882812 1676.960938 787.011719 C 1779.921875 851.179688 1967 885.984375 2078.660156 860.96875 C 2157.339844 843.566406 2243.621094 798.613281 2275.519531 758.367188 C 2288.578125 742.410156 2303.078125 716.308594 2300.539062 713.769531 C 2299.820312 713.050781 2282.050781 721.390625 2261.390625 731.898438 C 2161.679688 784.109375 2064.878906 805.859375 1977.511719 796.074219 C 1889.769531 786.285156 1831.398438 752.929688 1788.621094 688.761719 C 1758.890625 644.160156 1749.109375 614.429688 1749.109375 567.308594 C 1748.738281 532.859375 1749.828125 527.058594 1759.25 506.761719 C 1773.390625 475.578125 1803.128906 448.03125 1841.921875 429.53125 C 1858.589844 421.558594 1878.539062 413.949219 1886.871094 412.128906 L 1901.378906 408.871094 L 1899.929688 439.320312 C 1894.488281 544.820312 1976.789062 622.410156 2100.410156 628.210938 C 2145.730469 630.03125 2179.449219 623.140625 2218.238281 603.558594 C 2267.550781 578.539062 2300.179688 541.570312 2336.070312 469.410156 C 2362.898438 415.398438 2383.570312 384.578125 2408.578125 361.019531 C 2430.328125 340.710938 2467.679688 321.140625 2500.308594 313.519531 C 2511.179688 310.980469 2518.429688 307.71875 2516.621094 306.269531 C 2515.171875 304.820312 2486.890625 299.378906 2453.898438 293.941406 C 2420.910156 288.871094 2367.96875 280.53125 2336.070312 275.449219 C 2225.128906 258.050781 2147.910156 251.53125 2031.53125 250.070312 C 1971.710938 249.710938 1914.789062 249.710938 1904.640625 250.441406 Z M 2130.871094 396.550781 C 2172.558594 417.929688 2187.058594 470.5 2161.320312 507.121094 C 2137.390625 541.570312 2087.730469 552.808594 2054.011719 531.410156 C 2003.980469 499.511719 2009.78125 421.199219 2064.160156 396.550781 C 2083.371094 387.480469 2113.101562 387.839844 2130.871094 396.550781 Z M 2269.359375 468.328125 C 2263.921875 489 2250.511719 515.460938 2237.820312 530.691406 C 2207.730469 566.578125 2148.269531 586.519531 2095.699219 578.179688 C 2064.878906 573.109375 2060.53125 569.121094 2083.371094 565.859375 C 2150.808594 557.148438 2233.828125 506.03125 2263.558594 455.640625 C 2272.261719 441.140625 2274.800781 446.210938 2269.359375 468.328125 Z M 324.289062 833.777344 C 364.53125 895.050781 412.386719 937.46875 470.753906 963.207031 C 493.957031 973.722656 493.957031 973.722656 478.734375 971.546875 C 439.578125 966.472656 378.304688 937.832031 354.378906 914.265625 C 335.527344 895.414062 324.648438 876.195312 311.597656 840.664062 C 291.292969 784.472656 291.65625 784.472656 324.289062 833.777344 Z M 321.75 996.5625 C 362.71875 1024.480469 401.144531 1031.003906 483.445312 1024.480469 C 511.359375 1022.304688 540.003906 1019.402344 546.890625 1018.679688 C 568.28125 1015.777344 520.425781 1030.28125 467.132812 1042.605469 C 413.109375 1055.292969 366.703125 1058.195312 351.117188 1049.855469 C 338.0625 1042.96875 318.847656 1024.117188 312.6875 1012.515625 C 306.160156 999.828125 299.996094 984.238281 301.808594 984.238281 C 302.53125 984.238281 311.597656 989.675781 321.75 996.5625 Z M 543.265625 1086.113281 C 438.851562 1156.449219 397.523438 1192.703125 373.957031 1233.308594 L 361.628906 1254.335938 L 363.804688 1239.832031 C 372.140625 1186.175781 382.296875 1165.148438 410.574219 1143.03125 C 426.527344 1130.34375 590.035156 1046.234375 599.097656 1045.871094 C 600.914062 1045.871094 575.894531 1063.996094 543.265625 1086.113281 Z M 613.601562 1097.351562 C 530.941406 1186.539062 507.738281 1223.515625 445.742188 1365.277344 C 403.6875 1461.347656 378.667969 1505.21875 354.378906 1526.246094 L 346.039062 1533.5 L 351.480469 1524.433594 C 382.296875 1474.402344 395.34375 1442.136719 414.925781 1367.089844 C 433.414062 1295.304688 449.367188 1259.773438 480.910156 1217.714844 C 505.921875 1184.363281 562.121094 1129.617188 597.285156 1103.515625 C 610.335938 1093.726562 621.9375 1085.75 622.664062 1085.75 C 623.753906 1085.75 619.402344 1091.1875 613.601562 1097.351562 Z M 613.601562 1097.351562 "/>
    <path fill-rule="nonzero" fill="rgb(0%, 0%, 0%)" fill-opacity="1"
          d="M 2079.75 431.351562 C 2068.511719 437.511719 2058.71875 453.828125 2058.71875 465.789062 C 2058.71875 488.269531 2084.101562 508.570312 2106.21875 503.859375 C 2121.441406 500.230469 2134.859375 482.828125 2134.859375 465.429688 C 2134.859375 437.511719 2103.320312 417.929688 2079.75 431.351562 Z M 2079.75 431.351562 "/>
    <path fill-rule="nonzero" fill="rgb(0%, 0%, 0%)" fill-opacity="1"
          d="M 1148 287.78125 C 1121.890625 296.121094 1105.578125 306.269531 1089.269531 324.390625 C 1073.679688 341.800781 1070.78125 359.199219 1084.550781 355.578125 C 1088.898438 354.488281 1108.839844 351.589844 1128.789062 349.410156 C 1173.378906 344.339844 1216.160156 350.5 1252.050781 367.539062 L 1275.621094 378.421875 L 1304.261719 360.648438 C 1320.210938 350.859375 1344.5 337.089844 1359 329.46875 C 1373.140625 322.21875 1384.378906 316.058594 1383.660156 315.339844 C 1382.929688 314.609375 1369.519531 309.890625 1353.558594 304.820312 C 1285.410156 282.339844 1190.050781 274.371094 1148 287.78125 Z M 1148 287.78125 "/>
    <path fill-rule="nonzero" fill="rgb(0%, 0%, 0%)" fill-opacity="1"
          d="M 1145.101562 371.890625 C 1082.378906 378.78125 1022.921875 417.210938 995.367188 469.410156 C 971.800781 513.28125 982.3125 520.53125 1017.121094 485.011719 C 1046.480469 454.910156 1071.859375 441.859375 1111.738281 436.058594 C 1134.21875 432.800781 1143.640625 433.160156 1159.960938 437.511719 L 1180.269531 442.589844 L 1221.960938 414.671875 C 1260.75 388.929688 1263.289062 386.390625 1255.679688 383.128906 C 1235.011719 373.699219 1180.988281 368.269531 1145.101562 371.890625 Z M 1145.101562 371.890625 "/>
    <path fill-rule="nonzero" fill="rgb(0%, 0%, 0%)" fill-opacity="1"
          d="M 2429.96875 428.449219 C 2384.289062 513.28125 2358.191406 549.539062 2315.398438 587.96875 C 2273.351562 626.398438 2209.898438 661.199219 2158.421875 674.621094 C 2121.441406 684.410156 2061.261719 683.679688 2027.910156 673.53125 C 1979.679688 658.308594 1928.929688 619.511719 1908.261719 581.441406 C 1884.339844 537.578125 1874.539062 475.941406 1885.789062 442.949219 C 1892.671875 422.28125 1887.230469 423.011719 1869.109375 445.121094 C 1852.429688 465.789062 1845.898438 479.210938 1839.378906 506.398438 C 1816.179688 605.371094 1868.019531 696.730469 1966.269531 729.359375 C 1991.289062 737.699219 2001.441406 739.148438 2040.589844 739.148438 C 2103.320312 739.148438 2151.890625 727.191406 2212.808594 697.101562 C 2309.601562 648.878906 2371.601562 580.359375 2424.53125 462.53125 C 2451 404.160156 2454.261719 384.21875 2429.96875 428.449219 Z M 2429.96875 428.449219 "/>
    <path fill-rule="nonzero" fill="rgb(0%, 0%, 0%)" fill-opacity="1"
          d="M 1478.640625 453.460938 C 1382.199219 478.480469 1326.011719 556.789062 1325.289062 665.558594 C 1325.289062 726.828125 1341.601562 770.695312 1377.488281 804.773438 C 1405.769531 831.964844 1425.351562 840.304688 1465.230469 842.117188 C 1482.628906 842.84375 1496.769531 842.84375 1496.769531 841.753906 C 1496.769531 840.664062 1487.710938 827.617188 1476.828125 813.113281 C 1435.5 759.09375 1418.820312 708.699219 1419.550781 641.628906 C 1420.269531 553.171875 1449.640625 490.441406 1505.839844 458.179688 L 1523.960938 447.660156 L 1511.269531 448.03125 C 1504.378906 448.03125 1489.519531 450.570312 1478.640625 453.460938 Z M 1478.640625 453.460938 "/>
    <path fill-rule="nonzero" fill="rgb(0%, 0%, 0%)" fill-opacity="1"
          d="M 1525.769531 483.191406 C 1492.058594 499.871094 1494.589844 552.808594 1529.398438 552.808594 C 1550.789062 552.808594 1572.539062 522.351562 1567.101562 500.601562 C 1564.929688 490.808594 1550.058594 476.671875 1542.449219 476.671875 C 1540.28125 476.671875 1532.660156 479.570312 1525.769531 483.191406 Z M 1525.769531 483.191406 "/>
    <path fill-rule="nonzero" fill="rgb(0%, 0%, 0%)" fill-opacity="1"
          d="M 1291.929688 527.78125 C 1238.640625 549.539062 1193.320312 605.730469 1175.191406 673.171875 C 1165.761719 708.699219 1166.488281 769.246094 1177.359375 800.421875 C 1192.589844 845.378906 1227.039062 880.183594 1268.359375 892.871094 C 1293.019531 900.125 1349.210938 900.851562 1376.769531 893.960938 L 1395.980469 888.886719 L 1376.769531 878.011719 C 1344.140625 859.15625 1307.878906 820.003906 1290.839844 784.472656 C 1270.898438 743.871094 1264.738281 718.488281 1264.738281 674.261719 C 1264.738281 622.050781 1278.519531 574.558594 1304.621094 536.488281 C 1317.308594 518 1316.941406 517.640625 1291.929688 527.78125 Z M 1291.929688 527.78125 "/>
    <path fill-rule="nonzero" fill="rgb(0%, 0%, 0%)" fill-opacity="1"
          d="M 1481.910156 606.101562 C 1465.589844 619.871094 1456.890625 640.898438 1456.890625 667.730469 C 1456.890625 693.839844 1460.878906 706.890625 1473.929688 720.300781 C 1512 760.179688 1569.640625 702.171875 1554.78125 639.449219 C 1547.890625 611.53125 1532.300781 596.308594 1510.179688 596.308594 C 1497.488281 596.308594 1490.96875 598.480469 1481.910156 606.101562 Z M 1481.910156 606.101562 "/>
    <path fill-rule="nonzero" fill="rgb(0%, 0%, 0%)" fill-opacity="1"
          d="M 1110.289062 703.261719 C 1066.058594 749.308594 1071.859375 843.207031 1120.441406 868.582031 C 1133.128906 875.109375 1155.96875 878.011719 1160.320312 873.296875 C 1161.769531 872.210938 1157.058594 859.519531 1150.171875 845.378906 C 1130.601562 803.324219 1125.878906 778.671875 1128.058594 729.359375 C 1129.140625 706.160156 1129.140625 686.941406 1127.691406 686.941406 C 1126.609375 686.941406 1118.628906 694.199219 1110.289062 703.261719 Z M 1110.289062 703.261719 "/>
    <path fill-rule="nonzero" fill="rgb(0%, 0%, 0%)" fill-opacity="1"
          d="M 1052.648438 708.339844 C 1046.480469 711.960938 1033.429688 723.558594 1023.28125 734.441406 C 976.148438 784.835938 968.175781 850.457031 1004.429688 891.785156 C 1020.738281 910.273438 1034.878906 918.976562 1049.019531 918.976562 C 1056.269531 918.976562 1058.089844 917.527344 1056.628906 912.453125 C 1035.25 843.207031 1035.25 777.21875 1056.269531 725.371094 C 1060.988281 713.410156 1064.609375 703.261719 1064.25 702.53125 C 1063.519531 702.171875 1058.449219 704.710938 1052.648438 708.339844 Z M 1052.648438 708.339844 "/>
    <path fill-rule="nonzero" fill="rgb(0%, 0%, 0%)" fill-opacity="1"
          d="M 1548.25 744.949219 C 1533.390625 754.015625 1524.320312 774.320312 1527.589844 790.636719 C 1536.648438 838.855469 1605.539062 828.703125 1605.539062 778.671875 C 1605.539062 764.894531 1603.71875 760.542969 1593.210938 750.03125 C 1578.699219 735.53125 1566.019531 734.078125 1548.25 744.949219 Z M 1548.25 744.949219 "/>
    <path fill-rule="nonzero" fill="rgb(0%, 0%, 0%)" fill-opacity="1"
          d="M 944.246094 808.402344 C 930.46875 821.816406 920.316406 849.367188 920.316406 871.847656 L 920.316406 885.261719 L 943.160156 879.824219 C 955.484375 876.921875 967.449219 874.023438 969.984375 873.296875 C 973.25 872.570312 973.25 868.222656 968.898438 856.621094 C 965.636719 847.917969 963.097656 830.878906 962.734375 818.1875 C 962.734375 805.859375 961.285156 795.710938 959.472656 795.710938 C 958.019531 795.710938 951.132812 801.511719 944.246094 808.402344 Z M 944.246094 808.402344 "/>
    <path fill-rule="nonzero" fill="rgb(0%, 0%, 0%)" fill-opacity="1"
          d="M 1582.691406 850.09375 C 1528.679688 859.15625 1468.488281 887.070312 1425.351562 922.964844 C 1388 953.78125 1380.03125 972.636719 1401.421875 980.972656 C 1427.160156 990.761719 1562.390625 980.246094 1687.109375 959.222656 C 1721.191406 953.421875 1749.109375 949.433594 1749.828125 949.792969 C 1753.820312 953.421875 1577.980469 1023.753906 1514.890625 1043.691406 C 1486.25 1053.121094 1442.03125 1065.085938 1417.011719 1070.523438 C 1375.320312 1079.585938 1365.53125 1080.3125 1291.929688 1079.949219 C 1235.371094 1079.585938 1204.191406 1077.773438 1184.980469 1074.148438 L 1157.789062 1068.347656 L 1174.101562 1082.851562 C 1196.578125 1102.789062 1256.039062 1131.066406 1299.179688 1142.304688 C 1348.851562 1155.359375 1427.160156 1158.261719 1483.71875 1149.195312 C 1592.851562 1132.15625 1676.589844 1086.839844 1779.558594 989.675781 C 1819.441406 951.96875 1834.660156 946.53125 1919.140625 941.09375 C 2000.71875 935.65625 2043.488281 923.328125 2073.21875 897.226562 L 2085.910156 885.984375 L 2073.21875 887.796875 C 2066.328125 888.886719 2032.621094 891.0625 1998.539062 892.148438 C 1928.199219 895.050781 1904.640625 892.511719 1819.441406 873.296875 C 1724.449219 851.542969 1690.730469 846.828125 1643.601562 846.828125 C 1619.671875 847.191406 1592.121094 848.644531 1582.691406 850.09375 Z M 1582.691406 850.09375 "/>
    <path fill-rule="nonzero" fill="rgb(0%, 0%, 0%)" fill-opacity="1"
          d="M 1134.21875 1248.171875 C 1118.269531 1256.148438 1106.671875 1273.1875 1103.769531 1293.488281 C 1100.871094 1313.070312 1106.308594 1340.621094 1128.421875 1416.394531 C 1137.480469 1447.574219 1145.820312 1483.828125 1147.269531 1496.878906 C 1149.441406 1517.910156 1148.71875 1522.621094 1140.390625 1539.660156 C 1127.328125 1565.761719 1110.289062 1577.003906 1083.828125 1577.003906 C 1058.089844 1577.003906 1049.390625 1570.839844 1026.910156 1536.035156 C 1008.421875 1507.753906 996.816406 1499.054688 977.964844 1499.054688 C 925.394531 1499.054688 883.335938 1575.191406 900.011719 1640.449219 C 914.878906 1697.734375 963.097656 1739.0625 1027.988281 1749.941406 C 1098.328125 1761.542969 1207.089844 1729.636719 1298.820312 1670.539062 C 1361.898438 1629.933594 1431.148438 1562.503906 1491.691406 1482.378906 C 1521.058594 1443.222656 1567.828125 1371.078125 1583.421875 1340.621094 L 1591.03125 1325.394531 L 1573.628906 1330.472656 C 1552.960938 1336.273438 1509.460938 1343.160156 1491.691406 1343.160156 C 1480.449219 1343.160156 1477.921875 1344.972656 1471.75 1356.574219 C 1468.128906 1364.1875 1453.628906 1385.9375 1439.851562 1405.519531 C 1320.570312 1573.742188 1155.96875 1678.878906 1037.058594 1662.203125 C 970.347656 1653.136719 935.542969 1617.609375 943.882812 1567.941406 C 946.417969 1551.988281 959.835938 1533.5 971.4375 1529.871094 C 980.863281 1526.609375 987.75 1532.773438 998.988281 1554.886719 C 1012.410156 1581.71875 1021.828125 1592.957031 1038.511719 1602.746094 C 1071.859375 1622.324219 1123.710938 1608.546875 1157.429688 1571.203125 C 1166.128906 1561.414062 1175.910156 1548.359375 1178.449219 1542.558594 C 1182.441406 1533.136719 1184.609375 1532.046875 1194.039062 1533.859375 C 1210.71875 1536.757812 1253.859375 1526.246094 1281.78125 1512.109375 C 1295.921875 1505.21875 1320.929688 1489.265625 1337.609375 1476.578125 C 1368.429688 1453.738281 1459.789062 1365.277344 1467.398438 1351.132812 C 1471.03125 1343.886719 1470.308594 1343.523438 1454.351562 1341.347656 C 1444.558594 1340.257812 1426.800781 1337.722656 1414.46875 1335.910156 L 1391.988281 1332.285156 L 1356.460938 1367.449219 C 1297.011719 1426.542969 1244.070312 1465.703125 1213.980469 1473.675781 C 1179.179688 1482.742188 1183.890625 1486.367188 1169.03125 1440.324219 C 1161.769531 1417.84375 1155.96875 1398.265625 1155.96875 1396.816406 C 1155.96875 1395.367188 1163.589844 1397.902344 1173.378906 1401.894531 C 1197.308594 1412.769531 1230.300781 1411.683594 1262.929688 1399.355469 C 1290.121094 1389.203125 1298.460938 1384.851562 1347.039062 1352.949219 C 1378.578125 1332.644531 1384.738281 1325.03125 1370.601562 1325.03125 C 1367.339844 1324.671875 1352.109375 1319.957031 1337.25 1314.15625 L 1310.058594 1303.28125 L 1284.679688 1315.96875 C 1240.449219 1338.085938 1177.730469 1345.695312 1148 1331.921875 C 1132.039062 1324.671875 1124.800781 1291.679688 1136.398438 1280.078125 C 1145.460938 1271.011719 1157.789062 1273.1875 1189.691406 1290.226562 C 1227.398438 1309.804688 1248.421875 1313.429688 1279.238281 1304.726562 C 1291.210938 1301.46875 1299.910156 1297.480469 1298.460938 1296.027344 C 1294.460938 1292.039062 1212.53125 1258.320312 1185.699219 1249.261719 C 1158.511719 1239.832031 1150.539062 1239.832031 1134.21875 1248.171875 Z M 1134.21875 1248.171875 "/>
</svg>
