<?xml version="1.0" encoding="UTF-8" standalone="no"?>
<!-- Created with Inkscape (http://www.inkscape.org/) -->

<svg
        version="1.1"
        id="svg2"
        width="3466.6667"
        height="2588.04"
        viewBox="0 0 3466.6667 2588.04"
        sodipodi:docname="vecteezy_steel-beam-to-beam-connections_.eps"
        xmlns:inkscape="http://www.inkscape.org/namespaces/inkscape"
        xmlns:sodipodi="http://sodipodi.sourceforge.net/DTD/sodipodi-0.dtd"
        xmlns="http://www.w3.org/2000/svg"
        xmlns:svg="http://www.w3.org/2000/svg">
    <defs
            id="defs6">
        <radialGradient
                fx="0"
                fy="0"
                cx="0"
                cy="0"
                r="1"
                gradientUnits="userSpaceOnUse"
                gradientTransform="matrix(0,-9680.21,-20518.4,0,13000,9705.15)"
                spreadMethod="pad"
                id="radialGradient18">
            <stop
                    style="stop-opacity:1;stop-color:#002d32"
                    offset="0"
                    id="stop14"/>
            <stop
                    style="stop-opacity:1;stop-color:#001317"
                    offset="1"
                    id="stop16"/>
        </radialGradient>
    </defs>
    <sodipodi:namedview
            id="namedview4"
            pagecolor="#ffffff"
            bordercolor="#000000"
            borderopacity="0.25"
            inkscape:showpageshadow="2"
            inkscape:pageopacity="0.0"
            inkscape:pagecheckerboard="0"
            inkscape:deskcolor="#d1d1d1"/>
    <g
            id="g8"
            inkscape:groupmode="layer"
            inkscape:label="ink_ext_XXXXXX"
            transform="matrix(1.3333333,0,0,-1.3333333,0,2588.04)">
        <g
                id="g10"
                transform="scale(0.1)">
            <path
                    d="M 0,0 H 26000 V 19410.3 H 0 Z"
                    style="fill:#002730;fill-opacity:1;fill-rule:nonzero;stroke:none"
                    id="path12"/>
            <path
                    d="M 0,0 H 26000 V 19410 H 0 Z"
                    style="fill:url(#radialGradient18);fill-opacity:1;fill-rule:nonzero;stroke:none"
                    id="path20"/>
            <path
                    d="m 20193.9,10289.9 c -0.6,2.9 -1.5,5.8 -4.5,16.6 -14.1,12.8 -33.3,30.4 -54.7,49.9 0,27 0,56.3 0,89.3 269.6,222.8 539.4,445.7 809.4,668.3 3.6,2.9 10.6,1.8 19,3.1 -0.7,-8.8 0.7,-17.6 -2.2,-24.8 -246,-610.5 -492.4,-1220.88 -739.1,-1831.1 -1.5,-3.7 -9.1,-4.9 -13.8,-7.3 -2.6,1.4 -5.9,2.1 -7.5,4.2 -1.7,2.2 -2.2,5.5 -2.5,8.5 -0.8,5.8 -1.2,11.7 -1.5,17.6 -0.2,6 -0.1,11.9 -0.1,17.8 -0.4,326.42 -0.8,652.81 -1.2,979.2 0,2.9 -0.7,5.9 -1.3,8.7 z m 872.3,923.6 c 194.2,174 1517.4,1264.3 1583.4,1304.9 63.1,-30.5 103.9,-44.3 142.6,-38.8 l -2596,-6331.1 c 0.1,916.9 0.1,1833.8 0.1,2750.7 0,29.7 1.5,59.5 -0.2,89.1 -3,51.6 9.1,99 28.5,146.9 194.2,478.85 387,958.3 580.3,1437.4 80,198.3 160.4,396.5 240.7,594.7 6.6,16.4 14.4,32.4 20.6,46.2 z m 1710.3,1419.1 c 21.7,-6 41,-11.4 62.8,-17.4 0,-16.1 0,-30.4 0,-44 l -8.2,3.3 -5,-12.1 c -50.3,-12 -55.7,-11 -126.6,3.3 31.7,27.5 53.4,46.4 77,66.9 z m 93.3,75.8 c 35.7,-13.4 12.8,-34 21.9,-58.7 -26,5.4 -41.4,8.7 -72.5,15.2 26.7,22.9 39.4,33.8 50.6,43.5 z m 91.2,-113.3 -2764.8,-6742.9 c 0,56.9 0,113.9 0,170.9 l 2657.7,6481.5 c 19.7,12.5 41.2,29.3 66.8,51.2 17.3,14.8 29.7,26.6 40.3,39.3 z m -21.7,165.5 c 62.9,63.7 1947.8,1623.2 2019.3,1668.1 0,-37.4 0,-63.3 0,-96.3 -77.8,-70.5 -164.3,-137.7 -248.1,-208.1 -84.1,-70.6 -169.1,-140.1 -253.7,-210.1 -82.4,-68.1 -164.7,-136.2 -246.9,-204.4 -84.6,-70.1 -169,-140.3 -253.6,-210.4 -84.5,-70.1 -169.1,-140.1 -253.7,-210.1 -84.7,-69.9 -169.3,-139.9 -253.9,-209.9 -82.3,-68.1 -164.1,-137 -247.1,-204.2 -62.9,-51.1 -123,-105.8 -190.3,-157.8 h -0.1 l -0.1,-0.2 c -22.9,-17.7 -46.7,-35.2 -71.8,-52.1 0,38.3 0,66.7 0,95.5 z m 977.2,597.9 c -113.6,-284 -228.1,-567.6 -342.6,-851.3 -573.8,-1420.8 -1147.8,-2841.5 -1721.4,-4262.4 -537,-1330 -1073.7,-2660.1 -1610.7,-3990.2 -8.3,-20.6 -19.4,-40 -29.3,-60 -5.4,2.1 -10.9,4.2 -16.3,6.4 0,181.1 0,362.3 0,543.5 0,327.4 0,654.8 0,982.2 l 2859,6972.6 -10.2,4.2 c 283.1,245.3 817.6,682.3 882.7,720.7 16.4,-25.3 -3.2,-45.6 -11.2,-65.7 z M 19074,9419.07 c -15.2,-12.17 -32.2,-22.17 -48.4,-33.17 30.5,52.41 1036.5,891 1078.3,915.3 3.4,2 10.5,-2.3 15.9,-3.7 -45.1,-55.4 -580.9,-505.65 -1045.8,-878.43 z m -79.9,17.77 c -20.6,8.03 -12.8,25.13 -14.2,38.12 -1.6,14.59 -0.4,29.48 -0.4,49.64 20.1,5.03 38.8,9.73 57.6,14.43 343.7,281.99 687.4,563.97 1031.2,845.67 1.9,1.6 5.8,0.6 10.4,0.9 2.4,-7.6 6.4,-15.5 7.1,-23.7 0.7,-8.6 -1.8,-17.5 -3.6,-32.2 -353.1,-292.5 -709.2,-587.43 -1065.6,-882.13 -6.3,-5.25 -15.2,-7.37 -22.5,-10.73 z m -1675.8,4130.46 c -1.7,-4.1 -7.7,-6.5 -16.4,-13.4 -8.6,51.7 -5.7,100 -2.2,147.9 34.5,6.2 34.5,6.2 65.4,-13.2 -15.3,-40 -30.7,-80.8 -46.8,-121.3 z m 494.4,-2714.7 c 0.7,-7.5 1.4,-15.3 2.1,-22.9 -22,0 -42.3,0 -62.6,0 -5.1,22.7 5.7,27 60.5,22.9 z m -14.2,-106.2 c 9.5,0 17.9,0 28.8,0 19.6,-50.7 3.3,-97.1 -16.7,-142.3 -9,-20.3 -18.1,-44.2 -57.7,-41.6 -14.7,71.7 4.5,129.9 45.6,183.9 z m -225.1,-292 c 49.7,-6.2 93.6,-11.8 144.4,-18.2 82,72 147.7,156.3 164.1,272.8 38.8,32.6 77.3,64.9 130.9,110 4.9,-34.7 9.2,-51 9.2,-67.3 0.5,-181.3 0.8,-362.6 0,-543.8 -0.2,-44.4 0.5,-90.1 -37.3,-125.3 -39.2,-24.7 -81.1,-28.4 -126.6,-14.1 -169.9,53.5 -340.1,105.7 -510,158.8 -7.6,2.4 -14,8.6 -25,15.5 81.5,77.1 169.2,142.4 250.3,211.6 z m -127.5,39.4 -1,-4.3 -5.3,3.2 z m 268.7,-6.2 c -14.7,-1.6 -27.6,-3.1 -43.8,-4.9 -5.7,15.8 -10.3,28.4 -19.3,53.1 31.6,-13.2 50.9,-20.8 63.1,-48.2 z m -145.9,501.1 c 23.4,3.6 23.4,3.6 39.4,-11.8 -22.4,-2.7 -22.4,-2.7 -39.4,11.8 z m 122.5,-104.5 c -2.2,-70.2 -39,-117.9 -79.8,-167.3 -56.5,9.4 -108.6,25.6 -160.1,48.7 6.3,67.6 40.1,116.5 92.1,165.1 50.9,-16 98.2,-30.9 147.8,-46.5 z m -259.5,48.5 c 0.1,0.8 3.1,1.4 4.8,2 0.5,-2.1 1.5,-4.4 1.2,-6.5 -0.2,-0.9 -3,-1.4 -4.6,-2.1 -0.6,2.2 -1.7,4.5 -1.4,6.6 z m 9.2,-219.9 c 53.9,0.4 101.4,-21.3 152.6,-43.5 13,-57.8 15.4,-107.2 3.3,-161.5 -56.1,-3.7 -101.8,25.2 -153.9,37.8 -17.4,55.2 -30.7,108.3 -2,167.2 z m -62.1,108.7 2.8,4.7 1,-5.7 z m 151.3,-359.5 c -76.4,-66.2 -145,-123.1 -218.8,-180.2 -19,76.1 -19.2,172 -3,237.8 90.3,-67.2 89.1,-85.5 221.8,-57.6 z m 268.5,3066 c 10.6,0 19,0 27.2,0 16.9,-88.2 2.5,-135.3 -66.9,-195.9 -24,81.3 -0.7,140.2 39.7,195.9 z m -352.6,-251.5 -1.1,-5.6 -6.8,3.9 z m 3.9,224.5 c 47.8,-15.4 92.5,-29.8 137.1,-44.1 23.5,-57.2 22,-111.6 7.5,-170.2 -55.7,3.3 -103.6,25.5 -155.9,43.6 -11.1,57.5 -31.1,113.5 11.3,170.7 z m 275.6,-230.3 c -25.6,-3.1 -38.4,-4.6 -54.5,-6.5 -5.9,15.7 -10.5,28.3 -15.2,40.8 4.2,3.1 8.4,6.2 12.6,9.4 15.6,-12 31.2,-23.9 57.1,-43.7 z m -117.9,223.4 c -55,17.3 -105.2,33 -161.2,50.5 13.9,40.6 17.2,78.5 49.2,110 59.4,-9.3 117.1,-28.2 176.8,-54.5 -9.9,-41.4 -34.1,-69.8 -64.8,-106 z m -229,109.3 3.1,5.2 1.1,-6.2 z m 140.7,-349.2 c 66.1,-13.5 129.6,-26.5 190.8,-39 60.3,36.7 89.7,93 126.6,142.4 36.9,49.4 39.1,109.2 42.9,173.1 41,-8.7 64.6,-30 84.6,-55.4 29.7,-38 50.8,-80.4 54.3,-129.5 2.4,-32.5 3.8,-65.2 3.8,-97.8 0.2,-763.2 0.1,-1526.5 0.1,-2289.7 0,-29.4 0,-58.9 0,-89.6 -43.8,-36.3 -84.5,-69.9 -127.8,-105.7 -29.2,29.6 -16.5,65.7 -28.5,94.5 -36.1,78 -123.6,59 -188.1,102.3 -15.3,17.5 -36.6,41.9 -60.3,68.9 -29.1,9 -59.8,18.4 -92.7,28.5 -121.5,-58 -170.1,-168.3 -210.8,-282.4 -7.6,2.6 -10.6,2.8 -12.1,4.4 -1.8,2.1 -3.3,5.3 -3.3,8.1 -0.8,816.7 -1.4,1633.3 -1.9,2450 0,20.6 1.9,41.1 3.6,77.6 71.2,-71.4 134.6,-118.3 218.8,-60.7 z m 1450,-3666.28 c -584,180.71 -1167.9,361.74 -1751.8,542.98 -13.7,4.3 -26.6,11.4 -40.3,17.4 0,28.5 0,53.9 0,87.4 37.5,-11 68.3,-19.7 98.8,-29.1 175.7,-54.7 351.3,-109.6 527,-164.3 19.8,-6.2 39.6,-13.1 59.8,-17.8 99.4,-23.2 186.6,36.1 200,137.3 3.8,29.2 2.3,59.3 2.3,89 0.1,793.3 0.2,1586.7 0.2,2380.1 0,213.9 -5.9,428.1 1.8,641.7 5.7,156.1 -109.3,288.6 -238.9,327.3 -193.4,57.8 -385.6,119.3 -578.3,179.3 -22.6,7 -45.1,14.6 -70.8,22.9 -8.1,34.2 -13,60 7.9,89.4 601.8,-187.1 1204.9,-374.7 1803.8,-560.9 19.1,-29.9 18.5,-55 5.6,-82.4 -8.2,-1.1 -17.3,-5 -24.8,-2.9 -51.4,14.4 -102.6,29.7 -153.6,45.4 -150.4,46.3 -300.6,93 -450.9,139.5 -17,5.3 -34.5,9 -51.1,15.4 -100.4,38.3 -201.7,-56.1 -202.8,-141.7 -0.4,-29.7 -2.3,-59.4 -2.4,-89.1 -0.5,-772.5 -0.9,-1545 -1.1,-2317.6 0,-225.8 0.9,-451.6 1.3,-677.4 0.1,-11.9 -0.1,-23.8 0.1,-35.7 1.5,-78.8 24.9,-147.1 67.5,-200.97 l -11.9,-9.8 35.2,-42.65 15,12.4 c 33,-28.48 73.1,-50.95 120.2,-66.09 189.2,-60.91 379.5,-118.62 569.3,-177.78 28.3,-8.81 56.5,-17.99 84.3,-26.87 20.7,-27.66 19.5,-55.1 6.1,-84.72 -10.4,0 -19.7,-2.13 -27.5,0.3 z m -32.8,-168.27 c -11.1,-2.06 -17.6,-5.41 -22.5,-3.87 -1173.2,364.11 -2346.3,728.52 -3519.3,1093.22 -10.8,3.4 -20.5,10.8 -32.1,17 0,42.2 0,83.2 0,126.1 36.6,13.5 65.9,-6.5 95.1,-15.5 397,-122.4 793.5,-246.2 1190.2,-369.6 725.3,-225.7 1450.6,-451.3 2175.9,-677.1 36.7,-11.41 72.9,-24.14 112.3,-37.26 4.5,-52.3 4.1,-93.25 0.4,-132.99 z m -122.6,-99.25 c -67.8,-24.4 -132.8,-20.5 -197.1,-1.9 -15.8,69 -15.8,69.3 -1.4,143.19 68.1,-16.66 135.5,-33.94 198.5,-64.99 0,-26.7 0,-49.8 0,-76.3 z m -254.1,24.1 c -40.7,14 -54.7,43.1 -72.2,69.06 0,26.4 0,52.08 0,85.39 26.8,-6.81 48,-12.21 69.9,-17.78 10.6,-45.95 8.7,-87.77 2.3,-136.67 z m -2439.9,848.2 c -5.9,13.2 -9.1,20.3 -11.8,26.5 13.5,23.4 27.9,16.8 46.6,1.5 -11.2,-9.1 -21.6,-17.3 -34.8,-28 z m -62.2,-16.4 c -72.7,-21 -113.3,-21 -195.4,0.9 -13.9,43.4 -9.9,89.1 -2.8,139 69.6,-10.4 131.5,-36.3 195,-56.2 17.3,-29.1 16.1,-56.6 3.2,-83.7 z m -255.9,28.8 c -37.2,10.9 -51,40.5 -70.7,70.9 1.7,22.6 3.6,48.2 5.9,79.8 24.9,-6.8 43.7,-12 68.8,-18.9 5.6,-48.5 11.9,-88.4 -4,-131.8 z m 1120,3609.7 c 0.2,26.3 2.5,52.6 3.9,81.2 50.1,-0.5 89.9,-19.5 130,-34.1 17.9,-32.6 10.5,-65.9 10.6,-97.9 0.5,-520 0.4,-1040 0.4,-1560 0,-615.1 0,-1230.1 0,-1845.2 0,-32.5 0,-65 0,-112.5 -55.3,17.7 -96.8,31 -136.1,43.6 -12,79.1 -17.2,2334.8 -8.8,3524.9 z m 14.9,195 c 16.8,13.3 29.8,34.5 66.7,34.4 -26,-21.7 -43.5,-36.3 -63.5,-53 -1.9,9.9 -4.9,17.3 -3.2,18.6 z m 146.9,119.9 c -28.9,-42.3 -28.9,-42.3 -72.9,-59.9 27.7,22.8 43.8,36 72.9,59.9 z m 39.7,-195.7 c -7.4,-7.9 -17.2,-18.2 -30.9,-32.7 -52.9,8.5 -97.7,19.2 -143.7,45.4 49.1,54.6 104.4,95.3 160.4,137 20.2,-47 20.2,-47 14.2,-149.7 z m 0.3,-3768.9 c -63.1,14.4 -119.3,26.2 -178.2,60.6 52.3,11.1 87.6,-18.1 131.7,-22.6 10,2.2 24.2,5.4 43.4,9.7 0.9,-13.9 1.8,-27.1 3.1,-47.7 z m 123.4,3569.4 c 1.7,-19.5 4.4,-36.8 4.8,-54.2 10.1,-417.4 4.3,-3310.2 -6.5,-3403.7 -53.7,-7 -56.1,-6.5 -130,30.2 -1.5,2.5 -3.4,4.7 -4.5,7.3 -1.1,2.7 -2,5.7 -2.1,8.6 -0.8,20.8 -1.8,41.6 -1.8,62.3 0.2,1120.2 0.5,2240.3 1,3360.4 0,5.6 2.9,11.3 6.9,25.4 48.5,-2.5 88.7,-19.5 132.2,-36.3 z m -310.9,2139.1 c -49.2,52.4 -56.9,111.4 -60.9,170.6 -6.6,96 11.9,189.2 39.7,280.2 27.9,91.2 67.8,177 125.8,253.6 35.2,46.6 78.5,80 147.9,93.3 145.6,-44.2 292.4,-87.3 446.1,-140.5 -15,-16.8 -22.9,-28.1 -33.1,-36.7 -63.5,-53.4 -126.6,-107.4 -191.7,-158.9 -59.7,-47.1 -103.3,-103.5 -129.8,-175.9 -36.7,-100.1 -79.1,-198.1 -119.5,-296.8 -6.5,-15.8 -15.3,-30.7 -25.4,-51 -71,22.2 -138.1,43.1 -199.1,62.1 z m 945,810.4 c 18.2,15 37.7,28.4 55,41.4 39.3,2.7 70,-12.1 109.4,-29.6 -25.2,-23.2 -43.5,-41.5 -63.4,-58.1 -139.3,-115.8 -277.8,-232.5 -419,-346 -64.5,-52 -110.2,-113.8 -138.2,-191.9 -30,-83.7 -64.3,-166 -99.9,-247.6 -32.6,-74.8 -46.3,-151.2 -46,-233.3 2,-481.1 1.1,-962.1 0.8,-1443.2 0,-34.9 4.7,-70.5 -6.3,-104.8 -38.3,-8.4 -65.8,9 -98.4,22.1 -1.2,31.3 -3.2,60.6 -3.2,89.9 -0.2,498.9 0.5,997.8 -0.8,1496.7 -0.2,72.7 12.4,140.7 40.9,207.5 40.8,95.5 79,192.1 116.8,288.8 19.9,51 48.9,92.8 92.2,127.9 154.4,125.4 306.8,253.4 460.1,380.2 z m 142,-611.1 c 34.2,41.2 66.4,32.5 99,12.8 3.5,-30 -23.7,-22.7 -30.2,-42 -30.1,12.8 -48,20.3 -68.8,29.2 z m 35.8,-240.1 c -42.2,-5 -64.1,-4.6 -77.8,28.4 29.8,6.5 46.1,-7.6 77.8,-28.4 z m -23,71 c -12.8,1 -24.5,0.2 -35.2,3.1 -10.7,2.9 -20.5,9.5 -31.4,14.9 -9.9,38 7.6,68.4 20.9,108.5 19.8,-3.4 31.4,-3.8 41.8,-7.7 10.3,-3.9 19.4,-11.3 30.2,-17.9 3.9,-37.7 -7.4,-69 -26.3,-100.9 z m 229.7,658.9 c 3.4,-20.7 10.3,-43.8 10.4,-66.9 0.7,-151.5 -0.1,-302.9 -0.6,-454.4 0,-5.7 -2.7,-11.3 -4.1,-16.7 -15.1,-12.7 -27.5,-7.4 -37.1,6.4 -18.7,26.4 -36.5,53.5 -55.5,81.5 -61.2,6.6 -101,64.5 -173.5,60.4 -104.9,-75.9 -142.8,-183.3 -130.5,-307.1 26.8,-53.4 61.2,-78.2 116.3,-77.5 31.7,0.5 63.5,-11.8 100.2,-19.4 22,12.8 47.3,27.6 77.1,45.1 30.5,-7.7 64.6,-16.4 98.1,-24.9 14.2,-70.9 13.6,-460.6 -1.6,-535.3 -42.3,27.4 -58.7,76.1 -109,110.1 -68.5,21.9 -150.3,48 -229.8,73.4 -17.6,22.5 -33.2,42.5 -46,58.8 -27.8,2.3 -106,-59.8 -184,-141.3 0,-308.8 0,-623.2 0,-932.2 -83.4,-82.3 -306.6,-263.6 -365.1,-296.9 -18.4,23.1 -10.3,50.6 -10.4,75.4 -0.6,368.3 -0.4,736.6 -0.4,1104.9 0,115.9 1,231.7 -0.3,347.5 -0.6,54.6 9.9,105.8 30.6,156 43.9,107.1 87.4,214.3 129.4,322.2 19.9,51.3 50.3,92.1 93.4,127 154.5,125.5 306.8,253.5 460.2,380.2 20.5,16.8 42.4,31.9 68.9,51.7 63.7,-37.3 111.2,-81.8 163.3,-128 z m 27.5,-603.6 c 4.6,-53 -2.6,-86.9 -32.8,-117.5 -15.1,55.3 -15.1,55.3 32.8,117.5 z m 48.8,-876.6 c 58.9,-77.1 121.4,-151.7 174.9,-238 -27.3,-22.8 -51.8,-43.3 -75.7,-63.2 -52.7,41.8 -253,298.7 -361.2,463 28.3,23.9 52.5,44.5 81,68.7 70.4,-72.7 122.8,-154.2 181,-230.5 z m 181.3,-432.9 c 0.1,-121 0,-242 0,-370.6 -23.3,-16.6 -41.3,-29.3 -61.1,-43.4 -17.5,72.8 -20.8,244.1 -11.1,499.4 4,6.8 6.8,16.2 13.1,21.7 12.9,11.6 27.7,21.1 43.4,32.7 5.9,-10 13.5,-17.2 13.8,-24.6 1.7,-38.3 1.8,-76.8 1.9,-115.2 z m -663,773.6 c -25.5,-23.5 -52.3,-45.5 -78.7,-68.1 5,49.3 9.9,53.8 81.5,91.9 -1,-9.9 1.1,-20.1 -2.8,-23.8 z m -30.3,-87 c 11.6,36.1 38.5,49.1 68.5,67 69.6,-21.9 142.3,-44.7 230.7,-72.4 -35.1,-28.7 -55.1,-45.1 -77.6,-63.4 -74.7,23.2 -147.6,45.8 -221.6,68.8 z m -21.5,-941.6 c -3,14.6 -8.4,28.5 -8.4,42.5 -0.5,273 -0.5,546 -0.2,818.9 0,11.6 3.2,23.2 5.4,38.7 84,-13.6 160.9,-43.8 243.2,-70.8 118.3,-156.3 238,-314.6 358.6,-473.9 0.1,-177.9 0.4,-354.7 0,-540.3 -207,60.6 -401.2,123.1 -598.6,184.9 z m 148.1,-318.3 c -37.6,1.1 -37.8,0.8 -78.2,27.1 18.4,31.1 38.2,18.6 55,11 14.9,-6.7 32.6,-15.1 23.2,-38.1 z m 149.2,15.5 c -33.1,-22.1 -33.1,-22.1 -89.5,-25.2 -1.5,7.3 -3,15 -5.6,28.3 28.5,8.5 55.7,16.7 87,26 5.1,-18.2 6.6,-23.6 8.1,-29.1 z m -212,90.8 c -0.4,8.9 -0.9,19.9 -1.6,34.8 73.4,40.2 145.1,39.4 221.1,3 2.4,-11.4 4.6,-22.2 6.6,-31.8 -71.6,-49.7 -140.3,-51.6 -226.1,-6 z m -149.3,282.4 c 0,263.7 0,527.3 0.3,791 0,7.5 3.9,15 10.7,39.2 0,-289.2 0,-561.1 0,-833.1 -3.6,1 -7.3,1.9 -11,2.9 z m -416.2,-418.9 c 10.5,22.7 12,32.6 17.7,37.4 122.1,102.8 244.8,204.8 366.8,304.5 27.9,-16.2 13.6,-27.2 3.4,-35.8 -97.9,-81.7 -195.8,-163.2 -294.4,-243.9 -24.6,-20.1 -46.3,-45.1 -93.5,-62.2 z m 1237.1,458.6 c 0.2,76.9 0,153.9 0,234.4 48.8,0.7 85.9,-12.3 125.1,-42.3 25.9,-165.9 52.5,-335.7 78.6,-502.6 44.7,-57.4 44.7,-57.4 129.4,-97.6 2.4,-59.7 -38.6,-108.7 -44.2,-169.6 -62.6,-7.3 -127.4,8.8 -183.6,-28 -57.5,-41.7 -61.6,-110.8 -83.5,-170.8 -4.3,-11.9 2.9,-28.8 6.8,-42.9 3,-10.3 9.4,-19.7 14.7,-30.5 -9.4,-1.9 -15.3,-5.2 -19.9,-3.8 -393.9,121.8 -787.7,243.9 -1181.4,366.4 -4.6,1.4 -7.7,7.7 -11.5,11.7 -0.3,2.9 -1.8,6.3 -0.7,8.4 2.7,5.2 5.7,10.8 10,14.4 120.8,100.8 241.8,201.3 364.1,303 68.9,-6.6 131.6,-27.8 195.1,-57.9 -8.8,-7 -12.5,-12.4 -17.1,-13.3 -62.2,-12.4 -100.4,-47.1 -110.3,-111.7 -2.2,-14 -11.1,-27 -17.4,-40.3 -12,-25.4 -14,-51.3 -3,-82.3 39.4,-64.6 105.4,-85.9 179.7,-87.6 77.2,-1.7 147.8,15.2 197.5,86.5 11.4,35.4 9,63.8 -7.8,90.9 -16.8,27.3 -11.5,56.2 -7.7,89.7 86.9,-8.4 161,-49.3 246.9,-64.7 49.5,26.5 91.2,68.1 138.9,114.3 0.4,72.5 1.1,149.3 1.3,226.2 z m 304.8,-702.8 c -64.4,-28.6 -117.9,-23.7 -201.6,16.8 3,15.3 5.1,26.2 6.8,35.1 99.6,44.1 159.7,40.3 226.5,-16.3 -10.4,-12.2 -18.5,-29.7 -31.7,-35.6 z m 128.3,167.6 c 0,-11.7 0,-19.7 0,-26.7 -22.2,-15.4 -50.4,1.8 -78.9,58.8 37.9,-15.4 58.1,-23.7 78.9,-32.1 z m 1.6,133.8 c 63.8,13.4 113.4,4.9 173.8,-31.3 -7.9,-46.8 -42.3,-53.1 -73,-56.1 -57.1,-5.4 -117.1,-13.9 -159.6,39.2 6.8,36.3 32.9,42.7 58.8,48.2 z m 47.5,-171.6 c 19.5,48.7 58.7,40.8 98.8,44.6 3.8,-13.1 5.3,-18.4 7.7,-26.5 -30,-26.3 -64.1,-30 -106.5,-18.1 z m 196.5,-28.4 c 5.1,27.2 9.5,50.2 16.1,85.3 28.6,-11.4 49.5,-19.8 70.1,-28 2.4,-15.8 4,-27.1 6.1,-40.8 -14.6,-14.7 -27.9,-30.5 -43.4,-43.4 -95.4,-79.6 -191.8,-157.9 -286.9,-237.8 -53.2,-44.8 -112.4,-62.1 -199.1,-46.5 75.6,18.5 133.5,37.4 165.2,95.3 26.6,47.5 -23.4,89.5 -9.3,142.7 71.8,-1.8 146.7,-17.5 213.7,20.4 25,14.2 46,35.7 67.5,52.8 z m -467,-183.4 c 30.8,31.5 65.3,32.1 115.1,16.2 -34.9,-38.1 -69.7,-35.1 -103,-40.9 -4.4,9 -7.9,16.2 -12.1,24.7 z m -121.3,15.2 c 2,10.4 3.1,15.8 4.2,21.2 5,2.2 10.7,7 14.9,5.9 24.3,-6.1 50.5,-11.3 51.3,-61.9 -32,15.8 -51.8,25.6 -70.4,34.8 z m 675.9,25.7 c -15.1,-13.8 -31.8,-30.2 -49.7,-45.2 -84.4,-70.4 -171.5,-137.7 -253,-211.4 -84.6,-76.5 -179,-86.3 -282.2,-55.9 -91,26.7 -181.4,56 -272,84.3 -416.4,129.7 -832.8,259.5 -1249.1,389.3 -14,4.4 -27.9,9 -42.4,13.8 -17.3,32.5 -11.3,64.2 -7.2,100.8 28.4,5.4 52.5,-6.2 76.5,-13.7 439.2,-136.2 878.3,-272.8 1317.4,-409.3 56.6,-17.7 112.9,-36.5 170.1,-52.4 31.2,-8.7 63.6,-15.2 95.9,-17.5 64.4,-4.5 122.3,12 173,55.6 85.6,73.5 173.5,144.4 260.7,216.1 15.5,12.8 32.2,24.1 62,46.2 0,-43.1 0,-69.5 0,-100.7 z M 18473,10033.7 c -3.5,-0.3 -7,-0.5 -10.6,-0.7 -0.6,10.6 -1.2,21.2 -1.8,31.7 3.3,0.3 6.7,0.5 10,0.7 0.8,-10.6 1.6,-21.1 2.4,-31.7 z m -0.3,120.7 c -0.2,-2.3 -0.4,-4.6 -0.6,-6.8 -34.8,-38.6 -65.3,-75.9 -63.7,-133.1 1.6,-59.79 47.3,-90.06 89.2,-142.29 -85,20.84 -153.6,38.23 -217.2,69.62 -13.6,6.74 -25.9,14.45 -37.1,23 z m 46.2,-60 c 15.7,18 33.9,13.1 50,8.4 39.1,-11.4 80.1,-19 116.9,-51 0,-29.4 0,-54.76 0,-80.63 -63.9,-15.78 -111.1,15.25 -161,41.43 -16,26.4 -11.3,54.9 -5.9,81.8 z m 204.9,171.1 c 60,-0.8 123.6,-4 165.8,-65.7 -30.3,-53.3 -81.7,-57.8 -130.3,-62.4 -73.9,-6.9 -147,-4.9 -214.1,56.8 49,69.3 115.3,72.1 178.6,71.3 z m 183.4,-254.2 c -52.5,-28.99 -103,-57.93 -172.7,-39.99 0,30.19 0,55.79 0,80.29 50.3,35.9 105.1,43.9 161.6,52.9 24.3,-29.7 14.6,-60.8 11.1,-93.2 z m -3591.3,571.7 c -19.8,-16.3 -40.4,-33.3 -62.7,-51.6 -4.8,-287.9 -1.4,-572.75 -2,-857.54 -0.6,-285.26 -0.2,-570.46 -0.3,-855.66 0,-282.3 0,-564.6 0,-846.9 0,-284.9 0,-569.8 0,-857.5 -33.6,1.8 -42.1,26.8 -55.2,44 -170.8,224.6 -341,449.8 -511.3,674.8 -982.5,1298.2 -1965,2596.4 -2947.3,3894.6 -15.9,21 -30.1,43.3 -45.7,65.9 9.7,3.3 15.9,7.9 20.3,6.5 1181.7,-366.7 2363.3,-733.7 3544.8,-1101 19.4,-6 38.2,-14.4 59.4,-22.5 0,-31.4 0,-60.5 0,-93.1 z m -65,-4489.3 c 0.3,-582.6 0.1,-1165.2 0.1,-1747.7 -0.1,-475.6 -0.1,-951.2 -0.2,-1426.7 0,-32.4 -0.7,-64.7 -1.2,-98.6 -39.4,-8.3 -66.8,10.8 -94.7,19.2 -18.3,30.3 -11.3,60.8 -11.4,89.8 -0.4,624.2 -0.3,1248.4 -0.3,1872.6 0,431 0,861.9 0.1,1292.9 0,32.4 0,64.9 0,113.2 40.7,-11.1 68.7,-18.7 94.7,-25.7 20,-29.7 12.8,-60.2 12.9,-89 z m -162.8,105.4 c -15.7,4.4 -31.5,8.7 -46.9,13 10.3,61.4 10.3,61.4 60.9,126 24,-7.3 45.3,-13.8 75.3,-23 -21.1,-22.1 -38,-37.2 -51.5,-54.8 -13.7,-17.9 -23.9,-38.3 -37.8,-61.2 z m 11.8,-2146.4 c -24.2,-12.8 -30.8,9.4 -40.3,21.9 -167.2,220 -333.9,440.4 -500.7,660.7 -864.2,1142.1 -1728.4,2284.3 -2592.7,3426.4 -953.9,1260.52 -1907.9,2521 -2861.82,3781.6 -147.04,194.3 -294.02,388.6 -440.9,583 -15.89,21 -30.88,42.8 -49.19,68.2 23.37,15.6 41.32,6.2 59.62,0.5 238.02,-74.2 476.11,-148.1 714.17,-222.2 230.98,-71.9 461.95,-143.8 692.92,-215.7 l 5009.3,-6630.7 12.7,9.6 c 4.6,-523.4 4.5,-1349.8 -3.1,-1483.3 z m 0.5,-915.8 c -29.6,8.8 -51.4,15.2 -80.6,23.8 0,43.3 0,77.8 0,112.2 40.2,3.3 40.2,3.3 77.4,-12.5 11.2,-37.8 5.4,-77.3 3.2,-123.5 z m -15.1,296.9 c 19.1,-39.4 19.1,-39.4 12.3,-111.4 -24.8,-12.3 -43.2,-1.5 -60.8,19 7.7,34.1 22.3,64.9 48.5,92.4 z m -7552.91,9558.6 c -28.11,8.7 -56.07,18 -84.23,27.1 -10.81,34.8 -11.66,66.1 -0.8,98.5 10.46,0.5 19.94,3.3 27.78,0.9 1096.44,-340.6 2192.77,-681.5 3297.26,-1025 0,-36.7 0,-65.6 0,-98.6 -29.4,-5.4 -53.4,5.2 -77.9,12.9 -192.4,59.9 -384.8,119.8 -577.2,179.7 l -6.3,8.5 -6.1,-4.6 c -205.78,64.1 -411.55,128.2 -617.35,192.3 -651.71,202.8 -1303.45,405.5 -1955.16,608.3 z m 275.38,-201.3 c -2.23,15.5 -5.41,26.8 -4.9,37.9 0.35,7.9 5.7,15.5 10.29,26.9 51.15,-9.3 102.05,-14.6 144.82,-51.3 -43.61,-29.2 -48.73,-29.6 -150.21,-13.5 z m -65.83,29.3 c -12.75,17 -25.49,34 -44.42,59.2 22.19,3.3 34.29,5.1 51.51,7.7 3.6,-22.5 6.55,-40.9 9.49,-59.3 -5.52,-2.5 -11.05,-5.1 -16.58,-7.6 z m 2888.36,-903 c 1.1,22.1 1.9,39 3,61.9 58.1,-11.6 109.9,-21.3 158.6,-55.3 -64.4,-30.1 -70.7,-30.4 -161.6,-6.6 z m -95.7,77.2 c 21.4,23.5 33.7,8.5 51.2,-6.4 -1.9,-12 -4.2,-27 -6.5,-42 -6.1,-0.3 -12.3,-0.7 -18.5,-1 -9,17 -18,33.9 -26.2,49.4 z m 4562.1,-5971.8 c -25.1,6 -46.6,11.1 -67.9,16.2 -16.1,43.6 -17.3,82.7 -5.3,122.2 30.3,8.1 52.8,-2.7 76.5,-22.9 1,-20.7 3,-43.7 2.8,-66.8 -0.1,-14.1 -3.4,-28.3 -6.1,-48.7 z m -91.5,-8.9 c 26.5,-13.7 57.8,-29.9 89.2,-46.2 1.3,-7.9 2.5,-34.7 3.6,-76.3 z m 85.2,-191.2 9,6.8 c 1.2,-63.8 2.2,-146.1 3.2,-240.4 L 10159,12132.8 c 66.9,-20.8 133.8,-41.6 200.8,-62.5 l -1.4,-1.1 z m 155.7,485 c 0,-27.7 0,-52.6 0,-83.2 -26.4,9 -46.9,16 -73.5,25.1 20.2,30.8 39.6,49.7 73.5,58.1 z m -4318.2,5652.6 c 5.9,25.9 10.5,45.8 15.3,66.9 9.5,1.7 18.7,6.4 25.8,4.3 96.7,-28.9 193.2,-58.4 289.5,-88.4 116.1,-36.1 232.1,-72.9 348.8,-109.6 1214.4,-1604.8 2428.2,-3208.8 3643.4,-4814.7 0.8,-216.4 0.6,-432.7 -0.4,-656.4 -58.3,8.6 -101.8,15 -140.1,20.7 -30.5,-20.5 -55.4,-36.3 -79.3,-53.4 -34.6,-24.7 -61.8,-55.7 -75.9,-96.5 -12.8,-37.6 -15.6,-75.3 0,-113.2 10.4,-25.2 20,-50.8 32.1,-82.3 l -4551.9,6008.9 c 13.9,-4.6 28.2,-9.5 44.3,-14.9 17.3,-92.5 91.7,-139.2 162.4,-187.1 38.1,-25.8 73.5,-21.9 153.5,1.1 41.5,35.9 88.5,76.5 132.5,114.6 z m -104,104.6 c 15.3,0 30.8,0 46.9,0 6.8,-34.8 -14.8,-42.2 -46.9,-54.1 0,22.2 0,35.9 0,54.1 z m 63,-95.7 c -12.8,-13.6 -27.8,-25 -54.3,-48.1 3.7,52.5 24.7,65.4 48.5,75.3 15.7,-7.2 14.2,-18.4 5.8,-27.2 z m 5324.4,-1053.6 c 4.6,0.4 9.3,0.7 13.9,1 0,-9.7 0,-19.3 0,-29 -2.9,-0.3 -5.9,-0.7 -8.8,-1 -1.7,9.7 -3.4,19.4 -5.1,29 z m 657.4,-534 c -85.2,11.4 -163.6,46.6 -245.2,69.6 -82.8,23.3 -164.3,51.2 -246.4,76.9 -79.3,24.9 -158.9,48.7 -237.8,74.5 -80.3,26.2 -164,42.9 -251.2,86.4 146.9,-1.4 281.4,-0.3 376.9,131.5 0,32 0,69.9 0,113.1 -15,20 -32.6,43.6 -52.2,69.8 -1.4,29.8 -3,62.3 -4.8,100.9 l -1.1,1.3 546.8,-172.1 c -12.7,-55.1 -13.7,-111.9 -1.1,-170 24.5,-66.2 78.6,-62.3 113.4,-86.3 13.8,-65.2 15.3,-206.4 2.7,-295.6 z m -1103.1,566.1 c 17,22.3 35.8,15.5 51.8,10.7 36.6,-11.1 72.4,-25 116.3,-40.5 0,-34.5 0,-60.2 0,-88 -62.2,-23.3 -108.3,14.9 -156.4,34 -22.7,29.3 -9.9,59 -11.7,83.8 z m -52,-44.5 c -1.1,-2.5 -2.2,-5.1 -3.4,-7.6 -3.3,2.6 -6.6,5.2 -9.9,7.7 3.3,2.5 6.6,5 9.9,7.5 1.2,-2.5 2.3,-5.1 3.4,-7.6 z m -19.7,-162.6 c -513,159 -1025.8,318.2 -1538.6,477.8 -413.6,128.7 -827.2,257.7 -1240.7,386.7 -28.1,8.7 -56.1,18.1 -82.1,26.6 -10.7,26.5 9.3,34.8 21.8,45.2 102.6,85.8 203.4,173.8 309.2,255.3 39.7,30.6 71.9,64.2 97.5,100.7 l 2656.8,-836.3 c -66.8,-6.4 -129.6,-29.9 -186.1,-79.2 -4.1,-35.4 -8.2,-70.5 -12.9,-111 -15,-19.7 -32.9,-43.1 -55.4,-72.8 0,-29 0,-64.1 0,-109.1 18.7,-22.9 42.8,-52.4 71.9,-88 -17.1,1.5 -30,0.5 -41.4,4.1 z m -2897.5,4373.3 c 85.7,-9.6 164,-45.7 245.5,-68.6 82.5,-23.1 163.7,-51.3 242.2,-76.2 21.9,-34.4 13.7,-68 13.7,-99.8 0.6,-383.1 0.4,-766.2 0.4,-1149.2 0,-463.3 -0.1,-926.6 0.1,-1389.9 0,-65.5 -3.7,-130.2 -25.1,-193.2 -22.6,-66.3 -57.5,-122 -113.3,-166.5 -102.2,-81.4 -201.6,-166.3 -302.4,-249.4 -15.8,-13 -32.9,-24.3 -57.4,-42.3 -11.3,79.5 -13.6,3331.4 -3.7,3435.1 z m -48.5,-3449.1 c -20,3.4 -36.5,5.2 -52.6,9.2 -14.1,3.4 -27.7,9.2 -42.6,14.3 -16.5,35.1 -10.1,71.2 -10.1,106 -0.5,398.1 -0.3,796.2 -0.2,1194.3 0,689.3 0.1,1378.6 0.2,2067.8 0.1,32.3 1.6,64.6 2.8,111 42.5,-14 72.6,-23.9 102.5,-33.8 0,-1158.4 0,-2310.8 0,-3468.8 z m -149.2,790.8 -7393.85,2327.3 c 2.57,24.5 3.92,49.7 3.85,75.7 -2.53,835.2 -1.2,1670.4 -0.83,2505.6 0.02,34.9 -5.85,70.6 7.7,106.5 10.18,0 19.58,2.2 27.55,-0.3 2448.83,-761.1 4897.58,-1522.6 7350.38,-2285.3 1.7,-29.6 4.7,-55.7 4.7,-81.8 0.5,-258.6 0.5,-517.1 0.5,-775.7 0.1,-526 0.1,-1052 0.1,-1578 0,-98 -0.1,-196 -0.1,-294 z m -0.1,-156.2 -7429.73,2338.6 c 12.01,28.5 21.1,58.3 27.51,89.6 l 7402.32,-2330 c 0,-32.7 -0.1,-65.5 -0.1,-98.2 z m -0.1,-503.8 c -0.1,-26.2 -3,-52.3 -4.7,-79 -14.2,-0.7 -23.6,-3.6 -31.4,-1.2 -2622.13,814.7 -5244.12,1629.7 -7881.17,2449.5 23.12,22.6 34.52,35.4 47.54,46.3 95.85,79.9 188.99,163.6 288.82,238.2 54.86,41.1 96.13,87.3 126.17,138.5 l 7454.84,-2346.5 c 0,-148.6 0,-297.2 -0.1,-445.8 z m -7939.2,5821.1 c 0,8 4.69,15.9 7.1,23.6 78.6,-10.8 423.23,-117.6 496.12,-154.4 1.14,-26.1 3.51,-55.2 3.52,-84.3 0.21,-671.1 0.17,-1342.1 0.18,-2013.2 0.01,-184.1 -0.11,-368.2 0.18,-552.3 0.04,-29.4 -1.48,-58.5 -5.37,-87.1 l -2.93,-9.3 1.32,-0.5 c -6.86,-44 -19.42,-86.8 -41.04,-127.1 -17.86,-33.4 -40.12,-67.3 -68.43,-91.6 -117.1,-100.6 -237.2,-197.7 -356.55,-295.6 -5.95,-4.9 -15.23,-5.7 -34.41,-12.5 0,1142 -0.01,2273.1 0.31,3404.3 z m -41.44,-3368.2 c -0.32,-17.2 -3.31,-34.2 -5.17,-52.5 -12.3,0 -21.57,-1.9 -29.64,0.4 -22.37,6.4 -44.25,14.5 -66.53,22 -2.41,15.8 -5.69,27.3 -5.69,38.8 0.01,1134.4 0.25,2268.9 0.82,3403.3 0.01,8.3 4.75,16.5 7.14,24.3 36.39,8.8 63.41,-11.2 91.49,-21.1 13.17,-94.4 18.94,-2821.8 7.58,-3415.2 z M 15977.4,10990.9 c -53,-4.4 -106.3,3.7 -153,32.6 -11,6.9 -17.2,21.4 -26.4,33.4 41,59.6 101.8,62.5 159.1,64.7 64.4,2.5 129.1,-3.9 179.3,-59.6 -34.5,-69.7 -100.3,-66.2 -159,-71.1 z m 8.2,-81.3 c 49.5,32.9 104.4,47.2 170.2,48.8 1.5,-31.6 2.8,-59.9 4.1,-88.1 -55.2,-30.6 -105.6,-59.6 -171.1,-45.3 -14.8,26 -9.7,54.2 -3.2,84.6 z m 826.4,161.8 c -17.3,-27.6 -31.4,-56 -42.3,-84.9 l -3479.5,1095.2 c 14.3,27.8 25.3,57.1 33.3,87.8 z m -3471.7,3762.7 c 0,34.9 -4.4,70.5 6.5,106.8 14.8,-0.8 27.2,0.9 38,-2.4 1141.4,-355 2283.1,-709 3429.8,-1066.9 -17,-40.6 -34.3,-74.2 -45.2,-109.8 -11.1,-36.6 -19.6,-74.9 -22.5,-113 -2.8,-38 2.7,-76.6 3.7,-97.4 22.7,-72.6 80.8,-69 117.9,-95 1.4,-3.2 2.8,-5.8 3.8,-8.5 1.1,-2.8 2.7,-5.6 2.7,-8.4 0.8,-742.7 1.4,-1485.4 2,-2228.1 0,-17.7 0,-35.4 0,-54.4 -11.3,-12.5 -21.8,-25.2 -31.7,-38 l -3510.8,1105 c 4,28.2 6,57.5 6,87.9 -0.8,840.7 -0.4,1681.5 -0.2,2522.2 z m 3529.9,-1308.2 c -8,-5.1 -12.7,-10.7 -17,-10.4 -14.3,1 -28.4,4.2 -42.8,6.6 -32.2,54.6 -28.8,108.7 -15.6,164.2 30.2,14.2 53.3,5.1 76.5,-14 10.6,-49.2 -2.1,-98.8 -1.1,-146.4 z m -1.3,198.3 c -22.8,8.9 -38,14.8 -56.6,22.1 4.9,41 18,74 45.2,102.6 22.1,-36.8 22.1,-36.8 11.4,-124.7 z m -1.7,-2992.5 c -22.8,4.6 -42,8.5 -60.9,12.3 -26.6,56.8 -23.9,110.2 -11,171.6 30,-6.8 51.7,-11.7 73.3,-16.6 14.8,-57.8 0.8,-109.9 -1.4,-167.3 z m -1.4,214 c -18.5,7.2 -36.2,14.1 -53.9,21 5.1,36.8 17.1,66.4 36.7,93.2 l 19.9,-6.3 c 12.7,-30.2 10.7,-41.9 -2.7,-107.9 z m 2442.7,2466.8 c 13.6,15.6 29,29.8 44.9,43 263.1,218.2 526.3,436.2 789.6,654.1 18.1,15 37.6,28.4 57.2,43.2 8.3,-5.4 15.1,-9.7 21.5,-13.8 -2.2,-7.2 -2,-14.3 -5.5,-17.2 -129.9,-108.8 -259.9,-217.3 -390.3,-325.4 -150.9,-125.3 -302.1,-250.3 -453.3,-375.2 -17.9,-14.7 -36.9,-28.1 -69,-52.5 2.7,27.8 0.5,38.7 4.9,43.8 z m -14.9,-2671.5 c 56.8,-1.7 108.5,-18.4 158.5,-51.6 0,-27.6 0,-55.6 0,-82.6 -63.9,-13 -113.2,12.1 -166.7,45.3 -4.5,31.3 -11.5,60.1 8.2,88.9 z m 133.2,153.2 c 79.3,8.5 159,13.4 226.7,-48 -6.4,-41.7 -32.7,-50.6 -57.1,-59.4 -62.7,-22.5 -126.8,-25.3 -191.5,-8.7 -49.7,12.8 -49.7,12.9 -86.6,56.4 20.2,48 65.2,55 108.5,59.7 z m 248,-242.5 c -49,-42.1 -105.3,-53.3 -166.7,-51.7 -17.4,29.2 -12.2,57.6 -4.6,89 48.7,30 101.1,46.4 159.2,46.4 24.3,-26.7 15.7,-55.7 12.1,-83.7 z m 66.7,47.7 c 0,-13.5 0,-27.1 0,-40.6 -3.2,-0.2 -6.3,-0.4 -9.5,-0.7 -1.6,14 -3.1,27.9 -4.7,41.9 4.7,-0.2 9.5,-0.4 14.2,-0.6 z m -503.9,-33.2 c -3.1,0.1 -6.3,0.2 -9.5,0.3 0.6,10.4 1.2,20.8 1.8,31.2 2.6,-0.1 5.1,-0.2 7.7,-0.3 0,-10.4 0,-20.8 0,-31.2 z m -262.5,-596.2 c 0,-16.5 0,-33 0,-49.5 -3.4,-0.2 -6.8,-0.4 -10.3,-0.6 -1.3,16.6 -2.7,33.3 -4.1,49.9 4.8,0 9.6,0.1 14.4,0.2 z m 1220.4,-6136.4 c 0,70 13.4,133.8 39.5,198.4 583.2,1442.3 1165.2,2885 1747.5,4327.7 640,1585.8 1280.2,3171.6 1920.3,4757.4 40,99 80.6,197.8 121.1,297.3 163,135 325.4,269.5 486,402.6 114.8,30.6 194.9,99.7 246.6,203.3 82,72.1 170.9,136.7 250.1,214.2 0,50.8 0,97.9 0,145 144.2,119.8 285.6,237.2 427,354.6 0,11.9 0,23.8 0,35.7 -60,-47.9 -120.7,-94.8 -179.8,-143.8 -885.7,-733.4 -1771.1,-1467.1 -2656.8,-2200.6 -1025.3,-849 -2050.7,-1697.9 -3076,-2546.89 -135.1,-111.81 -269.9,-223.9 -405.1,-335.5 -17.7,-14.64 -37.3,-27.09 -63.3,-45.83 -1.9,31.99 -3.3,54.48 -4.7,77.14 9.7,10.15 17.1,19.47 26,26.87 262.9,218.27 525.9,436.51 789.1,654.41 1173.9,972.4 2347.9,1944.7 3521.9,2917 659.1,545.8 1318.2,1091.6 1977.1,1637.7 25.1,20.7 47.8,44.3 71.6,66.5 0,11.9 0,23.8 0,35.7 -95.5,-80 -190.7,-160.5 -286.7,-240 -1169.3,-968.4 -2338.8,-1936.8 -3508.2,-2905.2 -844.4,-699.3 -1688.8,-1398.6 -2533.2,-2097.95 -25,-20.64 -50.2,-40.87 -77.2,-62.87 -127.7,35.17 -251.4,72.36 -389.7,122.81 70.4,4.43 122.4,4.81 173.5,11.65 66,8.83 125.7,33.73 172.8,83.95 49.4,52.85 55.9,119.21 15.1,178.51 -11.6,16.8 -25.7,32.1 -36.8,45.8 -1.7,36.5 -3.3,68.9 -5.2,107.4 -68.5,60.4 -150.5,86.7 -242.9,85.6 -5.2,-0.1 -10.4,-0.2 -15.5,-0.4 l 540.4,446.4 c -0.1,-2 -0.2,-4 -0.4,-6 -11.7,-13.6 -19.9,-22.2 -27.2,-31.5 -56.4,-72 -50.1,-142 17.2,-204.3 31.3,-29 68.4,-47.6 108.4,-59.3 96.3,-28.3 193.4,-29.2 289.8,-0.7 49,14.5 93.2,38 127.8,77.4 44.3,50.2 50.5,116.8 13.3,171.8 -11.5,17 -26.3,31.6 -37.8,45.2 -2.7,39 -5,74.2 -7.4,109.3 -73.7,67.8 -160.5,93.2 -254,87.9 l 6016.3,4969.9 v 71.8 l -6123,-5058.2 c -44.2,-12.6 -84.8,-34.5 -116.5,-74.5 -0.5,-7.8 -1,-15.3 -1.5,-22.9 l -653.7,-540 c -40.4,-13.1 -77.6,-34.6 -110.4,-68.1 -0.7,-8.4 -1.3,-16.6 -2,-24.8 l -274.9,-227 c -25.8,34 -40.8,75.6 -47.3,122 l 17.6,-21.3 7311.7,6040.1 v 71.7 l -7331.8,-6056.6 c -0.4,18.3 0.1,36.8 0.1,55.1 -0.2,531.9 -0.2,1063.8 -0.2,1595.7 -0.1,472.5 -0.1,944.9 0.2,1417.4 0,32.6 -0.6,65.6 4,97.8 7.5,52.4 37,80.1 89,82.4 29.1,1.2 59.8,-1.7 87.7,-9.9 93.9,-27.3 186.9,-57.9 271.5,-84.4 35.9,-31.8 64.6,-57.2 96.5,-85.4 37.3,-1.2 76.2,-6.8 113.8,-2.4 43,5.1 82,-2.2 122.3,-14.2 30.5,-9.1 59.9,-28.7 99.1,-16.1 67.7,54.9 139,112.6 208,168.6 18.6,-17.5 32.9,-31 46.5,-43.7 102.1,70.1 956.6,781.8 1003,834.8 2.7,28.6 5.4,57.7 8.2,86.9 24.7,20.5 47.5,39.4 70.4,58.3 887.8,735.4 1775.6,1470.9 2663.6,2206.1 798.4,661.2 1597.1,1322.1 2395.7,1983.1 0,11.9 0,23.8 0,35.7 -28.1,-21 -57.1,-40.9 -84.1,-63.2 -1366.2,-1131.4 -2732.3,-2263 -4098.3,-3394.5 -707.1,-585.7 -1414.2,-1171.2 -2121.5,-1756.7 -22.2,-18.4 -45.9,-35 -77.1,-58.7 -2,33.7 -3.4,56.1 -5.4,89.5 8.3,5.6 21.5,12.9 32.9,22.3 315.9,261.3 631.8,522.8 947.6,784.4 759.7,629.2 1519.4,1258.4 2279.1,1887.7 1016,841.5 2032,1683 3047.8,2524.7 27.3,22.6 52.7,47.6 79,71.5 0,11.9 0,23.7 0,35.6 -317.8,-263.4 -635.5,-527 -953.4,-790.4 -1114.4,-923.2 -2228.9,-1846.3 -3343.4,-2769.4 -675.1,-559.2 -1350.3,-1118.2 -2025.5,-1677.3 -25.1,-20.8 -50.8,-40.9 -75.4,-60.7 -36.2,-6.5 -65.6,5.1 -94.1,23.8 146.8,120.9 296.4,236.9 432.2,362.4 13.6,66 7.7,125.1 6.5,179.8 -27,62.6 -79.1,83.5 -138.4,101.8 -21.7,56.8 -66.6,90.6 -127.4,107.7 -57.6,16.2 -111.7,0.6 -173.5,-14.9 -36.6,12.6 -78.2,26.8 -122.9,42.1 -40.4,176.4 -52.4,354.6 -86.4,516.8 -39.5,66.9 -99.1,80.6 -158.2,99.8 -7.2,79.7 -73.7,125.3 -110.4,194.5 16,15.6 31.3,32.7 48.7,47.2 528.5,438 1057.3,875.8 1585.9,1313.6 704.9,583.8 1409.7,1167.6 2114.6,1751.4 324.9,269.2 649.9,538.3 974.7,807.7 22.2,18.4 51.3,32.2 52.6,67.3 -5.9,0 -11.8,0 -17.8,0 -46,-37.4 -92.2,-74.5 -137.9,-112.3 -574.5,-475.6 -1148.9,-951.2 -1723.2,-1426.9 -748.3,-619.8 -1496.5,-1239.6 -2244.7,-1859.3 -206,-170.6 -411.7,-341.4 -618.1,-511.5 -19.4,-15.9 -35.4,-41.1 -71.1,-36.1 -35.8,47.8 -73,97.4 -109.8,146.5 0,216.7 -0.4,430.6 0.6,644.5 0.1,23.1 9.3,46.1 12.1,69.5 2.7,23.3 10.2,50.1 2,69.7 -18,43.5 -14.4,87.3 -14.6,131.4 -0.5,124.8 -0.2,249.6 -0.2,374.4 0,29.5 0,59 0,88.4 -101.9,113.2 -211,204.7 -370,222.6 -95.6,-58.9 -172.1,-148.6 -269.5,-209.3 -14.6,4.4 -25.8,7.9 -37.1,11.3 -130.4,40.3 -261.6,78.5 -391.1,121.7 -67,22.3 -122.1,9.8 -172.1,-36.7 -13.1,-12.1 -26.1,-24.3 -38.4,-37.2 -95.6,-99.4 -146.6,-222 -181.1,-352.7 -22.9,-87 -30.6,-175.8 -19.8,-265.2 11.7,-96.5 57,-166.8 157.9,-192.1 42.6,-10.7 83.7,-27.3 130.3,-42.8 2.3,-85.3 1.6,-168.2 0.3,-250.8 -1.3,-81.9 7.7,-164.4 -7.1,-251.5 -33.9,9.6 -62.2,17 -90.2,25.7 -1660.6,516.3 -3321.2,1032.7 -4981.8,1549 -1099.5,341.9 -2199.17,683.5 -3298.69,1025.4 -1161.91,361.4 -2323.74,722.9 -3485.49,1084.8 -13.15,4.1 -24.82,12.9 -37.19,19.5 -35.67,0 -71.34,0 -107.01,0 31.32,-30 72.3,-39.5 111.73,-51.8 359.78,-112.2 719.59,-224.4 1079.5,-336.3 966.43,-300.2 1933.03,-599.9 2899.36,-900.5 1578.49,-490.9 3156.79,-982.3 4735.19,-1473.5 1031.5,-320.9 2063,-641.7 3094.5,-962.6 25.5,-8 50.9,-16.4 75.2,-24.2 15.9,-64.4 17.5,-168.8 4,-258.7 -33.4,-8.6 -62.5,10 -92.2,19.2 -606.7,187.9 -1213.1,376.7 -1819.5,565.3 -1354.6,421.4 -2709.3,842.9 -4064,1264.2 -1615.26,502.5 -3230.59,1004.8 -4845.91,1507.2 -677.37,210.6 -1354.77,421.2 -2032.04,632.2 -13.27,4.1 -25.1,12.9 -37.6,19.5 -35.67,0 -71.34,0 -107.02,0 34.8,-30 78.07,-41 120.46,-54.2 362.77,-112.7 725.53,-225.4 1088.26,-338.2 1122.22,-349.1 2244.4,-698.3 3366.63,-1047.4 1487.82,-462.8 2975.62,-925.6 4463.52,-1388.2 1292.4,-401.8 2584.8,-803.2 3877.1,-1205 28,-8.7 55.3,-19.5 80.4,-28.4 12.8,-70.6 14.7,-278.6 3.9,-380.3 -25.8,-9.6 -49.9,2.8 -74.3,10.4 -212.5,66 -425,132.4 -637.5,198.5 -1354.6,421.3 -2709.3,842.5 -4063.9,1263.8 -1266.8,394 -2533.55,788.1 -3800.34,1182.1 -1411.25,439 -2822.45,878 -4233.81,1316.7 -490.25,152.3 -980.89,303.5 -1471.24,455.5 -7.82,2.5 -14.14,9.7 -21.16,14.7 -29.73,0 -59.45,0 -89.18,0 17.58,-33.2 52.4,-36.8 82.78,-46.4 158.53,-50 317.41,-98.9 476.14,-148.2 1405.99,-437.3 2811.97,-874.5 4217.94,-1311.7 1652.56,-514 3305.07,-1027.9 4957.67,-1542 1525,-474.3 3049.9,-948.7 4574.8,-1423.2 27.9,-8.6 55.4,-18.7 83.4,-28.3 0,-26.8 0,-49.3 0,-78.3 -34.1,9.6 -62.1,16.8 -89.8,25.4 -1031.8,320.8 -2063.6,641.8 -3095.4,962.6 -1649.9,512.9 -3299.8,1025.5 -4949.62,1538.6 -1737.67,540.3 -3475.18,1081.2 -5212.88,1621.5 -447.85,139.2 -896.12,277.1 -1344.09,416 -8.01,2.4 -14.68,9.2 -21.98,14 -29.72,0 -59.45,0 -89.18,0 19.34,-31 53.06,-35.6 83.86,-45.3 291.84,-91.1 583.69,-182.2 875.63,-273.1 1065.77,-331.5 2131.51,-663.2 3197.37,-994.5 1462.76,-454.7 2925.66,-908.9 4388.39,-1363.6 1114.1,-346.2 2228,-692.9 3341.9,-1039.5 946.7,-294.5 1893.3,-589.3 2839.9,-884.1 25.1,-7.8 49.7,-17 77.1,-26.4 0,-44 0,-85 0,-135.2 -67.9,-60.4 -143.3,-121.7 -221.8,-183.9 -32.9,8.6 -64.5,15.6 -95.3,25.2 -1664,517.4 -3327.9,1035 -4991.9,1552.6 -1479.7,460.4 -2959.34,920.7 -4439,1381 -1683.77,523.9 -3367.49,1048 -5051.27,1571.8 -399.66,124.4 -799.46,248.2 -1199.12,372.6 -42.17,13.1 -83.73,28.2 -125.579,42.4 -29.726,0 -59.453,0 -89.179,0 26.765,-31.5 65.929,-38.8 102.238,-50.1 368.36,-114.8 737.02,-228.7 1105.48,-343.3 1249.95,-388.6 2499.88,-777.3 3749.77,-1166.1 1193.21,-371.1 2386.33,-742.6 3579.56,-1113.7 1176.2,-365.8 2352.6,-731.1 3528.9,-1096.9 1272.6,-395.7 2545,-791.8 3817.5,-1187.8 25.2,-7.8 50.2,-16.3 78.5,-25.6 0,-28.1 0,-53.3 0,-86.5 -33.6,8.4 -61.7,13.9 -89,22.3 -368.6,114.1 -737.2,228.4 -1105.6,343 -1065.7,331.5 -2131.4,663.2 -3197.1,994.7 -1153.6,358.8 -2307.2,717.5 -3460.8,1076.2 -1893.37,588.9 -3786.67,1178 -5680.12,1766.6 -915.47,284.6 -1831.23,568.3 -2746.75,852.7 -7.891,2.5 -14.332,9.6 -21.45,14.5 -18.992,0 -37.988,0 -56.976,0 v -29.3 c 23.406,-12.6 51.262,-16.3 76.555,-24.2 1264.041,-393.5 2528.261,-786.4 3792.421,-1179.5 25.12,-7.9 49.86,-16.9 75.26,-25.5 3.36,-14.8 8.16,-26.1 8.16,-37.4 -0.04,-886.7 -0.49,-1773.4 -0.98,-2660.1 L 514.004,16259.5 v -58 l 3943.296,-1241.2 8.11,25.7 c -0.02,-42.2 -0.02,-84.4 -0.05,-126.6 L 514.004,16103.2 v -58 L 4465.34,14801.5 c -0.11,-177.2 -0.07,-354.4 -0.19,-531.6 -0.01,-8 -6.14,-15.9 -9.09,-23.1 -7.49,-1.2 -13.42,-3.2 -19.15,-2.7 -8.82,0.7 -17.76,2.3 -26.22,4.9 -1298.91,404.3 -2597.79,808.8 -3896.686,1213.2 V 15419 C 5937.42,13732.3 11360.8,12045.6 16784.2,10358.9 c 14.2,-4.5 28.4,-8.8 42.6,-13.2 8.5,-2.6 17,-5.3 25.5,-8.1 2.8,-0.9 5.7,-1.7 8.2,-3.3 2.4,-1.6 4.3,-4 10,-9.4 8.2,-24.3 13.3,-51.7 -7.2,-81 -36.1,10.1 -70.5,18.8 -104.4,29.4 -1335,415.1 -2670,830.5 -4005,1245.7 -1916.1,595.9 -3832.28,1191.7 -5748.4,1787.5 -1394.57,433.7 -2789.17,867.2 -4183.68,1301.1 -769.29,239.3 -1538.55,478.7 -2307.816,718.1 v -41.8 c 686.306,-213.4 1372.606,-426.9 2058.926,-640.2 1139.52,-354.3 2279.11,-708.3 3418.66,-1062.4 439.36,-136.6 878.79,-272.9 1317.8,-410.6 29.85,-9.3 65.69,-9.6 87.75,-41.2 2.09,-40 4.23,-81.1 6.47,-124.1 75.16,-56.4 170.15,-56.3 251.97,-98.6 10.8,-64.7 57.68,-103.9 105.18,-145.5 57.1,-50 117.64,-65.5 190.6,-43.1 32.61,22.5 66.43,45.9 101.19,70 161.57,-50.5 319.85,-99.9 474.51,-148.2 2195.04,-2900.79 4386.24,-5796.4 6576.34,-8690.5 0,-78.7 0.2,-153 -0.1,-227.2 -0.2,-74 -1,-147.9 -1.5,-223.7 -26.8,-19.3 -50.9,-35.9 -74.3,-53.5 -78.6,-58.8 -98.4,-133.5 -61.7,-226.4 9.8,-24.6 16.2,-50.5 21,-65.9 29.2,-48.2 80.8,-40.4 116,-74.2 0,-79.2 0,-161.9 0,-232.2 34.6,-67.3 103.1,-50.9 145.8,-90.4 0.8,-26.8 2.5,-56.2 2.5,-85.6 0.2,-377.4 0.3,-754.9 0.3,-1132.4 0,-366.5 0,-732.898 -0.1,-1099.398 h 41.7 c 0,378.101 0,756.298 0,1134.398 0,1798.3 0.2,3596.6 0.3,5394.9 0.1,1138.4 0.1,2276.8 0.1,3415.2 0,32.4 0.8,64.7 1.2,99 36.1,9.5 61.9,1.1 89.8,-22.4 0.8,-23.9 2.3,-50.2 2.3,-76.4 0.1,-879.8 0,-1759.6 0,-2639.4 0.1,-1236.5 0.5,-2472.9 0.5,-3709.4 -0.1,-992.8 -0.8,-1985.5 -0.9,-2978.2 0,-205.898 0.1,-411.796 0.2,-617.698 h 41.1 c 0.1,1031.798 0.1,2063.598 0.1,3095.398 -0.1,2261.4 -0.1,4522.8 0,6784.1 0,41.3 0.5,82.5 0.8,124 72.2,-3.3 188.5,-38.6 260,-78 1.8,-30.6 3.6,-62.9 6,-103.2 47,-50.2 96.3,-105.4 148.8,-157.3 10.1,-9.9 23.2,-17.6 37,-23.7 l 34.8,-9641.298 h 55.3 l -34.7,9624.698 c 33.1,-5.7 64.4,-3.7 93.4,6.2 l 34.7,-9630.898 h 55.3 l -34.8,9661.798 c 10.4,8.4 20.5,18.2 30.1,29.4 27.1,31.7 54.9,61.6 91.4,84.4 729.7,-226.73 1458,-452.94 2186.2,-679.31 11.2,-3.51 21.9,-8.95 32.8,-13.65 2.7,-1.17 5.4,-2.63 7.6,-4.62 2,-1.92 3.2,-4.71 8,-11.95 1.3,-27.28 2.9,-59.63 4.8,-97.87 37.9,-41.1 77.8,-84.7 118,-128.1 77.2,-83.3 164.6,-97 264.5,-42 11.5,6.4 23.9,11.1 43.2,20 0,-44.4 0,-79.9 0,-115.3 0,-2901 0,-5801.9 0,-8702.798 h 41.5 c 0,440.199 0.1,880.398 0.1,1320.598 0,2502 -0.1,5004.1 0,7506.1 0,29.4 0.9,58.7 1.3,88.4 36.7,13.1 62.4,3.7 90.9,-22.2 0.4,-28.3 1.2,-60.6 1.2,-92.9 0.1,-2933.4 0.1,-5866.7 0.1,-8799.998 h 41.7 c 0,2931.598 0,5863.098 0,8794.698 0,38.6 0,77.2 0,121.3 361.5,300.9 724.8,601.54 1086,899.6 25.7,-9.7 20.8,-26.6 20.9,-40 0.5,-116 0.4,-231.88 0.4,-347.8 0,-896.1 0,-5633.9 0,-9427.798 h 41.3 c 0,1164.998 -0.2,2329.998 -0.8,3494.998"
                    style="fill:#07d2ed;fill-opacity:1;fill-rule:nonzero;stroke:none"
                    id="path22"/>
            <path
                    d="m 18090.8,4621.9 c -22.4,52.5 -13.9,87.2 -1.3,126.7 22.8,-37.3 22.8,-37.3 1.3,-126.7 z m -149.5,259.2 c 10.7,11.4 21.3,22.7 32.4,34.5 50.2,-29.1 93.8,-57.5 123.2,-114.6 -8.5,-7.5 -16.9,-14.9 -28.3,-24.9 -52.7,24.1 -92.7,55.9 -127.3,105 z m 51.8,-272 c -62.3,-23.1 -113.2,-1.7 -149.7,44.8 -37.1,47.3 -59.7,102.3 -17.2,162.3 61.7,22.7 112,1.6 149.1,-45 38,-47.7 57.8,-102.4 17.8,-162.1 z m -129,339.7 c 9.3,0 18.6,0 27.9,0 0,-2.4 0,-4.8 0,-7.2 -9.3,0 -18.6,0 -27.9,0 0,2.4 0,4.8 0,7.2 z m 163.1,60.2 c -65.5,29.4 -127.5,21.8 -182,-26.8 -96.9,-86.3 -136.9,-190 -98.7,-317.6 48.3,-55.2 96.3,-107.4 163.7,-143.5 56.1,8.3 114.3,16.9 190.2,28.2 19.4,15.1 45.6,34.2 70.3,55 59.5,49.9 72.1,115.7 51.2,185.8 -30.4,102 -97.5,175.2 -194.7,218.9"
                    style="fill:#07d2ed;fill-opacity:1;fill-rule:nonzero;stroke:none"
                    id="path24"/>
            <path
                    d="m 18103.6,1792.5 c 0.8,-7.8 -4.2,-16.2 -11.1,-40 -19.7,82.9 -19.7,82.9 5.8,140 23.5,-34.1 2.1,-68 5.3,-100 z m -163.9,228.7 c 9.9,13 18.2,23.8 28.3,37.1 55.1,-24.1 98.1,-56.6 126.3,-109.9 -9,-8.5 -17.3,-16.4 -28.4,-26.9 -52.3,19.1 -87.4,57.6 -126.2,99.7 z m 54.7,-268.5 c -57.5,-22.3 -106.7,-5.3 -144.2,36.4 -40.9,45.4 -62.7,99.4 -29.2,167.1 64.8,24.7 115.8,5.7 153.5,-41 38.4,-47.5 57.8,-102.2 19.9,-162.5 z m -124.8,341.3 c 9.1,0 18.1,0 27.2,0 0,-2.1 0,-4.3 0,-6.4 -9.1,0 -18.1,0 -27.2,0 0,2.1 0,4.3 0,6.4 z m 119.4,70.4 c -42,12.8 -83.5,5.2 -119,-20.4 -95.6,-69.1 -147.1,-160.5 -136.2,-281.7 2.5,-27.1 9.6,-52.4 28.8,-73 44.6,-47.7 88,-96.7 150.5,-126 54.2,8.1 101,15 147.8,22 108.3,16.2 190.5,128.2 163.8,234.9 -31.1,124.2 -112.3,206.6 -235.7,244.2"
                    style="fill:#07d2ed;fill-opacity:1;fill-rule:nonzero;stroke:none"
                    id="path26"/>
            <path
                    d="m 15790.7,3058.4 c -16.8,-48.5 -20,-50.2 -62.9,-76.3 -31.5,83.9 -8.1,169.4 69.7,237.6 28.2,-61.1 10.3,-111.6 -6.8,-161.3 z m -116.1,104.7 c -14,2.7 -28.5,4.4 -42.3,8.5 -7.9,2.3 -14.7,8.4 -21.6,12.5 13,57.1 13,57.1 63.5,106 8.8,-1.6 20.3,-2.6 31.1,-5.9 11,-3.4 21.4,-9 34,-14.5 -6.8,-45.1 -30.2,-77 -64.7,-106.6 z m -30.3,-178.1 c -20,3.9 -38.6,7.6 -61.1,12 -12.6,52 -21.2,94.2 13.1,137.9 18,-4.8 36.1,-9.7 54.9,-14.8 11.6,-46.4 12.8,-88.2 -6.9,-135.1 z m 133.6,326.9 c -25.2,42.9 -65,84.6 -133.4,82.1 -141,-71 -212,-243.6 -174.3,-432.7 14.2,-15.4 32.2,-34.7 49,-52.9 25.5,-7.3 48,-13.7 69.7,-19.9 13.2,5.1 24.3,9 35.1,13.7 13.2,5.8 26.1,12.3 34,16 32.3,-7.4 57.9,-13.2 86.8,-19.9 111.4,91 154.6,204.9 129.9,351.3 -28.4,18.3 -57.7,37.2 -96.8,62.3"
                    style="fill:#07d2ed;fill-opacity:1;fill-rule:nonzero;stroke:none"
                    id="path28"/>
            <path
                    d="m 15787.4,5932.6 c -17.2,-45.6 -20,-46.6 -60.7,-65.2 -28.4,84.9 -7,162.9 71.8,235.6 26.5,-65.6 8.5,-118.5 -11.1,-170.4 z m -177.4,130.5 c -0.9,52.2 27.6,80.2 67.3,108.5 17.2,-5 38.2,-11.2 61.3,-17.9 -5.9,-49.9 -34,-78.7 -63.9,-111.5 -23,7.4 -44.2,14.3 -64.7,20.9 z m 34.9,-201.2 c -25.4,8.7 -43.8,15.1 -62.8,21.7 -11.9,48.5 -21.7,94 17.3,136.6 16.4,-5.6 32.7,-11.2 51.6,-17.7 13,-43.6 11.4,-85.9 -6.1,-140.6 z m -64.6,-45.6 c -1.1,0.2 -1.6,4.1 -2.4,6.3 2.4,0.7 5,2.2 7.2,1.7 1.3,-0.3 1.8,-3.9 2.6,-5.9 -2.5,-0.8 -5.1,-2.5 -7.4,-2.1 z m 197.2,377.3 c -34.2,55.7 -79,93.9 -159.6,76.3 -132.5,-107.1 -179.6,-249.5 -153.5,-411.1 32.6,-57.6 72.7,-83.5 132.6,-85.4 17.7,7.7 39,17 61,26.6 28.6,-6.5 57,-12.9 86.9,-19.6 108.9,89.6 152.3,201.4 131.9,350.1 -34.3,21.8 -66.1,42.1 -99.3,63.1"
                    style="fill:#07d2ed;fill-opacity:1;fill-rule:nonzero;stroke:none"
                    id="path30"/>
            <path
                    d="m 22795.3,13125.2 c -4.6,9.6 -8.9,14.6 -9.2,19.8 -0.7,11.5 0.7,23.1 1.3,37.2 36.1,29.2 77.9,36 127,39.5 2.1,-20.1 3.8,-36.8 5.7,-55.4 -37,-34.1 -76.8,-52.3 -124.8,-41.1 z m -153.2,173.6 c 7.7,10.8 12.9,26.7 23.2,31.4 67.7,30.7 137.1,32.4 205.7,2.8 11.5,-4.9 19.5,-18 35.2,-33.3 -98.9,-56.6 -180.5,-55.8 -264.1,-0.9 z m 96.1,-164.2 c -7,-4.1 -12,-9.6 -16.7,-9.4 -47.7,2.2 -47.7,2.5 -107.4,42.3 1.2,16.4 2.5,35.5 4,57.1 44.6,-0.5 79.2,-14.4 120.1,-36.9 0,-20.4 0,-37.4 0,-53.1 z m 227,213.8 c -58,55.9 -129.7,80.1 -209.6,74.7 -68.3,-4.6 -135.7,-17.8 -178.4,-76.5 -4.5,-30.6 -8.5,-56.8 -12.5,-83.3 -44.4,-39.2 -65.4,-85.4 -44.6,-149.3 54.2,-92.4 148,-114.9 249.4,-114.6 101.4,0.3 195,23.3 251.3,120.3 0,30.4 0,59.6 0,85.3 -19.1,25.1 -35.1,46.2 -48.7,64 -2.5,28.3 -4.5,51.9 -6.9,79.4"
                    style="fill:#07d2ed;fill-opacity:1;fill-rule:nonzero;stroke:none"
                    id="path32"/>
            <path
                    d="m 24536.5,14574.5 c -1,18.2 -1.9,34.9 -2.8,52.8 36.6,32.5 79,38.3 128.2,42.8 2.3,-20 4.2,-36.8 6.4,-56.4 -37,-31.3 -75.4,-54.3 -131.8,-39.2 z m -150.5,175.1 c 38.9,48.9 86.2,49.7 133.1,49.9 47.1,0.3 93.7,-2.9 129.1,-44.6 -20.5,-37.7 -54.4,-45.4 -89.8,-47.3 -58,-3.1 -117.5,-9.9 -172.4,42 z m 100.4,-169.7 c -9.5,-3.4 -17.1,-8.3 -25,-8.8 -38,-2.6 -65.8,19.9 -98.9,39.1 1,20.3 1.9,39.3 3,61.4 50.6,-1.5 91.3,-10.8 123.3,-45.9 -0.8,-15.9 -1.6,-30.3 -2.4,-45.8 z m 227.5,213 c -55.8,58.6 -124.6,79.2 -202,77.5 -70.2,-1.6 -134.8,-17.1 -185.4,-71.4 -4.1,-27.6 -8,-53.9 -12.1,-81.5 -15.4,-20.2 -31.6,-41.3 -54.1,-70.6 1.4,-30.4 2.7,-59.5 3.8,-81.9 67,-99.6 161.8,-120.3 262.6,-117.9 97.7,2.2 189.2,25.6 242,120.8 0,30.2 0,59.3 0,85.6 -19,24.8 -35,45.8 -48.7,63.7 -2.3,28.2 -4.2,51.8 -6.1,75.7"
                    style="fill:#07d2ed;fill-opacity:1;fill-rule:nonzero;stroke:none"
                    id="path34"/>
            <path
                    d="m 10722.1,16659 c 29.8,8.6 56.2,18.7 60.5,51.1 -18,28.3 -40,42.2 -68.9,39.7 -28.1,-2.4 -49.5,-16.3 -60.5,-46 12.9,-25 32.8,-39.7 68.9,-44.8"
                    style="fill:#07d2ed;fill-opacity:1;fill-rule:nonzero;stroke:none"
                    id="path36"/>
            <path
                    d="m 4708.06,18528 c 33.59,-2.4 54.9,15.6 70.68,47 -10.6,12.3 -21.79,25.2 -33.98,39.4 -21.01,0 -41.11,0 -62.65,0 -11.96,-13.3 -23.39,-26 -34.06,-37.9 11.89,-30 30.8,-46.4 60.01,-48.5"
                    style="fill:#07d2ed;fill-opacity:1;fill-rule:nonzero;stroke:none"
                    id="path38"/>
            <path
                    d="m 3705.85,18841.6 c 31.82,-2 57.18,9 71.15,42.9 -12.76,28.6 -34.85,44.1 -64.24,46.8 -31.07,-3.5 -51.36,-18.3 -64.96,-45.2 9.32,-27.3 28.97,-42.7 58.05,-44.5"
                    style="fill:#07d2ed;fill-opacity:1;fill-rule:nonzero;stroke:none"
                    id="path40"/>
            <path
                    d="m 13785.5,15774 c -23.8,42.1 -57.1,50 -101.6,34.2 -8.7,-11 -18.9,-24.1 -34.4,-43.8 15.5,-14.2 28.1,-25.9 33.7,-31 53.8,-13.6 84.7,-1.5 102.3,40.6"
                    style="fill:#07d2ed;fill-opacity:1;fill-rule:nonzero;stroke:none"
                    id="path42"/>
            <path
                    d="m 9742.84,16977.8 c 16.58,6.2 28.3,25.3 48.06,44.2 -17,16.3 -29.51,28.4 -33.13,31.9 -53.05,16.1 -82.64,3.8 -105.49,-36.6 21.19,-41.8 53.02,-53.6 90.56,-39.5"
                    style="fill:#07d2ed;fill-opacity:1;fill-rule:nonzero;stroke:none"
                    id="path44"/>
            <path
                    d="m 11748.6,16351.4 c 14.3,15.9 25.8,28.9 39.5,44.1 -16.2,15.7 -30.5,29.7 -44.4,43.2 -20.7,-1 -38.1,-1.9 -55.3,-2.8 -13,-14.4 -24.6,-27.3 -38.2,-42.5 16.1,-15.7 30.4,-29.7 43.1,-42 18.9,0 33.5,0 55.3,0"
                    style="fill:#07d2ed;fill-opacity:1;fill-rule:nonzero;stroke:none"
                    id="path46"/>
            <path
                    d="m 12718,16038.9 c 28.7,-1 50.4,12.5 68,43.2 -16.6,32.1 -39.8,48.2 -71.9,45.8 -28.3,-2.1 -47.5,-18.9 -57.6,-44.5 11.9,-29.6 32.9,-43.5 61.5,-44.5"
                    style="fill:#07d2ed;fill-opacity:1;fill-rule:nonzero;stroke:none"
                    id="path48"/>
            <path
                    d="m 7751.73,17600.7 c 11.02,14.3 19.66,25.5 27.48,35.6 -11.41,29.8 -29.91,46.3 -58.85,48.5 -33.59,2.6 -54.32,-15.5 -69.01,-47.9 9.7,-12 20.27,-25 32.45,-40 23.93,1.4 46.44,2.6 67.93,3.8"
                    style="fill:#07d2ed;fill-opacity:1;fill-rule:nonzero;stroke:none"
                    id="path50"/>
            <path
                    d="m 5724.97,18219.4 c 28.52,3.9 46.94,18.4 51.39,46.1 -14.83,27.7 -35.13,42.9 -63.93,42.2 -28.93,-0.7 -48.06,-17.3 -62.22,-48.1 18.51,-33.1 42.6,-44.6 74.76,-40.2"
                    style="fill:#07d2ed;fill-opacity:1;fill-rule:nonzero;stroke:none"
                    id="path52"/>
            <path
                    d="m 15722.5,15103.6 c 29.2,-0.1 48.7,15.8 64.7,47 -17.2,32.1 -40,45.7 -72.9,41.7 -28.6,-3.4 -48.2,-16.9 -53.5,-46.7 13.2,-25.7 32.5,-41.9 61.7,-42"
                    style="fill:#07d2ed;fill-opacity:1;fill-rule:nonzero;stroke:none"
                    id="path54"/>
            <path
                    d="m 16726.6,14794.8 c 29,0.3 49.7,13.6 58.9,42.9 -9.6,26.8 -28.2,43.8 -56.9,45.7 -32.8,2.1 -54.8,-14.9 -68.1,-44.2 9.3,-34.1 34.4,-44.9 66.1,-44.4"
                    style="fill:#07d2ed;fill-opacity:1;fill-rule:nonzero;stroke:none"
                    id="path56"/>
            <path
                    d="m 14720.2,15417.1 c 27.9,0.2 50.5,10.1 66.4,46.5 -8.3,9.7 -14.4,20.1 -23.4,26.5 -11.4,8 -25.2,12.8 -34.5,17.3 -36.2,-3.2 -58.5,-17.5 -70.5,-50.7 14.2,-23.8 32.7,-39.8 62,-39.6"
                    style="fill:#07d2ed;fill-opacity:1;fill-rule:nonzero;stroke:none"
                    id="path58"/>
            <path
                    d="m 8718.47,17283.3 c 31.84,1.4 52.45,18.7 61.17,45.3 -15.13,33 -37.75,43.8 -65.77,42.9 -28.01,-1 -49.74,-13.2 -61.42,-43.9 12.9,-27.3 33.48,-45.7 66.02,-44.3"
                    style="fill:#07d2ed;fill-opacity:1;fill-rule:nonzero;stroke:none"
                    id="path60"/>
            <path
                    d="m 6716.4,17905 c 28.88,0.8 48.19,17.3 62.83,47.5 -17.97,34 -42.81,44.4 -74.57,40.8 -28.88,-3.2 -46.84,-18.3 -52.06,-46.5 15.05,-26.7 34.82,-42.6 63.8,-41.8"
                    style="fill:#07d2ed;fill-opacity:1;fill-rule:nonzero;stroke:none"
                    id="path62"/>
            <path
                    d="m 10559.9,12560.2 c 8.1,3.4 15.6,9.1 23.3,9.3 36.3,1 66.8,-15.2 98.4,-33.9 0,-20.1 0,-39 0,-59.8 -51.2,-9.8 -88.1,7.8 -121.7,38.8 0,15.5 0,29.8 0,45.6 z m 162.3,138 c 42.9,-0.2 88.1,-0.5 117.8,-36.3 3.2,-22.3 -7.6,-31.5 -21.5,-37.5 -65.1,-28 -131.1,-28.7 -196.6,-2.6 -12.3,4.9 -21.9,16.9 -36.9,29 42.8,50.5 91.4,47.6 137.2,47.4 z m 138.1,-132.5 c 1.5,-17.8 2.9,-34.1 4.5,-52.6 -33.7,-31.2 -71.2,-47.8 -116.9,-42 -14.2,32.2 -14.2,32.2 -6.7,66.2 34.6,17.8 70.7,34.4 119.1,28.4 z m 63.5,-30.2 2.3,-6.6 -5.2,0.4 z m -290,-179.9 c 49.8,-4.9 100.8,-6 150.6,-1.4 77.7,7 141.5,41.4 181.7,113 0,29 0,58.3 0,86.5 -18.1,23 -34.4,43.8 -48.7,62.2 -2.2,27.5 -4,51 -5.9,75.7 -48,56.6 -111.9,75.4 -182.3,77.6 -76.1,2.3 -147.6,-10 -204,-68.6 -4.8,-30.1 -9.5,-59.1 -13.9,-86.6 -9.3,-10.8 -17.7,-19.2 -24.6,-28.8 -43.9,-60.8 -39.2,-115.5 12.7,-166.6 37.6,-36.9 83.5,-58 134.4,-63"
                    style="fill:#07d2ed;fill-opacity:1;fill-rule:nonzero;stroke:none"
                    id="path64"/>
            <path
                    d="m 7733.81,13447.9 c 48.35,3.8 85.33,-10.3 124.99,-36.9 0,-19.6 0,-33.8 0,-46 -27.01,-24.9 -67.75,-13.8 -129.76,34.4 1.38,14 2.98,30.3 4.77,48.5 z m 154.29,132 c 46.33,0.6 93.68,-3.5 130.01,-45.2 -18.31,-41.6 -56.78,-43.6 -89.38,-49.1 -59.41,-10 -117.14,-3.6 -175.14,43.6 41.03,46.4 88.51,50.1 134.51,50.7 z m 149.37,-188.9 c -35.88,-31.7 -74.46,-47.8 -127.62,-35.5 -1.76,16.6 -3.71,35.1 -5.69,53.8 41.05,26.1 79.85,42.3 133.31,31.4 0,-21.1 0,-35.3 0,-49.7 z m 49.9,29.2 c 1.13,0 2.27,-0.1 3.41,-0.1 0,-5.6 0,-11.3 0,-16.9 -1.14,0 -2.28,0 -3.41,0 0,5.7 0,11.3 0,17 z m -218,-192.6 c 101.71,-3.1 195.6,14.3 268.52,113.5 0,30.3 0,62.3 0,92.8 -18.17,23.5 -34.34,44.5 -48.44,62.8 -3.65,30.1 -6.82,56.2 -10.13,83.5 -80.49,65.8 -169,84.9 -267.61,60.7 -46.65,-11.5 -91.19,-26.7 -118.25,-70.1 -3.38,-27.4 -6.62,-53.6 -9.2,-74.5 -19.4,-25.9 -35.26,-47.1 -48.52,-64.8 0,-34.5 0,-63.8 0,-87.9 57.73,-89 140.76,-113.1 233.63,-116"
                    style="fill:#07d2ed;fill-opacity:1;fill-rule:nonzero;stroke:none"
                    id="path66"/>
        </g>
    </g>
</svg>
