<?xml version="1.0" encoding="UTF-8"?>
<svg xmlns="http://www.w3.org/2000/svg" xmlns:xlink="http://www.w3.org/1999/xlink" width="3001" height="3000"
     viewBox="0 0 3001 3000">
    <path fill-rule="evenodd" fill="rgb(0%, 0%, 0%)" fill-opacity="1"
          d="M 1500.011719 2999.03125 C 1487.328125 2999.03125 1475.628906 2992.1875 1469.398438 2981.140625 L 1367.699219 2800.304688 C 1342.171875 2797.746094 1316.640625 2794.410156 1291.429688 2790.359375 C 1077.058594 3009.636719 1112.039062 3019.050781 1036.011719 2722.054688 C 1012.078125 2712.964844 988.226562 2703.0625 964.769531 2692.503906 C 700.796875 2848.875 732.339844 2866.824219 735.761719 2559.953125 C 715.132812 2545.054688 694.769531 2529.402344 674.945312 2513.242188 C 379.261719 2596.035156 404.921875 2621.667969 487.714844 2325.992188 C 471.566406 2306.171875 455.914062 2285.863281 440.996094 2265.210938 C 133.929688 2268.65625 152.152344 2300.035156 308.53125 2036.089844 C 297.925781 2012.503906 288.027344 1988.738281 279.007812 1964.960938 C -18.230469 1888.921875 -8.644531 1923.890625 210.738281 1709.378906 C 206.628906 1683.949219 203.300781 1658.46875 200.734375 1633.328125 C -66.882812 1482.789062 -66.898438 1519.058594 200.628906 1368.601562 C 203.195312 1343.140625 206.535156 1317.621094 210.605469 1292.320312 C -8.6875 1077.941406 -18.128906 1112.929688 278.910156 1036.890625 C 288.054688 1012.898438 297.933594 989.058594 308.46875 965.648438 C 152.261719 701.929688 133.847656 733.191406 440.949219 736.609375 C 455.902344 715.929688 471.558594 695.550781 487.691406 675.78125 C 404.90625 380.199219 379.261719 405.820312 674.902344 488.558594 C 694.75 472.351562 715.105469 456.71875 735.734375 441.820312 C 732.285156 135.011719 700.769531 152.980469 964.722656 309.359375 C 988.324219 298.730469 1012.148438 288.828125 1035.941406 279.789062 C 1111.96875 -17.21875 1077.011719 -7.738281 1291.398438 211.511719 C 1316.660156 207.46875 1342.191406 204.121094 1367.660156 201.558594 C 1518.121094 -66 1481.878906 -65.980469 1632.320312 201.53125 C 1657.839844 204.101562 1683.371094 207.429688 1708.589844 211.488281 C 1922.96875 -7.78125 1887.949219 -17.230469 1964.011719 279.828125 C 1988.011719 288.96875 2011.878906 298.851562 2035.261719 309.378906 C 2299.238281 153 2267.691406 135.050781 2264.269531 441.929688 C 2284.988281 456.929688 2305.351562 472.558594 2325.058594 488.640625 C 2620.761719 405.839844 2595.039062 380.261719 2512.269531 675.929688 C 2528.429688 695.75 2544.058594 716.089844 2558.96875 736.679688 C 2866.078125 733.160156 2847.898438 701.75 2691.5 965.71875 C 2702.109375 989.308594 2711.988281 1013.101562 2721.03125 1036.828125 C 3018.230469 1112.878906 3008.679688 1077.910156 2789.28125 1292.398438 C 2793.378906 1317.738281 2796.710938 1343.191406 2799.269531 1368.5 C 3066.871094 1519 3066.921875 1482.691406 2799.371094 1633.171875 C 2796.828125 1658.578125 2793.488281 1684.101562 2789.410156 1709.441406 C 3008.671875 1923.808594 3018.128906 1888.808594 2721.121094 1964.859375 C 2712.019531 1988.78125 2702.121094 2012.625 2691.558594 2036.109375 L 2797.191406 2214.421875 C 2813.441406 2241.835938 2787.300781 2269.882812 2766.601562 2267.398438 L 2559.019531 2265.089844 C 2544.148438 2285.699219 2528.488281 2306.046875 2512.308594 2325.875 C 2595.109375 2621.550781 2620.738281 2595.882812 2325.058594 2513.089844 C 2305.289062 2529.210938 2284.929688 2544.867188 2264.269531 2559.785156 C 2267.738281 2866.765625 2299.25 2848.707031 2035.199219 2692.28125 C 2011.601562 2702.917969 1987.820312 2712.785156 1964.078125 2721.804688 C 1888.039062 3019.023438 1922.988281 3009.425781 1708.511719 2790.054688 C 1683.179688 2794.152344 1657.699219 2797.484375 1632.441406 2800.050781 L 1530.660156 2980.976562 C 1524.390625 2992.179688 1512.691406 2999.03125 1500.011719 2999.03125 Z M 1500.011719 1940.949219 C 1257.371094 1940.949219 1059.988281 1743.519531 1059.988281 1500.910156 C 1059.988281 1258.289062 1257.398438 1060.878906 1500.011719 1060.878906 C 1742.621094 1060.878906 1940.050781 1258.289062 1940.050781 1500.910156 C 1940.050781 1743.519531 1742.648438 1940.949219 1500.011719 1940.949219 Z M 1500.011719 1131.089844 C 1296.101562 1131.089844 1130.191406 1296.988281 1130.191406 1500.910156 C 1130.191406 1704.820312 1296.101562 1870.71875 1500.011719 1870.71875 C 1703.921875 1870.71875 1869.828125 1704.820312 1869.828125 1500.910156 C 1869.828125 1296.988281 1703.921875 1131.089844 1500.011719 1131.089844 Z M 1500.011719 2501.933594 C 948.042969 2501.933594 499.007812 2052.871094 499.007812 1500.910156 C 499.007812 948.941406 948.070312 499.910156 1500.011719 499.910156 C 2051.96875 499.910156 2501.039062 948.96875 2501.039062 1500.910156 C 2501.039062 2052.871094 2051.96875 2501.933594 1500.011719 2501.933594 Z M 1500.011719 570.128906 C 986.769531 570.128906 569.234375 987.699219 569.234375 1500.910156 C 569.234375 2014.148438 986.796875 2431.679688 1500.011719 2431.679688 C 2013.25 2431.679688 2430.789062 2014.148438 2430.789062 1500.910156 C 2430.789062 987.671875 2013.25 570.128906 1500.011719 570.128906 Z M 999.542969 1119.511719 C 842.902344 1119.511719 842.964844 881.320312 999.542969 881.320312 C 1156.140625 881.320312 1156.078125 1119.511719 999.542969 1119.511719 Z M 999.542969 951.578125 C 956.199219 951.578125 934.3125 1004.308594 964.992188 1034.988281 C 1009.660156 1079.660156 1080.171875 1011.988281 1034.089844 965.890625 C 1024.859375 956.648438 1012.589844 951.578125 999.542969 951.578125 Z M 792.230469 1619.988281 C 635.5 1619.988281 635.5 1381.820312 792.230469 1381.820312 C 948.976562 1381.820312 948.953125 1619.988281 792.230469 1619.988281 Z M 792.230469 1452.039062 C 727.9375 1452.039062 727.914062 1549.75 792.230469 1549.75 C 856.554688 1549.75 856.539062 1452.039062 792.230469 1452.039062 Z M 999.542969 2120.484375 C 842.929688 2120.484375 842.976562 1882.308594 999.542969 1882.308594 C 1156.109375 1882.308594 1156.058594 2120.484375 999.542969 2120.484375 Z M 999.542969 1952.53125 C 956.191406 1952.53125 934.320312 2005.277344 964.992188 2035.96875 C 1009.679688 2080.679688 1080.160156 2012.875 1034.089844 1966.820312 C 1024.859375 1957.601562 1012.589844 1952.53125 999.542969 1952.53125 Z M 1500.011719 2327.808594 C 1343.28125 2327.808594 1343.28125 2089.585938 1500.011719 2089.585938 C 1656.738281 2089.585938 1656.738281 2327.808594 1500.011719 2327.808594 Z M 1500.011719 2159.839844 C 1435.691406 2159.839844 1435.710938 2257.554688 1500.011719 2257.554688 C 1564.289062 2257.554688 1564.308594 2159.839844 1500.011719 2159.839844 Z M 2000.488281 2120.484375 C 1843.929688 2120.484375 1843.910156 1882.308594 2000.488281 1882.308594 C 2157.058594 1882.308594 2157.078125 2120.484375 2000.488281 2120.484375 Z M 2000.488281 1952.53125 C 1957.109375 1952.53125 1935.261719 2005.269531 1965.941406 2035.96875 C 2010.601562 2080.652344 2081.148438 2012.945312 2035.039062 1966.820312 C 2025.828125 1957.601562 2013.539062 1952.53125 2000.488281 1952.53125 Z M 2207.800781 1619.988281 C 2051.050781 1619.988281 2051.019531 1381.820312 2207.800781 1381.820312 C 2364.589844 1381.820312 2364.550781 1619.988281 2207.800781 1619.988281 Z M 2207.800781 1452.039062 C 2143.511719 1452.039062 2143.46875 1549.75 2207.800781 1549.75 C 2272.140625 1549.75 2272.089844 1452.039062 2207.800781 1452.039062 Z M 2000.488281 1119.511719 C 1843.929688 1119.511719 1843.910156 881.320312 2000.488281 881.320312 C 2157.050781 881.320312 2157.101562 1119.511719 2000.488281 1119.511719 Z M 2000.488281 951.578125 C 1957.128906 951.578125 1935.261719 1004.308594 1965.941406 1034.988281 C 2010.578125 1079.621094 2081.160156 1012.058594 2035.039062 965.890625 C 2025.828125 956.648438 2013.539062 951.578125 2000.488281 951.578125 Z M 1500.011719 912.199219 C 1343.28125 912.199219 1343.28125 674.03125 1500.011719 674.03125 C 1656.738281 674.03125 1656.738281 912.199219 1500.011719 912.199219 Z M 1500.011719 744.25 C 1435.691406 744.25 1435.710938 841.980469 1500.011719 841.980469 C 1564.289062 841.980469 1564.289062 744.25 1500.011719 744.25 "/>
</svg>
