<?xml version="1.0" encoding="UTF-8"?>
<svg xmlns="http://www.w3.org/2000/svg" xmlns:xlink="http://www.w3.org/1999/xlink" width="2776" height="2776"
     viewBox="0 0 2776 2776">
    <path fill-rule="nonzero" fill="rgb(0%, 0%, 0%)" fill-opacity="1"
          d="M 391.460938 1.699219 C 323.382812 8.859375 251.402344 34.660156 194.164062 72.390625 C 86.191406 143.519531 15.296875 261.710938 2.289062 391.601562 C -0.75 422.398438 -0.75 2349.371094 2.289062 2380.597656 C 12.261719 2483.601562 59.957031 2582.707031 132.808594 2652.75 C 167.0625 2685.710938 197.851562 2706.964844 243.597656 2729.734375 C 291.296875 2753.371094 341.378906 2767.683594 394.496094 2772.886719 C 426.367188 2775.921875 2352.730469 2775.921875 2383.078125 2772.671875 C 2471.96875 2763.5625 2551.96875 2729.949219 2620.269531 2672.699219 C 2667.96875 2632.800781 2702.878906 2587.695312 2730.839844 2529.578125 C 2755.339844 2478.832031 2767.921875 2433.292969 2773.121094 2378.210938 C 2774.859375 2360.648438 2775.289062 2062.253906 2774.859375 1368.75 L 2773.988281 384.230469 L 2769.21875 359.289062 C 2755.769531 289.679688 2728.460938 227.441406 2686.828125 171.28125 C 2668.398438 146.769531 2627.859375 106.21875 2603.359375 87.789062 C 2547.199219 46.148438 2484.980469 18.828125 2415.378906 5.378906 L 2390.449219 0.609375 L 1399.628906 0.179688 C 854.785156 -0.0390625 401 0.609375 391.460938 1.699219 Z M 2350.769531 251.300781 C 2438.800781 275.589844 2499.070312 335.871094 2523.359375 423.910156 L 2529.210938 444.949219 L 2529.210938 2331.589844 L 2523.359375 2353.273438 C 2499.941406 2437.414062 2437.28125 2499.21875 2350.769531 2523.070312 L 2329.738281 2528.925781 L 443.496094 2528.925781 L 421.816406 2522.855469 C 380.1875 2511.578125 345.0625 2491.191406 314.710938 2460.617188 C 283.921875 2429.824219 263.542969 2394.910156 252.269531 2353.273438 L 246.199219 2331.589844 L 246.199219 444.949219 L 252.050781 423.910156 C 277.851562 330.671875 348.316406 264.308594 439.59375 247.828125 C 454.121094 245.230469 592.011719 244.789062 1393.128906 245.011719 L 2329.738281 245.441406 Z M 2350.769531 251.300781 "/>
    <path fill-rule="nonzero" fill="rgb(0%, 0%, 0%)" fill-opacity="1"
          d="M 789.523438 508.269531 C 788.222656 521.28125 782.152344 578.960938 776.300781 636.871094 C 770.445312 694.769531 760.6875 790.828125 754.617188 850.46875 C 721.011719 1180.089844 722.964844 1156.019531 724.699219 1192.230469 C 727.734375 1264.441406 741.828125 1330.148438 768.710938 1397.160156 C 831.585938 1553.730469 945.628906 1669.53125 1096.53125 1729.601562 C 1153.109375 1752.148438 1219.679688 1765.378906 1284.71875 1767.328125 L 1302.058594 1767.769531 L 1302.710938 1941.683594 L 1303.148438 2115.816406 L 1086.988281 2115.816406 C 849.148438 2115.816406 853.265625 2115.601562 828.117188 2129.046875 C 812.941406 2137.070312 800.582031 2150.949219 791.910156 2169.378906 C 786.921875 2180.007812 786.054688 2184.777344 786.054688 2200.390625 C 786.054688 2216.65625 786.921875 2220.558594 792.992188 2233.570312 C 801.449219 2251.132812 818.359375 2268.917969 833.753906 2276.074219 C 857.820312 2287.347656 839.824219 2286.914062 1384.449219 2286.914062 C 1804.410156 2286.914062 1894.609375 2286.480469 1908.480469 2284.097656 C 1937.539062 2278.890625 1957.699219 2265.011719 1972.441406 2240.074219 C 2001.929688 2190.199219 1968.96875 2127.746094 1908.050781 2118.203125 C 1898.941406 2116.683594 1818.070312 2115.816406 1683 2115.816406 L 1472.261719 2115.816406 L 1472.691406 1941.683594 L 1473.339844 1767.769531 L 1491.769531 1767.328125 C 1640.289062 1763.429688 1781 1701.410156 1882.898438 1595.148438 C 1986.320312 1487.160156 2046.589844 1344.460938 2054.390625 1189.851562 C 2055.699219 1164.691406 2053.308594 1139.101562 2021 830.949219 C 2001.710938 648.359375 1985.660156 495.910156 1985.019531 492.011719 L 1983.71875 485.070312 L 1826.738281 485.070312 C 1740.238281 485.070312 1669.558594 485.929688 1669.558594 486.800781 C 1669.558594 487.671875 1735.898438 657.679688 1816.769531 864.558594 C 1953.140625 1212.828125 1963.769531 1241.019531 1959.859375 1242.761719 C 1957.480469 1243.839844 1955.308594 1244.28125 1954.660156 1243.621094 C 1953.578125 1242.761719 1876.828125 1057.570312 1809.179688 892.96875 L 1781.21875 824.878906 L 1762.789062 816.640625 C 1752.589844 812.089844 1742.191406 807.101562 1739.371094 805.578125 C 1735.46875 803.410156 1718.339844 766.980469 1667.171875 652.050781 C 1630.101562 569.210938 1598.441406 497.640625 1596.488281 493.089844 L 1593.238281 485.070312 L 792.125 485.070312 Z M 789.523438 508.269531 "/>
</svg>
