<?xml version="1.0" encoding="UTF-8"?>
<svg xmlns="http://www.w3.org/2000/svg" xmlns:xlink="http://www.w3.org/1999/xlink" width="4695" height="4695"
     viewBox="0 0 4695 4695">
    <defs>
        <clipPath id="clip-0">
            <path clip-rule="nonzero" d="M 1064 1374 L 3801 1374 L 3801 2954 L 1064 2954 Z M 1064 1374 "/>
        </clipPath>
        <clipPath id="clip-1">
            <path clip-rule="nonzero"
                  d="M 2432.558594 2953.601562 L 1064.78125 2163.910156 L 2432.511719 1374.25 L 3800.289062 2163.929688 Z M 2432.558594 2953.601562 "/>
        </clipPath>
        <clipPath id="clip-2">
            <path clip-rule="nonzero"
                  d="M 2432.558594 2953.601562 L 1064.78125 2163.910156 L 2432.511719 1374.25 L 3800.289062 2163.929688 L 2432.558594 2953.601562 "/>
        </clipPath>
        <linearGradient id="linear-pattern-0" gradientUnits="userSpaceOnUse" x1="0" y1="0" x2="1" y2="0"
                        gradientTransform="matrix(2735.51, 0, 0, 2735.51, 1064.78, 2163.92)">
            <stop offset="0" stop-color="rgb(47.874451%, 49.1745%, 50.932312%)" stop-opacity="1"/>
            <stop offset="0.015625" stop-color="rgb(47.628784%, 49.064636%, 50.738525%)" stop-opacity="1"/>
            <stop offset="0.03125" stop-color="rgb(47.390747%, 48.828125%, 50.497437%)" stop-opacity="1"/>
            <stop offset="0.046875" stop-color="rgb(47.175598%, 48.472595%, 50.222778%)" stop-opacity="1"/>
            <stop offset="0.0625" stop-color="rgb(46.859741%, 48.146057%, 49.893188%)" stop-opacity="1"/>
            <stop offset="0.078125" stop-color="rgb(46.614075%, 48.025513%, 49.693298%)" stop-opacity="1"/>
            <stop offset="0.09375" stop-color="rgb(46.235657%, 47.787476%, 49.476624%)" stop-opacity="1"/>
            <stop offset="0.109375" stop-color="rgb(45.913696%, 47.470093%, 49.160767%)" stop-opacity="1"/>
            <stop offset="0.125" stop-color="rgb(45.678711%, 47.233582%, 48.916626%)" stop-opacity="1"/>
            <stop offset="0.140625" stop-color="rgb(45.323181%, 46.879578%, 48.664856%)" stop-opacity="1"/>
            <stop offset="0.15625" stop-color="rgb(45.016479%, 46.453857%, 48.222351%)" stop-opacity="1"/>
            <stop offset="0.171875" stop-color="rgb(44.714355%, 46.121216%, 47.877502%)" stop-opacity="1"/>
            <stop offset="0.1875" stop-color="rgb(44.404602%, 45.809937%, 47.561646%)" stop-opacity="1"/>
            <stop offset="0.203125" stop-color="rgb(44.168091%, 45.567322%, 47.314453%)" stop-opacity="1"/>
            <stop offset="0.21875" stop-color="rgb(43.82019%, 45.333862%, 47.105408%)" stop-opacity="1"/>
            <stop offset="0.234375" stop-color="rgb(43.510437%, 44.946289%, 46.77887%)" stop-opacity="1"/>
            <stop offset="0.25" stop-color="rgb(43.215942%, 44.612122%, 46.456909%)" stop-opacity="1"/>
            <stop offset="0.265625" stop-color="rgb(42.971802%, 44.372559%, 46.211243%)" stop-opacity="1"/>
            <stop offset="0.28125" stop-color="rgb(42.767334%, 44.067383%, 45.96405%)" stop-opacity="1"/>
            <stop offset="0.296875" stop-color="rgb(42.492676%, 43.756104%, 45.593262%)" stop-opacity="1"/>
            <stop offset="0.3125" stop-color="rgb(42.198181%, 43.458557%, 45.252991%)" stop-opacity="1"/>
            <stop offset="0.328125" stop-color="rgb(41.899109%, 43.154907%, 44.947815%)" stop-opacity="1"/>
            <stop offset="0.34375" stop-color="rgb(41.607666%, 42.858887%, 44.641113%)" stop-opacity="1"/>
            <stop offset="0.359375" stop-color="rgb(41.213989%, 42.549133%, 44.346619%)" stop-opacity="1"/>
            <stop offset="0.375" stop-color="rgb(40.866089%, 42.250061%, 44.047546%)" stop-opacity="1"/>
            <stop offset="0.390625" stop-color="rgb(40.635681%, 41.93573%, 43.777466%)" stop-opacity="1"/>
            <stop offset="0.40625" stop-color="rgb(40.428162%, 41.682434%, 43.55011%)" stop-opacity="1"/>
            <stop offset="0.421875" stop-color="rgb(40.17334%, 41.426086%, 43.289185%)" stop-opacity="1"/>
            <stop offset="0.4375" stop-color="rgb(39.881897%, 41.133118%, 42.988586%)" stop-opacity="1"/>
            <stop offset="0.453125" stop-color="rgb(39.598083%, 40.846252%, 42.692566%)" stop-opacity="1"/>
            <stop offset="0.46875" stop-color="rgb(39.317322%, 40.496826%, 42.375183%)" stop-opacity="1"/>
            <stop offset="0.484375" stop-color="rgb(39.042664%, 40.159607%, 42.06543%)" stop-opacity="1"/>
            <stop offset="0.5" stop-color="rgb(38.755798%, 39.875793%, 41.770935%)" stop-opacity="1"/>
            <stop offset="0.515625" stop-color="rgb(38.484192%, 39.537048%, 41.461182%)" stop-opacity="1"/>
            <stop offset="0.53125" stop-color="rgb(38.208008%, 39.199829%, 41.151428%)" stop-opacity="1"/>
            <stop offset="0.546875" stop-color="rgb(37.924194%, 38.969421%, 40.879822%)" stop-opacity="1"/>
            <stop offset="0.5625" stop-color="rgb(37.635803%, 38.749695%, 40.568542%)" stop-opacity="1"/>
            <stop offset="0.578125" stop-color="rgb(37.362671%, 38.470459%, 40.226746%)" stop-opacity="1"/>
            <stop offset="0.59375" stop-color="rgb(37.083435%, 38.194275%, 39.942932%)" stop-opacity="1"/>
            <stop offset="0.609375" stop-color="rgb(36.810303%, 37.916565%, 39.657593%)" stop-opacity="1"/>
            <stop offset="0.625" stop-color="rgb(36.482239%, 37.638855%, 39.379883%)" stop-opacity="1"/>
            <stop offset="0.640625" stop-color="rgb(36.126709%, 37.31842%, 39.093018%)" stop-opacity="1"/>
            <stop offset="0.65625" stop-color="rgb(35.865784%, 36.979675%, 38.790894%)" stop-opacity="1"/>
            <stop offset="0.671875" stop-color="rgb(35.594177%, 36.711121%, 38.48114%)" stop-opacity="1"/>
            <stop offset="0.6875" stop-color="rgb(35.371399%, 36.444092%, 38.137817%)" stop-opacity="1"/>
            <stop offset="0.695312" stop-color="rgb(35.270691%, 36.257935%, 37.927246%)" stop-opacity="1"/>
            <stop offset="0.703125" stop-color="rgb(35.137939%, 36.122131%, 37.785339%)" stop-opacity="1"/>
            <stop offset="0.710938" stop-color="rgb(34.910583%, 35.89325%, 37.548828%)" stop-opacity="1"/>
            <stop offset="0.71875" stop-color="rgb(34.698486%, 35.679626%, 37.327576%)" stop-opacity="1"/>
            <stop offset="0.734375" stop-color="rgb(34.515381%, 35.493469%, 37.155151%)" stop-opacity="1"/>
            <stop offset="0.75" stop-color="rgb(34.248352%, 35.22644%, 36.946106%)" stop-opacity="1"/>
            <stop offset="0.765625" stop-color="rgb(34.016418%, 34.967041%, 36.669922%)" stop-opacity="1"/>
            <stop offset="0.78125" stop-color="rgb(33.860779%, 34.689331%, 36.399841%)" stop-opacity="1"/>
            <stop offset="0.796875" stop-color="rgb(33.580017%, 34.347534%, 36.175537%)" stop-opacity="1"/>
            <stop offset="0.804688" stop-color="rgb(33.285522%, 34.140015%, 35.984802%)" stop-opacity="1"/>
            <stop offset="0.8125" stop-color="rgb(33.097839%, 34.024048%, 35.823059%)" stop-opacity="1"/>
            <stop offset="0.820312" stop-color="rgb(32.945251%, 33.825684%, 35.638428%)" stop-opacity="1"/>
            <stop offset="0.828125" stop-color="rgb(32.826233%, 33.605957%, 35.446167%)" stop-opacity="1"/>
            <stop offset="0.84375" stop-color="rgb(32.6828%, 33.421326%, 35.185242%)" stop-opacity="1"/>
            <stop offset="0.859375" stop-color="rgb(32.424927%, 33.166504%, 34.849548%)" stop-opacity="1"/>
            <stop offset="0.875" stop-color="rgb(32.170105%, 32.913208%, 34.587097%)" stop-opacity="1"/>
            <stop offset="0.882812" stop-color="rgb(31.993103%, 32.736206%, 34.40094%)" stop-opacity="1"/>
            <stop offset="0.890625" stop-color="rgb(31.814575%, 32.562256%, 34.222412%)" stop-opacity="1"/>
            <stop offset="0.898438" stop-color="rgb(31.655884%, 32.400513%, 34.05304%)" stop-opacity="1"/>
            <stop offset="0.90625" stop-color="rgb(31.521606%, 32.247925%, 33.894348%)" stop-opacity="1"/>
            <stop offset="0.921875" stop-color="rgb(31.401062%, 32.009888%, 33.700562%)" stop-opacity="1"/>
            <stop offset="0.9375" stop-color="rgb(31.265259%, 31.770325%, 33.428955%)" stop-opacity="1"/>
            <stop offset="0.945312" stop-color="rgb(31.097412%, 31.602478%, 33.222961%)" stop-opacity="1"/>
            <stop offset="0.953125" stop-color="rgb(30.918884%, 31.430054%, 33.117676%)" stop-opacity="1"/>
            <stop offset="0.960938" stop-color="rgb(30.760193%, 31.269836%, 32.940674%)" stop-opacity="1"/>
            <stop offset="0.96875" stop-color="rgb(30.618286%, 31.1203%, 32.705688%)" stop-opacity="1"/>
            <stop offset="0.984375" stop-color="rgb(30.369568%, 30.874634%, 32.492065%)" stop-opacity="1"/>
            <stop offset="1" stop-color="rgb(30.122375%, 30.632019%, 32.235718%)" stop-opacity="1"/>
        </linearGradient>
    </defs>
    <path fill-rule="nonzero" fill="rgb(73.439026%, 73.887634%, 74.09668%)" fill-opacity="1"
          d="M 3646.300781 2280.199219 L 3728.261719 2327.53125 L 3662.480469 2365.5 L 3580.511719 2318.179688 L 3646.300781 2280.199219 "/>
    <path fill-rule="nonzero" fill="rgb(73.439026%, 73.887634%, 74.09668%)" fill-opacity="1"
          d="M 3584.828125 2244.710938 L 3519.039062 2282.691406 L 3437.078125 2235.371094 L 3502.859375 2197.390625 L 3584.828125 2244.710938 "/>
    <path fill-rule="nonzero" fill="rgb(73.439026%, 73.887634%, 74.09668%)" fill-opacity="1"
          d="M 3441.390625 2161.898438 L 3375.609375 2199.878906 L 3293.648438 2152.558594 L 3359.429688 2114.578125 L 3441.390625 2161.898438 "/>
    <path fill-rule="nonzero" fill="rgb(73.439026%, 73.887634%, 74.09668%)" fill-opacity="1"
          d="M 3297.960938 2079.089844 L 3232.171875 2117.070312 L 3150.210938 2069.738281 L 3216 2031.761719 L 3297.960938 2079.089844 "/>
    <path fill-rule="nonzero" fill="rgb(73.439026%, 73.887634%, 74.09668%)" fill-opacity="1"
          d="M 3154.519531 1996.28125 L 3088.738281 2034.261719 L 3006.769531 1986.941406 L 3072.558594 1948.960938 L 3154.519531 1996.28125 "/>
    <path fill-rule="nonzero" fill="rgb(73.439026%, 73.887634%, 74.09668%)" fill-opacity="1"
          d="M 3011.089844 1913.460938 L 2945.300781 1951.441406 L 2863.339844 1904.121094 L 2929.128906 1866.140625 L 3011.089844 1913.460938 "/>
    <path fill-rule="nonzero" fill="rgb(73.439026%, 73.887634%, 74.09668%)" fill-opacity="1"
          d="M 2867.648438 1830.648438 L 2801.871094 1868.628906 L 2719.910156 1821.308594 L 2785.691406 1783.328125 L 2867.648438 1830.648438 "/>
    <path fill-rule="nonzero" fill="rgb(73.439026%, 73.887634%, 74.09668%)" fill-opacity="1"
          d="M 2724.21875 1747.839844 L 2658.441406 1785.820312 L 2576.46875 1738.5 L 2642.25 1700.519531 L 2724.21875 1747.839844 "/>
    <path fill-rule="nonzero" fill="rgb(73.439026%, 73.887634%, 74.09668%)" fill-opacity="1"
          d="M 2580.78125 1665.03125 L 2498.820312 1617.710938 L 2433.039062 1655.691406 L 2515 1703.011719 L 2580.78125 1665.03125 "/>
    <path fill-rule="nonzero" fill="rgb(77.885437%, 70.632935%, 43.624878%)" fill-opacity="1"
          d="M 3835.910156 2158.710938 L 3938.679688 2218.058594 L 3738.671875 2333.53125 L 3635.890625 2274.191406 L 3835.910156 2158.710938 "/>
    <path fill-rule="nonzero" fill="rgb(77.885437%, 70.632935%, 43.624878%)" fill-opacity="1"
          d="M 3692.46875 2075.910156 L 3795.25 2135.238281 L 3595.238281 2250.71875 L 3492.460938 2191.378906 L 3692.46875 2075.910156 "/>
    <path fill-rule="nonzero" fill="rgb(77.885437%, 70.632935%, 43.624878%)" fill-opacity="1"
          d="M 3549.039062 1993.089844 L 3651.820312 2052.429688 L 3451.800781 2167.910156 L 3349.019531 2108.570312 L 3549.039062 1993.089844 "/>
    <path fill-rule="nonzero" fill="rgb(77.885437%, 70.632935%, 43.624878%)" fill-opacity="1"
          d="M 3405.601562 1910.28125 L 3508.378906 1969.621094 L 3308.371094 2085.101562 L 3205.578125 2025.761719 L 3405.601562 1910.28125 "/>
    <path fill-rule="nonzero" fill="rgb(77.885437%, 70.632935%, 43.624878%)" fill-opacity="1"
          d="M 3262.160156 1827.460938 L 3364.949219 1886.808594 L 3164.929688 2002.28125 L 3062.148438 1942.949219 L 3262.160156 1827.460938 "/>
    <path fill-rule="nonzero" fill="rgb(77.885437%, 70.632935%, 43.624878%)" fill-opacity="1"
          d="M 3118.730469 1744.660156 L 3221.511719 1803.988281 L 3021.488281 1919.46875 L 2918.71875 1860.128906 L 3118.730469 1744.660156 "/>
    <path fill-rule="nonzero" fill="rgb(77.885437%, 70.632935%, 43.624878%)" fill-opacity="1"
          d="M 2975.300781 1661.839844 L 3078.070312 1721.179688 L 2878.058594 1836.660156 L 2775.289062 1777.320312 L 2975.300781 1661.839844 "/>
    <path fill-rule="nonzero" fill="rgb(77.885437%, 70.632935%, 43.624878%)" fill-opacity="1"
          d="M 2831.859375 1579.03125 L 2934.640625 1638.371094 L 2734.628906 1753.851562 L 2631.851562 1694.511719 L 2831.859375 1579.03125 "/>
    <path fill-rule="nonzero" fill="rgb(77.885437%, 70.632935%, 43.624878%)" fill-opacity="1"
          d="M 2688.429688 1496.21875 L 2791.210938 1555.558594 L 2591.199219 1671.039062 L 2488.410156 1611.699219 L 2688.429688 1496.21875 "/>
    <path fill-rule="nonzero" fill="rgb(77.885437%, 70.632935%, 43.624878%)" fill-opacity="1"
          d="M 4224.808594 2045.808594 L 4224.808594 2059.898438 L 4127.078125 2059.898438 L 3895.910156 2193.371094 L 3878.660156 2183.398438 L 4116.96875 2045.808594 L 4224.808594 2045.808594 "/>
    <path fill-rule="nonzero" fill="rgb(77.885437%, 70.632935%, 43.624878%)" fill-opacity="1"
          d="M 4251.929688 2074.871094 C 4272.941406 2087 4307.148438 2087 4328.160156 2074.871094 C 4349.191406 2062.738281 4349.191406 2042.980469 4328.179688 2030.851562 C 4307.148438 2018.710938 4272.941406 2018.710938 4251.910156 2030.851562 C 4230.898438 2042.980469 4230.898438 2062.730469 4251.929688 2074.871094 Z M 4345.429688 2020.890625 C 4375.960938 2038.519531 4375.949219 2067.210938 4345.421875 2084.839844 C 4314.878906 2102.460938 4265.210938 2102.460938 4234.671875 2084.839844 C 4204.140625 2067.210938 4204.128906 2038.519531 4234.648438 2020.890625 C 4265.179688 2003.261719 4314.898438 2003.261719 4345.429688 2020.890625 "/>
    <path fill-rule="nonzero" fill="rgb(77.885437%, 70.632935%, 43.624878%)" fill-opacity="1"
          d="M 3537.191406 1477.789062 L 3537.191406 1573.851562 L 3180.03125 1780.050781 L 3162.78125 1770.089844 L 3512.800781 1568.011719 L 3512.789062 1477.789062 L 3537.191406 1477.789062 "/>
    <path fill-rule="nonzero" fill="rgb(77.885437%, 70.632935%, 43.624878%)" fill-opacity="1"
          d="M 3503.371094 1462.289062 C 3524.390625 1474.421875 3558.589844 1474.421875 3579.609375 1462.289062 C 3600.640625 1450.148438 3600.640625 1430.398438 3579.621094 1418.269531 C 3558.589844 1406.121094 3524.390625 1406.121094 3503.359375 1418.269531 C 3482.339844 1430.398438 3482.339844 1450.148438 3503.371094 1462.289062 Z M 3596.871094 1408.308594 C 3627.410156 1425.941406 3627.398438 1454.621094 3596.859375 1472.25 C 3566.328125 1489.878906 3516.648438 1489.878906 3486.121094 1472.25 C 3455.578125 1454.621094 3455.570312 1425.929688 3486.101562 1408.300781 C 3516.628906 1390.671875 3566.339844 1390.671875 3596.871094 1408.308594 "/>
    <path fill-rule="nonzero" fill="rgb(77.885437%, 70.632935%, 43.624878%)" fill-opacity="1"
          d="M 3222.980469 1343.261719 L 3240.230469 1353.230469 L 3130.199219 1416.761719 L 3130.179688 1476.089844 L 2891.871094 1613.679688 L 2874.609375 1603.71875 L 3105.789062 1470.25 L 3105.800781 1410.921875 L 3222.980469 1343.261719 "/>
    <path fill-rule="nonzero" fill="rgb(77.885437%, 70.632935%, 43.624878%)" fill-opacity="1"
          d="M 3240.230469 1343.261719 C 3261.238281 1355.398438 3295.449219 1355.398438 3316.460938 1343.269531 C 3337.488281 1331.121094 3337.488281 1311.378906 3316.480469 1299.238281 C 3295.449219 1287.101562 3261.238281 1287.101562 3240.21875 1299.238281 C 3219.199219 1311.371094 3219.199219 1331.121094 3240.230469 1343.261719 Z M 3333.730469 1289.28125 C 3364.269531 1306.910156 3364.25 1335.601562 3333.71875 1353.230469 C 3303.191406 1370.859375 3253.511719 1370.859375 3222.980469 1353.230469 C 3192.441406 1335.601562 3192.421875 1306.910156 3222.960938 1289.28125 C 3253.488281 1271.660156 3303.199219 1271.660156 3333.730469 1289.28125 "/>
    <path fill-rule="nonzero" fill="rgb(77.885437%, 70.632935%, 43.624878%)" fill-opacity="1"
          d="M 2951.878906 1351.160156 L 2951.878906 1413.410156 L 2748.429688 1530.871094 L 2731.179688 1520.910156 L 2927.480469 1407.570312 L 2927.480469 1351.160156 L 2951.878906 1351.160156 "/>
    <path fill-rule="nonzero" fill="rgb(77.885437%, 70.632935%, 43.624878%)" fill-opacity="1"
          d="M 2901.570312 1335.5 C 2922.578125 1347.628906 2956.78125 1347.628906 2977.800781 1335.5 C 2998.808594 1323.359375 2998.808594 1303.621094 2977.800781 1291.480469 C 2956.78125 1279.351562 2922.578125 1279.351562 2901.570312 1291.480469 C 2880.550781 1303.621094 2880.550781 1323.359375 2901.570312 1335.5 Z M 2995.050781 1281.519531 C 3025.578125 1299.148438 3025.589844 1327.839844 2995.050781 1345.460938 C 2964.519531 1363.089844 2914.851562 1363.089844 2884.308594 1345.460938 C 2853.78125 1327.839844 2853.78125 1299.148438 2884.308594 1281.519531 C 2914.839844 1263.898438 2964.519531 1263.898438 2995.050781 1281.519531 "/>
    <path fill-rule="nonzero" fill="rgb(77.885437%, 70.632935%, 43.624878%)" fill-opacity="1"
          d="M 4233.71875 1658.25 L 4233.71875 1672.339844 L 3936.539062 1672.339844 L 3465 1944.578125 L 3447.75 1934.621094 L 3926.429688 1658.25 L 4233.71875 1658.25 "/>
    <path fill-rule="nonzero" fill="rgb(77.885437%, 70.632935%, 43.624878%)" fill-opacity="1"
          d="M 4260.230469 1686.589844 C 4281.261719 1698.730469 4315.460938 1698.730469 4336.46875 1686.601562 C 4357.480469 1674.46875 4357.480469 1654.71875 4336.460938 1642.570312 C 4315.441406 1630.449219 4281.238281 1630.449219 4260.21875 1642.570312 C 4239.210938 1654.710938 4239.210938 1674.460938 4260.230469 1686.589844 Z M 4353.710938 1632.609375 C 4384.25 1650.238281 4384.261719 1678.929688 4353.730469 1696.558594 C 4323.191406 1714.191406 4273.5 1714.179688 4242.96875 1696.550781 C 4212.441406 1678.929688 4212.441406 1650.238281 4242.96875 1632.609375 C 4273.5 1614.988281 4323.179688 1614.988281 4353.710938 1632.609375 "/>
    <path fill-rule="nonzero" fill="rgb(77.885437%, 70.632935%, 43.624878%)" fill-opacity="1"
          d="M 3737.738281 1933.511719 L 3755 1943.46875 L 3609.039062 2027.738281 L 3591.789062 2017.78125 L 3737.738281 1933.511719 "/>
    <path fill-rule="nonzero" fill="rgb(77.885437%, 70.632935%, 43.624878%)" fill-opacity="1"
          d="M 3755 1933.511719 C 3776.03125 1945.648438 3810.238281 1945.660156 3831.25 1933.519531 C 3852.261719 1921.390625 3852.261719 1901.640625 3831.230469 1889.5 C 3810.21875 1877.371094 3776.011719 1877.371094 3755 1889.5 C 3733.988281 1901.628906 3733.988281 1921.378906 3755 1933.511719 Z M 3848.480469 1879.53125 C 3879.019531 1897.171875 3879.039062 1925.859375 3848.5 1943.480469 C 3817.96875 1961.109375 3768.28125 1961.101562 3737.738281 1943.46875 C 3707.210938 1925.839844 3707.210938 1897.160156 3737.738281 1879.53125 C 3768.269531 1861.910156 3817.949219 1861.910156 3848.480469 1879.53125 "/>
    <path fill-rule="nonzero" fill="rgb(77.885437%, 70.632935%, 43.624878%)" fill-opacity="1"
          d="M 4044.378906 1932.058594 C 4065.398438 1944.199219 4099.609375 1944.199219 4120.628906 1932.078125 C 4141.648438 1919.929688 4141.648438 1900.191406 4120.628906 1888.039062 C 4099.609375 1875.910156 4065.398438 1875.910156 4044.378906 1888.050781 C 4023.359375 1900.191406 4023.359375 1919.929688 4044.378906 1932.058594 Z M 4137.878906 1878.078125 C 4168.410156 1895.710938 4168.410156 1924.410156 4137.878906 1942.039062 C 4107.351562 1959.660156 4057.660156 1959.660156 4027.121094 1942.019531 C 3996.578125 1924.398438 3996.578125 1895.71875 4027.121094 1878.089844 C 4057.648438 1860.460938 4107.351562 1860.449219 4137.878906 1878.078125 "/>
    <path fill-rule="nonzero" fill="rgb(77.885437%, 70.632935%, 43.624878%)" fill-opacity="1"
          d="M 4025.671875 1931.230469 L 4042.929688 1941.191406 L 3751.019531 2109.71875 L 3733.769531 2099.761719 L 4025.671875 1931.230469 "/>
    <path fill-rule="nonzero" fill="rgb(77.885437%, 70.632935%, 43.624878%)" fill-opacity="1"
          d="M 3811.429688 1125.128906 C 3832.441406 1137.269531 3866.648438 1137.269531 3887.660156 1125.140625 C 3908.691406 1112.988281 3908.691406 1093.238281 3887.679688 1081.109375 C 3866.648438 1068.96875 3832.441406 1068.96875 3811.410156 1081.109375 C 3790.398438 1093.238281 3790.398438 1112.988281 3811.429688 1125.128906 Z M 3904.929688 1071.148438 C 3935.460938 1088.78125 3935.449219 1117.46875 3904.921875 1135.101562 C 3874.378906 1152.71875 3824.710938 1152.71875 3794.171875 1135.101562 C 3763.640625 1117.460938 3763.628906 1088.78125 3794.160156 1071.148438 C 3824.679688 1053.519531 3874.398438 1053.519531 3904.929688 1071.148438 "/>
    <path fill-rule="nonzero" fill="rgb(77.885437%, 70.632935%, 43.624878%)" fill-opacity="1"
          d="M 3794.171875 1125.128906 L 3811.429688 1135.101562 L 3330.789062 1412.589844 L 3330.78125 1525.898438 L 3035.300781 1696.488281 L 3018.050781 1686.53125 L 3306.371094 1520.058594 L 3306.390625 1406.75 L 3794.171875 1125.128906 "/>
    <path fill-rule="nonzero" fill="rgb(77.885437%, 70.632935%, 43.624878%)" fill-opacity="1"
          d="M 3678.351562 1643.828125 C 3699.378906 1655.96875 3733.601562 1655.96875 3754.601562 1643.839844 C 3775.621094 1631.699219 3775.621094 1611.960938 3754.589844 1599.820312 C 3733.570312 1587.691406 3699.371094 1587.691406 3678.351562 1599.820312 C 3657.339844 1611.941406 3657.339844 1631.699219 3678.351562 1643.828125 Z M 3771.839844 1589.851562 C 3802.371094 1607.480469 3802.390625 1636.171875 3771.859375 1653.800781 C 3741.328125 1671.429688 3691.640625 1671.421875 3661.101562 1653.789062 C 3630.558594 1636.160156 3630.558594 1607.480469 3661.101562 1589.851562 C 3691.628906 1572.230469 3741.308594 1572.230469 3771.839844 1589.851562 "/>
    <path fill-rule="nonzero" fill="rgb(77.885437%, 70.632935%, 43.624878%)" fill-opacity="1"
          d="M 3661.101562 1643.828125 L 3678.351562 1653.789062 L 3209.660156 1924.390625 L 3192.398438 1914.429688 L 3661.101562 1643.828125 "/>
    <path fill-rule="nonzero" fill="rgb(73.439026%, 73.887634%, 74.09668%)" fill-opacity="1"
          d="M 1219.808594 2280.179688 L 1137.851562 2327.5 L 1203.640625 2365.480469 L 1285.589844 2318.160156 L 1219.808594 2280.179688 "/>
    <path fill-rule="nonzero" fill="rgb(73.439026%, 73.887634%, 74.09668%)" fill-opacity="1"
          d="M 1281.28125 2244.691406 L 1347.070312 2282.671875 L 1429.019531 2235.351562 L 1363.238281 2197.371094 L 1281.28125 2244.691406 "/>
    <path fill-rule="nonzero" fill="rgb(73.439026%, 73.887634%, 74.09668%)" fill-opacity="1"
          d="M 1424.710938 2161.878906 L 1490.5 2199.859375 L 1572.449219 2152.539062 L 1506.671875 2114.558594 L 1424.710938 2161.878906 "/>
    <path fill-rule="nonzero" fill="rgb(73.439026%, 73.887634%, 74.09668%)" fill-opacity="1"
          d="M 1568.140625 2079.078125 L 1633.929688 2117.050781 L 1715.890625 2069.730469 L 1650.101562 2031.75 L 1568.140625 2079.078125 "/>
    <path fill-rule="nonzero" fill="rgb(73.439026%, 73.887634%, 74.09668%)" fill-opacity="1"
          d="M 1711.570312 1996.261719 L 1777.359375 2034.25 L 1859.320312 1986.929688 L 1793.53125 1948.941406 L 1711.570312 1996.261719 "/>
    <path fill-rule="nonzero" fill="rgb(73.439026%, 73.887634%, 74.09668%)" fill-opacity="1"
          d="M 1855 1913.449219 L 1920.789062 1951.429688 L 2002.75 1904.109375 L 1936.960938 1866.128906 L 1855 1913.449219 "/>
    <path fill-rule="nonzero" fill="rgb(73.439026%, 73.887634%, 74.09668%)" fill-opacity="1"
          d="M 1998.429688 1830.640625 L 2064.21875 1868.621094 L 2146.179688 1821.300781 L 2080.390625 1783.320312 L 1998.429688 1830.640625 "/>
    <path fill-rule="nonzero" fill="rgb(73.439026%, 73.887634%, 74.09668%)" fill-opacity="1"
          d="M 2141.859375 1747.828125 L 2207.648438 1785.820312 L 2289.609375 1738.488281 L 2223.820312 1700.519531 L 2141.859375 1747.828125 "/>
    <path fill-rule="nonzero" fill="rgb(73.439026%, 73.887634%, 74.09668%)" fill-opacity="1"
          d="M 2285.289062 1665.03125 L 2367.25 1617.710938 L 2433.039062 1655.691406 L 2351.078125 1703.011719 L 2285.289062 1665.03125 "/>
    <path fill-rule="nonzero" fill="rgb(77.885437%, 70.632935%, 43.624878%)" fill-opacity="1"
          d="M 1030.191406 2158.699219 L 927.417969 2218.03125 L 1127.441406 2333.511719 L 1230.210938 2274.171875 L 1030.191406 2158.699219 "/>
    <path fill-rule="nonzero" fill="rgb(77.885437%, 70.632935%, 43.624878%)" fill-opacity="1"
          d="M 1173.628906 2075.878906 L 1070.851562 2135.21875 L 1270.871094 2250.699219 L 1373.640625 2191.359375 L 1173.628906 2075.878906 "/>
    <path fill-rule="nonzero" fill="rgb(77.885437%, 70.632935%, 43.624878%)" fill-opacity="1"
          d="M 1317.058594 1993.070312 L 1214.28125 2052.410156 L 1414.300781 2167.890625 L 1517.070312 2108.550781 L 1317.058594 1993.070312 "/>
    <path fill-rule="nonzero" fill="rgb(77.885437%, 70.632935%, 43.624878%)" fill-opacity="1"
          d="M 1460.488281 1910.261719 L 1357.710938 1969.601562 L 1557.730469 2085.078125 L 1660.5 2025.738281 L 1460.488281 1910.261719 "/>
    <path fill-rule="nonzero" fill="rgb(77.885437%, 70.632935%, 43.624878%)" fill-opacity="1"
          d="M 1603.921875 1827.449219 L 1501.148438 1886.789062 L 1701.160156 2002.269531 L 1803.941406 1942.929688 L 1603.921875 1827.449219 "/>
    <path fill-rule="nonzero" fill="rgb(77.885437%, 70.632935%, 43.624878%)" fill-opacity="1"
          d="M 1747.351562 1744.640625 L 1644.570312 1803.980469 L 1844.589844 1919.460938 L 1947.371094 1860.121094 L 1747.351562 1744.640625 "/>
    <path fill-rule="nonzero" fill="rgb(77.885437%, 70.632935%, 43.624878%)" fill-opacity="1"
          d="M 1890.78125 1661.828125 L 1788.011719 1721.171875 L 1988.019531 1836.648438 L 2090.800781 1777.308594 L 1890.78125 1661.828125 "/>
    <path fill-rule="nonzero" fill="rgb(77.885437%, 70.632935%, 43.624878%)" fill-opacity="1"
          d="M 2034.210938 1579.019531 L 1931.441406 1638.359375 L 2131.449219 1753.839844 L 2234.230469 1694.511719 L 2034.210938 1579.019531 "/>
    <path fill-rule="nonzero" fill="rgb(77.885437%, 70.632935%, 43.624878%)" fill-opacity="1"
          d="M 2177.640625 1496.210938 L 2074.871094 1555.550781 L 2274.878906 1671.039062 L 2377.660156 1611.699219 L 2177.640625 1496.210938 "/>
    <path fill-rule="nonzero" fill="rgb(77.885437%, 70.632935%, 43.624878%)" fill-opacity="1"
          d="M 641.277344 2045.78125 L 749.125 2045.78125 L 987.449219 2183.378906 L 970.195312 2193.339844 L 739.015625 2059.871094 L 641.277344 2059.871094 L 641.277344 2045.78125 "/>
    <path fill-rule="nonzero" fill="rgb(77.885437%, 70.632935%, 43.624878%)" fill-opacity="1"
          d="M 614.171875 2074.851562 C 635.199219 2062.699219 635.199219 2042.949219 614.183594 2030.820312 C 593.15625 2018.679688 558.945312 2018.679688 537.914062 2030.820312 C 516.90625 2042.949219 516.90625 2062.699219 537.9375 2074.851562 C 558.949219 2086.96875 593.15625 2086.96875 614.171875 2074.851562 Z M 520.660156 2020.859375 C 551.199219 2003.230469 600.902344 2003.230469 631.441406 2020.859375 C 661.972656 2038.488281 661.953125 2067.179688 631.425781 2084.808594 C 600.890625 2102.429688 551.214844 2102.429688 520.679688 2084.808594 C 490.144531 2067.179688 490.132812 2038.488281 520.660156 2020.859375 "/>
    <path fill-rule="nonzero" fill="rgb(77.885437%, 70.632935%, 43.624878%)" fill-opacity="1"
          d="M 1127.300781 1406.648438 L 1235.148438 1406.648438 L 1353.269531 1474.851562 L 1353.28125 1567.988281 L 1703.300781 1770.078125 L 1686.050781 1780.050781 L 1328.878906 1573.828125 L 1328.878906 1480.679688 L 1225.039062 1420.730469 L 1127.300781 1420.730469 L 1127.300781 1406.648438 "/>
    <path fill-rule="nonzero" fill="rgb(77.885437%, 70.632935%, 43.624878%)" fill-opacity="1"
          d="M 1100.191406 1435.710938 C 1121.21875 1423.558594 1121.21875 1403.820312 1100.199219 1391.691406 C 1079.171875 1379.539062 1044.96875 1379.539062 1023.941406 1391.691406 C 1002.929688 1403.820312 1002.929688 1423.558594 1023.960938 1435.710938 C 1044.96875 1447.839844 1079.179688 1447.839844 1100.191406 1435.710938 Z M 1006.691406 1381.71875 C 1037.21875 1364.089844 1086.929688 1364.089844 1117.46875 1381.71875 C 1148 1399.351562 1147.980469 1428.039062 1117.449219 1445.671875 C 1086.910156 1463.300781 1037.238281 1463.300781 1006.699219 1445.671875 C 976.171875 1428.039062 976.148438 1399.351562 1006.691406 1381.71875 "/>
    <path fill-rule="nonzero" fill="rgb(77.885437%, 70.632935%, 43.624878%)" fill-opacity="1"
          d="M 1625.828125 1353.21875 L 1643.078125 1343.25 L 1760.261719 1410.898438 L 1760.28125 1470.238281 L 1991.460938 1603.710938 L 1974.210938 1613.671875 L 1735.878906 1476.078125 L 1735.859375 1416.738281 L 1625.828125 1353.21875 "/>
    <path fill-rule="nonzero" fill="rgb(77.885437%, 70.632935%, 43.624878%)" fill-opacity="1"
          d="M 1625.828125 1343.25 C 1646.859375 1331.109375 1646.859375 1311.359375 1625.839844 1299.230469 C 1604.808594 1287.089844 1570.609375 1287.089844 1549.578125 1299.230469 C 1528.570312 1311.359375 1528.570312 1331.109375 1549.589844 1343.25 C 1570.609375 1355.378906 1604.808594 1355.378906 1625.828125 1343.25 Z M 1532.320312 1289.269531 C 1562.859375 1271.640625 1612.570312 1271.640625 1643.101562 1289.269531 C 1673.640625 1306.890625 1673.621094 1335.578125 1643.078125 1353.21875 C 1612.550781 1370.839844 1562.878906 1370.839844 1532.339844 1353.21875 C 1501.808594 1335.578125 1501.789062 1306.890625 1532.320312 1289.269531 "/>
    <path fill-rule="nonzero" fill="rgb(77.885437%, 70.632935%, 43.624878%)" fill-opacity="1"
          d="M 1818.988281 1296.199219 L 1843.378906 1296.199219 L 1843.398438 1352.609375 L 2134.890625 1520.898438 L 2117.640625 1530.871094 L 1819.011719 1358.449219 L 1818.988281 1296.199219 "/>
    <path fill-rule="nonzero" fill="rgb(77.885437%, 70.632935%, 43.624878%)" fill-opacity="1"
          d="M 1869.320312 1280.539062 C 1890.328125 1268.410156 1890.328125 1248.660156 1869.300781 1236.519531 C 1848.289062 1224.390625 1814.078125 1224.378906 1793.070312 1236.519531 C 1772.050781 1248.648438 1772.050781 1268.398438 1793.070312 1280.539062 C 1814.101562 1292.671875 1848.308594 1292.671875 1869.320312 1280.539062 Z M 1775.820312 1226.558594 C 1806.339844 1208.929688 1856.019531 1208.929688 1886.558594 1226.558594 C 1917.089844 1244.179688 1917.109375 1272.878906 1886.570312 1290.511719 C 1856.039062 1308.128906 1806.351562 1308.121094 1775.820312 1290.488281 C 1745.28125 1272.871094 1745.28125 1244.179688 1775.820312 1226.558594 "/>
    <path fill-rule="nonzero" fill="rgb(77.885437%, 70.632935%, 43.624878%)" fill-opacity="1"
          d="M 385.425781 1470.390625 L 409.824219 1470.390625 L 409.808594 1526.808594 L 637.410156 1658.21875 L 939.640625 1658.21875 L 1418.351562 1934.601562 L 1401.089844 1944.558594 L 929.535156 1672.308594 L 627.296875 1672.308594 L 385.410156 1532.648438 L 385.425781 1470.390625 "/>
    <path fill-rule="nonzero" fill="rgb(77.885437%, 70.632935%, 43.624878%)" fill-opacity="1"
          d="M 435.734375 1454.730469 C 456.746094 1442.601562 456.746094 1422.851562 435.734375 1410.71875 C 414.722656 1398.589844 380.515625 1398.589844 359.503906 1410.71875 C 338.472656 1422.859375 338.476562 1442.609375 359.484375 1454.738281 C 380.503906 1466.871094 414.707031 1466.871094 435.734375 1454.730469 Z M 342.246094 1400.761719 C 372.785156 1383.128906 422.460938 1383.128906 452.988281 1400.761719 C 483.527344 1418.378906 483.527344 1447.058594 452.992188 1464.699219 C 422.460938 1482.320312 372.769531 1482.328125 342.230469 1464.699219 C 311.703125 1447.078125 311.71875 1418.378906 342.246094 1400.761719 "/>
    <path fill-rule="nonzero" fill="rgb(77.885437%, 70.632935%, 43.624878%)" fill-opacity="1"
          d="M 792.152344 1801.648438 L 899.984375 1801.640625 L 1274.308594 2017.761719 L 1257.058594 2027.71875 L 889.871094 1815.730469 L 792.152344 1815.738281 L 792.152344 1801.648438 "/>
    <path fill-rule="nonzero" fill="rgb(77.885437%, 70.632935%, 43.624878%)" fill-opacity="1"
          d="M 765.023438 1830.699219 C 786.054688 1818.558594 786.054688 1798.808594 765.039062 1786.679688 C 744.027344 1774.539062 709.820312 1774.539062 688.789062 1786.691406 C 667.78125 1798.820312 667.78125 1818.570312 688.796875 1830.699219 C 709.804688 1842.828125 744.015625 1842.828125 765.023438 1830.699219 Z M 671.535156 1776.71875 C 702.074219 1759.101562 751.761719 1759.089844 782.300781 1776.71875 C 812.828125 1794.351562 812.8125 1823.039062 782.285156 1840.660156 C 751.746094 1858.289062 702.074219 1858.289062 671.535156 1840.660156 C 641.003906 1823.03125 641.003906 1794.359375 671.535156 1776.71875 "/>
    <path fill-rule="nonzero" fill="rgb(77.885437%, 70.632935%, 43.624878%)" fill-opacity="1"
          d="M 437.433594 1821.808594 C 458.441406 1809.679688 458.441406 1789.929688 437.433594 1777.800781 C 416.417969 1765.671875 382.210938 1765.671875 361.199219 1777.800781 C 340.1875 1789.929688 340.1875 1809.679688 361.199219 1821.808594 C 382.214844 1833.949219 416.417969 1833.949219 437.433594 1821.808594 Z M 343.941406 1767.839844 C 374.476562 1750.210938 424.152344 1750.21875 454.6875 1767.839844 C 485.21875 1785.46875 485.21875 1814.148438 454.6875 1831.78125 C 424.15625 1849.410156 374.476562 1849.410156 343.945312 1831.78125 C 313.410156 1814.148438 313.410156 1785.46875 343.941406 1767.839844 "/>
    <path fill-rule="nonzero" fill="rgb(77.885437%, 70.632935%, 43.624878%)" fill-opacity="1"
          d="M 437.433594 1831.78125 L 454.6875 1821.808594 L 640.570312 1929.128906 L 836.832031 1929.140625 L 1132.308594 2099.738281 L 1115.050781 2109.710938 L 826.71875 1943.230469 L 630.457031 1943.230469 L 437.433594 1831.78125 "/>
    <path fill-rule="nonzero" fill="rgb(77.885437%, 70.632935%, 43.624878%)" fill-opacity="1"
          d="M 1266.101562 1247.210938 C 1287.109375 1235.070312 1287.109375 1215.320312 1266.101562 1203.191406 C 1245.089844 1191.058594 1210.878906 1191.058594 1189.871094 1203.191406 C 1168.851562 1215.320312 1168.851562 1235.070312 1189.871094 1247.199219 C 1210.878906 1259.339844 1245.089844 1259.339844 1266.101562 1247.210938 Z M 1172.609375 1193.230469 C 1203.140625 1175.609375 1252.820312 1175.609375 1283.351562 1193.230469 C 1313.878906 1210.859375 1313.878906 1239.539062 1283.351562 1257.171875 C 1252.820312 1274.800781 1203.140625 1274.800781 1172.609375 1257.171875 C 1142.078125 1239.53125 1142.078125 1210.859375 1172.609375 1193.230469 "/>
    <path fill-rule="nonzero" fill="rgb(77.885437%, 70.632935%, 43.624878%)" fill-opacity="1"
          d="M 1266.101562 1257.171875 L 1283.351562 1247.210938 L 1559.671875 1406.738281 L 1559.691406 1520.050781 L 1848.03125 1686.519531 L 1830.78125 1696.480469 L 1535.289062 1525.890625 L 1535.269531 1412.578125 L 1266.101562 1257.171875 "/>
    <path fill-rule="nonzero" fill="rgb(77.885437%, 70.632935%, 43.624878%)" fill-opacity="1"
          d="M 690.941406 1471.320312 C 711.953125 1459.191406 711.953125 1439.441406 690.921875 1427.300781 C 669.910156 1415.160156 635.703125 1415.160156 614.6875 1427.300781 C 593.679688 1439.429688 593.679688 1459.179688 614.6875 1471.308594 C 635.726562 1483.449219 669.929688 1483.449219 690.941406 1471.320312 Z M 597.4375 1417.339844 C 627.96875 1399.710938 677.648438 1399.710938 708.175781 1417.339844 C 738.714844 1434.96875 738.730469 1463.660156 708.195312 1481.28125 C 677.664062 1498.921875 627.96875 1498.898438 597.4375 1481.28125 C 566.902344 1463.640625 566.902344 1434.96875 597.4375 1417.339844 "/>
    <path fill-rule="nonzero" fill="rgb(77.885437%, 70.632935%, 43.624878%)" fill-opacity="1"
          d="M 690.941406 1481.28125 L 708.195312 1471.320312 L 894.074219 1578.640625 L 1090.320312 1578.648438 L 1562.601562 1851.308594 L 1545.351562 1861.28125 L 1080.210938 1592.730469 L 883.96875 1592.730469 L 690.941406 1481.28125 "/>
    <path fill-rule="nonzero" fill="rgb(73.439026%, 73.887634%, 74.09668%)" fill-opacity="1"
          d="M 3729.910156 2536.898438 L 3811.871094 2489.578125 L 3746.078125 2451.589844 L 3664.121094 2498.910156 L 3729.910156 2536.898438 "/>
    <path fill-rule="nonzero" fill="rgb(73.439026%, 73.887634%, 74.09668%)" fill-opacity="1"
          d="M 3668.429688 2572.390625 L 3602.648438 2534.410156 L 3520.691406 2581.730469 L 3586.46875 2619.710938 L 3668.429688 2572.390625 "/>
    <path fill-rule="nonzero" fill="rgb(73.439026%, 73.887634%, 74.09668%)" fill-opacity="1"
          d="M 3525 2655.199219 L 3459.21875 2617.21875 L 3377.261719 2664.539062 L 3443.039062 2702.519531 L 3525 2655.199219 "/>
    <path fill-rule="nonzero" fill="rgb(73.439026%, 73.887634%, 74.09668%)" fill-opacity="1"
          d="M 3381.570312 2738 L 3315.789062 2700.03125 L 3233.828125 2747.351562 L 3299.609375 2785.320312 L 3381.570312 2738 "/>
    <path fill-rule="nonzero" fill="rgb(73.439026%, 73.887634%, 74.09668%)" fill-opacity="1"
          d="M 3238.140625 2820.820312 L 3172.351562 2782.828125 L 3090.398438 2830.148438 L 3156.179688 2868.128906 L 3238.140625 2820.820312 "/>
    <path fill-rule="nonzero" fill="rgb(73.439026%, 73.887634%, 74.09668%)" fill-opacity="1"
          d="M 3094.710938 2903.628906 L 3028.921875 2865.640625 L 2946.96875 2912.960938 L 3012.75 2950.949219 L 3094.710938 2903.628906 "/>
    <path fill-rule="nonzero" fill="rgb(73.439026%, 73.887634%, 74.09668%)" fill-opacity="1"
          d="M 2951.28125 2986.429688 L 2885.488281 2948.460938 L 2803.53125 2995.78125 L 2869.320312 3033.75 L 2951.28125 2986.429688 "/>
    <path fill-rule="nonzero" fill="rgb(73.439026%, 73.887634%, 74.09668%)" fill-opacity="1"
          d="M 2807.851562 3069.25 L 2742.058594 3031.261719 L 2660.101562 3078.578125 L 2725.890625 3116.570312 L 2807.851562 3069.25 "/>
    <path fill-rule="nonzero" fill="rgb(73.439026%, 73.887634%, 74.09668%)" fill-opacity="1"
          d="M 2664.421875 3152.050781 L 2582.460938 3199.371094 L 2516.671875 3161.390625 L 2598.628906 3114.070312 L 2664.421875 3152.050781 "/>
    <path fill-rule="nonzero" fill="rgb(77.885437%, 70.632935%, 43.624878%)" fill-opacity="1"
          d="M 3919.511719 2658.378906 L 4022.289062 2599.050781 L 3822.269531 2483.570312 L 3719.488281 2542.910156 L 3919.511719 2658.378906 "/>
    <path fill-rule="nonzero" fill="rgb(77.885437%, 70.632935%, 43.624878%)" fill-opacity="1"
          d="M 3776.078125 2741.199219 L 3878.859375 2681.859375 L 3678.839844 2566.378906 L 3576.058594 2625.71875 L 3776.078125 2741.199219 "/>
    <path fill-rule="nonzero" fill="rgb(77.885437%, 70.632935%, 43.624878%)" fill-opacity="1"
          d="M 3632.648438 2824.011719 L 3735.429688 2764.671875 L 3535.410156 2649.191406 L 3432.628906 2708.519531 L 3632.648438 2824.011719 "/>
    <path fill-rule="nonzero" fill="rgb(77.885437%, 70.632935%, 43.624878%)" fill-opacity="1"
          d="M 3489.21875 2906.808594 L 3592 2847.480469 L 3391.980469 2732 L 3289.199219 2791.328125 L 3489.21875 2906.808594 "/>
    <path fill-rule="nonzero" fill="rgb(77.885437%, 70.632935%, 43.624878%)" fill-opacity="1"
          d="M 3345.789062 2989.628906 L 3448.570312 2930.289062 L 3248.550781 2814.800781 L 3145.769531 2874.140625 L 3345.789062 2989.628906 "/>
    <path fill-rule="nonzero" fill="rgb(77.885437%, 70.632935%, 43.624878%)" fill-opacity="1"
          d="M 3202.359375 3072.429688 L 3305.140625 3013.089844 L 3105.121094 2897.621094 L 3002.339844 2956.949219 L 3202.359375 3072.429688 "/>
    <path fill-rule="nonzero" fill="rgb(77.885437%, 70.632935%, 43.624878%)" fill-opacity="1"
          d="M 3058.929688 3155.25 L 3161.710938 3095.910156 L 2961.691406 2980.429688 L 2858.910156 3039.769531 L 3058.929688 3155.25 "/>
    <path fill-rule="nonzero" fill="rgb(77.885437%, 70.632935%, 43.624878%)" fill-opacity="1"
          d="M 2915.5 3238.058594 L 3018.269531 3178.71875 L 2818.261719 3063.230469 L 2715.480469 3122.570312 L 2915.5 3238.058594 "/>
    <path fill-rule="nonzero" fill="rgb(77.885437%, 70.632935%, 43.624878%)" fill-opacity="1"
          d="M 2772.070312 3320.859375 L 2874.839844 3261.519531 L 2674.828125 3146.039062 L 2572.050781 3205.378906 L 2772.070312 3320.859375 "/>
    <path fill-rule="nonzero" fill="rgb(77.885437%, 70.632935%, 43.624878%)" fill-opacity="1"
          d="M 4308.429688 2771.289062 L 4200.589844 2771.289062 L 3962.269531 2633.699219 L 3979.519531 2623.738281 L 4210.699219 2757.210938 L 4308.429688 2757.210938 L 4308.429688 2771.289062 "/>
    <path fill-rule="nonzero" fill="rgb(77.885437%, 70.632935%, 43.624878%)" fill-opacity="1"
          d="M 4335.53125 2742.25 C 4314.519531 2754.378906 4314.519531 2774.121094 4335.53125 2786.25 C 4356.558594 2798.398438 4390.769531 2798.398438 4411.78125 2786.269531 C 4432.808594 2774.121094 4432.808594 2754.378906 4411.78125 2742.238281 C 4390.769531 2730.101562 4356.558594 2730.101562 4335.53125 2742.25 Z M 4429.03125 2796.230469 C 4398.5 2813.851562 4348.808594 2813.839844 4318.28125 2796.210938 C 4287.738281 2778.589844 4287.738281 2749.910156 4318.269531 2732.28125 C 4348.808594 2714.648438 4398.5 2714.640625 4429.03125 2732.269531 C 4459.570312 2749.898438 4459.570312 2778.601562 4429.03125 2796.230469 "/>
    <path fill-rule="nonzero" fill="rgb(77.885437%, 70.632935%, 43.624878%)" fill-opacity="1"
          d="M 3620.839844 3339.308594 L 3596.441406 3339.308594 L 3596.441406 3249.078125 L 3246.410156 3047 L 3263.671875 3037.039062 L 3620.839844 3243.238281 L 3620.839844 3339.308594 "/>
    <path fill-rule="nonzero" fill="rgb(77.885437%, 70.632935%, 43.624878%)" fill-opacity="1"
          d="M 3587 3354.820312 C 3566 3366.949219 3566 3386.699219 3587 3398.820312 C 3608.039062 3410.96875 3642.25 3410.96875 3663.261719 3398.839844 C 3684.289062 3386.699219 3684.28125 3366.949219 3663.25 3354.808594 C 3642.25 3342.671875 3608.03125 3342.671875 3587 3354.820312 Z M 3680.511719 3408.800781 C 3649.980469 3426.429688 3600.289062 3426.421875 3569.75 3408.789062 C 3539.21875 3391.160156 3539.21875 3362.480469 3569.75 3344.859375 C 3600.28125 3327.230469 3649.980469 3327.21875 3680.511719 3344.839844 C 3711.039062 3362.46875 3711.039062 3391.171875 3680.511719 3408.800781 "/>
    <path fill-rule="nonzero" fill="rgb(77.885437%, 70.632935%, 43.624878%)" fill-opacity="1"
          d="M 3323.871094 3463.871094 L 3306.609375 3473.828125 L 3189.429688 3406.179688 L 3189.429688 3346.839844 L 2958.261719 3213.359375 L 2975.511719 3203.398438 L 3213.828125 3341 L 3213.828125 3400.339844 L 3323.871094 3463.871094 "/>
    <path fill-rule="nonzero" fill="rgb(77.885437%, 70.632935%, 43.624878%)" fill-opacity="1"
          d="M 3323.871094 3473.828125 C 3302.859375 3485.960938 3302.859375 3505.71875 3323.871094 3517.839844 C 3344.898438 3529.988281 3379.109375 3529.988281 3400.121094 3517.859375 C 3421.148438 3505.71875 3421.148438 3485.960938 3400.121094 3473.828125 C 3379.109375 3461.691406 3344.898438 3461.691406 3323.871094 3473.828125 Z M 3417.371094 3527.820312 C 3386.839844 3545.449219 3337.148438 3545.429688 3306.621094 3527.808594 C 3276.078125 3510.179688 3276.078125 3481.5 3306.609375 3463.871094 C 3337.148438 3446.238281 3386.839844 3446.238281 3417.371094 3463.871094 C 3447.898438 3481.488281 3447.898438 3510.191406 3417.371094 3527.820312 "/>
    <path fill-rule="nonzero" fill="rgb(77.885437%, 70.632935%, 43.624878%)" fill-opacity="1"
          d="M 3007.398438 3449.691406 L 2982.988281 3449.691406 L 2983.011719 3393.28125 L 2814.820312 3296.179688 L 2832.078125 3286.210938 L 3007.410156 3387.441406 L 3007.398438 3449.691406 "/>
    <path fill-rule="nonzero" fill="rgb(77.885437%, 70.632935%, 43.624878%)" fill-opacity="1"
          d="M 2957.101562 3465.339844 C 2936.070312 3477.488281 2936.070312 3497.238281 2957.078125 3509.371094 C 2978.101562 3521.5 3012.300781 3521.5 3033.328125 3509.359375 C 3054.351562 3497.230469 3054.339844 3477.480469 3033.328125 3465.351562 C 3012.320312 3453.21875 2978.109375 3453.21875 2957.101562 3465.339844 Z M 3050.589844 3519.320312 C 3020.058594 3536.949219 2970.359375 3536.960938 2939.828125 3519.328125 C 2909.289062 3501.699219 2909.308594 3473.011719 2939.839844 3455.378906 C 2970.378906 3437.761719 3020.050781 3437.761719 3050.589844 3455.378906 C 3081.121094 3473.011719 3081.121094 3501.691406 3050.589844 3519.320312 "/>
    <path fill-rule="nonzero" fill="rgb(77.885437%, 70.632935%, 43.624878%)" fill-opacity="1"
          d="M 4317.339844 3158.859375 L 4010.070312 3158.859375 L 3531.371094 2882.480469 L 3548.628906 2872.519531 L 4020.179688 3144.769531 L 4317.339844 3144.78125 L 4317.339844 3158.859375 "/>
    <path fill-rule="nonzero" fill="rgb(77.885437%, 70.632935%, 43.624878%)" fill-opacity="1"
          d="M 4343.859375 3130.519531 C 4322.851562 3142.648438 4322.851562 3162.398438 4343.859375 3174.53125 C 4364.878906 3186.660156 4399.078125 3186.660156 4420.101562 3174.53125 C 4441.109375 3162.398438 4441.109375 3142.648438 4420.089844 3130.519531 C 4399.078125 3118.378906 4364.871094 3118.378906 4343.859375 3130.519531 Z M 4437.351562 3184.488281 C 4406.820312 3202.121094 4357.140625 3202.121094 4326.609375 3184.488281 C 4296.078125 3166.859375 4296.078125 3138.179688 4326.609375 3120.550781 C 4357.140625 3102.921875 4406.820312 3102.921875 4437.351562 3120.558594 C 4467.878906 3138.179688 4467.878906 3166.859375 4437.351562 3184.488281 "/>
    <path fill-rule="nonzero" fill="rgb(77.885437%, 70.632935%, 43.624878%)" fill-opacity="1"
          d="M 3838.621094 2873.628906 L 3821.371094 2883.589844 L 3675.410156 2799.308594 L 3692.660156 2789.351562 L 3838.621094 2873.628906 "/>
    <path fill-rule="nonzero" fill="rgb(77.885437%, 70.632935%, 43.624878%)" fill-opacity="1"
          d="M 3838.621094 2883.589844 C 3817.609375 2895.71875 3817.609375 2915.46875 3838.621094 2927.601562 C 3859.640625 2939.730469 3893.839844 2939.730469 3914.859375 2927.601562 C 3935.871094 2915.46875 3935.871094 2895.71875 3914.859375 2883.589844 C 3893.839844 2871.449219 3859.640625 2871.449219 3838.621094 2883.589844 Z M 3932.109375 2937.570312 C 3901.578125 2955.191406 3851.910156 2955.191406 3821.371094 2937.570312 C 3790.839844 2919.929688 3790.839844 2891.25 3821.371094 2873.628906 C 3851.898438 2856 3901.578125 2856 3932.109375 2873.628906 C 3962.648438 2891.25 3962.648438 2919.941406 3932.109375 2937.570312 "/>
    <path fill-rule="nonzero" fill="rgb(77.885437%, 70.632935%, 43.624878%)" fill-opacity="1"
          d="M 4128 2885.039062 C 4106.988281 2897.171875 4106.988281 2916.921875 4128 2929.050781 C 4149.03125 2941.191406 4183.238281 2941.191406 4204.25 2929.058594 C 4225.269531 2916.929688 4225.269531 2897.179688 4204.230469 2885.039062 C 4183.21875 2872.910156 4149.011719 2872.910156 4128 2885.039062 Z M 4221.5 2939.03125 C 4190.96875 2956.648438 4141.28125 2956.640625 4110.75 2939.011719 C 4080.210938 2921.390625 4080.210938 2892.699219 4110.75 2875.078125 C 4141.28125 2857.449219 4190.949219 2857.449219 4221.488281 2875.078125 C 4252.019531 2892.699219 4252.039062 2921.398438 4221.5 2939.03125 "/>
    <path fill-rule="nonzero" fill="rgb(77.885437%, 70.632935%, 43.624878%)" fill-opacity="1"
          d="M 4126.550781 2875.910156 L 4109.300781 2885.878906 L 3817.390625 2717.339844 L 3834.640625 2707.378906 L 4126.550781 2875.910156 "/>
    <path fill-rule="nonzero" fill="rgb(77.885437%, 70.632935%, 43.624878%)" fill-opacity="1"
          d="M 3683.609375 3569.871094 C 3662.578125 3582.011719 3662.578125 3601.761719 3683.601562 3613.890625 C 3704.621094 3626.019531 3738.820312 3626.019531 3759.851562 3613.878906 C 3780.859375 3601.75 3780.859375 3582 3759.851562 3569.871094 C 3738.828125 3557.738281 3704.628906 3557.738281 3683.609375 3569.871094 Z M 3777.101562 3623.851562 C 3746.570312 3641.46875 3696.878906 3641.488281 3666.351562 3623.851562 C 3635.808594 3606.21875 3635.828125 3577.53125 3666.359375 3559.910156 C 3696.890625 3542.269531 3746.558594 3542.28125 3777.101562 3559.910156 C 3807.640625 3577.539062 3807.640625 3606.21875 3777.101562 3623.851562 "/>
    <path fill-rule="nonzero" fill="rgb(77.885437%, 70.632935%, 43.624878%)" fill-opacity="1"
          d="M 3683.609375 3559.910156 L 3666.359375 3569.871094 L 3390.039062 3410.328125 L 3390.019531 3297.019531 L 3101.691406 3130.550781 L 3118.941406 3120.589844 L 3414.421875 3291.191406 L 3414.441406 3404.5 L 3683.609375 3559.910156 "/>
    <path fill-rule="nonzero" fill="rgb(77.885437%, 70.632935%, 43.624878%)" fill-opacity="1"
          d="M 4150.488281 3397.570312 C 4129.480469 3409.699219 4129.480469 3429.449219 4150.488281 3441.578125 C 4171.519531 3453.71875 4205.730469 3453.71875 4226.738281 3441.589844 C 4247.75 3429.460938 4247.75 3409.710938 4226.730469 3397.570312 C 4205.710938 3385.441406 4171.511719 3385.441406 4150.488281 3397.570312 Z M 4244 3451.550781 C 4213.460938 3469.179688 4163.769531 3469.171875 4133.238281 3451.539062 C 4102.710938 3433.910156 4102.699219 3405.238281 4133.238281 3387.609375 C 4163.769531 3369.980469 4213.441406 3369.980469 4243.980469 3387.609375 C 4274.511719 3405.238281 4274.53125 3433.921875 4244 3451.550781 "/>
    <path fill-rule="nonzero" fill="rgb(77.885437%, 70.632935%, 43.624878%)" fill-opacity="1"
          d="M 4150.488281 3387.609375 L 4133.238281 3397.570312 L 3276.03125 2902.660156 L 3293.289062 2892.699219 L 4150.488281 3387.609375 "/>
    <path fill-rule="nonzero" fill="rgb(73.439026%, 73.887634%, 74.09668%)" fill-opacity="1"
          d="M 1135.171875 2536.871094 L 1053.210938 2489.550781 L 1119 2451.578125 L 1200.949219 2498.898438 L 1135.171875 2536.871094 "/>
    <path fill-rule="nonzero" fill="rgb(73.439026%, 73.887634%, 74.09668%)" fill-opacity="1"
          d="M 1196.648438 2572.371094 L 1262.429688 2534.390625 L 1344.390625 2581.710938 L 1278.609375 2619.691406 L 1196.648438 2572.371094 "/>
    <path fill-rule="nonzero" fill="rgb(73.439026%, 73.887634%, 74.09668%)" fill-opacity="1"
          d="M 1340.078125 2655.179688 L 1405.859375 2617.199219 L 1487.828125 2664.519531 L 1422.039062 2702.5 L 1340.078125 2655.179688 "/>
    <path fill-rule="nonzero" fill="rgb(73.439026%, 73.887634%, 74.09668%)" fill-opacity="1"
          d="M 1483.511719 2737.988281 L 1549.300781 2700.011719 L 1631.261719 2747.328125 L 1565.480469 2785.308594 L 1483.511719 2737.988281 "/>
    <path fill-rule="nonzero" fill="rgb(73.439026%, 73.887634%, 74.09668%)" fill-opacity="1"
          d="M 1626.949219 2820.800781 L 1692.730469 2782.828125 L 1774.691406 2830.140625 L 1708.910156 2868.121094 L 1626.949219 2820.800781 "/>
    <path fill-rule="nonzero" fill="rgb(73.439026%, 73.887634%, 74.09668%)" fill-opacity="1"
          d="M 1770.390625 2903.609375 L 1836.171875 2865.628906 L 1918.128906 2912.960938 L 1852.351562 2950.941406 L 1770.390625 2903.609375 "/>
    <path fill-rule="nonzero" fill="rgb(73.439026%, 73.887634%, 74.09668%)" fill-opacity="1"
          d="M 1913.820312 2986.429688 L 1979.601562 2948.441406 L 2061.570312 2995.761719 L 1995.78125 3033.75 L 1913.820312 2986.429688 "/>
    <path fill-rule="nonzero" fill="rgb(73.439026%, 73.887634%, 74.09668%)" fill-opacity="1"
          d="M 2057.25 3069.238281 L 2123.039062 3031.261719 L 2205 3078.578125 L 2139.210938 3116.558594 L 2057.25 3069.238281 "/>
    <path fill-rule="nonzero" fill="rgb(73.439026%, 73.887634%, 74.09668%)" fill-opacity="1"
          d="M 2200.691406 3152.050781 L 2282.648438 3199.371094 L 2348.441406 3161.390625 L 2266.480469 3114.070312 L 2200.691406 3152.050781 "/>
    <path fill-rule="nonzero" fill="rgb(77.885437%, 70.632935%, 43.624878%)" fill-opacity="1"
          d="M 945.570312 2658.359375 L 842.785156 2599.019531 L 1042.800781 2483.550781 L 1145.578125 2542.890625 L 945.570312 2658.359375 "/>
    <path fill-rule="nonzero" fill="rgb(77.885437%, 70.632935%, 43.624878%)" fill-opacity="1"
          d="M 1089 2741.179688 L 986.226562 2681.839844 L 1186.238281 2566.359375 L 1289.011719 2625.699219 L 1089 2741.179688 "/>
    <path fill-rule="nonzero" fill="rgb(77.885437%, 70.632935%, 43.624878%)" fill-opacity="1"
          d="M 1232.429688 2823.988281 L 1129.660156 2764.640625 L 1329.671875 2649.171875 L 1432.449219 2708.511719 L 1232.429688 2823.988281 "/>
    <path fill-rule="nonzero" fill="rgb(77.885437%, 70.632935%, 43.624878%)" fill-opacity="1"
          d="M 1375.871094 2906.789062 L 1273.089844 2847.460938 L 1473.101562 2731.980469 L 1575.890625 2791.320312 L 1375.871094 2906.789062 "/>
    <path fill-rule="nonzero" fill="rgb(77.885437%, 70.632935%, 43.624878%)" fill-opacity="1"
          d="M 1519.308594 2989.609375 L 1416.519531 2930.269531 L 1616.539062 2814.789062 L 1719.320312 2874.128906 L 1519.308594 2989.609375 "/>
    <path fill-rule="nonzero" fill="rgb(77.885437%, 70.632935%, 43.624878%)" fill-opacity="1"
          d="M 1662.738281 3072.421875 L 1559.960938 3013.089844 L 1759.980469 2897.601562 L 1862.761719 2956.949219 L 1662.738281 3072.421875 "/>
    <path fill-rule="nonzero" fill="rgb(77.885437%, 70.632935%, 43.624878%)" fill-opacity="1"
          d="M 1806.179688 3155.238281 L 1703.398438 3095.890625 L 1903.410156 2980.421875 L 2006.191406 3039.75 L 1806.179688 3155.238281 "/>
    <path fill-rule="nonzero" fill="rgb(77.885437%, 70.632935%, 43.624878%)" fill-opacity="1"
          d="M 1949.609375 3238.039062 L 1846.828125 3178.710938 L 2046.851562 3063.230469 L 2149.621094 3122.570312 L 1949.609375 3238.039062 "/>
    <path fill-rule="nonzero" fill="rgb(77.885437%, 70.632935%, 43.624878%)" fill-opacity="1"
          d="M 2093.039062 3320.859375 L 1990.269531 3261.519531 L 2190.28125 3146.039062 L 2293.058594 3205.378906 L 2093.039062 3320.859375 "/>
    <path fill-rule="nonzero" fill="rgb(77.885437%, 70.632935%, 43.624878%)" fill-opacity="1"
          d="M 556.65625 2771.261719 L 556.65625 2757.171875 L 654.390625 2757.171875 L 885.5625 2623.710938 L 902.816406 2633.671875 L 664.5 2771.261719 L 556.65625 2771.261719 "/>
    <path fill-rule="nonzero" fill="rgb(77.885437%, 70.632935%, 43.624878%)" fill-opacity="1"
          d="M 529.546875 2742.210938 C 508.53125 2730.070312 474.324219 2730.070312 453.3125 2742.210938 C 432.28125 2754.339844 432.28125 2774.101562 453.296875 2786.21875 C 474.328125 2798.371094 508.53125 2798.371094 529.5625 2786.21875 C 550.578125 2774.101562 550.578125 2754.339844 529.546875 2742.210938 Z M 436.039062 2796.191406 C 405.507812 2778.558594 405.523438 2749.871094 436.058594 2732.238281 C 466.589844 2714.609375 516.265625 2714.609375 546.796875 2732.25 C 577.332031 2749.871094 577.351562 2778.558594 546.8125 2796.191406 C 516.285156 2813.808594 466.574219 2813.808594 436.039062 2796.191406 "/>
    <path fill-rule="nonzero" fill="rgb(77.885437%, 70.632935%, 43.624878%)" fill-opacity="1"
          d="M 1042.710938 3410.398438 L 1042.710938 3396.320312 L 1140.441406 3396.320312 L 1244.28125 3336.371094 L 1244.28125 3243.230469 L 1601.441406 3037.019531 L 1618.691406 3046.980469 L 1268.679688 3249.070312 L 1268.679688 3342.210938 L 1150.558594 3410.398438 L 1042.710938 3410.398438 "/>
    <path fill-rule="nonzero" fill="rgb(77.885437%, 70.632935%, 43.624878%)" fill-opacity="1"
          d="M 1015.601562 3381.339844 C 994.589844 3369.210938 960.378906 3369.210938 939.367188 3381.339844 C 918.339844 3393.480469 918.339844 3413.238281 939.351562 3425.371094 C 960.386719 3437.511719 994.589844 3437.511719 1015.621094 3425.371094 C 1036.628906 3413.238281 1036.628906 3393.488281 1015.601562 3381.339844 Z M 922.09375 3435.328125 C 891.5625 3417.699219 891.582031 3389.011719 922.109375 3371.378906 C 952.644531 3353.75 1002.320312 3353.75 1032.859375 3371.378906 C 1063.390625 3389.011719 1063.410156 3417.699219 1032.871094 3435.328125 C 1002.339844 3452.960938 952.632812 3452.960938 922.09375 3435.328125 "/>
    <path fill-rule="nonzero" fill="rgb(77.885437%, 70.632935%, 43.624878%)" fill-opacity="1"
          d="M 1558.5 3473.808594 L 1541.238281 3463.851562 L 1651.28125 3400.320312 L 1651.289062 3340.988281 L 1889.601562 3203.398438 L 1906.859375 3213.359375 L 1675.691406 3346.828125 L 1675.671875 3406.160156 L 1558.5 3473.808594 "/>
    <path fill-rule="nonzero" fill="rgb(77.885437%, 70.632935%, 43.624878%)" fill-opacity="1"
          d="M 1541.238281 3473.808594 C 1520.230469 3461.679688 1486.019531 3461.679688 1465.011719 3473.808594 C 1443.980469 3485.949219 1443.980469 3505.699219 1464.988281 3517.839844 C 1486.019531 3529.96875 1520.230469 3529.96875 1541.261719 3517.839844 C 1562.269531 3505.699219 1562.269531 3485.960938 1541.238281 3473.808594 Z M 1447.738281 3527.800781 C 1417.199219 3510.171875 1417.230469 3481.480469 1447.75 3463.851562 C 1478.28125 3446.21875 1527.960938 3446.21875 1558.5 3463.851562 C 1589.03125 3481.480469 1589.050781 3510.171875 1558.519531 3527.800781 C 1527.980469 3545.429688 1478.28125 3545.429688 1447.738281 3527.800781 "/>
    <path fill-rule="nonzero" fill="rgb(77.885437%, 70.632935%, 43.624878%)" fill-opacity="1"
          d="M 1734.398438 3520.871094 L 1734.421875 3458.621094 L 2033.039062 3286.210938 L 2050.289062 3296.171875 L 1758.820312 3464.460938 L 1758.800781 3520.871094 L 1734.398438 3520.871094 "/>
    <path fill-rule="nonzero" fill="rgb(77.885437%, 70.632935%, 43.624878%)" fill-opacity="1"
          d="M 1784.730469 3536.519531 C 1763.71875 3524.390625 1729.511719 3524.390625 1708.480469 3536.539062 C 1687.46875 3548.671875 1687.46875 3568.421875 1708.480469 3580.550781 C 1729.5 3592.679688 1763.710938 3592.679688 1784.71875 3580.550781 C 1805.75 3568.398438 1805.75 3548.648438 1784.730469 3536.519531 Z M 1691.230469 3590.511719 C 1660.699219 3572.878906 1660.699219 3544.199219 1691.230469 3526.570312 C 1721.761719 3508.949219 1771.460938 3508.941406 1801.988281 3526.558594 C 1832.53125 3544.191406 1832.511719 3572.878906 1801.96875 3590.511719 C 1771.441406 3608.140625 1721.769531 3608.140625 1691.230469 3590.511719 "/>
    <path fill-rule="nonzero" fill="rgb(77.885437%, 70.632935%, 43.624878%)" fill-opacity="1"
          d="M 300.832031 3346.648438 L 300.8125 3284.390625 L 542.695312 3144.738281 L 844.929688 3144.738281 L 1316.46875 2872.5 L 1333.730469 2882.460938 L 855.039062 3158.828125 L 552.808594 3158.820312 L 325.210938 3290.230469 L 325.226562 3346.648438 L 300.832031 3346.648438 "/>
    <path fill-rule="nonzero" fill="rgb(77.885437%, 70.632935%, 43.624878%)" fill-opacity="1"
          d="M 351.140625 3362.308594 C 330.113281 3350.171875 295.910156 3350.171875 274.894531 3362.300781 C 253.882812 3374.429688 253.882812 3394.179688 274.914062 3406.320312 C 295.929688 3418.460938 330.132812 3418.460938 351.148438 3406.320312 C 372.160156 3394.191406 372.160156 3374.441406 351.140625 3362.308594 Z M 257.660156 3416.28125 C 227.125 3398.648438 227.109375 3369.96875 257.640625 3352.339844 C 288.175781 3334.710938 337.867188 3334.71875 368.398438 3352.351562 C 398.933594 3369.980469 398.933594 3398.660156 368.398438 3416.289062 C 337.867188 3433.910156 288.191406 3433.910156 257.660156 3416.28125 "/>
    <path fill-rule="nonzero" fill="rgb(77.885437%, 70.632935%, 43.624878%)" fill-opacity="1"
          d="M 707.546875 3015.390625 L 707.546875 3001.308594 L 805.257812 3001.320312 L 1172.429688 2789.328125 L 1189.679688 2799.300781 L 815.371094 3015.410156 L 707.546875 3015.390625 "/>
    <path fill-rule="nonzero" fill="rgb(77.885437%, 70.632935%, 43.624878%)" fill-opacity="1"
          d="M 680.414062 2986.339844 C 659.402344 2974.21875 625.191406 2974.21875 604.183594 2986.339844 C 583.167969 2998.480469 583.167969 3018.230469 604.183594 3030.359375 C 625.210938 3042.5 659.417969 3042.5 680.429688 3030.371094 C 701.445312 3018.238281 701.445312 2998.488281 680.414062 2986.339844 Z M 586.929688 3040.320312 C 556.394531 3022.691406 556.394531 2994.011719 586.929688 2976.378906 C 617.460938 2958.761719 667.132812 2958.761719 697.671875 2976.378906 C 728.199219 2994.011719 728.222656 3022.699219 697.6875 3040.328125 C 667.152344 3057.960938 617.460938 3057.949219 586.929688 3040.320312 "/>
    <path fill-rule="nonzero" fill="rgb(77.885437%, 70.632935%, 43.624878%)" fill-opacity="1"
          d="M 352.820312 2995.230469 C 331.808594 2983.101562 297.601562 2983.101562 276.585938 2995.230469 C 255.578125 3007.359375 255.578125 3027.109375 276.585938 3039.238281 C 297.601562 3051.371094 331.8125 3051.371094 352.820312 3039.238281 C 373.835938 3027.109375 373.835938 3007.359375 352.820312 2995.230469 Z M 259.332031 3049.199219 C 228.804688 3031.570312 228.804688 3002.890625 259.332031 2985.261719 C 289.867188 2967.640625 339.542969 2967.640625 370.074219 2985.261719 C 400.613281 3002.890625 400.613281 3031.570312 370.074219 3049.199219 C 339.542969 3066.828125 289.867188 3066.828125 259.332031 3049.199219 "/>
    <path fill-rule="nonzero" fill="rgb(77.885437%, 70.632935%, 43.624878%)" fill-opacity="1"
          d="M 370.074219 2995.230469 L 352.820312 2985.261719 L 545.839844 2873.820312 L 742.117188 2873.820312 L 1030.441406 2707.359375 L 1047.699219 2717.320312 L 752.226562 2887.910156 L 555.953125 2887.910156 L 370.074219 2995.230469 "/>
    <path fill-rule="nonzero" fill="rgb(77.885437%, 70.632935%, 43.624878%)" fill-opacity="1"
          d="M 1181.519531 3569.851562 C 1160.511719 3557.710938 1126.300781 3557.710938 1105.28125 3569.851562 C 1084.269531 3581.980469 1084.269531 3601.730469 1105.28125 3613.859375 C 1126.308594 3626 1160.519531 3626 1181.53125 3613.871094 C 1202.550781 3601.738281 1202.550781 3581.988281 1181.519531 3569.851562 Z M 1088.03125 3623.828125 C 1057.488281 3606.199219 1057.488281 3577.519531 1088.03125 3559.890625 C 1118.558594 3542.261719 1168.238281 3542.261719 1198.769531 3559.890625 C 1229.300781 3577.519531 1229.320312 3606.210938 1198.789062 3623.839844 C 1168.261719 3641.46875 1118.570312 3641.449219 1088.03125 3623.828125 "/>
    <path fill-rule="nonzero" fill="rgb(77.885437%, 70.632935%, 43.624878%)" fill-opacity="1"
          d="M 1198.769531 3569.851562 L 1181.519531 3559.890625 L 1450.679688 3404.488281 L 1450.699219 3291.171875 L 1746.171875 3120.578125 L 1763.429688 3130.539062 L 1475.101562 3297.011719 L 1475.089844 3410.320312 L 1198.769531 3569.851562 "/>
    <path fill-rule="nonzero" fill="rgb(77.885437%, 70.632935%, 43.624878%)" fill-opacity="1"
          d="M 606.34375 3345.71875 C 585.335938 3333.601562 551.128906 3333.601562 530.097656 3345.730469 C 509.089844 3357.859375 509.089844 3377.609375 530.097656 3389.75 C 551.109375 3401.878906 585.324219 3401.878906 606.332031 3389.75 C 627.359375 3377.609375 627.359375 3357.859375 606.34375 3345.71875 Z M 512.84375 3399.710938 C 482.3125 3382.078125 482.3125 3353.398438 512.84375 3335.769531 C 543.371094 3318.140625 593.070312 3318.140625 623.605469 3335.761719 C 654.136719 3353.390625 654.121094 3382.078125 623.582031 3399.710938 C 593.054688 3417.339844 543.378906 3417.339844 512.84375 3399.710938 "/>
    <path fill-rule="nonzero" fill="rgb(77.885437%, 70.632935%, 43.624878%)" fill-opacity="1"
          d="M 623.605469 3345.71875 L 606.34375 3335.761719 L 799.371094 3224.320312 L 995.632812 3224.328125 L 1460.75 2955.789062 L 1478.011719 2965.761719 L 1005.738281 3238.421875 L 809.476562 3238.410156 L 623.605469 3345.71875 "/>
    <path fill-rule="nonzero" fill="rgb(31.486511%, 32.087708%, 33.692932%)" fill-opacity="1"
          d="M 2432.558594 3010.710938 L 1034.871094 2203.761719 L 2432.511719 1396.828125 L 3830.191406 2203.789062 L 2432.558594 3010.710938 "/>
    <g clip-path="url(#clip-0)">
        <g clip-path="url(#clip-1)">
            <g clip-path="url(#clip-2)">
                <path fill-rule="nonzero" fill="url(#linear-pattern-0)"
                      d="M 1064.78125 1374.25 L 1064.78125 2953.601562 L 3800.289062 2953.601562 L 3800.289062 1374.25 Z M 1064.78125 1374.25 "/>
            </g>
        </g>
    </g>
    <path fill-rule="nonzero" fill="rgb(31.486511%, 32.087708%, 33.692932%)" fill-opacity="1"
          d="M 1034.871094 2203.761719 L 1034.871094 2403.011719 L 2432.558594 3209.960938 L 2432.558594 3010.710938 L 1034.871094 2203.761719 "/>
    <path fill-rule="nonzero" fill="rgb(23.184204%, 22.517395%, 23.757935%)" fill-opacity="1"
          d="M 3830.191406 2203.789062 L 3830.191406 2403.03125 L 2432.558594 3209.960938 L 2432.558594 3010.710938 L 3830.191406 2203.789062 "/>
    <path fill-rule="nonzero" fill="rgb(73.439026%, 73.887634%, 74.09668%)" fill-opacity="1"
          d="M 1135.171875 2417.328125 L 1053.210938 2370 L 1119 2332.019531 L 1200.949219 2379.351562 L 1135.171875 2417.328125 "/>
    <path fill-rule="nonzero" fill="rgb(64.468384%, 65.219116%, 66.108704%)" fill-opacity="1"
          d="M 1053.210938 2370 L 1053.210938 2489.550781 L 1135.171875 2536.871094 L 1135.171875 2417.328125 L 1053.210938 2370 "/>
    <path fill-rule="nonzero" fill="rgb(55.886841%, 57.044983%, 58.320618%)" fill-opacity="1"
          d="M 1200.949219 2379.351562 L 1200.949219 2498.898438 L 1135.171875 2536.871094 L 1135.171875 2417.328125 L 1200.949219 2379.351562 "/>
    <path fill-rule="nonzero" fill="rgb(73.439026%, 73.887634%, 74.09668%)" fill-opacity="1"
          d="M 1196.648438 2452.820312 L 1262.429688 2414.839844 L 1344.390625 2462.160156 L 1278.609375 2500.140625 L 1196.648438 2452.820312 "/>
    <path fill-rule="nonzero" fill="rgb(64.468384%, 65.219116%, 66.108704%)" fill-opacity="1"
          d="M 1278.609375 2500.140625 L 1278.609375 2619.691406 L 1196.648438 2572.371094 L 1196.648438 2452.820312 L 1278.609375 2500.140625 "/>
    <path fill-rule="nonzero" fill="rgb(55.886841%, 57.044983%, 58.320618%)" fill-opacity="1"
          d="M 1344.390625 2462.160156 L 1344.390625 2581.710938 L 1278.609375 2619.691406 L 1278.609375 2500.140625 L 1344.390625 2462.160156 "/>
    <path fill-rule="nonzero" fill="rgb(73.439026%, 73.887634%, 74.09668%)" fill-opacity="1"
          d="M 1340.078125 2535.628906 L 1405.859375 2497.648438 L 1487.828125 2544.96875 L 1422.039062 2582.949219 L 1340.078125 2535.628906 "/>
    <path fill-rule="nonzero" fill="rgb(64.468384%, 65.219116%, 66.108704%)" fill-opacity="1"
          d="M 1422.039062 2582.949219 L 1422.039062 2702.5 L 1340.078125 2655.179688 L 1340.078125 2535.628906 L 1422.039062 2582.949219 "/>
    <path fill-rule="nonzero" fill="rgb(55.886841%, 57.044983%, 58.320618%)" fill-opacity="1"
          d="M 1487.828125 2544.96875 L 1487.828125 2664.519531 L 1422.039062 2702.5 L 1422.039062 2582.949219 L 1487.828125 2544.96875 "/>
    <path fill-rule="nonzero" fill="rgb(73.439026%, 73.887634%, 74.09668%)" fill-opacity="1"
          d="M 1483.511719 2618.449219 L 1549.300781 2580.460938 L 1631.261719 2627.78125 L 1565.480469 2665.769531 L 1483.511719 2618.449219 "/>
    <path fill-rule="nonzero" fill="rgb(64.468384%, 65.219116%, 66.108704%)" fill-opacity="1"
          d="M 1565.480469 2665.769531 L 1565.480469 2785.308594 L 1483.511719 2737.988281 L 1483.511719 2618.449219 L 1565.480469 2665.769531 "/>
    <path fill-rule="nonzero" fill="rgb(55.886841%, 57.044983%, 58.320618%)" fill-opacity="1"
          d="M 1631.261719 2627.78125 L 1631.261719 2747.328125 L 1565.480469 2785.308594 L 1565.480469 2665.769531 L 1631.261719 2627.78125 "/>
    <path fill-rule="nonzero" fill="rgb(73.439026%, 73.887634%, 74.09668%)" fill-opacity="1"
          d="M 1626.949219 2701.25 L 1692.730469 2663.269531 L 1774.691406 2710.589844 L 1708.910156 2748.570312 L 1626.949219 2701.25 "/>
    <path fill-rule="nonzero" fill="rgb(64.468384%, 65.219116%, 66.108704%)" fill-opacity="1"
          d="M 1708.910156 2748.570312 L 1708.910156 2868.121094 L 1626.949219 2820.800781 L 1626.949219 2701.25 L 1708.910156 2748.570312 "/>
    <path fill-rule="nonzero" fill="rgb(55.886841%, 57.044983%, 58.320618%)" fill-opacity="1"
          d="M 1774.691406 2710.589844 L 1774.691406 2830.140625 L 1708.910156 2868.121094 L 1708.910156 2748.570312 L 1774.691406 2710.589844 "/>
    <path fill-rule="nonzero" fill="rgb(73.439026%, 73.887634%, 74.09668%)" fill-opacity="1"
          d="M 1770.390625 2784.058594 L 1836.171875 2746.089844 L 1918.128906 2793.410156 L 1852.351562 2831.378906 L 1770.390625 2784.058594 "/>
    <path fill-rule="nonzero" fill="rgb(64.468384%, 65.219116%, 66.108704%)" fill-opacity="1"
          d="M 1852.351562 2831.378906 L 1852.351562 2950.941406 L 1770.390625 2903.609375 L 1770.390625 2784.058594 L 1852.351562 2831.378906 "/>
    <path fill-rule="nonzero" fill="rgb(55.886841%, 57.044983%, 58.320618%)" fill-opacity="1"
          d="M 1918.128906 2793.410156 L 1918.128906 2912.960938 L 1852.351562 2950.941406 L 1852.351562 2831.378906 L 1918.128906 2793.410156 "/>
    <path fill-rule="nonzero" fill="rgb(73.439026%, 73.887634%, 74.09668%)" fill-opacity="1"
          d="M 1913.820312 2866.878906 L 1979.601562 2828.898438 L 2061.570312 2876.21875 L 1995.78125 2914.199219 L 1913.820312 2866.878906 "/>
    <path fill-rule="nonzero" fill="rgb(64.468384%, 65.219116%, 66.108704%)" fill-opacity="1"
          d="M 1995.78125 2914.199219 L 1995.78125 3033.75 L 1913.820312 2986.429688 L 1913.820312 2866.878906 L 1995.78125 2914.199219 "/>
    <path fill-rule="nonzero" fill="rgb(55.886841%, 57.044983%, 58.320618%)" fill-opacity="1"
          d="M 2061.570312 2876.21875 L 2061.570312 2995.761719 L 1995.78125 3033.75 L 1995.78125 2914.199219 L 2061.570312 2876.21875 "/>
    <path fill-rule="nonzero" fill="rgb(73.439026%, 73.887634%, 74.09668%)" fill-opacity="1"
          d="M 2057.25 2949.691406 L 2123.039062 2911.710938 L 2205 2959.03125 L 2139.210938 2997.011719 L 2057.25 2949.691406 "/>
    <path fill-rule="nonzero" fill="rgb(64.468384%, 65.219116%, 66.108704%)" fill-opacity="1"
          d="M 2139.210938 2997.011719 L 2139.210938 3116.558594 L 2057.25 3069.238281 L 2057.25 2949.691406 L 2139.210938 2997.011719 "/>
    <path fill-rule="nonzero" fill="rgb(55.886841%, 57.044983%, 58.320618%)" fill-opacity="1"
          d="M 2205 2959.03125 L 2205 3078.578125 L 2139.210938 3116.558594 L 2139.210938 2997.011719 L 2205 2959.03125 "/>
    <path fill-rule="nonzero" fill="rgb(73.439026%, 73.887634%, 74.09668%)" fill-opacity="1"
          d="M 2200.691406 3032.5 L 2282.648438 3079.820312 L 2348.441406 3041.839844 L 2266.480469 2994.519531 L 2200.691406 3032.5 "/>
    <path fill-rule="nonzero" fill="rgb(64.468384%, 65.219116%, 66.108704%)" fill-opacity="1"
          d="M 2282.648438 3079.820312 L 2282.648438 3199.371094 L 2200.691406 3152.050781 L 2200.691406 3032.5 L 2282.648438 3079.820312 "/>
    <path fill-rule="nonzero" fill="rgb(55.886841%, 57.044983%, 58.320618%)" fill-opacity="1"
          d="M 2348.441406 3041.839844 L 2348.441406 3161.390625 L 2282.648438 3199.371094 L 2282.648438 3079.820312 L 2348.441406 3041.839844 "/>
    <path fill-rule="nonzero" fill="rgb(73.439026%, 73.887634%, 74.09668%)" fill-opacity="1"
          d="M 3729.941406 2417.328125 L 3811.898438 2370.011719 L 3746.109375 2332.03125 L 3664.148438 2379.351562 L 3729.941406 2417.328125 "/>
    <path fill-rule="nonzero" fill="rgb(64.468384%, 65.219116%, 66.108704%)" fill-opacity="1"
          d="M 3811.898438 2370.011719 L 3811.898438 2489.550781 L 3729.941406 2536.871094 L 3729.941406 2417.328125 L 3811.898438 2370.011719 "/>
    <path fill-rule="nonzero" fill="rgb(55.886841%, 57.044983%, 58.320618%)" fill-opacity="1"
          d="M 3664.148438 2379.351562 L 3664.148438 2498.898438 L 3729.941406 2536.871094 L 3729.941406 2417.328125 L 3664.148438 2379.351562 "/>
    <path fill-rule="nonzero" fill="rgb(73.439026%, 73.887634%, 74.09668%)" fill-opacity="1"
          d="M 3668.460938 2452.820312 L 3586.5 2500.140625 L 3520.71875 2462.160156 L 3602.679688 2414.839844 L 3668.460938 2452.820312 "/>
    <path fill-rule="nonzero" fill="rgb(64.468384%, 65.219116%, 66.108704%)" fill-opacity="1"
          d="M 3586.5 2500.140625 L 3668.460938 2452.820312 L 3668.460938 2572.371094 L 3586.5 2619.691406 L 3586.5 2500.140625 "/>
    <path fill-rule="nonzero" fill="rgb(55.886841%, 57.044983%, 58.320618%)" fill-opacity="1"
          d="M 3520.71875 2462.160156 L 3520.71875 2581.710938 L 3586.5 2619.691406 L 3586.5 2500.140625 L 3520.71875 2462.160156 "/>
    <path fill-rule="nonzero" fill="rgb(73.439026%, 73.887634%, 74.09668%)" fill-opacity="1"
          d="M 3525.03125 2535.628906 L 3443.058594 2582.949219 L 3377.28125 2544.96875 L 3459.238281 2497.648438 L 3525.03125 2535.628906 "/>
    <path fill-rule="nonzero" fill="rgb(64.468384%, 65.219116%, 66.108704%)" fill-opacity="1"
          d="M 3443.058594 2582.949219 L 3525.03125 2535.628906 L 3525.03125 2655.179688 L 3443.058594 2702.5 L 3443.058594 2582.949219 "/>
    <path fill-rule="nonzero" fill="rgb(55.886841%, 57.044983%, 58.320618%)" fill-opacity="1"
          d="M 3377.28125 2544.96875 L 3377.28125 2664.519531 L 3443.058594 2702.5 L 3443.058594 2582.949219 L 3377.28125 2544.96875 "/>
    <path fill-rule="nonzero" fill="rgb(73.439026%, 73.887634%, 74.09668%)" fill-opacity="1"
          d="M 3381.589844 2618.449219 L 3299.628906 2665.769531 L 3233.851562 2627.78125 L 3315.808594 2580.460938 L 3381.589844 2618.449219 "/>
    <path fill-rule="nonzero" fill="rgb(64.468384%, 65.219116%, 66.108704%)" fill-opacity="1"
          d="M 3299.628906 2665.769531 L 3381.589844 2618.449219 L 3381.589844 2737.988281 L 3299.628906 2785.320312 L 3299.628906 2665.769531 "/>
    <path fill-rule="nonzero" fill="rgb(55.886841%, 57.044983%, 58.320618%)" fill-opacity="1"
          d="M 3233.851562 2627.78125 L 3233.851562 2747.328125 L 3299.628906 2785.320312 L 3299.628906 2665.769531 L 3233.851562 2627.78125 "/>
    <path fill-rule="nonzero" fill="rgb(73.439026%, 73.887634%, 74.09668%)" fill-opacity="1"
          d="M 3238.160156 2701.25 L 3156.191406 2748.578125 L 3090.410156 2710.601562 L 3172.378906 2663.269531 L 3238.160156 2701.25 "/>
    <path fill-rule="nonzero" fill="rgb(64.468384%, 65.219116%, 66.108704%)" fill-opacity="1"
          d="M 3156.191406 2748.578125 L 3238.160156 2701.25 L 3238.160156 2820.800781 L 3156.191406 2868.121094 L 3156.191406 2748.578125 "/>
    <path fill-rule="nonzero" fill="rgb(55.886841%, 57.044983%, 58.320618%)" fill-opacity="1"
          d="M 3090.410156 2710.601562 L 3090.410156 2830.140625 L 3156.191406 2868.121094 L 3156.191406 2748.578125 L 3090.410156 2710.601562 "/>
    <path fill-rule="nonzero" fill="rgb(73.439026%, 73.887634%, 74.09668%)" fill-opacity="1"
          d="M 3094.71875 2784.058594 L 3012.761719 2831.378906 L 2946.980469 2793.410156 L 3028.941406 2746.089844 L 3094.71875 2784.058594 "/>
    <path fill-rule="nonzero" fill="rgb(64.468384%, 65.219116%, 66.108704%)" fill-opacity="1"
          d="M 3012.761719 2831.378906 L 3094.71875 2784.058594 L 3094.71875 2903.621094 L 3012.761719 2950.941406 L 3012.761719 2831.378906 "/>
    <path fill-rule="nonzero" fill="rgb(55.886841%, 57.044983%, 58.320618%)" fill-opacity="1"
          d="M 2946.980469 2793.410156 L 2946.980469 2912.960938 L 3012.761719 2950.941406 L 3012.761719 2831.378906 L 2946.980469 2793.410156 "/>
    <path fill-rule="nonzero" fill="rgb(73.439026%, 73.887634%, 74.09668%)" fill-opacity="1"
          d="M 2951.289062 2866.878906 L 2869.328125 2914.199219 L 2803.539062 2876.21875 L 2885.5 2828.898438 L 2951.289062 2866.878906 "/>
    <path fill-rule="nonzero" fill="rgb(64.468384%, 65.219116%, 66.108704%)" fill-opacity="1"
          d="M 2869.328125 2914.199219 L 2951.289062 2866.878906 L 2951.289062 2986.429688 L 2869.328125 3033.75 L 2869.328125 2914.199219 "/>
    <path fill-rule="nonzero" fill="rgb(55.886841%, 57.044983%, 58.320618%)" fill-opacity="1"
          d="M 2803.539062 2876.21875 L 2803.539062 2995.769531 L 2869.328125 3033.75 L 2869.328125 2914.199219 L 2803.539062 2876.21875 "/>
    <path fill-rule="nonzero" fill="rgb(73.439026%, 73.887634%, 74.09668%)" fill-opacity="1"
          d="M 2807.851562 2949.699219 L 2725.890625 2997.011719 L 2660.101562 2959.03125 L 2742.070312 2911.710938 L 2807.851562 2949.699219 "/>
    <path fill-rule="nonzero" fill="rgb(64.468384%, 65.219116%, 66.108704%)" fill-opacity="1"
          d="M 2725.890625 2997.011719 L 2807.851562 2949.699219 L 2807.851562 3069.238281 L 2725.890625 3116.558594 L 2725.890625 2997.011719 "/>
    <path fill-rule="nonzero" fill="rgb(55.886841%, 57.044983%, 58.320618%)" fill-opacity="1"
          d="M 2660.101562 2959.03125 L 2660.101562 3078.578125 L 2725.890625 3116.558594 L 2725.890625 2997.011719 L 2660.101562 2959.03125 "/>
    <path fill-rule="nonzero" fill="rgb(73.439026%, 73.887634%, 74.09668%)" fill-opacity="1"
          d="M 2664.421875 3032.5 L 2582.460938 3079.828125 L 2516.671875 3041.851562 L 2598.628906 2994.519531 L 2664.421875 3032.5 "/>
    <path fill-rule="nonzero" fill="rgb(64.468384%, 65.219116%, 66.108704%)" fill-opacity="1"
          d="M 2582.460938 3079.828125 L 2582.460938 3199.371094 L 2664.421875 3152.050781 L 2664.421875 3032.5 L 2582.460938 3079.828125 "/>
    <path fill-rule="nonzero" fill="rgb(55.886841%, 57.044983%, 58.320618%)" fill-opacity="1"
          d="M 2516.671875 3041.851562 L 2516.671875 3161.390625 L 2582.460938 3199.371094 L 2582.460938 3079.828125 L 2516.671875 3041.851562 "/>
    <path fill-rule="nonzero" fill="rgb(39.900208%, 40.753174%, 42.81311%)" fill-opacity="1"
          d="M 1064.78125 2163.910156 L 1034.871094 2203.761719 L 2432.558594 3010.710938 L 2432.558594 2953.601562 L 1064.78125 2163.910156 "/>
    <path fill-rule="nonzero" fill="rgb(39.900208%, 40.753174%, 42.81311%)" fill-opacity="1"
          d="M 3800.289062 2163.929688 L 3830.191406 2203.789062 L 2432.558594 3010.710938 L 2432.558594 2953.601562 L 3800.289062 2163.929688 "/>
</svg>
