<?xml version="1.0" encoding="UTF-8" standalone="no"?>
<svg
        xmlns:dc="http://purl.org/dc/elements/1.1/"
        xmlns:cc="http://creativecommons.org/ns#"
        xmlns:rdf="http://www.w3.org/1999/02/22-rdf-syntax-ns#"
        xmlns:svg="http://www.w3.org/2000/svg"
        xmlns="http://www.w3.org/2000/svg"
        viewBox="0 0 6016.2935 3650.6667"
        height="3650.6667"
        width="6016.2935"
        xml:space="preserve"
        id="svg2"
        version="1.1"><metadata
     id="metadata8"><rdf:RDF><cc:Work
         rdf:about=""><dc:format>image/svg+xml</dc:format><dc:type
        rdf:resource="http://purl.org/dc/dcmitype/StillImage"/></cc:Work></rdf:RDF></metadata>
    <defs
            id="defs6"/>
    <g
            transform="matrix(1.3333333,0,0,-1.3333333,0,3650.6667)"
            id="g10"><g
       transform="scale(0.1)"
       id="g12"><g
         transform="scale(2.76822)"
         id="g14"><path
           id="path16"
           style="fill:#100f0d;fill-opacity:1;fill-rule:nonzero;stroke:none"
           d="M 1036.16,1059.13 H 16070.4 V 8900.6 H 1036.16 Z M 16300.1,829.487 H 806.537 V 9130.22 H 16300.1 V 829.487" /></g><g
            transform="scale(2.6644)"
            id="g18"><path
           id="path20"
           style="fill:#100f0d;fill-opacity:1;fill-rule:nonzero;stroke:none"
           d="m 13499.8,7798.11 c -1428.9,0 -2591.4,-1162.5 -2591.4,-2591.43 0,-1428.91 1162.5,-2591.39 2591.4,-2591.39 1428.9,0 2591.4,1162.48 2591.4,2591.39 0,1428.93 -1162.5,2591.43 -2591.4,2591.43 z m 0,-5391.57 c -377.9,0 -744.7,74.05 -1089.9,220.09 -333.5,141.04 -632.9,342.93 -890.1,600.06 -257.1,257.13 -459,556.56 -600,890.03 -146.1,345.29 -220.1,712.01 -220.1,1089.96 0,377.98 74,744.7 220.1,1090 141,333.45 342.9,632.91 600,890.03 257.2,257.13 556.6,459.02 890.1,600.06 345.2,146.04 712,220.09 1089.9,220.09 378,0 744.7,-74.05 1090,-220.09 333.5,-141.04 632.9,-342.93 890.1,-600.06 257.1,-257.12 459,-556.58 600,-890.03 146,-345.3 220.1,-712.02 220.1,-1090 0,-377.95 -74.1,-744.67 -220.1,-1089.96 -141,-333.47 -342.9,-632.9 -600,-890.03 -257.2,-257.13 -556.6,-459.02 -890.1,-600.06 -345.3,-146.04 -712,-220.09 -1090,-220.09" /></g><g
            transform="scale(2.32953)"
            id="g22"><path
           id="path24"
           style="fill:#100f0d;fill-opacity:1;fill-rule:nonzero;stroke:none"
           d="m 15440.5,6541.84 c -323.5,0 -586.7,-263.18 -586.7,-586.68 0,-323.46 263.2,-586.65 586.7,-586.65 323.5,0 586.6,263.19 586.6,586.65 0,323.5 -263.1,586.68 -586.6,586.68 z m 0,-1446.17 c -473.9,0 -859.5,385.57 -859.5,859.49 0,473.96 385.6,859.53 859.5,859.53 473.9,0 859.5,-385.57 859.5,-859.53 0,-473.92 -385.6,-859.49 -859.5,-859.49" /></g><g
            transform="scale(2.27166)"
            id="g26"><path
           id="path28"
           style="fill:#100f0d;fill-opacity:1;fill-rule:nonzero;stroke:none"
           d="m 16090.8,6813.75 -223.2,93.85 c 250.9,596.53 201.8,1143.47 -145.6,1625.66 -265.2,367.95 -613.4,560.82 -616.9,562.73 l 115.6,212.71 c 15.9,-8.65 394.1,-216.63 692,-626.18 177.1,-243.32 289,-507.38 332.8,-784.83 54.5,-345.49 2.4,-710.2 -154.7,-1083.94" /></g><g
            transform="scale(2.16298)"
            id="g30"><path
           id="path32"
           style="fill:#100f0d;fill-opacity:1;fill-rule:nonzero;stroke:none"
           d="m 16064.6,7029.3 c -256.7,629.32 -699.3,999.08 -1315.4,1099.14 -470.2,76.34 -872,-39.03 -876,-40.21 l -72.2,243.82 c 18.3,5.42 453.6,131.79 979.1,48.94 312.1,-49.22 591.4,-162.18 829.9,-335.73 297,-216.14 529.2,-525.62 690,-919.89 l -235.4,-96.07" /></g><g
            transform="scale(2.10964)"
            id="g34"><path
           id="path36"
           style="fill:#100f0d;fill-opacity:1;fill-rule:nonzero;stroke:none"
           d="m 13842.5,5787.39 -229.1,124.48 c 9.4,17.2 233.3,424.34 674.3,745.24 262,190.65 546.4,311.19 845.1,358.31 372.1,58.68 764.8,2.61 1167.2,-166.66 l -101.1,-240.28 c -642.3,270.09 -1231.3,217.33 -1750.5,-156.85 -396.2,-285.5 -603.8,-660.5 -605.9,-664.24" /></g><g
            transform="scale(2.12647)"
            id="g38"><path
           id="path40"
           style="fill:#100f0d;fill-opacity:1;fill-rule:nonzero;stroke:none"
           d="m 14974.9,3643.18 c -5.5,18.58 -134.1,461.33 -49.8,995.78 50.1,317.57 165,601.57 341.5,844.22 219.8,302.15 534.6,538.26 935.7,701.87 l 97.7,-239.46 c -640.1,-261.09 -1016.2,-711.27 -1118,-1337.99 -77.6,-478.26 39.7,-887.01 40.9,-891.06 l -248,-73.36" /></g><g
            transform="scale(2.3102)"
            id="g42"><path
           id="path44"
           style="fill:#100f0d;fill-opacity:1;fill-rule:nonzero;stroke:none"
           d="m 16186.3,2863.47 c -15.7,8.53 -387.5,213.01 -680.5,615.75 -174.1,239.24 -284.2,498.92 -327.2,771.71 -53.6,339.75 -2.4,698.38 152.2,1065.88 l 219.4,-92.29 c -246.6,-586.57 -198.5,-1124.4 143.2,-1598.56 260.7,-361.79 603.2,-551.47 606.6,-553.33 l -113.7,-209.16" /></g><g
            transform="scale(2.58396)"
            id="g46"><path
           id="path48"
           style="fill:#100f0d;fill-opacity:1;fill-rule:nonzero;stroke:none"
           d="m 15786.9,3704.71 c -94.9,0 -198.4,6.46 -306.4,23.49 -261.3,41.21 -495,135.76 -694.7,281.04 -248.7,180.92 -443,439.98 -577.6,770.02 l 197,80.38 c 214.9,-526.75 585.4,-836.31 1101.2,-920.02 393.5,-63.9 729.9,32.66 733.2,33.63 l 60.4,-204.07 c -11.5,-3.44 -221.8,-64.47 -513.1,-64.47" /></g><g
            transform="scale(2.6534)"
            id="g50"><path
           id="path52"
           style="fill:#100f0d;fill-opacity:1;fill-rule:nonzero;stroke:none"
           d="m 14861.7,4866.93 c -225.9,0 -459.6,50.27 -697.7,150.37 l 80.3,191.08 c 510.7,-214.78 979,-172.8 1391.8,124.7 315,227 480.2,525.11 481.8,528.12 l 182.1,-98.97 c -7.4,-13.68 -185.5,-337.41 -536.1,-592.52 -208.3,-151.58 -434.4,-247.42 -671.9,-284.88 -75.8,-11.95 -152.6,-17.9 -230.3,-17.9" /></g><g
            transform="scale(2.47922)"
            id="g54"><path
           id="path56"
           style="fill:#100f0d;fill-opacity:1;fill-rule:nonzero;stroke:none"
           d="m 15132.3,5892.62 -83.8,205.39 c 549,223.94 871.6,610.07 958.9,1147.63 66.6,410.19 -34.1,760.77 -35.1,764.26 l 212.7,62.92 c 4.7,-15.94 115,-395.68 42.7,-854.12 -42.9,-272.36 -141.5,-515.95 -292.9,-724.08 -188.6,-259.15 -458.6,-461.72 -802.5,-602" /></g><g
            transform="scale(1.67975)"
            id="g58"><path
           id="path60"
           style="fill:#100f0d;fill-opacity:1;fill-rule:nonzero;stroke:none"
           d="M 1523.1,0 H 1144.69 V 15921.6 H 0 V 16300 H 1523.1 V 0" /></g><g
            transform="scale(1.69556)"
            id="g62"><path
           id="path64"
           style="fill:#100f0d;fill-opacity:1;fill-rule:nonzero;stroke:none"
           d="M 4003.91,620.62 H 15986.7 V 1394.4 H 4003.91 Z M 16300,307.215 H 3690.53 V 1707.75 H 16300 V 307.215" /></g><path
            id="path66"
            style="fill:#100f0d;fill-opacity:1;fill-rule:nonzero;stroke:none"
            d="M 7627.63,778.703 H 7309.81 V 1811.6 h 317.82 V 778.703"/><path
            id="path68"
            style="fill:#100f0d;fill-opacity:1;fill-rule:nonzero;stroke:none"
            d="M 8414.22,770.703 H 8096.41 V 1803.6 h 317.81 V 770.703"/><path
            id="path70"
            style="fill:#100f0d;fill-opacity:1;fill-rule:nonzero;stroke:none"
            d="M 9200.82,762.801 H 8883.01 V 1795.7 h 317.81 V 762.801"/><path
            id="path72"
            style="fill:#100f0d;fill-opacity:1;fill-rule:nonzero;stroke:none"
            d="M 9987.42,754.801 H 9669.6 V 1787.7 h 317.82 V 754.801"/><path
            id="path74"
            style="fill:#100f0d;fill-opacity:1;fill-rule:nonzero;stroke:none"
            d="m 10774,746.898 h -317.8 V 1779.8 H 10774 V 746.898"/><path
            id="path76"
            style="fill:#100f0d;fill-opacity:1;fill-rule:nonzero;stroke:none"
            d="m 11560.6,738.898 h -317.8 V 1771.8 h 317.8 V 738.898"/><path
            id="path78"
            style="fill:#100f0d;fill-opacity:1;fill-rule:nonzero;stroke:none"
            d="m 12347.2,731 h -317.8 v 1032.9 h 317.8 V 731"/><path
            id="path80"
            style="fill:#100f0d;fill-opacity:1;fill-rule:nonzero;stroke:none"
            d="M 13133.8,723 H 12816 v 1032.9 h 317.8 V 723"/><path
            id="path82"
            style="fill:#100f0d;fill-opacity:1;fill-rule:nonzero;stroke:none"
            d="m 13920.4,715.102 h -317.8 V 1748 h 317.8 V 715.102"/><path
            id="path84"
            style="fill:#100f0d;fill-opacity:1;fill-rule:nonzero;stroke:none"
            d="m 14707,707.102 h -317.8 V 1740 H 14707 V 707.102"/><path
            id="path86"
            style="fill:#100f0d;fill-opacity:1;fill-rule:nonzero;stroke:none"
            d="m 15493.6,699.199 h -317.8 V 1732.1 h 317.8 V 699.199"/><path
            id="path88"
            style="fill:#100f0d;fill-opacity:1;fill-rule:nonzero;stroke:none"
            d="m 16280.2,691.203 h -317.8 V 1724.2 h 317.8 V 691.203"/><g
            transform="scale(1.04704)"
            id="g90"><path
           id="path92"
           style="fill:#100f0d;fill-opacity:1;fill-rule:nonzero;stroke:none"
           d="m 16300,652.601 h -303.5 V 1639.1 H 16300 V 652.601" /></g><g
            transform="scale(1.0953)"
            id="g94"><path
           id="path96"
           style="fill:#100f0d;fill-opacity:1;fill-rule:nonzero;stroke:none"
           d="m 16300,616.636 h -290.1 V 1559.66 H 16300 V 616.636" /></g><g
            transform="scale(1.14356)"
            id="g98"><path
           id="path100"
           style="fill:#100f0d;fill-opacity:1;fill-rule:nonzero;stroke:none"
           d="m 16300,583.619 h -277.9 V 1486.85 H 16300 V 583.619" /></g><g
            transform="scale(1.19182)"
            id="g102"><path
           id="path104"
           style="fill:#100f0d;fill-opacity:1;fill-rule:nonzero;stroke:none"
           d="m 16300,553.357 h -266.7 V 1420.02 H 16300 V 553.357" /></g><g
            transform="scale(1.24007)"
            id="g106"><path
           id="path108"
           style="fill:#100f0d;fill-opacity:1;fill-rule:nonzero;stroke:none"
           d="m 16300,525.372 h -256.3 V 1358.31 H 16300 V 525.372" /></g><g
            transform="scale(1.28833)"
            id="g110"><path
           id="path112"
           style="fill:#100f0d;fill-opacity:1;fill-rule:nonzero;stroke:none"
           d="m 16300,499.562 h -246.7 V 1301.3 H 16300 V 499.562" /></g><g
            transform="scale(1.33659)"
            id="g114"><path
           id="path116"
           style="fill:#100f0d;fill-opacity:1;fill-rule:nonzero;stroke:none"
           d="m 16300,475.54 h -237.8 v 772.79 H 16300 V 475.54" /></g><g
            transform="scale(1.38485)"
            id="g118"><path
           id="path120"
           style="fill:#100f0d;fill-opacity:1;fill-rule:nonzero;stroke:none"
           d="m 16300,453.263 h -229.5 V 1199.12 H 16300 V 453.263" /></g><g
            transform="scale(1.4331)"
            id="g122"><path
           id="path124"
           style="fill:#100f0d;fill-opacity:1;fill-rule:nonzero;stroke:none"
           d="m 16300,432.417 h -221.8 V 1153.23 H 16300 V 432.417" /></g><g
            transform="scale(1.48136)"
            id="g126"><path
           id="path128"
           style="fill:#100f0d;fill-opacity:1;fill-rule:nonzero;stroke:none"
           d="m 16300,412.999 h -214.5 V 1110.26 H 16300 V 412.999" /></g><g
            transform="scale(1.52962)"
            id="g130"><path
           id="path132"
           style="fill:#100f0d;fill-opacity:1;fill-rule:nonzero;stroke:none"
           d="m 16300,394.803 h -207.8 V 1070.07 H 16300 V 394.803" /></g><g
            transform="scale(1.57788)"
            id="g134"><path
           id="path136"
           style="fill:#100f0d;fill-opacity:1;fill-rule:nonzero;stroke:none"
           d="m 16300,377.661 h -201.4 V 1032.27 H 16300 V 377.661" /></g><g
            transform="scale(1.62613)"
            id="g138"><path
           id="path140"
           style="fill:#100f0d;fill-opacity:1;fill-rule:nonzero;stroke:none"
           d="m 16300,361.594 h -195.4 V 996.782 H 16300 V 361.594" /></g><g
            transform="scale(1.41117)"
            id="g142"><path
           id="path144"
           style="fill:#100f0d;fill-opacity:1;fill-rule:nonzero;stroke:none"
           d="M 681.281,13124.5 H 1537.1 v 2725.1 H 681.281 Z M 1987.53,12674 H 230.845 v 3626 H 1987.53 v -3626" /></g><path
            id="path146"
            style="fill:#100f0d;fill-opacity:1;fill-rule:nonzero;stroke:none"
            d="M 961.402,6110 H 2169.11 V 9955.6 H 961.402 Z M 2804.74,5474.4 H 325.762 v 5116.9 H 2804.74 V 5474.4"/><g
            transform="scale(1.3517)"
            id="g148"><path
           id="path150"
           style="fill:#100f0d;fill-opacity:1;fill-rule:nonzero;stroke:none"
           d="M 6436.54,6718.65 H 15829.8 V 13231.6 H 6436.54 Z M 16300,6248.43 H 5966.28 V 13701.9 H 16300 V 6248.43" /></g><g
            transform="scale(1.03923)"
            id="g152"><path
           id="path154"
           style="fill:#100f0d;fill-opacity:1;fill-rule:nonzero;stroke:none"
           d="m 12500.5,10670.8 c -238.6,-129.8 -715.7,-320 -1272.3,-320 -623.8,0 -1137.7,224.8 -1541.34,769.6 -354.76,484.2 -574.97,1262.5 -574.97,2170.4 0,1738.1 850.17,3009.2 2232.51,3009.2 477.1,0 856.3,-147 1033.8,-268.1 l -134.6,-613.9 c -220.2,146.9 -495.5,250.8 -911.4,250.8 -1003.1,0 -1657.57,-882 -1657.57,-2343.4 0,-1478.7 623.87,-2352 1590.27,-2352 348.7,0 587.2,69.2 709.5,155.6 v 1738.1 h -831.9 v 605.2 h 1358 v -2801.5" /></g><g
            transform="scale(1.03813)"
            id="g156"><path
           id="path158"
           style="fill:#100f0d;fill-opacity:1;fill-rule:nonzero;stroke:none"
           d="m 13854.6,13374.2 c 116.4,-43.3 263.3,-60.6 440.8,-60.6 643,0 1034.9,450.1 1034.9,1237.9 0,779 -391.9,1151.3 -973.6,1151.3 -232.6,0 -410.3,-26 -502.1,-60.6 z m -532.6,2813.3 c 257,60.6 593.8,112.5 1022.5,112.5 526.6,0 912.3,-173.1 1157.2,-484.7 220.4,-277.1 361.3,-701.2 361.3,-1220.6 0,-528 -110.2,-943.5 -318.4,-1246.5 -287.8,-424.2 -740.9,-640.5 -1261.4,-640.5 -159.1,0 -306.1,8.6 -428.6,51.9 V 10422.4 H 13322 v 5765.1" /></g><g
            transform="scale(1.24934)"
            id="g160"><path
           id="path162"
           style="fill:#100f0d;fill-opacity:1;fill-rule:nonzero;stroke:none"
           d="m 14219.1,13508.4 v -2877.2 c 0,-1078.9 340.9,-1539.3 798.7,-1539.3 503.7,0 834.4,474.8 834.4,1539.3 v 2877.2 h 447.8 v -2834 c 0,-1488.94 -554.6,-2093.17 -1297.4,-2093.17 -702.1,0 -1231.3,561.01 -1231.3,2071.57 v 2855.6 h 447.8" /></g><g
            transform="scale(1.40532)"
            id="g164"><path
           id="path166"
           style="fill:#100f0d;fill-opacity:1;fill-rule:nonzero;stroke:none"
           d="m 6530.18,14502.1 h 2872.17 v 1345.6 H 6530.18 Z m 3324.45,-452.3 H 6077.87 V 16300 h 3776.76 v -2250.2" /></g><g
            transform="scale(1.40532)"
            id="g168"><path
           id="path170"
           style="fill:#100f0d;fill-opacity:1;fill-rule:nonzero;stroke:none"
           d="m 11109.8,14083.7 h 1549.1 v 1161.9 c 0,332 -270,602.1 -602.1,602.1 h -947 z m 2001.5,-452.3 H 10657.5 V 16300 h 1399.3 c 581.5,0 1054.5,-473 1054.5,-1054.4 v -1614.2" /></g><g
            transform="scale(1.3478)"
            id="g172"><path
           id="path174"
           style="fill:#100f0d;fill-opacity:1;fill-rule:nonzero;stroke:none"
           d="M 6278.29,3708.03 H 15828.3 V 4769.17 H 6278.29 Z M 16300,3236.45 H 5806.68 v 2004.3 H 16300 v -2004.3" /></g><g
            transform="scale(2.58642)"
            id="g176"><path
           id="path178"
           style="fill:#100f0d;fill-opacity:1;fill-rule:nonzero;stroke:none"
           d="m 11913.8,374.842 h 4238.6 V 903.178 H 11913.8 Z M 16300,227.264 H 11766.2 V 1050.76 H 16300 V 227.264" /></g><g
            transform="scale(1.94648)"
            id="g180"><path
           id="path182"
           style="fill:#100f0d;fill-opacity:1;fill-rule:nonzero;stroke:none"
           d="m 16300,347.036 h -163.3 v 530.65 h 163.3 v -530.65" /></g><g
            transform="scale(1.99474)"
            id="g184"><path
           id="path186"
           style="fill:#100f0d;fill-opacity:1;fill-rule:nonzero;stroke:none"
           d="m 16300,334.681 h -159.3 v 517.81 h 159.3 v -517.81" /></g><g
            transform="scale(2.043)"
            id="g188"><path
           id="path190"
           style="fill:#100f0d;fill-opacity:1;fill-rule:nonzero;stroke:none"
           d="m 16300,322.859 h -155.6 V 828.438 H 16300 V 322.859" /></g><g
            transform="scale(2.09126)"
            id="g192"><path
           id="path194"
           style="fill:#100f0d;fill-opacity:1;fill-rule:nonzero;stroke:none"
           d="m 16300,311.63 h -152 v 493.915 h 152 V 311.63" /></g><g
            transform="scale(2.13952)"
            id="g196"><path
           id="path198"
           style="fill:#100f0d;fill-opacity:1;fill-rule:nonzero;stroke:none"
           d="m 16300,300.864 h -148.5 V 783.682 H 16300 V 300.864" /></g><g
            transform="scale(2.18777)"
            id="g200"><path
           id="path202"
           style="fill:#100f0d;fill-opacity:1;fill-rule:nonzero;stroke:none"
           d="m 16300,290.616 h -145.3 V 762.741 H 16300 V 290.616" /></g><g
            transform="scale(2.23603)"
            id="g204"><path
           id="path206"
           style="fill:#100f0d;fill-opacity:1;fill-rule:nonzero;stroke:none"
           d="m 16300,280.811 h -142.1 V 742.745 H 16300 V 280.811" /></g><g
            transform="scale(2.28429)"
            id="g208"><path
           id="path210"
           style="fill:#100f0d;fill-opacity:1;fill-rule:nonzero;stroke:none"
           d="m 16300,271.377 h -139.2 V 723.552 H 16300 V 271.377" /></g><g
            transform="scale(2.33255)"
            id="g212"><path
           id="path214"
           style="fill:#100f0d;fill-opacity:1;fill-rule:nonzero;stroke:none"
           d="m 16300,262.374 h -136.2 V 705.196 H 16300 V 262.374" /></g><g
            transform="scale(2.3808)"
            id="g216"><path
           id="path218"
           style="fill:#100f0d;fill-opacity:1;fill-rule:nonzero;stroke:none"
           d="m 16300,253.696 h -133.5 V 687.54 H 16300 V 253.696" /></g><g
            transform="scale(2.42906)"
            id="g220"><path
           id="path222"
           style="fill:#100f0d;fill-opacity:1;fill-rule:nonzero;stroke:none"
           d="m 16300,245.404 h -130.8 V 670.629 H 16300 V 245.404" /></g><g
            transform="scale(2.47732)"
            id="g224"><path
           id="path226"
           style="fill:#100f0d;fill-opacity:1;fill-rule:nonzero;stroke:none"
           d="m 16300,237.394 h -128.3 V 654.336 H 16300 V 237.394" /></g><g
            transform="scale(2.52558)"
            id="g228"><path
           id="path230"
           style="fill:#100f0d;fill-opacity:1;fill-rule:nonzero;stroke:none"
           d="m 16300,229.729 h -125.9 V 638.706 H 16300 V 229.729" /></g></g></g></svg>