<?xml version="1.0" encoding="UTF-8"?>
<svg xmlns="http://www.w3.org/2000/svg" xmlns:xlink="http://www.w3.org/1999/xlink" width="2000" height="2000"
     viewBox="0 0 2000 2000">
    <defs>
        <clipPath id="clip-0">
            <path clip-rule="nonzero" d="M 742 962 L 1197 962 L 1197 1317 L 742 1317 Z M 742 962 "/>
        </clipPath>
        <clipPath id="clip-1">
            <path clip-rule="nonzero"
                  d="M 1186.578125 962.570312 C 1186.578125 962.570312 1178.371094 1004.710938 1047.390625 1047.660156 C 957.039062 1077.289062 929.773438 1179.5 921.554688 1240.070312 C 912.335938 1200.878906 891.082031 1152.851562 842.054688 1136.78125 C 754.441406 1108.050781 748.945312 1079.859375 748.945312 1079.859375 C 748.945312 1079.859375 693.445312 1319.648438 909.492188 1316.800781 C 909.492188 1316.800781 833.152344 1283.921875 812.6875 1205.941406 C 812.6875 1205.941406 858.621094 1285.828125 928.601562 1296.289062 C 1027.5 1274.828125 1091.289062 1151.058594 1091.289062 1151.058594 C 1060.699219 1267.640625 946.574219 1316.789062 946.574219 1316.789062 C 1269.550781 1321.039062 1186.578125 962.570312 1186.578125 962.570312 Z M 1186.578125 962.570312 "/>
        </clipPath>
        <clipPath id="clip-2">
            <path clip-rule="nonzero"
                  d="M 1186.578125 962.570312 C 1186.578125 962.570312 1178.371094 1004.710938 1047.390625 1047.660156 C 957.039062 1077.289062 929.773438 1179.5 921.554688 1240.070312 C 912.335938 1200.878906 891.082031 1152.851562 842.054688 1136.78125 C 754.441406 1108.050781 748.945312 1079.859375 748.945312 1079.859375 C 748.945312 1079.859375 693.445312 1319.648438 909.492188 1316.800781 C 909.492188 1316.800781 833.152344 1283.921875 812.6875 1205.941406 C 812.6875 1205.941406 858.621094 1285.828125 928.601562 1296.289062 C 1027.5 1274.828125 1091.289062 1151.058594 1091.289062 1151.058594 C 1060.699219 1267.640625 946.574219 1316.789062 946.574219 1316.789062 C 1269.550781 1321.039062 1186.578125 962.570312 1186.578125 962.570312 "/>
        </clipPath>
        <linearGradient id="linear-pattern-0" gradientUnits="userSpaceOnUse" x1="-0.108261" y1="0" x2="1.161838" y2="0"
                        gradientTransform="matrix(453.589, 0, 0, 453.589, 742.553, 1139.7)">
            <stop offset="0" stop-color="rgb(49.804688%, 79.940796%, 15.745544%)" stop-opacity="1"/>
            <stop offset="0.0625" stop-color="rgb(49.804688%, 79.940796%, 15.745544%)" stop-opacity="1"/>
            <stop offset="0.09375" stop-color="rgb(49.726868%, 79.917908%, 15.769958%)" stop-opacity="1"/>
            <stop offset="0.101562" stop-color="rgb(49.514771%, 79.855347%, 15.837097%)" stop-opacity="1"/>
            <stop offset="0.109375" stop-color="rgb(49.247742%, 79.774475%, 15.919495%)" stop-opacity="1"/>
            <stop offset="0.117188" stop-color="rgb(48.982239%, 79.696655%, 16.003418%)" stop-opacity="1"/>
            <stop offset="0.125" stop-color="rgb(48.71521%, 79.615784%, 16.087341%)" stop-opacity="1"/>
            <stop offset="0.132812" stop-color="rgb(48.449707%, 79.537964%, 16.171265%)" stop-opacity="1"/>
            <stop offset="0.140625" stop-color="rgb(48.184204%, 79.458618%, 16.253662%)" stop-opacity="1"/>
            <stop offset="0.148438" stop-color="rgb(47.917175%, 79.379272%, 16.337585%)" stop-opacity="1"/>
            <stop offset="0.15625" stop-color="rgb(47.651672%, 79.299927%, 16.421509%)" stop-opacity="1"/>
            <stop offset="0.164062" stop-color="rgb(47.384644%, 79.220581%, 16.505432%)" stop-opacity="1"/>
            <stop offset="0.171875" stop-color="rgb(47.119141%, 79.141235%, 16.58783%)" stop-opacity="1"/>
            <stop offset="0.179688" stop-color="rgb(46.853638%, 79.06189%, 16.671753%)" stop-opacity="1"/>
            <stop offset="0.1875" stop-color="rgb(46.586609%, 78.982544%, 16.755676%)" stop-opacity="1"/>
            <stop offset="0.195312" stop-color="rgb(46.321106%, 78.903198%, 16.838074%)" stop-opacity="1"/>
            <stop offset="0.203125" stop-color="rgb(46.054077%, 78.823853%, 16.921997%)" stop-opacity="1"/>
            <stop offset="0.210937" stop-color="rgb(45.788574%, 78.744507%, 17.00592%)" stop-opacity="1"/>
            <stop offset="0.21875" stop-color="rgb(45.521545%, 78.665161%, 17.089844%)" stop-opacity="1"/>
            <stop offset="0.226562" stop-color="rgb(45.256042%, 78.585815%, 17.172241%)" stop-opacity="1"/>
            <stop offset="0.234375" stop-color="rgb(44.99054%, 78.50647%, 17.256165%)" stop-opacity="1"/>
            <stop offset="0.242188" stop-color="rgb(44.723511%, 78.427124%, 17.340088%)" stop-opacity="1"/>
            <stop offset="0.25" stop-color="rgb(44.458008%, 78.347778%, 17.422485%)" stop-opacity="1"/>
            <stop offset="0.257812" stop-color="rgb(44.190979%, 78.268433%, 17.506409%)" stop-opacity="1"/>
            <stop offset="0.265625" stop-color="rgb(43.925476%, 78.189087%, 17.590332%)" stop-opacity="1"/>
            <stop offset="0.273438" stop-color="rgb(43.659973%, 78.109741%, 17.672729%)" stop-opacity="1"/>
            <stop offset="0.28125" stop-color="rgb(43.392944%, 78.030396%, 17.756653%)" stop-opacity="1"/>
            <stop offset="0.289062" stop-color="rgb(43.127441%, 77.95105%, 17.840576%)" stop-opacity="1"/>
            <stop offset="0.296875" stop-color="rgb(42.860413%, 77.871704%, 17.9245%)" stop-opacity="1"/>
            <stop offset="0.304688" stop-color="rgb(42.59491%, 77.792358%, 18.006897%)" stop-opacity="1"/>
            <stop offset="0.3125" stop-color="rgb(42.329407%, 77.713013%, 18.09082%)" stop-opacity="1"/>
            <stop offset="0.320312" stop-color="rgb(42.062378%, 77.633667%, 18.174744%)" stop-opacity="1"/>
            <stop offset="0.328125" stop-color="rgb(41.796875%, 77.554321%, 18.257141%)" stop-opacity="1"/>
            <stop offset="0.335938" stop-color="rgb(41.529846%, 77.474976%, 18.341064%)" stop-opacity="1"/>
            <stop offset="0.34375" stop-color="rgb(41.264343%, 77.39563%, 18.424988%)" stop-opacity="1"/>
            <stop offset="0.351562" stop-color="rgb(40.99884%, 77.316284%, 18.507385%)" stop-opacity="1"/>
            <stop offset="0.359375" stop-color="rgb(40.731812%, 77.236938%, 18.591309%)" stop-opacity="1"/>
            <stop offset="0.367187" stop-color="rgb(40.466309%, 77.157593%, 18.675232%)" stop-opacity="1"/>
            <stop offset="0.375" stop-color="rgb(40.19928%, 77.078247%, 18.759155%)" stop-opacity="1"/>
            <stop offset="0.382813" stop-color="rgb(39.933777%, 76.998901%, 18.841553%)" stop-opacity="1"/>
            <stop offset="0.390625" stop-color="rgb(39.668274%, 76.921082%, 18.925476%)" stop-opacity="1"/>
            <stop offset="0.398438" stop-color="rgb(39.401245%, 76.84021%, 19.009399%)" stop-opacity="1"/>
            <stop offset="0.40625" stop-color="rgb(39.135742%, 76.76239%, 19.091797%)" stop-opacity="1"/>
            <stop offset="0.414062" stop-color="rgb(38.868713%, 76.681519%, 19.17572%)" stop-opacity="1"/>
            <stop offset="0.421875" stop-color="rgb(38.60321%, 76.603699%, 19.259644%)" stop-opacity="1"/>
            <stop offset="0.429688" stop-color="rgb(38.336182%, 76.522827%, 19.343567%)" stop-opacity="1"/>
            <stop offset="0.4375" stop-color="rgb(38.070679%, 76.445007%, 19.425964%)" stop-opacity="1"/>
            <stop offset="0.445312" stop-color="rgb(37.805176%, 76.365662%, 19.509888%)" stop-opacity="1"/>
            <stop offset="0.453125" stop-color="rgb(37.538147%, 76.286316%, 19.593811%)" stop-opacity="1"/>
            <stop offset="0.460938" stop-color="rgb(37.272644%, 76.20697%, 19.676208%)" stop-opacity="1"/>
            <stop offset="0.46875" stop-color="rgb(37.005615%, 76.127625%, 19.760132%)" stop-opacity="1"/>
            <stop offset="0.476563" stop-color="rgb(36.740112%, 76.048279%, 19.844055%)" stop-opacity="1"/>
            <stop offset="0.484375" stop-color="rgb(36.474609%, 75.968933%, 19.926453%)" stop-opacity="1"/>
            <stop offset="0.492188" stop-color="rgb(36.207581%, 75.889587%, 20.010376%)" stop-opacity="1"/>
            <stop offset="0.5" stop-color="rgb(35.942078%, 75.810242%, 20.094299%)" stop-opacity="1"/>
            <stop offset="0.507812" stop-color="rgb(35.675049%, 75.730896%, 20.178223%)" stop-opacity="1"/>
            <stop offset="0.515625" stop-color="rgb(35.409546%, 75.65155%, 20.26062%)" stop-opacity="1"/>
            <stop offset="0.523438" stop-color="rgb(35.144043%, 75.572205%, 20.344543%)" stop-opacity="1"/>
            <stop offset="0.53125" stop-color="rgb(34.877014%, 75.492859%, 20.428467%)" stop-opacity="1"/>
            <stop offset="0.539062" stop-color="rgb(34.611511%, 75.413513%, 20.510864%)" stop-opacity="1"/>
            <stop offset="0.546875" stop-color="rgb(34.344482%, 75.334167%, 20.594788%)" stop-opacity="1"/>
            <stop offset="0.554687" stop-color="rgb(34.078979%, 75.254822%, 20.678711%)" stop-opacity="1"/>
            <stop offset="0.5625" stop-color="rgb(33.813477%, 75.175476%, 20.762634%)" stop-opacity="1"/>
            <stop offset="0.570312" stop-color="rgb(33.546448%, 75.09613%, 20.845032%)" stop-opacity="1"/>
            <stop offset="0.578125" stop-color="rgb(33.280945%, 75.016785%, 20.928955%)" stop-opacity="1"/>
            <stop offset="0.585938" stop-color="rgb(33.013916%, 74.937439%, 21.012878%)" stop-opacity="1"/>
            <stop offset="0.59375" stop-color="rgb(32.748413%, 74.858093%, 21.096802%)" stop-opacity="1"/>
            <stop offset="0.601562" stop-color="rgb(32.48291%, 74.778748%, 21.179199%)" stop-opacity="1"/>
            <stop offset="0.609375" stop-color="rgb(32.215881%, 74.699402%, 21.263123%)" stop-opacity="1"/>
            <stop offset="0.617188" stop-color="rgb(31.950378%, 74.620056%, 21.347046%)" stop-opacity="1"/>
            <stop offset="0.625" stop-color="rgb(31.68335%, 74.54071%, 21.429443%)" stop-opacity="1"/>
            <stop offset="0.632812" stop-color="rgb(31.417847%, 74.461365%, 21.513367%)" stop-opacity="1"/>
            <stop offset="0.640625" stop-color="rgb(31.152344%, 74.382019%, 21.59729%)" stop-opacity="1"/>
            <stop offset="0.648437" stop-color="rgb(30.885315%, 74.302673%, 21.681213%)" stop-opacity="1"/>
            <stop offset="0.65625" stop-color="rgb(30.619812%, 74.223328%, 21.763611%)" stop-opacity="1"/>
            <stop offset="0.664063" stop-color="rgb(30.352783%, 74.143982%, 21.847534%)" stop-opacity="1"/>
            <stop offset="0.671875" stop-color="rgb(30.08728%, 74.064636%, 21.931458%)" stop-opacity="1"/>
            <stop offset="0.679688" stop-color="rgb(29.820251%, 73.985291%, 22.015381%)" stop-opacity="1"/>
            <stop offset="0.6875" stop-color="rgb(29.554749%, 73.905945%, 22.097778%)" stop-opacity="1"/>
            <stop offset="0.695312" stop-color="rgb(29.289246%, 73.828125%, 22.181702%)" stop-opacity="1"/>
            <stop offset="0.703125" stop-color="rgb(29.022217%, 73.747253%, 22.265625%)" stop-opacity="1"/>
            <stop offset="0.710938" stop-color="rgb(28.756714%, 73.669434%, 22.348022%)" stop-opacity="1"/>
            <stop offset="0.71875" stop-color="rgb(28.489685%, 73.588562%, 22.431946%)" stop-opacity="1"/>
            <stop offset="0.726562" stop-color="rgb(28.224182%, 73.510742%, 22.515869%)" stop-opacity="1"/>
            <stop offset="0.734375" stop-color="rgb(27.958679%, 73.431396%, 22.598267%)" stop-opacity="1"/>
            <stop offset="0.742187" stop-color="rgb(27.69165%, 73.352051%, 22.68219%)" stop-opacity="1"/>
            <stop offset="0.75" stop-color="rgb(27.426147%, 73.272705%, 22.766113%)" stop-opacity="1"/>
            <stop offset="0.757813" stop-color="rgb(27.159119%, 73.193359%, 22.850037%)" stop-opacity="1"/>
            <stop offset="0.765625" stop-color="rgb(26.893616%, 73.114014%, 22.932434%)" stop-opacity="1"/>
            <stop offset="0.773438" stop-color="rgb(26.628113%, 73.034668%, 23.016357%)" stop-opacity="1"/>
            <stop offset="0.78125" stop-color="rgb(26.361084%, 72.955322%, 23.100281%)" stop-opacity="1"/>
            <stop offset="0.789062" stop-color="rgb(26.095581%, 72.875977%, 23.182678%)" stop-opacity="1"/>
            <stop offset="0.796875" stop-color="rgb(25.828552%, 72.796631%, 23.266602%)" stop-opacity="1"/>
            <stop offset="0.804688" stop-color="rgb(25.563049%, 72.717285%, 23.350525%)" stop-opacity="1"/>
            <stop offset="0.8125" stop-color="rgb(25.297546%, 72.637939%, 23.432922%)" stop-opacity="1"/>
            <stop offset="0.875" stop-color="rgb(25.131226%, 72.587585%, 23.486328%)" stop-opacity="1"/>
            <stop offset="1" stop-color="rgb(25.099182%, 72.57843%, 23.495483%)" stop-opacity="1"/>
        </linearGradient>
    </defs>
    <g clip-path="url(#clip-0)">
        <g clip-path="url(#clip-1)">
            <g clip-path="url(#clip-2)">
                <path fill-rule="nonzero" fill="url(#linear-pattern-0)"
                      d="M 693.445312 962.570312 L 693.445312 1321.039062 L 1269.550781 1321.039062 L 1269.550781 962.570312 Z M 693.445312 962.570312 "/>
            </g>
        </g>
    </g>
    <path fill-rule="nonzero" fill="rgb(31.63147%, 67.907715%, 89.758301%)" fill-opacity="1"
          d="M 890.246094 1020.828125 C 885.621094 1025.460938 878.121094 1025.460938 873.492188 1020.828125 C 868.867188 1016.199219 868.867188 1008.699219 873.492188 1004.070312 C 878.121094 999.449219 885.621094 999.449219 890.246094 1004.070312 C 894.875 1008.699219 894.875 1016.199219 890.246094 1020.828125 Z M 853.578125 999.5 C 843.621094 1009.460938 843.621094 1025.601562 853.578125 1035.558594 C 863.535156 1045.519531 879.679688 1045.519531 889.636719 1035.558594 C 899.597656 1025.601562 899.597656 1009.460938 889.636719 999.5 C 879.679688 989.539062 863.535156 989.539062 853.578125 999.5 "/>
    <path fill-rule="nonzero" fill="rgb(31.63147%, 67.907715%, 89.758301%)" fill-opacity="1"
          d="M 928.949219 900.570312 C 933.574219 895.949219 941.074219 895.949219 945.703125 900.570312 C 950.328125 905.199219 950.328125 912.699219 945.703125 917.328125 C 941.074219 921.960938 933.574219 921.960938 928.949219 917.328125 C 924.320312 912.699219 924.320312 905.199219 928.949219 900.570312 Z M 945.09375 932.058594 C 955.050781 922.101562 955.050781 905.960938 945.09375 896 C 935.136719 886.039062 918.992188 886.039062 909.03125 896 C 899.074219 905.960938 899.074219 922.101562 909.03125 932.058594 C 918.992188 942.019531 935.136719 942.019531 945.09375 932.058594 "/>
    <path fill-rule="nonzero" fill="rgb(31.63147%, 67.907715%, 89.758301%)" fill-opacity="1"
          d="M 908.277344 961.578125 C 905.855469 964.011719 901.925781 964.011719 899.503906 961.578125 C 897.082031 959.160156 897.082031 955.230469 899.503906 952.808594 C 901.925781 950.378906 905.855469 950.378906 908.277344 952.808594 C 910.703125 955.230469 910.703125 959.160156 908.277344 961.578125 Z M 915.996094 953.121094 C 910.777344 947.910156 902.324219 947.910156 897.105469 953.121094 C 891.894531 958.339844 891.894531 966.800781 897.109375 972.011719 C 902.324219 977.230469 910.777344 977.230469 915.996094 972.011719 C 921.210938 966.800781 921.210938 958.339844 915.996094 953.121094 "/>
    <path fill-rule="nonzero" fill="rgb(31.63147%, 67.907715%, 89.758301%)" fill-opacity="1"
          d="M 989.5625 977.691406 C 987.917969 979.339844 985.257812 979.339844 983.613281 977.691406 C 981.972656 976.050781 981.972656 973.390625 983.613281 971.75 C 985.257812 970.101562 987.917969 970.101562 989.5625 971.75 C 991.203125 973.390625 991.203125 976.050781 989.5625 977.691406 Z M 981.988281 971.960938 C 978.453125 975.5 978.453125 981.230469 981.988281 984.761719 C 985.523438 988.300781 991.257812 988.300781 994.789062 984.761719 C 998.324219 981.230469 998.324219 975.5 994.789062 971.960938 C 991.257812 968.429688 985.523438 968.429688 981.988281 971.960938 "/>
    <path fill-rule="nonzero" fill="rgb(31.63147%, 67.907715%, 89.758301%)" fill-opacity="1"
          d="M 979.828125 934.390625 C 983.101562 931.121094 988.40625 931.121094 991.675781 934.390625 C 994.949219 937.660156 994.949219 942.96875 991.675781 946.238281 C 988.40625 949.511719 983.101562 949.511719 979.828125 946.238281 C 976.558594 942.96875 976.558594 937.660156 979.828125 934.390625 Z M 991.246094 956.660156 C 998.285156 949.609375 998.285156 938.199219 991.246094 931.160156 C 984.203125 924.121094 972.789062 924.121094 965.746094 931.160156 C 958.707031 938.199219 958.707031 949.609375 965.746094 956.660156 C 972.789062 963.699219 984.203125 963.699219 991.246094 956.660156 "/>
    <path fill-rule="nonzero" fill="rgb(31.63147%, 67.907715%, 89.758301%)" fill-opacity="1"
          d="M 940.34375 1052.050781 C 937.183594 1055.210938 932.058594 1055.210938 928.894531 1052.050781 C 925.734375 1048.890625 925.734375 1043.769531 928.894531 1040.601562 C 932.058594 1037.441406 937.183594 1037.441406 940.34375 1040.601562 C 943.507812 1043.769531 943.507812 1048.890625 940.34375 1052.050781 Z M 915.285156 1037.480469 C 908.480469 1044.28125 908.480469 1055.308594 915.285156 1062.121094 C 922.089844 1068.921875 933.125 1068.921875 939.929688 1062.121094 C 946.730469 1055.308594 946.734375 1044.28125 939.929688 1037.480469 C 933.125 1030.671875 922.089844 1030.671875 915.285156 1037.480469 "/>
    <path fill-rule="nonzero" fill="rgb(31.63147%, 67.907715%, 89.758301%)" fill-opacity="1"
          d="M 888.558594 1091.351562 C 885.996094 1091.351562 883.917969 1089.28125 883.917969 1086.71875 C 883.917969 1084.148438 885.996094 1082.078125 888.558594 1082.078125 C 891.117188 1082.078125 893.195312 1084.148438 893.195312 1086.71875 C 893.195312 1089.28125 891.117188 1091.351562 888.558594 1091.351562 Z M 887.121094 1080.980469 C 881.605469 1080.980469 877.136719 1085.449219 877.136719 1090.960938 C 877.136719 1096.480469 881.605469 1100.949219 887.121094 1100.949219 C 892.636719 1100.949219 897.105469 1096.480469 897.105469 1090.960938 C 897.105469 1085.449219 892.636719 1080.980469 887.121094 1080.980469 "/>
    <path fill-rule="nonzero" fill="rgb(31.63147%, 67.907715%, 89.758301%)" fill-opacity="1"
          d="M 873.933594 1059.078125 C 873.933594 1056.511719 876.011719 1054.441406 878.570312 1054.441406 C 881.132812 1054.441406 883.210938 1056.511719 883.210938 1059.078125 C 883.210938 1061.640625 881.132812 1063.71875 878.570312 1063.71875 C 876.011719 1063.71875 873.933594 1061.640625 873.933594 1059.078125 Z M 887.121094 1063.320312 C 887.121094 1057.808594 882.652344 1053.339844 877.136719 1053.339844 C 871.621094 1053.339844 867.152344 1057.808594 867.152344 1063.320312 C 867.152344 1068.839844 871.621094 1073.308594 877.136719 1073.308594 C 882.652344 1073.308594 887.121094 1068.839844 887.121094 1063.320312 "/>
    <path fill-rule="nonzero" fill="rgb(31.63147%, 67.907715%, 89.758301%)" fill-opacity="1"
          d="M 921.898438 1016.96875 C 920.085938 1018.78125 917.148438 1018.78125 915.335938 1016.96875 C 913.527344 1015.148438 913.527344 1012.21875 915.335938 1010.410156 C 917.148438 1008.589844 920.085938 1008.589844 921.898438 1010.410156 C 923.710938 1012.21875 923.710938 1015.148438 921.898438 1016.96875 Z M 915.574219 1004.640625 C 911.675781 1008.539062 911.675781 1014.859375 915.574219 1018.761719 C 919.476562 1022.660156 925.796875 1022.660156 929.695312 1018.761719 C 933.597656 1014.859375 933.597656 1008.539062 929.695312 1004.640625 C 925.796875 1000.738281 919.476562 1000.738281 915.574219 1004.640625 "/>
    <path fill-rule="nonzero" fill="rgb(31.63147%, 67.907715%, 89.758301%)" fill-opacity="1"
          d="M 946.46875 983.390625 C 943.90625 983.390625 941.828125 981.320312 941.828125 978.761719 C 941.828125 976.191406 943.90625 974.109375 946.46875 974.109375 C 949.027344 974.109375 951.105469 976.191406 951.105469 978.761719 C 951.105469 981.320312 949.027344 983.390625 946.46875 983.390625 Z M 945.03125 973.019531 C 939.515625 973.019531 935.046875 977.488281 935.046875 983 C 935.046875 988.519531 939.515625 992.988281 945.03125 992.988281 C 950.546875 992.988281 955.015625 988.519531 955.015625 983 C 955.015625 977.488281 950.546875 973.019531 945.03125 973.019531 "/>
    <path fill-rule="nonzero" fill="rgb(31.63147%, 67.907715%, 89.758301%)" fill-opacity="1"
          d="M 988.390625 1031.488281 C 982.925781 1031.488281 978.496094 1027.058594 978.496094 1021.589844 C 978.496094 1016.128906 982.925781 1011.699219 988.390625 1011.699219 C 993.855469 1011.699219 998.285156 1016.128906 998.285156 1021.589844 C 998.285156 1027.058594 993.855469 1031.488281 988.390625 1031.488281 Z M 979.332031 997.230469 C 967.570312 997.230469 958.035156 1006.769531 958.035156 1018.53125 C 958.035156 1030.289062 967.570312 1039.820312 979.332031 1039.820312 C 991.09375 1039.820312 1000.628906 1030.289062 1000.628906 1018.53125 C 1000.628906 1006.769531 991.09375 997.230469 979.332031 997.230469 "/>
    <path fill-rule="nonzero" fill="rgb(31.63147%, 67.907715%, 89.758301%)" fill-opacity="1"
          d="M 1272.648438 1114.480469 C 1251.890625 1246.378906 1137.730469 1347.261719 1000 1347.261719 C 847.550781 1347.261719 723.964844 1223.671875 723.964844 1071.21875 C 723.964844 918.769531 847.550781 795.191406 1000 795.191406 C 1132.179688 795.191406 1242.640625 888.101562 1269.679688 1012.171875 L 1308.550781 1012.171875 C 1280.921875 866.921875 1153.289062 757.101562 1000 757.101562 C 826.515625 757.101562 685.878906 897.738281 685.878906 1071.21875 C 685.878906 1244.710938 826.515625 1385.339844 1000 1385.339844 C 1158.808594 1385.339844 1290.058594 1267.488281 1311.140625 1114.480469 L 1272.648438 1114.480469 "/>
    <path fill-rule="nonzero" fill="rgb(22.143555%, 44.502258%, 75.784302%)" fill-opacity="1"
          d="M 1222.121094 1022.800781 C 1228.199219 1016.269531 1236.859375 1012.171875 1246.460938 1012.171875 L 1250.429688 1012.171875 C 1223.738281 901.640625 1123.921875 819.121094 1005.351562 819.121094 C 866.113281 819.121094 753.246094 931.988281 753.246094 1071.21875 C 753.246094 1073.441406 753.277344 1075.648438 753.332031 1077.851562 C 753.332031 1077.851562 762.222656 1087.5 785.289062 1101.371094 C 783.953125 1091.511719 783.246094 1081.449219 783.246094 1071.21875 C 783.246094 949.621094 880.980469 850.839844 1002.191406 849.148438 C 1108.851562 847.660156 1199.679688 922.308594 1222.121094 1022.800781 "/>
    <path fill-rule="nonzero" fill="rgb(22.143555%, 44.502258%, 75.784302%)" fill-opacity="1"
          d="M 1246.460938 1114.480469 C 1238.128906 1114.480469 1230.519531 1111.390625 1224.679688 1106.308594 C 1218.078125 1147.839844 1199.988281 1185.53125 1173.75 1216.011719 C 1168 1222.699219 1162.679688 1229.738281 1157.550781 1236.910156 C 1155.539062 1239.71875 1153.46875 1242.460938 1151.339844 1245.140625 C 1117.128906 1288.179688 1067.839844 1314.351562 1004.449219 1323.308594 C 1004.460938 1323.351562 1004.449219 1323.289062 1004.449219 1323.320312 C 1129.328125 1323.761719 1233.171875 1233.378906 1253.730469 1114.480469 L 1246.460938 1114.480469 "/>
    <path fill-rule="nonzero" fill="rgb(22.143555%, 44.502258%, 75.784302%)" fill-opacity="1"
          d="M 1387.710938 1081.230469 C 1387.710938 1099.558594 1372.789062 1114.480469 1354.460938 1114.480469 L 1338 1114.480469 C 1316.75 1282.230469 1173.519531 1411.949219 1000 1411.949219 C 811.824219 1411.949219 659.277344 1259.398438 659.277344 1071.21875 C 659.277344 883.050781 811.824219 730.5 1000 730.5 C 1168.03125 730.5 1307.648438 852.140625 1335.609375 1012.171875 L 1354.460938 1012.171875 C 1372.789062 1012.171875 1387.710938 1027.078125 1387.710938 1045.421875 Z M 587.238281 626.609375 L 587.238281 1458.390625 C 587.238281 1499.378906 620.46875 1532.609375 661.457031 1532.609375 L 1338.539062 1532.609375 C 1379.53125 1532.609375 1412.761719 1499.378906 1412.761719 1458.390625 L 1412.761719 626.609375 L 587.238281 626.609375 "/>
    <path fill-rule="nonzero" fill="rgb(22.143555%, 44.502258%, 75.784302%)" fill-opacity="1"
          d="M 1354.460938 1022.171875 L 1246.460938 1022.171875 C 1233.621094 1022.171875 1223.21875 1032.578125 1223.21875 1045.421875 L 1223.21875 1081.230469 C 1223.21875 1094.070312 1233.621094 1104.480469 1246.460938 1104.480469 L 1354.460938 1104.480469 C 1367.300781 1104.480469 1377.710938 1094.070312 1377.710938 1081.230469 L 1377.710938 1045.421875 C 1377.710938 1032.578125 1367.300781 1022.171875 1354.460938 1022.171875 "/>
    <path fill-rule="nonzero" fill="rgb(22.143555%, 44.502258%, 75.784302%)" fill-opacity="1"
          d="M 1298.570312 569.339844 C 1279.609375 569.339844 1264.230469 553.960938 1264.230469 535 C 1264.230469 516.039062 1279.609375 500.660156 1298.570312 500.660156 C 1317.53125 500.660156 1332.910156 516.039062 1332.910156 535 C 1332.910156 553.960938 1317.53125 569.339844 1298.570312 569.339844 Z M 1167.238281 576.859375 C 1144.121094 576.859375 1125.378906 558.121094 1125.378906 535 C 1125.378906 511.878906 1144.121094 493.140625 1167.238281 493.140625 C 1190.351562 493.140625 1209.089844 511.878906 1209.089844 535 C 1209.089844 558.121094 1190.351562 576.859375 1167.238281 576.859375 Z M 905.5 521.109375 L 685.878906 521.109375 L 685.878906 493.390625 L 905.5 493.390625 Z M 905.5 575.949219 L 685.878906 575.949219 L 685.878906 541.609375 L 905.5 541.609375 Z M 1321.25 467.390625 L 678.753906 467.390625 C 628.210938 467.390625 587.238281 508.359375 587.238281 558.910156 L 587.238281 602.609375 L 1412.761719 602.609375 L 1412.761719 558.910156 C 1412.761719 508.359375 1371.789062 467.390625 1321.25 467.390625 "/>
</svg>
