<?xml version="1.0" encoding="UTF-8"?>
<svg xmlns="http://www.w3.org/2000/svg" xmlns:xlink="http://www.w3.org/1999/xlink" width="3873" height="3873"
     viewBox="0 0 3873 3873">
    <defs>
        <clipPath id="clip-0">

        </clipPath>
        <clipPath id="clip-1">
            <path clip-rule="nonzero"
                  d="M 0 1936.5 C 0 3006 867 3873 1936.5 3873 C 3006 3873 3873 3006 3873 1936.5 C 3873 867 3006 0 1936.5 0 C 867 0 0 867 0 1936.5 "/>
        </clipPath>
        <linearGradient id="linear-pattern-0" gradientUnits="userSpaceOnUse" x1="0" y1="0" x2="1" y2="0"
                        gradientTransform="matrix(3873, 0, 0, -3873, 0, 1936.5)">
            <stop offset="0" stop-color="rgb(41.175842%, 77.645874%, 41.960144%)" stop-opacity="1"/>
            <stop offset="0.0078125" stop-color="rgb(41.043091%, 77.664185%, 42.121887%)" stop-opacity="1"/>
            <stop offset="0.015625" stop-color="rgb(40.78064%, 77.700806%, 42.446899%)" stop-opacity="1"/>
            <stop offset="0.0234375" stop-color="rgb(40.516663%, 77.737427%, 42.771912%)" stop-opacity="1"/>
            <stop offset="0.03125" stop-color="rgb(40.252686%, 77.775574%, 43.095398%)" stop-opacity="1"/>
            <stop offset="0.0390625" stop-color="rgb(39.990234%, 77.812195%, 43.42041%)" stop-opacity="1"/>
            <stop offset="0.046875" stop-color="rgb(39.726257%, 77.848816%, 43.745422%)" stop-opacity="1"/>
            <stop offset="0.0546875" stop-color="rgb(39.46228%, 77.885437%, 44.070435%)" stop-opacity="1"/>
            <stop offset="0.0625" stop-color="rgb(39.199829%, 77.922058%, 44.395447%)" stop-opacity="1"/>
            <stop offset="0.0703125" stop-color="rgb(38.935852%, 77.958679%, 44.720459%)" stop-opacity="1"/>
            <stop offset="0.078125" stop-color="rgb(38.671875%, 77.9953%, 45.043945%)" stop-opacity="1"/>
            <stop offset="0.0859375" stop-color="rgb(38.409424%, 78.031921%, 45.368958%)" stop-opacity="1"/>
            <stop offset="0.09375" stop-color="rgb(38.145447%, 78.068542%, 45.69397%)" stop-opacity="1"/>
            <stop offset="0.101562" stop-color="rgb(37.88147%, 78.105164%, 46.018982%)" stop-opacity="1"/>
            <stop offset="0.109375" stop-color="rgb(37.617493%, 78.143311%, 46.343994%)" stop-opacity="1"/>
            <stop offset="0.117188" stop-color="rgb(37.355042%, 78.179932%, 46.669006%)" stop-opacity="1"/>
            <stop offset="0.125" stop-color="rgb(37.091064%, 78.216553%, 46.992493%)" stop-opacity="1"/>
            <stop offset="0.132813" stop-color="rgb(36.827087%, 78.253174%, 47.317505%)" stop-opacity="1"/>
            <stop offset="0.140625" stop-color="rgb(36.564636%, 78.289795%, 47.642517%)" stop-opacity="1"/>
            <stop offset="0.148438" stop-color="rgb(36.300659%, 78.326416%, 47.967529%)" stop-opacity="1"/>
            <stop offset="0.15625" stop-color="rgb(36.036682%, 78.363037%, 48.292542%)" stop-opacity="1"/>
            <stop offset="0.164063" stop-color="rgb(35.774231%, 78.399658%, 48.617554%)" stop-opacity="1"/>
            <stop offset="0.171875" stop-color="rgb(35.510254%, 78.436279%, 48.94104%)" stop-opacity="1"/>
            <stop offset="0.179688" stop-color="rgb(35.246277%, 78.4729%, 49.266052%)" stop-opacity="1"/>
            <stop offset="0.1875" stop-color="rgb(34.983826%, 78.509521%, 49.591064%)" stop-opacity="1"/>
            <stop offset="0.195312" stop-color="rgb(34.719849%, 78.547668%, 49.916077%)" stop-opacity="1"/>
            <stop offset="0.203125" stop-color="rgb(34.455872%, 78.58429%, 50.241089%)" stop-opacity="1"/>
            <stop offset="0.210938" stop-color="rgb(34.19342%, 78.620911%, 50.566101%)" stop-opacity="1"/>
            <stop offset="0.21875" stop-color="rgb(33.929443%, 78.657532%, 50.889587%)" stop-opacity="1"/>
            <stop offset="0.226562" stop-color="rgb(33.665466%, 78.694153%, 51.2146%)" stop-opacity="1"/>
            <stop offset="0.234375" stop-color="rgb(33.403015%, 78.730774%, 51.539612%)" stop-opacity="1"/>
            <stop offset="0.242188" stop-color="rgb(33.139038%, 78.767395%, 51.864624%)" stop-opacity="1"/>
            <stop offset="0.25" stop-color="rgb(32.875061%, 78.804016%, 52.189636%)" stop-opacity="1"/>
            <stop offset="0.257813" stop-color="rgb(32.61261%, 78.840637%, 52.514648%)" stop-opacity="1"/>
            <stop offset="0.265625" stop-color="rgb(32.348633%, 78.877258%, 52.838135%)" stop-opacity="1"/>
            <stop offset="0.273438" stop-color="rgb(32.084656%, 78.913879%, 53.163147%)" stop-opacity="1"/>
            <stop offset="0.28125" stop-color="rgb(31.822205%, 78.952026%, 53.488159%)" stop-opacity="1"/>
            <stop offset="0.289063" stop-color="rgb(31.558228%, 78.988647%, 53.813171%)" stop-opacity="1"/>
            <stop offset="0.296875" stop-color="rgb(31.29425%, 79.025269%, 54.138184%)" stop-opacity="1"/>
            <stop offset="0.304688" stop-color="rgb(31.031799%, 79.06189%, 54.463196%)" stop-opacity="1"/>
            <stop offset="0.3125" stop-color="rgb(30.767822%, 79.098511%, 54.786682%)" stop-opacity="1"/>
            <stop offset="0.320313" stop-color="rgb(30.503845%, 79.135132%, 55.111694%)" stop-opacity="1"/>
            <stop offset="0.328125" stop-color="rgb(30.241394%, 79.171753%, 55.436707%)" stop-opacity="1"/>
            <stop offset="0.335938" stop-color="rgb(29.977417%, 79.208374%, 55.761719%)" stop-opacity="1"/>
            <stop offset="0.34375" stop-color="rgb(29.71344%, 79.244995%, 56.086731%)" stop-opacity="1"/>
            <stop offset="0.351563" stop-color="rgb(29.450989%, 79.281616%, 56.411743%)" stop-opacity="1"/>
            <stop offset="0.359375" stop-color="rgb(29.187012%, 79.319763%, 56.735229%)" stop-opacity="1"/>
            <stop offset="0.367188" stop-color="rgb(28.923035%, 79.356384%, 57.060242%)" stop-opacity="1"/>
            <stop offset="0.375" stop-color="rgb(28.660583%, 79.393005%, 57.385254%)" stop-opacity="1"/>
            <stop offset="0.382812" stop-color="rgb(28.396606%, 79.429626%, 57.710266%)" stop-opacity="1"/>
            <stop offset="0.390625" stop-color="rgb(28.132629%, 79.466248%, 58.035278%)" stop-opacity="1"/>
            <stop offset="0.398438" stop-color="rgb(27.870178%, 79.502869%, 58.358765%)" stop-opacity="1"/>
            <stop offset="0.40625" stop-color="rgb(27.606201%, 79.53949%, 58.683777%)" stop-opacity="1"/>
            <stop offset="0.414062" stop-color="rgb(27.342224%, 79.576111%, 59.008789%)" stop-opacity="1"/>
            <stop offset="0.421875" stop-color="rgb(27.078247%, 79.612732%, 59.333801%)" stop-opacity="1"/>
            <stop offset="0.429688" stop-color="rgb(26.815796%, 79.649353%, 59.658813%)" stop-opacity="1"/>
            <stop offset="0.4375" stop-color="rgb(26.551819%, 79.685974%, 59.983826%)" stop-opacity="1"/>
            <stop offset="0.445312" stop-color="rgb(26.287842%, 79.724121%, 60.307312%)" stop-opacity="1"/>
            <stop offset="0.453125" stop-color="rgb(26.025391%, 79.760742%, 60.632324%)" stop-opacity="1"/>
            <stop offset="0.460938" stop-color="rgb(25.761414%, 79.797363%, 60.957336%)" stop-opacity="1"/>
            <stop offset="0.46875" stop-color="rgb(25.497437%, 79.833984%, 61.282349%)" stop-opacity="1"/>
            <stop offset="0.476562" stop-color="rgb(25.234985%, 79.870605%, 61.607361%)" stop-opacity="1"/>
            <stop offset="0.484375" stop-color="rgb(24.971008%, 79.907227%, 61.932373%)" stop-opacity="1"/>
            <stop offset="0.492188" stop-color="rgb(24.707031%, 79.943848%, 62.255859%)" stop-opacity="1"/>
            <stop offset="0.5" stop-color="rgb(24.44458%, 79.980469%, 62.580872%)" stop-opacity="1"/>
            <stop offset="0.507813" stop-color="rgb(24.180603%, 80.01709%, 62.905884%)" stop-opacity="1"/>
            <stop offset="0.515625" stop-color="rgb(23.916626%, 80.053711%, 63.230896%)" stop-opacity="1"/>
            <stop offset="0.523438" stop-color="rgb(23.654175%, 80.090332%, 63.555908%)" stop-opacity="1"/>
            <stop offset="0.53125" stop-color="rgb(23.390198%, 80.128479%, 63.88092%)" stop-opacity="1"/>
            <stop offset="0.539063" stop-color="rgb(23.126221%, 80.1651%, 64.204407%)" stop-opacity="1"/>
            <stop offset="0.546875" stop-color="rgb(22.86377%, 80.201721%, 64.529419%)" stop-opacity="1"/>
            <stop offset="0.554688" stop-color="rgb(22.599792%, 80.238342%, 64.854431%)" stop-opacity="1"/>
            <stop offset="0.5625" stop-color="rgb(22.335815%, 80.274963%, 65.179443%)" stop-opacity="1"/>
            <stop offset="0.570313" stop-color="rgb(22.073364%, 80.311584%, 65.504456%)" stop-opacity="1"/>
            <stop offset="0.578125" stop-color="rgb(21.809387%, 80.348206%, 65.829468%)" stop-opacity="1"/>
            <stop offset="0.585938" stop-color="rgb(21.54541%, 80.384827%, 66.152954%)" stop-opacity="1"/>
            <stop offset="0.59375" stop-color="rgb(21.282959%, 80.421448%, 66.477966%)" stop-opacity="1"/>
            <stop offset="0.601563" stop-color="rgb(21.018982%, 80.458069%, 66.802979%)" stop-opacity="1"/>
            <stop offset="0.609375" stop-color="rgb(20.755005%, 80.496216%, 67.127991%)" stop-opacity="1"/>
            <stop offset="0.617188" stop-color="rgb(20.492554%, 80.532837%, 67.453003%)" stop-opacity="1"/>
            <stop offset="0.625" stop-color="rgb(20.228577%, 80.569458%, 67.778015%)" stop-opacity="1"/>
            <stop offset="0.632813" stop-color="rgb(19.9646%, 80.606079%, 68.101501%)" stop-opacity="1"/>
            <stop offset="0.640625" stop-color="rgb(19.702148%, 80.6427%, 68.426514%)" stop-opacity="1"/>
            <stop offset="0.648438" stop-color="rgb(19.438171%, 80.679321%, 68.751526%)" stop-opacity="1"/>
            <stop offset="0.65625" stop-color="rgb(19.174194%, 80.715942%, 69.076538%)" stop-opacity="1"/>
            <stop offset="0.664063" stop-color="rgb(18.911743%, 80.752563%, 69.40155%)" stop-opacity="1"/>
            <stop offset="0.671875" stop-color="rgb(18.647766%, 80.789185%, 69.726562%)" stop-opacity="1"/>
            <stop offset="0.679688" stop-color="rgb(18.383789%, 80.825806%, 70.050049%)" stop-opacity="1"/>
            <stop offset="0.6875" stop-color="rgb(18.121338%, 80.862427%, 70.375061%)" stop-opacity="1"/>
            <stop offset="0.695313" stop-color="rgb(17.857361%, 80.900574%, 70.700073%)" stop-opacity="1"/>
            <stop offset="0.703125" stop-color="rgb(17.593384%, 80.937195%, 71.025085%)" stop-opacity="1"/>
            <stop offset="0.710938" stop-color="rgb(17.330933%, 80.973816%, 71.350098%)" stop-opacity="1"/>
            <stop offset="0.71875" stop-color="rgb(17.066956%, 81.010437%, 71.67511%)" stop-opacity="1"/>
            <stop offset="0.726563" stop-color="rgb(16.802979%, 81.047058%, 71.998596%)" stop-opacity="1"/>
            <stop offset="0.734375" stop-color="rgb(16.540527%, 81.083679%, 72.323608%)" stop-opacity="1"/>
            <stop offset="0.742188" stop-color="rgb(16.27655%, 81.1203%, 72.648621%)" stop-opacity="1"/>
            <stop offset="0.75" stop-color="rgb(16.012573%, 81.156921%, 72.973633%)" stop-opacity="1"/>
            <stop offset="0.757812" stop-color="rgb(15.748596%, 81.193542%, 73.298645%)" stop-opacity="1"/>
            <stop offset="0.765625" stop-color="rgb(15.486145%, 81.230164%, 73.623657%)" stop-opacity="1"/>
            <stop offset="0.773438" stop-color="rgb(15.222168%, 81.266785%, 73.947144%)" stop-opacity="1"/>
            <stop offset="0.78125" stop-color="rgb(14.958191%, 81.304932%, 74.272156%)" stop-opacity="1"/>
            <stop offset="0.789062" stop-color="rgb(14.69574%, 81.341553%, 74.597168%)" stop-opacity="1"/>
            <stop offset="0.796875" stop-color="rgb(14.431763%, 81.378174%, 74.92218%)" stop-opacity="1"/>
            <stop offset="0.804688" stop-color="rgb(14.167786%, 81.414795%, 75.247192%)" stop-opacity="1"/>
            <stop offset="0.8125" stop-color="rgb(13.905334%, 81.451416%, 75.572205%)" stop-opacity="1"/>
            <stop offset="0.820312" stop-color="rgb(13.641357%, 81.488037%, 75.895691%)" stop-opacity="1"/>
            <stop offset="0.828125" stop-color="rgb(13.37738%, 81.524658%, 76.220703%)" stop-opacity="1"/>
            <stop offset="0.835938" stop-color="rgb(13.114929%, 81.561279%, 76.545715%)" stop-opacity="1"/>
            <stop offset="0.84375" stop-color="rgb(12.850952%, 81.5979%, 76.870728%)" stop-opacity="1"/>
            <stop offset="0.851562" stop-color="rgb(12.586975%, 81.634521%, 77.19574%)" stop-opacity="1"/>
            <stop offset="0.859375" stop-color="rgb(12.324524%, 81.672668%, 77.520752%)" stop-opacity="1"/>
            <stop offset="0.867188" stop-color="rgb(12.060547%, 81.70929%, 77.844238%)" stop-opacity="1"/>
            <stop offset="0.875" stop-color="rgb(11.79657%, 81.745911%, 78.16925%)" stop-opacity="1"/>
            <stop offset="0.882812" stop-color="rgb(11.534119%, 81.782532%, 78.494263%)" stop-opacity="1"/>
            <stop offset="0.890625" stop-color="rgb(11.270142%, 81.819153%, 78.819275%)" stop-opacity="1"/>
            <stop offset="0.898438" stop-color="rgb(11.006165%, 81.855774%, 79.144287%)" stop-opacity="1"/>
            <stop offset="0.90625" stop-color="rgb(10.743713%, 81.892395%, 79.469299%)" stop-opacity="1"/>
            <stop offset="0.914062" stop-color="rgb(10.479736%, 81.929016%, 79.792786%)" stop-opacity="1"/>
            <stop offset="0.921875" stop-color="rgb(10.215759%, 81.965637%, 80.117798%)" stop-opacity="1"/>
            <stop offset="0.929688" stop-color="rgb(9.953308%, 82.002258%, 80.44281%)" stop-opacity="1"/>
            <stop offset="0.9375" stop-color="rgb(9.689331%, 82.038879%, 80.767822%)" stop-opacity="1"/>
            <stop offset="0.945312" stop-color="rgb(9.425354%, 82.077026%, 81.092834%)" stop-opacity="1"/>
            <stop offset="0.953125" stop-color="rgb(9.162903%, 82.113647%, 81.417847%)" stop-opacity="1"/>
            <stop offset="0.960938" stop-color="rgb(8.898926%, 82.150269%, 81.741333%)" stop-opacity="1"/>
            <stop offset="0.96875" stop-color="rgb(8.634949%, 82.18689%, 82.066345%)" stop-opacity="1"/>
            <stop offset="0.976562" stop-color="rgb(8.372498%, 82.223511%, 82.391357%)" stop-opacity="1"/>
            <stop offset="0.984375" stop-color="rgb(8.108521%, 82.260132%, 82.71637%)" stop-opacity="1"/>
            <stop offset="0.992188" stop-color="rgb(7.844543%, 82.296753%, 83.041382%)" stop-opacity="1"/>
            <stop offset="1" stop-color="rgb(7.582092%, 82.333374%, 83.364868%)" stop-opacity="1"/>
        </linearGradient>
    </defs>
    <g clip-path="url(#clip-0)">
        <g clip-path="url(#clip-1)">

        </g>
    </g>
    <path fill-rule="nonzero" fill="rgb(0%, 0%, 0%)" fill-opacity="1"
          d="M 2775.699219 2769 L 1942.101562 2769 C 1917.699219 2769 1897.800781 2749.199219 1897.800781 2724.699219 C 1897.800781 2700.300781 1917.601562 2680.398438 1942.101562 2680.398438 L 2775.699219 2680.398438 C 2984.5 2677.898438 3151.699219 2506.601562 3149.199219 2297.699219 C 3146.699219 2092.5 2981 1926.699219 2775.699219 1924.199219 L 1942.101562 1924.199219 C 1917.699219 1924.199219 1897.800781 1904.398438 1897.800781 1879.898438 C 1897.800781 1855.5 1917.601562 1835.601562 1942.101562 1835.601562 L 2775.699219 1835.601562 C 3033.398438 1838.398438 3240 2049.601562 3237.199219 2307.300781 C 3234.398438 2561.199219 3029.398438 2766.199219 2775.699219 2769 "/>
    <path fill-rule="nonzero" fill="rgb(0%, 0%, 0%)" fill-opacity="1"
          d="M 1942 2196.601562 C 1883.601562 2196.601562 1836.199219 2244 1836.199219 2302.398438 C 1836.199219 2360.800781 1883.601562 2408.199219 1942 2408.199219 C 2000.398438 2408.199219 2047.800781 2360.800781 2047.800781 2302.398438 C 2047.800781 2243.898438 2000.398438 2196.601562 1942 2196.601562 Z M 1942 2496.601562 C 1834.699219 2496.601562 1747.699219 2409.601562 1747.699219 2302.300781 C 1747.699219 2195 1834.699219 2108 1942 2108 C 2049.300781 2108 2136.300781 2195 2136.300781 2302.300781 C 2136.300781 2409.601562 2049.300781 2496.601562 1942 2496.601562 "/>
    <path fill-rule="nonzero" fill="rgb(0%, 0%, 0%)" fill-opacity="1"
          d="M 1942 1924.199219 C 1733.101562 1924.199219 1563.898438 2093.5 1563.898438 2302.300781 C 1563.898438 2511.199219 1733.199219 2680.398438 1942 2680.398438 C 2150.898438 2680.398438 2320.101562 2511.101562 2320.101562 2302.300781 C 2320.101562 2302.300781 2320.101562 2302.300781 2320.101562 2302.199219 C 2319.898438 2093.601562 2150.699219 1924.5 1942 1924.199219 Z M 1942 2769 C 1684.300781 2769 1475.398438 2560.101562 1475.398438 2302.398438 C 1475.398438 2044.699219 1684.300781 1835.800781 1942 1835.800781 C 2199.699219 1835.800781 2408.601562 2044.699219 2408.601562 2302.398438 C 2408.398438 2560 2199.699219 2768.699219 1942 2769 "/>
    <path fill-rule="nonzero" fill="rgb(0%, 0%, 0%)" fill-opacity="1"
          d="M 1097.300781 1924.199219 C 888.398438 1924.199219 719.199219 2093.5 719.199219 2302.300781 C 719.199219 2511.199219 888.5 2680.398438 1097.300781 2680.398438 C 1306.101562 2680.398438 1475.398438 2511.101562 1475.398438 2302.300781 C 1475.398438 2302.300781 1475.398438 2302.300781 1475.398438 2302.199219 C 1475.199219 2093.601562 1306.101562 1924.5 1097.300781 1924.199219 Z M 1097.300781 2769 C 839.601562 2769 630.699219 2560.101562 630.699219 2302.398438 C 630.699219 2044.699219 839.601562 1835.800781 1097.300781 1835.800781 C 1355 1835.800781 1563.898438 2044.699219 1563.898438 2302.398438 C 1563.699219 2560 1354.898438 2768.699219 1097.300781 2769 "/>
    <path fill-rule="nonzero" fill="rgb(0%, 0%, 0%)" fill-opacity="1"
          d="M 1097.300781 2196.601562 C 1038.898438 2196.601562 991.5 2244 991.5 2302.398438 C 991.5 2360.800781 1038.898438 2408.199219 1097.300781 2408.199219 C 1155.699219 2408.199219 1203.101562 2360.800781 1203.101562 2302.398438 C 1203 2243.898438 1155.699219 2196.601562 1097.300781 2196.601562 Z M 1097.300781 2496.601562 C 990 2496.601562 903 2409.601562 903 2302.300781 C 903 2195 990 2108 1097.300781 2108 C 1204.601562 2108 1291.601562 2195 1291.601562 2302.300781 C 1291.5 2409.601562 1204.601562 2496.601562 1097.300781 2496.601562 "/>
    <path fill-rule="nonzero" fill="rgb(0%, 0%, 0%)" fill-opacity="1"
          d="M 1519.699219 1192.5 C 1310.800781 1192.5 1141.601562 1361.699219 1141.601562 1570.601562 C 1141.601562 1779.5 1310.800781 1948.699219 1519.699219 1948.699219 C 1728.601562 1948.699219 1897.800781 1779.5 1897.800781 1570.601562 C 1897.800781 1570.601562 1897.800781 1570.601562 1897.800781 1570.5 C 1897.5 1362 1728.398438 1192.800781 1519.699219 1192.5 Z M 1519.699219 2037.199219 C 1262 2037.199219 1053.101562 1828.300781 1053 1570.601562 C 1053 1312.898438 1261.898438 1104 1519.601562 1103.898438 C 1777.300781 1103.898438 1986.199219 1312.800781 1986.300781 1570.5 L 1986.300781 1570.601562 C 1986 1828.199219 1777.300781 2036.898438 1519.699219 2037.199219 "/>
    <path fill-rule="nonzero" fill="rgb(0%, 0%, 0%)" fill-opacity="1"
          d="M 1519.699219 1479.898438 C 1461.300781 1479.898438 1413.898438 1527.300781 1413.898438 1585.699219 C 1413.898438 1644.101562 1461.300781 1691.5 1519.699219 1691.5 C 1578.101562 1691.5 1625.5 1644.101562 1625.5 1585.699219 C 1625.5 1585.699219 1625.5 1585.699219 1625.5 1585.601562 C 1625.398438 1527.300781 1578.101562 1480 1519.699219 1479.898438 Z M 1519.699219 1780 C 1412.398438 1780 1325.398438 1693 1325.398438 1585.699219 C 1325.398438 1478.398438 1412.398438 1391.398438 1519.699219 1391.398438 C 1627 1391.398438 1714 1478.398438 1714 1585.699219 C 1713.898438 1692.898438 1627 1779.898438 1519.699219 1780 "/>
    <path fill-rule="nonzero" fill="rgb(0%, 0%, 0%)" fill-opacity="1"
          d="M 2640.101562 1924.199219 C 2615.699219 1924.300781 2595.800781 1904.5 2595.800781 1880 C 2595.800781 1867.699219 2600.898438 1855.898438 2610 1847.5 C 2763.199219 1706 2772.601562 1467.101562 2631.101562 1313.898438 C 2559.5 1236.398438 2458.800781 1192.398438 2353.300781 1192.601562 L 1519.601562 1192.601562 C 1495.199219 1192.601562 1475.300781 1172.800781 1475.300781 1148.300781 C 1475.300781 1123.898438 1495.101562 1104 1519.601562 1104 L 2353.199219 1104 C 2610.601562 1103.800781 2819.5 1312.199219 2819.800781 1569.699219 C 2820 1699.800781 2765.601562 1824.101562 2670.101562 1912.398438 C 2662 1920 2651.300781 1924.199219 2640.101562 1924.199219 "/>
    <path fill-rule="nonzero" fill="rgb(0%, 0%, 0%)" fill-opacity="1"
          d="M 1942 2769 L 1097.300781 2769 C 1072.898438 2769 1053 2749.199219 1053 2724.699219 C 1053 2700.300781 1072.800781 2680.398438 1097.300781 2680.398438 L 1942 2680.398438 C 1966.398438 2680.398438 1986.300781 2700.199219 1986.300781 2724.699219 C 1986.300781 2749.101562 1966.398438 2769 1942 2769 "/>
</svg>
