<?xml version="1.0" encoding="UTF-8" standalone="no"?>
<!-- Created with Inkscape (http://www.inkscape.org/) -->

<svg
        version="1.1"
        id="svg2"
        width="5200"
        height="4688.4932"
        viewBox="0 0 5200 4688.4932"
        sodipodi:docname="metal_rails.eps"
        xmlns:inkscape="http://www.inkscape.org/namespaces/inkscape"
        xmlns:sodipodi="http://sodipodi.sourceforge.net/DTD/sodipodi-0.dtd"
        xmlns="http://www.w3.org/2000/svg"
        xmlns:svg="http://www.w3.org/2000/svg">
    <defs
            id="defs6"/>
    <sodipodi:namedview
            id="namedview4"
            pagecolor="#ffffff"
            bordercolor="#000000"
            borderopacity="0.25"
            inkscape:showpageshadow="2"
            inkscape:pageopacity="0.0"
            inkscape:pagecheckerboard="0"
            inkscape:deskcolor="#d1d1d1"/>
    <g
            id="g8"
            inkscape:groupmode="layer"
            inkscape:label="ink_ext_XXXXXX"
            transform="matrix(1.3333333,0,0,-1.3333333,0,4688.4933)">
        <g
                id="g10"
                transform="scale(0.1)">
            <path
                    d="m 33618.8,35163.7 5215.9,-600.5 27.8,-1071.8 -2093.6,-1472.4 17,-2157.3 c 4.2,-531.1 179.9,-725.6 724.6,-788.3 l 1458.6,-167.9 30.9,-1189.7 L 10463.5,0 378.18,1161 c -13.442,517.1 -26.535,1023.4 -38.86,1499.7 l 3937.21,3218.1 -163.46,6305.5 C 4068.67,13896.6 1496.67,13940 39.2813,14233.6 L 0,15748.1 33618.8,35163.7 v 0"
                    style="fill:#383536;fill-opacity:1;fill-rule:evenodd;stroke:none"
                    id="path12"/>
            <path
                    d="m 4419.97,12234.9 c -49.43,1906.1 -2663.49,1971.8 -4076.99,2267.9 -9.8,376 -13.355,515.1 -23.16,891.1 l 9497.51,-1093.3 23.07,-891.5 c -1406.48,28.8 -4032.85,566.5 -3983.42,-1339.5 L 6077.95,3546.11 C 6127.37,1640.3 8764.93,1571.7 10178.5,1275.8 c 9.8,-376.097 13.5,-515.097 23.2,-891.195 L 680.563,1480.8 657.488,2371.9 C 2063.99,2343.1 4690.36,1805.8 4640.92,3711.5 l -220.95,8523.4 v 0"
                    style="fill:#a7a5a6;fill-opacity:1;fill-rule:evenodd;stroke:none"
                    id="path14"/>
            <path
                    d="M 451.031,15570.8 33768.3,34847.5 38419.7,34311.9 9952.36,14476.8 451.031,15570.8 v 0"
                    style="fill:#bdbbbc;fill-opacity:1;fill-rule:evenodd;stroke:none"
                    id="path16"/>
            <path
                    d="m 36487.9,31971.8 15.6,-2214 c 3.9,-533.7 313.4,-890.5 858.2,-953.2 L 38579.4,28664.4 10237.1,1479.91 C 8824.92,1757.41 6341.31,1863 6297.6,3546.4 l -214.71,8282.5 c -16.31,630.8 133.89,976.8 579.45,1198.3 791.56,393.7 2508.25,180 3441.56,150.7 l 26384,18793.9 v 0"
                    style="fill:#656263;fill-opacity:1;fill-rule:evenodd;stroke:none"
                    id="path18"/>
            <path
                    d="m 7534.04,2066.8 c -204.23,405.31 399.08,988.3 759.91,1314.5 L 36779.5,29053.8 c 143.1,-134.7 339.2,-221.3 582.2,-249.2 L 38579.4,28664.4 11334.9,2532.8 10234.6,1480.4 C 9462.75,1632 8371.99,1732.2 7534.04,2066.8 v 0"
                    style="fill:#7b7979;fill-opacity:1;fill-rule:evenodd;stroke:none"
                    id="path20"/>
            <path
                    d="m 10050.3,13402.2 28553.7,20286.5 -15.6,603.1 -28561.4,-19990.4 23.3,-899.2 v 0"
                    style="fill:#7b7979;fill-opacity:1;fill-rule:evenodd;stroke:none"
                    id="path22"/>
            <path
                    d="m 10368.1,390.902 28385.1,27544.898 -16.8,650 -28391.5,-27304 23.2,-890.898 v 0"
                    style="fill:#656263;fill-opacity:1;fill-rule:evenodd;stroke:none"
                    id="path24"/>
            <path
                    d="M 820.441,2628.2 4380.95,5564.5 4424.74,3878.2 C 4448.15,2972.3 3917,2517.9 3003.41,2550.5 l -2182.969,77.7 v 0"
                    style="fill:#a7a5a6;fill-opacity:1;fill-rule:evenodd;stroke:none"
                    id="path26"/>
            <path
                    d="m 1626.41,15884.6 c 3070.36,1072.3 4775.61,-743.6 8170.82,858.7 8236.67,3886.9 19273.97,14369.2 27571.97,17377.2 -9175.4,-6394 -18288.5,-12795.1 -27463.94,-19189 -2759.63,317.8 -5519.2,635.3 -8278.85,953.1 v 0"
                    style="fill:#d3d2d2;fill-opacity:1;fill-rule:evenodd;stroke:none"
                    id="path28"/>
            <path
                    d="m 4327.01,17448.3 c 9878.89,5688 19757.89,11376.2 29636.89,17064.2 739.2,-85 1478.7,-170.2 2217.9,-255.4 C 24129.6,28694.3 11844.1,17722.1 4327.01,17448.3 v 0"
                    style="fill:#a7a5a6;fill-opacity:1;fill-rule:evenodd;stroke:none"
                    id="path30"/>
            <path
                    d="M 7835.48,2266.6 C 8788.6,2990.4 9370.65,2413.7 10382,3286.8 19390.5,11063.7 29287.5,21831.6 37892.8,28342.9 28622.9,19585.6 19356,10702.8 10086.1,1945.2 9335.87,2052.41 8585.77,2159.4 7835.48,2266.6 v 0"
                    style="fill:#918f8f;fill-opacity:1;fill-rule:evenodd;stroke:none"
                    id="path32"/>
            <path
                    d="m 4937.6,12050.4 c -71.9,2770.8 -1342.32,2095.8 -4077.092,3093.8 L 9668.45,14130.1 c 2.77,-105.8 24.1,-289.5 31.98,-591.3 -1775.46,204.3 -4141.32,653.2 -4082.1,-1629.2 l 220.96,-8523.4 c 47.53,-1834.7 2700.76,-2107.7 4112.29,-2270 9.8,-375.997 3.28,-126.294 13,-502.298 L 1033.95,1642.11 c 976.98,142.19 1803.49,72.5 2391.88,63.29 C 4874.89,1683 5206.5,1675.7 5158.55,3527 l -220.95,8523.4 v 0"
                    style="fill:#d3d2d2;fill-opacity:1;fill-rule:evenodd;stroke:none"
                    id="path34"/>
            <path
                    d="m 432.027,14942.1 c 17.957,-200 15.098,-184.7 9.45,-366.5 945.593,-164 2093.563,-331.9 2924.073,-612.2 174.3,-59 778.9,-288.2 1003.25,-1146.4 267.69,-1024.2 193.9,-5571.5 412.62,-8544.89 215.23,2616.09 144.63,6844.69 16.12,7906.49 -208.73,1724.8 -565.07,2008.5 -2108.75,2299 -952.34,179.2 -2093.548,211.8 -2256.763,464.5 v 0"
                    style="fill:#7b7979;fill-opacity:1;fill-rule:evenodd;stroke:none"
                    id="path36"/>
            <path
                    d="m 774.23,1740.9 c 7.704,197.1 2.504,300.9 -12.574,485 C 2139.44,2147.8 3898.53,2082.6 4558.88,2641.8 4316.25,1193.4 1066.98,2160.3 774.23,1740.9 v 0"
                    style="fill:#7b7979;fill-opacity:1;fill-rule:evenodd;stroke:none"
                    id="path38"/>
            <path
                    d="m 4413.55,4306.4 -1830.02,-1741 -1763.089,62.8 3560.509,2936.3 32.6,-1258.1 v 0"
                    style="fill:#bdbbbc;fill-opacity:1;fill-rule:evenodd;stroke:none"
                    id="path40"/>
            <path
                    d="M 3250.04,4357.7 C 2867.95,4073.8 1080.85,2717.41 1080.85,2717.41 c 688.38,-115.71 1901.59,-49.11 2475.57,35.89 -1940.51,54.6 -562.19,1082.9 -306.38,1604.4 v 0"
                    style="fill:#e9e8e8;fill-opacity:1;fill-rule:evenodd;stroke:none"
                    id="path42"/>
            <path
                    d="m 10139.7,13551.7 c 98.5,205.7 200,293.2 298.5,499.1 10619.2,7330 21275.2,14678.9 28031.4,20004.7 -9444,-6604.6 -18888.2,-13209 -28332.3,-19813.6 1.8,-269.5 0.5,-420.7 2.4,-690.2 v 0"
                    style="fill:#656263;fill-opacity:1;fill-rule:evenodd;stroke:none"
                    id="path44"/>
            <path
                    d="m 10475.8,585.504 c 97.9,231.301 198.8,344.402 296.6,575.796 10550.3,9987.6 21134,20121.6 27846.4,27142.5 C 29236,19335.2 19856.1,10248.4 10473.4,1279.61 c 1.8,-270.91 0.6,-423.208 2.4,-694.106 v 0"
                    style="fill:#4f4c4c;fill-opacity:1;fill-rule:evenodd;stroke:none"
                    id="path46"/>
            <path
                    d="m 4376.34,14624.6 c 1707.66,-186.3 3485.32,-364.6 5192.97,-550.9 -22.44,-138 10.5,-305.9 -11.95,-444 -475.31,312.5 -3665.94,226.9 -5181.02,994.9 v 0"
                    style="fill:#e9e8e8;fill-opacity:1;fill-rule:evenodd;stroke:none"
                    id="path48"/>
            <path
                    d="M 6119.65,1166.2 C 7367.96,1014.61 8667.98,844.605 9916.2,692.703 9894.25,804.004 9911.94,928.504 9890.09,1039.91 9552.76,879.504 7203.54,1499.8 6119.65,1166.2 v 0"
                    style="fill:#e9e8e8;fill-opacity:1;fill-rule:evenodd;stroke:none"
                    id="path50"/>
            <path
                    d="M 36527,29523.9 7801.4,4176 C 7215.35,3656.2 6623.93,3416.7 6288.76,3891.2 l -205.87,7937.7 c -16.31,630.8 133.89,976.8 579.45,1198.3 791.56,393.7 2508.25,180 3441.56,150.7 l 26384,18793.9 15.6,-2214 c 0.7,-82.3 8.5,-160.5 23.5,-233.9 v 0"
                    style="fill:#535051;fill-opacity:1;fill-rule:evenodd;stroke:none"
                    id="path52"/>
            <path
                    d="M 36491.8,31445.3 6158.51,8913.61 6082.89,11828.9 c -16.31,630.8 133.89,976.8 579.45,1198.3 791.56,393.7 2508.25,180 3441.56,150.7 l 26384,18793.9 3.9,-526.5 v 0"
                    style="fill:#484545;fill-opacity:1;fill-rule:evenodd;stroke:none"
                    id="path54"/>
        </g>
    </g>
</svg>
