<?xml version="1.0" encoding="UTF-8"?>
<svg xmlns="http://www.w3.org/2000/svg" xmlns:xlink="http://www.w3.org/1999/xlink" width="3000" height="3000"
     viewBox="0 0 3000 3000">
    <path fill-rule="evenodd" fill="rgb(0%, 23.535156%, 41.184998%)" fill-opacity="1"
          d="M 1500 0 C 2328.429688 0 3000 671.570312 3000 1500 C 3000 2328.425781 2328.429688 2999.996094 1500 2999.996094 C 671.574219 2999.996094 0.00390625 2328.425781 0.00390625 1500 C 0.00390625 671.570312 671.574219 0 1500 0 "/>
    <path fill-rule="evenodd" fill="rgb(100%, 100%, 100%)" fill-opacity="1"
          d="M 2268.921875 2144.671875 C 2252.988281 2144.671875 2236.890625 2142.640625 2221.269531 2138.734375 C 2171.890625 2126.078125 2130.960938 2095.453125 2105.949219 2052.171875 L 1580.179688 1145.78125 C 1527.371094 1054.679688 1556.269531 936.871094 1644.710938 883.121094 C 1688.621094 856.398438 1742.519531 848.589844 1792.519531 861.238281 C 1841.898438 873.898438 1882.828125 904.53125 1907.828125 947.808594 L 2433.609375 1854.210938 C 2486.421875 1945.300781 2457.511719 2063.109375 2369.078125 2116.863281 C 2338.921875 2135.140625 2304.078125 2144.671875 2268.921875 2144.671875 Z M 1667.988281 921.558594 C 1600.328125 962.648438 1578.460938 1052.960938 1619.078125 1123.121094 L 2144.699219 2029.515625 C 2163.609375 2062.171875 2194.699219 2085.453125 2232.199219 2094.984375 C 2270.640625 2104.824219 2311.890625 2098.734375 2345.640625 2078.261719 C 2413.289062 2037.171875 2435.320312 1946.859375 2394.550781 1876.699219 L 1868.929688 970.460938 C 1850.019531 937.808594 1818.921875 914.53125 1781.429688 905 C 1742.988281 895.148438 1701.738281 901.238281 1667.988281 921.558594 "/>
    <path fill-rule="evenodd" fill="rgb(100%, 100%, 100%)" fill-opacity="1"
          d="M 2294.078125 2054.984375 C 2255.640625 2054.984375 2218.300781 2041.390625 2187.679688 2016.078125 C 2138.300781 1975.449219 2129.710938 1904.199219 2168.300781 1857.328125 C 2206.898438 1810.460938 2278.460938 1805.460938 2327.828125 1846.230469 C 2357.210938 1870.609375 2362.359375 1913.269531 2338.929688 1941.390625 C 2327.519531 1955.300781 2311.121094 1963.578125 2292.679688 1964.671875 C 2274.710938 1965.761719 2257.371094 1959.980469 2243.300781 1948.421875 C 2233.769531 1940.449219 2232.371094 1926.390625 2240.339844 1916.699219 C 2248.148438 1907.171875 2262.371094 1905.769531 2272.050781 1913.730469 C 2277.210938 1917.949219 2283.621094 1920.140625 2290.019531 1919.828125 C 2295.800781 1919.511719 2300.960938 1917.019531 2304.398438 1912.800781 C 2311.898438 1903.738281 2309.558594 1889.359375 2299.238281 1880.921875 C 2269.089844 1856.078125 2225.960938 1858.269531 2203 1885.921875 C 2180.03125 1913.578125 2186.121094 1956.390625 2216.28125 1981.390625 C 2240.808594 2001.550781 2271.121094 2011.707031 2301.429688 2009.675781 C 2331.429688 2007.800781 2358 1994.519531 2376.28125 1972.328125 C 2397.53125 1946.710938 2404.710938 1912.488281 2396.28125 1878.429688 C 2393.308594 1866.398438 2400.648438 1854.210938 2412.679688 1851.078125 C 2424.871094 1848.109375 2436.898438 1855.460938 2440.03125 1867.488281 C 2452.058594 1915.449219 2441.429688 1964.199219 2410.960938 2000.921875 C 2384.558594 2032.796875 2346.75 2051.859375 2304.238281 2054.515625 C 2300.949219 2054.984375 2297.519531 2054.984375 2294.078125 2054.984375 Z M 2080.960938 1986.859375 C 2072.808594 1986.859375 2065.550781 1982.078125 2061.570312 1974.910156 C 2060.671875 1973.28125 2059.570312 1971.710938 2059.078125 1969.828125 C 2043.449219 1907.949219 2056.890625 1845.300781 2096.109375 1797.800781 C 2165.480469 1713.738281 2294.390625 1705.140625 2383.609375 1778.578125 C 2387.519531 1781.859375 2391.269531 1785.140625 2394.710938 1788.578125 C 2396.320312 1790.171875 2397.101562 1792.128906 2398.128906 1794.019531 C 2402.769531 1802.511719 2402.050781 1813.171875 2395.019531 1820.460938 C 2386.269531 1829.359375 2372.050781 1829.359375 2363.140625 1820.769531 C 2360.488281 1818.269531 2357.828125 1815.769531 2355.019531 1813.429688 C 2285.179688 1755.769531 2184.550781 1761.710938 2130.960938 1826.550781 C 2100.960938 1862.800781 2090.808594 1911.078125 2102.839844 1958.890625 C 2105.800781 1970.921875 2098.621094 1983.109375 2086.589844 1986.238281 C 2084.699219 1986.699219 2082.828125 1986.859375 2080.960938 1986.859375 "/>
    <path fill-rule="evenodd" fill="rgb(100%, 100%, 100%)" fill-opacity="1"
          d="M 2225.488281 2139.046875 L 1050.5 2139.046875 C 1039.871094 2139.046875 1030.648438 2131.703125 1028.46875 2121.234375 L 966.589844 1833.738281 C 963.308594 1818.269531 954.5625 1806.390625 950.964844 1803.421875 L 812.371094 1753.890625 C 790.1875 1745.921875 775.03125 1711.550781 769.5625 1692.488281 L 722.6875 1529.050781 L 666.4375 1359.519531 C 660.34375 1341.089844 648 1329.839844 644.40625 1326.871094 L 548.160156 1247.339844 C 540.816406 1241.238281 538.15625 1231.238281 541.285156 1222.339844 C 544.566406 1213.429688 553.003906 1207.5 562.378906 1207.5 L 1654.710938 1207.488281 C 1667.050781 1207.488281 1677.210938 1217.488281 1677.210938 1229.988281 C 1677.210938 1242.488281 1667.050781 1252.488281 1654.710938 1252.488281 L 625.339844 1252.488281 L 673.308594 1292.179688 C 680.964844 1298.578125 699.714844 1316.398438 709.402344 1345.460938 L 765.964844 1515.769531 L 813.152344 1679.988281 C 817.683594 1695.929688 825.652344 1708.429688 829.402344 1711.871094 L 967.683594 1761.398438 C 988.621094 1768.898438 1005.5 1799.371094 1010.808594 1824.210938 L 1068.78125 2093.898438 L 2225.488281 2093.890625 C 2227.519531 2093.890625 2229.210938 2094.589844 2231.078125 2095.101562 C 2240.601562 2097.710938 2247.988281 2106.078125 2247.988281 2116.390625 C 2247.988281 2128.730469 2237.828125 2139.046875 2225.488281 2139.046875 Z M 829.871094 1712.488281 L 829.871094 1712.488281 "/>
    <path fill-rule="evenodd" fill="rgb(100%, 100%, 100%)" fill-opacity="1"
          d="M 1405.960938 1509.210938 C 1393.460938 1509.210938 1383.460938 1499.210938 1383.460938 1486.710938 L 1383.460938 1325.609375 C 1383.460938 1313.121094 1393.460938 1303.109375 1405.960938 1303.109375 C 1418.460938 1303.109375 1428.460938 1313.121094 1428.460938 1325.609375 L 1428.460938 1486.710938 C 1428.460938 1499.050781 1418.300781 1509.210938 1405.960938 1509.210938 "/>
    <path fill-rule="evenodd" fill="rgb(100%, 100%, 100%)" fill-opacity="1"
          d="M 1486.429688 1428.578125 L 1325.339844 1428.578125 C 1312.839844 1428.578125 1302.839844 1418.578125 1302.839844 1406.078125 C 1302.839844 1393.578125 1312.839844 1383.578125 1325.339844 1383.578125 L 1486.429688 1383.578125 C 1498.929688 1383.578125 1508.929688 1393.578125 1508.929688 1406.078125 C 1508.929688 1418.578125 1498.769531 1428.578125 1486.429688 1428.578125 "/>
    <path fill-rule="evenodd" fill="rgb(100%, 100%, 100%)" fill-opacity="1"
          d="M 1579.398438 1776.390625 C 1567.050781 1776.390625 1556.898438 1766.238281 1556.898438 1753.890625 L 1556.898438 1592.960938 C 1556.898438 1580.609375 1567.050781 1570.460938 1579.398438 1570.460938 C 1591.738281 1570.460938 1601.898438 1580.609375 1601.898438 1592.960938 L 1601.898438 1753.890625 C 1601.890625 1766.238281 1591.738281 1776.390625 1579.398438 1776.390625 "/>
    <path fill-rule="evenodd" fill="rgb(100%, 100%, 100%)" fill-opacity="1"
          d="M 1659.871094 1695.769531 L 1498.769531 1695.769531 C 1486.269531 1695.769531 1476.269531 1685.609375 1476.269531 1673.269531 C 1476.269531 1660.929688 1486.269531 1650.769531 1498.769531 1650.769531 L 1659.871094 1650.769531 C 1672.210938 1650.769531 1682.371094 1660.929688 1682.371094 1673.269531 C 1682.371094 1685.609375 1672.210938 1695.769531 1659.871094 1695.769531 "/>
    <path fill-rule="evenodd" fill="rgb(100%, 100%, 100%)" fill-opacity="1"
          d="M 1752.828125 2043.578125 C 1740.488281 2043.578125 1730.328125 2033.421875 1730.328125 2021.078125 L 1730.328125 1859.988281 C 1730.328125 1847.640625 1740.488281 1837.488281 1752.828125 1837.488281 C 1765.179688 1837.488281 1775.328125 1847.640625 1775.328125 1859.988281 L 1775.328125 2021.078125 C 1775.328125 2033.421875 1765.179688 2043.578125 1752.828125 2043.578125 "/>
    <path fill-rule="evenodd" fill="rgb(100%, 100%, 100%)" fill-opacity="1"
          d="M 1833.300781 1962.960938 L 1672.210938 1962.960938 C 1659.859375 1962.960938 1649.710938 1952.800781 1649.710938 1940.460938 C 1649.710938 1928.109375 1659.859375 1917.960938 1672.210938 1917.960938 L 1833.300781 1917.960938 C 1845.648438 1917.960938 1855.800781 1928.109375 1855.800781 1940.460938 C 1855.800781 1952.800781 1845.648438 1962.960938 1833.300781 1962.960938 "/>
    <path fill-rule="evenodd" fill="rgb(100%, 100%, 100%)" fill-opacity="1"
          d="M 1035.488281 1509.210938 C 1023 1509.210938 1012.988281 1499.210938 1012.988281 1486.710938 L 1012.988281 1325.609375 C 1012.988281 1313.121094 1023 1303.109375 1035.488281 1303.109375 C 1047.988281 1303.109375 1057.988281 1313.121094 1057.988281 1325.609375 L 1057.988281 1486.710938 C 1057.988281 1499.050781 1047.988281 1509.210938 1035.488281 1509.210938 "/>
    <path fill-rule="evenodd" fill="rgb(100%, 100%, 100%)" fill-opacity="1"
          d="M 1116.121094 1428.578125 L 955.027344 1428.578125 C 942.527344 1428.578125 932.527344 1418.578125 932.527344 1406.078125 C 932.527344 1393.578125 942.527344 1383.578125 955.027344 1383.578125 L 1116.121094 1383.578125 C 1128.621094 1383.578125 1138.621094 1393.578125 1138.621094 1406.078125 C 1138.621094 1418.578125 1128.460938 1428.578125 1116.121094 1428.578125 "/>
    <path fill-rule="evenodd" fill="rgb(100%, 100%, 100%)" fill-opacity="1"
          d="M 1208.929688 1776.390625 C 1196.429688 1776.390625 1186.429688 1766.238281 1186.429688 1753.890625 L 1186.429688 1592.960938 C 1186.429688 1580.609375 1196.429688 1570.460938 1208.929688 1570.460938 C 1221.429688 1570.460938 1231.429688 1580.609375 1231.429688 1592.960938 L 1231.429688 1753.890625 C 1231.429688 1766.238281 1221.429688 1776.390625 1208.929688 1776.390625 "/>
    <path fill-rule="evenodd" fill="rgb(100%, 100%, 100%)" fill-opacity="1"
          d="M 1289.550781 1695.769531 L 1128.460938 1695.769531 C 1115.960938 1695.769531 1105.960938 1685.609375 1105.960938 1673.269531 C 1105.960938 1660.929688 1115.960938 1650.769531 1128.460938 1650.769531 L 1289.550781 1650.769531 C 1302.050781 1650.769531 1312.050781 1660.929688 1312.050781 1673.269531 C 1312.050781 1685.609375 1301.898438 1695.769531 1289.550781 1695.769531 "/>
    <path fill-rule="evenodd" fill="rgb(100%, 100%, 100%)" fill-opacity="1"
          d="M 1382.519531 2043.578125 C 1370.03125 2043.578125 1360.019531 2033.421875 1360.019531 2021.078125 L 1360.019531 1859.988281 C 1360.019531 1847.640625 1370.03125 1837.488281 1382.519531 1837.488281 C 1395.019531 1837.488281 1405.019531 1847.640625 1405.019531 1859.988281 L 1405.019531 2021.078125 C 1404.859375 2033.421875 1394.871094 2043.578125 1382.519531 2043.578125 "/>
    <path fill-rule="evenodd" fill="rgb(100%, 100%, 100%)" fill-opacity="1"
          d="M 1462.988281 1962.960938 L 1301.898438 1962.960938 C 1289.398438 1962.960938 1279.398438 1952.800781 1279.398438 1940.460938 C 1279.398438 1928.109375 1289.398438 1917.960938 1301.898438 1917.960938 L 1462.988281 1917.960938 C 1475.488281 1917.960938 1485.488281 1928.109375 1485.488281 1940.460938 C 1485.488281 1952.800781 1475.339844 1962.960938 1462.988281 1962.960938 "/>
</svg>
