<?xml version="1.0" encoding="UTF-8"?>
<svg xmlns="http://www.w3.org/2000/svg" xmlns:xlink="http://www.w3.org/1999/xlink" width="3000" height="3000"
     viewBox="0 0 3000 3000">
    <path fill-rule="evenodd" fill="rgb(67.381287%, 39.988708%, 39.208984%)" fill-opacity="1"
          d="M 1500 0 C 2328.429688 0 3000 671.570312 3000 1500 C 3000 2328.425781 2328.429688 3000 1500 3000 C 671.574219 3000 0 2328.425781 0 1500 C 0 671.570312 671.574219 0 1500 0 "/>
    <path fill-rule="nonzero" fill="rgb(93.359375%, 94.53125%, 94.921875%)" fill-opacity="1"
          d="M 704.972656 1657.480469 L 810.589844 1657.480469 L 806.964844 1671.019531 C 801.101562 1692.890625 808.425781 1715.570312 824.679688 1730.980469 L 1157.78125 2046.703125 C 1186.851562 2074.261719 1218.101562 2065.953125 1246.738281 2044.652344 C 1248.039062 2043.691406 1249.871094 2042.238281 1251.851562 2040.71875 C 1259.160156 2049.359375 1266.261719 2058.304688 1273.300781 2066.898438 C 1288.648438 2085.625 1304.179688 2104.199219 1320.78125 2121.847656 C 1357.398438 2160.769531 1408.128906 2205.265625 1464.980469 2204.003906 C 1488.808594 2203.472656 1510.429688 2194.957031 1529.21875 2180.476562 C 1536.378906 2174.957031 1542.339844 2168.222656 1546.550781 2160.1875 L 1553.019531 2147.828125 L 1564.289062 2153.441406 C 1608.410156 2191.253906 1662.199219 2185.355469 1707.539062 2152.785156 C 1711.941406 2149.628906 1715.929688 2146.121094 1719.410156 2141.957031 L 1741.519531 2115.46875 L 1741.511719 2115.460938 L 1817.210938 2024.96875 C 1869.070312 2075.9375 1934.050781 2074.46875 1985.300781 2024.730469 C 1987.980469 2022.132812 1986.691406 2023.710938 1990.050781 2019.714844 L 2011.558594 1994.089844 L 2011.480469 1994.019531 L 2177.808594 1796.140625 C 2187.53125 1784.570312 2193.628906 1770.96875 2193.628906 1755.648438 L 2193.628906 1684.148438 C 2193.628906 1674.878906 2193.441406 1678.410156 2192.421875 1672.328125 L 2189.929688 1657.480469 L 2295.03125 1657.480469 C 2327.070312 1657.480469 2353.339844 1683.800781 2353.339844 1715.800781 L 2353.339844 2261.636719 C 2353.339844 2293.679688 2327.019531 2319.949219 2295.03125 2319.949219 L 704.972656 2319.949219 C 672.898438 2319.949219 646.660156 2293.683594 646.660156 2261.636719 L 646.660156 1715.800781 C 646.660156 1683.71875 672.925781 1657.480469 704.972656 1657.480469 "/>
    <path fill-rule="nonzero" fill="rgb(14.501953%, 5.488586%, 11.767578%)" fill-opacity="1"
          d="M 2159.550781 1677.851562 L 2152.351562 1634.96875 C 2143.988281 1585.070312 2131.671875 1511.53125 2126.539062 1483.289062 C 2118.339844 1438.210938 2053.5 1410.558594 2032.050781 1402.578125 C 1936.878906 1299.738281 1857 932.070312 1856.769531 931 L 1856.769531 930.910156 C 1855.039062 923.039062 1850 916.75 1843.429688 913.191406 L 1489.871094 684.429688 L 1489.871094 684.328125 C 1477.511719 676.339844 1461 679.878906 1453 692.238281 C 1452.351562 693.238281 1451.78125 694.261719 1451.289062 695.308594 L 1241.878906 1097.238281 L 1045.210938 1149.929688 L 1045.179688 1149.898438 C 1033.121094 1153.128906 1025.21875 1164.128906 1025.410156 1176.070312 L 1025.410156 1347.660156 L 919.886719 1408.578125 L 919.855469 1408.519531 C 913.054688 1412.449219 908.636719 1418.921875 907.113281 1426.039062 L 839.160156 1679.640625 C 836.425781 1689.890625 840.046875 1700.328125 847.609375 1706.789062 L 1180.699219 2022.515625 C 1209.621094 2054.074219 1238.46875 1992.308594 1263.078125 2003.226562 C 1312.898438 2055.890625 1421.328125 2227.066406 1508.871094 2154.074219 C 1512.191406 2151.71875 1515.011719 2148.570312 1517.019531 2144.726562 L 1516.941406 2144.644531 L 1538.558594 2103.378906 L 1583.121094 2125.585938 C 1627.960938 2167.15625 1675.871094 2135.203125 1688.101562 2125.714844 C 1690.191406 2124.328125 1692.128906 2122.621094 1693.820312 2120.59375 L 1693.78125 2120.566406 L 1796.289062 1998.039062 C 1796.820312 1997.46875 1797.339844 1996.878906 1797.828125 1996.25 L 1797.820312 1996.210938 C 1797.859375 1996.148438 1814.390625 1974.710938 1839.148438 1999.769531 C 1898.210938 2059.535156 1950.820312 2012.390625 1962.089844 2000.816406 C 1962.941406 2000.03125 1963.761719 1999.191406 1964.519531 1998.28125 L 1964.429688 1998.199219 L 2152.289062 1774.699219 C 2157.230469 1769.859375 2160.300781 1763.109375 2160.300781 1755.648438 L 2160.300781 1684.148438 C 2160.300781 1681.980469 2160.039062 1679.871094 2159.550781 1677.851562 "/>
</svg>
