<?xml version="1.0" encoding="UTF-8"?>
<svg xmlns="http://www.w3.org/2000/svg" xmlns:xlink="http://www.w3.org/1999/xlink" width="3000" height="3000"
     viewBox="0 0 3000 3000">
    <path fill-rule="evenodd" fill="rgb(70.896912%, 91.796875%, 84.375%)" fill-opacity="1"
          d="M 1500 0 C 2328.421875 0 3000 671.578125 3000 1500 C 3000 2328.421875 2328.421875 2999.996094 1500 2999.996094 C 671.578125 2999.996094 0.00390625 2328.421875 0.00390625 1500 C 0.00390625 671.578125 671.578125 0 1500 0 "/>
    <path fill-rule="evenodd" fill="rgb(0%, 0%, 0.78125%)" fill-opacity="1"
          d="M 2082.578125 2459.984375 L 917.402344 2459.984375 C 709.3125 2459.984375 540.003906 2290.675781 540.003906 2082.566406 L 540.003906 917.410156 C 540.003906 709.320312 709.300781 540.011719 917.402344 540.011719 L 2082.578125 540.011719 C 2290.679688 540.011719 2460 709.308594 2460 917.410156 L 2460 2082.585938 C 2459.980469 2290.6875 2290.671875 2459.984375 2082.578125 2459.984375 Z M 917.402344 583.980469 C 733.558594 583.980469 583.972656 733.550781 583.972656 917.410156 L 583.972656 2082.585938 C 583.972656 2266.445312 733.539062 2416.015625 917.402344 2416.015625 L 2082.578125 2416.015625 C 2266.441406 2416.015625 2416.011719 2266.445312 2416.011719 2082.585938 L 2416.011719 917.410156 C 2416.011719 733.558594 2266.441406 583.980469 2082.578125 583.980469 L 917.402344 583.980469 "/>
    <path fill-rule="evenodd" fill="rgb(0%, 0%, 0.78125%)" fill-opacity="1"
          d="M 2438 1088.261719 L 2019.191406 1088.261719 C 1915.820312 1088.261719 1831.738281 1004.171875 1831.738281 900.808594 L 1831.738281 561.988281 C 1831.738281 549.859375 1841.601562 540.011719 1853.730469 540.011719 C 1865.851562 540.011719 1875.710938 549.859375 1875.710938 561.988281 L 1875.710938 900.800781 C 1875.710938 979.910156 1940.078125 1044.28125 2019.179688 1044.28125 L 2437.980469 1044.28125 C 2450.121094 1044.28125 2459.96875 1054.128906 2459.96875 1066.261719 C 2459.96875 1078.398438 2450.140625 1088.261719 2438 1088.261719 "/>
    <path fill-rule="evenodd" fill="rgb(0%, 0%, 0.78125%)" fill-opacity="1"
          d="M 2020.980469 2184.289062 L 979.003906 2184.289062 C 966.871094 2184.289062 957.019531 2174.429688 957.019531 2162.308594 C 957.019531 2150.183594 966.871094 2140.320312 979.003906 2140.320312 L 2020.980469 2140.320312 C 2033.109375 2140.320312 2042.960938 2150.183594 2042.960938 2162.308594 C 2042.960938 2174.429688 2033.121094 2184.289062 2020.980469 2184.289062 "/>
    <path fill-rule="evenodd" fill="rgb(0%, 0%, 0.78125%)" fill-opacity="1"
          d="M 1124.328125 1158.699219 C 1112.199219 1158.699219 1102.351562 1148.851562 1102.351562 1136.71875 C 1102.351562 1124.578125 1112.199219 1114.730469 1124.328125 1114.730469 C 1161.710938 1114.730469 1192.121094 1084.320312 1192.121094 1046.941406 C 1192.121094 1009.570312 1161.710938 979.160156 1124.328125 979.160156 C 1086.960938 979.160156 1056.550781 1009.570312 1056.550781 1046.941406 C 1056.550781 1059.078125 1046.699219 1068.929688 1034.558594 1068.929688 C 1022.429688 1068.929688 1012.578125 1059.078125 1012.578125 1046.941406 C 1012.578125 985.320312 1062.710938 935.191406 1124.328125 935.191406 C 1185.96875 935.191406 1236.089844 985.320312 1236.089844 1046.941406 C 1236.089844 1108.558594 1185.96875 1158.699219 1124.328125 1158.699219 "/>
    <path fill-rule="evenodd" fill="rgb(0%, 0%, 0.78125%)" fill-opacity="1"
          d="M 1124.328125 1338.238281 C 1062.710938 1338.238281 1012.578125 1288.101562 1012.578125 1226.480469 C 1012.578125 1214.351562 1022.429688 1204.5 1034.558594 1204.5 C 1046.699219 1204.5 1056.550781 1214.351562 1056.550781 1226.480469 C 1056.550781 1263.859375 1086.960938 1294.269531 1124.328125 1294.269531 C 1161.710938 1294.269531 1192.121094 1263.859375 1192.121094 1226.480469 C 1192.121094 1189.109375 1161.710938 1158.699219 1124.328125 1158.699219 C 1112.199219 1158.699219 1102.351562 1148.851562 1102.351562 1136.710938 C 1102.351562 1124.578125 1112.199219 1114.730469 1124.328125 1114.730469 C 1185.96875 1114.730469 1236.089844 1164.859375 1236.089844 1226.480469 C 1236.089844 1288.101562 1185.96875 1338.238281 1124.328125 1338.238281 "/>
    <path fill-rule="evenodd" fill="rgb(0%, 0%, 0.78125%)" fill-opacity="1"
          d="M 1580.539062 2039.972656 L 1313.921875 2039.972656 C 1301.78125 2039.972656 1291.941406 2030.109375 1291.941406 2017.988281 L 1291.941406 1603.949219 C 1291.941406 1591.808594 1301.78125 1581.960938 1313.921875 1581.960938 C 1326.050781 1581.960938 1335.898438 1591.820312 1335.898438 1603.949219 L 1335.898438 1995.988281 L 1580.53125 1995.988281 C 1592.660156 1995.988281 1602.511719 2005.855469 1602.511719 2017.976562 C 1602.511719 2030.101562 1592.679688 2039.972656 1580.539062 2039.972656 "/>
    <path fill-rule="evenodd" fill="rgb(0%, 0%, 0.78125%)" fill-opacity="1"
          d="M 1686.050781 2039.972656 C 1673.921875 2039.972656 1664.070312 2030.109375 1664.070312 2017.988281 L 1664.070312 1813.929688 C 1664.070312 1801.800781 1673.929688 1791.949219 1686.050781 1791.949219 C 1698.171875 1791.949219 1708.039062 1801.808594 1708.039062 1813.929688 L 1708.039062 2017.976562 C 1708.039062 2030.109375 1698.191406 2039.972656 1686.050781 2039.972656 "/>
    <path fill-rule="evenodd" fill="rgb(0%, 0%, 0.78125%)" fill-opacity="1"
          d="M 1686.050781 1775.058594 C 1673.921875 1775.058594 1664.070312 1765.199219 1664.070312 1753.078125 L 1664.070312 1743.179688 C 1664.070312 1731.050781 1673.929688 1721.199219 1686.050781 1721.199219 C 1698.171875 1721.199219 1708.039062 1731.058594 1708.039062 1743.179688 L 1708.039062 1753.078125 C 1708.039062 1765.210938 1698.191406 1775.058594 1686.050781 1775.058594 "/>
    <path fill-rule="evenodd" fill="rgb(100%, 77.34375%, 77.34375%)" fill-opacity="1"
          d="M 1664.070312 1743.179688 C 1664.070312 1731.050781 1673.929688 1721.199219 1686.050781 1721.199219 C 1698.179688 1721.199219 1708.039062 1731.058594 1708.039062 1743.179688 L 1708.039062 1753.078125 C 1708.039062 1765.210938 1698.191406 1775.058594 1686.050781 1775.058594 C 1673.921875 1775.058594 1664.070312 1765.199219 1664.070312 1753.078125 Z M 1335.910156 1995.988281 L 1580.53125 1995.988281 C 1592.660156 1995.988281 1602.511719 2005.855469 1602.511719 2017.976562 C 1602.511719 2030.101562 1592.679688 2039.972656 1580.539062 2039.972656 L 1313.921875 2039.972656 C 1301.78125 2039.972656 1291.929688 2030.113281 1291.929688 2017.984375 L 1291.929688 1603.949219 C 1291.929688 1591.808594 1301.78125 1581.960938 1313.921875 1581.960938 C 1326.050781 1581.960938 1335.910156 1591.820312 1335.910156 1603.949219 Z M 979.007812 2140.324219 L 2020.980469 2140.324219 C 2033.109375 2140.324219 2042.960938 2150.183594 2042.960938 2162.304688 C 2042.960938 2174.433594 2033.121094 2184.289062 2020.980469 2184.289062 L 979.007812 2184.289062 C 966.871094 2184.289062 957.019531 2174.433594 957.019531 2162.304688 C 957.019531 2150.183594 966.871094 2140.324219 979.007812 2140.324219 Z M 917.402344 2416.019531 L 2082.578125 2416.019531 C 2266.441406 2416.019531 2416.011719 2266.445312 2416.011719 2082.585938 L 2416.011719 1088.261719 L 2019.191406 1088.261719 C 1915.820312 1088.261719 1831.738281 1004.171875 1831.738281 900.808594 L 1831.738281 583.980469 L 917.402344 583.980469 C 733.558594 583.980469 583.972656 733.550781 583.972656 917.410156 L 583.972656 2082.585938 C 583.972656 2266.445312 733.539062 2416.019531 917.402344 2416.019531 Z M 1664.070312 2017.984375 L 1664.070312 1813.929688 C 1664.070312 1801.800781 1673.929688 1791.949219 1686.050781 1791.949219 C 1698.179688 1791.949219 1708.039062 1801.808594 1708.039062 1813.929688 L 1708.039062 2017.976562 C 1708.039062 2030.113281 1698.191406 2039.972656 1686.050781 2039.972656 C 1673.921875 2039.972656 1664.070312 2030.113281 1664.070312 2017.984375 Z M 1190.828125 1136.710938 C 1218.28125 1157.101562 1236.089844 1189.75 1236.089844 1226.480469 C 1236.089844 1288.101562 1185.96875 1338.238281 1124.339844 1338.238281 C 1062.710938 1338.238281 1012.570312 1288.101562 1012.570312 1226.480469 C 1012.570312 1214.351562 1022.429688 1204.5 1034.558594 1204.5 C 1046.699219 1204.5 1056.550781 1214.351562 1056.550781 1226.480469 C 1056.550781 1263.859375 1086.960938 1294.269531 1124.339844 1294.269531 C 1161.710938 1294.269531 1192.121094 1263.859375 1192.121094 1226.480469 C 1192.121094 1189.308594 1162.039062 1159.03125 1124.949219 1158.699219 C 1124.75 1158.699219 1124.539062 1158.699219 1124.339844 1158.699219 C 1112.199219 1158.699219 1102.351562 1148.851562 1102.351562 1136.710938 C 1102.351562 1124.570312 1112.199219 1114.730469 1124.339844 1114.730469 C 1124.539062 1114.730469 1124.75 1114.730469 1124.949219 1114.730469 C 1124.988281 1114.730469 1125.019531 1114.730469 1125.058594 1114.730469 C 1162.101562 1114.339844 1192.121094 1084.078125 1192.121094 1046.949219 C 1192.121094 1009.570312 1161.710938 979.160156 1124.339844 979.160156 C 1086.960938 979.160156 1056.550781 1009.570312 1056.550781 1046.949219 C 1056.550781 1059.078125 1046.699219 1068.929688 1034.558594 1068.929688 C 1022.429688 1068.929688 1012.570312 1059.078125 1012.570312 1046.949219 C 1012.570312 985.320312 1062.710938 935.191406 1124.339844 935.191406 C 1185.96875 935.191406 1236.089844 985.320312 1236.089844 1046.949219 C 1236.089844 1083.679688 1218.28125 1116.328125 1190.828125 1136.710938 "/>
    <path fill-rule="evenodd" fill="rgb(96.09375%, 63.476562%, 74.021912%)" fill-opacity="1"
          d="M 1875.710938 900.800781 C 1875.710938 979.910156 1940.078125 1044.28125 2019.179688 1044.28125 L 2416.011719 1044.28125 L 2416.011719 917.410156 C 2416.011719 733.558594 2266.441406 583.980469 2082.578125 583.980469 L 1875.710938 583.980469 L 1875.710938 900.800781 "/>
</svg>
