<?xml version="1.0" encoding="UTF-8" standalone="no"?>
<!-- Created with Inkscape (http://www.inkscape.org/) -->

<svg
        version="1.1"
        id="svg2"
        width="3269.3333"
        height="2197.3333"
        viewBox="0 0 3269.3333 2197.3333"
        sodipodi:docname="vecteezy_vintage-retro-angus-cow-bull-cattle-livestock-for-rural_.eps"
        xmlns:inkscape="http://www.inkscape.org/namespaces/inkscape"
        xmlns:sodipodi="http://sodipodi.sourceforge.net/DTD/sodipodi-0.dtd"
        xmlns="http://www.w3.org/2000/svg"
        xmlns:svg="http://www.w3.org/2000/svg">
    <defs
            id="defs6"/>
    <sodipodi:namedview
            id="namedview4"
            pagecolor="#ffffff"
            bordercolor="#000000"
            borderopacity="0.25"
            inkscape:showpageshadow="2"
            inkscape:pageopacity="0.0"
            inkscape:pagecheckerboard="0"
            inkscape:deskcolor="#d1d1d1"/>
    <g
            id="g8"
            inkscape:groupmode="layer"
            inkscape:label="ink_ext_XXXXXX"
            transform="matrix(1.3333333,0,0,-1.3333333,0,2197.3333)">
        <g
                id="g10"
                transform="scale(0.1)">
            <path
                    d="M 24520,0 H 0 V 16480 H 24520 V 0"
                    style="fill:#ffffff;fill-opacity:1;fill-rule:nonzero;stroke:none"
                    id="path12"/>
            <path
                    d="m 16000.2,6167.7 c 26.6,6.6 54.4,12.7 83.6,18.4 -23.2,-26.5 -50.7,-49.1 -83.5,-69.5 0,17 -0.1,34 -0.1,51.1 z m -243.1,-155.2 h -30 c 0,31.7 0,63.9 0,96.2 -18.9,-5.1 -40.9,-8.6 -68.9,-8.7 23.3,17.3 43.1,32.1 63,46.8 -2.4,1 -4.7,2.1 -7.1,3.1 -37.6,-11.2 -75.1,-22.3 -112.7,-33.4 36.3,24.3 79,43 125.7,58.4 0,4.6 0,9.3 0,14 -45.2,-12.6 -89.6,-27.7 -135.5,-44 62.8,73.8 15,157 127.6,216.6 -50,-9.9 -77.3,-28.7 -91.7,-52.4 -11.9,-19.7 -17.1,-40.6 -30.8,-59.9 -20.7,-28.9 -46.4,-56.9 -69.9,-85.3 -3,1 -6,1.9 -9,2.8 8.4,33.1 16.7,66.1 25.1,99.2 -3.3,0 -6.5,0.1 -9.8,0.2 -37.9,-44.5 -75.8,-89.1 -113.7,-133.6 -5.4,0.8 -10.7,1.7 -16.1,2.5 6.4,29.8 12.8,59.5 19.8,92.5 -14.2,-12.7 -25.5,-22.9 -41.5,-37.3 v 16.7 c -34.4,-23 -69.1,-46.2 -103.8,-69.3 l -10.8,4.3 c 14.3,63.9 81.9,113.3 162.7,159.2 -84,-23.9 -133.7,-63.3 -177.7,-106.8 -6.9,7.9 -11.8,13.5 -19.3,22.3 -9.5,-26 -17.6,-48.3 -25.7,-70.6 -2.1,0.1 -4.1,0.2 -6.2,0.3 -3.8,10.6 -7.6,21.2 -12.4,34.9 -16.8,-10.5 -28.7,-17.9 -40.5,-25.3 l -5.8,1.5 c 17.2,19.6 34.4,39.3 51.6,58.9 -1.8,0.6 -3.5,1.1 -5.3,1.7 -23.5,-16 -47.1,-31.9 -75,-50.9 6.8,27 12.4,49.5 18.1,72.1 -29.2,-41.4 -70.1,-77.1 -136.5,-101.3 15,43 30.1,86.4 45.2,129.7 l -13.2,1.8 c -31.6,-48.8 -84.5,-90.2 -149.9,-127.8 l 24.9,69.5 3.9,7 c 79.7,15.5 72.7,59 44.2,109.6 2,3 4,6 6,9 -2.9,-1.6 -5.6,-3.3 -8.4,-4.9 -0.2,0.4 -0.5,0.9 -0.7,1.3 -2,40.4 -1.9,80.7 -0.5,120.8 259.2,0 519.1,0 780.6,0 10,0 20,0 30,0 0,-152.7 0,-300.6 0,-441.4 z m -1123.7,222.6 c -3.5,-7.4 -7.3,-14.6 -11.4,-21.7 -0.1,0.8 -0.2,1.5 -0.4,2.4 -15.4,-15.7 -25,-25.5 -34.6,-35.2 -2.4,0.2 -4.8,0.5 -7.2,0.8 v 38.7 c -18.4,-19.1 -32.9,-34.1 -51.5,-53.3 -7.3,82.6 -15.7,159.6 56.4,231.4 -59.9,-41.4 -89.7,-87.4 -91.2,-138.7 -1.4,-48.2 -32.2,-87.2 -79.3,-106.8 8.2,23 16.7,47.1 26.2,74 -47.6,-39.2 -90.8,-75 -134.1,-110.7 -5.2,1.3 -10.3,2.6 -15.5,3.9 7.5,17.2 14.9,34.4 22.4,51.6 -2.1,0.3 -4.2,0.6 -6.3,0.9 -17.6,-14.3 -35.1,-28.6 -58.4,-47.5 v 48.3 c -20,-18.5 -34.7,-32.1 -49.5,-45.8 -1.5,43.7 40,77.2 88.6,109 -3.9,1.5 -7.8,3 -11.7,4.4 -49.5,-30.7 -99,-61.3 -155.7,-96.5 20.9,94 128.1,157.1 226.7,222.8 -93.3,-29 -151.7,-74.4 -209.7,-122 -3.7,6.3 -5.9,10.1 -7.5,12.9 -17.9,-14.9 -36,-30 -54,-45 0.1,0.3 0.2,0.6 0.4,0.9 27.1,25.6 12,59.2 18.2,88.7 110.6,-8.9 85.3,76.2 101.3,132.8 2.2,6.2 4.4,12.4 6.5,18.5 159.5,0 318.9,0 478.5,0 -15.7,-72.9 -31.4,-145.9 -47.2,-218.8 z m -716.8,207.3 c -69.9,-78.9 -128.4,-166.5 -213.5,-233.9 -5.1,-4.1 -10.3,-9.1 -15.3,-14.7 1.2,7.6 2.4,15.2 3.7,23 -22.3,-28.4 -42.4,-54.1 -62.4,-79.6 0,11.7 0,23.6 0,35.5 28.5,25.3 62.2,49.7 101,73.1 -36.2,-9.6 -67.8,-24.2 -101,-48.4 0,82 0,168.1 0,256.5 96.6,0 193.1,0 289.7,0 -0.8,-3.8 -2,-7.4 -2.2,-11.5 z m -287.4,893.91 c 0,48.18 0,96.42 0,145.59 16.7,-11.13 33.4,-22.19 50,-33.46 0.5,-6.75 3,-12.71 7.6,-17.91 l 3.4,-43.68 c -0.2,-16.76 -2.9,-34.24 -1.6,-50.54 53.3,0 106.4,0 159.6,0 3.5,4.23 7.1,8.21 11.1,11.53 13.2,-3.84 26.5,-7.67 39.7,-11.53 380.8,0 759.7,0 1137.8,0 2,29.28 1.9,59.04 -3.7,89.86 -12.6,70.28 -25.1,140.59 -36.5,211.05 71.5,0 143,0 214.5,0 16.4,-88.98 35.7,-177.79 47.8,-267.75 28.5,89.39 57.1,177.08 71,267.75 131.1,0 262.3,0 393.9,0 10,0 20,0 30,0 0,-114.12 0,-221.95 0,-340.25 -705.8,0 -1411,0 -2124.6,0 0,13.17 0,26.24 0,39.34 z m 2127.4,-292.67 c 0,-119.45 0,-223.34 0,-336.19 -710,0 -1414.2,0 -2127.1,0 0,13.22 0,26.23 0,39.35 0,97.97 0,193.78 0,296.84 153.6,0 307.1,0 460.5,0 -0.2,-13.3 -0.4,-26.59 -0.6,-39.88 -30.8,-78.68 -22.5,-163.14 -39.4,-243.88 -1.3,-4.35 -2.7,-8.73 -4,-13.08 88.1,0 176.1,0 264,0 17.9,45.07 35.9,90.15 53.8,135.23 25.8,53.22 51.7,106.55 78.3,161.61 70.4,0 140.6,0 211,0 21.6,-39.88 40.3,-79.52 51.7,-122.5 1.7,-53.79 3.4,-107.58 5.1,-161.35 0,-4.32 -0.1,-8.67 -0.1,-12.99 88.1,0 176.3,0 264.4,0 13.2,98.8 27.5,197.56 35.9,296.84 238,0 476.5,0 716.4,0 10.1,0 20.1,0 30.1,0 z M 13505.6,8173 c -1.7,-0.47 -3.2,-1.02 -4.9,-1.51 -3.9,1.39 -7.9,2.73 -12.1,3.96 -153.9,-44.45 -110.8,-178.76 -128.3,-286.83 -708.5,0 -1409.3,0 -2113.6,0 -1.4,12.98 -2.1,26.16 -2.8,39.34 695.1,0 1387,0 2086.4,0 17.4,108.08 -25.6,242.37 128.2,286.84 4.2,-1.25 8.2,-2.57 12.1,-3.96 1.7,0.5 3.2,1.03 4.9,1.5 50.5,-14.42 78.6,-40.32 94.8,-72.7 -16.1,14 -36.9,25.44 -64.7,33.36 z m -142.9,-2160.5 h -30.1 c 0,65.7 0,133.4 0,202.1 -13.9,34.1 -37,66.6 -80.1,95.9 35.1,-52.5 70.6,-104.9 57.6,-161.1 -7.4,-2.8 -14.7,-5.7 -21.9,-8.6 -10.2,9.6 -21.3,19.9 -35.6,33.4 -38.7,50.8 -66.7,103 -78.8,157.5 2.6,2 5.3,4 8,5.9 -3.2,-0.3 -6.1,-0.8 -9,-1.3 -3,14.5 -5,29.2 -5.6,44.1 -5.1,-16.4 -7.9,-32.7 -8.9,-48.8 -0.2,-0.2 -0.5,-0.3 -0.7,-0.4 -24.8,-19.3 -49.5,-38.5 -72.9,-56.9 5.5,41.4 17.7,82.7 22.4,124.1 2,18.5 -2.5,37.1 -10.3,55.5 78.6,0 157,0 235.8,0 10.1,0 20.1,0 30.1,0 0,-152.7 0,-300.6 0,-441.4 z m -183,142.6 c -13.4,6.9 -26.6,14.7 -46.4,25.7 4.8,15 9.4,29.7 14,44.4 -2,0.2 -4.1,0.4 -6.1,0.6 -11.4,-13.5 -22.8,-27 -34.1,-40.5 -14.1,19 -21.4,39 -23.2,59.6 17.2,26.2 43.2,50.9 74.1,74.9 0,-44.7 14.5,-88.6 38.1,-132.5 z m -36.8,-5.1 c -5.5,4.2 -10.6,8.4 -15.3,12.7 1.7,5.4 3.4,10.7 5.1,16 5.9,-10.3 10.6,-18.4 14.9,-25.8 -1.6,-1 -3.2,-1.9 -4.7,-2.9 z m -93.8,96.2 c -9.8,-7.6 -19.2,-15 -28.1,-22 -6.2,26.7 -14.4,62.3 -22.7,97.9 -4.1,-0.3 -8.3,-0.5 -12.5,-0.8 2.3,-24.6 1.5,-50.1 -1.7,-74.6 -0.1,0.2 -0.3,0.4 -0.4,0.6 0.1,-0.8 0.1,-1.5 0.2,-2.3 -2.9,-21.2 -7.5,-41.6 -13.9,-60.1 -15.5,15 -30.4,29.3 -44.9,43.3 0.2,2.2 0.4,4.4 0.5,6.6 -1,-1.4 -2,-2.8 -3,-4.2 -11.8,11.3 -23.3,22.5 -34.9,33.6 -1.8,-0.5 -3.6,-1 -5.4,-1.5 10.7,-14.5 21.3,-29.1 32,-43.6 -8.5,-12 -17.4,-24.4 -26.9,-37.7 -45.1,31.5 -81.3,65.5 -74.1,111.4 -5,-0.8 -10.1,-1.6 -15.1,-2.4 3.5,-24 7,-48 10.4,-71.8 -87.7,11.9 -97,14.4 -104.2,60.4 -6.5,40.9 -1.4,82.3 -3.9,123.4 -55.6,-82.1 -38.7,-163.2 18.3,-243.9 -4.8,-1.8 -9.7,-3.5 -14.5,-5.2 -46.7,25.4 -93.4,50.7 -138.4,75.2 -0.2,-1.1 -0.8,-6.6 -1.3,-11 -36.2,15.6 -73.5,31.7 -110.9,47.8 -3.1,-1.6 -6.2,-3.1 -9.3,-4.7 68,-30.8 110,-66.1 105.7,-109.9 -11.7,0.2 -23.4,0.4 -35.2,0.7 -2.9,-3 -6,-6 -9.3,-8.9 -11.3,13.1 -22.6,26.3 -34.1,39.8 -4.3,-10 -8.9,-20.6 -16.3,-37.8 -16.8,29 -30.5,52.5 -44.1,76 -1.8,0 -3.7,0 -5.5,0 V 6179 c -53,42.6 -73.4,88.9 -76.7,138.8 -3.4,-7.9 -7.7,-15.8 -10,-23.9 -2.3,-8.1 -2.6,-16.3 -4.1,-27.7 -38.8,44.1 -75.1,85.4 -111.5,126.7 -4.1,-0.8 -8.3,-1.7 -12.5,-2.6 59.3,-67.6 117,-135.4 85.3,-218.6 -33.2,45.6 -45,90.9 -113.3,120.9 33.7,-41.1 79.4,-79.9 79.7,-125.3 -48.5,31.3 -90.7,65.7 -146.5,92.4 -55.3,26.5 -125,44.5 -186.5,67.6 -13.6,5.1 -28.7,16 -27.7,23.7 3.5,29.4 13.3,58.7 22.1,93.5 -85.3,-92 -78.7,-181.8 -34.5,-273.8 -57.3,36.8 -117.1,69.8 -203.5,86 84.3,-31.4 162.3,-65.3 186.7,-123.7 -15,7.2 -31.1,13.8 -44.6,21.7 -13.5,7.8 -24.4,16.9 -42.6,29.8 6.7,-19 11.6,-32.6 18.9,-53.1 -34.5,23.1 -61.6,41.3 -96.5,64.7 9,-20.4 15.2,-34.4 21.3,-48.4 -2.4,-0.6 -4.9,-1.3 -7.3,-1.9 -15.3,12.7 -30.6,25.3 -47.3,39.2 -2.2,-6.4 -4.1,-11.7 -8,-23 -19.8,27.6 -35.9,50.2 -52.1,72.8 1.6,-36.9 20.5,-72.8 -12.2,-109 -34.8,38.4 -54.8,121.4 -48,195.5 -4.2,0.3 -8.4,0.5 -12.5,0.8 -8.3,-35.6 -16.5,-71.2 -22.7,-97.9 -17.6,13.8 -37.2,29.2 -57.6,45.3 3.3,43 5.9,86.1 6.7,129.2 0.3,18.4 0.3,36.8 0.4,55.2 546.2,0 1092,0 1642.9,0 0.2,-22.7 0.6,-45.4 -0.4,-68.2 -0.6,-14 -0.3,-28.7 -7.9,-41.9 -18.7,-32.4 -30.8,-64.9 -34,-97.6 z m -100.2,-105.8 c -9.4,6.4 -19,12.7 -28.7,18.9 -3.3,16.2 -0.5,32.5 2.2,48.8 12.2,-16.6 24.4,-33.2 36.6,-49.8 -3.2,-6.4 -6.5,-12.4 -10.1,-17.9 z m -119,15.1 c -4.6,1.7 -9,3.5 -13.2,5.4 2.3,5.3 4.8,10.9 7.5,17.1 -8.4,-3 -17.1,-5.7 -26.1,-8.3 -32.4,17 -56.1,37.3 -85.6,59.6 75.5,-11.7 115.4,-31.7 127.2,-65.7 -3.3,-2.7 -6.6,-5.4 -9.8,-8.1 z m -641.7,-20.5 c -9,0.9 -18,1.9 -29.7,3.1 6,-9.6 10.7,-17 15.5,-24.8 -72.5,6.4 -73.7,43.3 -114.1,70.3 7.8,-24 13.8,-42.4 19.8,-60.7 -2.6,-0.4 -5.1,-0.7 -7.7,-1.1 -16.8,18.7 -33.7,37.3 -50.5,55.9 -2.2,-0.4 -4.4,-0.9 -6.7,-1.3 1.7,-8.8 3.4,-17.6 5,-26.4 -1.8,-0.3 -3.6,-0.6 -5.4,-0.9 -8.5,8.2 -16.9,16.4 -28.7,27.8 -1.5,-9.6 -2.5,-15.7 -3.4,-21.7 -2.9,0 -5.7,0 -8.5,0 -3.2,22.3 -6.4,44.6 -9.5,67 6.3,2.1 12.7,4.3 19.1,6.4 71.2,-28.7 142.5,-57.5 213.7,-86.2 -2.9,-2.5 -5.9,-4.9 -8.9,-7.4 z m -316,184.3 c 5.7,1 11.5,2 17.2,3.1 125.2,-39.3 239.6,-84.2 302.5,-156.3 -40,12.5 -76.1,27.2 -113.8,40.6 -35.8,12.7 -73.3,24 -109.8,35.9 -17,1.7 -52,0.7 -56.8,6.6 -18.4,22.1 -27,46.5 -39.3,70.1 z m 69.2,-110.3 c -7.4,-10 -5.7,-21.9 -8,-33 -2.5,-0.2 -4.9,-0.4 -7.4,-0.7 -9.7,21.4 -19.4,42.7 -29.7,65.3 45.5,-2.6 60.2,-11 45.1,-31.6 z m -489.6,-69.8 c -6.5,7.7 -13,15.4 -19.5,23.1 2.3,25.9 4.5,51.9 6.7,77.8 19,-31.1 25.6,-64.3 12.8,-100.9 z m -9.6,1197.11 c -4.7,17.89 -10.2,35.74 -17,53.54 1.7,8.98 2.8,17.97 3.5,27.01 38,-19.57 62.2,-39.57 130.2,-12.38 91.5,36.59 152.4,54.88 213.4,54.88 61,0 91.4,6.09 189,6.09 h 249.9 c 97.6,0 140.2,-42.68 237.8,0 72.4,31.67 74.3,36.49 100.3,49.32 45.5,-5.06 90.9,-10.13 136.3,-15.2 56.4,-8.81 112.7,-12.25 168.6,3.05 101.7,3.46 201.7,16.92 297.9,50.51 62.3,3.42 120.7,20.83 177.2,43.35 0,12.79 0,25.75 0,38.62 10.1,0 20.1,0 30.1,0 0,-113.34 0,-220.55 0,-338.13 -700.7,0 -1400.9,0 -2109.2,0 0,13.13 0,26.24 0,39.34 64.2,0 128,0 192,0 z m -193.6,-628.86 c 0,13.29 0,26.23 0,39.35 66.6,0 132.8,0 199.2,0 -0.1,42.18 0,84.36 0.8,126.54 1,56.67 5.8,113.46 9.6,170.19 625.8,0 1247,0 1873.9,0 10.1,0 20.1,0 30.1,0 0,-119.4 0,-223.27 0,-336.08 -705.5,0 -1405.3,0 -2113.6,0 z m -265.4,604.21 c -6.9,-6.28 -18.4,-11.3 -32.8,-15.55 -696.8,0 -1390.49,0 -2094.57,0 0,13.13 0,26.24 0,39.34 0,98.18 0,196.24 0,299.65 391.12,0 780.13,0 1169.37,0 12.4,-12.54 25.6,-22.98 40.1,-29.43 54.9,-24.39 250,-128.02 250,-128.02 0,0 170.7,-67.06 201.1,-67.06 16.3,0 44.6,0 74.8,0.91 7.2,-9.56 13.3,-20.48 18.4,-33.24 -1.1,-14.61 -0.1,-28.8 1.9,-42.81 102.9,0 205.8,0 308.8,0 14.4,4.26 25.9,9.28 32.8,15.57 0,97.26 0,188.81 0,284.08 10.1,0 20.1,0 30.1,0 0,-109.82 0,-212.78 0,-323.44 z m -0.3,-605.31 c -710.9,0 -1415.45,0 -2128.68,0 0,13.3 0,26.23 0,39.35 0,99.74 0,195.43 0,297.83 594.78,0 1184.28,0 1777.28,0 -1.1,-99.32 -3.2,-198.59 -7.7,-297.83 90.8,0 181.7,0 272.7,0 2.1,24.67 1.8,49.64 3.7,74.35 25.9,26.34 7.6,54.63 4,82.27 0,0 1.6,2.24 1.6,2.4 32.4,18.71 31.1,48.4 27.9,78.72 4.8,19.77 9.6,39.55 14.3,59.33 1.6,-0.89 3.2,-2.14 4.9,-3.11 10.7,-6.45 21.4,-14.53 30,-23.79 0,-104.99 0,-204.09 0,-309.52 z m -1.9,-693.85 h -30.1 c 0,50.4 0,102.5 0,155.3 0,0 -0.1,0 -0.2,0 v -38.9 c -14.2,8.5 -21.8,13 -33.2,19.7 v -27.3 c -4.1,-0.7 -8.3,-1.5 -12.4,-2.3 -24.6,31.4 -49.1,62.7 -76.6,97.8 4.7,-28.9 8.9,-54.8 13.7,-84.5 -17.6,12.8 -37.2,22.9 -53,34.3 27.2,22.2 17.6,62 -1.6,106.5 0,13.1 0,26.2 0,39.3 57.4,35.1 97.3,78.1 84.7,144.6 26.3,0 52.4,0 78.6,0 10.1,0 20.1,0 30.1,0 0,-153.8 0,-303.8 0,-444.5 z m -525.5,267.5 c -1.6,-1 -3.2,-2.2 -4.8,-3.3 -1.3,1.8 -2.7,3.6 -4,5.4 0.8,-2.2 1.6,-4.3 2.4,-6.5 -14.4,-9.8 -28.2,-20.6 -41.1,-32.3 -5.9,4.9 -11.8,9.8 -17.7,14.7 -1.7,-2.8 -3.8,-6.6 -7.5,-12.9 -58,47.6 -116.4,93 -209.7,122 75.9,-50.6 156.7,-99.6 199.5,-162.3 -8.9,-12.1 -14.6,-23.2 -17.2,-32.9 -39,24.1 -75.2,46.5 -111.3,68.9 -3.9,-1.4 -7.8,-2.9 -11.7,-4.4 48.6,-31.8 90.1,-65.3 88.6,-109 -14.8,13.7 -29.5,27.3 -49.5,45.8 v -48.3 c -23.3,18.9 -40.8,33.2 -58.4,47.5 -2.1,-0.3 -4.2,-0.6 -6.3,-0.9 7.5,-17.2 14.9,-34.4 22.4,-51.6 -5.2,-1.3 -10.3,-2.6 -15.5,-3.9 -43.3,35.7 -86.5,71.5 -134.1,110.7 9.5,-26.9 18,-51 26.2,-74 -47.1,19.6 -77.9,58.6 -79.3,106.8 -1.5,51.3 -31.26,97.3 -91.16,138.7 72.06,-71.8 63.69,-148.8 56.39,-231.4 -18.6,19.2 -33.1,34.2 -51.58,53.3 v -38.7 c -2.37,-0.3 -4.74,-0.6 -7.11,-0.8 -9.6,9.7 -19.2,19.5 -34.64,35.2 -3.5,-18.5 -5.81,-30.6 -8.12,-42.8 -4.45,-0.3 -8.91,-0.5 -13.38,-0.8 -8.29,21.6 -16.61,43.2 -25.26,65.7 -6.14,-6.9 -12.41,-13.9 -18.97,-21.3 -24.13,25.9 -47.12,50.5 -70.12,75.2 -4.7,-1 -9.41,-1.9 -14.13,-2.8 33.81,-50.2 79.1,-99.3 67.74,-154 -5.77,-1 -11.53,-1.9 -17.29,-2.9 -19.7,30.2 -39.41,60.3 -60.35,92.4 -10.02,-19.1 -20.21,-38.5 -31.62,-60.3 -36.43,61.3 -56.41,124.6 -143.02,172.5 43.54,-66 97.21,-130.5 92.94,-203.1 -71.88,39.6 -130.04,83.6 -163.84,135.8 -4.41,-0.6 -8.81,-1.2 -13.22,-1.8 15.13,-43.3 30.26,-86.7 45.24,-129.7 -66.43,24.2 -107.29,59.9 -136.48,101.3 5.65,-22.6 11.32,-45.1 18.09,-72.1 -27.93,19 -51.47,34.9 -75,50.9 -1.77,-0.6 -3.54,-1.1 -5.31,-1.7 17.19,-19.6 34.4,-39.3 51.6,-58.9 -1.95,-0.5 -3.89,-1 -5.82,-1.5 -11.83,7.4 -23.67,14.8 -40.44,25.3 -4.89,-13.7 -8.65,-24.3 -12.42,-34.9 -2.09,-0.1 -4.16,-0.2 -6.23,-0.3 -8.11,22.3 -16.23,44.6 -25.67,70.6 -7.53,-8.8 -12.41,-14.4 -19.28,-22.3 -44.03,43.5 -93.75,82.9 -177.76,106.8 80.82,-45.9 148.43,-95.3 162.74,-159.2 -3.62,-1.4 -7.22,-2.9 -10.85,-4.3 -34.69,23.1 -69.4,46.3 -103.77,69.3 v -16.7 c -15.99,14.4 -27.33,24.6 -41.51,37.3 7.05,-33 13.44,-62.7 19.8,-92.5 -5.36,-0.8 -10.73,-1.7 -16.09,-2.5 -37.92,44.5 -75.83,89.1 -113.75,133.6 -3.25,-0.1 -6.5,-0.2 -9.75,-0.2 8.37,-33.1 16.74,-66.1 25.12,-99.2 -3.02,-0.9 -6.03,-1.8 -9.04,-2.8 -23.53,28.4 -49.16,56.4 -69.85,85.3 -13.78,19.3 -18.92,40.2 -30.84,59.9 -7.42,12.2 -18.4,23.1 -34.07,32.2 0,38.2 0,76.7 0,115.7 579.8,0 1154.08,0 1732.68,0 -22.8,-69.5 -64,-130.1 -135.6,-177 z M 8858.42,6168.9 c 0,47.7 0,96 0,145.2 38.15,-52.3 22.5,-113.4 69.95,-169.2 -23.63,8.4 -46.82,16.4 -69.95,24 z m 0,-34.6 c 0,5 0,10.1 0,15.2 21.4,-9.9 41.69,-20.7 60.13,-33 -20.04,5.9 -40.09,11.9 -60.13,17.8 z m 0,-34.1 c 0,0.7 0,1.5 0,2.3 1.19,-0.9 2.19,-1.6 3.41,-2.5 -1.24,0 -2.2,0.2 -3.41,0.2 z m 7389.68,-55.8 c -15.5,-5 -30.9,-9.9 -54.8,-17.6 10.5,8.9 15.5,13.2 24.1,20.5 -35.4,-5.2 -64.3,-9.4 -93.2,-13.7 16.8,13.5 37.5,22.3 58.1,31.1 20.7,8.8 41.5,17.5 62.2,26.3 l -6.3,4.5 c -36,-8.3 -72,-16.7 -116.3,-26.9 76.6,54.1 109.1,92.3 106.1,122.8 -47.3,-55.3 -136.1,-86.1 -227.6,-116.6 0,3.4 0,6.9 0,10.3 44,39.1 86.7,77.1 128.2,113.9 -1.2,0.2 -8.3,1.2 -15.5,2.2 2.1,9 4,17.1 5.8,25.2 -9.9,-23.3 -42.9,-28 -79.7,-36.7 -13.2,-3.1 -26,-6.6 -39,-10 0.1,92.1 0.2,184.2 0.2,276.3 79.7,5.1 139.9,8.9 205,13 0,79.03 0,150.17 0,223.67 -10.4,0.71 -20.1,1.38 -30.1,2.08 -60.7,4.2 -115.3,7.97 -167.1,11.55 0,12.75 0,24.8 0,37.25 0,106.58 0,203.94 0,303.27 72.1,4.48 135.8,8.44 198.3,12.35 0,80.59 0,148.8 0,220.63 -10.3,0.82 -20.1,1.59 -30.1,2.38 -59.9,4.72 -114.7,9.07 -168.2,13.29 0,12.6 0,24.6 0,36.95 0,105.13 0,202.61 0,303.33 71.4,5.64 134.8,10.64 198.5,15.67 0,78.21 0,146.23 0,220.24 -10.2,0.87 -20.1,1.7 -30,2.53 -59.3,4.97 -114.4,9.59 -171.9,14.4 -0.9,12.22 -1.3,24.59 -1.6,36.96 -1.9,81.64 3.7,163.82 -53.1,214.44 -16.6,14.74 -38.2,26.9 -67.1,35.46 -154.5,-44.64 -110.4,-179.92 -128.5,-288.22 -712.8,0 -1417.8,0 -2126.7,0 -1.5,12.96 -2.3,26.13 -3,39.34 375.6,0 750.4,0 1125.6,0 78.7,0 157.5,0 236.2,0 29.8,159.1 59.6,318.2 89.4,477.31 32.9,176.15 79,357.13 98,537.7 25.2,-84.98 43,-171.9 48.9,-262.23 15.2,-230.97 -13.5,-459.07 -37.1,-687.7 -2.3,-21.8 -3.4,-43.47 -3.9,-65.08 47.2,0 94.6,0 141.9,0 -21.9,188.09 -53.5,375.53 -27.6,567.53 33.2,246.04 -7.2,482.1 -120.9,703.19 -41.9,297.7 -255.6,512.8 -552.8,604.34 -405.6,124.92 -808.5,-35.09 -1213.1,-74.68 -231.7,-22.67 -464.9,-4.86 -697.1,-14.77 -192.8,-8.23 -384.5,-32.88 -573.6,-70.4 -168.7,14.87 -337.5,27.65 -506.5,38.01 -83.9,23.42 -166.7,51.16 -248.4,83.5 -25,9.93 -47.4,10.55 -66.7,5.07 -137.1,76.12 -295.9,112.45 -455.3,124.8 -260,20.17 -576,-62.62 -838.4,5.23 -46.25,28.95 -90.06,61.47 -131.49,97.58 -31.31,56.53 -48.01,104.93 -53.17,169.53 -3.48,43.4 -8.72,82.5 -26.86,122.7 -35.96,79.8 -99.21,131.2 -178.7,164.2 -41.27,17.1 -98.02,-26.8 -92.88,-70.8 1.49,-12.7 2.99,-25.5 4.48,-38.3 -18.31,4.7 -36.61,9.4 -54.91,14.1 -0.75,21.4 -10.94,42.5 -34.89,56.7 -28.7,17.1 -77.56,44.8 -128.64,63.8 -25.87,15.7 -53.24,26.5 -81.47,28.9 0,0 -0.34,-3.1 -0.82,-8.6 -44.04,3.4 -81.9,-9.2 -99.95,-52.8 -20.63,-49.9 13.05,-112.6 37.23,-155.7 17.09,-30.4 38.25,-58.6 61.87,-84.5 -111.11,-28.5 -220.9,-63.4 -286.85,-160 -129.55,-189.63 -317.65,-305.18 -528.64,-392.57 -37.24,-15.42 -55.58,-34.27 -63.83,-69.93 -26.81,-116.11 112.1,-332.47 234.65,-351.72 82.44,-12.94 162.89,-30.9 241.1,-55.07 l 146.62,-168.08 121.94,-243.86 225.56,-201.18 60.96,-158.49 c 0,0 6.1,-54.88 30.49,-73.17 24.38,-18.28 195.08,-110.77 195.08,-110.77 0,0 0,-72.11 6.1,-96.5 6.09,-24.38 152.4,-103.64 176.79,-128.03 8.68,-8.67 22.03,-35.22 37.49,-67.87 366.44,0 733.44,0 1102.54,0 4.6,13.28 9.1,26.4 13.6,39.35 9.4,81.58 -9.3,177.88 78.1,226.63 3,8.82 6.1,17.65 9.1,26.42 11.8,-2.76 22.8,-5.87 33,-9.29 1.4,0.42 2.7,0.87 4.1,1.27 41.6,-11.87 68.1,-31.47 85.2,-56.09 6.7,-7.69 12.5,-15.77 17.3,-24.18 -16.8,17.47 -39.8,31.63 -72.4,40.93 -1.4,-0.4 -2.7,-0.84 -4.1,-1.26 -10.2,3.41 -21.2,6.52 -33,9.29 -3,-8.79 -6.1,-17.62 -9.1,-26.45 -87.4,-48.74 -68.7,-145.03 -78.1,-226.61 -4.5,-12.95 -9,-26.07 -13.6,-39.35 -711,0 -1414.31,0 -2121.04,0 -1.34,12.98 -2.11,26.16 -2.75,39.34 -3.6,73.08 -2.68,147 -57.76,198.88 -24.51,23.1 -59.79,41.95 -112.07,54.19 -32.2,-93.43 -65.25,-189.32 -102.09,-296.21 -46.89,-4.16 -110.84,-9.83 -181.92,-16.12 0,-62.64 0,-120.27 0,-180.91 0,-12.29 0,-24.52 0,-37.15 60.88,-4.43 117.36,-8.52 179.76,-13.05 9.78,-0.72 19.31,-1.41 29.45,-2.15 0,-108.48 17.33,-217.23 -9.38,-313.81 -9.38,-33.92 -126.8,-37.98 -197.68,-56.38 0,-55.26 0,-111.08 0,-172.17 0,-13.22 0,-26.36 0,-40.15 53.44,0 99.31,8.77 139.16,-2.94 12.23,-3.59 26.24,-11.93 38.63,-22.17 16.7,-13.8 30.35,-31.14 31.76,-45.88 8.6,-90.09 3.34,-181.53 3.34,-275.75 -81.93,-5.76 -145.91,-10.24 -210.45,-14.78 0,-66.03 0,-126.22 0,-186.67 0,-12.57 0,-25.14 0,-37.74 62.74,-3.3 117.27,-6.1 180.61,-9.4 9.97,-0.5 19.58,-1 30.09,-1.6 0,-150 -0.01,-296.9 0,-443.5 h -30.09 c 0,23.7 0,47.5 0,71.2 -61.95,29 -108.29,61 -144.72,102.4 52.76,-10.3 101.13,-21.8 144.72,-35.7 0,4.1 0,8.2 0,12.4 -32.44,9.5 -65.67,18.8 -100.1,26.9 -36.74,8.7 -69.78,13.4 -79.71,36.7 1.89,-8.1 3.78,-16.2 5.87,-25.2 -7.23,-1 -14.34,-2 -15.5,-2.2 47.32,-42 96.03,-85.3 146.82,-130.5 -97.93,32.7 -195.69,63.9 -246.21,122.9 -3.05,-30.5 29.44,-68.7 106.03,-122.8 -44.29,10.2 -80.27,18.6 -116.25,26.9 -2.1,-1.5 -4.19,-3 -6.29,-4.5 20.72,-8.8 41.44,-17.5 62.14,-26.3 20.65,-8.8 41.29,-17.6 58.08,-31.1 -28.86,4.3 -57.72,8.5 -93.11,13.7 8.52,-7.3 13.58,-11.6 24.05,-20.5 -23.88,7.7 -39.35,12.6 -54.81,17.6 -2.16,-1.1 -4.32,-2.1 -6.47,-3.1 35.44,-21.2 70.6,-42.5 106.68,-63.3 4.59,-2.7 13.77,-3.8 21.17,-4.4 9.29,-0.7 18.96,-0.3 28.47,-0.3 63.08,0 126.15,0 189.23,0 v -0.1 h 247.46 v 0.1 c 707.53,0 1415.08,0 2122.58,0 v -0.1 h 24.4 229.3 18.1 v 0.1 c 117.2,0 234.3,0 351.5,0 h 622.4 c 378.7,0 757.4,0 1136,0 v -0.1 h 12.7 230.8 22.9 v 0.1 h 2128 v -0.1 h 243.5 v 0.1 h 97.7 c 9.5,0 19.1,-0.4 28.4,0.3 7.4,0.6 16.6,1.7 21.2,4.4 36.1,20.8 71.3,42.1 106.7,63.3 -2.2,1 -4.3,2 -6.5,3.1"
                    style="fill:#42210b;fill-opacity:1;fill-rule:nonzero;stroke:none"
                    id="path14"/>
        </g>
    </g>
</svg>
