<?xml version="1.0" encoding="UTF-8" standalone="no"?>
<!-- Created with Inkscape (http://www.inkscape.org/) -->

<svg
        version="1.1"
        id="svg2"
        width="5582.2266"
        height="1936.6801"
        viewBox="0 0 5582.2266 1936.6801"
        sodipodi:docname="vecteezy_three-light-brown-rectangular-planks-of-wood-stacked-on-top_54060651.eps"
        xmlns:inkscape="http://www.inkscape.org/namespaces/inkscape"
        xmlns:sodipodi="http://sodipodi.sourceforge.net/DTD/sodipodi-0.dtd"
        xmlns="http://www.w3.org/2000/svg"
        xmlns:svg="http://www.w3.org/2000/svg">
    <defs
            id="defs6"/>
    <sodipodi:namedview
            id="namedview4"
            pagecolor="#ffffff"
            bordercolor="#000000"
            borderopacity="0.25"
            inkscape:showpageshadow="2"
            inkscape:pageopacity="0.0"
            inkscape:pagecheckerboard="0"
            inkscape:deskcolor="#d1d1d1"/>
    <g
            id="g8"
            inkscape:groupmode="layer"
            inkscape:label="ink_ext_XXXXXX"
            transform="matrix(1.3333333,0,0,-1.3333333,0,1936.68)">
        <g
                id="g10"
                transform="scale(0.1)">
            <path
                    d="M 9488.02,0 0,2391.2 4.07422,4593.33 9492.12,2202.1 9488.02,0"
                    style="fill:#f5c27f;fill-opacity:1;fill-rule:nonzero;stroke:none"
                    id="path12"/>
            <path
                    d="M 9492.12,2202.1 4.07422,4593.33 26472.7,12705.2 l 9488,-2391.1 -26468.58,-8112"
                    style="fill:#eaac62;fill-opacity:1;fill-rule:nonzero;stroke:none"
                    id="path14"/>
            <path
                    d="M 35960.7,10314.1 35956.6,8111.95 9488.02,0 l 4.1,2202.1 26468.58,8112"
                    style="fill:#fbd08f;fill-opacity:1;fill-rule:nonzero;stroke:none"
                    id="path16"/>
            <path
                    d="M 5578.28,3188.5 6326.36,3000 c 36.46,18.6 74.4,38.1 117.68,60.1 935.9,430.5 1945.75,760.6 2941.07,1095.8 l 1034.39,348.3 H 9338.47 c -1171.54,-41.3 -2343.43,-55 -3515.49,-51.2 l -762.04,62.6 c -255.46,23.29 -506.3,113.46 -761.02,145.11 -254.03,42.2 -513.12,9.97 -773.64,-38.23 -269.24,-41.16 -12.65,-35.61 -1670.01,53.54 55.79,27.39 118.19,53.64 172.83,73.44 474.73,178.16 973.13,317.28 1494.89,335.39 l -96.33,363.13 C 2959.65,5196.1 2468.37,5059.33 1976.73,4891.39 666.266,4323.2 2742.51,4486.8 3499.47,4253.6 4210.9,4011.8 6245.66,4131.4 7901.85,4146.7 7334.24,3979.8 6773.38,3783.9 6220.94,3541 6003.03,3439.4 5787.84,3329.3 5578.28,3188.5"
                    style="fill:#e39c58;fill-opacity:1;fill-rule:nonzero;stroke:none"
                    id="path18"/>
            <path
                    d="m 10116.2,2891.9 c 954.9,464.5 1897.5,955 2791.7,1535.2 L 12733,4759.55 C 11744.9,4361.5 10805,3873.8 9877.54,3360.1 l -1383.04,-787.3 -150.37,-81.3 602.39,-151.8 1169.68,552.2"
                    style="fill:#e39c58;fill-opacity:1;fill-rule:nonzero;stroke:none"
                    id="path20"/>
            <path
                    d="M 7847.32,3288.5 1706.54,5423.81 V 7607.86 L 7847.32,5472.49 V 3288.5"
                    style="fill:#fbd08f;fill-opacity:1;fill-rule:nonzero;stroke:none"
                    id="path22"/>
            <path
                    d="M 7847.32,5472.49 1706.54,7607.86 35725.9,13574.4 41866.7,11439.1 7847.32,5472.49"
                    style="fill:#eaac62;fill-opacity:1;fill-rule:nonzero;stroke:none"
                    id="path24"/>
            <path
                    d="M 41866.7,11439.1 V 9175.53 L 7847.32,3288.5 V 5472.49 L 41866.7,11439.1"
                    style="fill:#f7ba71;fill-opacity:1;fill-rule:nonzero;stroke:none"
                    id="path26"/>
            <path
                    d="m 7808.53,6911.23 1886.98,683.11 c 20.71,7.76 1814.79,683.8 1828.89,700.85 v 375.66 c -156,-10.38 -207.4,-27.47 -303.5,-42.9 l -251.1,-56.7 -495.7,-121.73 C 10146.6,8360.98 9822.55,8263.18 9500.14,8160.04 8503.06,7833.56 6446.79,7136.9 5860.63,6265.79 c -17.38,-26.37 -30.22,-57.23 -44.06,-87.15 l 233.32,-81.13 c 4.98,5.69 8.52,12.07 13.8,17.61 351.38,354.86 1127.11,574.46 1744.84,796.11"
                    style="fill:#e39c58;fill-opacity:1;fill-rule:nonzero;stroke:none"
                    id="path28"/>
            <path
                    d="m 4672.92,6576.32 c 748.13,183.24 1576.64,447.55 1686.33,727.77 140.02,408.06 -738.66,445.53 -1861.61,509.55 -386.16,20.8 -773.56,40.36 -1157.96,80.63 l -900.96,-158.02 c 689.81,6.38 1366.37,-43.72 2043.67,-115 351.94,-37.91 1203.22,-109.87 1529.11,-248.06 -355.92,-188.67 -1396.52,-395.72 -2176.08,-505.65 l 837.5,-291.22"
                    style="fill:#e39c58;fill-opacity:1;fill-rule:nonzero;stroke:none"
                    id="path30"/>
            <path
                    d="m 8279.9,6204.46 c 316.59,88.07 2623.8,392.92 5295.6,746.01 5103.7,674.47 11455.9,1513.86 12533,1920.32 l -132.8,351.47 C 24939.3,8831.17 18342.8,7959.33 13526.3,7322.83 c -1220.6,-161.21 -2293.9,-303.12 -3159.4,-421.16 -230.6,29.3 -259.3,109.34 -223.4,185.61 349.7,144.15 713.3,292.31 1067.6,434.75 l -140.2,348.52 C 7767.75,6542.53 7782.42,6498.87 7853.23,6289.58 c 61.54,-181.3 242.92,-136.17 426.67,-85.12"
                    style="fill:#e39c58;fill-opacity:1;fill-rule:nonzero;stroke:none"
                    id="path32"/>
            <path
                    d="m 13261.2,7054.97 -9785.37,1286.21 2.34,2271.22 9785.33,-1286.26 -2.3,-2271.17"
                    style="fill:#fcd497;fill-opacity:1;fill-rule:nonzero;stroke:none"
                    id="path34"/>
            <path
                    d="M 13263.5,9326.14 3478.17,10612.4 30767.6,14525.1 40552.9,13238.9 13263.5,9326.14"
                    style="fill:#fbd08f;fill-opacity:1;fill-rule:nonzero;stroke:none"
                    id="path36"/>
            <path
                    d="m 40552.9,13238.9 0.1,-2267.6 -27291.8,-3916.33 2.3,2271.17 27289.4,3912.76"
                    style="fill:#f5c27f;fill-opacity:1;fill-rule:nonzero;stroke:none"
                    id="path38"/>
            <path
                    d="m 9717.91,9792.2 854.69,-112.34 c 6382.9,586.04 9709.9,952.54 12286.9,1022.14 l 262.9,37.7 c -3569.6,-76.7 -9744,-553.5 -13404.49,-947.5"
                    style="fill:#f5c27f;fill-opacity:1;fill-rule:nonzero;stroke:none"
                    id="path40"/>
            <path
                    d="m 15629.2,12354.6 -2145,-307.6 c -1284,-285.9 -2981.6,-540.6 -5933.58,-850.7 l -2595.88,-372.2 c 6145.86,532.1 8623.46,905.6 10674.46,1530.5"
                    style="fill:#f5c27f;fill-opacity:1;fill-rule:nonzero;stroke:none"
                    id="path42"/>
            <path
                    d="m 11827.5,9514.9 457.2,-60.1 c 1702.6,170.44 3623,353.27 5357.8,499.23 l 2117.5,303.57 c -1963.8,-139.1 -5129.7,-453.57 -7932.5,-742.7"
                    style="fill:#f5c27f;fill-opacity:1;fill-rule:nonzero;stroke:none"
                    id="path44"/>
            <path
                    d="m 26811.6,11650.3 c -3353.2,-311.6 -1492.2,-278.7 -4194.2,-430.6 -6480.1,-345.7 -5210.5,20.7 -14024.68,-983.6 -399.88,-45.8 -795.64,-92.5 -1190.09,-139.6 l 649.36,-85.3 c 3179.71,348.2 7226.31,799.3 7304.51,806.1 2085.5,222.3 8203.7,236.9 9732.2,457.1 841.3,109.4 2731.8,261.2 4418.3,380.7 l 2528.7,362.6 c -1647.5,-102.2 -2280.2,-97.5 -5224.1,-367.4"
                    style="fill:#f5c27f;fill-opacity:1;fill-rule:nonzero;stroke:none"
                    id="path46"/>
            <path
                    d="m 30128.9,13509.3 c 972.1,204.2 2125.4,434.3 3315.2,664 l -452.5,59.5 c -4476.9,-856 -6536.6,-1334.6 -5995.1,-1426.1 548.2,-92.6 3762.4,211.7 9827.6,922.3 l -461.4,60.7 c -1727.3,-200.7 -3469.9,-394.8 -4961.5,-552.7 -927.5,-66 -1398.3,-63.8 -1605.3,-28.8 -375.9,63.5 119.4,234.9 333,301.1"
                    style="fill:#f5c27f;fill-opacity:1;fill-rule:nonzero;stroke:none"
                    id="path48"/>
            <path
                    d="m 26987.6,13439.1 c -1390.4,-314.7 -5288.3,-1180.1 -4967.2,-1294.3 3.4,-2.8 26.8,-8.2 60.4,-13.9 42.7,-7.2 102,-14.8 157.9,-18 129.1,-9.5 286.4,-3.3 284.2,-3 6778.6,264.9 11392.7,951.4 16240.4,1364.2 l -425,55.9 c -1129.7,-120.8 -2313.9,-228.1 -3475.1,-341.9 -4743.5,-459.1 -4980.5,-501.5 -4975.9,-502.2 -1619.1,-168.2 -3669.4,-244.8 -4394.9,-122.3 -366.1,61.9 -394.8,174.4 139.3,351.4 662.7,150.4 1329.5,301.3 2008.1,450.2 1485.4,328.2 3000,653.8 4440.6,987.3 l -541.2,71.2 c -1588.8,-320 -3080.7,-651.1 -4551.6,-984.6"
                    style="fill:#f5c27f;fill-opacity:1;fill-rule:nonzero;stroke:none"
                    id="path50"/>
            <path
                    d="m 26691.1,12015.4 c -964.8,-113.1 -3055.2,-224.6 -4971.3,-305.6 209,10.8 335,16.8 341.7,17.1 -1143.8,-37 -1797.7,-5.3 -2156.6,55.3 -575.9,97.2 -392.9,269.2 -256.7,352.4 1753.5,415.7 4266.6,930.5 5047,1103.4 1666.3,373.6 3315.2,749.2 4951.3,1126.4 l -2724.3,-390.6 c -8998.7,-1947.3 -10200.6,-2329.9 -9520,-2444.9 45.2,-7.6 98.5,-14 158.4,-19.7 1110.4,-50.2 7619,240.7 9399.3,450.8 1741.8,182.6 6609.7,556.9 11062.6,916.1 l 1531.9,219.6 c -4655.2,-403.2 -10604.9,-842.5 -12863.3,-1080.3"
                    style="fill:#f5c27f;fill-opacity:1;fill-rule:nonzero;stroke:none"
                    id="path52"/>
            <path
                    d="m 6049.5,10274.4 c 1347.55,145.4 2640.93,301.3 3889.88,466.2 5491.62,732.3 4262.22,801.3 9723.92,2122 235.1,57.7 473.6,115 711.3,172.4 l -804.9,-115.4 c -44.7,-10.8 -88.4,-21.7 -133.2,-32.4 -6565.3,-1614.3 -6117,-1482.6 -14170.22,-2509.9 l 783.22,-102.9"
                    style="fill:#f5c27f;fill-opacity:1;fill-rule:nonzero;stroke:none"
                    id="path54"/>
        </g>
    </g>
</svg>
