<?xml version="1.0" encoding="UTF-8" standalone="no"?>
<!-- Created with Inkscape (http://www.inkscape.org/) -->

<svg
        version="1.1"
        id="svg2"
        width="2666.6667"
        height="2666.6667"
        viewBox="0 0 2666.6667 2666.6667"
        sodipodi:docname="Flat_Style_Glass_Bottle_of_Milk.eps"
        xmlns:inkscape="http://www.inkscape.org/namespaces/inkscape"
        xmlns:sodipodi="http://sodipodi.sourceforge.net/DTD/sodipodi-0.dtd"
        xmlns="http://www.w3.org/2000/svg"
        xmlns:svg="http://www.w3.org/2000/svg">
    <defs
            id="defs6"/>
    <sodipodi:namedview
            id="namedview4"
            pagecolor="#ffffff"
            bordercolor="#000000"
            borderopacity="0.25"
            inkscape:showpageshadow="2"
            inkscape:pageopacity="0.0"
            inkscape:pagecheckerboard="0"
            inkscape:deskcolor="#d1d1d1"/>
    <g
            id="g8"
            inkscape:groupmode="layer"
            inkscape:label="ink_ext_XXXXXX"
            transform="matrix(1.3333333,0,0,-1.3333333,0,2666.6667)">
        <g
                id="g10"
                transform="scale(0.1)">
            <path
                    d="M 20000,0 H 0 V 20000 H 20000 V 0"
                    style="fill:#ffffff;fill-opacity:1;fill-rule:nonzero;stroke:none"
                    id="path12"/>
            <path
                    d="M 12474.6,12228.6 V 3054.1 c 0,-306.1 -248,-554.1 -553.9,-554.1 H 8079.4 c -305.9,0 -554.04,248.1 -554.04,554.2 v 9174.4 c 0,1653 648.95,2690.9 776.26,3052.5 h 3396.68 c 127,-360.6 776.3,-1398.9 776.3,-3052.5"
                    style="fill:#f4efe9;fill-opacity:1;fill-rule:nonzero;stroke:none"
                    id="path14"/>
            <path
                    d="M 8794.52,12177.8 V 3015.1 c 13.2,-258.3 239.02,-465.9 480.97,-515 h -631.72 c -306.32,0 -554.16,247.9 -554.16,554 v 9174.6 c 0,1652.7 648.2,2689.2 775.99,3052.4 h 516.2 c -109.65,-392.6 -679.16,-1303.2 -587.28,-3103.3"
                    style="fill:#f8f5f1;fill-opacity:1;fill-rule:nonzero;stroke:none"
                    id="path16"/>
            <path
                    d="M 12474.6,12228.6 V 3054.1 c 0,-306.1 -248,-554.1 -553.9,-554.1 H 10376 c 241.9,49.3 466.5,167.1 466.5,515 v 9162.6 c 88.9,1743.4 -494.5,2724.7 -602.9,3103.5 h 1458.7 c 127,-360.6 776.3,-1398.9 776.3,-3052.5"
                    style="fill:#efe9e0;fill-opacity:1;fill-rule:nonzero;stroke:none"
                    id="path18"/>
            <path
                    d="M 12474.6,5570.9 H 7525.35 V 9473 H 12474.6 V 5570.9"
                    style="fill:#e9e8fd;fill-opacity:1;fill-rule:nonzero;stroke:none"
                    id="path20"/>
            <path
                    d="M 12474.6,5570.9 H 10841 V 9473 h 1633.6 V 5570.9"
                    style="fill:#cdcced;fill-opacity:1;fill-rule:nonzero;stroke:none"
                    id="path22"/>
            <path
                    d="m 11987.7,8781.8 c 54.7,70.3 160.7,70.2 215.3,0 12.3,-15.7 35.9,2.9 23.7,18.5 -110.2,141.7 -299.9,9.3 -260.2,-21.1 2.6,-2 15.9,-4.1 21.2,2.6 z m 107.6,-250.1 c 158.4,0 184.5,182.1 158.8,201.2 -10.7,7.9 -25.9,-0.9 -23.9,-14.3 12.5,-82.5 -51.6,-156.8 -134.9,-156.8 -83,0 -147.3,74 -134.8,156.8 1.2,8.4 -4.6,15.9 -12.7,17.1 -18.4,2.6 -19,-19 -19,-37.6 0,-91.8 74.7,-166.4 166.5,-166.4 z m 109.7,197.7 c -1.4,-19.8 -24.9,-21.7 -26.4,2.7 l -1.1,0.2 c -3.9,-13.6 8.2,-27 21,-22.2 13.1,4.9 15.7,24.2 5.5,31.4 -2.8,2 1.5,-4.8 1,-12.1 z m -216.3,1.5 c 29.8,8.1 34.1,10.5 43.2,10.5 h 0.5 c 0,-5.4 1.1,-10.7 3.3,-15.6 l 1.5,-3.5 c 0.4,-3.5 17.7,-38.8 -4.5,-78.7 -1.2,-2.1 -5.7,-9.9 -6.4,-11.6 -8.5,-18.8 5.3,-40 25.8,-40 h 3.6 c 0,-23.9 35.5,-12 64.2,-15 8.3,0 15,6.7 15,15 h 3.7 c 20.7,0 34.1,21.5 25.8,39.9 l -6.4,11.7 c -25.5,46.2 0.3,81.8 0.2,97.8 53.1,-12.7 43.7,-10.5 44.8,-10.8 0.1,5 -2.1,10.3 -2.1,10.3 l -1.4,-1.2 0.7,3.1 c 3.7,3.8 9.6,0.9 8.5,-0.2 l -0.3,-0.1 -2.6,0.1 c 3.8,-3 6,-7.7 6.4,-12.8 16.9,1 23.1,13.2 40.2,26.8 9.8,8.8 -21.3,11.6 -34.8,16.7 -32,8.6 -38.4,-16.4 -61.3,-19.9 l -1,2.7 c 35.7,31.1 -8.2,74.1 -5.6,65.5 7.5,-23.9 -9.9,-43.9 -16.7,-47.4 -4.5,0.8 -70.9,0.8 -75.3,0 -6.9,3.5 -24.3,23.5 -16.8,47.4 2.6,8.5 -41.5,-34.2 -5.5,-65.5 l -1,-2.7 c -12,1.8 -17.8,8.2 -26.4,13.8 -24.1,15.8 -45.9,1 -67.9,-2.8 -3.5,-1 -4.5,-5.4 -1.9,-7.8 14.3,-10.1 26.1,-32.3 50.5,-25.7 z m 446.5,-930.1 h -999.9 c -36.6,0 -36.6,-55.4 0,-55.4 h 999.9 c 36.7,0 36.7,55.4 0,55.4 z m 0,220.1 h -999.9 c -36.6,0 -36.6,-55.4 0,-55.4 h 999.9 c 15.3,0 27.7,12.4 27.7,27.7 0,15.3 -12.4,27.7 -27.7,27.7 z m 0,220.1 h -999.9 c -36.6,0 -36.6,-55.4 0,-55.4 h 999.9 c 15.3,0 27.7,12.4 27.7,27.7 0,15.3 -12.4,27.7 -27.7,27.7 z m 0,220.1 h -999.9 c -36.6,0 -36.6,-55.4 0,-55.4 h 999.9 c 15.3,0 27.7,12.4 27.7,27.7 0,15.3 -12.4,27.7 -27.7,27.7 z m -999.9,164.7 h 444.7 c 36.6,0 36.6,55.4 0,55.4 h -444.7 c -15.3,0 -27.7,-12.4 -27.7,-27.7 0,-15.3 12.4,-27.7 27.7,-27.7 z m 872.2,0 h 127.7 c 36.7,0 36.7,55.4 0,55.4 h -127.7 c -15.3,0 -27.7,-12.4 -27.7,-27.7 0,-15.3 12.4,-27.7 27.7,-27.7 z m 167.1,-2151.4 v -903.5 h -1633.9 v 1035.4 c 3.5,-0.7 133.7,9.2 241.9,-99 131.7,-131.7 345.6,-131.2 476.8,0 130.3,130.2 343.3,133.5 476.9,0 62.9,-62.9 152.4,-98.6 238.6,-98.6 70.1,0 140.7,21.8 199.7,65.7"
                    style="fill:#187f18;fill-opacity:1;fill-rule:nonzero;stroke:none"
                    id="path24"/>
            <path
                    d="m 11698.3,15281.1 c -31.8,98.9 -273.3,576 -335.4,1306.5 h 57.8 c 32.7,0 59.2,26.5 59.2,59.3 v 108.7 c 0,32.8 -26.5,59.3 -59.2,59.3 h -70.6 c -1.1,38.1 -1.8,76.5 -1.8,115.7 H 8651.74 c 0,-39.2 -0.75,-77.6 -1.84,-115.7 h -70.53 c -32.73,0 -59.28,-26.5 -59.28,-59.3 v -108.7 c 0,-32.8 26.55,-59.3 59.28,-59.3 h 57.78 c -63.07,-742.3 -310.82,-1229.7 -335.53,-1306.5 h 3396.68"
                    style="fill:#cdeaf9;fill-opacity:1;fill-rule:nonzero;stroke:none"
                    id="path26"/>
            <path
                    d="m 9641.79,16930.5 h -426.05 c 0,-39.1 -0.76,-77.5 -1.86,-115.6 h -64.81 c -32.71,0 -59.34,-26.4 -59.34,-59.3 V 16647 c 0,-33 26.63,-59.4 59.34,-59.4 h 52.06 c -64.8,-762 -323.84,-1270.3 -335.53,-1306.5 h 516.2 c 21.87,82.6 306.69,723.8 259.99,1649.4"
                    style="fill:#daeffb;fill-opacity:1;fill-rule:nonzero;stroke:none"
                    id="path28"/>
            <path
                    d="m 11362.9,16587.6 h 58.8 c 32.3,0 58.3,26 58.3,58.3 v 110.9 c 0,32.1 -26,58.1 -58.3,58.1 h -71.6 c -1.1,38.1 -1.8,76.5 -1.8,115.7 H 9979.38 c -47.03,-932 244.72,-1591 260.22,-1649.5 h 1458.7 c -31.8,98.9 -273.3,576 -335.4,1306.5"
                    style="fill:#c1e1f1;fill-opacity:1;fill-rule:nonzero;stroke:none"
                    id="path30"/>
            <path
                    d="M 11541.2,17500 H 8458.83 c -57.9,0 -104.84,-46.9 -104.84,-104.8 v -359.8 c 0,-57.9 46.94,-104.9 104.84,-104.9 h 3082.37 c 57.9,0 104.8,47 104.8,104.9 v 359.8 c 0,57.9 -46.9,104.8 -104.8,104.8"
                    style="fill:#6dabf8;fill-opacity:1;fill-rule:nonzero;stroke:none"
                    id="path32"/>
            <path
                    d="m 11541.2,17500 h -936.7 c -57.9,0 -104.9,-46.9 -104.9,-104.8 v -359.8 c 0,-57.9 47,-104.9 104.9,-104.9 h 936.7 c 57.9,0 104.8,47 104.8,104.9 v 359.8 c 0,57.9 -46.9,104.8 -104.8,104.8"
                    style="fill:#4a84de;fill-opacity:1;fill-rule:nonzero;stroke:none"
                    id="path34"/>
            <path
                    d="m 9477.52,17500 h -460.31 c -57.89,0 -104.83,-46.9 -104.83,-104.8 v -359.8 c 0,-57.9 46.94,-104.9 104.83,-104.9 h 460.31 c 57.9,0 104.84,47 104.84,104.9 v 359.8 c 0,57.9 -46.94,104.8 -104.84,104.8"
                    style="fill:#8dd1fb;fill-opacity:1;fill-rule:nonzero;stroke:none"
                    id="path36"/>
            <path
                    d="m 10367.5,6408.7 c -240.9,0 -236.9,203.7 -477.21,197.6 -91.53,-2.3 -170.33,-30.3 -238.23,-99 -133.93,-133.2 -347.07,-129.8 -476.85,0 -105.93,105.9 -234.25,98.1 -238.6,99 -239.81,0 -236.94,-197.6 -476.84,-197.6 -86.07,0 -172.49,32.9 -238.24,98.6 -132.55,132.6 -345.73,131.1 -476.85,0 -55.86,-55.9 -133.26,-93 -219.33,-97.9 V 5570.9 H 10841 v 1035.4 c -237.2,-2 -234.1,-197.6 -473.5,-197.6 z M 8197.27,8600.2 c 337.59,513.3 1003.07,513.6 1349.97,-0.6 44.07,-65.3 142.64,1.4 98.63,66.6 -394.33,584.4 -1163.33,584.3 -1548.01,-0.7 -18.07,-27.4 -10.44,-64.3 17,-82.3 27.36,-18.1 70.98,-0.4 82.41,17 z m 1641.49,-450.4 c -10.23,78.2 -128.18,62.6 -117.98,-15.4 74.23,-567.6 -291.81,-1130.9 -834.33,-1130.9 -504.2,0 -924.23,520.5 -854.59,1131.9 8.89,78.3 -109.35,91.5 -118.24,13.4 -75.8,-666.3 384.65,-1264.3 972.83,-1264.3 599.92,0 1038.4,607.8 952.31,1265.3 z m -307.13,136.3 c -3.23,2.7 -7.45,-1.2 -5.95,-5.4 0.08,-0.3 14.97,-39.4 12.38,-78.6 -6.72,-138.6 -149.71,-150.8 -159.86,18.7 0.1,4.6 -5.6,5.6 -6.62,1.2 -22.63,-94.9 50.42,-187.9 127.23,-154.1 79.07,33.6 94.56,167.9 32.82,218.2 z m 292.45,105.7 -126.68,-131.5 c -32.56,-33.7 -73.71,-53 -116.25,-55.8 -2.44,35.5 -15.68,68.6 -38.52,89.6 3.53,1 16.39,-1.7 17.69,-0.2 6.14,7.3 -29.41,27.9 -51.57,1.1 -10.35,-12.4 -10.17,-27.7 -4.28,-21.5 2.45,2.4 4.95,5.1 8.75,8.3 0.03,-0.6 12.88,-36.9 12.73,-71.6 -2.15,0.6 -202.74,64.7 -202.74,64.7 -35.54,11.4 -57.06,9.5 -68.16,10.3 0.46,-72.5 -15.74,-84.8 -43.97,-192.9 -78.16,-299.2 64.57,-513.7 71.9,-537.9 74.73,-129 -5.44,-301.2 -140.27,-301.2 h -21.91 c 0.36,-56.7 -39.55,-102.7 -89.13,-102.7 H 8737.7 c -49.59,0 -90.27,46 -90.87,102.7 h -21.91 c -123.09,0 -206.87,145.7 -158.16,274 -2.51,-5.3 36.77,78.5 37.75,80.6 86.91,185.6 79.48,396.3 11.52,568.9 -13.59,34.5 -20.61,71.4 -21.01,108.5 2.09,0.1 -31.4,1.5 -67.99,-10.3 l -195.17,-62.7 c -145.78,-46.9 -223.9,111.5 -307.68,179.6 -16.42,16.8 -10.59,47.6 10.26,54.1 l 198.27,62.1 c 187.15,58.7 240.96,-115.5 373.1,-138.8 2.41,8.8 4.09,13.7 5.84,18.7 -110.28,109.6 -125.19,320.4 20.78,465.1 3.4,3.4 8.57,-0.5 7.27,-5.5 -43.28,-168.3 63.89,-308.7 105.45,-333.1 11.31,2.5 22.94,3.8 34.77,3.8 -2.1,0 391.37,2.8 421.11,-3.8 41.14,24.4 145.92,164.8 99.77,333.1 -1.37,5 3.72,8.9 7.19,5.5 148.44,-144.7 137.1,-355.5 28.69,-465.1 1.92,-5.2 3.68,-10.2 6.16,-18.7 60.9,10.8 91.71,42.6 159.16,96.6 142.73,114.4 278.11,6.4 410.9,-19.9 20.96,-6.5 27.31,-37.3 11.18,-54.1"
                    style="fill:#1ea81e;fill-opacity:1;fill-rule:nonzero;stroke:none"
                    id="path38"/>
        </g>
    </g>
</svg>
