<?xml version="1.0" encoding="UTF-8"?>
<svg xmlns="http://www.w3.org/2000/svg" xmlns:xlink="http://www.w3.org/1999/xlink" width="3001" height="3000"
     viewBox="0 0 3001 3000">
    <path fill-rule="evenodd" fill="rgb(0%, 0%, 39.988708%)" fill-opacity="1"
          d="M 2411.28125 2999.988281 L 590.6875 2999.988281 C 265.546875 2999.988281 1 2735.441406 1 2410.273438 L 1 589.710938 C 1 264.558594 265.527344 0.0195312 590.6875 0.0195312 L 2411.28125 0.0195312 C 2736.441406 0.0195312 3001 264.539062 3001 589.710938 L 3001 2410.300781 C 3000.96875 2735.460938 2736.429688 2999.988281 2411.28125 2999.988281 Z M 590.6875 68.71875 C 303.429688 68.71875 69.703125 302.421875 69.703125 589.710938 L 69.703125 2410.300781 C 69.703125 2697.585938 303.402344 2931.289062 590.6875 2931.289062 L 2411.28125 2931.289062 C 2698.570312 2931.289062 2932.269531 2697.585938 2932.269531 2410.300781 L 2932.269531 589.710938 C 2932.269531 302.449219 2698.570312 68.71875 2411.28125 68.71875 L 590.6875 68.71875 "/>
    <path fill-rule="evenodd" fill="rgb(0%, 0%, 39.988708%)" fill-opacity="1"
          d="M 2966.621094 856.660156 L 2312.238281 856.660156 C 2150.71875 856.660156 2019.351562 725.269531 2019.351562 563.769531 L 2019.351562 34.371094 C 2019.351562 -10.851562 2088.050781 -10.851562 2088.050781 34.371094 L 2088.050781 563.75 C 2088.050781 687.371094 2188.628906 787.941406 2312.21875 787.941406 L 2966.601562 787.941406 C 3011.828125 787.941406 3011.820312 856.660156 2966.621094 856.660156 "/>
    <path fill-rule="evenodd" fill="rgb(100%, 39.988708%, 0%)" fill-opacity="1"
          d="M 2315.03125 2569.214844 L 686.945312 2569.214844 C 641.730469 2569.214844 641.730469 2500.511719 686.945312 2500.511719 L 2315.03125 2500.511719 C 2360.238281 2500.511719 2360.25 2569.214844 2315.03125 2569.214844 "/>
    <path fill-rule="evenodd" fill="rgb(100%, 39.988708%, 0%)" fill-opacity="1"
          d="M 802.980469 1247.261719 L 375.972656 1247.261719 C 343.535156 1247.261719 329.242188 1206.078125 354.652344 1185.949219 C 467.414062 1096.609375 714 974.851562 714 845.46875 C 714 689.160156 510.863281 627.160156 423.046875 755.75 C 397.539062 793.109375 340.8125 754.359375 366.328125 717.011719 C 491.992188 533.050781 782.691406 621.800781 782.691406 845.5 C 782.691406 985.449219 612.308594 1092.398438 484.203125 1178.578125 L 802.953125 1178.578125 C 848.132812 1178.578125 848.214844 1247.261719 802.980469 1247.261719 "/>
    <path fill-rule="evenodd" fill="rgb(100%, 39.988708%, 0%)" fill-opacity="1"
          d="M 1187.648438 966.730469 C 1091.359375 966.730469 1013.03125 888.390625 1013.03125 792.109375 C 1013.03125 695.820312 1091.371094 617.480469 1187.648438 617.480469 C 1283.941406 617.480469 1362.28125 695.820312 1362.28125 792.109375 C 1362.28125 888.390625 1283.941406 966.730469 1187.648438 966.730469 Z M 1187.648438 686.191406 C 1048.25 686.191406 1048.25 898.03125 1187.648438 898.03125 C 1327.058594 898.03125 1327.058594 686.191406 1187.648438 686.191406 "/>
    <path fill-rule="evenodd" fill="rgb(100%, 39.988708%, 0%)" fill-opacity="1"
          d="M 1187.648438 1247.261719 C 1091.359375 1247.261719 1013.03125 1168.921875 1013.03125 1072.640625 C 1013.03125 976.359375 1091.371094 898.019531 1187.648438 898.019531 C 1283.941406 898.019531 1362.28125 976.359375 1362.28125 1072.640625 C 1362.28125 1168.921875 1283.941406 1247.261719 1187.648438 1247.261719 Z M 1187.648438 966.730469 C 1048.25 966.730469 1048.25 1178.570312 1187.648438 1178.570312 C 1327.058594 1178.570312 1327.058594 966.730469 1187.648438 966.730469 "/>
    <path fill-rule="evenodd" fill="rgb(100%, 39.988708%, 0%)" fill-opacity="1"
          d="M 1173.101562 2437.5625 C 1154.140625 2437.5625 1138.75 2422.15625 1138.75 2403.214844 L 1138.75 1641.769531 C 1138.75 1596.550781 1207.449219 1596.558594 1207.449219 1641.769531 L 1207.449219 2403.214844 C 1207.449219 2422.175781 1192.070312 2437.5625 1173.101562 2437.5625 "/>
    <path fill-rule="evenodd" fill="rgb(100%, 39.988708%, 0%)" fill-opacity="1"
          d="M 1553.851562 2437.5625 C 1541.25 2437.5625 1529.109375 2430.59375 1523.101562 2418.550781 L 1142.378906 1657.109375 C 1122.160156 1616.648438 1183.609375 1585.929688 1203.828125 1626.410156 L 1584.558594 2387.851562 C 1596.039062 2410.851562 1578.960938 2437.5625 1553.851562 2437.5625 "/>
    <path fill-rule="evenodd" fill="rgb(100%, 39.988708%, 0%)" fill-opacity="1"
          d="M 1553.828125 2437.5625 C 1534.871094 2437.5625 1519.480469 2422.15625 1519.480469 2403.214844 L 1519.480469 1641.769531 C 1519.480469 1596.550781 1588.179688 1596.558594 1588.179688 1641.769531 L 1588.179688 2403.214844 C 1588.199219 2422.175781 1572.789062 2437.5625 1553.828125 2437.5625 "/>
    <path fill-rule="evenodd" fill="rgb(100%, 39.988708%, 0%)" fill-opacity="1"
          d="M 1828.898438 2437.535156 C 1809.941406 2437.535156 1794.550781 2422.128906 1794.550781 2403.1875 L 1794.550781 2084.371094 C 1794.550781 2039.148438 1863.25 2039.164062 1863.25 2084.371094 L 1863.25 2403.195312 C 1863.25 2422.15625 1847.839844 2437.535156 1828.898438 2437.535156 "/>
    <path fill-rule="evenodd" fill="rgb(100%, 39.988708%, 0%)" fill-opacity="1"
          d="M 1828.898438 2023.660156 C 1782.171875 2023.660156 1782.171875 1939.488281 1828.898438 1939.488281 C 1875.628906 1939.488281 1875.628906 2023.660156 1828.898438 2023.660156 "/>
    <path fill-rule="evenodd" fill="rgb(85.546875%, 85.546875%, 85.546875%)" fill-opacity="1"
          d="M 2829.078125 2233.003906 C 2829.058594 2558.160156 2564.5 2822.691406 2239.359375 2822.691406 L 418.769531 2822.691406 C 356.308594 2822.691406 296.089844 2812.929688 239.546875 2794.851562 C 332.226562 2879.550781 455.53125 2931.28125 590.6875 2931.28125 L 2411.28125 2931.28125 C 2698.570312 2931.28125 2932.269531 2697.578125 2932.269531 2410.292969 L 2932.269531 856.648438 L 2829.078125 856.648438 L 2829.078125 2233.003906 "/>
</svg>
