<?xml version="1.0" encoding="UTF-8"?>
<svg xmlns="http://www.w3.org/2000/svg" xmlns:xlink="http://www.w3.org/1999/xlink" width="2000" height="2000"
     viewBox="0 0 2000 2000">

    <path fill-rule="evenodd" fill="rgb(95.701599%, 96.875%, 98.046875%)" fill-opacity="1"
          d="M 1908.238281 1915.15625 L 1889.179688 1915.15625 C 1888.300781 1915.15625 1887.589844 1915.871094 1887.589844 1916.746094 L 1887.589844 1935.800781 C 1887.589844 1936.679688 1888.300781 1937.394531 1889.179688 1937.394531 L 1908.238281 1937.394531 C 1909.109375 1937.394531 1909.828125 1936.679688 1909.828125 1935.800781 L 1909.828125 1916.746094 C 1909.828125 1915.871094 1909.109375 1915.15625 1908.238281 1915.15625 "/>
    <path fill-rule="evenodd" fill="rgb(95.701599%, 96.875%, 98.046875%)" fill-opacity="1"
          d="M 1865.28125 1916.171875 L 1847.089844 1916.171875 C 1846.261719 1916.171875 1845.578125 1916.855469 1845.578125 1917.691406 L 1845.578125 1935.875 C 1845.578125 1936.710938 1846.261719 1937.394531 1847.089844 1937.394531 L 1865.28125 1937.394531 C 1866.109375 1937.394531 1866.800781 1936.710938 1866.800781 1935.875 L 1866.800781 1917.691406 C 1866.800781 1916.855469 1866.109375 1916.171875 1865.28125 1916.171875 "/>
    <path fill-rule="evenodd" fill="rgb(95.701599%, 96.875%, 98.046875%)" fill-opacity="1"
          d="M 1822.320312 1917.1875 L 1805.011719 1917.1875 C 1804.210938 1917.1875 1803.558594 1917.839844 1803.558594 1918.636719 L 1803.558594 1935.949219 C 1803.558594 1936.742188 1804.210938 1937.394531 1805.011719 1937.394531 L 1822.320312 1937.394531 C 1823.121094 1937.394531 1823.769531 1936.742188 1823.769531 1935.949219 L 1823.769531 1918.636719 C 1823.769531 1917.839844 1823.121094 1917.1875 1822.320312 1917.1875 "/>
    <path fill-rule="evenodd" fill="rgb(95.701599%, 96.875%, 98.046875%)" fill-opacity="1"
          d="M 1779.371094 1918.207031 L 1762.929688 1918.207031 C 1762.171875 1918.207031 1761.550781 1918.824219 1761.550781 1919.582031 L 1761.550781 1936.019531 C 1761.550781 1936.777344 1762.171875 1937.394531 1762.929688 1937.394531 L 1779.371094 1937.394531 C 1780.121094 1937.394531 1780.738281 1936.777344 1780.738281 1936.019531 L 1780.738281 1919.582031 C 1780.738281 1918.824219 1780.121094 1918.207031 1779.371094 1918.207031 "/>
    <path fill-rule="evenodd" fill="rgb(95.701599%, 96.875%, 98.046875%)" fill-opacity="1"
          d="M 1736.410156 1919.222656 L 1720.839844 1919.222656 C 1720.128906 1919.222656 1719.539062 1919.808594 1719.539062 1920.523438 L 1719.539062 1936.09375 C 1719.539062 1936.808594 1720.128906 1937.394531 1720.839844 1937.394531 L 1736.410156 1937.394531 C 1737.128906 1937.394531 1737.710938 1936.808594 1737.710938 1936.09375 L 1737.710938 1920.523438 C 1737.710938 1919.808594 1737.128906 1919.222656 1736.410156 1919.222656 "/>
    <path fill-rule="evenodd" fill="rgb(95.701599%, 96.875%, 98.046875%)" fill-opacity="1"
          d="M 1693.460938 1920.238281 L 1678.761719 1920.238281 C 1678.078125 1920.238281 1677.53125 1920.792969 1677.53125 1921.46875 L 1677.53125 1936.167969 C 1677.53125 1936.84375 1678.078125 1937.394531 1678.761719 1937.394531 L 1693.460938 1937.394531 C 1694.128906 1937.394531 1694.679688 1936.84375 1694.679688 1936.167969 L 1694.679688 1921.46875 C 1694.679688 1920.792969 1694.128906 1920.238281 1693.460938 1920.238281 "/>
    <path fill-rule="evenodd" fill="rgb(95.701599%, 96.875%, 98.046875%)" fill-opacity="1"
          d="M 1650.5 1921.257812 L 1636.671875 1921.257812 C 1636.039062 1921.257812 1635.519531 1921.777344 1635.519531 1922.414062 L 1635.519531 1936.238281 C 1635.519531 1936.875 1636.039062 1937.394531 1636.671875 1937.394531 L 1650.5 1937.394531 C 1651.140625 1937.394531 1651.648438 1936.875 1651.648438 1936.238281 L 1651.648438 1922.414062 C 1651.648438 1921.777344 1651.140625 1921.257812 1650.5 1921.257812 "/>
    <path fill-rule="evenodd" fill="rgb(95.701599%, 96.875%, 98.046875%)" fill-opacity="1"
          d="M 1607.539062 1922.273438 L 1594.589844 1922.273438 C 1593.988281 1922.273438 1593.511719 1922.761719 1593.511719 1923.355469 L 1593.511719 1936.3125 C 1593.511719 1936.90625 1593.988281 1937.394531 1594.589844 1937.394531 L 1607.539062 1937.394531 C 1608.140625 1937.394531 1608.628906 1936.90625 1608.628906 1936.3125 L 1608.628906 1923.355469 C 1608.628906 1922.761719 1608.140625 1922.273438 1607.539062 1922.273438 "/>
    <path fill-rule="evenodd" fill="rgb(95.701599%, 96.875%, 98.046875%)" fill-opacity="1"
          d="M 1564.589844 1923.292969 L 1552.5 1923.292969 C 1551.949219 1923.292969 1551.488281 1923.746094 1551.488281 1924.300781 L 1551.488281 1936.386719 C 1551.488281 1936.941406 1551.949219 1937.394531 1552.5 1937.394531 L 1564.589844 1937.394531 C 1565.140625 1937.394531 1565.601562 1936.941406 1565.601562 1936.386719 L 1565.601562 1924.300781 C 1565.601562 1923.746094 1565.140625 1923.292969 1564.589844 1923.292969 "/>
    <path fill-rule="evenodd" fill="rgb(0%, 0%, 0%)" fill-opacity="1"
          d="M 1316.261719 1248.425781 C 1400.960938 1144.550781 1485.648438 1040.675781 1563.160156 947.050781 C 1573.851562 902 1604.058594 884.539062 1634.199219 867.128906 C 1667.96875 847.621094 1701.578125 828.179688 1676.238281 735.058594 C 1659.199219 749.421875 1640.929688 759.191406 1623 768.789062 C 1582.839844 790.269531 1544.738281 810.671875 1540.371094 900.871094 C 1540.230469 905.589844 1538.609375 910.300781 1535.429688 914.261719 L 1034.109375 1537.925781 C 1031.589844 1546.785156 1031.390625 1554.269531 1033.148438 1559.675781 C 1033.839844 1561.804688 1034.761719 1563.324219 1035.828125 1564.09375 C 1036.808594 1564.785156 1038.421875 1565.113281 1040.671875 1564.988281 C 1047.390625 1564.605469 1056.378906 1560.632812 1067.460938 1551.96875 C 1152.53125 1449.246094 1234.398438 1348.835938 1316.261719 1248.425781 "/>
    <path fill-rule="evenodd" fill="rgb(0%, 0%, 0%)" fill-opacity="1"
          d="M 818.972656 581.011719 C 802.808594 495.328125 758.910156 450.800781 704.007812 438.699219 C 649.390625 426.660156 582.953125 445.070312 520.386719 486.128906 C 456.160156 528.28125 396.796875 593.960938 358.480469 675.160156 C 286.15625 828.449219 289.519531 1037.378906 477.773438 1248.652344 C 518.046875 1286.382812 560.214844 1315.816406 603.296875 1337.609375 C 700.53125 1386.800781 802.785156 1397.15625 898.503906 1376.273438 C 994.597656 1355.3125 1084.25 1302.878906 1155.839844 1226.613281 C 1192.449219 1187.621094 1224.328125 1142.410156 1249.941406 1092 C 1277.398438 1025.878906 1287.429688 940.699219 1276.738281 864.488281 C 1270.160156 817.621094 1255.820312 774.609375 1232.96875 742.328125 C 1211.421875 711.890625 1181.96875 690.949219 1143.941406 685.78125 C 1113.988281 681.710938 1078.320312 687.078125 1036.46875 704.710938 L 1036.488281 704.761719 C 955.785156 740.269531 901.3125 740.910156 866.003906 716.078125 C 830.648438 691.21875 817.6875 643.410156 818.972656 581.011719 Z M 1049.191406 990.949219 C 1080.25 990.949219 1108.378906 1003.539062 1128.730469 1023.898438 C 1149.089844 1044.257812 1161.691406 1072.382812 1161.691406 1103.445312 C 1161.691406 1134.507812 1149.089844 1162.632812 1128.730469 1182.992188 C 1108.378906 1203.351562 1080.25 1215.945312 1049.191406 1215.945312 C 1018.121094 1215.945312 990 1203.351562 969.640625 1182.992188 C 949.28125 1162.632812 936.6875 1134.507812 936.6875 1103.445312 C 936.6875 1072.382812 949.28125 1044.257812 969.640625 1023.898438 C 990 1003.539062 1018.121094 990.949219 1049.191406 990.949219 Z M 1095.691406 735.949219 C 1126.75 735.949219 1154.878906 748.539062 1175.230469 768.898438 C 1195.589844 789.261719 1208.191406 817.378906 1208.191406 848.449219 C 1208.191406 879.511719 1195.589844 907.628906 1175.230469 927.988281 C 1154.878906 948.351562 1126.75 960.949219 1095.691406 960.949219 C 1064.621094 960.949219 1036.5 948.351562 1016.140625 927.988281 C 995.78125 907.628906 983.1875 879.511719 983.1875 848.449219 C 983.1875 817.378906 995.78125 789.261719 1016.140625 768.898438 C 1036.5 748.539062 1064.621094 735.949219 1095.691406 735.949219 Z M 770.1875 1092.945312 C 801.25 1092.945312 829.375 1105.539062 849.734375 1125.898438 C 870.09375 1146.257812 882.6875 1174.382812 882.6875 1205.445312 C 882.6875 1236.507812 870.09375 1264.632812 849.734375 1284.992188 C 829.375 1305.351562 801.25 1317.945312 770.1875 1317.945312 C 739.125 1317.945312 711 1305.351562 690.640625 1284.992188 C 670.28125 1264.632812 657.6875 1236.507812 657.6875 1205.445312 C 657.6875 1174.382812 670.28125 1146.257812 690.640625 1125.898438 C 711 1105.539062 739.125 1092.945312 770.1875 1092.945312 Z M 536.1875 950.449219 C 567.25 950.449219 595.375 963.039062 615.734375 983.398438 C 636.09375 1003.757812 648.6875 1031.882812 648.6875 1062.945312 C 648.6875 1094.007812 636.09375 1122.132812 615.734375 1142.492188 C 595.375 1162.851562 567.25 1175.445312 536.1875 1175.445312 C 505.121094 1175.445312 476.996094 1162.851562 456.640625 1142.492188 C 436.28125 1122.132812 423.6875 1094.011719 423.6875 1062.945312 C 423.6875 1031.882812 436.28125 1003.757812 456.640625 983.398438 C 476.996094 963.039062 505.121094 950.449219 536.1875 950.449219 Z M 471.6875 696.949219 C 502.75 696.949219 530.875 709.539062 551.234375 729.898438 C 571.59375 750.261719 584.1875 778.378906 584.1875 809.449219 C 584.1875 840.511719 571.59375 868.628906 551.234375 888.988281 C 530.875 909.351562 502.75 921.949219 471.6875 921.949219 C 440.621094 921.949219 412.5 909.351562 392.140625 888.988281 C 371.78125 868.628906 359.1875 840.511719 359.1875 809.449219 C 359.1875 778.378906 371.78125 750.261719 392.140625 729.898438 C 412.496094 709.539062 440.621094 696.949219 471.6875 696.949219 Z M 621.839844 473.78125 C 652.902344 473.78125 681.027344 486.371094 701.386719 506.730469 C 721.746094 527.089844 734.339844 555.21875 734.339844 586.28125 C 734.339844 617.339844 721.746094 645.46875 701.386719 665.828125 C 681.027344 686.191406 652.902344 698.78125 621.839844 698.78125 C 590.777344 698.78125 562.652344 686.191406 542.289062 665.828125 C 521.933594 645.46875 509.339844 617.339844 509.339844 586.28125 C 509.339844 555.21875 521.933594 527.089844 542.289062 506.730469 C 562.648438 486.371094 590.777344 473.78125 621.839844 473.78125 "/>
    <path fill-rule="evenodd" fill="rgb(0%, 0%, 0%)" fill-opacity="1"
          d="M 583.917969 1015.214844 C 571.703125 1003 554.828125 995.449219 536.1875 995.449219 C 517.546875 995.449219 500.671875 1003 488.457031 1015.214844 C 476.242188 1027.429688 468.6875 1044.304688 468.6875 1062.945312 C 468.6875 1081.585938 476.242188 1098.464844 488.457031 1110.675781 C 500.671875 1122.890625 517.546875 1130.445312 536.1875 1130.445312 C 554.828125 1130.445312 571.703125 1122.890625 583.917969 1110.675781 C 596.132812 1098.464844 603.6875 1081.585938 603.6875 1062.945312 C 603.6875 1044.304688 596.132812 1027.429688 583.917969 1015.214844 "/>
    <path fill-rule="evenodd" fill="rgb(0%, 0%, 0%)" fill-opacity="1"
          d="M 519.417969 761.710938 C 507.203125 749.5 490.328125 741.949219 471.6875 741.949219 C 453.046875 741.949219 436.171875 749.5 423.957031 761.710938 C 411.742188 773.929688 404.1875 790.800781 404.1875 809.449219 C 404.1875 828.089844 411.742188 844.960938 423.957031 857.179688 C 436.171875 869.390625 453.046875 876.949219 471.6875 876.949219 C 490.328125 876.949219 507.203125 869.390625 519.417969 857.179688 C 531.632812 844.960938 539.1875 828.089844 539.1875 809.449219 C 539.1875 790.800781 531.632812 773.929688 519.417969 761.710938 "/>
    <path fill-rule="evenodd" fill="rgb(0%, 0%, 0%)" fill-opacity="1"
          d="M 669.570312 538.550781 C 657.355469 526.328125 640.480469 518.78125 621.839844 518.78125 C 603.199219 518.78125 586.320312 526.328125 574.109375 538.550781 C 561.894531 550.761719 554.339844 567.640625 554.339844 586.28125 C 554.339844 604.921875 561.894531 621.800781 574.109375 634.011719 C 586.320312 646.21875 603.199219 653.78125 621.839844 653.78125 C 640.480469 653.78125 657.355469 646.21875 669.570312 634.011719 C 681.785156 621.800781 689.339844 604.921875 689.339844 586.28125 C 689.339844 567.640625 681.785156 550.761719 669.570312 538.550781 "/>
    <path fill-rule="evenodd" fill="rgb(0%, 0%, 0%)" fill-opacity="1"
          d="M 817.917969 1157.714844 C 805.703125 1145.5 788.828125 1137.945312 770.1875 1137.945312 C 751.546875 1137.945312 734.671875 1145.5 722.457031 1157.714844 C 710.242188 1169.929688 702.6875 1186.804688 702.6875 1205.445312 C 702.6875 1224.085938 710.242188 1240.960938 722.457031 1253.175781 C 734.671875 1265.390625 751.546875 1272.945312 770.1875 1272.945312 C 788.828125 1272.945312 805.703125 1265.390625 817.917969 1253.175781 C 830.132812 1240.964844 837.6875 1224.085938 837.6875 1205.445312 C 837.6875 1186.804688 830.132812 1169.929688 817.917969 1157.714844 "/>
    <path fill-rule="evenodd" fill="rgb(0%, 0%, 0%)" fill-opacity="1"
          d="M 1096.921875 1055.714844 C 1084.699219 1043.5 1067.828125 1035.945312 1049.191406 1035.945312 C 1030.550781 1035.945312 1013.671875 1043.5 1001.460938 1055.714844 C 989.242188 1067.929688 981.6875 1084.804688 981.6875 1103.445312 C 981.6875 1122.085938 989.242188 1138.964844 1001.460938 1151.175781 C 1013.671875 1163.390625 1030.550781 1170.945312 1049.191406 1170.945312 C 1067.828125 1170.945312 1084.699219 1163.390625 1096.921875 1151.175781 C 1109.128906 1138.964844 1116.691406 1122.085938 1116.691406 1103.445312 C 1116.691406 1084.804688 1109.128906 1067.929688 1096.921875 1055.714844 "/>
    <path fill-rule="evenodd" fill="rgb(0%, 0%, 0%)" fill-opacity="1"
          d="M 1143.421875 800.710938 C 1131.199219 788.5 1114.328125 780.949219 1095.691406 780.949219 C 1077.050781 780.949219 1060.171875 788.5 1047.960938 800.710938 C 1035.738281 812.929688 1028.191406 829.800781 1028.191406 848.449219 C 1028.191406 867.089844 1035.738281 883.960938 1047.960938 896.179688 C 1060.171875 908.390625 1077.050781 915.949219 1095.691406 915.949219 C 1114.328125 915.949219 1131.199219 908.390625 1143.421875 896.179688 C 1155.628906 883.960938 1163.191406 867.089844 1163.191406 848.449219 C 1163.191406 829.800781 1155.628906 812.929688 1143.421875 800.710938 "/>
</svg>
