<?xml version="1.0" encoding="UTF-8"?>
<svg xmlns="http://www.w3.org/2000/svg" xmlns:xlink="http://www.w3.org/1999/xlink" width="2275.59" height="3742.36"
     viewBox="0 0 2275.59 3742.36">
    <defs>
        <clipPath id="clip-0">
            <path clip-rule="nonzero" d="M 983 0 L 2275.589844 0 L 2275.589844 2586 L 983 2586 Z M 983 0 "/>
        </clipPath>
        <clipPath id="clip-1">
            <path clip-rule="nonzero" d="M 0 229 L 2007 229 L 2007 3742.359375 L 0 3742.359375 Z M 0 229 "/>
        </clipPath>
        <clipPath id="clip-2">
            <path clip-rule="nonzero" d="M 32 285 L 1767 285 L 1767 3324 L 32 3324 Z M 32 285 "/>
        </clipPath>
        <clipPath id="clip-3">
            <path clip-rule="nonzero"
                  d="M 1766.480469 511.449219 C 1078.351562 515.300781 1416.039062 1675.78125 1003.351562 1909.839844 C 583.242188 2149.75 608.160156 2861.550781 212.015625 3323.761719 C -57.410156 2994.429688 55.523438 2641.558594 84.609375 2119.578125 C 90.722656 2009.839844 93.128906 1892.628906 87.511719 1766.578125 C 83.011719 1665.519531 73.308594 1558.800781 56.226562 1445.699219 C 14.582031 1160.730469 30.171875 946.628906 80.253906 785.621094 C 86.992188 763.941406 94.351562 743.210938 102.3125 723.410156 C 108.261719 708.53125 114.5625 694.160156 121.132812 680.289062 C 161.433594 595.550781 212.84375 529.519531 270.035156 478.03125 C 481.976562 287.128906 772.921875 295.820312 867.757812 289.539062 C 907.789062 287.5 946.386719 286.28125 983.640625 285.929688 C 985.421875 285.890625 987.183594 285.890625 988.96875 285.871094 C 1000.46875 285.738281 1011.828125 285.699219 1023.050781 285.761719 C 1028.808594 285.800781 1034.53125 285.851562 1040.230469 285.910156 C 1387.101562 289.890625 1609.738281 367.5 1750.269531 496.050781 C 1755.800781 501.101562 1761.210938 506.238281 1766.480469 511.449219 Z M 1766.480469 511.449219 "/>
        </clipPath>
        <clipPath id="clip-4">
            <path clip-rule="nonzero"
                  d="M 1766.480469 511.449219 C 1078.351562 515.300781 1416.039062 1675.78125 1003.351562 1909.839844 C 583.242188 2149.75 608.160156 2861.550781 212.015625 3323.761719 C -57.410156 2994.429688 55.523438 2641.558594 84.609375 2119.578125 C 90.722656 2009.839844 93.128906 1892.628906 87.511719 1766.578125 C 83.011719 1665.519531 73.308594 1558.800781 56.226562 1445.699219 C 14.582031 1160.730469 30.171875 946.628906 80.253906 785.621094 C 86.992188 763.941406 94.351562 743.210938 102.3125 723.410156 C 108.261719 708.53125 114.5625 694.160156 121.132812 680.289062 C 161.433594 595.550781 212.84375 529.519531 270.035156 478.03125 C 481.976562 287.128906 772.921875 295.820312 867.757812 289.539062 C 907.789062 287.5 946.386719 286.28125 983.640625 285.929688 C 985.421875 285.890625 987.183594 285.890625 988.96875 285.871094 C 1000.46875 285.738281 1011.828125 285.699219 1023.050781 285.761719 C 1028.808594 285.800781 1034.53125 285.851562 1040.230469 285.910156 C 1387.101562 289.890625 1609.738281 367.5 1750.269531 496.050781 C 1755.800781 501.101562 1761.210938 506.238281 1766.480469 511.449219 "/>
        </clipPath>
        <linearGradient id="linear-pattern-0" gradientUnits="userSpaceOnUse" x1="0.102312" y1="0" x2="1.6625" y2="0"
                        gradientTransform="matrix(1680.5, 810.662, -810.662, 1680.5, -616.62, 1124.59)">
            <stop offset="0" stop-color="rgb(20.153809%, 40.872192%, 51.849365%)" stop-opacity="1"/>
            <stop offset="0.25" stop-color="rgb(20.153809%, 40.872192%, 51.849365%)" stop-opacity="1"/>
            <stop offset="0.375" stop-color="rgb(20.153809%, 40.872192%, 51.849365%)" stop-opacity="1"/>
            <stop offset="0.390625" stop-color="rgb(20.153809%, 40.872192%, 51.849365%)" stop-opacity="1"/>
            <stop offset="0.398437" stop-color="rgb(20.153809%, 40.872192%, 51.849365%)" stop-opacity="1"/>
            <stop offset="0.402344" stop-color="rgb(20.181274%, 40.776062%, 51.802063%)" stop-opacity="1"/>
            <stop offset="0.40625" stop-color="rgb(20.207214%, 40.679932%, 51.754761%)" stop-opacity="1"/>
            <stop offset="0.410156" stop-color="rgb(20.167542%, 40.59906%, 51.652527%)" stop-opacity="1"/>
            <stop offset="0.414062" stop-color="rgb(20.127869%, 40.516663%, 51.548767%)" stop-opacity="1"/>
            <stop offset="0.421875" stop-color="rgb(20.127869%, 40.516663%, 51.548767%)" stop-opacity="1"/>
            <stop offset="0.429687" stop-color="rgb(20.127869%, 40.516663%, 51.548767%)" stop-opacity="1"/>
            <stop offset="0.433594" stop-color="rgb(20.129395%, 40.518188%, 51.455688%)" stop-opacity="1"/>
            <stop offset="0.4375" stop-color="rgb(20.132446%, 40.518188%, 51.36261%)" stop-opacity="1"/>
            <stop offset="0.441406" stop-color="rgb(19.9646%, 40.327454%, 51.223755%)" stop-opacity="1"/>
            <stop offset="0.445312" stop-color="rgb(19.796753%, 40.136719%, 51.0849%)" stop-opacity="1"/>
            <stop offset="0.453125" stop-color="rgb(19.796753%, 40.136719%, 51.0849%)" stop-opacity="1"/>
            <stop offset="0.460937" stop-color="rgb(19.796753%, 40.136719%, 51.0849%)" stop-opacity="1"/>
            <stop offset="0.464844" stop-color="rgb(19.822693%, 40.039062%, 51.034546%)" stop-opacity="1"/>
            <stop offset="0.46875" stop-color="rgb(19.847107%, 39.93988%, 50.982666%)" stop-opacity="1"/>
            <stop offset="0.484375" stop-color="rgb(19.810486%, 39.863586%, 50.816345%)" stop-opacity="1"/>
            <stop offset="0.488281" stop-color="rgb(19.801331%, 39.691162%, 50.579834%)" stop-opacity="1"/>
            <stop offset="0.492187" stop-color="rgb(19.828796%, 39.596558%, 50.509644%)" stop-opacity="1"/>
            <stop offset="0.496094" stop-color="rgb(19.789124%, 39.517212%, 50.40741%)" stop-opacity="1"/>
            <stop offset="0.5" stop-color="rgb(19.749451%, 39.43634%, 50.305176%)" stop-opacity="1"/>
            <stop offset="0.507812" stop-color="rgb(19.749451%, 39.43634%, 50.305176%)" stop-opacity="1"/>
            <stop offset="0.511719" stop-color="rgb(19.596863%, 39.422607%, 50.315857%)" stop-opacity="1"/>
            <stop offset="0.515625" stop-color="rgb(19.444275%, 39.408875%, 50.326538%)" stop-opacity="1"/>
            <stop offset="0.519531" stop-color="rgb(19.473267%, 39.31427%, 50.187683%)" stop-opacity="1"/>
            <stop offset="0.523437" stop-color="rgb(19.500732%, 39.21814%, 50.047302%)" stop-opacity="1"/>
            <stop offset="0.53125" stop-color="rgb(19.462585%, 39.14032%, 49.94812%)" stop-opacity="1"/>
            <stop offset="0.546875" stop-color="rgb(19.424438%, 39.0625%, 49.848938%)" stop-opacity="1"/>
            <stop offset="0.550781" stop-color="rgb(19.386292%, 38.983154%, 49.658203%)" stop-opacity="1"/>
            <stop offset="0.554687" stop-color="rgb(19.34967%, 38.903809%, 49.465942%)" stop-opacity="1"/>
            <stop offset="0.558594" stop-color="rgb(19.37561%, 38.81073%, 49.420166%)" stop-opacity="1"/>
            <stop offset="0.5625" stop-color="rgb(19.403076%, 38.717651%, 49.37439%)" stop-opacity="1"/>
            <stop offset="0.570312" stop-color="rgb(19.380188%, 38.716125%, 49.375916%)" stop-opacity="1"/>
            <stop offset="0.578125" stop-color="rgb(19.229126%, 38.702393%, 49.386597%)" stop-opacity="1"/>
            <stop offset="0.59375" stop-color="rgb(19.100952%, 38.691711%, 49.395752%)" stop-opacity="1"/>
            <stop offset="0.625" stop-color="rgb(19.100952%, 38.691711%, 49.395752%)" stop-opacity="1"/>
            <stop offset="0.75" stop-color="rgb(19.100952%, 38.691711%, 49.395752%)" stop-opacity="1"/>
            <stop offset="1" stop-color="rgb(19.100952%, 38.691711%, 49.395752%)" stop-opacity="1"/>
        </linearGradient>
        <clipPath id="clip-5">
            <path clip-rule="nonzero" d="M 36 1421 L 1734 1421 L 1734 3686 L 36 3686 Z M 36 1421 "/>
        </clipPath>
        <clipPath id="clip-6">
            <path clip-rule="nonzero"
                  d="M 1733.929688 3376.378906 C 1706.519531 3411.359375 1677.011719 3442.859375 1645.769531 3471.140625 C 1642.96875 3473.710938 1640.109375 3476.238281 1637.269531 3478.75 L 1637.238281 3478.769531 C 1623.769531 3490.578125 1610.011719 3501.839844 1595.96875 3512.519531 C 1218.109375 3799.941406 639.269531 3679.230469 415.679688 3514.03125 C 414.328125 3513.058594 413.003906 3512.058594 411.699219 3511.070312 C 389.039062 3494 367.667969 3476.960938 347.519531 3459.898438 C 344.804688 3457.601562 342.085938 3455.28125 339.410156 3452.980469 C 289.597656 3410.089844 247.496094 3367.121094 212.007812 3323.75 C -57.417969 2994.421875 55.519531 2641.550781 84.601562 2119.578125 C 90.71875 2009.828125 93.121094 1892.628906 87.503906 1766.570312 C 83.003906 1665.511719 73.304688 1558.789062 56.222656 1445.691406 C 55.039062 1437.671875 53.921875 1429.710938 52.84375 1421.789062 C 299.882812 1751.96875 475.316406 2117.441406 802 2204.550781 C 1219.699219 2314.601562 1232.210938 3325.988281 1733.929688 3376.378906 Z M 1733.929688 3376.378906 "/>
        </clipPath>
        <clipPath id="clip-7">
            <path clip-rule="nonzero"
                  d="M 1733.929688 3376.378906 C 1706.519531 3411.359375 1677.011719 3442.859375 1645.769531 3471.140625 C 1642.96875 3473.710938 1640.109375 3476.238281 1637.269531 3478.75 L 1637.238281 3478.769531 C 1623.769531 3490.578125 1610.011719 3501.839844 1595.96875 3512.519531 C 1218.109375 3799.941406 639.269531 3679.230469 415.679688 3514.03125 C 414.328125 3513.058594 413.003906 3512.058594 411.699219 3511.070312 C 389.039062 3494 367.667969 3476.960938 347.519531 3459.898438 C 344.804688 3457.601562 342.085938 3455.28125 339.410156 3452.980469 C 289.597656 3410.089844 247.496094 3367.121094 212.007812 3323.75 C -57.417969 2994.421875 55.519531 2641.550781 84.601562 2119.578125 C 90.71875 2009.828125 93.121094 1892.628906 87.503906 1766.570312 C 83.003906 1665.511719 73.304688 1558.789062 56.222656 1445.691406 C 55.039062 1437.671875 53.921875 1429.710938 52.84375 1421.789062 C 299.882812 1751.96875 475.316406 2117.441406 802 2204.550781 C 1219.699219 2314.601562 1232.210938 3325.988281 1733.929688 3376.378906 "/>
        </clipPath>
        <linearGradient id="linear-pattern-1" gradientUnits="userSpaceOnUse" x1="0.0994095" y1="0" x2="2.449567" y2="0"
                        gradientTransform="matrix(974.375, 378.704, -378.704, 974.375, -423.381, 2224.25)">
            <stop offset="0" stop-color="rgb(20.153809%, 40.872192%, 51.849365%)" stop-opacity="1"/>
            <stop offset="0.25" stop-color="rgb(20.153809%, 40.872192%, 51.849365%)" stop-opacity="1"/>
            <stop offset="0.265625" stop-color="rgb(20.153809%, 40.872192%, 51.849365%)" stop-opacity="1"/>
            <stop offset="0.269531" stop-color="rgb(20.181274%, 40.776062%, 51.802063%)" stop-opacity="1"/>
            <stop offset="0.273438" stop-color="rgb(20.207214%, 40.679932%, 51.754761%)" stop-opacity="1"/>
            <stop offset="0.277344" stop-color="rgb(20.167542%, 40.59906%, 51.652527%)" stop-opacity="1"/>
            <stop offset="0.28125" stop-color="rgb(20.127869%, 40.516663%, 51.548767%)" stop-opacity="1"/>
            <stop offset="0.285156" stop-color="rgb(20.129395%, 40.518188%, 51.455688%)" stop-opacity="1"/>
            <stop offset="0.289062" stop-color="rgb(20.132446%, 40.518188%, 51.36261%)" stop-opacity="1"/>
            <stop offset="0.292969" stop-color="rgb(19.9646%, 40.327454%, 51.223755%)" stop-opacity="1"/>
            <stop offset="0.296875" stop-color="rgb(19.796753%, 40.136719%, 51.0849%)" stop-opacity="1"/>
            <stop offset="0.304688" stop-color="rgb(19.796753%, 40.136719%, 51.0849%)" stop-opacity="1"/>
            <stop offset="0.308594" stop-color="rgb(19.821167%, 40.034485%, 51.029968%)" stop-opacity="1"/>
            <stop offset="0.3125" stop-color="rgb(19.844055%, 39.933777%, 50.975037%)" stop-opacity="1"/>
            <stop offset="0.320312" stop-color="rgb(19.807434%, 39.859009%, 50.880432%)" stop-opacity="1"/>
            <stop offset="0.324219" stop-color="rgb(19.799805%, 39.691162%, 50.646973%)" stop-opacity="1"/>
            <stop offset="0.328125" stop-color="rgb(19.828796%, 39.596558%, 50.509644%)" stop-opacity="1"/>
            <stop offset="0.332031" stop-color="rgb(19.789124%, 39.517212%, 50.40741%)" stop-opacity="1"/>
            <stop offset="0.335937" stop-color="rgb(19.749451%, 39.43634%, 50.305176%)" stop-opacity="1"/>
            <stop offset="0.339844" stop-color="rgb(19.596863%, 39.422607%, 50.315857%)" stop-opacity="1"/>
            <stop offset="0.34375" stop-color="rgb(19.444275%, 39.408875%, 50.326538%)" stop-opacity="1"/>
            <stop offset="0.347656" stop-color="rgb(19.433594%, 39.23645%, 50.088501%)" stop-opacity="1"/>
            <stop offset="0.351562" stop-color="rgb(19.424438%, 39.0625%, 49.848938%)" stop-opacity="1"/>
            <stop offset="0.359375" stop-color="rgb(19.424438%, 39.0625%, 49.848938%)" stop-opacity="1"/>
            <stop offset="0.363281" stop-color="rgb(19.384766%, 38.983154%, 49.731445%)" stop-opacity="1"/>
            <stop offset="0.367187" stop-color="rgb(19.346619%, 38.903809%, 49.612427%)" stop-opacity="1"/>
            <stop offset="0.371094" stop-color="rgb(19.374084%, 38.81073%, 49.493408%)" stop-opacity="1"/>
            <stop offset="0.375" stop-color="rgb(19.403076%, 38.717651%, 49.37439%)" stop-opacity="1"/>
            <stop offset="0.378906" stop-color="rgb(19.252014%, 38.703918%, 49.385071%)" stop-opacity="1"/>
            <stop offset="0.382813" stop-color="rgb(19.100952%, 38.691711%, 49.395752%)" stop-opacity="1"/>
            <stop offset="0.390625" stop-color="rgb(19.100952%, 38.691711%, 49.395752%)" stop-opacity="1"/>
            <stop offset="0.40625" stop-color="rgb(19.100952%, 38.691711%, 49.395752%)" stop-opacity="1"/>
            <stop offset="0.4375" stop-color="rgb(19.100952%, 38.691711%, 49.395752%)" stop-opacity="1"/>
            <stop offset="0.5" stop-color="rgb(19.100952%, 38.691711%, 49.395752%)" stop-opacity="1"/>
            <stop offset="1" stop-color="rgb(19.100952%, 38.691711%, 49.395752%)" stop-opacity="1"/>
        </linearGradient>
    </defs>
    <g clip-path="url(#clip-0)">
        <path fill-rule="nonzero" fill="rgb(9.00116%, 13.815308%, 16.145325%)" fill-opacity="1"
              d="M 1907.089844 2585.550781 L 1863.488281 2566.261719 C 2155.429688 1906.269531 2273.039062 1341.800781 2213.039062 888.519531 C 2165.949219 532.78125 2006.320312 263.351562 1763.550781 129.839844 C 1492.46875 -19.21875 1174.179688 38.800781 1023.160156 264.800781 L 983.519531 238.308594 C 1063.25 118.988281 1189.121094 38.039062 1337.949219 10.390625 C 1486.070312 -17.128906 1645.378906 10.449219 1786.519531 88.070312 C 1906.699219 154.148438 2008.171875 251.71875 2088.121094 378.070312 C 2176.601562 517.890625 2234.53125 687.53125 2260.308594 882.261719 C 2288.980469 1098.851562 2277.28125 1344.710938 2225.53125 1613 C 2168.191406 1910.289062 2061.050781 2237.5 1907.089844 2585.550781 "/>
    </g>
    <g clip-path="url(#clip-1)">
        <path fill-rule="nonzero" fill="rgb(9.00116%, 13.815308%, 16.145325%)" fill-opacity="1"
              d="M 1966.75 2449.898438 C 1993.988281 2766.980469 1959.710938 3012.488281 1884.769531 3200.050781 C 1830.71875 3335.289062 1755.601562 3440.390625 1667.121094 3520.511719 C 1664.21875 3523.171875 1661.28125 3525.78125 1658.339844 3528.371094 L 1658.308594 3528.390625 C 1644.398438 3540.601562 1630.179688 3552.230469 1615.671875 3563.261719 C 1225.25 3860.230469 627.171875 3735.519531 396.160156 3564.828125 C 394.769531 3563.820312 393.402344 3562.800781 392.035156 3561.761719 C 368.628906 3544.140625 346.550781 3526.519531 325.738281 3508.898438 C 322.917969 3506.519531 320.121094 3504.140625 317.363281 3501.75 C -124.90625 3120.949219 20.058594 2734.378906 54.074219 2124.03125 C 60.398438 2010.628906 62.886719 1889.53125 57.082031 1759.289062 C 52.417969 1654.871094 42.402344 1544.609375 24.761719 1427.75 C -18.273438 1133.308594 -2.164062 912.101562 49.578125 745.738281 C 56.542969 723.328125 64.148438 701.921875 72.359375 681.460938 C 78.515625 666.078125 85.023438 651.230469 91.824219 636.910156 C 133.449219 549.351562 186.578125 481.128906 245.660156 427.929688 C 464.648438 230.671875 765.273438 239.640625 863.261719 233.160156 C 906.589844 230.960938 948.296875 229.691406 988.492188 229.359375 C 1006.460938 229.179688 1024.109375 229.199219 1041.460938 229.398438 C 1399.851562 233.53125 1629.890625 313.710938 1775.089844 446.53125 C 1878.261719 540.871094 1938.558594 661.75 1971.640625 800.78125 C 1971.640625 800.78125 1971.671875 800.800781 1971.640625 800.820312 C 1981.429688 841.929688 1988.828125 884.609375 1994.238281 928.679688 C 1994.261719 928.71875 1994.261719 928.75 1994.238281 928.789062 C 1997.371094 954.328125 1999.859375 980.320312 2001.71875 1006.730469 C 2018.660156 1243.300781 1988.5 1513.351562 1967.710938 1786.441406 C 1950.578125 2011.191406 1939.78125 2238 1966.75 2449.898438 "/>
    </g>
    <path fill-rule="nonzero" fill="rgb(18.365479%, 37.39624%, 47.590637%)" fill-opacity="1"
          d="M 1935.75 2434.960938 C 1962.121094 2741.839844 1928.929688 2979.449219 1856.398438 3160.980469 C 1823.171875 3244.128906 1781.730469 3315.5 1733.929688 3376.378906 C 1706.519531 3411.359375 1677.011719 3442.859375 1645.769531 3471.140625 C 1642.96875 3473.710938 1640.109375 3476.238281 1637.269531 3478.75 L 1637.238281 3478.769531 C 1623.769531 3490.578125 1610.011719 3501.839844 1595.96875 3512.519531 C 1218.109375 3799.941406 639.269531 3679.230469 415.679688 3514.03125 C 414.328125 3513.058594 413.003906 3512.058594 411.699219 3511.070312 C 389.039062 3494 367.667969 3476.960938 347.519531 3459.898438 C 344.804688 3457.601562 342.085938 3455.28125 339.410156 3452.980469 C 289.597656 3410.089844 247.496094 3367.121094 212.007812 3323.75 C -57.417969 2994.421875 55.519531 2641.550781 84.601562 2119.578125 C 90.71875 2009.828125 93.121094 1892.628906 87.503906 1766.570312 C 83.003906 1665.511719 73.304688 1558.789062 56.222656 1445.691406 C 55.039062 1437.671875 53.921875 1429.710938 52.84375 1421.789062 C 15.488281 1148.691406 31.574219 942.078125 80.25 785.609375 C 86.984375 763.929688 94.34375 743.199219 102.304688 723.398438 C 108.253906 708.519531 114.558594 694.148438 121.128906 680.28125 C 161.425781 595.539062 212.835938 529.519531 270.03125 478.019531 C 481.972656 287.121094 772.914062 295.808594 867.753906 289.53125 C 909.691406 287.390625 950.070312 286.171875 988.960938 285.859375 C 1006.351562 285.671875 1023.441406 285.691406 1040.230469 285.898438 C 1387.101562 289.878906 1609.738281 367.488281 1750.261719 496.039062 C 1755.800781 501.089844 1761.210938 506.238281 1766.46875 511.441406 C 1856.5 600.351562 1910.261719 711.789062 1940.5 838.890625 C 1940.5 838.890625 1940.519531 838.910156 1940.5 838.929688 C 1949.949219 878.710938 1957.128906 920.019531 1962.371094 962.671875 C 1962.390625 962.710938 1962.390625 962.730469 1962.371094 962.769531 C 1965.398438 987.5 1967.800781 1012.640625 1969.609375 1038.199219 C 1986 1267.171875 1956.820312 1528.53125 1936.691406 1792.851562 C 1920.101562 2010.371094 1909.660156 2229.878906 1935.75 2434.960938 "/>
    <g clip-path="url(#clip-2)">
        <g clip-path="url(#clip-3)">
            <g clip-path="url(#clip-4)">
                <path fill-rule="nonzero" fill="url(#linear-pattern-0)"
                      d="M 333.46875 -405.574219 L -1188.882812 2750.25 L 1433.011719 4015.035156 L 2955.363281 859.210938 Z M 333.46875 -405.574219 "/>
            </g>
        </g>
    </g>
    <g clip-path="url(#clip-5)">
        <g clip-path="url(#clip-6)">
            <g clip-path="url(#clip-7)">
                <path fill-rule="nonzero" fill="url(#linear-pattern-1)"
                      d="M 227.550781 836.316406 L -783.558594 3437.820312 L 1506.378906 4327.835938 L 2517.488281 1726.332031 Z M 227.550781 836.316406 "/>
            </g>
        </g>
    </g>
    <path fill-rule="nonzero" fill="rgb(12.860107%, 11.213684%, 11.195374%)" fill-opacity="1"
          d="M 1023.050781 284.558594 L 1023.050781 652.699219 L 983.640625 652.699219 L 983.640625 284.71875 C 985.421875 284.679688 987.183594 284.679688 988.96875 284.660156 C 1000.46875 284.539062 1011.828125 284.488281 1023.050781 284.558594 "/>
    <path fill-rule="nonzero" fill="rgb(12.860107%, 11.213684%, 11.195374%)" fill-opacity="1"
          d="M 1020.140625 1766.191406 L 986.554688 1766.191406 C 984.945312 1766.191406 983.640625 1764.890625 983.640625 1763.28125 L 983.640625 1240.171875 L 1023.050781 1240.171875 L 1023.050781 1763.28125 C 1023.050781 1764.890625 1021.738281 1766.191406 1020.140625 1766.191406 "/>
    <path fill-rule="nonzero" fill="rgb(12.860107%, 11.213684%, 11.195374%)" fill-opacity="1"
          d="M 1103.738281 1241.628906 L 902.949219 1241.628906 C 893.332031 1241.628906 885.535156 1233.839844 885.535156 1224.21875 L 885.535156 667.898438 C 885.535156 658.28125 893.332031 650.480469 902.949219 650.480469 L 1103.738281 650.480469 C 1113.359375 650.480469 1121.160156 658.28125 1121.160156 667.898438 L 1121.160156 1224.21875 C 1121.160156 1233.839844 1113.359375 1241.628906 1103.738281 1241.628906 "/>
    <path fill-rule="nonzero" fill="rgb(18.365479%, 37.39624%, 47.590637%)" fill-opacity="1"
          d="M 1103.488281 773.03125 L 1103.488281 1119.089844 C 1103.488281 1162.289062 1068.460938 1197.308594 1025.28125 1197.308594 L 981.414062 1197.308594 C 973.289062 1197.308594 965.453125 1196.058594 958.074219 1193.761719 C 950.363281 1191.359375 943.167969 1187.789062 936.703125 1183.25 C 916.449219 1169.128906 903.203125 1145.671875 903.203125 1119.089844 L 903.203125 773.03125 C 903.203125 746.449219 916.449219 722.988281 936.703125 708.871094 C 943.167969 704.328125 950.363281 700.761719 958.074219 698.359375 C 965.453125 696.058594 973.289062 694.820312 981.414062 694.820312 L 1025.28125 694.820312 C 1068.460938 694.820312 1103.488281 729.828125 1103.488281 773.03125 "/>
    <path fill-rule="nonzero" fill="rgb(20.275879%, 40.77301%, 51.779175%)" fill-opacity="1"
          d="M 1101.140625 812.519531 L 905.558594 812.519531 C 904.257812 812.519531 903.203125 811.46875 903.203125 810.160156 L 903.203125 783.011719 C 903.203125 781.710938 904.257812 780.660156 905.558594 780.660156 L 1101.140625 780.660156 C 1102.441406 780.660156 1103.488281 781.710938 1103.488281 783.011719 L 1103.488281 810.160156 C 1103.488281 811.46875 1102.441406 812.519531 1101.140625 812.519531 "/>
    <path fill-rule="nonzero" fill="rgb(20.275879%, 40.77301%, 51.779175%)" fill-opacity="1"
          d="M 1101.128906 893.578125 L 905.550781 893.578125 C 904.246094 893.578125 903.191406 892.519531 903.191406 891.21875 L 903.191406 864.070312 C 903.191406 862.769531 904.246094 861.710938 905.550781 861.710938 L 1101.128906 861.710938 C 1102.429688 861.710938 1103.488281 862.769531 1103.488281 864.070312 L 1103.488281 891.21875 C 1103.488281 892.519531 1102.429688 893.578125 1101.128906 893.578125 "/>
    <path fill-rule="nonzero" fill="rgb(20.275879%, 40.77301%, 51.779175%)" fill-opacity="1"
          d="M 1101.121094 974.628906 L 905.539062 974.628906 C 904.238281 974.628906 903.183594 973.578125 903.183594 972.28125 L 903.183594 945.121094 C 903.183594 943.820312 904.238281 942.769531 905.539062 942.769531 L 1101.121094 942.769531 C 1102.421875 942.769531 1103.480469 943.820312 1103.480469 945.121094 L 1103.480469 972.28125 C 1103.480469 973.578125 1102.421875 974.628906 1101.121094 974.628906 "/>
    <path fill-rule="nonzero" fill="rgb(20.275879%, 40.77301%, 51.779175%)" fill-opacity="1"
          d="M 1101.109375 1055.691406 L 905.53125 1055.691406 C 904.230469 1055.691406 903.175781 1054.628906 903.175781 1053.328125 L 903.175781 1026.179688 C 903.175781 1024.878906 904.230469 1023.820312 905.53125 1023.820312 L 1101.109375 1023.820312 C 1102.410156 1023.820312 1103.46875 1024.878906 1103.46875 1026.179688 L 1103.46875 1053.328125 C 1103.46875 1054.628906 1102.410156 1055.691406 1101.109375 1055.691406 "/>
    <path fill-rule="nonzero" fill="rgb(20.275879%, 40.77301%, 51.779175%)" fill-opacity="1"
          d="M 1101.101562 1136.738281 L 905.523438 1136.738281 C 904.222656 1136.738281 903.167969 1135.691406 903.167969 1134.390625 L 903.167969 1107.238281 C 903.167969 1105.941406 904.222656 1104.878906 905.523438 1104.878906 L 1101.101562 1104.878906 C 1102.410156 1104.878906 1103.460938 1105.941406 1103.460938 1107.238281 L 1103.460938 1134.390625 C 1103.460938 1135.691406 1102.410156 1136.738281 1101.101562 1136.738281 "/>
</svg>
