<?xml version="1.0" encoding="UTF-8"?>
<svg xmlns="http://www.w3.org/2000/svg" xmlns:xlink="http://www.w3.org/1999/xlink" width="1768" height="3001"
     viewBox="0 0 1768 3001">
    <path fill-rule="evenodd" fill="rgb(0%, 0%, 0%)" fill-opacity="1"
          d="M 1475.230469 3000.011719 L 293.003906 3000.011719 C 131.367188 3000.011719 0.0117188 2834.710938 0.0117188 2631.574219 L 0.0117188 1052.351562 C 0.0117188 1045.519531 1.957031 1038.671875 5.867188 1033.058594 L 349.648438 509.828125 C 356.242188 500.058594 367.230469 493.960938 378.941406 493.960938 L 1389.039062 493.949219 C 1401 493.949219 1411.988281 500.050781 1418.578125 509.820312 L 1762.359375 1037.691406 C 1766.03125 1043.300781 1767.980469 1050.140625 1767.980469 1056.980469 L 1767.980469 2631.316406 C 1768.21875 2834.722656 1636.621094 3000.011719 1475.230469 3000.011719 Z M 70.324219 1063.089844 L 70.324219 2631.574219 C 70.324219 2796.132812 170.183594 2929.695312 292.996094 2929.695312 L 1474.980469 2929.695312 C 1597.789062 2929.695312 1697.648438 2795.898438 1697.648438 2631.574219 L 1697.660156 1067.488281 L 1369.988281 564.28125 L 397.992188 564.28125 L 70.324219 1063.089844 "/>
    <path fill-rule="evenodd" fill="rgb(0%, 0%, 0%)" fill-opacity="1"
          d="M 1279.898438 564.28125 C 1260.621094 564.28125 1244.738281 548.648438 1244.738281 529.109375 L 1244.738281 391.410156 C 1244.738281 345.121094 1315.058594 345.109375 1315.058594 391.410156 L 1315.058594 529.359375 C 1315.050781 548.640625 1299.191406 564.28125 1279.898438 564.28125 Z M 488.328125 564.28125 C 468.800781 564.28125 453.167969 548.648438 453.167969 529.109375 L 453.175781 391.410156 C 453.175781 345.058594 523.5 345.050781 523.5 391.410156 L 523.5 529.359375 C 523.492188 548.640625 507.859375 564.28125 488.328125 564.28125 "/>
    <path fill-rule="evenodd" fill="rgb(0%, 0%, 0%)" fill-opacity="1"
          d="M 1428.589844 426.570312 L 339.636719 426.570312 C 266.878906 426.570312 207.785156 367.488281 207.785156 294.71875 L 207.785156 131.859375 C 207.785156 59.101562 266.871094 0.0117188 339.636719 0.0117188 L 1428.589844 0.0195312 C 1501.351562 0.0195312 1560.441406 59.101562 1560.441406 131.871094 L 1560.441406 294.730469 C 1560.441406 367.230469 1501.351562 426.570312 1428.589844 426.570312 Z M 339.636719 70.089844 C 305.695312 70.089844 278.109375 97.679688 278.109375 131.609375 L 278.109375 294.46875 C 278.109375 328.410156 305.703125 356 339.636719 356 L 1428.589844 356 C 1462.539062 356 1490.121094 328.410156 1490.121094 294.46875 L 1490.121094 131.609375 C 1490.121094 97.671875 1462.53125 70.089844 1428.589844 70.089844 L 339.636719 70.089844 "/>
    <path fill-rule="evenodd" fill="rgb(0%, 0%, 0%)" fill-opacity="1"
          d="M 1733.058594 2579.320312 L 35.171875 2579.320312 C -11.117188 2579.320312 -11.128906 2508.996094 35.171875 2508.996094 L 1732.820312 2509.007812 C 1778.96875 2509.007812 1779.089844 2579.320312 1733.058594 2579.320312 Z M 1733.058594 1252.070312 L 35.171875 1252.070312 C -11.175781 1252.070312 -11.183594 1181.75 35.171875 1181.75 L 1732.820312 1181.761719 C 1779.039062 1181.761719 1779.148438 1252.070312 1733.058594 1252.070312 "/>
    <path fill-rule="evenodd" fill="rgb(0%, 0%, 0%)" fill-opacity="1"
          d="M 660.707031 2207.464844 C 567.925781 2207.464844 492.484375 2132.023438 492.484375 2039.242188 L 492.484375 1721.828125 C 492.484375 1629.058594 567.925781 1553.609375 660.707031 1553.609375 C 753.484375 1553.609375 828.929688 1629.058594 828.929688 1721.828125 L 828.929688 2039.242188 C 829.175781 2132.023438 753.484375 2207.464844 660.707031 2207.464844 Z M 660.707031 1623.679688 C 606.753906 1623.679688 562.800781 1667.628906 562.800781 1721.589844 L 562.800781 2038.996094 C 562.800781 2167.847656 758.613281 2167.847656 758.613281 2038.996094 L 758.613281 1721.589844 C 758.859375 1667.628906 714.671875 1623.679688 660.707031 1623.679688 "/>
    <path fill-rule="evenodd" fill="rgb(0%, 0%, 0%)" fill-opacity="1"
          d="M 794.023438 1915.699219 L 527.636719 1915.699219 C 481.347656 1915.699219 481.335938 1845.378906 527.636719 1845.378906 L 794.023438 1845.378906 C 840.425781 1845.378906 840.144531 1915.699219 794.023438 1915.699219 "/>
    <path fill-rule="evenodd" fill="rgb(0%, 0%, 0%)" fill-opacity="1"
          d="M 1090.191406 2207.710938 C 925.070312 2207.710938 817.765625 2027.273438 902.179688 1881.28125 C 962.246094 1777.511719 1095.550781 1741.621094 1199.320312 1801.679688 C 1391.980469 1913.199219 1310.671875 2207.710938 1090.191406 2207.710938 Z M 963.222656 1916.179688 C 897.675781 2029.914062 1003.300781 2165.878906 1129 2132.023438 C 1255.371094 2097.996094 1277.46875 1927.398438 1164.410156 1862.21875 C 1094.101562 1821.679688 1003.761719 1845.871094 963.222656 1916.179688 "/>
    <path fill-rule="evenodd" fill="rgb(0%, 0%, 0%)" fill-opacity="1"
          d="M 1248.648438 2116.398438 C 1226.421875 2116.398438 956.390625 1953.25 915.125 1929.371094 C 875.070312 1906.199219 909.976562 1845.308594 950.277344 1868.328125 L 1266.21875 2050.722656 C 1297.289062 2068.699219 1284.328125 2116.398438 1248.648438 2116.398438 "/>
    <path fill-rule="evenodd" fill="rgb(0%, 0%, 0%)" fill-opacity="1"
          d="M 884.117188 2445.523438 C 572.5625 2445.523438 319.132812 2192.078125 319.132812 1880.539062 C 319.132812 1569 572.5625 1315.558594 884.117188 1315.558594 C 1195.671875 1315.558594 1449.101562 1569 1449.101562 1880.539062 C 1449.101562 2192.078125 1195.671875 2445.523438 884.117188 2445.523438 Z M 884.117188 1385.871094 C 611.390625 1385.871094 389.445312 1607.808594 389.445312 1880.539062 C 389.445312 2153.265625 611.390625 2375.207031 884.117188 2375.207031 C 1156.839844 2375.207031 1378.78125 2153.265625 1378.78125 1880.539062 C 1378.78125 1607.808594 1156.839844 1385.871094 884.117188 1385.871094 "/>
    <path fill-rule="evenodd" fill="rgb(0%, 0%, 0%)" fill-opacity="1"
          d="M 407.757812 426.570312 C 361.710938 426.570312 372.59375 367.449219 372.59375 319.871094 C 372.59375 273.519531 442.917969 273.511719 442.917969 319.871094 C 442.917969 366.988281 453.800781 426.570312 407.757812 426.570312 "/>
    <path fill-rule="evenodd" fill="rgb(0%, 0%, 0%)" fill-opacity="1"
          d="M 646.058594 426.570312 C 600.015625 426.570312 610.894531 367.449219 610.894531 319.871094 C 610.894531 273.519531 681.222656 273.511719 681.222656 319.871094 C 681.222656 366.609375 692.09375 426.570312 646.058594 426.570312 "/>
    <path fill-rule="evenodd" fill="rgb(0%, 0%, 0%)" fill-opacity="1"
          d="M 884.117188 426.570312 C 838.070312 426.570312 848.953125 367.449219 848.953125 319.871094 C 848.953125 273.519531 919.277344 273.511719 919.277344 319.871094 C 919.277344 366.988281 930.160156 426.570312 884.117188 426.570312 "/>
    <path fill-rule="evenodd" fill="rgb(0%, 0%, 0%)" fill-opacity="1"
          d="M 1122.171875 426.570312 C 1076.140625 426.570312 1087.011719 367.050781 1087.011719 319.871094 C 1087.011719 273.578125 1157.328125 273.570312 1157.328125 319.871094 C 1157.328125 367.488281 1168.261719 426.570312 1122.171875 426.570312 "/>
    <path fill-rule="evenodd" fill="rgb(0%, 0%, 0%)" fill-opacity="1"
          d="M 1360.46875 426.570312 C 1314.441406 426.570312 1325.308594 367.050781 1325.308594 319.871094 C 1325.308594 273.578125 1395.640625 273.570312 1395.640625 319.871094 C 1395.640625 366.96875 1406.519531 426.570312 1360.46875 426.570312 "/>
    <path fill-rule="evenodd" fill="rgb(0%, 0%, 0%)" fill-opacity="1"
          d="M 526.90625 141.628906 C 480.863281 141.628906 491.746094 82.511719 491.746094 34.929688 C 491.746094 -11.421875 562.070312 -11.429688 562.070312 34.929688 C 562.070312 81.691406 572.941406 141.628906 526.90625 141.628906 "/>
    <path fill-rule="evenodd" fill="rgb(0%, 0%, 0%)" fill-opacity="1"
          d="M 764.964844 141.628906 C 718.921875 141.628906 729.800781 82.511719 729.800781 34.929688 C 729.800781 -11.421875 800.128906 -11.429688 800.128906 34.929688 C 800.128906 82.070312 811.007812 141.628906 764.964844 141.628906 "/>
    <path fill-rule="evenodd" fill="rgb(0%, 0%, 0%)" fill-opacity="1"
          d="M 1003.269531 141.628906 C 957.230469 141.628906 968.105469 82.109375 968.105469 34.929688 C 968.105469 -11.359375 1038.429688 -11.371094 1038.429688 34.929688 C 1038.429688 81.671875 1049.300781 141.628906 1003.269531 141.628906 "/>
    <path fill-rule="evenodd" fill="rgb(0%, 0%, 0%)" fill-opacity="1"
          d="M 1241.320312 141.628906 C 1195.289062 141.628906 1206.160156 82.109375 1206.160156 34.929688 C 1206.160156 -11.359375 1276.488281 -11.371094 1276.488281 34.929688 C 1276.488281 82.070312 1287.371094 141.628906 1241.320312 141.628906 "/>
</svg>
