<?xml version="1.0" encoding="UTF-8"?>
<svg xmlns="http://www.w3.org/2000/svg" xmlns:xlink="http://www.w3.org/1999/xlink" width="2848" height="3001"
     viewBox="0 0 2848 3001">
    <path fill-rule="nonzero" fill="rgb(0%, 0%, 0%)" fill-opacity="1"
          d="M 776.429688 503.101562 L 856.519531 140.96875 C 858.851562 122.648438 871.964844 106.671875 890.898438 101.601562 L 890.949219 101.660156 L 1261.429688 2.390625 C 1278.410156 -3.199219 1297.839844 1.21875 1310.691406 15.261719 L 1310.539062 15.421875 L 1560.78125 288.789062 C 1572.960938 299.78125 1579.011719 316.828125 1575.148438 333.960938 L 1575.011719 333.921875 L 1486.871094 724.421875 C 1484.308594 742.46875 1471.28125 758.121094 1452.570312 763.128906 L 1452.53125 763.070312 L 1110.71875 854.660156 C 1093.851562 860.148438 1074.578125 855.78125 1061.75 841.890625 L 1061.769531 841.769531 L 789.757812 547.199219 C 778.234375 536.238281 772.566406 519.699219 776.25 503.058594 L 776.429688 503.101562 "/>
    <path fill-rule="nonzero" fill="rgb(0%, 0%, 0%)" fill-opacity="1"
          d="M 2810.089844 1837.949219 C 2824.558594 1845.449219 2834.699219 1860.28125 2835.320312 1877.738281 L 2847.078125 2174.578125 C 2849.28125 2192.667969 2840.601562 2211.117188 2823.828125 2220.808594 L 2597.039062 2351.75 C 2582.078125 2361.882812 2562.011719 2362.71875 2545.761719 2352.457031 L 2294.449219 2193.707031 C 2280.21875 2186.183594 2270.25 2171.539062 2269.550781 2154.28125 L 2256.089844 1848.320312 L 2525.808594 1691.21875 C 2540.921875 1680.460938 2561.648438 1679.28125 2578.191406 1689.941406 L 2810.089844 1837.949219 "/>
    <path fill-rule="nonzero" fill="rgb(0%, 0%, 0%)" fill-opacity="1"
          d="M 2540.300781 2998.082031 L 47.5 2999.847656 L 47.5 3000.027344 C 21.617188 3000.042969 0.605469 2979.074219 0.59375 2953.191406 L 0.59375 2953.15625 L 0.585938 2953.15625 L 0.585938 177.25 C 0.585938 151.359375 21.574219 130.371094 47.464844 130.371094 C 57.195312 130.371094 66.242188 133.339844 73.726562 138.421875 L 435.421875 347.238281 L 435.476562 347.140625 C 447.429688 354.039062 455.191406 365.421875 457.871094 377.929688 L 537.988281 676.910156 L 703.722656 676.910156 C 722.703125 676.910156 739.058594 688.179688 746.429688 704.410156 L 1048.449219 1227.53125 L 1525.710938 1355.410156 L 1525.761719 1355.359375 C 1539.371094 1359.011719 1549.96875 1368.289062 1555.71875 1380.03125 L 1738.460938 1696.519531 L 2089.929688 1899.449219 L 2089.988281 1899.359375 C 2105 1908.03125 2113.410156 1923.769531 2113.429688 1939.949219 L 2113.429688 2308.035156 L 2556.859375 2430.421875 L 2556.890625 2430.289062 C 2577.679688 2436.027344 2591.308594 2454.90625 2591.300781 2475.476562 L 2591.300781 2951.390625 C 2591.300781 2977.28125 2570.308594 2998.269531 2544.421875 2998.269531 C 2543.03125 2998.269531 2541.648438 2998.199219 2540.300781 2998.082031 Z M 1649.230469 1972.921875 C 1671.570312 1959.96875 1679.191406 1931.359375 1666.25 1909.011719 C 1653.308594 1886.671875 1624.691406 1879.050781 1602.351562 1891.988281 L 1340.589844 2043.117188 C 1318.238281 2056.058594 1310.621094 2084.675781 1323.558594 2107.019531 C 1336.5 2129.367188 1365.121094 2136.984375 1387.46875 2124.046875 Z M 491.449219 1902.269531 C 469.101562 1915.109375 461.398438 1943.640625 474.238281 1965.988281 C 487.074219 1988.328125 515.609375 1996.039062 537.953125 1983.199219 L 778.933594 1844.070312 L 872.933594 2006.894531 C 885.773438 2029.242188 914.304688 2036.945312 936.652344 2024.105469 C 958.996094 2011.269531 966.699219 1982.738281 953.863281 1960.390625 L 846.332031 1774.128906 L 1037.859375 1442.378906 C 1050.699219 1420.039062 1043 1391.5 1020.648438 1378.671875 C 998.308594 1365.828125 969.773438 1373.53125 956.9375 1395.878906 L 752.027344 1750.800781 L 751.847656 1750.691406 L 750.851562 1752.5 Z M 1865.140625 2367.015625 C 1878.078125 2344.671875 1870.460938 2316.054688 1848.121094 2303.113281 C 1825.769531 2290.171875 1797.148438 2297.789062 1784.210938 2320.136719 L 1680 2500.636719 L 1333.789062 2500.636719 C 1307.898438 2500.636719 1286.910156 2521.628906 1286.910156 2547.515625 C 1286.910156 2573.40625 1307.898438 2594.394531 1333.789062 2594.394531 L 1706.929688 2594.394531 C 1723.121094 2594.375 1738.859375 2585.972656 1747.53125 2570.957031 L 1747.429688 2570.902344 Z M 467.371094 928.570312 C 489.71875 915.730469 497.421875 887.199219 484.585938 864.851562 C 471.746094 842.511719 443.214844 834.808594 420.867188 847.640625 L 250.921875 945.761719 C 228.574219 958.589844 220.871094 987.128906 233.710938 1009.46875 C 246.546875 1031.820312 275.078125 1039.519531 297.425781 1026.679688 L 467.371094 928.570312 "/>
    <path fill-rule="nonzero" fill="rgb(0%, 0%, 0%)" fill-opacity="1"
          d="M 2273.128906 1008.070312 C 2287.601562 1015.558594 2297.75 1030.398438 2298.359375 1047.859375 L 2310.121094 1344.691406 C 2312.320312 1362.78125 2303.648438 1381.230469 2286.878906 1390.921875 L 2060.078125 1521.871094 C 2045.121094 1532 2025.050781 1532.828125 2008.800781 1522.570312 L 1757.488281 1363.820312 C 1743.269531 1356.300781 1733.289062 1341.660156 1732.601562 1324.398438 L 1719.128906 1018.429688 L 1988.859375 861.328125 C 2003.96875 850.570312 2024.699219 849.390625 2041.238281 860.058594 L 2273.128906 1008.070312 "/>
</svg>
