<?xml version="1.0" encoding="UTF-8"?>
<svg xmlns="http://www.w3.org/2000/svg" xmlns:xlink="http://www.w3.org/1999/xlink" width="2166" height="3000"
     viewBox="0 0 2166 3000">
    <path fill-rule="evenodd" fill="rgb(0%, 0%, 0%)" fill-opacity="1"
          d="M 540.613281 1118.148438 C 531.269531 1118.148438 522.324219 1114.441406 515.726562 1107.820312 L 373.800781 965.910156 L 966.15625 373.558594 L 1108.078125 515.46875 C 1121.859375 529.210938 1121.859375 551.511719 1108.078125 565.261719 L 565.503906 1107.851562 C 558.902344 1114.460938 549.960938 1118.148438 540.613281 1118.148438 Z M 324.011719 916.121094 L 122.742188 714.859375 C -138.046875 454.078125 43.671875 0.289062 418.910156 0.289062 C 531.09375 0.289062 636.28125 43.691406 715.101562 122.53125 L 916.375 323.78125 L 324.011719 916.121094 "/>
    <path fill-rule="evenodd" fill="rgb(0%, 0%, 0%)" fill-opacity="1"
          d="M 1625.769531 1118.148438 C 1616.421875 1118.148438 1607.480469 1114.441406 1600.851562 1107.820312 L 1058.300781 565.261719 C 1044.539062 551.511719 1044.539062 529.21875 1058.300781 515.46875 L 1200.210938 373.558594 L 1792.570312 965.929688 L 1650.648438 1107.851562 C 1644.050781 1114.460938 1635.101562 1118.148438 1625.769531 1118.148438 Z M 1250.011719 323.761719 L 1451.269531 122.488281 C 1712.078125 -138.300781 2165.839844 43.410156 2165.839844 418.660156 C 2165.839844 530.839844 2122.449219 636.039062 2043.628906 714.851562 L 1842.378906 916.121094 L 1250.011719 323.761719 "/>
    <path fill-rule="evenodd" fill="rgb(0%, 0%, 0%)" fill-opacity="1"
          d="M 909.207031 1304.308594 C 838.394531 1304.308594 780.785156 1246.699219 780.785156 1175.878906 C 780.785156 1105.070312 838.394531 1047.460938 909.207031 1047.460938 C 980.023438 1047.460938 1037.628906 1105.070312 1037.628906 1175.878906 C 1037.628906 1246.699219 980.023438 1304.308594 909.207031 1304.308594 "/>
    <path fill-rule="evenodd" fill="rgb(0%, 0%, 0%)" fill-opacity="1"
          d="M 1142.269531 1056.898438 C 1071.460938 1056.898438 1013.851562 999.289062 1013.851562 928.480469 C 1013.851562 857.671875 1071.460938 800.050781 1142.269531 800.050781 C 1213.078125 800.050781 1270.71875 857.671875 1270.71875 928.480469 C 1270.71875 999.289062 1213.109375 1056.898438 1142.269531 1056.898438 "/>
    <path fill-rule="evenodd" fill="rgb(0%, 0%, 0%)" fill-opacity="1"
          d="M 1346.660156 1548.128906 C 1275.851562 1548.128906 1218.210938 1490.519531 1218.210938 1419.699219 C 1218.210938 1348.890625 1275.820312 1291.28125 1346.660156 1291.28125 C 1417.5 1291.28125 1475.109375 1348.890625 1475.109375 1419.699219 C 1475.109375 1490.519531 1417.480469 1548.128906 1346.660156 1548.128906 "/>
    <path fill-rule="evenodd" fill="rgb(0%, 0%, 0%)" fill-opacity="1"
          d="M 902.046875 1777.621094 C 831.234375 1777.621094 773.617188 1720 773.617188 1649.160156 C 773.617188 1578.320312 831.234375 1520.738281 902.046875 1520.738281 C 972.855469 1520.738281 1030.46875 1578.339844 1030.46875 1649.160156 C 1030.46875 1719.96875 972.855469 1777.621094 902.046875 1777.621094 "/>
    <path fill-rule="evenodd" fill="rgb(0%, 0%, 0%)" fill-opacity="1"
          d="M 1149.449219 1337.25 C 1113.820312 1337.25 1084.890625 1308.320312 1084.890625 1272.691406 L 1084.890625 1179.449219 C 1084.890625 1094.46875 1214 1094.46875 1214 1179.449219 L 1214 1272.691406 C 1214 1308.328125 1185.078125 1337.25 1149.449219 1337.25 Z M 722.761719 1505.75 C 687.132812 1505.75 658.203125 1476.820312 658.203125 1441.191406 L 658.203125 1347.96875 C 658.203125 1263 787.316406 1262.988281 787.316406 1347.96875 L 787.316406 1441.191406 C 787.316406 1476.839844 758.40625 1505.75 722.761719 1505.75 Z M 1228.339844 1828.46875 C 1192.710938 1828.46875 1163.78125 1799.539062 1163.78125 1763.921875 L 1163.78125 1670.671875 C 1163.78125 1585.691406 1292.898438 1585.710938 1292.898438 1670.671875 L 1292.898438 1763.921875 C 1292.898438 1799.539062 1263.960938 1828.46875 1228.339844 1828.46875 Z M 1418.359375 1211.738281 C 1382.730469 1211.738281 1353.808594 1182.808594 1353.808594 1147.179688 L 1353.808594 1053.941406 C 1353.808594 968.960938 1482.921875 968.960938 1482.921875 1053.941406 L 1482.921875 1147.179688 C 1482.921875 1182.820312 1454 1211.738281 1418.359375 1211.738281 "/>
    <path fill-rule="evenodd" fill="rgb(0%, 0%, 0%)" fill-opacity="1"
          d="M 1245.558594 2707.894531 L 1659.179688 1991.449219 C 1679.300781 2060.363281 1747.25 2339.648438 1616.800781 2599.636719 C 1538.171875 2756.3125 1402.800781 2874.886719 1213.71875 2952.96875 C 1232.898438 2871.675781 1244.390625 2789.394531 1245.558594 2707.894531 Z M 1119.230469 2259.347656 C 1281.140625 2045.511719 1532.179688 1972.300781 1598.21875 1956.210938 L 1238.371094 2579.523438 C 1223.699219 2467.203125 1185.769531 2358.136719 1119.230469 2259.347656 "/>
    <path fill-rule="evenodd" fill="rgb(0%, 0%, 0%)" fill-opacity="1"
          d="M 1089.449219 2999.890625 C 834.914062 2928.800781 655.964844 2799.398438 557.480469 2615.15625 C 416.257812 2350.894531 486.664062 2061.625 507.191406 1991.378906 Z M 568.199219 1956.21875 C 639.394531 1973.589844 925.027344 2057.269531 1083.210938 2311.65625 C 1193.511719 2489.054688 1216.101562 2708.679688 1150.421875 2964.652344 L 568.199219 1956.21875 "/>
</svg>
