<svg xml:space="preserve" style="max-height: 500px" viewBox="113.80938833570413 35.88 486.4182076813656 182.52" y="0px"
     x="0px" xmlns:xlink="http://www.w3.org/1999/xlink" xmlns="http://www.w3.org/2000/svg" version="1.1"
     width="486.4182076813656" height="182.52">
<style type="text/css">
	.st0{fill:#E6E7E8;}
	.st1{fill:#58595B;}
	.st2{fill:#939598;}
	.st3{fill:#BCBEC0;}
	.st4{opacity:0.26;}
	.st5{fill:#3C2415;}
</style>
    <g id="_x31_">
	<g>
		<path d="M578.8,69.2h-22.7c-5.7,0-10.4,4.7-10.4,10.4v9.8h-357v-9.8c0-5.7-4.7-10.4-10.4-10.4h-22.7&#10;&#9;&#9;&#9;c-5.7,0-10.4,4.7-10.4,10.4v113.3c0,5.8,4.7,10.4,10.4,10.4h22.7c5.7,0,10.4-4.7,10.4-10.4v-9.8h357v9.8c0,5.8,4.7,10.4,10.4,10.4&#10;&#9;&#9;&#9;h22.7c5.7,0,10.4-4.7,10.4-10.4V79.7C589.3,73.9,584.6,69.2,578.8,69.2z"
              class="st0"/>
        <path d="M758.6,203.4h22.7c5.7,0,10.4-4.7,10.4-10.4v-9.8h127.2v9.8c0,5.8,4.7,10.4,10.4,10.4H952&#10;&#9;&#9;&#9;c5.7,0,10.4-4.7,10.4-10.4V79.7c0-5.7-4.7-10.4-10.4-10.4h-22.7c-5.7,0-10.4,4.7-10.4,10.4v9.8H791.7v-9.8&#10;&#9;&#9;&#9;c0-5.7-4.7-10.4-10.4-10.4h-22.7c-5.8,0-10.4,4.7-10.4,10.4v113.3C748.2,198.7,752.9,203.4,758.6,203.4z"
              class="st0"/>
        <path d="M975.3,313.6h-22.7c-5.7,0-10.4,4.7-10.4,10.4v9.8h-36.6v-34.2h9.8c5.8,0,10.4-4.7,10.4-10.4v-22.7&#10;&#9;&#9;&#9;c0-5.8-4.7-10.4-10.4-10.4H802.1c-5.8,0-10.4,4.7-10.4,10.4v22.7c0,5.7,4.7,10.4,10.4,10.4h9.8v34.2h-34.2V324&#10;&#9;&#9;&#9;c0-5.8-4.7-10.4-10.4-10.4h-22.7c-5.7,0-10.4,4.7-10.4,10.4v113.3c0,5.7,4.7,10.4,10.4,10.4h22.7c5.7,0,10.4-4.7,10.4-10.4v-9.8&#10;&#9;&#9;&#9;h34.2v34.2h-9.8c-5.8,0-10.4,4.7-10.4,10.4v22.7c0,5.8,4.7,10.4,10.4,10.4h113.3c5.8,0,10.4-4.7,10.4-10.4v-22.7&#10;&#9;&#9;&#9;c0-5.8-4.7-10.4-10.4-10.4h-9.8v-34.2h36.6v9.8c0,5.7,4.7,10.4,10.4,10.4h22.7c5.7,0,10.4-4.7,10.4-10.4V324&#10;&#9;&#9;&#9;C985.7,318.3,981,313.6,975.3,313.6z"
              class="st0"/>
        <path d="M954.9,527.2h-22.7c-5.8,0-10.4,4.7-10.4,10.4v11c-35.4,2.2-68.9,15.9-95.1,38.8c-26.2,23-43.2,53.7-48.4,87&#10;&#9;&#9;&#9;h-2.3c-5.8,0-10.4,4.7-10.4,10.4v22.7c0,5.8,4.7,10.4,10.4,10.4h113.3c5.7,0,10.4-4.7,10.4-10.4v-22.7c0-5.7-4.7-10.4-10.4-10.4&#10;&#9;&#9;&#9;h-2.3c5.2-16.7,18.7-29.7,34.9-33.7v10.2c0,5.8,4.7,10.4,10.4,10.4h22.7c5.8,0,10.4-4.7,10.4-10.4V537.6&#10;&#9;&#9;&#9;C965.3,531.9,960.6,527.2,954.9,527.2z"
              class="st0"/>
        <path d="M275.9,313.6h-22.7c-5.7,0-10.4,4.7-10.4,10.4v113.3c0,5.7,4.7,10.4,10.4,10.4h22.7c5.7,0,10.4-4.7,10.4-10.4&#10;&#9;&#9;&#9;v-9.8h162v9.8c0,5.7,4.7,10.4,10.4,10.4h22.7c5.7,0,10.4-4.7,10.4-10.4V324c0-5.8-4.7-10.4-10.4-10.4h-22.7&#10;&#9;&#9;&#9;c-5.7,0-10.4,4.7-10.4,10.4v9.8h-34.2v-34.2h9.8c5.7,0,10.4-4.7,10.4-10.4v-22.7c0-5.8-4.7-10.4-10.4-10.4H310.6&#10;&#9;&#9;&#9;c-5.7,0-10.4,4.7-10.4,10.4v22.7c0,5.7,4.7,10.4,10.4,10.4h9.8v34.2h-34.2V324C286.3,318.3,281.6,313.6,275.9,313.6z"
              class="st0"/>
        <path d="M524.1,675.2h-1.8c-5.2-33.3-22.2-64-48.4-87c-28.8-25.3-66.3-39.2-105.5-39.2c-39.2,0-76.7,13.9-105.5,39.2&#10;&#9;&#9;&#9;c-26.2,23-43.2,53.7-48.4,87h-2.3c-5.7,0-10.4,4.7-10.4,10.4v22.7c0,5.8,4.7,10.4,10.4,10.4h113.3c5.7,0,10.4-4.7,10.4-10.4v-22.7&#10;&#9;&#9;&#9;c0-5.7-4.7-10.4-10.4-10.4h-2.3c6.3-20.5,24.5-35,45.3-35s39,14.5,45.3,35h-2.8c-5.7,0-10.4,4.7-10.4,10.4v22.7&#10;&#9;&#9;&#9;c0,5.8,4.7,10.4,10.4,10.4h113.3c5.7,0,10.4-4.7,10.4-10.4v-22.7C534.5,679.9,529.9,675.2,524.1,675.2z"
              class="st0"/>
	</g>
        <g>
		<path d="M570.3,61.2h-22.7c-5.7,0-10.4,4.7-10.4,10.4v9.8h-357v-9.8c0-5.7-4.7-10.4-10.4-10.4h-22.7&#10;&#9;&#9;&#9;c-5.7,0-10.4,4.7-10.4,10.4v113.3c0,5.8,4.7,10.4,10.4,10.4h22.7c5.7,0,10.4-4.7,10.4-10.4v-9.8h357v9.8c0,5.8,4.7,10.4,10.4,10.4&#10;&#9;&#9;&#9;h22.7c5.7,0,10.4-4.7,10.4-10.4V71.7C580.8,65.9,576.1,61.2,570.3,61.2z"
              class="st1"/>
            <path d="M750.1,195.4h22.7c5.7,0,10.4-4.7,10.4-10.4v-9.8h127.2v9.8c0,5.8,4.7,10.4,10.4,10.4h22.7&#10;&#9;&#9;&#9;c5.7,0,10.4-4.7,10.4-10.4V71.7c0-5.7-4.7-10.4-10.4-10.4h-22.7c-5.7,0-10.4,4.7-10.4,10.4v9.8H783.2v-9.8&#10;&#9;&#9;&#9;c0-5.7-4.7-10.4-10.4-10.4h-22.7c-5.8,0-10.4,4.7-10.4,10.4v113.3C739.7,190.7,744.4,195.4,750.1,195.4z"
                  class="st1"/>
            <path d="M966.8,305.6h-22.7c-5.7,0-10.4,4.7-10.4,10.4v9.8h-36.6v-34.2h9.8c5.8,0,10.4-4.7,10.4-10.4v-22.7&#10;&#9;&#9;&#9;c0-5.8-4.7-10.4-10.4-10.4H793.6c-5.8,0-10.4,4.7-10.4,10.4v22.7c0,5.7,4.7,10.4,10.4,10.4h9.8v34.2h-34.2V316&#10;&#9;&#9;&#9;c0-5.8-4.7-10.4-10.4-10.4h-22.7c-5.7,0-10.4,4.7-10.4,10.4v113.3c0,5.7,4.7,10.4,10.4,10.4h22.7c5.7,0,10.4-4.7,10.4-10.4v-9.8&#10;&#9;&#9;&#9;h34.2v34.2h-9.8c-5.8,0-10.4,4.7-10.4,10.4v22.7c0,5.8,4.7,10.4,10.4,10.4h113.3c5.8,0,10.4-4.7,10.4-10.4v-22.7&#10;&#9;&#9;&#9;c0-5.8-4.7-10.4-10.4-10.4h-9.8v-34.2h36.6v9.8c0,5.7,4.7,10.4,10.4,10.4h22.7c5.7,0,10.4-4.7,10.4-10.4V316&#10;&#9;&#9;&#9;C977.2,310.3,972.5,305.6,966.8,305.6z"
                  class="st1"/>
            <path d="M946.4,519.2h-22.7c-5.8,0-10.4,4.7-10.4,10.4v11c-35.4,2.2-68.9,15.9-95.1,38.8c-26.2,23-43.2,53.7-48.4,87&#10;&#9;&#9;&#9;h-2.3c-5.8,0-10.4,4.7-10.4,10.4v22.7c0,5.8,4.7,10.4,10.4,10.4h113.3c5.7,0,10.4-4.7,10.4-10.4v-22.7c0-5.7-4.7-10.4-10.4-10.4&#10;&#9;&#9;&#9;h-2.3c5.2-16.7,18.7-29.7,34.9-33.7v10.2c0,5.8,4.7,10.4,10.4,10.4h22.7c5.8,0,10.4-4.7,10.4-10.4V529.6&#10;&#9;&#9;&#9;C956.8,523.9,952.1,519.2,946.4,519.2z"
                  class="st1"/>
            <path d="M267.4,305.6h-22.7c-5.7,0-10.4,4.7-10.4,10.4v113.3c0,5.7,4.7,10.4,10.4,10.4h22.7c5.7,0,10.4-4.7,10.4-10.4&#10;&#9;&#9;&#9;v-9.8h162v9.8c0,5.7,4.7,10.4,10.4,10.4h22.7c5.7,0,10.4-4.7,10.4-10.4V316c0-5.8-4.7-10.4-10.4-10.4h-22.7&#10;&#9;&#9;&#9;c-5.7,0-10.4,4.7-10.4,10.4v9.8h-34.2v-34.2h9.8c5.7,0,10.4-4.7,10.4-10.4v-22.7c0-5.8-4.7-10.4-10.4-10.4H302.1&#10;&#9;&#9;&#9;c-5.7,0-10.4,4.7-10.4,10.4v22.7c0,5.7,4.7,10.4,10.4,10.4h9.8v34.2h-34.2V316C277.8,310.3,273.1,305.6,267.4,305.6z"
                  class="st1"/>
            <path d="M515.6,667.2h-1.8c-5.2-33.3-22.2-64-48.4-87c-28.8-25.3-66.3-39.2-105.5-39.2c-39.2,0-76.7,13.9-105.5,39.2&#10;&#9;&#9;&#9;c-26.2,23-43.2,53.7-48.4,87h-2.3c-5.7,0-10.4,4.7-10.4,10.4v22.7c0,5.8,4.7,10.4,10.4,10.4h113.3c5.7,0,10.4-4.7,10.4-10.4v-22.7&#10;&#9;&#9;&#9;c0-5.7-4.7-10.4-10.4-10.4h-2.3c6.3-20.5,24.5-35,45.3-35s39,14.5,45.3,35h-2.8c-5.7,0-10.4,4.7-10.4,10.4v22.7&#10;&#9;&#9;&#9;c0,5.8,4.7,10.4,10.4,10.4h113.3c5.7,0,10.4-4.7,10.4-10.4v-22.7C526,671.9,521.4,667.2,515.6,667.2z"
                  class="st1"/>
	</g>
        <polygon points="167.4,164.7 167.4,91.9 167.4,74.1 149.6,74.1 149.6,182.5 167.4,182.5" class="st2"/>
        <path d="M147.2,187.4h22.7c1.3,0,2.4-1.1,2.4-2.4v-17.8h373v17.8c0,1.3,1.1,2.4,2.4,2.4h22.7c1.3,0,2.4-1.1,2.4-2.4&#10;&#9;&#9;V71.7c0-1.3-1.1-2.4-2.4-2.4h-22.7c-1.3,0-2.4,1.1-2.4,2.4v17.8h-373V71.7c0-1.3-1.1-2.4-2.4-2.4h-22.7c-1.3,0-2.4,1.1-2.4,2.4&#10;&#9;&#9;v113.3C144.8,186.3,145.9,187.4,147.2,187.4z M567.9,182.5h-17.8v-17.8V91.9V74.1h17.8V182.5z M545.3,162.3h-373v-68h373V162.3z&#10;&#9;&#9; M149.6,74.1h17.8v17.8v72.8v17.8h-17.8V74.1z"
              class="st1"/>
        <polygon points="550.1,91.9 550.1,164.7 550.1,182.5 567.9,182.5 567.9,74.1 550.1,74.1" class="st2"/>
        <rect height="68" width="373" class="st2" y="94.3" x="172.3"/>
        <polygon points="770.3,164.7 770.3,91.9 770.3,74.1 752.5,74.1 752.5,182.5 770.3,182.5" class="st2"/>
        <polygon points="923.3,91.9 923.3,164.7 923.3,182.5 941.1,182.5 941.1,74.1 923.3,74.1" class="st2"/>
        <path d="M943.5,69.2h-22.7c-1.3,0-2.4,1.1-2.4,2.4v17.8H775.2V71.7c0-1.3-1.1-2.4-2.4-2.4h-22.7&#10;&#9;&#9;c-1.3,0-2.4,1.1-2.4,2.4v113.3c0,1.3,1.1,2.4,2.4,2.4h22.7c1.3,0,2.4-1.1,2.4-2.4v-17.8h143.2v17.8c0,1.3,1.1,2.4,2.4,2.4h22.7&#10;&#9;&#9;c1.3,0,2.4-1.1,2.4-2.4V71.7C945.9,70.3,944.8,69.2,943.5,69.2z M752.5,74.1h17.8v17.8v72.8v17.8h-17.8V74.1z M775.2,94.3h143.2v68&#10;&#9;&#9;H775.2V94.3z M941.1,182.5h-17.8v-17.8V91.9V74.1h17.8V182.5z"
              class="st1"/>
        <rect height="68" width="143.2" class="st2" y="94.3" x="775.2"/>
        <polygon points="756.4,409.1 756.4,336.2 756.4,318.4 738.6,318.4 738.6,426.9 756.4,426.9" class="st2"/>
        <rect height="108.4" width="17.8" class="st2" y="318.4" x="946.5"/>
        <path d="M966.8,313.6h-22.7c-1.3,0-2.4,1.1-2.4,2.4v17.8h-52.6v-50.2h17.8c1.3,0,2.4-1.1,2.4-2.4v-22.7&#10;&#9;&#9;c0-1.3-1.1-2.4-2.4-2.4H793.6c-1.3,0-2.4,1.1-2.4,2.4v22.7c0,1.3,1.1,2.4,2.4,2.4h17.8v50.2h-50.2V316c0-1.3-1.1-2.4-2.4-2.4h-22.7&#10;&#9;&#9;c-1.3,0-2.4,1.1-2.4,2.4v113.3c0,1.3,1.1,2.4,2.4,2.4h22.7c1.3,0,2.4-1.1,2.4-2.4v-17.8h50.2v50.2h-17.8c-1.3,0-2.4,1.1-2.4,2.4&#10;&#9;&#9;v22.7c0,1.3,1.1,2.4,2.4,2.4h113.3c1.3,0,2.4-1.1,2.4-2.4v-22.7c0-1.3-1.1-2.4-2.4-2.4h-17.8v-50.2h52.6v17.8&#10;&#9;&#9;c0,1.3,1.1,2.4,2.4,2.4h22.7c1.3,0,2.4-1.1,2.4-2.4V316C969.2,314.7,968.1,313.6,966.8,313.6z M964.3,426.9h-17.8V318.4h17.8V426.9&#10;&#9;&#9;z M940.8,406.6h-51.8v-68h51.8V406.6z M904.4,484.3H796v-17.8h15.5c0.3,0.9,1.2,1.6,2.3,1.6h72.8c1.1,0,1.9-0.7,2.3-1.6h15.5V484.3&#10;&#9;&#9;z M816.2,463.3V283.7h68v179.6H816.2z M738.6,318.4h17.8v17.8v72.8v17.8h-17.8V318.4z M761.2,338.7h50.2v68h-50.2V338.7z M796,261&#10;&#9;&#9;h108.4v17.8h-17.8h-72.8H796V261z"
              class="st1"/>
        <polygon points="926.1,550.6 926.1,621 926.1,640.5 943.9,640.5 943.9,532 926.1,532" class="st2"/>
        <path d="M946.4,527.2h-22.7c-1.3,0-2.4,1.1-2.4,2.4v18.7c-36.4,0.6-71.1,13.7-97.8,37.2c-26.7,23.4-43.1,54.9-46.7,89&#10;&#9;&#9;h-9.4c-1.3,0-2.4,1.1-2.4,2.4v22.7c0,1.3,1.1,2.4,2.4,2.4h113.3c1.3,0,2.4-1.1,2.4-2.4v-22.7c0-1.3-1.1-2.4-2.4-2.4h-12.2&#10;&#9;&#9;c3.5-27.9,26-49.7,52.7-50.9v19.4c0,1.3,1.1,2.4,2.4,2.4h22.7c1.3,0,2.4-1.1,2.4-2.4V529.6C948.8,528.3,947.7,527.2,946.4,527.2z&#10;&#9;&#9; M878.3,697.1H769.8v-17.8h9.1h86.9h12.4V697.1z M781.6,674.4c7.2-67.5,67.8-120.2,139.6-121.3v65.6c-29.4,1.3-54.1,25.1-57.6,55.8&#10;&#9;&#9;H781.6z M943.9,640.5h-17.8V621v-70.4V532h17.8V640.5z"
              class="st1"/>
        <rect height="68" width="51.8" class="st2" y="338.7" x="889.1"/>
        <rect height="68" width="50.2" class="st2" y="338.7" x="761.2"/>
        <polygon points="886.6,278.8 904.4,278.8 904.4,261 796,261 796,278.8 813.8,278.8" class="st2"/>
        <path d="M886.6,468.1h-72.8c-1.1,0-1.9-0.7-2.3-1.6H796v17.8h108.4v-17.8h-15.5C888.6,467.4,887.7,468.1,886.6,468.1z"
              class="st2"/>
        <rect height="179.6" width="68" class="st2" y="283.7" x="816.2"/>
        <polygon points="264.9,409.1 264.9,336.2 264.9,318.4 247.1,318.4 247.1,426.9 264.9,426.9" class="st2"/>
        <path d="M452.6,334c0.9,0.3,1.6,1.2,1.6,2.3v72.8c0,1.1-0.7,1.9-1.6,2.3v15.5h17.8V318.4h-17.8V334z" class="st2"/>
        <path d="M450.2,431.7h22.7c1.3,0,2.4-1.1,2.4-2.4V316c0-1.3-1.1-2.4-2.4-2.4h-22.7c-1.3,0-2.4,1.1-2.4,2.4v17.8h-50.2&#10;&#9;&#9;v-50.2h17.8c1.3,0,2.4-1.1,2.4-2.4v-22.7c0-1.3-1.1-2.4-2.4-2.4H302.1c-1.3,0-2.4,1.1-2.4,2.4v22.7c0,1.3,1.1,2.4,2.4,2.4h17.8&#10;&#9;&#9;v50.2h-50.2V316c0-1.3-1.1-2.4-2.4-2.4h-22.7c-1.3,0-2.4,1.1-2.4,2.4v113.3c0,1.3,1.1,2.4,2.4,2.4h22.7c1.3,0,2.4-1.1,2.4-2.4&#10;&#9;&#9;v-17.8h178v17.8C447.8,430.6,448.9,431.7,450.2,431.7z M247.1,318.4h17.8v17.8v72.8v17.8h-17.8V318.4z M269.8,338.7h179.6v68H269.8&#10;&#9;&#9;V338.7z M304.6,261H413v17.8h-17.8h-72.8h-17.8V261z M324.8,283.7h68v48.5h-68V283.7z M470.4,426.9h-17.8v-15.5&#10;&#9;&#9;c0.9-0.3,1.6-1.2,1.6-2.3v-72.8c0-1.1-0.7-1.9-1.6-2.3v-15.5h17.8V426.9z"
              class="st1"/>
        <rect height="68" width="179.6" class="st2" y="338.7" x="269.8"/>
        <polygon points="395.2,278.8 413,278.8 413,261 304.6,261 304.6,278.8 322.4,278.8" class="st2"/>
        <polygon points="215.1,680.1 206,680.1 206,697.9 314.4,697.9 314.4,680.1 302,680.1" class="st2"/>
        <polygon points="504.6,680.1 417.7,680.1 404.8,680.1 404.8,697.9 513.2,697.9 513.2,680.1 504.6,680.1"
                 class="st2"/>
        <path d="M515.6,675.2h-8.8c-3.5-34.1-20-65.6-46.7-89c-27.4-24-63-37.2-100.3-37.2s-72.9,13.2-100.3,37.2&#10;&#9;&#9;c-26.7,23.4-43.1,54.9-46.7,89h-9.4c-1.3,0-2.4,1.1-2.4,2.4v22.7c0,1.3,1.1,2.4,2.4,2.4h113.3c1.3,0,2.4-1.1,2.4-2.4v-22.7&#10;&#9;&#9;c0-1.3-1.1-2.4-2.4-2.4h-12.2c3.6-28.8,27.4-51,55.2-51c27.8,0,51.6,22.2,55.2,51h-12.7c-1.3,0-2.4,1.1-2.4,2.4v22.7&#10;&#9;&#9;c0,1.3,1.1,2.4,2.4,2.4h113.3c1.3,0,2.4-1.1,2.4-2.4v-22.7C518,676.3,516.9,675.2,515.6,675.2z M513.2,697.9H404.8v-17.8h13h86.9h0&#10;&#9;&#9;h8.6V697.9z M314.4,697.9H206v-17.8h9.1H302h12.4V697.9z M217.8,675.2c7.3-68.3,69.2-121.4,142.1-121.4S494.6,607,501.9,675.2h-82&#10;&#9;&#9;c-3.6-31.5-29.6-55.8-60.1-55.8c-30.4,0-56.4,24.3-60.1,55.8H217.8z"
              class="st1"/>
        <rect height="48.5" width="68" class="st2" y="283.7" x="324.8"/>
        <path d="M359.9,619.4c30.4,0,56.4,24.3,60.1,55.8h82c-7.3-68.3-69.2-121.4-142.1-121.4S225.1,607,217.8,675.2h82&#10;&#9;&#9;C303.4,643.8,329.4,619.4,359.9,619.4z"
              class="st2"/>
        <path d="M359.9,577.2c55.1,0,103.2,40.8,121,98h21c-7.3-68.3-69.2-121.4-142.1-121.4S225.1,607,217.8,675.2h21&#10;&#9;&#9;C256.6,618.1,304.7,577.2,359.9,577.2z"
              class="st3"/>
        <path d="M359.9,564.8c65,0,120.7,47.5,132.6,110.5h9.4c-7.3-68.3-69.2-121.4-142.1-121.4S225.1,607,217.8,675.2h9.4&#10;&#9;&#9;C239.2,612.3,294.9,564.8,359.9,564.8z"
              class="st0"/>
        <polygon points="779,679.3 769.8,679.3 769.8,697.1 878.3,697.1 878.3,679.3 865.8,679.3" class="st2"/>
        <path d="M921.3,618.7v-65.6c-71.8,1.2-132.4,53.8-139.6,121.3h82C867.2,643.8,891.9,619.9,921.3,618.7z"
              class="st2"/>
        <path d="M921.3,618.7v-65.6c-71.8,1.2-132.4,53.8-139.6,121.3h82C867.2,643.8,891.9,619.9,921.3,618.7z"
              class="st2"/>
        <path d="M921.3,577.9v-24.8c-71.8,1.2-132.4,53.8-139.6,121.3h27.2C823.6,625,867.7,587,921.3,577.9z"
              class="st3"/>
        <rect height="31.3" width="373" class="st3" y="94.3" x="172.3"/>
        <rect height="15.6" width="373" class="st0" y="94.3" x="172.3"/>
        <rect height="31.3" width="143.4" class="st3" y="94.3" x="775.2"/>
        <rect height="15.6" width="143.4" class="st0" y="94.3" x="775.2"/>
        <rect height="31.3" width="179.6" class="st3" y="338.7" x="269.8"/>
        <rect height="15.6" width="179.6" class="st0" y="338.7" x="269.8"/>
        <g>
		<rect height="51.5" width="17.8" class="st3" y="318.4" x="247.1"/>
            <rect height="25.7" width="17.8" class="st0" y="318.4" x="247.1"/>
	</g>
        <g>
		<rect height="51.5" width="17.8" class="st3" y="74.1" x="149.6"/>
            <rect height="25.7" width="17.8" class="st0" y="74.1" x="149.6"/>
	</g>
        <g>
		<rect height="51.5" width="17.8" class="st3" y="74.1" x="550.1"/>
            <rect height="25.7" width="17.8" class="st0" y="74.1" x="550.1"/>
	</g>
        <g>
		<rect height="51.5" width="17.8" class="st3" y="74.1" x="752.3"/>
            <rect height="25.7" width="17.8" class="st0" y="74.1" x="752.3"/>
	</g>
        <g>
		<rect height="51.5" width="17.8" class="st3" y="74.1" x="923.3"/>
            <rect height="25.7" width="17.8" class="st0" y="74.1" x="923.3"/>
	</g>
        <g>
		<rect height="20.9" width="68" class="st3" y="283.7" x="324.8"/>
            <rect height="10.5" width="68" class="st0" y="283.7" x="324.8"/>
	</g>
        <g>
		<rect height="10.5" width="108.4" class="st3" y="261" x="304.6"/>
            <rect height="5.2" width="108.4" class="st0" y="261" x="304.6"/>
	</g>
        <g>
		<rect height="10.5" width="108.4" class="st3" y="261" x="796"/>
            <rect height="5.2" width="108.4" class="st0" y="261" x="796"/>
	</g>
        <g>
		<rect height="10.5" width="108.4" class="st3" y="466.5" x="796"/>
            <rect height="5.2" width="108.4" class="st0" y="466.5" x="796"/>
	</g>
        <g>
		<rect height="10.5" width="108.4" class="st3" y="679.3" x="769.8"/>
            <rect height="5.2" width="108.4" class="st0" y="679.3" x="769.8"/>
	</g>
        <g>
		<rect height="10.5" width="108.4" class="st3" y="679.3" x="404.8"/>
            <rect height="5.2" width="108.4" class="st0" y="679.3" x="404.8"/>
	</g>
        <g>
		<rect height="10.5" width="108.4" class="st3" y="679.3" x="206"/>
            <rect height="5.2" width="108.4" class="st0" y="679.3" x="206"/>
	</g>
        <g>
		<rect height="55" width="17.8" class="st3" y="318.4" x="738.6"/>
            <rect height="27.5" width="17.8" class="st0" y="318.4" x="738.6"/>
	</g>
        <g>
		<rect height="55" width="17.8" class="st3" y="318.4" x="946.5"/>
            <rect height="27.5" width="17.8" class="st0" y="318.4" x="946.5"/>
	</g>
        <g>
		<rect height="55" width="17.8" class="st3" y="532" x="926.1"/>
            <rect height="27.5" width="17.8" class="st0" y="532" x="926.1"/>
	</g>
        <g>
		<rect height="89.8" width="68" class="st3" y="283.7" x="816.2"/>
            <rect height="44.9" width="68" class="st0" y="283.7" x="816.2"/>
	</g>
        <g>
		<rect height="34.8" width="50.2" class="st3" y="338.7" x="761.2"/>
            <rect height="17.4" width="50.2" class="st0" y="338.7" x="761.2"/>
	</g>
        <g>
		<rect height="34.8" width="51.8" class="st3" y="338.7" x="889.1"/>
            <rect height="17.4" width="51.8" class="st0" y="338.7" x="889.1"/>
	</g>
        <rect height="108.4" width="17.8" class="st2" y="318.4" x="452.6"/>
        <rect height="51.5" width="17.8" class="st3" y="318.4" x="452.6"/>
        <rect height="25.7" width="17.8" class="st0" y="318.4" x="452.6"/>
        <path d="M921.3,563.6v-10.5c-71.8,1.2-132.4,53.8-139.6,121.3h10C803,614.5,856.8,568.3,921.3,563.6z"
              class="st0"/>
</g>
    <g id="Designed_by_Vecteezy">
	<g class="st4">
		<g>
			<g>
				<path d="M570.5,748.7c0.5,0,1,0.5,1,0.5l-8.9,19c-1,0-3.3,0.1-3.9,0.1c-0.5,0-1-0.5-1-0.5l-3-19&#10;&#9;&#9;&#9;&#9;&#9;c1.8,0,4.2-0.1,4.8-0.1c0.5,0,1,0.5,1,0.5l0.9,9.3c0.1,0.8,0.1,1.9,0.1,3.1c0.3-1.3,0.6-2.5,1-3.3l3.7-9.4&#10;&#9;&#9;&#9;&#9;&#9;C567.9,748.8,569.9,748.7,570.5,748.7L570.5,748.7z"
                      class="st5"/>
			</g>
            <g>
				<path d="M579.7,758.1c0,2.1-1.2,3.4-4,4l-3,0.6c0.2,1.3,1.1,1.9,2.4,1.9c1.7,0,2.8-1.3,2.8-1.3s0.8,0.5,0.8,1.4&#10;&#9;&#9;&#9;&#9;&#9;c0,1.7-2.6,3.6-5.7,3.6c-3.1,0-5.2-2-5.2-5.3c0-3.8,2.7-9.1,7.6-9.1C578.1,754.1,579.7,755.7,579.7,758.1L579.7,758.1z&#10;&#9;&#9;&#9;&#9;&#9; M574.6,760.1c0.6-0.2,0.8-0.7,0.8-1.3c0-0.6-0.2-1.4-0.9-1.4c-1.2,0-1.7,1.9-1.9,3.4L574.6,760.1z"
                      class="st5"/>
			</g>
            <g>
				<path d="M587.9,754.1c2.4,0,4.3,1.3,4.3,3c0,2.1-2.6,2.9-2.6,2.9s-0.7-2.3-2.5-2.3c-1.2,0-1.8,1.2-1.8,3.7&#10;&#9;&#9;&#9;&#9;&#9;c0,2.3,0.6,3.3,2.1,3.3c1.5,0,2.5-1,2.5-1s0.9,0.5,0.9,1.4c0,1.7-2.5,3.4-5.5,3.4c-3.2,0-5.1-2-5.1-5.3&#10;&#9;&#9;&#9;&#9;&#9;C580.1,759.3,582.9,754.1,587.9,754.1L587.9,754.1z"
                      class="st5"/>
			</g>
            <g>
				<path d="M599.6,751c0.6,0,1,0.5,1,0.5l-0.5,2.9h3.1l-0.7,2.2c-0.2,0.7-0.6,1.1-1.3,1.1h-1.6l-0.9,5.7&#10;&#9;&#9;&#9;&#9;&#9;c-0.1,0.9,0.1,1.3,0.7,1.3c0.6,0,1.1-0.3,1.1-0.3s0.9,0.5,0.9,1.4c0,1.4-2,2.8-4.5,2.8c-2.6,0-3.7-1.6-3.3-4.5l1-6.3H593&#10;&#9;&#9;&#9;&#9;&#9;l0.7-2.3c0.2-0.6,0.7-1,1.3-1h0.8l1-2.7C598,751.4,599.1,751,599.6,751L599.6,751z"
                      class="st5"/>
			</g>
            <g>
				<path d="M614.5,758.1c0,2.1-1.2,3.4-4,4l-3,0.6c0.2,1.3,1.1,1.9,2.4,1.9c1.7,0,2.8-1.3,2.8-1.3s0.9,0.5,0.9,1.4&#10;&#9;&#9;&#9;&#9;&#9;c0,1.7-2.6,3.6-5.7,3.6c-3.1,0-5.2-2-5.2-5.3c0-3.8,2.7-9.1,7.6-9.1C612.9,754.1,614.5,755.7,614.5,758.1L614.5,758.1z&#10;&#9;&#9;&#9;&#9;&#9; M609.4,760.1c0.6-0.2,0.8-0.7,0.8-1.3c0-0.6-0.2-1.4-0.9-1.4c-1.2,0-1.7,1.9-1.9,3.4L609.4,760.1z"
                      class="st5"/>
			</g>
            <g>
				<path d="M626.9,758.1c0,2.1-1.2,3.4-4,4l-3,0.6c0.2,1.3,1.1,1.9,2.4,1.9c1.7,0,2.8-1.3,2.8-1.3s0.9,0.5,0.9,1.4&#10;&#9;&#9;&#9;&#9;&#9;c0,1.7-2.6,3.6-5.7,3.6c-3.1,0-5.2-2-5.2-5.3c0-3.8,2.7-9.1,7.6-9.1C625.2,754.1,626.9,755.7,626.9,758.1L626.9,758.1z&#10;&#9;&#9;&#9;&#9;&#9; M621.8,760.1c0.6-0.2,0.8-0.7,0.8-1.3c0-0.6-0.2-1.4-0.9-1.4c-1.2,0-1.7,1.9-1.9,3.4L621.8,760.1z"
                      class="st5"/>
			</g>
            <g>
				<path d="M637,763.2c0,0,1,1,1,2.5c0,2.1-1.8,2.7-3.3,2.7c-2,0-3.4-0.9-4.9-1.4c-0.4,0.5-0.8,1-1.2,1.4&#10;&#9;&#9;&#9;&#9;&#9;c0,0-2.2-0.1-2.2-1.6c0-1.8,3.1-5,6.4-8.5c-0.4-0.1-0.7-0.1-1.1-0.1c-1.9,0-2.6,0.9-2.6,0.9s-1-1.1-0.9-2.5c0.1-2,2-2.5,3.5-2.5&#10;&#9;&#9;&#9;&#9;&#9;c1.6,0,2.7,0.6,3.9,1.1l0.9-1.1c0,0,2.2,0.1,2.2,1.6c0,1.8-3,4.9-6.2,8.3c0.7,0.2,1.3,0.3,1.9,0.3&#10;&#9;&#9;&#9;&#9;&#9;C636.2,764.3,637,763.2,637,763.2L637,763.2z"
                      class="st5"/>
			</g>
            <g>
				<path d="M651.3,767.2c-0.8,4.8-4.1,7.3-8.3,7.3c-2.7,0-4.7-1.4-4.7-3c0-1.1,0.9-1.6,0.9-1.6s0.9,0.8,2.7,0.8&#10;&#9;&#9;&#9;&#9;&#9;c1.7,0,4-0.7,4.4-3.3l0.3-2c-1.1,1.6-2.6,3-4.5,3c-2.1,0-3.1-1.7-2.5-5.3l0.6-3.8c0.4-2.3,0.5-4.3,0.5-4.3c1.5-0.3,3.5-1,4.2-1&#10;&#9;&#9;&#9;&#9;&#9;c0.5,0,1,0.5,1,0.5l-0.8,4.8l-0.7,4.4c-0.1,0.4,0,0.6,0.4,0.6c1.8,0,2.8-5.1,2.8-5.1c0.4-2.3,0.5-4.3,0.5-4.3&#10;&#9;&#9;&#9;&#9;&#9;c1.5-0.3,3.5-1,4.2-1c0.5,0,1,0.5,1,0.5l-0.8,4.8L651.3,767.2z"
                      class="st5"/>
			</g>
		</g>
        <g>
			<path d="M446.6,754.9h4.8c1.1,0,1.9,0.1,2.5,0.2c0.8,0.2,1.4,0.6,1.9,1.2c0.5,0.6,0.9,1.3,1.2,2.1&#10;&#9;&#9;&#9;&#9;c0.3,0.8,0.4,1.8,0.4,3c0,1.1-0.1,2-0.4,2.7c-0.3,0.9-0.8,1.7-1.4,2.3c-0.5,0.4-1.1,0.8-1.8,1c-0.6,0.2-1.3,0.3-2.3,0.3h-4.9&#10;&#9;&#9;&#9;&#9;V754.9z M449.2,757v8.5h1.9c0.7,0,1.3,0,1.6-0.1c0.4-0.1,0.8-0.3,1.1-0.5c0.3-0.3,0.5-0.7,0.7-1.2c0.2-0.6,0.3-1.4,0.3-2.4&#10;&#9;&#9;&#9;&#9;s-0.1-1.8-0.3-2.3c-0.2-0.5-0.4-0.9-0.7-1.2c-0.3-0.3-0.7-0.5-1.2-0.6c-0.4-0.1-1.1-0.1-2.1-0.1H449.2z"
                  class="st5"/>
            <path d="M464.6,764.8l2.5,0.4c-0.3,0.9-0.8,1.6-1.5,2.1c-0.7,0.5-1.5,0.7-2.6,0.7c-1.6,0-2.8-0.5-3.6-1.6&#10;&#9;&#9;&#9;&#9;c-0.6-0.8-0.9-1.9-0.9-3.2c0-1.5,0.4-2.8,1.2-3.6c0.8-0.9,1.8-1.3,3.1-1.3c1.4,0,2.5,0.5,3.3,1.4c0.8,0.9,1.2,2.3,1.2,4.2H461&#10;&#9;&#9;&#9;&#9;c0,0.7,0.2,1.3,0.6,1.7c0.4,0.4,0.9,0.6,1.4,0.6c0.4,0,0.7-0.1,1-0.3C464.3,765.6,464.5,765.2,464.6,764.8z M464.7,762.3&#10;&#9;&#9;&#9;&#9;c0-0.7-0.2-1.3-0.6-1.6c-0.4-0.4-0.8-0.6-1.3-0.6c-0.5,0-1,0.2-1.3,0.6c-0.4,0.4-0.5,0.9-0.5,1.6H464.7z"
                  class="st5"/>
            <path d="M468,765.1l2.5-0.4c0.1,0.5,0.3,0.8,0.6,1.1c0.3,0.2,0.8,0.4,1.4,0.4c0.6,0,1.1-0.1,1.4-0.4&#10;&#9;&#9;&#9;&#9;c0.2-0.2,0.3-0.4,0.3-0.7c0-0.2-0.1-0.3-0.2-0.5c-0.1-0.1-0.4-0.2-0.8-0.3c-2-0.4-3.3-0.8-3.8-1.2c-0.7-0.5-1.1-1.2-1.1-2.1&#10;&#9;&#9;&#9;&#9;c0-0.8,0.3-1.5,1-2c0.6-0.6,1.6-0.8,3-0.8c1.3,0,2.2,0.2,2.8,0.6c0.6,0.4,1,1,1.3,1.8l-2.3,0.4c-0.1-0.4-0.3-0.6-0.6-0.8&#10;&#9;&#9;&#9;&#9;c-0.3-0.2-0.7-0.3-1.2-0.3c-0.7,0-1.1,0.1-1.4,0.3c-0.2,0.1-0.3,0.3-0.3,0.5c0,0.2,0.1,0.3,0.2,0.4c0.2,0.2,1,0.4,2.3,0.7&#10;&#9;&#9;&#9;&#9;c1.3,0.3,2.2,0.7,2.8,1.1c0.5,0.4,0.8,1.1,0.8,1.8c0,0.9-0.4,1.6-1.1,2.2c-0.7,0.6-1.8,0.9-3.2,0.9c-1.3,0-2.3-0.3-3-0.8&#10;&#9;&#9;&#9;&#9;C468.7,766.7,468.2,766,468,765.1z"
                  class="st5"/>
            <path d="M478.5,757.1v-2.3h2.5v2.3H478.5z M478.5,767.7v-9.3h2.5v9.3H478.5z" class="st5"/>
            <path d="M482.9,768.4l2.8,0.3c0,0.3,0.2,0.6,0.3,0.7c0.2,0.2,0.6,0.3,1.1,0.3c0.6,0,1.1-0.1,1.5-0.3&#10;&#9;&#9;&#9;&#9;c0.2-0.1,0.4-0.3,0.5-0.6c0.1-0.2,0.1-0.6,0.1-1.1v-1.4c-0.7,1-1.7,1.5-2.8,1.5c-1.3,0-2.2-0.5-3-1.6c-0.6-0.8-0.9-1.9-0.9-3.1&#10;&#9;&#9;&#9;&#9;c0-1.6,0.4-2.8,1.1-3.6c0.8-0.8,1.7-1.2,2.8-1.2c1.2,0,2.1,0.5,2.9,1.5v-1.3h2.3v8.4c0,1.1-0.1,1.9-0.3,2.5&#10;&#9;&#9;&#9;&#9;c-0.2,0.5-0.4,1-0.8,1.3c-0.3,0.3-0.8,0.6-1.3,0.7c-0.5,0.2-1.2,0.3-2.1,0.3c-1.6,0-2.7-0.3-3.4-0.8s-1-1.2-1-2.1&#10;&#9;&#9;&#9;&#9;C482.9,768.6,482.9,768.5,482.9,768.4z M485.1,762.9c0,1,0.2,1.7,0.6,2.2c0.4,0.5,0.9,0.7,1.4,0.7c0.6,0,1.1-0.2,1.5-0.7&#10;&#9;&#9;&#9;&#9;c0.4-0.5,0.6-1.2,0.6-2.1c0-1-0.2-1.7-0.6-2.2c-0.4-0.5-0.9-0.7-1.5-0.7c-0.6,0-1.1,0.2-1.5,0.7&#10;&#9;&#9;&#9;&#9;C485.3,761.2,485.1,761.9,485.1,762.9z"
                  class="st5"/>
            <path d="M502.2,767.7h-2.5V763c0-1-0.1-1.7-0.2-2c-0.1-0.3-0.3-0.5-0.5-0.7c-0.2-0.2-0.5-0.2-0.9-0.2&#10;&#9;&#9;&#9;&#9;c-0.4,0-0.8,0.1-1.2,0.4c-0.3,0.2-0.6,0.5-0.7,0.9c-0.1,0.4-0.2,1.1-0.2,2.1v4.2h-2.5v-9.3h2.3v1.4c0.8-1.1,1.8-1.6,3.1-1.6&#10;&#9;&#9;&#9;&#9;c0.5,0,1,0.1,1.5,0.3c0.5,0.2,0.8,0.4,1,0.8c0.2,0.3,0.4,0.7,0.5,1c0.1,0.4,0.1,0.9,0.1,1.7V767.7z"
                  class="st5"/>
            <path d="M509.8,764.8l2.5,0.4c-0.3,0.9-0.8,1.6-1.5,2.1c-0.7,0.5-1.5,0.7-2.6,0.7c-1.6,0-2.8-0.5-3.6-1.6&#10;&#9;&#9;&#9;&#9;c-0.6-0.8-0.9-1.9-0.9-3.2c0-1.5,0.4-2.8,1.2-3.6c0.8-0.9,1.8-1.3,3.1-1.3c1.4,0,2.5,0.5,3.3,1.4c0.8,0.9,1.2,2.3,1.2,4.2h-6.2&#10;&#9;&#9;&#9;&#9;c0,0.7,0.2,1.3,0.6,1.7c0.4,0.4,0.9,0.6,1.4,0.6c0.4,0,0.7-0.1,1-0.3C509.5,765.6,509.7,765.2,509.8,764.8z M509.9,762.3&#10;&#9;&#9;&#9;&#9;c0-0.7-0.2-1.3-0.6-1.6c-0.4-0.4-0.8-0.6-1.3-0.6c-0.5,0-1,0.2-1.3,0.6c-0.4,0.4-0.5,0.9-0.5,1.6H509.9z"
                  class="st5"/>
            <path d="M522.6,767.7h-2.3v-1.4c-0.4,0.5-0.8,0.9-1.3,1.2c-0.5,0.3-1,0.4-1.6,0.4c-1.1,0-2-0.4-2.8-1.3&#10;&#9;&#9;&#9;&#9;c-0.8-0.9-1.1-2.1-1.1-3.6c0-1.6,0.4-2.8,1.1-3.6c0.7-0.8,1.7-1.2,2.8-1.2c1,0,1.9,0.4,2.7,1.3v-4.6h2.5V767.7z M516,762.9&#10;&#9;&#9;&#9;&#9;c0,1,0.1,1.7,0.4,2.2c0.4,0.6,1,1,1.7,1c0.6,0,1.1-0.2,1.5-0.7c0.4-0.5,0.6-1.2,0.6-2.2c0-1.1-0.2-1.8-0.6-2.3&#10;&#9;&#9;&#9;&#9;c-0.4-0.5-0.9-0.7-1.5-0.7c-0.6,0-1.1,0.2-1.5,0.7C516.2,761.2,516,761.9,516,762.9z"
                  class="st5"/>
            <path d="M529.2,767.7v-12.9h2.5v4.6c0.8-0.9,1.7-1.3,2.7-1.3c1.1,0,2.1,0.4,2.8,1.2c0.7,0.8,1.1,2,1.1,3.5&#10;&#9;&#9;&#9;&#9;c0,1.6-0.4,2.8-1.1,3.7c-0.8,0.9-1.7,1.3-2.8,1.3c-0.5,0-1.1-0.1-1.6-0.4c-0.5-0.3-1-0.7-1.3-1.2v1.4H529.2z M531.7,762.9&#10;&#9;&#9;&#9;&#9;c0,1,0.2,1.7,0.5,2.1c0.4,0.7,1,1,1.7,1c0.5,0,1-0.2,1.4-0.7c0.4-0.5,0.6-1.2,0.6-2.2c0-1.1-0.2-1.8-0.6-2.3&#10;&#9;&#9;&#9;&#9;c-0.4-0.5-0.9-0.7-1.5-0.7c-0.6,0-1.1,0.2-1.5,0.7C531.9,761.2,531.7,761.9,531.7,762.9z"
                  class="st5"/>
            <path d="M538.8,758.4h2.6l2.2,6.6l2.2-6.6h2.6l-3.3,9l-0.6,1.6c-0.2,0.5-0.4,1-0.6,1.2c-0.2,0.3-0.4,0.5-0.7,0.7&#10;&#9;&#9;&#9;&#9;c-0.3,0.2-0.6,0.3-0.9,0.4c-0.4,0.1-0.8,0.1-1.3,0.1c-0.5,0-0.9,0-1.4-0.1l-0.2-1.9c0.4,0.1,0.7,0.1,1,0.1c0.6,0,1-0.2,1.3-0.5&#10;&#9;&#9;&#9;&#9;c0.3-0.3,0.5-0.8,0.6-1.3L538.8,758.4z"
                  class="st5"/>
		</g>
	</g>
</g>
</svg>