<?xml version="1.0" encoding="UTF-8"?>
<svg xmlns="http://www.w3.org/2000/svg" xmlns:xlink="http://www.w3.org/1999/xlink" width="2880" height="1920"
     viewBox="0 0 2880 1920">
    <path fill-rule="evenodd" fill="rgb(91.796875%, 87.109375%, 81.25%)" fill-opacity="1"
          d="M 1400.398438 1026.535156 L 1386.738281 1042.679688 L 1366.859375 1041.4375 C 1366.859375 1041.4375 1293.378906 1111.972656 1286.128906 1118.445312 C 1278.878906 1124.914062 1189.25 1230.226562 1189.25 1230.226562 L 1192.980469 1247.613281 L 1171.871094 1267.488281 L 1173.109375 1286.117188 L 1195.460938 1308.472656 L 1224.03125 1305.988281 L 1237.691406 1288.601562 L 1269.988281 1292.328125 C 1269.988281 1292.328125 1280.5 1364.519531 1317.179688 1401.625 C 1353.859375 1438.734375 1406.421875 1451.890625 1442.628906 1455.03125 L 1453.800781 1481.117188 L 1432.691406 1507.199219 L 1432.691406 1528.3125 L 1448.839844 1545.699219 L 1479.53125 1547.042969 L 1494.800781 1529.6875 L 1516.328125 1527.605469 L 1682.960938 1344.3125 L 1689.210938 1331.8125 L 1687.820312 1314.457031 L 1696.148438 1299.875 C 1696.148438 1299.875 1662.128906 1274.1875 1655.878906 1245.027344 C 1649.628906 1215.867188 1667.679688 1142.273438 1694.761719 1113.109375 C 1721.839844 1083.949219 1869.71875 924.957031 1886.378906 910.378906 C 1903.050781 895.800781 1929.429688 886.769531 1929.429688 886.769531 C 1929.429688 886.769531 1948.871094 911.769531 1961.371094 932.59375 C 1973.871094 953.425781 1972.480469 977.722656 1972.480469 977.722656 L 1973.171875 1007.578125 L 1993.308594 1022.851562 L 2307.128906 682.648438 C 2307.128906 682.648438 2264.769531 600.71875 2118.96875 468.109375 L 1995.390625 378.550781 L 1969.699219 375.078125 L 1658.660156 711.808594 C 1658.660156 711.808594 1662.820312 727.78125 1680.871094 729.859375 C 1698.929688 731.941406 1726 728.46875 1744.050781 734.03125 C 1762.109375 739.578125 1796.820312 765.960938 1796.820312 765.960938 C 1796.820312 765.960938 1790.570312 799.289062 1755.859375 833.308594 C 1721.140625 867.328125 1571.871094 1029.101562 1571.871094 1029.101562 C 1571.871094 1029.101562 1487.371094 1063.816406 1468.421875 1063.816406 C 1435.089844 1063.816406 1400.398438 1026.535156 1400.398438 1026.535156 Z M 1316.871094 1266.152344 C 1316.871094 1266.152344 1331.339844 1341.964844 1369.941406 1370.910156 C 1408.539062 1399.855469 1458.160156 1412.949219 1507.089844 1394.34375 C 1556.03125 1375.734375 1588.421875 1309.570312 1584.96875 1262.703125 C 1581.53125 1215.839844 1545 1184.824219 1517.429688 1161.390625 C 1489.859375 1137.960938 1415.429688 1129.6875 1374.078125 1160.011719 C 1332.71875 1190.339844 1316.871094 1266.152344 1316.871094 1266.152344 Z M 1596 1072.484375 L 1802.070312 848.488281 C 1802.070312 848.488281 1833.089844 836.089844 1846.871094 850.558594 C 1860.648438 865.03125 1855.140625 879.511719 1841.359375 893.289062 C 1827.570312 907.078125 1651.140625 1096.605469 1639.421875 1107.632812 C 1627.699219 1118.660156 1582.898438 1112.457031 1596 1072.484375 "/>
    <path fill-rule="evenodd" fill="rgb(19.604492%, 18.797302%, 19.189453%)" fill-opacity="1"
          d="M 2164.28125 500.679688 C 2169.878906 505.710938 2231.941406 561.851562 2274.648438 614.851562 C 2294.5 639.480469 2310.089844 663.578125 2314.75 681.820312 C 2315.398438 684.351562 2314.699219 687.019531 2312.890625 688.910156 L 2274.378906 729.128906 L 1996.648438 1028.253906 C 1994.640625 1030.410156 1991.558594 1031.203125 1988.761719 1030.28125 C 1988.761719 1030.28125 1961.511719 1021.117188 1964.371094 993.917969 C 1966.421875 974.441406 1962.628906 954.597656 1957.300781 945.375 C 1953.289062 938.4375 1942.058594 916.871094 1931.738281 903.28125 C 1929.75 900.671875 1927.820312 898.371094 1925.980469 896.609375 C 1925.53125 896.171875 1925.101562 895.769531 1924.699219 895.421875 C 1917.5 898.109375 1898.160156 906.511719 1883.078125 923.6875 C 1863.238281 946.28125 1700.171875 1120.753906 1691.300781 1130.238281 C 1689.011719 1133.59375 1672.730469 1158.136719 1665.21875 1190.351562 C 1660.019531 1212.683594 1659 1238.792969 1670.339844 1263.980469 L 1701.011719 1295.871094 C 1703.609375 1298.570312 1703.828125 1302.769531 1701.53125 1305.726562 C 1701.53125 1305.726562 1692.171875 1317.746094 1692.171875 1317.746094 C 1694.621094 1324.640625 1696.628906 1337.804688 1685.019531 1352.5 C 1671.660156 1369.425781 1517.699219 1532.746094 1517.699219 1532.746094 C 1517.128906 1533.355469 1516.460938 1533.863281 1515.71875 1534.253906 C 1515.71875 1534.253906 1509.371094 1538.234375 1497.699219 1534.636719 L 1480.761719 1552.882812 C 1479.390625 1554.347656 1477.511719 1555.214844 1475.511719 1555.289062 L 1454.320312 1556.074219 C 1452.320312 1556.148438 1450.378906 1555.425781 1448.910156 1554.066406 L 1427.390625 1534.085938 C 1425.929688 1532.726562 1425.058594 1530.839844 1424.988281 1528.839844 L 1423.96875 1501.46875 C 1423.898438 1499.472656 1424.621094 1497.527344 1425.980469 1496.0625 L 1442.039062 1478.765625 C 1435.148438 1465.824219 1432.46875 1456.507812 1432.46875 1456.507812 L 1446.949219 1452.308594 C 1446.949219 1452.308594 1454.898438 1479.429688 1478.679688 1503.71875 C 1494.300781 1519.664062 1505.261719 1520.792969 1508.28125 1520.757812 C 1524.371094 1503.683594 1660.679688 1358.992188 1673.191406 1343.15625 C 1682.839844 1330.9375 1677.050781 1320.757812 1677.050781 1320.757812 C 1675.339844 1318.066406 1675.511719 1314.597656 1677.46875 1312.085938 L 1685.621094 1301.617188 L 1658.589844 1273.507812 C 1658.011719 1272.910156 1657.539062 1272.21875 1657.191406 1271.464844 C 1643.738281 1242.585938 1644.558594 1212.566406 1650.539062 1186.929688 C 1659.339844 1149.171875 1679.28125 1121.125 1679.28125 1121.125 C 1679.46875 1120.847656 1679.691406 1120.585938 1679.921875 1120.339844 C 1679.921875 1120.339844 1851.378906 936.929688 1871.75 913.738281 C 1893.601562 888.851562 1923.230469 879.980469 1923.230469 879.980469 C 1924.699219 879.53125 1926.28125 879.550781 1927.738281 880.03125 C 1932.171875 881.480469 1938.050781 886.660156 1943.75 894.160156 C 1949.820312 902.160156 1956.21875 912.800781 1961.378906 921.828125 L 2091.890625 781.261719 C 2092 781.148438 2092.109375 781.039062 2092.21875 780.929688 C 2092.21875 780.929688 2095.589844 777.398438 2095.089844 771.480469 C 2094.640625 766.171875 2091.359375 759.628906 2082.910156 751.789062 C 2056.839844 727.578125 2001.628906 676.320312 2001.628906 676.320312 L 2011.890625 665.269531 C 2011.890625 665.269531 2067.089844 716.53125 2093.171875 740.738281 C 2105.570312 752.261719 2109.460938 762.429688 2110.109375 770.210938 C 2111.171875 782.769531 2104.011719 790.46875 2102.820312 791.660156 L 1969.121094 935.652344 C 1969.578125 936.480469 1970 937.210938 1970.351562 937.828125 C 1976.699219 948.804688 1981.800781 972.324219 1979.359375 995.496094 C 1978.289062 1005.675781 1984.769531 1011.328125 1989.308594 1013.996094 L 2182.390625 806.050781 C 2177.691406 794.871094 2162.78125 765.128906 2124.441406 726.78125 C 2073.878906 676.191406 2033.769531 642.578125 2033.769531 642.578125 L 2043.449219 631.019531 C 2043.449219 631.019531 2084 664.988281 2135.101562 716.121094 C 2169.589844 750.621094 2186.191406 778.769531 2193.519531 794.058594 L 2217.78125 767.929688 C 2213.078125 756.75 2198.171875 727.019531 2159.828125 688.660156 C 2109.269531 638.078125 2069.160156 604.46875 2069.160156 604.46875 L 2078.839844 592.910156 C 2078.839844 592.910156 2119.390625 626.871094 2170.488281 678 C 2204.988281 712.511719 2221.578125 740.648438 2228.910156 755.941406 L 2253.171875 729.808594 C 2248.46875 718.640625 2233.558594 688.898438 2195.21875 650.539062 C 2144.660156 599.960938 2104.550781 566.351562 2104.550781 566.351562 L 2114.230469 554.789062 C 2114.230469 554.789062 2154.78125 588.761719 2205.878906 639.878906 C 2240.390625 674.410156 2256.980469 702.558594 2264.308594 717.839844 C 2269.738281 712.171875 2298.980469 681.628906 2298.980469 681.628906 C 2293.589844 665.460938 2279.738281 645.199219 2262.910156 624.308594 C 2220.808594 572.078125 2159.628906 516.761719 2154.21875 511.898438 L 2154.210938 511.910156 L 2154.019531 511.730469 L 2153.828125 511.558594 L 2153.839844 511.550781 C 2148.589844 506.511719 2088.890625 449.589844 2033.679688 411.480469 C 2011.609375 396.238281 1990.371094 383.929688 1973.851562 379.75 C 1973.851562 379.75 1945.558594 411.171875 1940.300781 417.011719 C 1956.089844 423.191406 1985.390625 437.648438 2022.378906 469.5 C 2077.148438 516.679688 2114.03125 554.601562 2114.03125 554.601562 L 2103.21875 565.109375 C 2103.21875 565.109375 2066.71875 527.601562 2012.539062 480.929688 C 1971.449219 445.53125 1940.691406 432.859375 1929.191406 429.011719 L 1904.929688 455.140625 C 1920.71875 461.320312 1950.019531 475.78125 1986.988281 507.621094 C 2041.761719 554.789062 2078.640625 592.71875 2078.640625 592.71875 L 2067.828125 603.230469 C 2067.828125 603.230469 2031.328125 565.71875 1977.148438 519.039062 C 1936.058594 483.648438 1905.300781 470.980469 1893.800781 467.128906 L 1869.539062 493.25 C 1885.328125 499.429688 1914.628906 513.890625 1951.601562 545.730469 C 2006.371094 592.910156 2043.238281 630.828125 2043.238281 630.828125 L 2032.441406 641.351562 C 2032.441406 641.351562 1995.941406 603.828125 1941.761719 557.160156 C 1900.671875 521.769531 1869.910156 509.089844 1858.410156 505.238281 L 1665.328125 713.191406 C 1668.328125 717.519531 1674.449219 723.558594 1684.519531 721.738281 C 1707.449219 717.589844 1731.28125 720.941406 1742.691406 726.449219 C 1743.339844 726.761719 1744.101562 727.121094 1744.960938 727.519531 L 1878.660156 583.53125 C 1879.75 582.25 1886.898438 574.539062 1899.5 574.660156 C 1907.308594 574.738281 1917.738281 577.859375 1930.148438 589.378906 C 1956.21875 613.589844 2011.429688 664.839844 2011.429688 664.839844 L 2001.171875 675.890625 C 2001.171875 675.890625 1945.960938 624.640625 1919.890625 600.429688 C 1911.441406 592.578125 1904.671875 589.789062 1899.351562 589.738281 C 1893.410156 589.679688 1890.140625 593.300781 1890.140625 593.300781 C 1890.039062 593.421875 1889.941406 593.539062 1889.828125 593.648438 L 1759.320312 734.21875 C 1768.710938 738.699219 1779.789062 744.289062 1788.210938 749.75 C 1796.121094 754.878906 1801.71875 760.359375 1803.488281 764.671875 C 1804.078125 766.089844 1804.210938 767.660156 1803.878906 769.171875 C 1803.878906 769.171875 1797.230469 799.371094 1774.019531 823.011719 C 1752.410156 845.03125 1582.199219 1029.609375 1582.199219 1029.609375 C 1581.96875 1029.855469 1581.730469 1030.089844 1581.460938 1030.304688 C 1581.460938 1030.304688 1554.96875 1052.265625 1517.96875 1063.839844 C 1492.839844 1071.695312 1462.96875 1074.738281 1433.171875 1063.472656 C 1432.390625 1063.179688 1431.671875 1062.757812 1431.03125 1062.226562 L 1401 1037.351562 L 1391.160156 1046.257812 C 1388.800781 1048.390625 1385.351562 1048.816406 1382.539062 1047.316406 C 1382.539062 1047.316406 1371.960938 1042.296875 1360.488281 1052.820312 C 1345.628906 1066.46875 1211.429688 1213.121094 1195.589844 1230.433594 C 1195.78125 1233.449219 1197.71875 1244.300781 1214.78125 1258.691406 C 1240.761719 1280.609375 1268.390625 1286.519531 1268.390625 1286.519531 L 1265.28125 1301.273438 C 1265.28125 1301.273438 1255.789062 1299.296875 1242.378906 1293.378906 L 1226.320312 1310.675781 C 1224.960938 1312.140625 1223.070312 1313.007812 1221.070312 1313.078125 L 1193.699219 1314.09375 C 1191.699219 1314.167969 1189.761719 1313.445312 1188.289062 1312.085938 L 1166.78125 1292.105469 C 1165.308594 1290.746094 1164.441406 1288.859375 1164.371094 1286.863281 L 1163.589844 1265.671875 C 1163.511719 1263.675781 1164.230469 1261.726562 1165.589844 1260.261719 L 1182.539062 1242.015625 C 1178.089844 1230.640625 1181.589844 1224.015625 1181.589844 1224.015625 C 1181.921875 1223.25 1182.378906 1222.546875 1182.941406 1221.929688 C 1182.941406 1221.929688 1334.410156 1056.296875 1350.300781 1041.714844 C 1364.089844 1029.050781 1377.371094 1030.078125 1384.429688 1032.011719 L 1395.71875 1021.789062 C 1398.5 1019.273438 1402.699219 1019.183594 1405.589844 1021.574219 L 1439.660156 1049.796875 C 1465.621094 1059.238281 1491.578125 1056.292969 1513.46875 1049.449219 C 1545.039062 1039.574219 1568.308594 1021.523438 1571.480469 1018.988281 C 1580.289062 1009.441406 1742.199219 833.898438 1763.261719 812.441406 C 1779.28125 796.128906 1786.21875 776.21875 1788.371094 768.839844 C 1787.988281 768.460938 1787.558594 768.070312 1787.089844 767.648438 C 1785.199219 765.949219 1782.761719 764.191406 1780.011719 762.398438 C 1765.691406 753.109375 1743.351562 743.511719 1736.140625 740.03125 C 1726.539062 735.398438 1706.46875 733.089844 1687.199219 736.578125 C 1660.289062 741.449219 1649.128906 714.941406 1649.128906 714.941406 C 1648.011719 712.21875 1648.570312 709.089844 1650.570312 706.929688 L 1928.300781 407.808594 C 1928.300781 407.808594 1965.558594 366.421875 1965.558594 366.421875 C 1967.308594 364.480469 1969.929688 363.578125 1972.488281 364.039062 C 1991.019531 367.339844 2016.21875 381.101562 2042.25 399.070312 C 2098.269531 437.738281 2158.851562 495.46875 2164.28125 500.679688 Z M 1450.101562 1492.246094 L 1439.160156 1504.03125 L 1439.941406 1525.160156 L 1456.878906 1540.890625 L 1471.828125 1540.335938 L 1483.621094 1527.636719 C 1478.859375 1524.429688 1473.609375 1520.089844 1467.910156 1514.269531 C 1460.738281 1506.945312 1454.859375 1499.386719 1450.101562 1492.246094 Z M 1228.339844 1286.339844 L 1217.390625 1298.128906 L 1196.261719 1298.910156 L 1179.320312 1283.183594 L 1178.769531 1268.234375 L 1190.558594 1255.535156 C 1194.109375 1260.046875 1198.828125 1264.960938 1205.058594 1270.214844 C 1212.890625 1276.824219 1220.859375 1282.125 1228.339844 1286.339844 "/>
    <path fill-rule="evenodd" fill="rgb(19.604492%, 18.797302%, 19.189453%)" fill-opacity="1"
          d="M 2005.5 670.738281 C 2005.5 670.738281 2075.558594 751.46875 2073.148438 763.339844 C 2070.75 775.21875 1942.609375 903.941406 1942.609375 903.941406 L 1960.800781 934.152344 L 2099.21875 786.761719 C 2099.21875 786.761719 2104.808594 762.171875 2093.390625 749.988281 C 2081.960938 737.820312 2005.5 670.738281 2005.5 670.738281 "/>
    <path fill-rule="evenodd" fill="rgb(19.604492%, 18.797302%, 19.189453%)" fill-opacity="1"
          d="M 2007.601562 672.691406 C 2007.601562 672.691406 1921.910156 608.808594 1910.238281 612.078125 C 1898.578125 615.359375 1779.699219 752.679688 1779.699219 752.679688 L 1748.21875 736.769531 L 1884.960938 587.820312 C 1884.960938 587.820312 1909.070312 580.421875 1922.058594 590.921875 C 1935.050781 601.410156 2007.601562 672.691406 2007.601562 672.691406 "/>
    <path fill-rule="evenodd" fill="rgb(19.604492%, 18.797302%, 19.189453%)" fill-opacity="1"
          d="M 1980.160156 699.679688 C 2006.140625 723.800781 2007.648438 764.488281 1983.53125 790.46875 C 1959.398438 816.449219 1918.71875 817.960938 1892.730469 793.839844 C 1866.75 769.710938 1865.238281 729.03125 1889.371094 703.039062 C 1913.488281 677.058594 1954.179688 675.550781 1980.160156 699.679688 Z M 1946.800781 799.03125 C 1929.660156 803.828125 1911.230469 800.371094 1898.039062 788.121094 C 1884.851562 775.878906 1880.039062 757.75 1883.558594 740.300781 C 1884.640625 754.648438 1891.738281 769.671875 1904.328125 781.351562 C 1916.910156 793.039062 1932.410156 799.011719 1946.800781 799.03125 Z M 1926.089844 694.488281 C 1943.230469 689.691406 1961.671875 693.148438 1974.859375 705.390625 C 1988.039062 717.628906 1992.859375 735.769531 1989.339844 753.210938 C 1988.261719 738.859375 1981.148438 723.839844 1968.570312 712.160156 C 1955.988281 700.480469 1940.480469 694.511719 1926.089844 694.488281 "/>
    <path fill-rule="evenodd" fill="rgb(19.604492%, 18.797302%, 19.189453%)" fill-opacity="1"
          d="M 1995.089844 683.601562 C 2029.949219 715.960938 2031.96875 770.539062 1999.609375 805.398438 C 1967.238281 840.261719 1912.660156 842.289062 1877.800781 809.921875 C 1842.941406 777.550781 1840.921875 722.96875 1873.289062 688.109375 C 1905.648438 653.261719 1960.230469 651.230469 1995.089844 683.601562 Z M 1985.261719 694.191406 C 2016.609375 723.289062 2019.050781 771.71875 1990.699219 802.25 C 1962.351562 832.78125 1913.878906 833.941406 1882.53125 804.828125 C 1851.179688 775.71875 1848.738281 727.300781 1877.089844 696.769531 C 1905.441406 666.230469 1953.910156 665.078125 1985.261719 694.191406 "/>
    <path fill-rule="evenodd" fill="rgb(19.604492%, 18.797302%, 19.189453%)" fill-opacity="1"
          d="M 1869.941406 818.429688 L 1938.128906 881.75 C 1938.128906 881.75 1919.699219 866.988281 1897.898438 882.019531 C 1876.109375 897.050781 1718.058594 1063.054688 1691.300781 1097.78125 C 1664.550781 1132.511719 1642.511719 1173.972656 1636.800781 1206.292969 C 1636.800781 1206.292969 1635.648438 1153.496094 1665.511719 1114.589844 C 1695.359375 1075.683594 1864.589844 893.421875 1864.589844 893.421875 C 1864.589844 893.421875 1880.949219 863.140625 1855.089844 834.429688 L 1869.941406 818.429688 "/>
    <path fill-rule="evenodd" fill="rgb(19.604492%, 18.797302%, 19.189453%)" fill-opacity="1"
          d="M 1870.421875 818.871094 L 1802.21875 755.558594 C 1802.21875 755.558594 1818.308594 772.851562 1804.929688 795.699219 C 1791.550781 818.550781 1637.710938 988.457031 1605.058594 1017.714844 C 1572.421875 1046.96875 1532.699219 1072.015625 1500.890625 1080.105469 C 1500.890625 1080.105469 1553.628906 1077.335938 1590.210938 1044.683594 C 1626.800781 1012.027344 1796.03125 829.761719 1796.03125 829.761719 C 1796.03125 829.761719 1825.019531 811.210938 1855.558594 834.871094 L 1870.421875 818.871094 "/>
    <path fill-rule="evenodd" fill="rgb(19.604492%, 18.797302%, 19.189453%)" fill-opacity="1"
          d="M 1617.730469 1011.921875 C 1617.730469 1011.921875 1545.519531 1078.390625 1584.679688 1116.996094 L 1565.609375 1137.542969 C 1565.609375 1137.542969 1506.039062 1073.242188 1394.761719 1103.425781 L 1333.921875 1141.058594 L 1301.339844 1139.414062 L 1377.898438 1057.769531 C 1377.898438 1057.769531 1455.058594 1093.410156 1508.839844 1075.082031 C 1562.609375 1056.753906 1617.730469 1011.921875 1617.730469 1011.921875 "/>
    <path fill-rule="evenodd" fill="rgb(19.604492%, 18.797302%, 19.189453%)" fill-opacity="1"
          d="M 1289.988281 1153.070312 L 1206.441406 1243.0625 C 1206.441406 1243.0625 1251.949219 1277.394531 1270.199219 1275.453125 L 1300.769531 1188.058594 L 1302.960938 1179.132812 L 1289.988281 1153.070312 "/>
    <path fill-rule="evenodd" fill="rgb(19.604492%, 18.797302%, 19.189453%)" fill-opacity="1"
          d="M 1570.640625 1124.695312 C 1570.640625 1124.695312 1669.039062 1234.1875 1613.871094 1342.0625 C 1613.871094 1342.0625 1667.058594 1237.046875 1561.480469 1130.953125 L 1570.640625 1124.695312 "/>
    <path fill-rule="evenodd" fill="rgb(19.604492%, 18.797302%, 19.189453%)" fill-opacity="1"
          d="M 1598.261719 1391.160156 L 1655.710938 1329.28125 L 1643.46875 1263.8125 L 1670.988281 1332.640625 L 1499.96875 1516.828125 C 1499.96875 1516.828125 1455.058594 1478.382812 1454.378906 1459.890625 L 1467.410156 1455.761719 C 1467.410156 1455.761719 1482.539062 1485.496094 1499.589844 1499.171875 L 1568.378906 1425.089844 C 1568.378906 1425.089844 1583.648438 1420.875 1590.929688 1413.03125 C 1598.21875 1405.1875 1598.261719 1391.160156 1598.261719 1391.160156 "/>
    <path fill-rule="evenodd" fill="rgb(19.604492%, 18.797302%, 19.189453%)" fill-opacity="1"
          d="M 2125.539062 742.96875 C 2125.539062 742.96875 2141.621094 756.320312 2147.910156 770.859375 L 1984.179688 947.195312 L 1976.378906 935.996094 L 2112.910156 789.800781 C 2112.910156 789.800781 2117.648438 773.621094 2116.339844 760.539062 L 2125.539062 742.96875 "/>
    <path fill-rule="evenodd" fill="rgb(19.604492%, 18.797302%, 19.189453%)" fill-opacity="1"
          d="M 2159.011719 782.761719 L 2170.578125 795.871094 L 1990.679688 989.621094 C 1990.679688 989.621094 1991.128906 979.761719 1990.28125 967.894531 L 2159.011719 782.761719 "/>
    <path fill-rule="evenodd" fill="rgb(19.604492%, 18.797302%, 19.189453%)" fill-opacity="1"
          d="M 2158.78125 695.359375 C 2175.410156 713.109375 2197.019531 741.691406 2207.070312 755.261719 L 2189.480469 774.210938 C 2189.480469 774.210938 2160.171875 732.539062 2140.75 714.5 Z M 2194.601562 657.328125 C 2211.199219 675.101562 2232.640625 703.460938 2242.628906 716.960938 L 2224.628906 736.351562 C 2210.789062 714.460938 2188.03125 689.828125 2175.851562 677.238281 Z M 2211.671875 639.210938 L 2241.558594 607.488281 C 2241.558594 607.488281 2272.839844 641.839844 2285.660156 670.621094 L 2260.199219 698.039062 C 2246.449219 676.320312 2223.921875 651.878906 2211.671875 639.210938 "/>
    <path fill-rule="evenodd" fill="rgb(19.604492%, 18.797302%, 19.189453%)" fill-opacity="1"
          d="M 1336.109375 1137 C 1323.648438 1126.898438 1305.308594 1128.058594 1294.238281 1139.988281 C 1294.238281 1139.988281 1294.238281 1139.988281 1294.230469 1139.988281 C 1283.160156 1151.917969 1283.359375 1170.289062 1294.351562 1181.96875 C 1246.578125 1254.726562 1256.449219 1353.136719 1321.820312 1413.839844 C 1387.199219 1474.539062 1486.070312 1477.09375 1555.089844 1424.054688 C 1567.550781 1434.15625 1585.878906 1432.996094 1596.960938 1421.066406 C 1608.039062 1409.136719 1607.839844 1390.765625 1596.839844 1379.085938 C 1644.621094 1306.328125 1634.75 1207.914062 1569.378906 1147.214844 C 1504 1086.515625 1405.128906 1083.964844 1336.109375 1137 Z M 1330.660156 1152.414062 C 1333.429688 1154.988281 1337.679688 1155.109375 1340.601562 1152.699219 C 1404 1100.257812 1497.691406 1101.234375 1559.121094 1158.265625 C 1620.539062 1215.296875 1628.449219 1308.65625 1580.851562 1375.773438 C 1578.660156 1378.855469 1579.101562 1383.085938 1581.871094 1385.660156 L 1585.089844 1388.648438 C 1591.441406 1394.539062 1591.800781 1404.460938 1585.910156 1410.804688 C 1580.019531 1417.152344 1570.101562 1417.519531 1563.761719 1411.628906 L 1560.539062 1408.636719 C 1557.761719 1406.066406 1553.511719 1405.941406 1550.601562 1408.351562 C 1487.191406 1460.796875 1393.511719 1459.820312 1332.078125 1402.789062 C 1270.660156 1345.757812 1262.738281 1252.398438 1310.351562 1185.28125 C 1312.53125 1182.195312 1312.101562 1177.96875 1309.328125 1175.394531 L 1306.109375 1172.40625 C 1299.761719 1166.515625 1299.390625 1156.59375 1305.28125 1150.25 C 1305.289062 1150.25 1305.289062 1150.246094 1305.289062 1150.246094 C 1311.179688 1143.902344 1321.101562 1143.535156 1327.441406 1149.425781 Z M 1342.261719 1177.222656 C 1341 1178.484375 1339.75 1179.78125 1338.519531 1181.109375 C 1283.558594 1240.300781 1286.640625 1332.597656 1345.339844 1387.097656 C 1404.039062 1441.597656 1496.308594 1437.832031 1551.269531 1378.640625 C 1552.5 1377.316406 1553.699219 1375.972656 1554.871094 1374.625 C 1556.039062 1373.453125 1557.199219 1372.25 1558.339844 1371.023438 C 1609.28125 1316.160156 1603.261719 1227.257812 1544.449219 1172.652344 C 1485.640625 1118.046875 1396.539062 1118.625 1345.589844 1173.488281 C 1344.449219 1174.71875 1343.339844 1175.964844 1342.261719 1177.222656 Z M 1315.398438 1297.949219 C 1319.160156 1326.910156 1332.621094 1354.710938 1355.601562 1376.046875 C 1378.578125 1397.386719 1407.300781 1408.746094 1436.460938 1410.351562 C 1408.929688 1405.566406 1381.988281 1392.753906 1359.488281 1371.859375 C 1336.988281 1350.96875 1322.210938 1325.054688 1315.398438 1297.949219 Z M 1543.820312 1364.34375 C 1497.851562 1409.707031 1420.941406 1408.34375 1369.75 1360.808594 C 1318.550781 1313.273438 1311.5 1236.679688 1353.328125 1187.476562 C 1402.960938 1138.160156 1482.878906 1136.0625 1534.191406 1183.699219 C 1585.5 1231.339844 1589.328125 1311.199219 1543.820312 1364.34375 Z M 1852.390625 890.730469 C 1858.808594 883.820312 1862.128906 874.550781 1861.589844 864.949219 C 1861.058594 855.488281 1856.800781 846.480469 1849.730469 839.910156 C 1842.648438 833.339844 1833.351562 829.769531 1823.878906 829.941406 C 1814.261719 830.109375 1805.269531 834.109375 1798.851562 841.019531 C 1753.71875 889.628906 1640.398438 1011.667969 1595.269531 1060.273438 C 1588.859375 1067.1875 1585.53125 1076.457031 1586.070312 1086.058594 C 1586.609375 1095.515625 1590.859375 1104.527344 1597.929688 1111.09375 C 1597.941406 1111.097656 1597.941406 1111.097656 1597.941406 1111.097656 C 1605.011719 1117.664062 1614.308594 1121.238281 1623.78125 1121.070312 C 1633.398438 1120.898438 1642.398438 1116.898438 1648.808594 1109.988281 Z M 1841.339844 880.46875 L 1637.769531 1099.726562 C 1634.121094 1103.65625 1628.980469 1105.898438 1623.511719 1105.996094 C 1617.898438 1106.09375 1612.390625 1103.941406 1608.199219 1100.046875 C 1608.199219 1100.046875 1608.191406 1100.046875 1608.191406 1100.046875 C 1604 1096.148438 1601.441406 1090.820312 1601.128906 1085.210938 C 1600.820312 1079.75 1602.679688 1074.464844 1606.320312 1070.535156 C 1651.449219 1021.929688 1764.769531 899.890625 1809.898438 851.28125 C 1813.550781 847.351562 1818.679688 845.109375 1824.148438 845.011719 C 1829.769531 844.910156 1835.269531 847.058594 1839.46875 850.960938 C 1843.660156 854.859375 1846.21875 860.191406 1846.53125 865.800781 C 1846.839844 871.261719 1844.988281 876.539062 1841.339844 880.46875 "/>
    <path fill-rule="evenodd" fill="rgb(19.604492%, 18.797302%, 19.189453%)" fill-opacity="1"
          d="M 1957.679688 578.730469 C 1957.679688 578.730469 1903.019531 529.949219 1868.179688 519.308594 L 1692.429688 708.601562 C 1692.429688 708.601562 1736.839844 711.050781 1745.75 721.289062 L 1883.46875 572.960938 C 1883.46875 572.960938 1906.171875 559.839844 1942.898438 593.941406 L 1957.679688 578.730469 "/>
    <path fill-rule="evenodd" fill="rgb(19.604492%, 18.797302%, 19.189453%)" fill-opacity="1"
          d="M 1966.941406 589.300781 L 1953.160156 604.128906 L 1982.480469 631.351562 L 1996.578125 616.160156 L 1966.941406 589.300781 "/>
    <path fill-rule="evenodd" fill="rgb(19.604492%, 18.797302%, 19.189453%)" fill-opacity="1"
          d="M 1904.621094 480.980469 L 1892.710938 493.800781 C 1892.710938 493.800781 1957.351562 531.761719 1977.289062 554.421875 L 1989.789062 540.960938 C 1989.789062 540.960938 1932.988281 494.789062 1904.621094 480.980469 Z M 2000.691406 551.078125 L 1987.589844 565.191406 L 2016.761719 592.269531 L 2029.859375 578.160156 L 2000.691406 551.078125 "/>
    <path fill-rule="evenodd" fill="rgb(19.604492%, 18.797302%, 19.189453%)" fill-opacity="1"
          d="M 1938.25 444.761719 L 1926.339844 457.578125 C 1926.339844 457.578125 1990.980469 495.53125 2010.921875 518.199219 L 2023.421875 504.738281 C 2023.421875 504.738281 1966.621094 458.558594 1938.25 444.761719 Z M 2034.320312 514.859375 L 2021.21875 528.960938 L 2050.390625 556.050781 L 2063.488281 541.941406 L 2034.320312 514.859375 "/>
    <path fill-rule="evenodd" fill="rgb(19.604492%, 18.797302%, 19.189453%)" fill-opacity="1"
          d="M 2044.578125 482.011719 L 2075.828125 448.351562 C 2075.828125 448.351562 2019.019531 402.171875 1990.660156 388.371094 L 1960 421.378906 C 1960 421.378906 2024.628906 459.339844 2044.578125 482.011719 Z M 2084.050781 519.851562 L 2115.890625 485.550781 L 2086.730469 458.46875 L 2054.878906 492.761719 L 2084.050781 519.851562 "/>
    <path fill-rule="evenodd" fill="rgb(91.796875%, 87.109375%, 81.25%)" fill-opacity="1"
          d="M 1479.601562 1026.535156 L 1493.269531 1042.679688 L 1513.140625 1041.4375 C 1513.140625 1041.4375 1586.621094 1111.972656 1593.871094 1118.445312 C 1601.121094 1124.914062 1690.75 1230.226562 1690.75 1230.226562 L 1687.019531 1247.613281 L 1708.140625 1267.488281 L 1706.890625 1286.117188 L 1684.539062 1308.472656 L 1655.96875 1305.988281 L 1642.308594 1288.601562 L 1610.019531 1292.328125 C 1610.019531 1292.328125 1599.5 1364.519531 1562.820312 1401.625 C 1526.140625 1438.734375 1473.578125 1451.890625 1437.371094 1455.03125 L 1426.199219 1481.117188 L 1447.308594 1507.199219 L 1447.308594 1528.3125 L 1431.160156 1545.699219 L 1400.46875 1547.042969 L 1385.199219 1529.6875 L 1363.671875 1527.605469 L 1197.039062 1344.3125 L 1190.789062 1331.8125 L 1192.179688 1314.457031 L 1183.851562 1299.875 C 1183.851562 1299.875 1217.871094 1274.1875 1224.121094 1245.027344 C 1230.371094 1215.867188 1212.320312 1142.273438 1185.238281 1113.109375 C 1158.160156 1083.949219 1010.28125 924.957031 993.617188 910.378906 C 976.953125 895.800781 950.570312 886.769531 950.570312 886.769531 C 950.570312 886.769531 931.128906 911.769531 918.632812 932.59375 C 906.136719 953.425781 907.523438 977.722656 907.523438 977.722656 L 906.828125 1007.578125 L 886.695312 1022.851562 L 572.875 682.648438 C 572.875 682.648438 615.226562 600.71875 761.027344 468.109375 L 884.613281 378.550781 L 910.300781 375.078125 L 1221.339844 711.808594 C 1221.339844 711.808594 1217.179688 727.78125 1199.128906 729.859375 C 1181.078125 731.941406 1154 728.46875 1135.949219 734.03125 C 1117.890625 739.578125 1083.179688 765.960938 1083.179688 765.960938 C 1083.179688 765.960938 1089.429688 799.289062 1124.140625 833.308594 C 1158.859375 867.328125 1308.128906 1029.101562 1308.128906 1029.101562 C 1308.128906 1029.101562 1392.628906 1063.816406 1411.578125 1063.816406 C 1444.910156 1063.816406 1479.601562 1026.535156 1479.601562 1026.535156 Z M 1563.128906 1266.152344 C 1563.128906 1266.152344 1548.660156 1341.964844 1510.058594 1370.910156 C 1471.460938 1399.855469 1421.839844 1412.949219 1372.910156 1394.34375 C 1323.980469 1375.734375 1291.578125 1309.570312 1295.03125 1262.703125 C 1298.480469 1215.839844 1335 1184.824219 1362.570312 1161.390625 C 1390.140625 1137.960938 1464.570312 1129.6875 1505.929688 1160.011719 C 1547.28125 1190.339844 1563.128906 1266.152344 1563.128906 1266.152344 Z M 1284 1072.484375 L 1077.929688 848.488281 C 1077.929688 848.488281 1046.921875 836.089844 1033.128906 850.558594 C 1019.351562 865.03125 1024.859375 879.511719 1038.640625 893.289062 C 1052.429688 907.078125 1228.871094 1096.605469 1240.578125 1107.632812 C 1252.300781 1118.660156 1297.101562 1112.457031 1284 1072.484375 "/>
    <path fill-rule="evenodd" fill="rgb(19.604492%, 18.797302%, 19.189453%)" fill-opacity="1"
          d="M 715.71875 500.679688 C 710.121094 505.710938 648.0625 561.851562 605.351562 614.851562 C 585.503906 639.480469 569.910156 663.578125 565.246094 681.820312 C 564.601562 684.351562 565.304688 687.019531 567.105469 688.910156 L 605.625 729.128906 L 883.351562 1028.253906 C 885.355469 1030.410156 888.4375 1031.203125 891.238281 1030.28125 C 891.238281 1030.28125 918.496094 1021.117188 915.632812 993.917969 C 913.585938 974.441406 917.371094 954.597656 922.699219 945.375 C 926.710938 938.4375 937.9375 916.871094 948.261719 903.28125 C 950.246094 900.671875 952.183594 898.371094 954.023438 896.609375 C 954.476562 896.171875 954.898438 895.769531 955.300781 895.421875 C 962.503906 898.109375 981.839844 906.511719 996.921875 923.6875 C 1016.761719 946.28125 1179.828125 1120.753906 1188.699219 1130.238281 C 1190.988281 1133.59375 1207.269531 1158.136719 1214.78125 1190.351562 C 1219.980469 1212.683594 1221 1238.792969 1209.660156 1263.980469 L 1178.988281 1295.871094 C 1176.390625 1298.570312 1176.171875 1302.769531 1178.46875 1305.726562 C 1178.46875 1305.726562 1187.828125 1317.746094 1187.828125 1317.746094 C 1185.378906 1324.640625 1183.371094 1337.804688 1194.980469 1352.5 C 1208.339844 1369.425781 1362.300781 1532.746094 1362.300781 1532.746094 C 1362.871094 1533.355469 1363.539062 1533.863281 1364.28125 1534.253906 C 1364.28125 1534.253906 1370.628906 1538.234375 1382.300781 1534.636719 L 1399.238281 1552.882812 C 1400.609375 1554.347656 1402.488281 1555.214844 1404.488281 1555.289062 L 1425.679688 1556.074219 C 1427.679688 1556.148438 1429.621094 1555.425781 1431.089844 1554.066406 L 1452.609375 1534.085938 C 1454.070312 1532.726562 1454.941406 1530.839844 1455.011719 1528.839844 L 1456.03125 1501.46875 C 1456.101562 1499.472656 1455.378906 1497.527344 1454.019531 1496.0625 L 1437.960938 1478.765625 C 1444.851562 1465.824219 1447.53125 1456.507812 1447.53125 1456.507812 L 1433.050781 1452.308594 C 1433.050781 1452.308594 1425.101562 1479.429688 1401.320312 1503.71875 C 1385.699219 1519.664062 1374.738281 1520.792969 1371.71875 1520.757812 C 1355.628906 1503.683594 1219.320312 1358.992188 1206.808594 1343.15625 C 1197.160156 1330.9375 1202.949219 1320.757812 1202.949219 1320.757812 C 1204.660156 1318.066406 1204.488281 1314.597656 1202.53125 1312.085938 L 1194.378906 1301.617188 L 1221.410156 1273.507812 C 1221.988281 1272.910156 1222.460938 1272.21875 1222.808594 1271.464844 C 1236.261719 1242.585938 1235.441406 1212.566406 1229.460938 1186.929688 C 1220.660156 1149.171875 1200.71875 1121.125 1200.71875 1121.125 C 1200.53125 1120.847656 1200.308594 1120.585938 1200.078125 1120.339844 C 1200.078125 1120.339844 1028.621094 936.929688 1008.25 913.738281 C 986.402344 888.851562 956.773438 879.980469 956.773438 879.980469 C 955.300781 879.53125 953.722656 879.550781 952.261719 880.03125 C 947.832031 881.480469 941.953125 886.660156 936.253906 894.160156 C 930.179688 902.160156 923.78125 912.800781 918.621094 921.828125 L 788.105469 781.261719 C 788 781.148438 787.894531 781.039062 787.785156 780.929688 C 787.785156 780.929688 784.414062 777.398438 784.910156 771.480469 C 785.359375 766.171875 788.644531 759.628906 797.09375 751.789062 C 823.164062 727.578125 878.371094 676.320312 878.371094 676.320312 L 868.113281 665.269531 C 868.113281 665.269531 812.90625 716.53125 786.835938 740.738281 C 774.425781 752.261719 770.542969 762.429688 769.886719 770.210938 C 768.828125 782.769531 775.992188 790.46875 777.183594 791.660156 L 910.882812 935.652344 C 910.417969 936.480469 910.003906 937.210938 909.644531 937.828125 C 903.304688 948.804688 898.199219 972.324219 900.636719 995.496094 C 901.710938 1005.675781 895.234375 1011.328125 890.691406 1013.996094 L 697.613281 806.050781 C 702.304688 794.871094 717.222656 765.128906 755.558594 726.78125 C 806.117188 676.191406 846.234375 642.578125 846.234375 642.578125 L 836.550781 631.019531 C 836.550781 631.019531 795.996094 664.988281 744.894531 716.121094 C 710.40625 750.621094 693.816406 778.769531 686.480469 794.058594 L 662.222656 767.929688 C 666.914062 756.75 681.832031 727.019531 720.171875 688.660156 C 770.730469 638.078125 810.84375 604.46875 810.84375 604.46875 L 801.160156 592.910156 C 801.160156 592.910156 760.609375 626.871094 709.507812 678 C 675.015625 712.511719 658.425781 740.648438 651.089844 755.941406 L 626.835938 729.808594 C 631.527344 718.640625 646.441406 688.898438 684.78125 650.539062 C 735.339844 599.960938 775.453125 566.351562 775.453125 566.351562 L 765.769531 554.789062 C 765.769531 554.789062 725.21875 588.761719 674.117188 639.878906 C 639.609375 674.410156 623.019531 702.558594 615.691406 717.839844 C 610.257812 712.171875 581.015625 681.628906 581.015625 681.628906 C 586.410156 665.460938 600.261719 645.199219 617.09375 624.308594 C 659.183594 572.078125 720.375 516.761719 725.785156 511.898438 L 725.789062 511.910156 L 725.976562 511.730469 L 726.171875 511.558594 L 726.164062 511.550781 C 731.414062 506.511719 791.109375 449.589844 846.316406 411.480469 C 868.390625 396.238281 889.625 383.929688 906.152344 379.75 C 906.152344 379.75 934.441406 411.171875 939.695312 417.011719 C 923.914062 423.191406 894.605469 437.648438 857.621094 469.5 C 802.851562 516.679688 765.976562 554.601562 765.976562 554.601562 L 776.785156 565.109375 C 776.785156 565.109375 813.277344 527.601562 867.464844 480.929688 C 908.554688 445.53125 939.316406 432.859375 950.808594 429.011719 L 975.066406 455.140625 C 959.277344 461.320312 929.980469 475.78125 893.011719 507.621094 C 838.242188 554.789062 801.363281 592.71875 801.363281 592.71875 L 812.175781 603.230469 C 812.175781 603.230469 848.664062 565.71875 902.855469 519.039062 C 943.945312 483.648438 974.703125 470.980469 986.199219 467.128906 L 1010.460938 493.25 C 994.667969 499.429688 965.371094 513.890625 928.402344 545.730469 C 873.632812 592.910156 836.753906 630.828125 836.753906 630.828125 L 847.5625 641.351562 C 847.5625 641.351562 884.054688 603.828125 938.242188 557.160156 C 979.335938 521.769531 1010.089844 509.089844 1021.589844 505.238281 L 1214.671875 713.191406 C 1211.671875 717.519531 1205.550781 723.558594 1195.480469 721.738281 C 1172.550781 717.589844 1148.71875 720.941406 1137.308594 726.449219 C 1136.660156 726.761719 1135.898438 727.121094 1135.039062 727.519531 L 1001.339844 583.53125 C 1000.25 582.25 993.101562 574.539062 980.5 574.660156 C 972.6875 574.738281 962.257812 577.859375 949.851562 589.378906 C 923.78125 613.589844 868.574219 664.839844 868.574219 664.839844 L 878.835938 675.890625 C 878.835938 675.890625 934.039062 624.640625 960.109375 600.429688 C 968.558594 592.578125 975.328125 589.789062 980.648438 589.738281 C 986.585938 589.679688 989.863281 593.300781 989.863281 593.300781 C 989.960938 593.421875 990.0625 593.539062 990.164062 593.648438 L 1120.679688 734.21875 C 1111.289062 738.699219 1100.210938 744.289062 1091.789062 749.75 C 1083.878906 754.878906 1078.28125 760.359375 1076.511719 764.671875 C 1075.921875 766.089844 1075.789062 767.660156 1076.121094 769.171875 C 1076.121094 769.171875 1082.78125 799.371094 1105.980469 823.011719 C 1127.589844 845.03125 1297.800781 1029.609375 1297.800781 1029.609375 C 1298.03125 1029.855469 1298.28125 1030.089844 1298.539062 1030.304688 C 1298.539062 1030.304688 1325.03125 1052.265625 1362.03125 1063.839844 C 1387.160156 1071.695312 1417.03125 1074.738281 1446.828125 1063.472656 C 1447.609375 1063.179688 1448.328125 1062.757812 1448.96875 1062.226562 L 1479 1037.351562 L 1488.839844 1046.257812 C 1491.199219 1048.390625 1494.648438 1048.816406 1497.460938 1047.316406 C 1497.460938 1047.316406 1508.039062 1042.296875 1519.511719 1052.820312 C 1534.371094 1066.46875 1668.570312 1213.121094 1684.410156 1230.433594 C 1684.21875 1233.449219 1682.28125 1244.300781 1665.21875 1258.691406 C 1639.238281 1280.609375 1611.609375 1286.519531 1611.609375 1286.519531 L 1614.71875 1301.273438 C 1614.71875 1301.273438 1624.210938 1299.296875 1637.621094 1293.378906 L 1653.679688 1310.675781 C 1655.039062 1312.140625 1656.929688 1313.007812 1658.929688 1313.078125 L 1686.300781 1314.09375 C 1688.300781 1314.167969 1690.238281 1313.445312 1691.710938 1312.085938 L 1713.230469 1292.105469 C 1714.691406 1290.746094 1715.558594 1288.859375 1715.628906 1286.863281 L 1716.421875 1265.671875 C 1716.488281 1263.675781 1715.769531 1261.726562 1714.410156 1260.261719 L 1697.460938 1242.015625 C 1701.910156 1230.640625 1698.421875 1224.015625 1698.421875 1224.015625 C 1698.078125 1223.25 1697.628906 1222.546875 1697.058594 1221.929688 C 1697.058594 1221.929688 1545.589844 1056.296875 1529.699219 1041.714844 C 1515.910156 1029.050781 1502.628906 1030.078125 1495.570312 1032.011719 L 1484.28125 1021.789062 C 1481.5 1019.273438 1477.300781 1019.183594 1474.410156 1021.574219 L 1440.339844 1049.796875 C 1414.378906 1059.238281 1388.421875 1056.292969 1366.53125 1049.449219 C 1334.960938 1039.574219 1311.691406 1021.523438 1308.519531 1018.988281 C 1299.710938 1009.441406 1137.800781 833.898438 1116.738281 812.441406 C 1100.71875 796.128906 1093.78125 776.21875 1091.628906 768.839844 C 1092.011719 768.460938 1092.441406 768.070312 1092.910156 767.648438 C 1094.800781 765.949219 1097.238281 764.191406 1099.988281 762.398438 C 1114.308594 753.109375 1136.648438 743.511719 1143.859375 740.03125 C 1153.460938 735.398438 1173.53125 733.089844 1192.800781 736.578125 C 1219.710938 741.449219 1230.871094 714.941406 1230.871094 714.941406 C 1231.988281 712.21875 1231.429688 709.089844 1229.429688 706.929688 L 951.699219 407.808594 C 951.699219 407.808594 914.4375 366.421875 914.4375 366.421875 C 912.691406 364.480469 910.074219 363.578125 907.511719 364.039062 C 888.976562 367.339844 863.78125 381.101562 837.75 399.070312 C 781.730469 437.738281 721.148438 495.46875 715.71875 500.679688 Z M 1429.898438 1492.246094 L 1440.839844 1504.03125 L 1440.058594 1525.160156 L 1423.121094 1540.890625 L 1408.171875 1540.335938 L 1396.378906 1527.636719 C 1401.140625 1524.429688 1406.390625 1520.089844 1412.089844 1514.269531 C 1419.261719 1506.945312 1425.140625 1499.386719 1429.898438 1492.246094 Z M 1651.660156 1286.339844 L 1662.609375 1298.128906 L 1683.738281 1298.910156 L 1700.679688 1283.183594 L 1701.230469 1268.234375 L 1689.441406 1255.535156 C 1685.890625 1260.046875 1681.171875 1264.960938 1674.941406 1270.214844 C 1667.109375 1276.824219 1659.140625 1282.125 1651.660156 1286.339844 "/>
    <path fill-rule="evenodd" fill="rgb(19.604492%, 18.797302%, 19.189453%)" fill-opacity="1"
          d="M 874.5 670.738281 C 874.5 670.738281 804.445312 751.46875 806.847656 763.339844 C 809.253906 775.21875 937.386719 903.941406 937.386719 903.941406 L 919.195312 934.152344 L 780.78125 786.761719 C 780.78125 786.761719 775.1875 762.171875 786.613281 749.988281 C 798.039062 737.820312 874.5 670.738281 874.5 670.738281 "/>
    <path fill-rule="evenodd" fill="rgb(19.604492%, 18.797302%, 19.189453%)" fill-opacity="1"
          d="M 872.402344 672.691406 C 872.402344 672.691406 958.09375 608.808594 969.757812 612.078125 C 981.425781 615.359375 1100.300781 752.679688 1100.300781 752.679688 L 1131.78125 736.769531 L 995.046875 587.820312 C 995.046875 587.820312 970.933594 580.421875 957.945312 590.921875 C 944.953125 601.410156 872.402344 672.691406 872.402344 672.691406 "/>
    <path fill-rule="evenodd" fill="rgb(19.604492%, 18.797302%, 19.189453%)" fill-opacity="1"
          d="M 899.839844 699.679688 C 873.855469 723.800781 872.347656 764.488281 896.472656 790.46875 C 920.597656 816.449219 961.28125 817.960938 987.265625 793.839844 C 1013.25 769.710938 1014.761719 729.03125 990.632812 703.039062 C 966.507812 677.058594 925.824219 675.550781 899.839844 699.679688 Z M 933.199219 799.03125 C 950.335938 803.828125 968.773438 800.371094 981.960938 788.121094 C 995.148438 775.878906 999.964844 757.75 996.445312 740.300781 C 995.363281 754.648438 988.257812 769.671875 975.675781 781.351562 C 963.09375 793.039062 947.589844 799.011719 933.199219 799.03125 Z M 953.90625 694.488281 C 936.769531 689.691406 918.332031 693.148438 905.144531 705.390625 C 891.957031 717.628906 887.140625 735.769531 890.660156 753.210938 C 891.742188 738.859375 898.847656 723.839844 911.433594 712.160156 C 924.015625 700.480469 939.519531 694.511719 953.90625 694.488281 "/>
    <path fill-rule="evenodd" fill="rgb(19.604492%, 18.797302%, 19.189453%)" fill-opacity="1"
          d="M 884.910156 683.601562 C 850.050781 715.960938 848.027344 770.539062 880.394531 805.398438 C 912.757812 840.261719 967.339844 842.289062 1002.199219 809.921875 C 1037.058594 777.550781 1039.078125 722.96875 1006.710938 688.109375 C 974.347656 653.261719 919.769531 651.230469 884.910156 683.601562 Z M 894.742188 694.191406 C 863.390625 723.289062 860.953125 771.71875 889.304688 802.25 C 917.652344 832.78125 966.121094 833.941406 997.472656 804.828125 C 1028.828125 775.71875 1031.261719 727.300781 1002.910156 696.769531 C 974.5625 666.230469 926.09375 665.078125 894.742188 694.191406 "/>
    <path fill-rule="evenodd" fill="rgb(19.604492%, 18.797302%, 19.189453%)" fill-opacity="1"
          d="M 1010.058594 818.429688 L 941.867188 881.75 C 941.867188 881.75 960.300781 866.988281 982.097656 882.019531 C 1003.890625 897.050781 1161.941406 1063.054688 1188.699219 1097.78125 C 1215.449219 1132.511719 1237.488281 1173.972656 1243.199219 1206.292969 C 1243.199219 1206.292969 1244.351562 1153.496094 1214.488281 1114.589844 C 1184.640625 1075.683594 1015.410156 893.421875 1015.410156 893.421875 C 1015.410156 893.421875 999.054688 863.140625 1024.910156 834.429688 L 1010.058594 818.429688 "/>
    <path fill-rule="evenodd" fill="rgb(19.604492%, 18.797302%, 19.189453%)" fill-opacity="1"
          d="M 1009.578125 818.871094 L 1077.78125 755.558594 C 1077.78125 755.558594 1061.691406 772.851562 1075.070312 795.699219 C 1088.449219 818.550781 1242.289062 988.457031 1274.941406 1017.714844 C 1307.589844 1046.96875 1347.300781 1072.015625 1379.109375 1080.105469 C 1379.109375 1080.105469 1326.378906 1077.335938 1289.789062 1044.683594 C 1253.199219 1012.027344 1083.96875 829.761719 1083.96875 829.761719 C 1083.96875 829.761719 1054.980469 811.210938 1024.441406 834.871094 L 1009.578125 818.871094 "/>
    <path fill-rule="evenodd" fill="rgb(19.604492%, 18.797302%, 19.189453%)" fill-opacity="1"
          d="M 1262.269531 1011.921875 C 1262.269531 1011.921875 1334.480469 1078.390625 1295.320312 1116.996094 L 1314.390625 1137.542969 C 1314.390625 1137.542969 1373.960938 1073.242188 1485.238281 1103.425781 L 1546.089844 1141.058594 L 1578.660156 1139.414062 L 1502.101562 1057.769531 C 1502.101562 1057.769531 1424.941406 1093.410156 1371.160156 1075.082031 C 1317.390625 1056.753906 1262.269531 1011.921875 1262.269531 1011.921875 "/>
    <path fill-rule="evenodd" fill="rgb(19.604492%, 18.797302%, 19.189453%)" fill-opacity="1"
          d="M 1590.011719 1153.070312 L 1673.558594 1243.0625 C 1673.558594 1243.0625 1628.050781 1277.394531 1609.800781 1275.453125 L 1579.230469 1188.058594 L 1577.039062 1179.132812 L 1590.011719 1153.070312 "/>
    <path fill-rule="evenodd" fill="rgb(19.604492%, 18.797302%, 19.189453%)" fill-opacity="1"
          d="M 1309.359375 1124.695312 C 1309.359375 1124.695312 1210.960938 1234.1875 1266.140625 1342.0625 C 1266.140625 1342.0625 1212.941406 1237.046875 1318.519531 1130.953125 L 1309.359375 1124.695312 "/>
    <path fill-rule="evenodd" fill="rgb(19.604492%, 18.797302%, 19.189453%)" fill-opacity="1"
          d="M 1281.738281 1391.160156 L 1224.289062 1329.28125 L 1236.53125 1263.8125 L 1209.019531 1332.640625 L 1380.03125 1516.828125 C 1380.03125 1516.828125 1424.941406 1478.382812 1425.621094 1459.890625 L 1412.589844 1455.761719 C 1412.589844 1455.761719 1397.460938 1485.496094 1380.410156 1499.171875 L 1311.621094 1425.089844 C 1311.621094 1425.089844 1296.351562 1420.875 1289.070312 1413.03125 C 1281.78125 1405.1875 1281.738281 1391.160156 1281.738281 1391.160156 "/>
    <path fill-rule="evenodd" fill="rgb(19.604492%, 18.797302%, 19.189453%)" fill-opacity="1"
          d="M 754.464844 742.96875 C 754.464844 742.96875 738.378906 756.320312 732.09375 770.859375 L 895.820312 947.195312 L 903.621094 935.996094 L 767.085938 789.800781 C 767.085938 789.800781 762.351562 773.621094 763.660156 760.539062 L 754.464844 742.96875 "/>
    <path fill-rule="evenodd" fill="rgb(19.604492%, 18.797302%, 19.189453%)" fill-opacity="1"
          d="M 720.988281 782.761719 L 709.421875 795.871094 L 889.324219 989.621094 C 889.324219 989.621094 888.867188 979.761719 889.71875 967.894531 L 720.988281 782.761719 "/>
    <path fill-rule="evenodd" fill="rgb(19.604492%, 18.797302%, 19.189453%)" fill-opacity="1"
          d="M 721.21875 695.359375 C 704.589844 713.109375 682.976562 741.691406 672.929688 755.261719 L 690.523438 774.210938 C 690.523438 774.210938 719.828125 732.539062 739.253906 714.5 Z M 685.398438 657.328125 C 668.804688 675.101562 647.359375 703.460938 637.367188 716.960938 L 655.367188 736.351562 C 669.210938 714.460938 691.96875 689.828125 704.152344 677.238281 Z M 668.328125 639.210938 L 638.441406 607.488281 C 638.441406 607.488281 607.160156 641.839844 594.339844 670.621094 L 619.804688 698.039062 C 633.550781 676.320312 656.078125 651.878906 668.328125 639.210938 "/>
    <path fill-rule="evenodd" fill="rgb(19.604492%, 18.797302%, 19.189453%)" fill-opacity="1"
          d="M 1543.890625 1137 C 1556.351562 1126.898438 1574.691406 1128.058594 1585.769531 1139.988281 C 1596.839844 1151.917969 1596.640625 1170.289062 1585.648438 1181.96875 C 1633.421875 1254.726562 1623.550781 1353.136719 1558.179688 1413.839844 C 1492.800781 1474.539062 1393.929688 1477.09375 1324.910156 1424.054688 C 1312.449219 1434.15625 1294.121094 1432.996094 1283.039062 1421.066406 C 1271.960938 1409.136719 1272.160156 1390.765625 1283.160156 1379.085938 C 1235.378906 1306.328125 1245.25 1207.914062 1310.628906 1147.214844 C 1376 1086.515625 1474.871094 1083.964844 1543.890625 1137 Z M 1549.339844 1152.414062 C 1546.570312 1154.988281 1542.320312 1155.109375 1539.398438 1152.699219 C 1476 1100.257812 1382.308594 1101.234375 1320.878906 1158.265625 C 1259.460938 1215.296875 1251.550781 1308.65625 1299.148438 1375.773438 C 1301.339844 1378.855469 1300.898438 1383.085938 1298.128906 1385.660156 L 1294.910156 1388.648438 C 1288.558594 1394.539062 1288.199219 1404.460938 1294.089844 1410.804688 C 1299.980469 1417.152344 1309.898438 1417.519531 1316.238281 1411.628906 L 1319.460938 1408.636719 C 1322.238281 1406.066406 1326.488281 1405.941406 1329.398438 1408.351562 C 1392.808594 1460.796875 1486.488281 1459.820312 1547.921875 1402.789062 C 1609.339844 1345.757812 1617.261719 1252.398438 1569.648438 1185.28125 C 1567.46875 1182.195312 1567.898438 1177.96875 1570.671875 1175.394531 L 1573.890625 1172.40625 C 1580.238281 1166.515625 1580.609375 1156.59375 1574.71875 1150.25 C 1574.710938 1150.25 1574.710938 1150.246094 1574.710938 1150.246094 C 1568.820312 1143.902344 1558.898438 1143.535156 1552.558594 1149.425781 Z M 1537.738281 1177.222656 C 1539 1178.484375 1540.25 1179.78125 1541.480469 1181.109375 C 1596.441406 1240.300781 1593.359375 1332.597656 1534.660156 1387.097656 C 1475.960938 1441.597656 1383.691406 1437.832031 1328.730469 1378.640625 C 1327.5 1377.316406 1326.300781 1375.972656 1325.128906 1374.625 C 1323.960938 1373.453125 1322.800781 1372.25 1321.660156 1371.023438 C 1270.71875 1316.160156 1276.738281 1227.257812 1335.550781 1172.652344 C 1394.359375 1118.046875 1483.460938 1118.625 1534.410156 1173.488281 C 1535.550781 1174.71875 1536.660156 1175.964844 1537.738281 1177.222656 Z M 1564.601562 1297.949219 C 1560.839844 1326.910156 1547.378906 1354.710938 1524.398438 1376.046875 C 1501.421875 1397.386719 1472.699219 1408.746094 1443.539062 1410.351562 C 1471.070312 1405.566406 1498.011719 1392.753906 1520.511719 1371.859375 C 1543.011719 1350.96875 1557.789062 1325.054688 1564.601562 1297.949219 Z M 1336.179688 1364.34375 C 1382.148438 1409.707031 1459.058594 1408.34375 1510.25 1360.808594 C 1561.449219 1313.273438 1568.5 1236.679688 1526.671875 1187.476562 C 1477.039062 1138.160156 1397.121094 1136.0625 1345.808594 1183.699219 C 1294.5 1231.339844 1290.671875 1311.199219 1336.179688 1364.34375 Z M 1027.609375 890.730469 C 1021.191406 883.820312 1017.871094 874.550781 1018.410156 864.949219 C 1018.941406 855.488281 1023.199219 846.480469 1030.269531 839.910156 C 1030.269531 839.910156 1030.269531 839.910156 1030.28125 839.910156 C 1037.351562 833.339844 1046.648438 829.769531 1056.121094 829.941406 C 1065.738281 830.109375 1074.730469 834.109375 1081.148438 841.019531 C 1126.28125 889.628906 1239.601562 1011.667969 1284.730469 1060.273438 C 1291.140625 1067.1875 1294.46875 1076.457031 1293.929688 1086.058594 C 1293.390625 1095.515625 1289.140625 1104.527344 1282.070312 1111.09375 C 1282.058594 1111.097656 1282.058594 1111.097656 1282.058594 1111.097656 C 1274.988281 1117.664062 1265.691406 1121.238281 1256.21875 1121.070312 C 1246.601562 1120.898438 1237.601562 1116.898438 1231.191406 1109.988281 Z M 1038.660156 880.46875 L 1242.238281 1099.726562 C 1245.890625 1103.65625 1251.019531 1105.898438 1256.488281 1105.996094 C 1262.101562 1106.09375 1267.609375 1103.941406 1271.800781 1100.046875 C 1271.800781 1100.046875 1271.808594 1100.046875 1271.808594 1100.046875 C 1276 1096.148438 1278.558594 1090.820312 1278.871094 1085.210938 C 1279.179688 1079.75 1277.328125 1074.464844 1273.679688 1070.535156 C 1228.550781 1021.929688 1115.230469 899.890625 1070.101562 851.28125 C 1066.449219 847.351562 1061.320312 845.109375 1055.851562 845.011719 C 1050.230469 844.910156 1044.730469 847.058594 1040.539062 850.960938 C 1040.53125 850.960938 1040.53125 850.960938 1040.53125 850.960938 C 1036.339844 854.859375 1033.78125 860.191406 1033.46875 865.800781 C 1033.160156 871.261719 1035.011719 876.539062 1038.660156 880.46875 "/>
    <path fill-rule="evenodd" fill="rgb(19.604492%, 18.797302%, 19.189453%)" fill-opacity="1"
          d="M 922.320312 578.730469 C 922.320312 578.730469 976.984375 529.949219 1011.820312 519.308594 L 1187.578125 708.601562 C 1187.578125 708.601562 1143.160156 711.050781 1134.25 721.289062 L 996.53125 572.960938 C 996.53125 572.960938 973.832031 559.839844 937.101562 593.941406 L 922.320312 578.730469 "/>
    <path fill-rule="evenodd" fill="rgb(19.604492%, 18.797302%, 19.189453%)" fill-opacity="1"
          d="M 913.0625 589.300781 L 926.835938 604.128906 L 897.523438 631.351562 L 883.425781 616.160156 L 913.0625 589.300781 "/>
    <path fill-rule="evenodd" fill="rgb(19.604492%, 18.797302%, 19.189453%)" fill-opacity="1"
          d="M 975.382812 480.980469 L 987.285156 493.800781 C 987.285156 493.800781 922.652344 531.761719 902.710938 554.421875 L 890.210938 540.960938 C 890.210938 540.960938 947.015625 494.789062 975.382812 480.980469 Z M 879.3125 551.078125 L 892.40625 565.191406 L 863.238281 592.269531 L 850.140625 578.160156 L 879.3125 551.078125 "/>
    <path fill-rule="evenodd" fill="rgb(19.604492%, 18.797302%, 19.189453%)" fill-opacity="1"
          d="M 941.75 444.761719 L 953.65625 457.578125 C 953.65625 457.578125 889.023438 495.53125 869.078125 518.199219 L 856.578125 504.738281 C 856.578125 504.738281 913.382812 458.558594 941.75 444.761719 Z M 845.679688 514.859375 L 858.777344 528.960938 L 829.605469 556.050781 L 816.511719 541.941406 L 845.679688 514.859375 "/>
    <path fill-rule="evenodd" fill="rgb(19.604492%, 18.797302%, 19.189453%)" fill-opacity="1"
          d="M 835.421875 482.011719 L 804.175781 448.351562 C 804.175781 448.351562 860.976562 402.171875 889.34375 388.371094 L 920 421.378906 C 920 421.378906 855.367188 459.339844 835.421875 482.011719 Z M 795.949219 519.851562 L 764.105469 485.550781 L 793.273438 458.46875 L 825.121094 492.761719 L 795.949219 519.851562 "/>
</svg>
