<?xml version="1.0" encoding="UTF-8"?>
<svg xmlns="http://www.w3.org/2000/svg" xmlns:xlink="http://www.w3.org/1999/xlink" width="3002" height="2354"
     viewBox="0 0 3002 2354">
    <path fill-rule="evenodd" fill="rgb(50.193787%, 50.193787%, 50.193787%)" fill-opacity="1"
          d="M 1196.96875 1074.019531 L 1812.800781 458.210938 C 1766.488281 371.339844 1712.890625 322.160156 1653.148438 311.871094 C 1555.988281 295.179688 1463.640625 385.621094 1462.710938 386.558594 C 1442.929688 406.640625 1410.609375 406.878906 1390.558594 387.078125 C 1370.488281 367.308594 1370.261719 335 1390.019531 314.941406 C 1395.238281 309.640625 1519.898438 185.410156 1670.460938 211.351562 C 1771.648438 228.78125 1855.75 307.519531 1920.429688 445.359375 C 1920.671875 445.828125 1920.890625 446.300781 1921.101562 446.78125 C 1922.710938 450.191406 1923.898438 453.75 1924.691406 457.378906 C 1928.460938 474.46875 1923.128906 492.25 1910.929688 504.390625 C 1910.378906 505.019531 1909.769531 505.601562 1909.148438 506.171875 L 1269.148438 1146.171875 C 1259.148438 1156.140625 1246.109375 1161.128906 1233.058594 1161.128906 C 1220.019531 1161.128906 1206.941406 1156.140625 1196.96875 1146.171875 C 1177.050781 1126.230469 1177.050781 1093.941406 1196.96875 1074.019531 Z M 632.105469 880.308594 C 799.730469 880.308594 955.953125 970.300781 1040.101562 1115.300781 C 1040.28125 1115.578125 1040.480469 1115.871094 1040.691406 1116.179688 C 1059.699219 1144.601562 1163.140625 1311.289062 1129.519531 1526.523438 L 1944.140625 731.238281 C 2024.800781 650.5 2069.230469 542.699219 2069.230469 427.671875 C 2069.230469 312.53125 2024.75 204.671875 1943.960938 123.898438 C 1778.800781 -41.21875 1511.46875 -40.730469 1335.320312 124.960938 L 521.195312 890.878906 C 557.492188 883.960938 594.542969 880.308594 632.105469 880.308594 "/>
    <path fill-rule="evenodd" fill="rgb(19.993591%, 19.993591%, 19.993591%)" fill-opacity="1"
          d="M 931.605469 1134.871094 C 666.902344 757.308594 0.996094 1147.179688 0.996094 1669.800781 C 0.996094 2046.859375 307.730469 2353.628906 684.785156 2353.628906 L 2154.398438 2353.617188 L 3001 1387.183594 L 1767.230469 1387.183594 C 1610.421875 1426.351562 1536.339844 1364.230469 1494.378906 1313.109375 L 1005.890625 1790.117188 C 924.191406 1872.242188 806.996094 1916.28125 687.800781 1916.28125 C 627.074219 1916.3125 565.839844 1904.847656 508.519531 1881.222656 C 372.285156 1825.046875 290.945312 1709.578125 290.945312 1572.410156 C 290.945312 1389.910156 439.421875 1241.429688 621.921875 1241.429688 C 678.957031 1241.429688 735.417969 1256.480469 784.882812 1284.398438 Z M 1414.96875 1573.953125 C 1443.160156 1573.953125 1465.988281 1596.785156 1465.988281 1624.976562 L 1465.988281 1658.683594 L 1499.691406 1658.683594 C 1527.890625 1658.683594 1550.710938 1681.507812 1550.710938 1709.707031 C 1550.710938 1737.898438 1527.890625 1760.730469 1499.691406 1760.730469 L 1465.988281 1760.730469 L 1465.988281 1794.398438 C 1465.988281 1822.605469 1443.140625 1845.4375 1414.96875 1845.4375 C 1386.769531 1845.4375 1363.941406 1822.605469 1363.941406 1794.414062 L 1363.941406 1760.738281 L 1330.269531 1760.730469 C 1302.078125 1760.730469 1279.238281 1737.898438 1279.238281 1709.707031 C 1279.238281 1681.507812 1302.078125 1658.683594 1330.269531 1658.683594 L 1363.941406 1658.683594 L 1363.941406 1624.976562 C 1363.941406 1596.785156 1386.769531 1573.953125 1414.96875 1573.953125 Z M 1723.910156 1700.96875 C 1695.71875 1700.96875 1672.878906 1678.132812 1672.878906 1649.945312 L 1672.878906 1616.238281 L 1639.21875 1616.238281 C 1611.019531 1616.238281 1588.191406 1593.414062 1588.191406 1565.214844 C 1588.191406 1537.023438 1611.019531 1514.191406 1639.21875 1514.191406 L 1672.878906 1514.191406 L 1672.878906 1480.492188 C 1672.878906 1452.296875 1695.71875 1429.46875 1723.910156 1429.46875 C 1752.109375 1429.46875 1774.941406 1452.296875 1774.941406 1480.492188 L 1774.941406 1514.191406 L 1808.640625 1514.191406 C 1836.828125 1514.191406 1859.660156 1537.023438 1859.660156 1565.214844 C 1859.660156 1593.414062 1836.828125 1616.238281 1808.640625 1616.238281 L 1774.941406 1616.238281 L 1774.941406 1649.945312 C 1774.941406 1678.105469 1752.078125 1700.96875 1723.910156 1700.96875 Z M 2012.929688 1810.566406 C 1984.730469 1810.566406 1961.898438 1787.730469 1961.898438 1759.535156 L 1961.898438 1725.867188 L 1928.21875 1725.867188 C 1900.03125 1725.867188 1877.199219 1703.039062 1877.199219 1674.84375 C 1877.199219 1646.644531 1900.03125 1623.816406 1928.21875 1623.816406 L 1961.898438 1623.816406 L 1961.898438 1590.121094 C 1961.898438 1561.921875 1984.730469 1539.089844 2012.929688 1539.089844 C 2041.121094 1539.089844 2063.949219 1561.921875 2063.949219 1590.121094 L 2063.949219 1623.816406 L 2097.648438 1623.816406 C 2125.851562 1623.816406 2148.679688 1646.644531 2148.679688 1674.84375 C 2148.679688 1703.039062 2125.851562 1725.867188 2097.648438 1725.867188 L 2063.949219 1725.867188 L 2063.949219 1759.535156 C 2063.949219 1787.710938 2041.089844 1810.566406 2012.929688 1810.566406 Z M 975.300781 1968.851562 C 975.300781 1940.660156 998.132812 1917.828125 1026.320312 1917.828125 L 1060 1917.828125 L 1060 1884.128906 C 1060 1855.933594 1082.828125 1833.105469 1111.019531 1833.105469 C 1139.210938 1833.105469 1162.050781 1855.933594 1162.050781 1884.128906 L 1162.050781 1917.828125 L 1195.710938 1917.828125 C 1223.910156 1917.828125 1246.75 1940.660156 1246.75 1968.851562 C 1246.75 1997.050781 1223.910156 2019.875 1195.710938 2019.875 L 1162.050781 2019.875 L 1162.050781 2053.550781 C 1162.050781 2081.738281 1139.210938 2104.574219 1111.019531 2104.574219 C 1082.828125 2104.574219 1060 2081.738281 1060 2053.550781 L 1060 2019.875 L 1026.320312 2019.875 C 998.132812 2019.875 975.300781 1997.050781 975.300781 1968.851562 Z M 2291.96875 2074.679688 C 2263.78125 2074.679688 2240.941406 2051.847656 2240.941406 2023.65625 L 2240.941406 1989.953125 L 2207.28125 1989.953125 C 2179.078125 1989.953125 2156.25 1967.125 2156.25 1938.929688 C 2156.25 1910.738281 2179.078125 1887.902344 2207.28125 1887.902344 L 2240.941406 1887.902344 L 2240.941406 1854.238281 C 2240.941406 1826.039062 2263.78125 1803.210938 2291.96875 1803.210938 C 2320.171875 1803.210938 2343 1826.039062 2343 1854.238281 L 2343 1887.902344 L 2376.699219 1887.902344 C 2404.890625 1887.902344 2427.71875 1910.738281 2427.71875 1938.929688 C 2427.71875 1967.125 2404.890625 1989.953125 2376.699219 1989.953125 L 2343 1989.953125 L 2343 2023.65625 C 2343 2051.847656 2320.140625 2074.679688 2291.96875 2074.679688 Z M 2401.601562 1735.832031 C 2373.410156 1735.832031 2350.570312 1713 2350.570312 1684.808594 L 2350.570312 1651.105469 L 2316.898438 1651.105469 C 2288.710938 1651.105469 2265.871094 1628.277344 2265.871094 1600.078125 C 2265.871094 1571.890625 2288.710938 1549.054688 2316.898438 1549.054688 L 2350.570312 1549.054688 L 2350.570312 1515.359375 C 2350.570312 1487.160156 2373.410156 1464.335938 2401.601562 1464.335938 C 2429.789062 1464.335938 2452.621094 1487.160156 2452.621094 1515.359375 L 2452.621094 1549.054688 L 2486.320312 1549.054688 C 2514.511719 1549.054688 2537.351562 1571.890625 2537.351562 1600.078125 C 2537.351562 1628.277344 2514.511719 1651.105469 2486.320312 1651.105469 L 2452.621094 1651.105469 L 2452.621094 1684.808594 C 2452.621094 1713 2429.769531 1735.832031 2401.601562 1735.832031 Z M 1224.449219 2148.238281 C 1224.449219 2120.039062 1247.269531 2097.207031 1275.46875 2097.207031 L 1309.148438 2097.207031 L 1309.148438 2063.507812 C 1309.148438 2035.320312 1331.980469 2012.484375 1360.179688 2012.484375 C 1388.371094 2012.484375 1411.199219 2035.320312 1411.199219 2063.507812 L 1411.199219 2097.207031 L 1444.871094 2097.207031 C 1473.070312 2097.207031 1495.890625 2120.039062 1495.890625 2148.238281 C 1495.890625 2176.429688 1473.070312 2199.261719 1444.871094 2199.261719 L 1411.199219 2199.261719 L 1411.199219 2232.929688 C 1411.199219 2261.136719 1388.339844 2283.96875 1360.179688 2283.96875 C 1331.980469 2283.96875 1309.148438 2261.136719 1309.148438 2232.9375 L 1309.148438 2199.269531 L 1275.46875 2199.261719 C 1247.269531 2199.261719 1224.449219 2176.429688 1224.449219 2148.238281 Z M 1558.289062 1983.789062 C 1558.289062 1955.59375 1581.121094 1932.765625 1609.320312 1932.765625 L 1642.988281 1932.765625 L 1642.988281 1899.089844 C 1642.988281 1870.902344 1665.820312 1848.066406 1694.019531 1848.066406 C 1722.210938 1848.066406 1745.050781 1870.902344 1745.050781 1899.089844 L 1745.050781 1932.765625 L 1778.738281 1932.765625 C 1806.941406 1932.765625 1829.769531 1955.59375 1829.769531 1983.789062 C 1829.769531 2011.980469 1806.941406 2034.8125 1778.738281 2034.8125 L 1745.050781 2034.8125 L 1745.050781 2068.511719 C 1745.050781 2096.679688 1722.179688 2119.535156 1694.019531 2119.535156 C 1665.820312 2119.535156 1642.988281 2096.710938 1642.988281 2068.511719 L 1642.988281 2034.8125 L 1609.320312 2034.8125 C 1581.121094 2034.8125 1558.289062 2011.980469 1558.289062 1983.789062 Z M 1941.960938 2178.140625 C 1941.960938 2206.328125 1964.800781 2229.164062 1992.988281 2229.164062 C 2021.160156 2229.164062 2044.011719 2206.300781 2044.011719 2178.140625 L 2044.011719 2144.441406 L 2077.71875 2144.441406 C 2105.910156 2144.441406 2128.738281 2121.605469 2128.738281 2093.410156 C 2128.738281 2065.21875 2105.910156 2042.386719 2077.71875 2042.386719 L 2044.011719 2042.386719 L 2044.011719 2008.71875 C 2044.011719 1980.519531 2021.191406 1957.695312 1992.988281 1957.695312 C 1964.800781 1957.695312 1941.960938 1980.519531 1941.960938 2008.71875 L 1941.960938 2042.386719 L 1908.300781 2042.386719 C 1880.101562 2042.386719 1857.269531 2065.21875 1857.269531 2093.410156 C 1857.269531 2121.605469 1880.101562 2144.441406 1908.300781 2144.441406 L 1941.960938 2144.441406 L 1941.960938 2178.140625 "/>
    <path fill-rule="evenodd" fill="rgb(50.193787%, 50.193787%, 50.193787%)" fill-opacity="1"
          d="M 760.972656 1390.519531 C 721.285156 1360.175781 671.910156 1343.46875 621.921875 1343.46875 C 495.683594 1343.46875 393 1446.164062 393 1572.386719 C 393 1668.191406 449.289062 1746.378906 547.460938 1786.855469 C 659.429688 1833.023438 827.726562 1824.546875 932.78125 1718.84375 L 936.027344 1715.425781 L 936.59375 1714.859375 C 960.113281 1690.277344 979.113281 1661.863281 993.140625 1630.242188 C 1069.308594 1458.96875 1021.609375 1304.738281 985.03125 1226.128906 L 828.421875 1385.746094 C 810.355469 1404.132812 781.464844 1406.207031 760.972656 1390.519531 "/>
</svg>
