<?xml version="1.0" encoding="UTF-8"?>
<svg xmlns="http://www.w3.org/2000/svg" xmlns:xlink="http://www.w3.org/1999/xlink" width="3001" height="3000"
     viewBox="0 0 3001 3000">
    <path fill-rule="evenodd" fill="rgb(0%, 0%, 0.78125%)" fill-opacity="1"
          d="M 1218.929688 966.730469 C 1122.628906 966.730469 1044.308594 888.390625 1044.308594 792.109375 C 1044.308594 695.820312 1122.648438 617.480469 1218.929688 617.480469 C 1315.210938 617.480469 1393.550781 695.820312 1393.550781 792.109375 C 1393.550781 888.390625 1315.199219 966.730469 1218.929688 966.730469 Z M 1218.929688 686.191406 C 1160.53125 686.191406 1113.011719 733.71875 1113.011719 792.109375 C 1113.011719 850.511719 1160.53125 898.03125 1218.929688 898.03125 C 1277.328125 898.03125 1324.851562 850.511719 1324.851562 792.109375 C 1324.851562 733.71875 1277.328125 686.191406 1218.929688 686.191406 "/>
    <path fill-rule="evenodd" fill="rgb(0%, 0%, 0.78125%)" fill-opacity="1"
          d="M 1218.929688 1247.261719 C 1122.628906 1247.261719 1044.308594 1168.921875 1044.308594 1072.640625 C 1044.308594 976.359375 1122.648438 898.019531 1218.929688 898.019531 C 1315.210938 898.019531 1393.550781 976.359375 1393.550781 1072.640625 C 1393.550781 1168.921875 1315.199219 1247.261719 1218.929688 1247.261719 Z M 1218.929688 966.730469 C 1160.53125 966.730469 1113.011719 1014.25 1113.011719 1072.648438 C 1113.011719 1131.039062 1160.53125 1178.570312 1218.929688 1178.570312 C 1277.328125 1178.570312 1324.851562 1131.039062 1324.851562 1072.648438 C 1324.851562 1014.25 1277.328125 966.730469 1218.929688 966.730469 "/>
    <path fill-rule="evenodd" fill="rgb(0%, 0%, 0.78125%)" fill-opacity="1"
          d="M 2411.28125 2999.988281 L 590.6875 2999.988281 C 265.546875 2999.988281 1 2735.441406 1 2410.273438 L 1 589.710938 C 1 264.558594 265.527344 0.0195312 590.6875 0.0195312 L 2411.28125 0.0195312 C 2736.441406 0.0195312 3001 264.539062 3001 589.710938 L 3001 2410.300781 C 3000.96875 2735.460938 2736.429688 2999.988281 2411.28125 2999.988281 Z M 590.6875 68.71875 C 303.429688 68.71875 69.703125 302.421875 69.703125 589.710938 L 69.703125 2410.300781 C 69.703125 2697.585938 303.402344 2931.289062 590.6875 2931.289062 L 2411.28125 2931.289062 C 2698.570312 2931.289062 2932.269531 2697.585938 2932.269531 2410.300781 L 2932.269531 589.710938 C 2932.269531 302.449219 2698.570312 68.71875 2411.28125 68.71875 L 590.6875 68.71875 "/>
    <path fill-rule="evenodd" fill="rgb(0%, 0%, 0.78125%)" fill-opacity="1"
          d="M 2966.621094 856.660156 L 2312.238281 856.660156 C 2150.71875 856.660156 2019.351562 725.269531 2019.351562 563.769531 L 2019.351562 34.371094 C 2019.351562 15.410156 2034.761719 0.0195312 2053.699219 0.0195312 C 2072.640625 0.0195312 2088.050781 15.410156 2088.050781 34.371094 L 2088.050781 563.75 C 2088.050781 687.371094 2188.628906 787.941406 2312.21875 787.941406 L 2966.601562 787.941406 C 2985.558594 787.941406 3000.949219 803.328125 3000.949219 822.289062 C 3000.949219 841.25 2985.589844 856.660156 2966.621094 856.660156 "/>
    <path fill-rule="evenodd" fill="rgb(0%, 0%, 0.78125%)" fill-opacity="1"
          d="M 2315.03125 2569.214844 L 686.945312 2569.214844 C 667.984375 2569.214844 652.59375 2553.808594 652.59375 2534.863281 C 652.59375 2515.921875 667.984375 2500.511719 686.945312 2500.511719 L 2315.03125 2500.511719 C 2333.988281 2500.511719 2349.378906 2515.921875 2349.378906 2534.863281 C 2349.378906 2553.808594 2334 2569.214844 2315.03125 2569.214844 "/>
    <path fill-rule="evenodd" fill="rgb(0%, 0%, 0.78125%)" fill-opacity="1"
          d="M 777.039062 1247.261719 C 774.082031 1247.261719 771.097656 1246.878906 768.113281 1246.089844 C 749.765625 1241.171875 738.910156 1222.328125 743.808594 1204.011719 L 882.570312 686.171875 L 592.167969 686.179688 L 592.167969 767.300781 C 592.167969 786.261719 576.777344 801.648438 557.816406 801.648438 C 538.855469 801.648438 523.464844 786.261719 523.464844 767.300781 L 523.464844 651.828125 C 523.464844 632.871094 538.855469 617.46875 557.816406 617.46875 L 927.355469 617.46875 C 938.039062 617.46875 948.109375 622.421875 954.617188 630.898438 C 961.109375 639.371094 963.300781 650.390625 960.558594 660.699219 L 810.226562 1221.761719 C 806.097656 1237.140625 792.214844 1247.261719 777.039062 1247.261719 "/>
    <path fill-rule="evenodd" fill="rgb(0%, 0%, 0.78125%)" fill-opacity="1"
          d="M 1267.71875 2089.519531 L 1044 2089.519531 C 1025.039062 2089.519531 1009.648438 2074.113281 1009.648438 2055.171875 L 1009.648438 1607.730469 C 1009.648438 1588.761719 1025.039062 1573.371094 1044 1573.371094 L 1267.71875 1573.371094 C 1410.011719 1573.371094 1525.800781 1689.171875 1525.800781 1831.441406 C 1525.769531 1973.761719 1410.011719 2089.519531 1267.71875 2089.519531 Z M 1078.328125 2020.820312 L 1267.691406 2020.820312 C 1372.101562 2020.820312 1457.050781 1935.871094 1457.050781 1831.460938 C 1457.050781 1727.039062 1372.101562 1642.089844 1267.691406 1642.089844 L 1078.328125 1642.101562 L 1078.328125 2020.820312 "/>
    <path fill-rule="evenodd" fill="rgb(0%, 0%, 0.78125%)" fill-opacity="1"
          d="M 1958.019531 2403.546875 L 1852.128906 2403.546875 C 1774.820312 2403.546875 1711.890625 2340.613281 1711.890625 2263.304688 L 1711.890625 1828 C 1711.890625 1809.039062 1727.300781 1793.648438 1746.238281 1793.648438 C 1765.179688 1793.648438 1780.589844 1809.058594 1780.589844 1828 L 1780.589844 2263.304688 C 1780.589844 2302.738281 1812.679688 2334.816406 1852.101562 2334.816406 L 1957.96875 2334.816406 C 1976.929688 2334.816406 1992.320312 2350.226562 1992.320312 2369.167969 C 1992.320312 2388.109375 1976.980469 2403.546875 1958.019531 2403.546875 "/>
    <path fill-rule="evenodd" fill="rgb(0%, 0%, 0.78125%)" fill-opacity="1"
          d="M 1893.328125 2177.046875 L 1746.269531 2177.046875 C 1727.308594 2177.046875 1711.910156 2161.640625 1711.910156 2142.695312 C 1711.910156 2123.753906 1727.320312 2108.347656 1746.269531 2108.347656 L 1893.328125 2108.347656 C 1912.289062 2108.347656 1927.679688 2123.753906 1927.679688 2142.695312 C 1927.679688 2161.640625 1912.289062 2177.046875 1893.328125 2177.046875 "/>
    <path fill-rule="evenodd" fill="rgb(50.976562%, 78.125%, 92.1875%)" fill-opacity="1"
          d="M 2088.050781 563.75 C 2088.050781 687.359375 2188.621094 787.941406 2312.21875 787.941406 L 2932.269531 787.941406 L 2932.269531 589.710938 C 2932.269531 302.441406 2698.570312 68.71875 2411.28125 68.71875 L 2088.050781 68.71875 L 2088.050781 563.75 "/>
    <path fill-rule="evenodd" fill="rgb(74.021912%, 87.109375%, 100%)" fill-opacity="1"
          d="M 1324.851562 1072.640625 C 1324.851562 1014.25 1277.328125 966.71875 1218.929688 966.71875 C 1160.539062 966.71875 1113.011719 1014.25 1113.011719 1072.640625 C 1113.011719 1131.039062 1160.539062 1178.558594 1218.929688 1178.558594 C 1277.328125 1178.558594 1324.851562 1131.039062 1324.851562 1072.640625 "/>
    <path fill-rule="evenodd" fill="rgb(74.021912%, 87.109375%, 100%)" fill-opacity="1"
          d="M 1220.300781 898.03125 C 1278.058594 897.289062 1324.851562 850.050781 1324.851562 792.109375 C 1324.851562 733.71875 1277.328125 686.191406 1218.929688 686.191406 C 1160.539062 686.191406 1113.011719 733.71875 1113.011719 792.109375 C 1113.011719 850.050781 1159.800781 897.289062 1217.570312 898.03125 C 1218.03125 898.019531 1218.480469 898.019531 1218.929688 898.03125 C 1219.390625 898.03125 1219.839844 898.03125 1220.300781 898.03125 "/>
    <path fill-rule="evenodd" fill="rgb(74.021912%, 87.109375%, 100%)" fill-opacity="1"
          d="M 1457.050781 1831.460938 C 1457.050781 1727.039062 1372.109375 1642.089844 1267.691406 1642.089844 L 1078.328125 1642.109375 L 1078.328125 2020.816406 L 1267.691406 2020.816406 C 1372.109375 2020.816406 1457.050781 1935.871094 1457.050781 1831.460938 "/>
    <path fill-rule="evenodd" fill="rgb(74.021912%, 87.109375%, 100%)" fill-opacity="1"
          d="M 1009.648438 2054.042969 L 1009.640625 2054.121094 L 1009.640625 2054.867188 L 1009.628906 2055.171875 L 1009.628906 2369.199219 C 1009.628906 2388.140625 1025.011719 2403.542969 1043.980469 2403.542969 C 1062.941406 2403.542969 1078.328125 2388.140625 1078.328125 2369.171875 L 1078.328125 2089.519531 L 1267.71875 2089.519531 C 1410.011719 2089.519531 1525.769531 1973.761719 1525.800781 1831.441406 C 1525.800781 1689.171875 1410.011719 1573.371094 1267.71875 1573.371094 L 1044 1573.371094 C 1025.039062 1573.371094 1009.648438 1588.761719 1009.648438 1607.730469 Z M 686.945312 2500.515625 L 2315.03125 2500.515625 C 2333.988281 2500.515625 2349.378906 2515.921875 2349.378906 2534.859375 C 2349.378906 2553.808594 2334 2569.214844 2315.03125 2569.214844 L 686.945312 2569.214844 C 667.984375 2569.214844 652.59375 2553.808594 652.59375 2534.859375 C 652.59375 2515.921875 667.984375 2500.515625 686.945312 2500.515625 Z M 590.6875 2931.289062 L 2411.28125 2931.289062 C 2698.570312 2931.289062 2932.269531 2697.585938 2932.269531 2410.300781 L 2932.269531 856.660156 L 2312.238281 856.660156 C 2150.71875 856.660156 2019.351562 725.269531 2019.351562 563.761719 L 2019.351562 68.71875 L 590.6875 68.71875 C 303.429688 68.71875 69.703125 302.421875 69.703125 589.710938 L 69.703125 2410.300781 C 69.703125 2697.585938 303.402344 2931.289062 590.6875 2931.289062 Z M 1393.550781 1072.640625 C 1393.550781 1168.921875 1315.199219 1247.261719 1218.929688 1247.261719 C 1122.628906 1247.261719 1044.308594 1168.921875 1044.308594 1072.640625 C 1044.308594 1015.238281 1072.148438 964.21875 1115.039062 932.371094 C 1072.140625 900.519531 1044.308594 849.511719 1044.308594 792.109375 C 1044.308594 695.820312 1122.648438 617.480469 1218.929688 617.480469 C 1315.210938 617.480469 1393.550781 695.820312 1393.550781 792.109375 C 1393.550781 849.5 1365.710938 900.519531 1322.820312 932.371094 C 1365.710938 964.21875 1393.550781 1015.238281 1393.550781 1072.640625 Z M 1711.890625 2263.308594 L 1711.921875 2142.695312 L 1711.890625 1828.011719 C 1711.890625 1809.039062 1727.289062 1793.648438 1746.238281 1793.648438 C 1765.179688 1793.648438 1780.589844 1809.058594 1780.589844 1828.011719 L 1780.589844 2108.347656 L 1893.320312 2108.347656 C 1912.289062 2108.347656 1927.679688 2123.753906 1927.679688 2142.695312 C 1927.679688 2161.636719 1912.289062 2177.050781 1893.320312 2177.050781 L 1780.589844 2177.050781 L 1780.589844 2263.308594 C 1780.589844 2302.738281 1812.679688 2334.816406 1852.109375 2334.816406 L 1957.96875 2334.816406 C 1976.929688 2334.816406 1992.320312 2350.230469 1992.320312 2369.171875 C 1992.320312 2388.109375 1976.988281 2403.542969 1958.019531 2403.542969 L 1852.128906 2403.542969 C 1774.820312 2403.542969 1711.890625 2340.617188 1711.890625 2263.308594 Z M 777.042969 1247.261719 C 774.082031 1247.261719 771.097656 1246.878906 768.117188 1246.089844 C 749.769531 1241.171875 738.910156 1222.328125 743.804688 1204.011719 L 882.574219 686.171875 L 592.167969 686.171875 L 592.167969 767.300781 C 592.167969 786.269531 576.777344 801.648438 557.816406 801.648438 C 538.859375 801.648438 523.46875 786.269531 523.46875 767.300781 L 523.46875 651.828125 C 523.46875 632.871094 538.859375 617.46875 557.816406 617.46875 L 927.355469 617.46875 C 938.035156 617.46875 948.113281 622.421875 954.617188 630.898438 C 961.109375 639.359375 963.304688 650.390625 960.5625 660.699219 L 810.226562 1221.761719 C 806.097656 1237.140625 792.214844 1247.261719 777.042969 1247.261719 "/>
    <path fill-rule="evenodd" fill="rgb(0%, 0%, 0.78125%)" fill-opacity="1"
          d="M 1043.980469 2403.546875 C 1025.019531 2403.546875 1009.628906 2388.136719 1009.628906 2369.195312 L 1009.628906 2055.171875 C 1009.628906 2036.210938 1025.019531 2020.820312 1043.980469 2020.820312 C 1062.941406 2020.820312 1078.328125 2036.226562 1078.328125 2055.171875 L 1078.328125 2369.167969 C 1078.328125 2388.136719 1062.949219 2403.546875 1043.980469 2403.546875 "/>
</svg>
