<?xml version="1.0" encoding="UTF-8"?>
<svg xmlns="http://www.w3.org/2000/svg" xmlns:xlink="http://www.w3.org/1999/xlink" width="2001" height="2000"
     viewBox="0 0 2001 2000">
    <path fill-rule="evenodd" fill="rgb(59.959412%, 39.988708%, 19.993591%)" fill-opacity="1"
          d="M 1 0 L 2001 0 L 2001 2000 L 1 2000 L 1 0 "/>
    <path fill-rule="nonzero" fill="rgb(85.9375%, 63.084412%, 32.93457%)" fill-opacity="1"
          d="M 250.71875 51.300781 C 262.046875 51.050781 283.339844 49.578125 290.632812 52.769531 C 497.683594 55 682.015625 40.550781 840.554688 8.390625 C 849.878906 6.511719 870.027344 3.488281 893.304688 0 L 869.722656 0 C 867.988281 0.359375 866.386719 0.679688 864.953125 1.011719 C 782.207031 18.980469 687.253906 24.558594 596.644531 39.460938 C 538.023438 49.089844 262.128906 46.570312 250.71875 51.300781 "/>
    <path fill-rule="nonzero" fill="rgb(85.9375%, 63.084412%, 32.93457%)" fill-opacity="1"
          d="M 301.722656 17.269531 C 383.070312 18.160156 532.882812 12.890625 623.734375 0 L 381.964844 0 C 335.289062 1.5 287.585938 1.660156 240.890625 0 L 51.058594 0 C 85.375 3.21875 119.9375 6.320312 153.148438 11.359375 C 189.949219 16.941406 281.984375 9 301.722656 17.269531 "/>
    <path fill-rule="nonzero" fill="rgb(85.9375%, 63.084412%, 32.93457%)" fill-opacity="1"
          d="M 1729.75 29.101562 C 1652.238281 33.441406 1574.089844 29.828125 1496.921875 40.941406 C 1431.140625 49.308594 1365.351562 57.699219 1299.570312 66.078125 C 1082.300781 98.480469 870.074219 146.351562 647.644531 160.730469 C 558.140625 166.511719 389.304688 174.578125 301.722656 168.128906 C 230.046875 162.851562 154.632812 160.851562 80.789062 155.78125 L 80.789062 159.699219 L 72.976562 159.699219 C 214.613281 171.269531 375.25 178.71875 459.144531 172.558594 C 507.109375 169.039062 582.511719 169.988281 636.554688 166.640625 C 838.964844 154.101562 1084.140625 111.488281 1277.398438 74.949219 C 1383.71875 54.851562 1652.171875 27.699219 1771.878906 36.511719 C 1825.78125 40.449219 1890.820312 39.648438 1947.078125 43.898438 C 1965.078125 45.25 1983.058594 46.828125 2001 48.558594 L 2001 43.589844 C 1899.671875 33.730469 1785.398438 26 1729.75 29.101562 "/>
    <path fill-rule="nonzero" fill="rgb(85.9375%, 63.084412%, 32.93457%)" fill-opacity="1"
          d="M 1820.679688 58.691406 C 1773.671875 58.480469 1694.609375 51.980469 1649.929688 58.691406 C 1600.820312 66.050781 1431.839844 69.550781 1317.308594 91.21875 C 1204.800781 112.511719 1087.789062 127.730469 975.8125 148.898438 C 906.417969 162.019531 482.785156 209.988281 390.40625 196.238281 C 342.769531 189.128906 277.40625 196.390625 224.105469 190.308594 C 161.28125 185.378906 98.429688 180.460938 35.621094 175.519531 C 24.054688 174.390625 12.542969 173.050781 1 171.839844 L 1 187.980469 C 151.074219 204.449219 466.589844 224.160156 581.117188 211.019531 C 686.054688 198.949219 791.910156 195 896 178.46875 C 1127.058594 141.828125 1567.570312 55.949219 1805.148438 73.480469 C 1868.070312 78.121094 1935.679688 79.539062 2001 84.28125 L 2001 70.910156 C 1933.628906 63.871094 1869.640625 58.890625 1820.679688 58.691406 "/>
    <path fill-rule="nonzero" fill="rgb(85.9375%, 63.084412%, 32.93457%)" fill-opacity="1"
          d="M 1831.75 85.308594 C 1784.980469 84.980469 1702.808594 78.699219 1658.800781 85.308594 C 1599.109375 94.261719 1534.691406 88.929688 1476.96875 98.621094 C 1321.648438 121.710938 1163.238281 141.679688 1011.308594 172.558594 C 906.796875 193.800781 799.714844 199.648438 689.765625 216.941406 C 624.683594 227.160156 335.140625 229.898438 261.804688 221.371094 C 175.683594 211.351562 89.929688 205.328125 1 197.011719 L 1 207.988281 C 116.511719 220.769531 294.003906 237.339844 363.800781 237.640625 C 419.847656 237.871094 531.835938 245.398438 583.328125 237.640625 C 662.097656 225.769531 782.054688 225.058594 902.644531 202.148438 C 1000.171875 183.601562 1101.46875 168.558594 1197.570312 148.898438 C 1293.550781 129.269531 1538.480469 97.558594 1638.851562 95.660156 C 1701.320312 94.46875 1841.789062 87.960938 1902.71875 97.128906 C 1924.121094 100.351562 1959.210938 103.339844 2001 106.789062 L 2001 96.550781 C 1937.871094 90.128906 1878.121094 85.628906 1831.75 85.308594 "/>
    <path fill-rule="nonzero" fill="rgb(85.9375%, 63.084412%, 32.93457%)" fill-opacity="1"
          d="M 281.753906 339.679688 C 274.894531 336.621094 270.78125 330.839844 264.007812 327.851562 C 242.667969 318.398438 108.222656 288.570312 1 268.039062 L 1 275.621094 C 79.046875 291.75 161.054688 303.070312 213.011719 336.730469 C 213.011719 370.171875 96.640625 387.25 1 396.859375 L 1 398.019531 L 52.53125 398.019531 L 52.664062 399.640625 C 167.957031 387.511719 263.621094 371.019531 279.535156 350.039062 C 281.867188 347.75 281.828125 343.988281 281.753906 339.679688 "/>
    <path fill-rule="nonzero" fill="rgb(85.9375%, 63.084412%, 32.93457%)" fill-opacity="1"
          d="M 1499.148438 438.769531 C 1440.640625 434.019531 1249.75 432.511719 1173.171875 426.941406 C 1051.320312 418.078125 591.371094 391.679688 483.542969 407.71875 C 425.546875 416.351562 206.566406 428.488281 55.695312 437.269531 L 56.640625 449 C 173.738281 443.871094 289.515625 436.539062 397.066406 426.941406 C 527.214844 415.320312 821.074219 413.238281 964.746094 425.460938 C 1028.179688 430.859375 1242.820312 431.539062 1321.738281 437.300781 C 1367.289062 440.609375 1786.839844 451.921875 2001 455.578125 L 2001 450.921875 C 1801.070312 449.460938 1590.140625 446.171875 1499.148438 438.769531 "/>
    <path fill-rule="nonzero" fill="rgb(85.9375%, 63.084412%, 32.93457%)" fill-opacity="1"
          d="M 1137.691406 471.308594 C 855.738281 470.429688 571.492188 468.800781 290.632812 489.050781 C 220.523438 494.121094 141.699219 496.210938 60.488281 496.78125 L 61.789062 512.898438 L 64.445312 512.71875 C 111.148438 509.398438 362.3125 509.460938 441.421875 502.371094 C 710.992188 478.230469 1375.421875 487.648438 1665.449219 490.539062 C 1694.539062 490.828125 1857.730469 492.460938 2001 494.730469 L 2001 484.78125 C 1713.328125 478.25 1426.21875 472.210938 1137.691406 471.308594 "/>
    <path fill-rule="nonzero" fill="rgb(85.9375%, 63.084412%, 32.93457%)" fill-opacity="1"
          d="M 1144.351562 500.890625 C 1110.101562 505.828125 1063.839844 497.019531 1026.820312 502.371094 C 915.234375 511.78125 655.429688 508.910156 519.03125 518.640625 C 433.371094 524.738281 231.769531 531.03125 63.367188 532.46875 L 63.554688 534.800781 L 1 534.800781 L 1 557.558594 C 117.183594 561.449219 222.800781 563.039062 264.007812 557.089844 C 282.316406 554.449219 610.863281 547.789062 658.726562 543.769531 C 818.898438 530.371094 1118.21875 533.230469 1237.480469 523.070312 C 1330.070312 515.191406 1775.070312 523.558594 2001 528.230469 L 2001 510.28125 C 1668.839844 502.578125 1236.179688 494.339844 1144.351562 500.890625 "/>
    <path fill-rule="nonzero" fill="rgb(85.9375%, 63.084412%, 32.93457%)" fill-opacity="1"
          d="M 1931 551.898438 C 1704.460938 546.980469 1409.789062 543.300781 1337.261719 549.699219 C 1225.230469 559.570312 847.125 562.691406 687.550781 576.328125 C 593.097656 584.378906 182.976562 603.308594 108.804688 592.601562 C 97.394531 590.941406 52.121094 589.410156 1 588.078125 L 1 601.539062 C 141.339844 606.359375 353.671875 603.890625 452.496094 599.96875 C 494.535156 598.308594 1004.46875 571.640625 1033.480469 567.441406 C 1096.789062 558.269531 1773.621094 550.800781 1906.199219 557.140625 C 1852.371094 568.46875 1798.46875 578.878906 1744.328125 585.359375 C 1630.441406 599.03125 1515.289062 583.738281 1401.398438 575.621094 C 1282.339844 567.210938 1164.511719 576.011719 1045.539062 583.890625 C 823.691406 598.621094 601.847656 592.03125 380.050781 610.410156 C 253.464844 620.921875 127.707031 624.421875 1 624.96875 L 1 656.679688 C 7.015625 656.410156 13.058594 656.230469 19.1875 656.210938 C 118.78125 655.769531 217.832031 653.910156 317.347656 646.128906 C 556.546875 627.449219 795.546875 630.230469 1034.761719 615.269531 C 1259.648438 601.191406 1483.359375 630.578125 1707.828125 619.078125 C 1806.46875 613.988281 1903.75 590.910156 2001 569.75 L 2001 536.890625 C 1977.671875 541.851562 1954.339844 546.890625 1931 551.898438 "/>
    <path fill-rule="nonzero" fill="rgb(85.9375%, 63.084412%, 32.93457%)" fill-opacity="1"
          d="M 685.558594 0 C 526.242188 22.53125 316.503906 30.089844 164.230469 18.761719 C 104.390625 14.308594 50.496094 7.140625 2.371094 0 L 1 0 L 1 25.859375 C 69.929688 33.179688 148.929688 39.710938 201.925781 42.410156 C 211.546875 41.929688 221.152344 41.429688 230.757812 40.941406 C 245.597656 42.070312 236.683594 46.519531 257.359375 42.410156 C 259.164062 42.050781 326.160156 45.949219 328.320312 46.851562 C 353.230469 47.140625 379.886719 45.460938 399.28125 42.410156 C 410.375 43.398438 421.453125 44.390625 432.550781 45.371094 C 450.242188 44.980469 428.246094 40 459.144531 42.410156 C 519.757812 47.160156 715.039062 16.839844 776.253906 11.359375 C 797.90625 9.421875 821.515625 5.011719 844.605469 0 L 685.558594 0 "/>
    <path fill-rule="nonzero" fill="rgb(85.9375%, 63.084412%, 32.93457%)" fill-opacity="1"
          d="M 13.445312 35.011719 C 19.050781 35.140625 21.6875 35.199219 24.527344 36.5 C 31.382812 36.640625 38.570312 36.710938 42.265625 35.011719 C 32.558594 34.539062 20.996094 31.730469 13.445312 35.011719 "/>
    <path fill-rule="nonzero" fill="rgb(85.9375%, 63.084412%, 32.93457%)" fill-opacity="1"
          d="M 71.097656 37.96875 C 63.027344 37.191406 49.496094 34.761719 42.265625 37.96875 C 47.886719 38.089844 50.515625 38.148438 53.359375 39.460938 C 60.210938 39.601562 67.394531 39.660156 71.097656 37.96875 "/>
    <path fill-rule="nonzero" fill="rgb(85.9375%, 63.084412%, 32.93457%)" fill-opacity="1"
          d="M 108.789062 40.941406 C 102.359375 40.851562 96.664062 40.871094 93.277344 42.410156 C 99.703125 42.511719 105.390625 42.488281 108.789062 40.941406 "/>
    <path fill-rule="nonzero" fill="rgb(85.9375%, 63.084412%, 32.93457%)" fill-opacity="1"
          d="M 113.222656 43.898438 C 118.851562 44 121.46875 44.070312 124.3125 45.371094 C 132.464844 45.578125 144 46.019531 148.710938 43.898438 C 137.109375 43.550781 121.824219 40.171875 113.222656 43.898438 "/>
    <path fill-rule="nonzero" fill="rgb(85.9375%, 63.084412%, 32.93457%)" fill-opacity="1"
          d="M 148.710938 46.851562 C 154.734375 46.859375 158.902344 46.800781 162.015625 45.371094 C 155.988281 45.371094 151.820312 45.429688 148.710938 46.851562 "/>
    <path fill-rule="nonzero" fill="rgb(85.9375%, 63.084412%, 32.93457%)" fill-opacity="1"
          d="M 164.230469 46.851562 C 187.132812 48.328125 210.066406 49.808594 232.980469 51.300781 C 239.308594 51.191406 242.464844 50.710938 246.28125 49.808594 L 246.28125 48.328125 C 230.644531 48.328125 173.804688 42.671875 164.230469 46.851562 "/>
    <path fill-rule="nonzero" fill="rgb(85.9375%, 63.084412%, 32.93457%)" fill-opacity="1"
          d="M 1712.019531 120.800781 C 1729.351562 121 1785.988281 123.71875 1796.28125 119.320312 C 1778.960938 119.121094 1722.308594 116.398438 1712.019531 120.800781 "/>
    <path fill-rule="nonzero" fill="rgb(85.9375%, 63.084412%, 32.93457%)" fill-opacity="1"
          d="M 1590.050781 126.71875 L 1594.488281 126.71875 L 1594.488281 125.230469 C 1590.589844 126.171875 1592.339844 125.519531 1590.050781 126.71875 "/>
    <path fill-rule="nonzero" fill="rgb(85.9375%, 63.084412%, 32.93457%)" fill-opacity="1"
          d="M 1521.320312 132.628906 L 1525.75 132.628906 L 1525.75 131.148438 C 1521.859375 132.078125 1523.601562 131.441406 1521.320312 132.628906 "/>
    <path fill-rule="nonzero" fill="rgb(85.9375%, 63.084412%, 32.93457%)" fill-opacity="1"
          d="M 1479.191406 137.070312 L 1483.621094 137.070312 L 1483.621094 135.589844 C 1479.730469 136.519531 1481.460938 135.871094 1479.191406 137.070312 "/>
    <path fill-rule="nonzero" fill="rgb(85.9375%, 63.084412%, 32.93457%)" fill-opacity="1"
          d="M 1474.75 137.070312 C 1469.128906 137.179688 1466.511719 137.25 1463.671875 138.550781 C 1469.28125 138.449219 1471.910156 138.378906 1474.75 137.070312 "/>
    <path fill-rule="nonzero" fill="rgb(85.9375%, 63.084412%, 32.93457%)" fill-opacity="1"
          d="M 1437.039062 141.5 C 1431.878906 141.789062 1430.78125 141.789062 1428.179688 142.980469 C 1433.351562 142.699219 1434.441406 142.699219 1437.039062 141.5 "/>
    <path fill-rule="nonzero" fill="rgb(85.9375%, 63.084412%, 32.93457%)" fill-opacity="1"
          d="M 1428.179688 142.980469 C 1423.019531 143.269531 1421.910156 143.269531 1419.308594 144.449219 C 1424.46875 144.171875 1425.570312 144.179688 1428.179688 142.980469 "/>
    <path fill-rule="nonzero" fill="rgb(85.9375%, 63.084412%, 32.93457%)" fill-opacity="1"
          d="M 1419.308594 144.449219 C 1405.878906 144.359375 1385.609375 146.148438 1377.179688 150.378906 C 1390.089844 150.320312 1410.769531 148.570312 1419.308594 144.449219 "/>
    <path fill-rule="nonzero" fill="rgb(85.9375%, 63.084412%, 32.93457%)" fill-opacity="1"
          d="M 1508.011719 197.699219 L 1512.449219 197.699219 C 1512.449219 197.21875 1512.449219 196.71875 1512.449219 196.21875 C 1508.570312 197.160156 1510.28125 196.511719 1508.011719 197.699219 "/>
    <path fill-rule="nonzero" fill="rgb(85.9375%, 63.084412%, 32.93457%)" fill-opacity="1"
          d="M 1505.800781 197.699219 C 1500.628906 198 1499.53125 197.988281 1496.921875 199.191406 C 1502.078125 198.898438 1503.191406 198.898438 1505.800781 197.699219 "/>
    <path fill-rule="nonzero" fill="rgb(85.9375%, 63.084412%, 32.93457%)" fill-opacity="1"
          d="M 1228.609375 203.621094 L 1233.050781 203.621094 C 1233.050781 203.128906 1233.039062 202.628906 1233.050781 202.148438 C 1229.160156 203.070312 1230.890625 202.421875 1228.609375 203.621094 "/>
    <path fill-rule="nonzero" fill="rgb(85.9375%, 63.084412%, 32.93457%)" fill-opacity="1"
          d="M 1226.390625 203.621094 C 1222.5 204.539062 1224.238281 203.898438 1221.960938 205.101562 C 1223.441406 205.101562 1224.910156 205.101562 1226.390625 205.101562 L 1226.390625 203.621094 "/>
    <path fill-rule="nonzero" fill="rgb(85.9375%, 63.084412%, 32.93457%)" fill-opacity="1"
          d="M 652.070312 277.570312 C 547.234375 285.671875 344.359375 284.101562 239.625 267.230469 C 160.554688 254.46875 80.441406 245.941406 1 236.628906 L 1 243.261719 C 132.710938 265.191406 270.425781 274.410156 403.710938 290.871094 C 419.980469 293.351562 442.300781 288.609375 454.726562 293.828125 C 740.023438 297.960938 921.367188 242.570312 1131.039062 196.238281 C 1156.050781 190.699219 1371.238281 153.25 1377.179688 150.378906 C 1291.941406 151.011719 818.6875 264.710938 652.070312 277.570312 "/>
    <path fill-rule="nonzero" fill="rgb(85.9375%, 63.084412%, 32.93457%)" fill-opacity="1"
          d="M 2001 310.058594 C 1955.5 312.699219 1894.550781 313.898438 1815.289062 313.050781 C 1811.53125 311.808594 1419.628906 292.089844 1676.800781 251.570312 C 1782.308594 234.949219 1910.949219 239.851562 2001 252.328125 L 2001 248.640625 C 1904.351562 236.378906 1771.878906 232.21875 1662.410156 249.460938 C 1383.980469 293.328125 1808.269531 314.671875 1812.339844 316.011719 C 1891.160156 316.878906 1953.238281 315.839844 2001 313.460938 L 2001 310.058594 "/>
    <path fill-rule="nonzero" fill="rgb(85.9375%, 63.084412%, 32.93457%)" fill-opacity="1"
          d="M 2001 336.710938 C 1939.820312 338.839844 1875.640625 338.03125 1820.679688 338.199219 C 1812.800781 335.160156 1478.640625 326.648438 1510.230469 274.609375 C 1543.171875 220.328125 1806.230469 210.769531 2001 231.089844 L 2001 222 C 1861.539062 208.210938 1702.800781 207.328125 1612.230469 224.328125 C 1575.121094 231.289062 1416.558594 254.121094 1459.230469 293.828125 C 1492.820312 325.101562 1653.890625 337.421875 1709.800781 342.640625 C 1760.789062 344.621094 1811.800781 346.578125 1862.808594 348.558594 C 1903.339844 348.910156 1951.609375 348.851562 2001 347.308594 L 2001 336.710938 "/>
    <path fill-rule="nonzero" fill="rgb(85.9375%, 63.084412%, 32.93457%)" fill-opacity="1"
          d="M 2001 354.089844 C 1919.359375 355.640625 1843.800781 354.5 1805.148438 354.46875 C 1788 347.71875 1453.339844 351.558594 1417.089844 290.878906 C 1417.390625 236.089844 1549.929688 227.210938 1621.101562 215.449219 C 1736.691406 196.371094 1878.28125 200.808594 2001 214.609375 L 2001 203.261719 C 1624.449219 166.078125 1262.679688 255.441406 1368.308594 308.628906 C 1460.878906 355.230469 1687.5 359.730469 1809.578125 364.820312 C 1865.738281 364.820312 1932.128906 365.519531 2001 364.730469 L 2001 354.089844 "/>
    <path fill-rule="nonzero" fill="rgb(85.9375%, 63.084412%, 32.93457%)" fill-opacity="1"
          d="M 1432.621094 363.339844 C 1449.839844 366.230469 1490.839844 363.941406 1503.578125 369.269531 C 1510.851562 369.429688 1519.511719 369.609375 1523.53125 367.789062 C 1481.101562 368 1271.148438 340.621094 1248.570312 301.230469 C 1249.519531 249.320312 1373.441406 226.039062 1434.828125 211.019531 C 1453.460938 206.460938 1480.160156 206.800781 1494.710938 199.179688 C 1434.640625 201.109375 1241.558594 250.558594 1217.53125 286.441406 C 1212.738281 342.761719 1359.25 351.058594 1432.621094 363.339844 "/>
    <path fill-rule="nonzero" fill="rgb(85.9375%, 63.084412%, 32.93457%)" fill-opacity="1"
          d="M 1541.269531 369.25 C 1534.421875 369.121094 1527.230469 369.050781 1523.53125 370.730469 C 1530.390625 370.890625 1537.570312 370.949219 1541.269531 369.25 "/>
    <path fill-rule="nonzero" fill="rgb(85.9375%, 63.084412%, 32.93457%)" fill-opacity="1"
          d="M 1603.371094 376.648438 C 1603.371094 375.660156 1603.371094 374.691406 1603.371094 373.699219 C 1592.25 373.699219 1570.988281 369.058594 1561.230469 373.699219 C 1570.671875 373.621094 1588.121094 373.78125 1594.488281 376.648438 L 1603.371094 376.648438 "/>
    <path fill-rule="nonzero" fill="rgb(85.9375%, 63.084412%, 32.93457%)" fill-opacity="1"
          d="M 1627.761719 375.179688 L 1627.761719 378.128906 C 1635.019531 378.300781 1643.691406 378.480469 1647.71875 376.648438 C 1639.230469 376.679688 1633.808594 376.019531 1627.761719 375.179688 "/>
    <path fill-rule="nonzero" fill="rgb(85.9375%, 63.084412%, 32.93457%)" fill-opacity="1"
          d="M 898.210938 320.460938 C 938.601562 267.101562 1197.328125 218.46875 1221.960938 205.101562 C 1201.628906 205.101562 841.789062 288.421875 836.117188 335.25 C 884.953125 367.589844 878.058594 356.589844 964.738281 372.21875 C 1042.808594 386.308594 1133.511719 387.710938 1217.53125 400.320312 C 1245.058594 404.449219 1373.230469 405.261719 1386.050781 410.671875 C 1394.628906 410.890625 1407.589844 411.480469 1412.671875 409.199219 C 1339.011719 410.058594 859.039062 372.210938 898.210938 320.460938 "/>
    <path fill-rule="nonzero" fill="rgb(85.9375%, 63.084412%, 32.93457%)" fill-opacity="1"
          d="M 1437.039062 410.671875 C 1431.019531 410.660156 1426.859375 410.738281 1423.75 412.148438 C 1429.78125 412.160156 1433.941406 412.101562 1437.039062 410.671875 "/>
    <path fill-rule="nonzero" fill="rgb(85.9375%, 63.084412%, 32.93457%)" fill-opacity="1"
          d="M 1457.011719 413.628906 C 1462.171875 413.339844 1463.28125 413.351562 1465.871094 412.148438 C 1460.71875 412.441406 1459.621094 412.441406 1457.011719 413.628906 "/>
    <path fill-rule="nonzero" fill="rgb(85.9375%, 63.084412%, 32.93457%)" fill-opacity="1"
          d="M 1875.21875 973.109375 C 1659.800781 992.410156 1443.808594 984.96875 1228.640625 1013.394531 C 1118.109375 1027.957031 1008.808594 1061.734375 898.464844 1079.121094 C 780.175781 1097.773438 659.207031 1090.804688 540.453125 1090.941406 C 360.625 1091.148438 180.804688 1088.269531 1 1090.058594 L 1 1110.558594 C 184.429688 1108.910156 367.871094 1111.730469 551.324219 1111.507812 C 662.714844 1111.398438 774.582031 1113.460938 885.679688 1099.253906 C 1016.238281 1082.578125 1144.820312 1039.996094 1275.660156 1026.453125 C 1516.800781 1001.4375 1759.410156 994.96875 2001 981.089844 L 2001 960.800781 C 1958.960938 964.210938 1916.960938 969.351562 1875.21875 973.109375 "/>
    <path fill-rule="nonzero" fill="rgb(85.9375%, 63.084412%, 32.93457%)" fill-opacity="1"
          d="M 2001 1173.503906 C 1959.589844 1172.277344 1918.511719 1173.460938 1878.179688 1181.078125 C 1677.421875 1219.039062 1482.230469 1225.269531 1280.089844 1222.285156 C 1076.328125 1219.285156 871.539062 1232.34375 667.96875 1220.722656 C 593.351562 1216.457031 520.980469 1199.023438 446.722656 1218.109375 C 404.765625 1228.882812 365.445312 1262.1875 326.65625 1295.023438 L 364.742188 1293.796875 C 430.195312 1246.917969 493.023438 1228.242188 567.351562 1236.6875 C 657.746094 1246.964844 747.585938 1249.355469 838.183594 1246.800781 C 1032.171875 1241.316406 1225.921875 1247.136719 1419.921875 1248.609375 C 1507.871094 1249.277344 1595.949219 1253.261719 1683.699219 1241.476562 C 1772.878906 1229.535156 1860.988281 1203.191406 1950.480469 1194.332031 C 1967.300781 1192.65625 1984.140625 1192.023438 2001 1191.941406 L 2001 1173.503906 "/>
    <path fill-rule="nonzero" fill="rgb(85.9375%, 63.084412%, 32.93457%)" fill-opacity="1"
          d="M 1783.378906 792.628906 C 1667.898438 818.988281 1550.300781 815.550781 1433.921875 819.289062 C 1319.339844 822.980469 1202.789062 838.011719 1088.679688 815.960938 C 998.984375 798.609375 913.191406 767.640625 822.328125 775.25 C 721.8125 783.71875 621.207031 793.910156 520.726562 803.789062 C 406.21875 815.03125 294.421875 852.480469 179.476562 852.058594 L 198.824219 872.28125 C 292.621094 867.941406 384.546875 839.628906 478.253906 827.03125 C 602.40625 810.320312 732.675781 793.078125 857.265625 793.429688 C 963.605469 793.761719 1067.378906 846.460938 1174.101562 847.351562 C 1391.078125 849.21875 1615.628906 853.03125 1830.25 797.960938 C 1888.890625 782.898438 1944.789062 765.738281 2001 752.558594 L 2001 724.238281 C 1928.238281 743.53125 1856.410156 775.949219 1783.378906 792.628906 "/>
    <path fill-rule="nonzero" fill="rgb(85.9375%, 63.084412%, 32.93457%)" fill-opacity="1"
          d="M 1831.128906 696.140625 C 1658.769531 746.050781 1493.121094 777.339844 1317.53125 775.679688 C 1155.660156 774.179688 995.738281 747.480469 834.242188 738.730469 C 757.640625 734.621094 681.984375 754.839844 605.519531 757.421875 C 435.808594 763.121094 266.039062 759.550781 96.320312 767.070312 C 83.617188 767.621094 44.882812 764.808594 1 765.320312 L 1 786.679688 C 2.917969 786.628906 4.398438 786.570312 5.402344 786.480469 C 86.667969 779.761719 168.078125 778.101562 249.425781 776.511719 C 386.960938 773.878906 525.085938 779.621094 662.46875 768.328125 C 916.945312 747.480469 1170.25 795.121094 1425.601562 789.28125 C 1573.011719 785.910156 1713.960938 743.308594 1858.558594 701.429688 C 1905.78125 687.738281 1953.339844 679.21875 2001 672.46875 L 2001 661.929688 C 1944.160156 670 1887.429688 679.808594 1831.128906 696.140625 "/>
    <path fill-rule="nonzero" fill="rgb(85.9375%, 63.084412%, 32.93457%)" fill-opacity="1"
          d="M 1837.238281 916.898438 C 1607.328125 932.53125 1377.601562 918.101562 1148.019531 950.890625 C 923.953125 982.890625 713.148438 1052.042969 486.269531 1024.222656 C 382.402344 1011.460938 281.191406 973.53125 177.246094 963.191406 L 111.441406 988.808594 C 133.320312 988.539062 155.238281 989 177.199219 990.320312 C 278.546875 996.339844 377.886719 1036.402344 478.839844 1051.308594 C 685.429688 1081.871094 882.304688 1028.238281 1086.289062 988.109375 C 1316.550781 942.898438 1549.839844 951.589844 1781.351562 945.988281 C 1854.289062 944.191406 1927.601562 934.378906 2001 925.230469 L 2001 899.21875 C 1946.28125 906.101562 1891.640625 913.210938 1837.238281 916.898438 Z M 1 988.628906 L 1 995.671875 C 29.28125 992.660156 57.59375 990.480469 85.960938 989.441406 L 1 988.628906 "/>
    <path fill-rule="nonzero" fill="rgb(85.9375%, 63.084412%, 32.93457%)" fill-opacity="1"
          d="M 1774.839844 1088.558594 C 1541.199219 1104.820312 1309.410156 1134.96875 1075.308594 1138.0625 C 846.839844 1141.058594 615.90625 1131.300781 388.019531 1159.242188 C 281.410156 1172.3125 185.519531 1238.539062 77.113281 1206.757812 C 51.648438 1199.324219 26.320312 1189.929688 1 1180.949219 L 1 1218.539062 C 30.617188 1229.378906 60.136719 1240.890625 89.5 1249.464844 C 180.597656 1276.128906 267.875 1221.457031 356.980469 1199.726562 C 463.214844 1173.8125 574.871094 1181.925781 682.046875 1181.078125 C 802.300781 1180.121094 922.535156 1176.058594 1042.828125 1174.578125 C 1276.871094 1171.675781 1508.601562 1148.527344 1742.140625 1127.207031 C 1828.460938 1119.292969 1914.671875 1121.070312 2001 1120.175781 L 2001 1085.953125 C 1925.671875 1087.566406 1850.058594 1083.351562 1774.839844 1088.558594 "/>
    <path fill-rule="nonzero" fill="rgb(85.9375%, 63.084412%, 32.93457%)" fill-opacity="1"
          d="M 1765.480469 637.558594 C 1535.898438 675.078125 1304.710938 684.609375 1074.058594 681.609375 C 860.6875 678.828125 647.117188 648.339844 433.78125 656 C 331.265625 659.679688 230.257812 689.160156 127.679688 693.671875 C 85.261719 695.519531 43.066406 696.808594 1 700.050781 L 1 726.359375 C 48.742188 722.921875 96.632812 721.960938 144.554688 719.851562 C 247.097656 715.359375 348.03125 686.101562 450.679688 682.398438 C 664.421875 674.71875 879.132812 706.660156 1092.980469 709.441406 C 1296.210938 712.070312 1499.421875 700.28125 1701.898438 672.898438 C 1801.960938 659.359375 1901.460938 636.871094 2001 615.269531 L 2001 590.300781 C 1922.589844 607.351562 1844.171875 624.71875 1765.480469 637.558594 "/>
    <path fill-rule="nonzero" fill="rgb(85.9375%, 63.084412%, 32.93457%)" fill-opacity="1"
          d="M 1817.628906 869.5 C 1572.859375 877.308594 1329.699219 867.269531 1085.03125 859.648438 C 974.140625 856.210938 863.378906 860.941406 753.011719 878.121094 C 629.777344 897.289062 520.878906 967.96875 394.378906 938.53125 C 339.210938 925.679688 283.632812 912.699219 227.882812 902.648438 L 256.34375 932.398438 L 239.179688 939.078125 C 317.722656 958.078125 396.683594 991.300781 474.777344 985.378906 C 588.472656 976.71875 697.234375 919.21875 810.542969 904.328125 C 937.945312 887.589844 1066.300781 893.109375 1193.980469 899.53125 C 1420.46875 910.941406 1645.488281 909.75 1871.988281 902.488281 C 1915.289062 901.089844 1958.199219 895.578125 2001 888.480469 L 2001 850.578125 C 1940.28125 859.890625 1879.601562 867.488281 1817.628906 869.5 "/>
    <path fill-rule="nonzero" fill="rgb(85.9375%, 63.084412%, 32.93457%)" fill-opacity="1"
          d="M 1874.691406 1678.089844 C 1659.289062 1697.382812 1443.289062 1689.949219 1228.109375 1718.34375 C 1117.570312 1732.933594 1008.28125 1766.703125 897.921875 1784.089844 C 779.648438 1802.734375 658.664062 1795.753906 539.914062 1795.917969 C 360.253906 1796.105469 180.625 1793.226562 1 1795.035156 L 1 1815.519531 C 184.246094 1813.875 367.523438 1816.699219 550.785156 1816.507812 C 662.195312 1816.355469 774.0625 1818.414062 885.140625 1804.238281 C 1015.691406 1787.539062 1144.289062 1744.992188 1275.128906 1731.417969 C 1483.890625 1709.75 1693.761719 1702.007812 1903.121094 1691.3125 L 1903.121094 1675.355469 C 1893.628906 1676.316406 1884.160156 1677.238281 1874.691406 1678.089844 "/>
    <path fill-rule="nonzero" fill="rgb(85.9375%, 63.084412%, 32.93457%)" fill-opacity="1"
          d="M 2001 1878.484375 C 1959.421875 1877.230469 1918.128906 1878.417969 1877.640625 1886.042969 C 1676.871094 1923.988281 1481.691406 1930.242188 1279.539062 1927.269531 C 1075.789062 1924.257812 871.015625 1937.320312 667.421875 1925.683594 C 592.816406 1921.414062 520.433594 1903.984375 446.167969 1923.105469 C 404.222656 1933.839844 364.910156 1967.144531 326.105469 2000 L 364.195312 1998.761719 C 429.65625 1951.898438 492.476562 1933.207031 566.828125 1941.648438 C 657.226562 1951.941406 747.050781 1954.332031 837.660156 1951.746094 C 1031.648438 1946.285156 1225.371094 1952.105469 1419.410156 1953.589844 C 1507.339844 1954.242188 1595.410156 1958.222656 1683.148438 1946.457031 C 1772.359375 1934.511719 1860.46875 1908.160156 1949.941406 1899.300781 C 1966.941406 1897.609375 1983.960938 1896.972656 2001 1896.910156 L 2001 1878.484375 "/>
    <path fill-rule="nonzero" fill="rgb(85.9375%, 63.084412%, 32.93457%)" fill-opacity="1"
          d="M 1782.859375 1497.597656 C 1667.359375 1523.984375 1549.78125 1520.542969 1433.398438 1524.269531 C 1318.820312 1527.941406 1202.238281 1542.976562 1088.160156 1520.921875 C 998.441406 1503.585938 912.644531 1472.613281 821.789062 1480.234375 C 721.292969 1488.679688 620.671875 1498.871094 520.1875 1508.75 C 403.914062 1520.183594 290.441406 1558.628906 173.625 1556.964844 C 115.980469 1556.144531 58.507812 1550.074219 1 1544.78125 L 1 1565.722656 C 52.066406 1570.191406 103.15625 1575.136719 154.332031 1577.394531 C 263.507812 1582.113281 369.40625 1546.546875 477.738281 1531.976562 C 601.871094 1515.320312 732.132812 1498.046875 856.726562 1498.394531 C 963.066406 1498.71875 1066.839844 1551.441406 1173.578125 1552.316406 C 1390.550781 1554.191406 1615.101562 1557.984375 1829.730469 1502.929688 C 1888.539062 1487.828125 1944.609375 1470.617188 2001 1457.410156 L 2001 1429.082031 C 1928.058594 1448.339844 1856.058594 1480.886719 1782.859375 1497.597656 "/>
    <path fill-rule="nonzero" fill="rgb(85.9375%, 63.084412%, 32.93457%)" fill-opacity="1"
          d="M 1743.78125 1290.339844 C 1629.910156 1303.996094 1514.78125 1288.691406 1400.878906 1280.601562 C 1281.789062 1272.195312 1163.960938 1280.984375 1045 1288.886719 C 823.140625 1303.585938 601.324219 1297 379.515625 1315.386719 C 253.125 1325.890625 127.523438 1329.367188 1 1329.960938 L 1 1361.632812 C 6.835938 1361.390625 12.707031 1361.207031 18.660156 1361.164062 C 118.269531 1360.75 217.3125 1358.878906 316.804688 1351.101562 C 556.019531 1332.410156 795.03125 1335.230469 1034.238281 1320.257812 C 1259.101562 1306.140625 1482.808594 1335.546875 1707.28125 1324.042969 C 1806.109375 1318.953125 1903.570312 1295.828125 2001 1274.613281 L 2001 1241.71875 C 1915.460938 1259.867188 1829.910156 1280.027344 1743.78125 1290.339844 "/>
    <path fill-rule="nonzero" fill="rgb(85.9375%, 63.084412%, 32.93457%)" fill-opacity="1"
          d="M 1830.578125 1401.109375 C 1658.238281 1451 1492.578125 1482.324219 1317.011719 1480.652344 C 1155.140625 1479.144531 995.210938 1452.453125 833.699219 1443.703125 C 757.121094 1439.59375 681.46875 1459.808594 604.972656 1462.386719 C 435.269531 1468.117188 265.492188 1464.519531 95.777344 1472.054688 C 83.132812 1472.621094 44.667969 1469.796875 1 1470.285156 L 1 1491.621094 C 2.605469 1491.585938 3.996094 1491.519531 4.878906 1491.453125 C 86.125 1484.71875 167.546875 1483.0625 248.890625 1481.5 C 386.4375 1478.859375 524.542969 1484.601562 661.9375 1473.316406 C 916.402344 1452.445312 1169.691406 1500.097656 1425.078125 1494.25 C 1572.488281 1490.875 1713.421875 1448.257812 1858.03125 1406.398438 C 1905.429688 1392.660156 1953.148438 1384.128906 2001 1377.363281 L 2001 1366.855469 C 1943.980469 1374.933594 1887.078125 1384.75 1830.578125 1401.109375 "/>
    <path fill-rule="nonzero" fill="rgb(85.9375%, 63.084412%, 32.93457%)" fill-opacity="1"
          d="M 1840.160156 1621.886719 C 1615.070312 1637.496094 1390.148438 1623.074219 1165.390625 1655.871094 C 946.015625 1687.855469 739.632812 1757.019531 517.519531 1729.191406 C 408.71875 1715.546875 302.894531 1673.078125 193.585938 1666.40625 C 143.382812 1663.339844 93.117188 1666.226562 42.945312 1672.164062 L 42.945312 1700.578125 C 100.082031 1694.421875 157.339844 1691.769531 214.933594 1695.296875 C 314.164062 1701.308594 411.410156 1741.355469 510.230469 1756.296875 C 712.488281 1786.851562 905.230469 1733.199219 1104.929688 1693.097656 C 1330.390625 1647.863281 1558.769531 1656.570312 1785.429688 1650.960938 C 1824.558594 1649.984375 1863.808594 1646.585938 1903.121094 1642.203125 L 1903.121094 1616.15625 C 1882.101562 1618.445312 1861.109375 1620.429688 1840.160156 1621.886719 "/>
    <path fill-rule="nonzero" fill="rgb(85.9375%, 63.084412%, 32.93457%)" fill-opacity="1"
          d="M 1774.328125 1793.550781 C 1540.691406 1809.785156 1308.898438 1839.960938 1074.769531 1843.019531 C 846.296875 1846.027344 615.359375 1836.261719 387.472656 1864.214844 C 280.886719 1877.292969 185 1943.515625 76.574219 1911.757812 C 51.296875 1904.351562 26.140625 1895.03125 1 1886.097656 L 1 1923.699219 C 30.453125 1934.488281 59.785156 1945.894531 88.976562 1954.441406 C 180.074219 1981.097656 267.351562 1926.417969 356.441406 1904.683594 C 462.691406 1878.777344 574.335938 1886.902344 681.511719 1886.042969 C 801.777344 1885.097656 922.011719 1881.035156 1042.28125 1879.546875 C 1276.351562 1876.640625 1508.050781 1853.507812 1741.621094 1832.183594 C 1828.089844 1824.257812 1914.488281 1826.054688 2001 1825.144531 L 2001 1790.914062 C 1925.488281 1792.550781 1849.710938 1788.3125 1774.328125 1793.550781 "/>
    <path fill-rule="nonzero" fill="rgb(85.9375%, 63.084412%, 32.93457%)" fill-opacity="1"
          d="M 1764.941406 1342.53125 C 1535.371094 1380.050781 1304.179688 1389.558594 1073.519531 1386.589844 C 860.167969 1383.789062 646.574219 1353.289062 433.242188 1360.976562 C 330.738281 1364.644531 229.714844 1394.15625 127.136719 1398.648438 C 84.910156 1400.488281 42.890625 1401.761719 1 1404.980469 L 1 1431.285156 C 48.5625 1427.882812 96.273438 1426.925781 144.011719 1424.804688 C 246.554688 1420.332031 347.492188 1391.058594 450.140625 1387.378906 C 663.902344 1379.679688 878.585938 1411.65625 1092.460938 1414.425781 C 1295.671875 1417.046875 1498.878906 1405.261719 1701.351562 1377.867188 C 1801.601562 1364.296875 1901.28125 1341.757812 2001 1320.132812 L 2001 1295.15625 C 1922.398438 1312.25 1843.820312 1329.65625 1764.941406 1342.53125 "/>
    <path fill-rule="nonzero" fill="rgb(85.9375%, 63.084412%, 32.93457%)" fill-opacity="1"
          d="M 1817.078125 1574.464844 C 1572.320312 1582.273438 1329.171875 1572.246094 1084.480469 1564.632812 C 973.628906 1561.1875 862.855469 1565.929688 752.464844 1583.101562 C 629.253906 1602.25 520.347656 1672.9375 393.863281 1643.488281 C 270.40625 1614.746094 144.917969 1585.382812 19.988281 1589.5625 L 42.945312 1589.5625 L 42.945312 1625.046875 C 87.058594 1625.269531 131.203125 1628.710938 174.902344 1632.8125 C 274.335938 1642.152344 374.984375 1697.890625 474.257812 1690.335938 C 587.957031 1681.695312 696.710938 1624.175781 810 1609.308594 C 937.40625 1592.5625 1065.78125 1598.109375 1193.441406 1604.523438 C 1419.921875 1615.890625 1644.941406 1614.710938 1871.441406 1607.449219 C 1882.03125 1607.113281 1892.589844 1606.53125 1903.121094 1605.738281 L 1903.121094 1589.5625 L 2001 1589.5625 L 2001 1555.472656 C 1940.101562 1564.820312 1879.238281 1572.457031 1817.078125 1574.464844 "/>
</svg>
