<?xml version="1.0" encoding="UTF-8"?>
<svg xmlns="http://www.w3.org/2000/svg" xmlns:xlink="http://www.w3.org/1999/xlink" width="3000" height="2016"
     viewBox="0 0 3000 2016">
    <path fill-rule="evenodd" fill="rgb(0%, 0%, 39.988708%)" fill-opacity="1"
          d="M 2701.429688 2015.289062 C 2676.53125 2015.289062 2651.378906 2012.113281 2626.96875 2006.011719 C 2549.820312 1986.238281 2485.859375 1938.382812 2446.789062 1870.757812 L 1625.28125 454.53125 C 1542.761719 312.199219 1587.929688 128.121094 1726.109375 44.140625 C 1794.710938 2.390625 1878.941406 -9.820312 1957.058594 9.960938 C 2034.210938 29.730469 2098.171875 77.578125 2137.230469 145.210938 L 2958.75 1561.441406 C 3041.269531 1703.773438 2996.101562 1887.851562 2857.921875 1971.835938 C 2810.800781 2000.398438 2756.359375 2015.289062 2701.429688 2015.289062 Z M 1762.480469 104.191406 C 1656.769531 168.398438 1622.589844 309.511719 1686.070312 419.121094 L 2507.339844 1835.359375 C 2536.878906 1886.382812 2585.460938 1922.757812 2644.050781 1937.652344 C 2704.109375 1953.027344 2768.558594 1943.511719 2821.300781 1911.527344 C 2927.011719 1847.316406 2961.429688 1706.203125 2897.710938 1596.59375 L 2076.441406 180.609375 C 2046.898438 129.578125 1998.308594 93.210938 1939.730469 78.320312 C 1879.660156 62.929688 1815.210938 72.449219 1762.480469 104.191406 "/>
    <path fill-rule="evenodd" fill="rgb(0%, 0%, 39.988708%)" fill-opacity="1"
          d="M 2740.738281 1875.152344 C 2680.679688 1875.152344 2622.328125 1853.914062 2574.480469 1814.363281 C 2497.328125 1750.890625 2483.910156 1639.5625 2544.210938 1566.320312 C 2604.519531 1493.082031 2716.328125 1485.269531 2793.480469 1548.984375 C 2839.371094 1587.070312 2847.429688 1653.71875 2810.808594 1697.664062 C 2792.988281 1719.394531 2767.359375 1732.328125 2738.550781 1734.039062 C 2710.46875 1735.746094 2683.371094 1726.714844 2661.398438 1708.648438 C 2646.511719 1696.195312 2644.308594 1674.226562 2656.761719 1659.089844 C 2668.96875 1644.195312 2691.191406 1642.003906 2706.320312 1654.453125 C 2714.378906 1661.042969 2724.390625 1664.460938 2734.398438 1663.976562 C 2743.429688 1663.484375 2751.480469 1659.582031 2756.859375 1652.992188 C 2768.578125 1638.835938 2764.921875 1616.371094 2748.808594 1603.1875 C 2701.679688 1564.371094 2634.308594 1567.789062 2598.421875 1611 C 2562.53125 1654.210938 2572.050781 1721.105469 2619.171875 1760.171875 C 2657.511719 1791.664062 2704.859375 1807.53125 2752.21875 1804.355469 C 2799.101562 1801.429688 2840.609375 1780.675781 2869.171875 1746.011719 C 2902.371094 1705.96875 2913.601562 1652.507812 2900.421875 1599.285156 C 2895.78125 1580.488281 2907.261719 1561.441406 2926.050781 1556.558594 C 2945.101562 1551.921875 2963.890625 1563.394531 2968.78125 1582.191406 C 2987.570312 1657.140625 2970.96875 1733.3125 2923.371094 1790.683594 C 2882.109375 1840.488281 2823.03125 1870.273438 2756.621094 1874.417969 C 2751.480469 1875.152344 2746.109375 1875.152344 2740.738281 1875.152344 Z M 2407.730469 1768.710938 C 2395.011719 1768.710938 2383.660156 1761.25 2377.449219 1750.03125 C 2376.039062 1747.492188 2374.320312 1745.039062 2373.550781 1742.101562 C 2349.140625 1645.421875 2370.128906 1547.527344 2431.421875 1473.304688 C 2539.808594 1341.960938 2741.21875 1328.527344 2880.628906 1443.277344 C 2886.730469 1448.40625 2892.589844 1453.53125 2897.960938 1458.902344 C 2900.488281 1461.386719 2901.710938 1464.453125 2903.308594 1467.394531 C 2910.570312 1480.660156 2909.441406 1497.316406 2898.449219 1508.710938 C 2884.78125 1522.628906 2862.558594 1522.628906 2848.648438 1509.199219 C 2844.488281 1505.296875 2840.351562 1501.386719 2835.949219 1497.726562 C 2726.828125 1407.644531 2569.601562 1416.917969 2485.859375 1518.230469 C 2438.988281 1574.867188 2423.121094 1650.308594 2441.921875 1725.015625 C 2446.558594 1743.808594 2435.328125 1762.855469 2416.53125 1767.742188 C 2413.589844 1768.46875 2410.660156 1768.710938 2407.730469 1768.710938 "/>
    <path fill-rule="evenodd" fill="rgb(0%, 0%, 39.988708%)" fill-opacity="1"
          d="M 2633.558594 2006.5 L 797.65625 2006.5 C 781.054688 2006.5 766.652344 1995.027344 763.234375 1978.667969 L 666.558594 1529.457031 C 661.429688 1505.289062 647.761719 1486.730469 642.140625 1482.09375 L 425.59375 1404.703125 C 390.929688 1392.253906 367.25 1338.542969 358.703125 1308.757812 L 285.464844 1053.394531 L 197.574219 788.511719 C 188.050781 759.699219 168.765625 742.121094 163.152344 737.480469 L 12.765625 613.21875 C 1.289062 603.699219 -2.863281 588.070312 2.023438 574.160156 C 7.152344 560.25 20.335938 550.96875 34.980469 550.96875 L 1741.730469 550.960938 C 1761.011719 550.960938 1776.878906 566.578125 1776.878906 586.109375 C 1776.878906 605.640625 1761.011719 621.269531 1741.730469 621.269531 L 133.359375 621.269531 L 208.308594 683.28125 C 220.273438 693.289062 249.566406 721.121094 264.703125 766.539062 L 353.082031 1032.648438 L 426.8125 1289.234375 C 433.894531 1314.136719 446.34375 1333.671875 452.203125 1339.042969 L 668.265625 1416.433594 C 700.980469 1428.148438 727.347656 1475.753906 735.648438 1514.578125 L 826.226562 1935.957031 L 2633.558594 1935.941406 C 2636.738281 1935.941406 2639.371094 1937.035156 2642.308594 1937.835938 C 2657.179688 1941.914062 2668.71875 1954.984375 2668.71875 1971.097656 C 2668.71875 1990.382812 2652.851562 2006.5 2633.558594 2006.5 Z M 452.9375 1340.011719 L 452.9375 1340.011719 "/>
    <path fill-rule="evenodd" fill="rgb(0%, 0%, 39.988708%)" fill-opacity="1"
          d="M 1353.058594 1022.382812 C 1333.53125 1022.382812 1317.910156 1006.761719 1317.910156 987.230469 L 1317.910156 735.53125 C 1317.910156 716 1333.53125 700.371094 1353.058594 700.371094 C 1372.589844 700.371094 1388.21875 716 1388.21875 735.53125 L 1388.21875 987.230469 C 1388.21875 1006.519531 1372.351562 1022.382812 1353.058594 1022.382812 "/>
    <path fill-rule="evenodd" fill="rgb(0%, 0%, 39.988708%)" fill-opacity="1"
          d="M 1478.789062 896.410156 L 1227.089844 896.410156 C 1207.558594 896.410156 1191.929688 880.789062 1191.929688 861.261719 C 1191.929688 841.730469 1207.558594 826.101562 1227.089844 826.101562 L 1478.789062 826.101562 C 1498.320312 826.101562 1513.949219 841.730469 1513.949219 861.261719 C 1513.949219 880.789062 1498.078125 896.410156 1478.789062 896.410156 "/>
    <path fill-rule="evenodd" fill="rgb(0%, 0%, 39.988708%)" fill-opacity="1"
          d="M 1624.058594 1439.859375 C 1604.769531 1439.859375 1588.898438 1423.988281 1588.898438 1404.703125 L 1588.898438 1153.242188 C 1588.898438 1133.953125 1604.769531 1118.085938 1624.058594 1118.085938 C 1643.351562 1118.085938 1659.210938 1133.953125 1659.210938 1153.242188 L 1659.210938 1404.703125 C 1659.210938 1423.988281 1643.339844 1439.859375 1624.058594 1439.859375 "/>
    <path fill-rule="evenodd" fill="rgb(0%, 0%, 39.988708%)" fill-opacity="1"
          d="M 1749.789062 1313.886719 L 1498.078125 1313.886719 C 1478.550781 1313.886719 1462.921875 1298.019531 1462.921875 1278.730469 C 1462.921875 1259.441406 1478.550781 1243.574219 1498.078125 1243.574219 L 1749.789062 1243.574219 C 1769.078125 1243.574219 1784.941406 1259.441406 1784.941406 1278.730469 C 1784.941406 1298.019531 1769.070312 1313.886719 1749.789062 1313.886719 "/>
    <path fill-rule="evenodd" fill="rgb(0%, 0%, 39.988708%)" fill-opacity="1"
          d="M 1895.050781 1857.332031 C 1875.761719 1857.332031 1859.890625 1841.464844 1859.890625 1822.175781 L 1859.890625 1570.472656 C 1859.890625 1551.1875 1875.761719 1535.316406 1895.050781 1535.316406 C 1914.339844 1535.316406 1930.199219 1551.1875 1930.199219 1570.472656 L 1930.199219 1822.175781 C 1930.199219 1841.464844 1914.339844 1857.332031 1895.050781 1857.332031 "/>
    <path fill-rule="evenodd" fill="rgb(0%, 0%, 39.988708%)" fill-opacity="1"
          d="M 2020.78125 1731.359375 L 1769.070312 1731.359375 C 1749.78125 1731.359375 1733.910156 1715.492188 1733.910156 1696.203125 C 1733.910156 1676.917969 1749.78125 1661.050781 1769.070312 1661.050781 L 2020.78125 1661.050781 C 2040.070312 1661.050781 2055.929688 1676.917969 2055.929688 1696.203125 C 2055.929688 1715.492188 2040.070312 1731.359375 2020.78125 1731.359375 "/>
    <path fill-rule="evenodd" fill="rgb(0%, 0%, 39.988708%)" fill-opacity="1"
          d="M 774.21875 1022.382812 C 754.6875 1022.382812 739.0625 1006.761719 739.0625 987.230469 L 739.0625 735.53125 C 739.0625 716 754.6875 700.371094 774.21875 700.371094 C 793.746094 700.371094 809.371094 716 809.371094 735.53125 L 809.371094 987.230469 C 809.371094 1006.519531 793.746094 1022.382812 774.21875 1022.382812 "/>
    <path fill-rule="evenodd" fill="rgb(0%, 0%, 39.988708%)" fill-opacity="1"
          d="M 900.191406 896.410156 L 648.488281 896.410156 C 628.957031 896.410156 613.332031 880.789062 613.332031 861.261719 C 613.332031 841.730469 628.957031 826.101562 648.488281 826.101562 L 900.191406 826.101562 C 919.71875 826.101562 935.347656 841.730469 935.347656 861.261719 C 935.347656 880.789062 919.476562 896.410156 900.191406 896.410156 "/>
    <path fill-rule="evenodd" fill="rgb(0%, 0%, 39.988708%)" fill-opacity="1"
          d="M 1045.210938 1439.859375 C 1025.679688 1439.859375 1010.050781 1423.988281 1010.050781 1404.703125 L 1010.050781 1153.242188 C 1010.050781 1133.953125 1025.679688 1118.085938 1045.210938 1118.085938 C 1064.738281 1118.085938 1080.359375 1133.953125 1080.359375 1153.242188 L 1080.359375 1404.703125 C 1080.359375 1423.988281 1064.738281 1439.859375 1045.210938 1439.859375 "/>
    <path fill-rule="evenodd" fill="rgb(0%, 0%, 39.988708%)" fill-opacity="1"
          d="M 1171.179688 1313.886719 L 919.476562 1313.886719 C 899.949219 1313.886719 884.320312 1298.019531 884.320312 1278.730469 C 884.320312 1259.441406 899.949219 1243.574219 919.476562 1243.574219 L 1171.179688 1243.574219 C 1190.710938 1243.574219 1206.339844 1259.441406 1206.339844 1278.730469 C 1206.339844 1298.019531 1190.46875 1313.886719 1171.179688 1313.886719 "/>
    <path fill-rule="evenodd" fill="rgb(0%, 0%, 39.988708%)" fill-opacity="1"
          d="M 1316.449219 1857.332031 C 1296.921875 1857.332031 1281.289062 1841.464844 1281.289062 1822.175781 L 1281.289062 1570.472656 C 1281.289062 1551.1875 1296.921875 1535.316406 1316.449219 1535.316406 C 1335.980469 1535.316406 1351.601562 1551.1875 1351.601562 1570.472656 L 1351.601562 1822.175781 C 1351.351562 1841.464844 1335.730469 1857.332031 1316.449219 1857.332031 "/>
    <path fill-rule="evenodd" fill="rgb(0%, 0%, 39.988708%)" fill-opacity="1"
          d="M 1442.179688 1731.359375 L 1190.46875 1731.359375 C 1170.941406 1731.359375 1155.308594 1715.492188 1155.308594 1696.203125 C 1155.308594 1676.917969 1170.941406 1661.050781 1190.46875 1661.050781 L 1442.179688 1661.050781 C 1461.710938 1661.050781 1477.328125 1676.917969 1477.328125 1696.203125 C 1477.328125 1715.492188 1461.460938 1731.359375 1442.179688 1731.359375 "/>
    <path fill-rule="evenodd" fill="rgb(32.542419%, 48.631287%, 88.671875%)" fill-opacity="1"
          d="M 1351.609375 1661.046875 L 1442.179688 1661.046875 C 1461.710938 1661.046875 1477.339844 1676.914062 1477.339844 1696.203125 C 1477.339844 1715.488281 1461.46875 1731.359375 1442.179688 1731.359375 L 1351.609375 1731.359375 L 1351.609375 1822.175781 C 1351.359375 1841.460938 1335.738281 1857.332031 1316.449219 1857.332031 C 1296.921875 1857.332031 1281.289062 1841.460938 1281.289062 1822.175781 L 1281.289062 1731.359375 L 1190.46875 1731.359375 C 1170.941406 1731.359375 1155.308594 1715.488281 1155.308594 1696.203125 C 1155.308594 1676.914062 1170.941406 1661.046875 1190.46875 1661.046875 L 1281.289062 1661.046875 L 1281.289062 1570.472656 C 1281.289062 1551.183594 1296.921875 1535.316406 1316.449219 1535.316406 C 1335.980469 1535.316406 1351.609375 1551.183594 1351.609375 1570.472656 Z M 1859.890625 1570.472656 C 1859.890625 1551.183594 1875.761719 1535.316406 1895.050781 1535.316406 C 1914.328125 1535.316406 1930.199219 1551.183594 1930.199219 1570.472656 L 1930.199219 1661.046875 L 2020.78125 1661.046875 C 2040.058594 1661.046875 2055.929688 1676.914062 2055.929688 1696.203125 C 2055.929688 1715.488281 2040.058594 1731.359375 2020.78125 1731.359375 L 1930.199219 1731.359375 L 1930.199219 1822.175781 C 1930.199219 1841.460938 1914.328125 1857.332031 1895.050781 1857.332031 C 1875.761719 1857.332031 1859.890625 1841.460938 1859.890625 1822.175781 L 1859.890625 1731.359375 L 1769.070312 1731.359375 C 1749.78125 1731.359375 1733.910156 1715.488281 1733.910156 1696.203125 C 1733.910156 1676.914062 1749.78125 1661.046875 1769.070312 1661.046875 L 1859.890625 1661.046875 Z M 1659.210938 1313.882812 L 1659.210938 1404.699219 C 1659.199219 1423.988281 1643.339844 1439.855469 1624.058594 1439.855469 C 1604.769531 1439.855469 1588.898438 1423.988281 1588.898438 1404.699219 L 1588.898438 1313.882812 L 1498.078125 1313.882812 C 1478.550781 1313.882812 1462.929688 1298.015625 1462.929688 1278.726562 C 1462.929688 1259.441406 1478.550781 1243.570312 1498.078125 1243.570312 L 1588.898438 1243.570312 L 1588.898438 1153.238281 C 1588.898438 1133.953125 1604.769531 1118.085938 1624.058594 1118.085938 C 1643.339844 1118.085938 1659.210938 1133.953125 1659.210938 1153.238281 L 1659.210938 1243.570312 L 1749.789062 1243.570312 C 1769.070312 1243.570312 1784.941406 1259.441406 1784.941406 1278.726562 C 1784.941406 1298.015625 1769.070312 1313.882812 1749.789062 1313.882812 Z M 826.226562 1935.953125 L 2498.351562 1935.941406 C 2478.28125 1917.054688 2460.910156 1895.199219 2446.789062 1870.757812 L 1721.988281 621.269531 L 133.359375 621.269531 L 208.308594 683.289062 C 220.273438 693.289062 249.566406 721.128906 264.703125 766.539062 L 353.085938 1032.644531 L 426.8125 1289.234375 C 433.894531 1314.132812 446.34375 1333.667969 452.203125 1339.039062 L 668.269531 1416.429688 C 700.980469 1428.144531 727.347656 1475.753906 735.652344 1514.574219 Z M 1206.339844 1278.726562 C 1206.339844 1298.015625 1190.46875 1313.882812 1171.179688 1313.882812 L 1080.371094 1313.882812 L 1080.371094 1404.699219 C 1080.371094 1423.988281 1064.738281 1439.855469 1045.210938 1439.855469 C 1025.679688 1439.855469 1010.050781 1423.988281 1010.050781 1404.699219 L 1010.050781 1313.882812 L 919.480469 1313.882812 C 899.949219 1313.882812 884.324219 1298.015625 884.324219 1278.726562 C 884.324219 1259.441406 899.949219 1243.570312 919.480469 1243.570312 L 1010.050781 1243.570312 L 1010.050781 1153.238281 C 1010.050781 1133.953125 1025.679688 1118.085938 1045.210938 1118.085938 C 1064.738281 1118.085938 1080.371094 1133.953125 1080.371094 1153.238281 L 1080.371094 1243.570312 L 1171.179688 1243.570312 C 1190.710938 1243.570312 1206.339844 1259.441406 1206.339844 1278.726562 Z M 809.375 896.421875 L 809.375 987.230469 C 809.375 1006.511719 793.75 1022.382812 774.21875 1022.382812 C 754.691406 1022.382812 739.0625 1006.75 739.0625 987.230469 L 739.0625 896.421875 L 648.488281 896.421875 C 628.960938 896.421875 613.332031 880.789062 613.332031 861.261719 C 613.332031 841.730469 628.960938 826.101562 648.488281 826.101562 L 739.0625 826.101562 L 739.0625 735.53125 C 739.0625 716 754.691406 700.371094 774.21875 700.371094 C 793.75 700.371094 809.375 716 809.375 735.53125 L 809.375 826.101562 L 900.191406 826.101562 C 919.722656 826.101562 935.347656 841.730469 935.347656 861.261719 C 935.347656 880.789062 919.480469 896.421875 900.191406 896.421875 Z M 1388.21875 896.421875 L 1388.21875 987.230469 C 1388.21875 1006.511719 1372.351562 1022.382812 1353.070312 1022.382812 C 1333.539062 1022.382812 1317.910156 1006.75 1317.910156 987.230469 L 1317.910156 896.421875 L 1227.089844 896.421875 C 1207.558594 896.421875 1191.941406 880.789062 1191.941406 861.261719 C 1191.941406 841.730469 1207.558594 826.101562 1227.089844 826.101562 L 1317.910156 826.101562 L 1317.910156 735.53125 C 1317.910156 716 1333.539062 700.371094 1353.070312 700.371094 C 1372.589844 700.371094 1388.21875 716 1388.21875 735.53125 L 1388.21875 826.101562 L 1478.800781 826.101562 C 1498.320312 826.101562 1513.941406 841.730469 1513.941406 861.261719 C 1513.941406 880.789062 1498.078125 896.421875 1478.800781 896.421875 L 1388.21875 896.421875 "/>
    <path fill-rule="evenodd" fill="rgb(32.542419%, 48.631287%, 88.671875%)" fill-opacity="1"
          d="M 2431.410156 1473.300781 C 2514.339844 1372.816406 2651.71875 1341.34375 2774.109375 1383.488281 L 2076.441406 180.609375 C 2046.890625 129.578125 1998.308594 93.210938 1939.71875 78.320312 C 1879.660156 62.929688 1815.210938 72.460938 1762.480469 104.191406 C 1656.769531 168.398438 1622.589844 309.511719 1686.058594 419.128906 L 2370.371094 1599.171875 C 2380.238281 1553.378906 2400.800781 1510.382812 2431.410156 1473.300781 "/>
</svg>
