<?xml version="1.0" encoding="UTF-8"?>
<svg xmlns="http://www.w3.org/2000/svg" xmlns:xlink="http://www.w3.org/1999/xlink" width="3001" height="3001"
     viewBox="0 0 3001 3001">
    <defs>
        <clipPath id="clip-0">

        </clipPath>
        <radialGradient id="radial-pattern-0" gradientUnits="userSpaceOnUse" cx="0" cy="0" fx="0" fy="0" r="1500"
                        gradientTransform="matrix(1, 0, 0, 1, 1500.5, 1500.5)">
            <stop offset="0" stop-color="rgb(99.905396%, 99.90387%, 99.90387%)" stop-opacity="1"/>
            <stop offset="0.015625" stop-color="rgb(99.64447%, 99.638367%, 99.639893%)" stop-opacity="1"/>
            <stop offset="0.0429688" stop-color="rgb(99.311829%, 99.299622%, 99.302673%)" stop-opacity="1"/>
            <stop offset="0.0703125" stop-color="rgb(98.979187%, 98.960876%, 98.965454%)" stop-opacity="1"/>
            <stop offset="0.0976562" stop-color="rgb(98.64502%, 98.620605%, 98.626709%)" stop-opacity="1"/>
            <stop offset="0.125" stop-color="rgb(98.312378%, 98.28186%, 98.28949%)" stop-opacity="1"/>
            <stop offset="0.152344" stop-color="rgb(98.002625%, 97.966003%, 97.975159%)" stop-opacity="1"/>
            <stop offset="0.175781" stop-color="rgb(97.717285%, 97.676086%, 97.686768%)" stop-opacity="1"/>
            <stop offset="0.199219" stop-color="rgb(97.43042%, 97.384644%, 97.395325%)" stop-opacity="1"/>
            <stop offset="0.222656" stop-color="rgb(97.146606%, 97.094727%, 97.106934%)" stop-opacity="1"/>
            <stop offset="0.246094" stop-color="rgb(96.862793%, 96.80481%, 96.820068%)" stop-opacity="1"/>
            <stop offset="0.269531" stop-color="rgb(96.600342%, 96.537781%, 96.554565%)" stop-opacity="1"/>
            <stop offset="0.289062" stop-color="rgb(96.362305%, 96.295166%, 96.311951%)" stop-opacity="1"/>
            <stop offset="0.308594" stop-color="rgb(96.122742%, 96.052551%, 96.069336%)" stop-opacity="1"/>
            <stop offset="0.328125" stop-color="rgb(95.88623%, 95.811462%, 95.831299%)" stop-opacity="1"/>
            <stop offset="0.347656" stop-color="rgb(95.648193%, 95.568848%, 95.588684%)" stop-opacity="1"/>
            <stop offset="0.367188" stop-color="rgb(95.40863%, 95.326233%, 95.346069%)" stop-opacity="1"/>
            <stop offset="0.386719" stop-color="rgb(95.196533%, 95.109558%, 95.13092%)" stop-opacity="1"/>
            <stop offset="0.402344" stop-color="rgb(95.005798%, 94.915771%, 94.93866%)" stop-opacity="1"/>
            <stop offset="0.417969" stop-color="rgb(94.813538%, 94.718933%, 94.743347%)" stop-opacity="1"/>
            <stop offset="0.433594" stop-color="rgb(94.624329%, 94.526672%, 94.551086%)" stop-opacity="1"/>
            <stop offset="0.449219" stop-color="rgb(94.43512%, 94.334412%, 94.358826%)" stop-opacity="1"/>
            <stop offset="0.464844" stop-color="rgb(94.245911%, 94.140625%, 94.166565%)" stop-opacity="1"/>
            <stop offset="0.480469" stop-color="rgb(94.05365%, 93.945312%, 93.971252%)" stop-opacity="1"/>
            <stop offset="0.496094" stop-color="rgb(93.864441%, 93.753052%, 93.780518%)" stop-opacity="1"/>
            <stop offset="0.511719" stop-color="rgb(93.603516%, 93.486023%, 93.515015%)" stop-opacity="1"/>
            <stop offset="0.539062" stop-color="rgb(93.269348%, 93.145752%, 93.17627%)" stop-opacity="1"/>
            <stop offset="0.566406" stop-color="rgb(92.961121%, 92.832947%, 92.86499%)" stop-opacity="1"/>
            <stop offset="0.589844" stop-color="rgb(92.674255%, 92.539978%, 92.573547%)" stop-opacity="1"/>
            <stop offset="0.613281" stop-color="rgb(92.388916%, 92.250061%, 92.285156%)" stop-opacity="1"/>
            <stop offset="0.636719" stop-color="rgb(92.127991%, 91.984558%, 92.019653%)" stop-opacity="1"/>
            <stop offset="0.65625" stop-color="rgb(91.888428%, 91.741943%, 91.778564%)" stop-opacity="1"/>
            <stop offset="0.675781" stop-color="rgb(91.651917%, 91.500854%, 91.537476%)" stop-opacity="1"/>
            <stop offset="0.695312" stop-color="rgb(91.436768%, 91.281128%, 91.319275%)" stop-opacity="1"/>
            <stop offset="0.710938" stop-color="rgb(91.246033%, 91.087341%, 91.127014%)" stop-opacity="1"/>
            <stop offset="0.726562" stop-color="rgb(91.056824%, 90.895081%, 90.934753%)" stop-opacity="1"/>
            <stop offset="0.742188" stop-color="rgb(90.867615%, 90.701294%, 90.742493%)" stop-opacity="1"/>
            <stop offset="0.757812" stop-color="rgb(90.603638%, 90.432739%, 90.475464%)" stop-opacity="1"/>
            <stop offset="0.785156" stop-color="rgb(90.296936%, 90.119934%, 90.164185%)" stop-opacity="1"/>
            <stop offset="0.808594" stop-color="rgb(90.008545%, 89.826965%, 89.872742%)" stop-opacity="1"/>
            <stop offset="0.832031" stop-color="rgb(89.749146%, 89.561462%, 89.608765%)" stop-opacity="1"/>
            <stop offset="0.851562" stop-color="rgb(89.535522%, 89.344788%, 89.39209%)" stop-opacity="1"/>
            <stop offset="0.867188" stop-color="rgb(89.343262%, 89.149475%, 89.196777%)" stop-opacity="1"/>
            <stop offset="0.882812" stop-color="rgb(89.083862%, 88.885498%, 88.934326%)" stop-opacity="1"/>
            <stop offset="0.910156" stop-color="rgb(88.798523%, 88.594055%, 88.644409%)" stop-opacity="1"/>
            <stop offset="0.929688" stop-color="rgb(88.581848%, 88.374329%, 88.426208%)" stop-opacity="1"/>
            <stop offset="0.945312" stop-color="rgb(88.320923%, 88.108826%, 88.162231%)" stop-opacity="1"/>
            <stop offset="0.972656" stop-color="rgb(87.986755%, 87.768555%, 87.823486%)" stop-opacity="1"/>
            <stop offset="1" stop-color="rgb(87.820435%, 87.599182%, 87.654114%)" stop-opacity="1"/>
        </radialGradient>
    </defs>
    <g clip-path="url(#clip-0)">
        <path fill-rule="nonzero" fill="url(#radial-pattern-0)"
              d="M 0.5 0.5 L 0.5 3000.5 L 3000.5 3000.5 L 3000.5 0.5 Z M 0.5 0.5 "/>
    </g>
    <path fill="none" stroke-width="10" stroke-linecap="butt" stroke-linejoin="miter"
          stroke="rgb(13.729858%, 12.159729%, 12.548828%)" stroke-opacity="1" stroke-miterlimit="10"
          d="M 30005 5 L 5 5 L 5 30005 L 30005 30005 Z M 30005 5 " transform="matrix(0.1, 0, 0, -0.1, 0, 3001)"/>
    <path fill-rule="nonzero" fill="rgb(13.729858%, 12.159729%, 12.548828%)" fill-opacity="1"
          d="M 429.070312 873.441406 C 429.070312 848.890625 449.160156 828.800781 473.714844 828.800781 C 498.265625 828.800781 518.355469 848.890625 518.355469 873.441406 C 518.355469 897.988281 498.265625 918.078125 473.714844 918.078125 C 449.160156 918.078125 429.070312 897.988281 429.070312 873.441406 "/>
    <path fill-rule="nonzero" fill="rgb(13.729858%, 12.159729%, 12.548828%)" fill-opacity="1"
          d="M 2393.359375 1453.800781 C 2393.359375 1478.351562 2373.269531 1498.441406 2348.710938 1498.441406 C 2324.160156 1498.441406 2304.070312 1478.351562 2304.070312 1453.800781 L 2304.070312 1364.511719 C 2304.070312 1339.960938 2324.160156 1319.871094 2348.710938 1319.871094 C 2373.269531 1319.871094 2393.359375 1339.960938 2393.359375 1364.511719 Z M 2304.070312 1677.011719 L 2125.5 1677.011719 C 2100.949219 1677.011719 2080.859375 1656.921875 2080.859375 1632.371094 C 2080.859375 1607.820312 2100.949219 1587.730469 2125.5 1587.730469 L 2304.070312 1587.730469 C 2328.621094 1587.730469 2348.710938 1607.820312 2348.710938 1632.371094 C 2348.710938 1656.921875 2328.621094 1677.011719 2304.070312 1677.011719 Z M 2036.210938 1453.800781 L 2036.210938 1364.511719 C 2036.210938 1339.960938 2056.300781 1319.871094 2080.859375 1319.871094 C 2105.410156 1319.871094 2125.5 1339.960938 2125.5 1364.511719 L 2125.5 1453.800781 C 2125.5 1478.351562 2105.410156 1498.441406 2080.859375 1498.441406 C 2056.300781 1498.441406 2036.210938 1478.351562 2036.210938 1453.800781 Z M 2460.320312 1230.578125 L 1969.25 1230.578125 C 1956.75 1230.578125 1946.929688 1240.398438 1946.929688 1252.910156 L 1946.929688 1743.980469 C 1946.929688 1756.480469 1956.75 1766.300781 1969.25 1766.300781 L 2460.320312 1766.300781 C 2472.820312 1766.300781 2482.640625 1756.480469 2482.640625 1743.980469 L 2482.640625 1252.910156 C 2482.640625 1240.398438 2472.820312 1230.578125 2460.320312 1230.578125 Z M 2527.289062 828.800781 C 2502.730469 828.800781 2482.640625 848.890625 2482.640625 873.441406 C 2482.640625 897.988281 2502.730469 918.078125 2527.289062 918.078125 C 2551.839844 918.078125 2571.929688 897.988281 2571.929688 873.441406 C 2571.929688 848.890625 2551.839844 828.800781 2527.289062 828.800781 Z M 2527.289062 828.800781 C 2502.730469 828.800781 2482.640625 848.890625 2482.640625 873.441406 C 2482.640625 897.988281 2502.730469 918.078125 2527.289062 918.078125 C 2551.839844 918.078125 2571.929688 897.988281 2571.929688 873.441406 C 2571.929688 848.890625 2551.839844 828.800781 2527.289062 828.800781 Z M 2393.359375 1453.800781 C 2393.359375 1478.351562 2373.269531 1498.441406 2348.710938 1498.441406 C 2324.160156 1498.441406 2304.070312 1478.351562 2304.070312 1453.800781 L 2304.070312 1364.511719 C 2304.070312 1339.960938 2324.160156 1319.871094 2348.710938 1319.871094 C 2373.269531 1319.871094 2393.359375 1339.960938 2393.359375 1364.511719 Z M 2304.070312 1677.011719 L 2125.5 1677.011719 C 2100.949219 1677.011719 2080.859375 1656.921875 2080.859375 1632.371094 C 2080.859375 1607.820312 2100.949219 1587.730469 2125.5 1587.730469 L 2304.070312 1587.730469 C 2328.621094 1587.730469 2348.710938 1607.820312 2348.710938 1632.371094 C 2348.710938 1656.921875 2328.621094 1677.011719 2304.070312 1677.011719 Z M 2036.210938 1453.800781 L 2036.210938 1364.511719 C 2036.210938 1339.960938 2056.300781 1319.871094 2080.859375 1319.871094 C 2105.410156 1319.871094 2125.5 1339.960938 2125.5 1364.511719 L 2125.5 1453.800781 C 2125.5 1478.351562 2105.410156 1498.441406 2080.859375 1498.441406 C 2056.300781 1498.441406 2036.210938 1478.351562 2036.210938 1453.800781 Z M 2460.320312 1230.578125 L 1969.25 1230.578125 C 1956.75 1230.578125 1946.929688 1240.398438 1946.929688 1252.910156 L 1946.929688 1743.980469 C 1946.929688 1756.480469 1956.75 1766.300781 1969.25 1766.300781 L 2460.320312 1766.300781 C 2472.820312 1766.300781 2482.640625 1756.480469 2482.640625 1743.980469 L 2482.640625 1252.910156 C 2482.640625 1240.398438 2472.820312 1230.578125 2460.320312 1230.578125 Z M 2393.359375 1453.800781 C 2393.359375 1478.351562 2373.269531 1498.441406 2348.710938 1498.441406 C 2324.160156 1498.441406 2304.070312 1478.351562 2304.070312 1453.800781 L 2304.070312 1364.511719 C 2304.070312 1339.960938 2324.160156 1319.871094 2348.710938 1319.871094 C 2373.269531 1319.871094 2393.359375 1339.960938 2393.359375 1364.511719 Z M 2304.070312 1677.011719 L 2125.5 1677.011719 C 2100.949219 1677.011719 2080.859375 1656.921875 2080.859375 1632.371094 C 2080.859375 1607.820312 2100.949219 1587.730469 2125.5 1587.730469 L 2304.070312 1587.730469 C 2328.621094 1587.730469 2348.710938 1607.820312 2348.710938 1632.371094 C 2348.710938 1656.921875 2328.621094 1677.011719 2304.070312 1677.011719 Z M 2036.210938 1453.800781 L 2036.210938 1364.511719 C 2036.210938 1339.960938 2056.300781 1319.871094 2080.859375 1319.871094 C 2105.410156 1319.871094 2125.5 1339.960938 2125.5 1364.511719 L 2125.5 1453.800781 C 2125.5 1478.351562 2105.410156 1498.441406 2080.859375 1498.441406 C 2056.300781 1498.441406 2036.210938 1478.351562 2036.210938 1453.800781 Z M 2460.320312 1230.578125 L 1969.25 1230.578125 C 1956.75 1230.578125 1946.929688 1240.398438 1946.929688 1252.910156 L 1946.929688 1743.980469 C 1946.929688 1756.480469 1956.75 1766.300781 1969.25 1766.300781 L 2460.320312 1766.300781 C 2472.820312 1766.300781 2482.640625 1756.480469 2482.640625 1743.980469 L 2482.640625 1252.910156 C 2482.640625 1240.398438 2472.820312 1230.578125 2460.320312 1230.578125 Z M 2527.289062 2078.800781 C 2502.730469 2078.800781 2482.640625 2098.890625 2482.640625 2123.441406 C 2482.640625 2147.988281 2502.730469 2168.078125 2527.289062 2168.078125 C 2551.839844 2168.078125 2571.929688 2147.988281 2571.929688 2123.441406 C 2571.929688 2098.890625 2551.839844 2078.800781 2527.289062 2078.800781 Z M 2527.289062 828.800781 C 2502.730469 828.800781 2482.640625 848.890625 2482.640625 873.441406 C 2482.640625 897.988281 2502.730469 918.078125 2527.289062 918.078125 C 2551.839844 918.078125 2571.929688 897.988281 2571.929688 873.441406 C 2571.929688 848.890625 2551.839844 828.800781 2527.289062 828.800781 Z M 2527.289062 828.800781 C 2502.730469 828.800781 2482.640625 848.890625 2482.640625 873.441406 C 2482.640625 897.988281 2502.730469 918.078125 2527.289062 918.078125 C 2551.839844 918.078125 2571.929688 897.988281 2571.929688 873.441406 C 2571.929688 848.890625 2551.839844 828.800781 2527.289062 828.800781 Z M 2527.289062 2078.800781 C 2502.730469 2078.800781 2482.640625 2098.890625 2482.640625 2123.441406 C 2482.640625 2147.988281 2502.730469 2168.078125 2527.289062 2168.078125 C 2551.839844 2168.078125 2571.929688 2147.988281 2571.929688 2123.441406 C 2571.929688 2098.890625 2551.839844 2078.800781 2527.289062 2078.800781 Z M 2393.359375 1453.800781 C 2393.359375 1478.351562 2373.269531 1498.441406 2348.710938 1498.441406 C 2324.160156 1498.441406 2304.070312 1478.351562 2304.070312 1453.800781 L 2304.070312 1364.511719 C 2304.070312 1339.960938 2324.160156 1319.871094 2348.710938 1319.871094 C 2373.269531 1319.871094 2393.359375 1339.960938 2393.359375 1364.511719 Z M 2304.070312 1677.011719 L 2125.5 1677.011719 C 2100.949219 1677.011719 2080.859375 1656.921875 2080.859375 1632.371094 C 2080.859375 1607.820312 2100.949219 1587.730469 2125.5 1587.730469 L 2304.070312 1587.730469 C 2328.621094 1587.730469 2348.710938 1607.820312 2348.710938 1632.371094 C 2348.710938 1656.921875 2328.621094 1677.011719 2304.070312 1677.011719 Z M 2036.210938 1453.800781 L 2036.210938 1364.511719 C 2036.210938 1339.960938 2056.300781 1319.871094 2080.859375 1319.871094 C 2105.410156 1319.871094 2125.5 1339.960938 2125.5 1364.511719 L 2125.5 1453.800781 C 2125.5 1478.351562 2105.410156 1498.441406 2080.859375 1498.441406 C 2056.300781 1498.441406 2036.210938 1478.351562 2036.210938 1453.800781 Z M 2460.320312 1230.578125 L 1969.25 1230.578125 C 1956.75 1230.578125 1946.929688 1240.398438 1946.929688 1252.910156 L 1946.929688 1743.980469 C 1946.929688 1756.480469 1956.75 1766.300781 1969.25 1766.300781 L 2460.320312 1766.300781 C 2472.820312 1766.300781 2482.640625 1756.480469 2482.640625 1743.980469 L 2482.640625 1252.910156 C 2482.640625 1240.398438 2472.820312 1230.578125 2460.320312 1230.578125 Z M 2393.359375 1453.800781 C 2393.359375 1478.351562 2373.269531 1498.441406 2348.710938 1498.441406 C 2324.160156 1498.441406 2304.070312 1478.351562 2304.070312 1453.800781 L 2304.070312 1364.511719 C 2304.070312 1339.960938 2324.160156 1319.871094 2348.710938 1319.871094 C 2373.269531 1319.871094 2393.359375 1339.960938 2393.359375 1364.511719 Z M 2304.070312 1677.011719 L 2125.5 1677.011719 C 2100.949219 1677.011719 2080.859375 1656.921875 2080.859375 1632.371094 C 2080.859375 1607.820312 2100.949219 1587.730469 2125.5 1587.730469 L 2304.070312 1587.730469 C 2328.621094 1587.730469 2348.710938 1607.820312 2348.710938 1632.371094 C 2348.710938 1656.921875 2328.621094 1677.011719 2304.070312 1677.011719 Z M 2036.210938 1453.800781 L 2036.210938 1364.511719 C 2036.210938 1339.960938 2056.300781 1319.871094 2080.859375 1319.871094 C 2105.410156 1319.871094 2125.5 1339.960938 2125.5 1364.511719 L 2125.5 1453.800781 C 2125.5 1478.351562 2105.410156 1498.441406 2080.859375 1498.441406 C 2056.300781 1498.441406 2036.210938 1478.351562 2036.210938 1453.800781 Z M 2460.320312 1230.578125 L 1969.25 1230.578125 C 1956.75 1230.578125 1946.929688 1240.398438 1946.929688 1252.910156 L 1946.929688 1743.980469 C 1946.929688 1756.480469 1956.75 1766.300781 1969.25 1766.300781 L 2460.320312 1766.300781 C 2472.820312 1766.300781 2482.640625 1756.480469 2482.640625 1743.980469 L 2482.640625 1252.910156 C 2482.640625 1240.398438 2472.820312 1230.578125 2460.320312 1230.578125 Z M 2527.289062 2078.800781 C 2502.730469 2078.800781 2482.640625 2098.890625 2482.640625 2123.441406 C 2482.640625 2147.988281 2502.730469 2168.078125 2527.289062 2168.078125 C 2551.839844 2168.078125 2571.929688 2147.988281 2571.929688 2123.441406 C 2571.929688 2098.890625 2551.839844 2078.800781 2527.289062 2078.800781 Z M 2527.289062 828.800781 C 2502.730469 828.800781 2482.640625 848.890625 2482.640625 873.441406 C 2482.640625 897.988281 2502.730469 918.078125 2527.289062 918.078125 C 2551.839844 918.078125 2571.929688 897.988281 2571.929688 873.441406 C 2571.929688 848.890625 2551.839844 828.800781 2527.289062 828.800781 Z M 2527.289062 828.800781 C 2502.730469 828.800781 2482.640625 848.890625 2482.640625 873.441406 C 2482.640625 897.988281 2502.730469 918.078125 2527.289062 918.078125 C 2551.839844 918.078125 2571.929688 897.988281 2571.929688 873.441406 C 2571.929688 848.890625 2551.839844 828.800781 2527.289062 828.800781 Z M 2527.289062 2078.800781 C 2502.730469 2078.800781 2482.640625 2098.890625 2482.640625 2123.441406 C 2482.640625 2147.988281 2502.730469 2168.078125 2527.289062 2168.078125 C 2551.839844 2168.078125 2571.929688 2147.988281 2571.929688 2123.441406 C 2571.929688 2098.890625 2551.839844 2078.800781 2527.289062 2078.800781 Z M 2393.359375 1453.800781 C 2393.359375 1478.351562 2373.269531 1498.441406 2348.710938 1498.441406 C 2324.160156 1498.441406 2304.070312 1478.351562 2304.070312 1453.800781 L 2304.070312 1364.511719 C 2304.070312 1339.960938 2324.160156 1319.871094 2348.710938 1319.871094 C 2373.269531 1319.871094 2393.359375 1339.960938 2393.359375 1364.511719 Z M 2304.070312 1677.011719 L 2125.5 1677.011719 C 2100.949219 1677.011719 2080.859375 1656.921875 2080.859375 1632.371094 C 2080.859375 1607.820312 2100.949219 1587.730469 2125.5 1587.730469 L 2304.070312 1587.730469 C 2328.621094 1587.730469 2348.710938 1607.820312 2348.710938 1632.371094 C 2348.710938 1656.921875 2328.621094 1677.011719 2304.070312 1677.011719 Z M 2036.210938 1453.800781 L 2036.210938 1364.511719 C 2036.210938 1339.960938 2056.300781 1319.871094 2080.859375 1319.871094 C 2105.410156 1319.871094 2125.5 1339.960938 2125.5 1364.511719 L 2125.5 1453.800781 C 2125.5 1478.351562 2105.410156 1498.441406 2080.859375 1498.441406 C 2056.300781 1498.441406 2036.210938 1478.351562 2036.210938 1453.800781 Z M 2460.320312 1230.578125 L 1969.25 1230.578125 C 1956.75 1230.578125 1946.929688 1240.398438 1946.929688 1252.910156 L 1946.929688 1743.980469 C 1946.929688 1756.480469 1956.75 1766.300781 1969.25 1766.300781 L 2460.320312 1766.300781 C 2472.820312 1766.300781 2482.640625 1756.480469 2482.640625 1743.980469 L 2482.640625 1252.910156 C 2482.640625 1240.398438 2472.820312 1230.578125 2460.320312 1230.578125 Z M 473.714844 2078.800781 C 449.160156 2078.800781 429.070312 2098.890625 429.070312 2123.441406 C 429.070312 2147.988281 449.160156 2168.078125 473.714844 2168.078125 C 498.265625 2168.078125 518.355469 2147.988281 518.355469 2123.441406 C 518.355469 2098.890625 498.265625 2078.800781 473.714844 2078.800781 Z M 654.515625 1543.078125 L 520.589844 1543.078125 C 530.410156 1669.421875 580.410156 1784.601562 658.535156 1875.671875 L 753.179688 1780.578125 C 699.160156 1714.511719 663.445312 1632.820312 654.515625 1543.078125 Z M 753.179688 1216.300781 L 658.535156 1121.210938 C 580.410156 1212.28125 530.410156 1327.460938 520.589844 1453.800781 L 654.515625 1453.800781 C 663.445312 1364.070312 699.160156 1282.371094 753.179688 1216.300781 Z M 817.019531 1279.691406 C 778.625 1329.25 752.730469 1388.621094 744.695312 1453.800781 L 991.125 1453.800781 Z M 817.019531 1717.191406 L 991.125 1543.078125 L 744.695312 1543.078125 C 752.730469 1608.261719 778.625 1667.640625 817.019531 1717.191406 Z M 816.570312 1152.910156 C 882.644531 1098.890625 964.339844 1063.171875 1054.070312 1054.238281 L 1054.070312 920.308594 C 927.734375 930.140625 812.554688 980.140625 721.480469 1058.261719 Z M 1054.070312 1390.851562 L 1054.070312 1144.421875 C 988.894531 1152.460938 929.519531 1178.351562 879.964844 1216.738281 Z M 1054.070312 1852.460938 L 1054.070312 1606.03125 L 879.964844 1780.140625 C 929.519531 1818.53125 988.894531 1844.421875 1054.070312 1852.460938 Z M 721.480469 1938.621094 C 812.554688 2016.738281 927.734375 2066.738281 1054.070312 2076.570312 L 1054.070312 1942.640625 C 964.339844 1933.710938 882.644531 1898 816.570312 1843.980469 Z M 1143.359375 1606.03125 L 1143.359375 1852.460938 C 1208.539062 1844.421875 1267.910156 1818.53125 1317.46875 1780.140625 Z M 1143.359375 1144.421875 L 1143.359375 1390.851562 L 1317.46875 1216.738281 C 1267.910156 1178.351562 1208.539062 1152.460938 1143.359375 1144.421875 Z M 1380.410156 1717.191406 C 1418.808594 1667.640625 1444.699219 1608.261719 1452.730469 1543.078125 L 1206.308594 1543.078125 Z M 1380.410156 1279.691406 L 1206.308594 1453.800781 L 1452.730469 1453.800781 C 1444.699219 1388.621094 1418.808594 1329.25 1380.410156 1279.691406 Z M 1143.359375 1942.640625 L 1143.359375 2076.570312 C 1269.699219 2066.738281 1384.878906 2016.738281 1475.949219 1938.621094 L 1380.859375 1843.980469 C 1314.789062 1898 1233.089844 1933.710938 1143.359375 1942.640625 Z M 1475.949219 1058.261719 C 1384.878906 980.140625 1269.699219 930.140625 1143.359375 920.308594 L 1143.359375 1054.238281 C 1233.089844 1063.171875 1314.789062 1098.890625 1380.859375 1152.910156 Z M 1444.25 1780.578125 L 1538.890625 1875.671875 C 1617.019531 1784.601562 1667.019531 1669.421875 1676.839844 1543.078125 L 1542.910156 1543.078125 C 1533.980469 1632.820312 1498.269531 1714.511719 1444.25 1780.578125 Z M 1444.25 1216.300781 C 1498.269531 1282.371094 1533.980469 1364.070312 1542.910156 1453.800781 L 1676.839844 1453.800781 C 1667.019531 1327.460938 1617.019531 1212.28125 1538.890625 1121.210938 Z M 2393.359375 1453.800781 C 2393.359375 1478.351562 2373.269531 1498.441406 2348.710938 1498.441406 C 2324.160156 1498.441406 2304.070312 1478.351562 2304.070312 1453.800781 L 2304.070312 1364.511719 C 2304.070312 1339.960938 2324.160156 1319.871094 2348.710938 1319.871094 C 2373.269531 1319.871094 2393.359375 1339.960938 2393.359375 1364.511719 Z M 2304.070312 1677.011719 L 2125.5 1677.011719 C 2100.949219 1677.011719 2080.859375 1656.921875 2080.859375 1632.371094 C 2080.859375 1607.820312 2100.949219 1587.730469 2125.5 1587.730469 L 2304.070312 1587.730469 C 2328.621094 1587.730469 2348.710938 1607.820312 2348.710938 1632.371094 C 2348.710938 1656.921875 2328.621094 1677.011719 2304.070312 1677.011719 Z M 2036.210938 1453.800781 L 2036.210938 1364.511719 C 2036.210938 1339.960938 2056.300781 1319.871094 2080.859375 1319.871094 C 2105.410156 1319.871094 2125.5 1339.960938 2125.5 1364.511719 L 2125.5 1453.800781 C 2125.5 1478.351562 2105.410156 1498.441406 2080.859375 1498.441406 C 2056.300781 1498.441406 2036.210938 1478.351562 2036.210938 1453.800781 Z M 2482.640625 1743.980469 L 2482.640625 1252.910156 C 2482.640625 1240.398438 2472.820312 1230.578125 2460.320312 1230.578125 L 1969.25 1230.578125 C 1956.75 1230.578125 1946.929688 1240.398438 1946.929688 1252.910156 L 1946.929688 1743.980469 C 1946.929688 1756.480469 1956.75 1766.300781 1969.25 1766.300781 L 2460.320312 1766.300781 C 2472.820312 1766.300781 2482.640625 1756.480469 2482.640625 1743.980469 Z M 2527.289062 2078.800781 C 2502.730469 2078.800781 2482.640625 2098.890625 2482.640625 2123.441406 C 2482.640625 2147.988281 2502.730469 2168.078125 2527.289062 2168.078125 C 2551.839844 2168.078125 2571.929688 2147.988281 2571.929688 2123.441406 C 2571.929688 2098.890625 2551.839844 2078.800781 2527.289062 2078.800781 Z M 2527.289062 828.800781 C 2502.730469 828.800781 2482.640625 848.890625 2482.640625 873.441406 C 2482.640625 897.988281 2502.730469 918.078125 2527.289062 918.078125 C 2551.839844 918.078125 2571.929688 897.988281 2571.929688 873.441406 C 2571.929688 848.890625 2551.839844 828.800781 2527.289062 828.800781 Z M 2527.289062 1007.371094 C 2453.628906 1007.371094 2393.359375 947.101562 2393.359375 873.441406 C 2393.359375 799.78125 2453.628906 739.511719 2527.289062 739.511719 C 2600.949219 739.511719 2661.210938 799.78125 2661.210938 873.441406 C 2661.210938 947.101562 2600.949219 1007.371094 2527.289062 1007.371094 Z M 2527.289062 2257.371094 C 2453.628906 2257.371094 2393.359375 2197.101562 2393.359375 2123.441406 C 2393.359375 2049.78125 2453.628906 1989.511719 2527.289062 1989.511719 C 2600.949219 1989.511719 2661.210938 2049.78125 2661.210938 2123.441406 C 2661.210938 2197.101562 2600.949219 2257.371094 2527.289062 2257.371094 Z M 1857.640625 1743.980469 L 1857.640625 1252.910156 C 1857.640625 1191.300781 1907.640625 1141.300781 1969.25 1141.300781 L 2460.320312 1141.300781 C 2521.929688 1141.300781 2571.929688 1191.300781 2571.929688 1252.910156 L 2571.929688 1743.980469 C 2571.929688 1805.578125 2521.929688 1855.578125 2460.320312 1855.578125 L 1969.25 1855.578125 C 1907.640625 1855.578125 1857.640625 1805.578125 1857.640625 1743.980469 Z M 1573.269531 1970.320312 C 1572.820312 1970.761719 1572.820312 1971.648438 1572.371094 1972.101562 C 1571.929688 1972.550781 1571.039062 1972.550781 1570.589844 1973 C 1449.609375 2093.53125 1282.640625 2168.078125 1098.710938 2168.078125 C 914.785156 2168.078125 747.820312 2093.53125 626.839844 1973 C 626.394531 1972.550781 625.5 1972.550781 625.054688 1972.101562 C 624.605469 1971.648438 624.605469 1970.761719 624.160156 1970.320312 C 503.628906 1849.328125 429.070312 1682.371094 429.070312 1498.441406 C 429.070312 1314.511719 503.628906 1147.550781 624.160156 1026.570312 C 624.605469 1026.121094 624.605469 1025.230469 625.054688 1024.78125 C 625.5 1024.328125 626.394531 1024.328125 626.839844 1023.890625 C 747.820312 903.351562 914.785156 828.800781 1098.710938 828.800781 C 1282.640625 828.800781 1449.609375 903.351562 1570.589844 1023.890625 C 1571.039062 1024.328125 1571.929688 1024.328125 1572.371094 1024.78125 C 1572.820312 1025.230469 1572.820312 1026.121094 1573.269531 1026.570312 C 1693.800781 1147.550781 1768.359375 1314.511719 1768.359375 1498.441406 C 1768.359375 1682.371094 1693.800781 1849.328125 1573.269531 1970.320312 Z M 473.714844 2257.371094 C 400.054688 2257.371094 339.785156 2197.101562 339.785156 2123.441406 C 339.785156 2049.78125 400.054688 1989.511719 473.714844 1989.511719 C 547.375 1989.511719 607.644531 2049.78125 607.644531 2123.441406 C 607.644531 2197.101562 547.375 2257.371094 473.714844 2257.371094 Z M 473.714844 739.511719 C 547.375 739.511719 607.644531 799.78125 607.644531 873.441406 C 607.644531 947.101562 547.375 1007.371094 473.714844 1007.371094 C 400.054688 1007.371094 339.785156 947.101562 339.785156 873.441406 C 339.785156 799.78125 400.054688 739.511719 473.714844 739.511719 Z M 2661.210938 650.230469 L 339.785156 650.230469 C 290.679688 650.230469 250.5 690.410156 250.5 739.511719 L 250.5 2257.371094 C 250.5 2306.480469 290.679688 2346.660156 339.785156 2346.660156 L 2661.210938 2346.660156 C 2710.320312 2346.660156 2750.5 2306.480469 2750.5 2257.371094 L 2750.5 739.511719 C 2750.5 690.410156 2710.320312 650.230469 2661.210938 650.230469 Z M 473.714844 2078.800781 C 449.160156 2078.800781 429.070312 2098.890625 429.070312 2123.441406 C 429.070312 2147.988281 449.160156 2168.078125 473.714844 2168.078125 C 498.265625 2168.078125 518.355469 2147.988281 518.355469 2123.441406 C 518.355469 2098.890625 498.265625 2078.800781 473.714844 2078.800781 Z M 2393.359375 1453.800781 C 2393.359375 1478.351562 2373.269531 1498.441406 2348.710938 1498.441406 C 2324.160156 1498.441406 2304.070312 1478.351562 2304.070312 1453.800781 L 2304.070312 1364.511719 C 2304.070312 1339.960938 2324.160156 1319.871094 2348.710938 1319.871094 C 2373.269531 1319.871094 2393.359375 1339.960938 2393.359375 1364.511719 Z M 2304.070312 1677.011719 L 2125.5 1677.011719 C 2100.949219 1677.011719 2080.859375 1656.921875 2080.859375 1632.371094 C 2080.859375 1607.820312 2100.949219 1587.730469 2125.5 1587.730469 L 2304.070312 1587.730469 C 2328.621094 1587.730469 2348.710938 1607.820312 2348.710938 1632.371094 C 2348.710938 1656.921875 2328.621094 1677.011719 2304.070312 1677.011719 Z M 2036.210938 1453.800781 L 2036.210938 1364.511719 C 2036.210938 1339.960938 2056.300781 1319.871094 2080.859375 1319.871094 C 2105.410156 1319.871094 2125.5 1339.960938 2125.5 1364.511719 L 2125.5 1453.800781 C 2125.5 1478.351562 2105.410156 1498.441406 2080.859375 1498.441406 C 2056.300781 1498.441406 2036.210938 1478.351562 2036.210938 1453.800781 Z M 2460.320312 1230.578125 L 1969.25 1230.578125 C 1956.75 1230.578125 1946.929688 1240.398438 1946.929688 1252.910156 L 1946.929688 1743.980469 C 1946.929688 1756.480469 1956.75 1766.300781 1969.25 1766.300781 L 2460.320312 1766.300781 C 2472.820312 1766.300781 2482.640625 1756.480469 2482.640625 1743.980469 L 2482.640625 1252.910156 C 2482.640625 1240.398438 2472.820312 1230.578125 2460.320312 1230.578125 Z M 2527.289062 2078.800781 C 2502.730469 2078.800781 2482.640625 2098.890625 2482.640625 2123.441406 C 2482.640625 2147.988281 2502.730469 2168.078125 2527.289062 2168.078125 C 2551.839844 2168.078125 2571.929688 2147.988281 2571.929688 2123.441406 C 2571.929688 2098.890625 2551.839844 2078.800781 2527.289062 2078.800781 Z M 2527.289062 828.800781 C 2502.730469 828.800781 2482.640625 848.890625 2482.640625 873.441406 C 2482.640625 897.988281 2502.730469 918.078125 2527.289062 918.078125 C 2551.839844 918.078125 2571.929688 897.988281 2571.929688 873.441406 C 2571.929688 848.890625 2551.839844 828.800781 2527.289062 828.800781 Z M 2527.289062 828.800781 C 2502.730469 828.800781 2482.640625 848.890625 2482.640625 873.441406 C 2482.640625 897.988281 2502.730469 918.078125 2527.289062 918.078125 C 2551.839844 918.078125 2571.929688 897.988281 2571.929688 873.441406 C 2571.929688 848.890625 2551.839844 828.800781 2527.289062 828.800781 Z M 2527.289062 2078.800781 C 2502.730469 2078.800781 2482.640625 2098.890625 2482.640625 2123.441406 C 2482.640625 2147.988281 2502.730469 2168.078125 2527.289062 2168.078125 C 2551.839844 2168.078125 2571.929688 2147.988281 2571.929688 2123.441406 C 2571.929688 2098.890625 2551.839844 2078.800781 2527.289062 2078.800781 Z M 2393.359375 1453.800781 C 2393.359375 1478.351562 2373.269531 1498.441406 2348.710938 1498.441406 C 2324.160156 1498.441406 2304.070312 1478.351562 2304.070312 1453.800781 L 2304.070312 1364.511719 C 2304.070312 1339.960938 2324.160156 1319.871094 2348.710938 1319.871094 C 2373.269531 1319.871094 2393.359375 1339.960938 2393.359375 1364.511719 Z M 2304.070312 1677.011719 L 2125.5 1677.011719 C 2100.949219 1677.011719 2080.859375 1656.921875 2080.859375 1632.371094 C 2080.859375 1607.820312 2100.949219 1587.730469 2125.5 1587.730469 L 2304.070312 1587.730469 C 2328.621094 1587.730469 2348.710938 1607.820312 2348.710938 1632.371094 C 2348.710938 1656.921875 2328.621094 1677.011719 2304.070312 1677.011719 Z M 2036.210938 1453.800781 L 2036.210938 1364.511719 C 2036.210938 1339.960938 2056.300781 1319.871094 2080.859375 1319.871094 C 2105.410156 1319.871094 2125.5 1339.960938 2125.5 1364.511719 L 2125.5 1453.800781 C 2125.5 1478.351562 2105.410156 1498.441406 2080.859375 1498.441406 C 2056.300781 1498.441406 2036.210938 1478.351562 2036.210938 1453.800781 Z M 2460.320312 1230.578125 L 1969.25 1230.578125 C 1956.75 1230.578125 1946.929688 1240.398438 1946.929688 1252.910156 L 1946.929688 1743.980469 C 1946.929688 1756.480469 1956.75 1766.300781 1969.25 1766.300781 L 2460.320312 1766.300781 C 2472.820312 1766.300781 2482.640625 1756.480469 2482.640625 1743.980469 L 2482.640625 1252.910156 C 2482.640625 1240.398438 2472.820312 1230.578125 2460.320312 1230.578125 Z M 473.714844 2078.800781 C 449.160156 2078.800781 429.070312 2098.890625 429.070312 2123.441406 C 429.070312 2147.988281 449.160156 2168.078125 473.714844 2168.078125 C 498.265625 2168.078125 518.355469 2147.988281 518.355469 2123.441406 C 518.355469 2098.890625 498.265625 2078.800781 473.714844 2078.800781 Z M 2393.359375 1453.800781 C 2393.359375 1478.351562 2373.269531 1498.441406 2348.710938 1498.441406 C 2324.160156 1498.441406 2304.070312 1478.351562 2304.070312 1453.800781 L 2304.070312 1364.511719 C 2304.070312 1339.960938 2324.160156 1319.871094 2348.710938 1319.871094 C 2373.269531 1319.871094 2393.359375 1339.960938 2393.359375 1364.511719 Z M 2304.070312 1677.011719 L 2125.5 1677.011719 C 2100.949219 1677.011719 2080.859375 1656.921875 2080.859375 1632.371094 C 2080.859375 1607.820312 2100.949219 1587.730469 2125.5 1587.730469 L 2304.070312 1587.730469 C 2328.621094 1587.730469 2348.710938 1607.820312 2348.710938 1632.371094 C 2348.710938 1656.921875 2328.621094 1677.011719 2304.070312 1677.011719 Z M 2036.210938 1453.800781 L 2036.210938 1364.511719 C 2036.210938 1339.960938 2056.300781 1319.871094 2080.859375 1319.871094 C 2105.410156 1319.871094 2125.5 1339.960938 2125.5 1364.511719 L 2125.5 1453.800781 C 2125.5 1478.351562 2105.410156 1498.441406 2080.859375 1498.441406 C 2056.300781 1498.441406 2036.210938 1478.351562 2036.210938 1453.800781 Z M 2460.320312 1230.578125 L 1969.25 1230.578125 C 1956.75 1230.578125 1946.929688 1240.398438 1946.929688 1252.910156 L 1946.929688 1743.980469 C 1946.929688 1756.480469 1956.75 1766.300781 1969.25 1766.300781 L 2460.320312 1766.300781 C 2472.820312 1766.300781 2482.640625 1756.480469 2482.640625 1743.980469 L 2482.640625 1252.910156 C 2482.640625 1240.398438 2472.820312 1230.578125 2460.320312 1230.578125 Z M 2527.289062 2078.800781 C 2502.730469 2078.800781 2482.640625 2098.890625 2482.640625 2123.441406 C 2482.640625 2147.988281 2502.730469 2168.078125 2527.289062 2168.078125 C 2551.839844 2168.078125 2571.929688 2147.988281 2571.929688 2123.441406 C 2571.929688 2098.890625 2551.839844 2078.800781 2527.289062 2078.800781 Z M 2527.289062 828.800781 C 2502.730469 828.800781 2482.640625 848.890625 2482.640625 873.441406 C 2482.640625 897.988281 2502.730469 918.078125 2527.289062 918.078125 C 2551.839844 918.078125 2571.929688 897.988281 2571.929688 873.441406 C 2571.929688 848.890625 2551.839844 828.800781 2527.289062 828.800781 Z M 2527.289062 828.800781 C 2502.730469 828.800781 2482.640625 848.890625 2482.640625 873.441406 C 2482.640625 897.988281 2502.730469 918.078125 2527.289062 918.078125 C 2551.839844 918.078125 2571.929688 897.988281 2571.929688 873.441406 C 2571.929688 848.890625 2551.839844 828.800781 2527.289062 828.800781 Z M 2527.289062 2078.800781 C 2502.730469 2078.800781 2482.640625 2098.890625 2482.640625 2123.441406 C 2482.640625 2147.988281 2502.730469 2168.078125 2527.289062 2168.078125 C 2551.839844 2168.078125 2571.929688 2147.988281 2571.929688 2123.441406 C 2571.929688 2098.890625 2551.839844 2078.800781 2527.289062 2078.800781 Z M 2393.359375 1453.800781 C 2393.359375 1478.351562 2373.269531 1498.441406 2348.710938 1498.441406 C 2324.160156 1498.441406 2304.070312 1478.351562 2304.070312 1453.800781 L 2304.070312 1364.511719 C 2304.070312 1339.960938 2324.160156 1319.871094 2348.710938 1319.871094 C 2373.269531 1319.871094 2393.359375 1339.960938 2393.359375 1364.511719 Z M 2304.070312 1677.011719 L 2125.5 1677.011719 C 2100.949219 1677.011719 2080.859375 1656.921875 2080.859375 1632.371094 C 2080.859375 1607.820312 2100.949219 1587.730469 2125.5 1587.730469 L 2304.070312 1587.730469 C 2328.621094 1587.730469 2348.710938 1607.820312 2348.710938 1632.371094 C 2348.710938 1656.921875 2328.621094 1677.011719 2304.070312 1677.011719 Z M 2036.210938 1453.800781 L 2036.210938 1364.511719 C 2036.210938 1339.960938 2056.300781 1319.871094 2080.859375 1319.871094 C 2105.410156 1319.871094 2125.5 1339.960938 2125.5 1364.511719 L 2125.5 1453.800781 C 2125.5 1478.351562 2105.410156 1498.441406 2080.859375 1498.441406 C 2056.300781 1498.441406 2036.210938 1478.351562 2036.210938 1453.800781 Z M 2460.320312 1230.578125 L 1969.25 1230.578125 C 1956.75 1230.578125 1946.929688 1240.398438 1946.929688 1252.910156 L 1946.929688 1743.980469 C 1946.929688 1756.480469 1956.75 1766.300781 1969.25 1766.300781 L 2460.320312 1766.300781 C 2472.820312 1766.300781 2482.640625 1756.480469 2482.640625 1743.980469 L 2482.640625 1252.910156 C 2482.640625 1240.398438 2472.820312 1230.578125 2460.320312 1230.578125 Z M 2393.359375 1453.800781 C 2393.359375 1478.351562 2373.269531 1498.441406 2348.710938 1498.441406 C 2324.160156 1498.441406 2304.070312 1478.351562 2304.070312 1453.800781 L 2304.070312 1364.511719 C 2304.070312 1339.960938 2324.160156 1319.871094 2348.710938 1319.871094 C 2373.269531 1319.871094 2393.359375 1339.960938 2393.359375 1364.511719 Z M 2304.070312 1677.011719 L 2125.5 1677.011719 C 2100.949219 1677.011719 2080.859375 1656.921875 2080.859375 1632.371094 C 2080.859375 1607.820312 2100.949219 1587.730469 2125.5 1587.730469 L 2304.070312 1587.730469 C 2328.621094 1587.730469 2348.710938 1607.820312 2348.710938 1632.371094 C 2348.710938 1656.921875 2328.621094 1677.011719 2304.070312 1677.011719 Z M 2036.210938 1453.800781 L 2036.210938 1364.511719 C 2036.210938 1339.960938 2056.300781 1319.871094 2080.859375 1319.871094 C 2105.410156 1319.871094 2125.5 1339.960938 2125.5 1364.511719 L 2125.5 1453.800781 C 2125.5 1478.351562 2105.410156 1498.441406 2080.859375 1498.441406 C 2056.300781 1498.441406 2036.210938 1478.351562 2036.210938 1453.800781 Z M 2460.320312 1230.578125 L 1969.25 1230.578125 C 1956.75 1230.578125 1946.929688 1240.398438 1946.929688 1252.910156 L 1946.929688 1743.980469 C 1946.929688 1756.480469 1956.75 1766.300781 1969.25 1766.300781 L 2460.320312 1766.300781 C 2472.820312 1766.300781 2482.640625 1756.480469 2482.640625 1743.980469 L 2482.640625 1252.910156 C 2482.640625 1240.398438 2472.820312 1230.578125 2460.320312 1230.578125 Z M 2527.289062 2078.800781 C 2502.730469 2078.800781 2482.640625 2098.890625 2482.640625 2123.441406 C 2482.640625 2147.988281 2502.730469 2168.078125 2527.289062 2168.078125 C 2551.839844 2168.078125 2571.929688 2147.988281 2571.929688 2123.441406 C 2571.929688 2098.890625 2551.839844 2078.800781 2527.289062 2078.800781 Z M 2527.289062 828.800781 C 2502.730469 828.800781 2482.640625 848.890625 2482.640625 873.441406 C 2482.640625 897.988281 2502.730469 918.078125 2527.289062 918.078125 C 2551.839844 918.078125 2571.929688 897.988281 2571.929688 873.441406 C 2571.929688 848.890625 2551.839844 828.800781 2527.289062 828.800781 Z M 2527.289062 828.800781 C 2502.730469 828.800781 2482.640625 848.890625 2482.640625 873.441406 C 2482.640625 897.988281 2502.730469 918.078125 2527.289062 918.078125 C 2551.839844 918.078125 2571.929688 897.988281 2571.929688 873.441406 C 2571.929688 848.890625 2551.839844 828.800781 2527.289062 828.800781 Z M 2527.289062 2078.800781 C 2502.730469 2078.800781 2482.640625 2098.890625 2482.640625 2123.441406 C 2482.640625 2147.988281 2502.730469 2168.078125 2527.289062 2168.078125 C 2551.839844 2168.078125 2571.929688 2147.988281 2571.929688 2123.441406 C 2571.929688 2098.890625 2551.839844 2078.800781 2527.289062 2078.800781 Z M 2393.359375 1453.800781 C 2393.359375 1478.351562 2373.269531 1498.441406 2348.710938 1498.441406 C 2324.160156 1498.441406 2304.070312 1478.351562 2304.070312 1453.800781 L 2304.070312 1364.511719 C 2304.070312 1339.960938 2324.160156 1319.871094 2348.710938 1319.871094 C 2373.269531 1319.871094 2393.359375 1339.960938 2393.359375 1364.511719 Z M 2304.070312 1677.011719 L 2125.5 1677.011719 C 2100.949219 1677.011719 2080.859375 1656.921875 2080.859375 1632.371094 C 2080.859375 1607.820312 2100.949219 1587.730469 2125.5 1587.730469 L 2304.070312 1587.730469 C 2328.621094 1587.730469 2348.710938 1607.820312 2348.710938 1632.371094 C 2348.710938 1656.921875 2328.621094 1677.011719 2304.070312 1677.011719 Z M 2036.210938 1453.800781 L 2036.210938 1364.511719 C 2036.210938 1339.960938 2056.300781 1319.871094 2080.859375 1319.871094 C 2105.410156 1319.871094 2125.5 1339.960938 2125.5 1364.511719 L 2125.5 1453.800781 C 2125.5 1478.351562 2105.410156 1498.441406 2080.859375 1498.441406 C 2056.300781 1498.441406 2036.210938 1478.351562 2036.210938 1453.800781 Z M 2460.320312 1230.578125 L 1969.25 1230.578125 C 1956.75 1230.578125 1946.929688 1240.398438 1946.929688 1252.910156 L 1946.929688 1743.980469 C 1946.929688 1756.480469 1956.75 1766.300781 1969.25 1766.300781 L 2460.320312 1766.300781 C 2472.820312 1766.300781 2482.640625 1756.480469 2482.640625 1743.980469 L 2482.640625 1252.910156 C 2482.640625 1240.398438 2472.820312 1230.578125 2460.320312 1230.578125 Z M 2527.289062 828.800781 C 2502.730469 828.800781 2482.640625 848.890625 2482.640625 873.441406 C 2482.640625 897.988281 2502.730469 918.078125 2527.289062 918.078125 C 2551.839844 918.078125 2571.929688 897.988281 2571.929688 873.441406 C 2571.929688 848.890625 2551.839844 828.800781 2527.289062 828.800781 Z M 2527.289062 828.800781 C 2502.730469 828.800781 2482.640625 848.890625 2482.640625 873.441406 C 2482.640625 897.988281 2502.730469 918.078125 2527.289062 918.078125 C 2551.839844 918.078125 2571.929688 897.988281 2571.929688 873.441406 C 2571.929688 848.890625 2551.839844 828.800781 2527.289062 828.800781 "/>
</svg>
