<?xml version="1.0" encoding="UTF-8"?>
<svg xmlns="http://www.w3.org/2000/svg" xmlns:xlink="http://www.w3.org/1999/xlink" width="3750" height="3000"
     viewBox="0 0 3750 3000">


    <path fill-rule="nonzero" fill="rgb(3.921509%, 3.921509%, 3.921509%)" fill-opacity="1" stroke-width="22.4726"
          stroke-linecap="butt" stroke-linejoin="round" stroke="rgb(3.921509%, 3.921509%, 3.921509%)" stroke-opacity="1"
          stroke-miterlimit="10"
          d="M 9964.726562 12468.203125 L 9809.921875 13732.695312 L 10528.398438 13875 C 10528.398438 13875 10576.09375 13342.1875 10486.09375 12974.21875 C 10320.78125 12299.882812 9964.726562 12468.203125 9964.726562 12468.203125 Z M 9964.726562 12468.203125 "
          transform="matrix(0.1, 0, 0, -0.1, 0, 3000)"/>
    <path fill-rule="nonzero" fill="rgb(29.417419%, 29.80957%, 28.637695%)" fill-opacity="1" stroke-width="22.4726"
          stroke-linecap="butt" stroke-linejoin="round" stroke="rgb(29.417419%, 29.80957%, 28.637695%)"
          stroke-opacity="1" stroke-miterlimit="10"
          d="M 6447.5 12971.796875 C 6108.710938 15145 6598.75 17025.898438 7542.070312 17173.007812 C 8485.351562 17320 9524.609375 15677.5 9863.398438 13504.296875 C 10202.1875 11331.210938 9712.109375 9450.390625 8768.867188 9303.28125 C 7825.585938 9156.289062 6786.25 10798.710938 6447.5 12971.796875 Z M 6447.5 12971.796875 "
          transform="matrix(0.1, 0, 0, -0.1, 0, 3000)"/>
    <path fill-rule="nonzero" fill="rgb(76.951599%, 12.156677%, 5.488586%)" fill-opacity="1" stroke-width="22.4726"
          stroke-linecap="butt" stroke-linejoin="round" stroke="rgb(76.951599%, 12.156677%, 5.488586%)"
          stroke-opacity="1" stroke-miterlimit="10"
          d="M 6441.679688 13009.101562 C 6102.929688 15182.304688 6555.664062 17057.304688 7452.929688 17197.1875 C 8350.195312 17337.109375 9352.1875 15688.789062 9690.976562 13515.703125 C 10029.804688 11342.5 9576.992188 9467.460938 8679.765625 9327.617188 C 7782.460938 9187.734375 6780.46875 10836.015625 6441.679688 13009.101562 Z M 6441.679688 13009.101562 "
          transform="matrix(0.1, 0, 0, -0.1, 0, 3000)"/>
    <path fill-rule="nonzero" fill="rgb(45.872498%, 4.704285%, 0.784302%)" fill-opacity="1" stroke-width="22.4726"
          stroke-linecap="butt" stroke-linejoin="round" stroke="rgb(45.872498%, 4.704285%, 0.784302%)"
          stroke-opacity="1" stroke-miterlimit="10"
          d="M 8307.734375 12793.203125 C 8307.734375 12793.203125 8523.085938 12929.492188 8583.085938 13141.914062 C 8643.085938 13354.21875 8547.734375 13642.617188 8547.734375 13642.617188 L 8305.585938 13666.601562 Z M 8307.734375 12793.203125 "
          transform="matrix(0.1, 0, 0, -0.1, 0, 3000)"/>
    <path fill-rule="nonzero" fill="rgb(62.693787%, 63.867188%, 65.429688%)" fill-opacity="1" stroke-width="22.4726"
          stroke-linecap="butt" stroke-linejoin="round" stroke="rgb(62.693787%, 63.867188%, 65.429688%)"
          stroke-opacity="1" stroke-miterlimit="10"
          d="M 7287.460938 13410.3125 L 7378.867188 13242.109375 L 7706.171875 12828.90625 L 7974.960938 12824.804688 L 8193.242188 13521.796875 L 8033.90625 13815.390625 Z M 7287.460938 13410.3125 "
          transform="matrix(0.1, 0, 0, -0.1, 0, 3000)"/>
    <path fill-rule="nonzero" fill="rgb(80.076599%, 78.90625%, 80.46875%)" fill-opacity="1" stroke-width="22.4726"
          stroke-linecap="butt" stroke-linejoin="round" stroke="rgb(80.076599%, 78.90625%, 80.46875%)"
          stroke-opacity="1" stroke-miterlimit="10"
          d="M 6665.859375 13955.898438 C 6618.046875 14295.507812 6696.328125 14587.382812 6840.742188 14607.695312 C 6985.15625 14628.085938 7140.976562 14369.21875 7188.789062 14029.492188 C 7236.601562 13689.804688 7158.320312 13397.890625 7013.90625 13377.617188 C 6869.492188 13357.304688 6713.671875 13616.210938 6665.859375 13955.898438 Z M 6665.859375 13955.898438 "
          transform="matrix(0.1, 0, 0, -0.1, 0, 3000)"/>
    <path fill-rule="nonzero" fill="rgb(3.921509%, 3.921509%, 3.921509%)" fill-opacity="1" stroke-width="22.4726"
          stroke-linecap="butt" stroke-linejoin="round" stroke="rgb(11.767578%, 11.767578%, 12.547302%)"
          stroke-opacity="1" stroke-miterlimit="10"
          d="M 5568.125 13773.710938 C 5568.125 13773.710938 5683.90625 13760.585938 5733.75 13811.289062 C 5783.59375 13861.914062 5767.539062 13976.289062 5767.539062 13976.289062 L 6326.328125 14108.007812 L 6485.46875 15036.289062 L 6755.351562 14585.78125 C 6755.351562 14585.78125 6946.679688 14696.289062 7089.726562 14168.90625 C 7242.460938 13605.703125 6997.03125 13368.203125 6997.03125 13368.203125 L 8061.445312 13522.695312 C 8061.445312 13522.695312 8005.273438 12965 7838.554688 12894.6875 C 7671.835938 12824.492188 7378.867188 13242.109375 7378.867188 13242.109375 C 7378.867188 13242.109375 7494.726562 12972.1875 7622.617188 12844.296875 C 7750.507812 12716.40625 7890.46875 12730.507812 7890.46875 12730.507812 L 8307.734375 12793.203125 C 8307.734375 12793.203125 8376.914062 12948.59375 8410.664062 13131.484375 C 8444.335938 13314.414062 8442.539062 13524.804688 8442.539062 13524.804688 L 7437.070312 16453.789062 L 5448.28125 16965.117188 Z M 5568.125 13773.710938 "
          transform="matrix(0.1, 0, 0, -0.1, 0, 3000)"/>
    <path fill-rule="nonzero" fill="rgb(39.208984%, 39.208984%, 39.208984%)" fill-opacity="1" stroke-width="22.4726"
          stroke-linecap="butt" stroke-linejoin="round" stroke="rgb(39.208984%, 39.208984%, 39.208984%)"
          stroke-opacity="1" stroke-miterlimit="10"
          d="M 8781.679688 13536.015625 C 8781.679688 13536.015625 8108.007812 13503.710938 7770.390625 13536.601562 C 7432.695312 13569.492188 7430.976562 13667.890625 7430.976562 13667.890625 C 7430.976562 13667.890625 7259.023438 14537.304688 6931.914062 15172.1875 C 6604.804688 15807.109375 6400.351562 16174.492188 6122.617188 16207.304688 C 5844.84375 16240.117188 5636.09375 15796.601562 5636.09375 15796.601562 C 5636.09375 15796.601562 5687.773438 16902.109375 5656.132812 17702.890625 C 5624.53125 18503.59375 5509.53125 18999.414062 5509.53125 18999.414062 C 5509.53125 18999.414062 6374.023438 19361.914062 7192.1875 18935.703125 C 8010.390625 18509.492188 8782.1875 17294.609375 8782.1875 17294.609375 Z M 8781.679688 13536.015625 "
          transform="matrix(0.1, 0, 0, -0.1, 0, 3000)"/>
    <path fill-rule="nonzero" fill="rgb(25.097656%, 25.097656%, 25.097656%)" fill-opacity="1" stroke-width="22.4726"
          stroke-linecap="butt" stroke-linejoin="round" stroke="rgb(25.097656%, 25.097656%, 25.097656%)"
          stroke-opacity="1" stroke-miterlimit="10"
          d="M 10514.804688 16271.289062 L 11863.90625 16598.710938 C 11863.90625 16598.710938 11779.101562 17142.695312 11510.585938 17363.90625 C 11242.109375 17585.117188 10790 17483.398438 10790 17483.398438 L 10264.101562 17010.195312 Z M 10514.804688 16271.289062 "
          transform="matrix(0.1, 0, 0, -0.1, 0, 3000)"/>
    <path fill-rule="nonzero" fill="rgb(39.598083%, 39.988708%, 39.988708%)" fill-opacity="1" stroke-width="22.4726"
          stroke-linecap="butt" stroke-linejoin="round" stroke="rgb(39.598083%, 39.988708%, 39.988708%)"
          stroke-opacity="1" stroke-miterlimit="10"
          d="M 10514.804688 16271.289062 C 10514.804688 16271.289062 10959.6875 15012.5 11068.515625 14141.796875 C 11177.304688 13271.09375 10949.804688 12788.398438 10949.804688 12788.398438 L 12461.09375 13104.609375 C 12461.09375 13104.609375 12737.8125 14422.695312 12588.398438 15296.210938 C 12439.21875 16169.6875 11863.90625 16598.710938 11863.90625 16598.710938 Z M 10514.804688 16271.289062 "
          transform="matrix(0.1, 0, 0, -0.1, 0, 3000)"/>
    <path fill-rule="nonzero" fill="rgb(38.035583%, 38.035583%, 38.035583%)" fill-opacity="1" stroke-width="22.4726"
          stroke-linecap="butt" stroke-linejoin="round" stroke="rgb(38.035583%, 38.035583%, 38.035583%)"
          stroke-opacity="1" stroke-miterlimit="10"
          d="M 8764.492188 14363.984375 L 8275.273438 16298.007812 L 10325.507812 16829.21875 L 10928.203125 14869.296875 Z M 8764.492188 14363.984375 "
          transform="matrix(0.1, 0, 0, -0.1, 0, 3000)"/>
    <path fill-rule="nonzero" fill="rgb(21.166992%, 21.972656%, 21.556091%)" fill-opacity="1" stroke-width="22.4726"
          stroke-linecap="butt" stroke-linejoin="round" stroke="rgb(21.166992%, 21.972656%, 21.556091%)"
          stroke-opacity="1" stroke-miterlimit="10"
          d="M 12461.09375 13104.609375 C 12461.09375 13104.609375 12387.109375 12466.601562 12158.203125 12163.59375 C 11929.296875 11860.703125 11545.507812 11892.617188 11545.507812 11892.617188 C 11545.507812 11892.617188 10725.585938 11696.796875 10324.296875 11708.398438 C 9922.96875 11720 9940.195312 11938.984375 9940.195312 11938.984375 C 9940.195312 11938.984375 10191.09375 11685.703125 10453.710938 11885.3125 C 10796.796875 12146.015625 10949.804688 12788.398438 10949.804688 12788.398438 Z M 12461.09375 13104.609375 "
          transform="matrix(0.1, 0, 0, -0.1, 0, 3000)"/>
    <path fill-rule="nonzero" fill="rgb(32.542419%, 32.542419%, 32.542419%)" fill-opacity="1" stroke-width="22.4726"
          stroke-linecap="butt" stroke-linejoin="round" stroke="rgb(32.542419%, 32.542419%, 32.542419%)"
          stroke-opacity="1" stroke-miterlimit="10"
          d="M 13583.203125 10302.1875 L 14838.984375 10547.695312 L 15624.804688 11333.59375 L 15885.78125 14598.203125 L 14335.898438 14298.710938 Z M 13583.203125 10302.1875 "
          transform="matrix(0.1, 0, 0, -0.1, 0, 3000)"/>
    <path fill-rule="nonzero" fill="rgb(18.041992%, 18.041992%, 18.041992%)" fill-opacity="1" stroke-width="22.4726"
          stroke-linecap="butt" stroke-linejoin="round" stroke="rgb(18.041992%, 18.041992%, 18.041992%)"
          stroke-opacity="1" stroke-miterlimit="10"
          d="M 12358.59375 12608.90625 C 12358.59375 12608.90625 12421.40625 12828.203125 12461.09375 13104.609375 C 12500.78125 13381.09375 12517.1875 13714.804688 12517.1875 13714.804688 L 12683.789062 14628.515625 L 12369.6875 15247.1875 C 12369.6875 15247.1875 12016.289062 16470.507812 11619.492188 17025.78125 C 11222.8125 17581.210938 10782.695312 17468.710938 10782.695312 17468.710938 L 11686.210938 18918.085938 L 13645 18692.5 L 14738.203125 16841.71875 L 15070.390625 14371.796875 L 14651.71875 13845.195312 L 14564.101562 11909.609375 L 14227.890625 10746.992188 C 14227.890625 10746.992188 13914.101562 10382.890625 13583.203125 10302.1875 C 13252.304688 10221.71875 12904.101562 10424.492188 12904.101562 10424.492188 Z M 12358.59375 12608.90625 "
          transform="matrix(0.1, 0, 0, -0.1, 0, 3000)"/>
    <path fill-rule="nonzero" fill="rgb(25.097656%, 25.097656%, 25.097656%)" fill-opacity="1" stroke-width="22.4726"
          stroke-linecap="butt" stroke-linejoin="round" stroke="rgb(25.097656%, 25.097656%, 25.097656%)"
          stroke-opacity="1" stroke-miterlimit="10"
          d="M 12524.492188 13729.414062 C 12524.492188 13729.414062 12516.09375 14142.304688 12472.1875 14519.492188 C 12428.203125 14896.601562 12376.914062 15261.796875 12376.914062 15261.796875 L 14371.015625 15585.507812 L 14673.007812 13776.210938 Z M 12524.492188 13729.414062 "
          transform="matrix(0.1, 0, 0, -0.1, 0, 3000)"/>
    <path fill-rule="nonzero" fill="rgb(37.646484%, 37.646484%, 37.646484%)" fill-opacity="1" stroke-width="22.4726"
          stroke-linecap="butt" stroke-linejoin="round" stroke="rgb(37.646484%, 37.646484%, 37.646484%)"
          stroke-opacity="1" stroke-miterlimit="10"
          d="M 12919.21875 17797.695312 L 13130.78125 18360.507812 L 13377.382812 18839.101562 L 12980.195312 19352.5 L 13988.515625 19606.71875 L 14578.398438 18936.601562 L 14675 18455.3125 Z M 12919.21875 17797.695312 "
          transform="matrix(0.1, 0, 0, -0.1, 0, 3000)"/>
    <path fill-rule="nonzero" fill="rgb(28.637695%, 29.026794%, 28.637695%)" fill-opacity="1" stroke-width="22.4726"
          stroke-linecap="butt" stroke-linejoin="round" stroke="rgb(28.637695%, 29.026794%, 28.637695%)"
          stroke-opacity="1" stroke-miterlimit="10"
          d="M 14105.117188 19317.8125 L 12970.507812 19275.195312 L 11106.992188 18739.609375 C 11106.992188 18739.609375 11314.6875 19199.296875 11639.296875 19419.414062 C 11963.984375 19639.492188 12405.507812 19620.195312 12405.507812 19620.195312 C 12405.507812 19620.195312 12848.28125 19666.484375 13123.28125 19673.59375 C 13398.203125 19680.585938 13505.3125 19648.203125 13505.3125 19648.203125 Z M 14105.117188 19317.8125 "
          transform="matrix(0.1, 0, 0, -0.1, 0, 3000)"/>
    <path fill-rule="nonzero" fill="rgb(37.646484%, 37.646484%, 37.646484%)" fill-opacity="1" stroke-width="22.4726"
          stroke-linecap="butt" stroke-linejoin="round" stroke="rgb(37.646484%, 37.646484%, 37.646484%)"
          stroke-opacity="1" stroke-miterlimit="10"
          d="M 12586.09375 17370.195312 C 12586.09375 17370.195312 12502.382812 17436.09375 12573.984375 17663.90625 C 12645.507812 17891.601562 12872.304688 18281.210938 12872.304688 18281.210938 L 13092.617188 18798.007812 L 12772.695312 19252.890625 L 12434.804688 19320.585938 C 12434.804688 19320.585938 12051.796875 19448.789062 11719.882812 19303.515625 C 11387.890625 19158.203125 11106.992188 18739.609375 11106.992188 18739.609375 L 10790 17483.398438 C 10790 17483.398438 11044.609375 17724.6875 11303.007812 17765.117188 C 11561.40625 17805.507812 11823.789062 17645.195312 11823.789062 17645.195312 L 11450.585938 17919.101562 L 12078.398438 18332.304688 L 12428.007812 18162.1875 C 12428.007812 18162.1875 12052.8125 17632.695312 12092.304688 17434.6875 C 12131.796875 17236.71875 12586.09375 17370.195312 12586.09375 17370.195312 Z M 12586.09375 17370.195312 "
          transform="matrix(0.1, 0, 0, -0.1, 0, 3000)"/>
    <path fill-rule="nonzero" fill="rgb(59.179688%, 59.959412%, 60.742188%)" fill-opacity="1" stroke-width="22.4726"
          stroke-linecap="butt" stroke-linejoin="round" stroke="rgb(59.179688%, 59.959412%, 60.742188%)"
          stroke-opacity="1" stroke-miterlimit="10"
          d="M 13639.296875 17173.203125 C 13639.296875 17173.203125 12826.40625 16843.59375 12778.398438 17095.390625 C 12632.890625 17859.101562 13361.796875 18160.390625 13361.796875 18160.390625 Z M 13639.296875 17173.203125 "
          transform="matrix(0.1, 0, 0, -0.1, 0, 3000)"/>
    <path fill-rule="nonzero" fill="rgb(6.272888%, 6.272888%, 7.054138%)" fill-opacity="1" stroke-width="22.4726"
          stroke-linecap="butt" stroke-linejoin="round" stroke="rgb(6.272888%, 6.272888%, 7.054138%)" stroke-opacity="1"
          stroke-miterlimit="10"
          d="M 13639.296875 17173.203125 C 13639.296875 17173.203125 13318.984375 17744.296875 13361.796875 18160.390625 C 13404.492188 18576.484375 13810.3125 18837.695312 13810.3125 18837.695312 L 14203.515625 18432.109375 L 14584.804688 17431.914062 Z M 13639.296875 17173.203125 "
          transform="matrix(0.1, 0, 0, -0.1, 0, 3000)"/>
    <path fill-rule="nonzero" fill="rgb(47.851562%, 47.851562%, 47.851562%)" fill-opacity="1" stroke-width="22.4726"
          stroke-linecap="butt" stroke-linejoin="round" stroke="rgb(47.851562%, 47.851562%, 47.851562%)"
          stroke-opacity="1" stroke-miterlimit="10"
          d="M 14112.5 16076.289062 L 13911.09375 17161.914062 C 13911.09375 17161.914062 13140.390625 16855.507812 12923.984375 16894.296875 C 12593.984375 16953.515625 12586.09375 17370.195312 12586.09375 17370.195312 L 12765.3125 17329.101562 C 12765.3125 17329.101562 12770.507812 17056.484375 13111.210938 17077.695312 C 13451.992188 17098.90625 14128.398438 17413.984375 14128.398438 17413.984375 L 14505.78125 17491.992188 C 14505.78125 17491.992188 14329.6875 17949.101562 14167.304688 18290 C 14005 18630.78125 13810.3125 18837.695312 13810.3125 18837.695312 C 13810.3125 18837.695312 14157.695312 18625.117188 14325.898438 18610.117188 C 14493.984375 18595.195312 14482.695312 18777.890625 14482.695312 18777.890625 C 14482.695312 18777.890625 14847.8125 18171.796875 15069.882812 17573.90625 C 15291.992188 16976.015625 15371.210938 16386.289062 15371.210938 16386.289062 Z M 14112.5 16076.289062 "
          transform="matrix(0.1, 0, 0, -0.1, 0, 3000)"/>
    <path fill-rule="nonzero" fill="rgb(45.092773%, 45.872498%, 45.483398%)" fill-opacity="1" stroke-width="22.4726"
          stroke-linecap="butt" stroke-linejoin="round" stroke="rgb(45.092773%, 45.872498%, 45.483398%)"
          stroke-opacity="1" stroke-miterlimit="10"
          d="M 15411.71875 11678.203125 L 14921.796875 11736.289062 C 14921.796875 11736.289062 14909.296875 11597.617188 14861.71875 11430 C 14814.101562 11262.382812 14731.601562 11065.78125 14731.601562 11065.78125 L 15188.90625 10980.3125 C 15188.90625 10980.3125 15277.109375 11106.796875 15332.890625 11281.289062 C 15388.59375 11455.78125 15411.71875 11678.203125 15411.71875 11678.203125 Z M 15411.71875 11678.203125 "
          transform="matrix(0.1, 0, 0, -0.1, 0, 3000)"/>
    <path fill-rule="nonzero" fill="rgb(19.993591%, 19.993591%, 19.993591%)" fill-opacity="1" stroke-width="22.4726"
          stroke-linecap="butt" stroke-linejoin="round" stroke="rgb(19.993591%, 19.993591%, 19.993591%)"
          stroke-opacity="1" stroke-miterlimit="10"
          d="M 11760.585938 16799.101562 L 10469.492188 16449.804688 L 10374.296875 16754.414062 L 11619.492188 17025.78125 Z M 11760.585938 16799.101562 "
          transform="matrix(0.1, 0, 0, -0.1, 0, 3000)"/>
    <path fill-rule="nonzero" fill="rgb(43.920898%, 3.921509%, 5.099487%)" fill-opacity="1" stroke-width="22.4726"
          stroke-linecap="butt" stroke-linejoin="round" stroke="rgb(43.920898%, 3.921509%, 5.099487%)"
          stroke-opacity="1" stroke-miterlimit="10"
          d="M 15613.90625 12696.015625 L 16037.5 12778.203125 C 16037.5 12778.203125 16091.992188 14054.804688 15997.890625 15058.90625 C 15903.789062 16063.085938 15660.898438 16794.804688 15660.898438 16794.804688 L 15299.492188 16824.804688 C 15299.492188 16824.804688 15486.484375 15838.203125 15565 14806.09375 C 15643.59375 13773.789062 15613.90625 12696.015625 15613.90625 12696.015625 Z M 15613.90625 12696.015625 "
          transform="matrix(0.1, 0, 0, -0.1, 0, 3000)"/>
    <path fill-rule="nonzero" fill="rgb(92.576599%, 29.80957%, 25.87738%)" fill-opacity="1" stroke-width="22.4726"
          stroke-linecap="butt" stroke-linejoin="round" stroke="rgb(92.576599%, 29.80957%, 25.87738%)"
          stroke-opacity="1" stroke-miterlimit="10"
          d="M 15332.890625 11281.289062 L 15613.90625 12696.015625 L 16037.5 12778.203125 C 16037.5 12778.203125 16117.5 13817.109375 16023.28125 14821.210938 C 15929.21875 15825.390625 15660.898438 16794.804688 15660.898438 16794.804688 L 15299.492188 16824.804688 C 15299.492188 16824.804688 15126.210938 17538.398438 14827.617188 18161.71875 C 14528.984375 18785 14105.117188 19317.8125 14105.117188 19317.8125 L 14405.585938 19362.382812 L 13988.515625 19606.71875 L 13505.3125 19648.203125 C 13505.3125 19648.203125 13868.59375 19718.789062 14148.398438 19705.898438 C 14428.28125 19693.085938 14624.804688 19596.71875 14624.804688 19596.71875 L 14843.007812 19630 L 16624.296875 19320.195312 L 18006.484375 18766.09375 L 30449.414062 20112.617188 L 31437.890625 19772.695312 C 31437.890625 19772.695312 32461.914062 19254.804688 32752.890625 17616.992188 C 32930.898438 16615.390625 32505.78125 15845.898438 32505.78125 15845.898438 L 31311.09375 15260.585938 L 17871.015625 12862.695312 L 17239.101562 11636.71875 Z M 15332.890625 11281.289062 "
          transform="matrix(0.1, 0, 0, -0.1, 0, 3000)"/>
    <path fill-rule="nonzero" fill="rgb(80.076599%, 18.431091%, 18.431091%)" fill-opacity="1" stroke-width="22.4726"
          stroke-linecap="butt" stroke-linejoin="round" stroke="rgb(80.076599%, 18.431091%, 18.431091%)"
          stroke-opacity="1" stroke-miterlimit="10"
          d="M 28667.695312 15283.398438 L 17930.390625 13508.90625 C 17930.390625 13508.90625 17981.484375 13314.414062 18002.382812 13090 C 18023.398438 12865.703125 18014.21875 12611.289062 18014.21875 12611.289062 L 28227.1875 14295.703125 C 28227.1875 14295.703125 28421.40625 14595.78125 28531.484375 14842.695312 C 28641.601562 15089.609375 28667.695312 15283.398438 28667.695312 15283.398438 Z M 28667.695312 15283.398438 "
          transform="matrix(0.1, 0, 0, -0.1, 0, 3000)"/>
    <path fill-rule="nonzero" fill="rgb(28.24707%, 9.423828%, 7.835388%)" fill-opacity="1" stroke-width="22.4726"
          stroke-linecap="butt" stroke-linejoin="round" stroke="rgb(28.24707%, 9.423828%, 7.835388%)" stroke-opacity="1"
          stroke-miterlimit="10"
          d="M 29652.382812 18364.804688 L 31654.6875 18647.695312 L 31836.796875 18336.796875 L 29680.390625 18025.898438 Z M 29652.382812 18364.804688 "
          transform="matrix(0.1, 0, 0, -0.1, 0, 3000)"/>
    <path fill-rule="nonzero" fill="rgb(84.375%, 15.281677%, 11.767578%)" fill-opacity="1" stroke-width="22.4726"
          stroke-linecap="butt" stroke-linejoin="round" stroke="rgb(84.375%, 15.281677%, 11.767578%)" stroke-opacity="1"
          stroke-miterlimit="10"
          d="M 32130.78125 14970.507812 C 32130.78125 14970.507812 32282.109375 15240.898438 32375.898438 15459.804688 C 32469.609375 15678.59375 32505.78125 15845.898438 32505.78125 15845.898438 L 29173.59375 15351.40625 L 28738.085938 14389.21875 Z M 32130.78125 14970.507812 "
          transform="matrix(0.1, 0, 0, -0.1, 0, 3000)"/>
    <path fill-rule="nonzero" fill="rgb(28.24707%, 9.423828%, 7.835388%)" fill-opacity="1" stroke-width="22.4726"
          stroke-linecap="butt" stroke-linejoin="round" stroke="rgb(28.24707%, 9.423828%, 7.835388%)" stroke-opacity="1"
          stroke-miterlimit="10"
          d="M 29709.414062 17283.203125 L 32041.40625 17637.109375 L 32116.601562 17358.398438 L 29736.015625 16977.8125 Z M 29709.414062 17283.203125 "
          transform="matrix(0.1, 0, 0, -0.1, 0, 3000)"/>
    <path fill-rule="nonzero" fill="rgb(28.24707%, 9.423828%, 7.835388%)" fill-opacity="1" stroke-width="22.4726"
          stroke-linecap="butt" stroke-linejoin="round" stroke="rgb(28.24707%, 9.423828%, 7.835388%)" stroke-opacity="1"
          stroke-miterlimit="10"
          d="M 29673.710938 16254.414062 L 32165 16638.789062 L 32222.8125 16356.210938 L 29638.90625 15967.304688 Z M 29673.710938 16254.414062 "
          transform="matrix(0.1, 0, 0, -0.1, 0, 3000)"/>
    <path fill-rule="nonzero" fill="rgb(65.818787%, 17.651367%, 17.259216%)" fill-opacity="1" stroke-width="22.4726"
          stroke-linecap="butt" stroke-linejoin="round" stroke="rgb(65.818787%, 17.651367%, 17.259216%)"
          stroke-opacity="1" stroke-miterlimit="10"
          d="M 26905.3125 13596.601562 L 18026.601562 12043.984375 L 17681.796875 12002.5 C 17681.796875 12002.5 17571.914062 11793.789062 17354.21875 11683.59375 C 17136.484375 11573.59375 16811.09375 11562.5 16811.09375 11562.5 C 16811.09375 11562.5 16931.40625 11796.796875 16976.09375 12016.796875 C 17020.78125 12236.796875 16989.804688 12442.382812 16989.804688 12442.382812 L 28227.1875 14295.703125 C 28227.1875 14295.703125 28522.1875 14315.703125 28252.304688 14056.992188 C 27650.898438 13480.898438 26905.3125 13596.601562 26905.3125 13596.601562 Z M 26905.3125 13596.601562 "
          transform="matrix(0.1, 0, 0, -0.1, 0, 3000)"/>
    <path fill-rule="nonzero" fill="rgb(28.24707%, 9.423828%, 7.835388%)" fill-opacity="1" stroke-width="22.4726"
          stroke-linecap="butt" stroke-linejoin="round" stroke="rgb(28.24707%, 9.423828%, 7.835388%)" stroke-opacity="1"
          stroke-miterlimit="10"
          d="M 29442.617188 15249.882812 L 32176.992188 15683.085938 L 32109.414062 15387.1875 L 29353.789062 14949.804688 Z M 29442.617188 15249.882812 "
          transform="matrix(0.1, 0, 0, -0.1, 0, 3000)"/>
    <path fill-rule="nonzero" fill="rgb(67.771912%, 12.939453%, 12.547302%)" fill-opacity="1" stroke-width="22.4726"
          stroke-linecap="butt" stroke-linejoin="round" stroke="rgb(67.771912%, 12.939453%, 12.547302%)"
          stroke-opacity="1" stroke-miterlimit="10"
          d="M 29652.382812 18364.804688 L 31417.617188 18614.21875 L 31461.484375 18381.484375 L 29661.015625 18151.71875 Z M 29652.382812 18364.804688 "
          transform="matrix(0.1, 0, 0, -0.1, 0, 3000)"/>
    <path fill-rule="nonzero" fill="rgb(67.771912%, 12.939453%, 12.547302%)" fill-opacity="1" stroke-width="22.4726"
          stroke-linecap="butt" stroke-linejoin="round" stroke="rgb(67.771912%, 12.939453%, 12.547302%)"
          stroke-opacity="1" stroke-miterlimit="10"
          d="M 29730.195312 17078.710938 C 29730.195312 17078.710938 31811.015625 17374.296875 31811.015625 17379.101562 C 31811.015625 17383.90625 31763.085938 17593.28125 31763.085938 17593.28125 L 29701.40625 17302.382812 Z M 29730.195312 17078.710938 "
          transform="matrix(0.1, 0, 0, -0.1, 0, 3000)"/>
    <path fill-rule="nonzero" fill="rgb(67.771912%, 12.939453%, 12.547302%)" fill-opacity="1" stroke-width="22.4726"
          stroke-linecap="butt" stroke-linejoin="round" stroke="rgb(67.771912%, 12.939453%, 12.547302%)"
          stroke-opacity="1" stroke-miterlimit="10"
          d="M 29647.109375 16056.796875 L 31892.109375 16386.914062 L 31864.804688 16585.390625 L 29677.5 16266.796875 Z M 29647.109375 16056.796875 "
          transform="matrix(0.1, 0, 0, -0.1, 0, 3000)"/>
    <path fill-rule="nonzero" fill="rgb(67.771912%, 12.939453%, 12.547302%)" fill-opacity="1" stroke-width="22.4726"
          stroke-linecap="butt" stroke-linejoin="round" stroke="rgb(67.771912%, 12.939453%, 12.547302%)"
          stroke-opacity="1" stroke-miterlimit="10"
          d="M 29376.601562 15037.695312 L 31886.289062 15450 L 31892.5 15643.007812 L 29447.8125 15252.304688 Z M 29376.601562 15037.695312 "
          transform="matrix(0.1, 0, 0, -0.1, 0, 3000)"/>
    <path fill-rule="nonzero" fill="rgb(66.992188%, 18.041992%, 16.479492%)" fill-opacity="1" stroke-width="22.4726"
          stroke-linecap="butt" stroke-linejoin="round" stroke="rgb(66.992188%, 18.041992%, 16.479492%)"
          stroke-opacity="1" stroke-miterlimit="10"
          d="M 27881.09375 13558.789062 L 31208.203125 14372.890625 C 31208.203125 14372.890625 31597.890625 14531.914062 31828.59375 14681.289062 C 32059.21875 14830.703125 32130.78125 14970.507812 32130.78125 14970.507812 L 28735.117188 14383.984375 C 28735.117188 14383.984375 28644.101562 14250.3125 28430.585938 14043.984375 C 28217.109375 13837.695312 27881.09375 13558.789062 27881.09375 13558.789062 Z M 27881.09375 13558.789062 "
          transform="matrix(0.1, 0, 0, -0.1, 0, 3000)"/>
    <path fill-rule="nonzero" fill="rgb(85.546875%, 24.705505%, 23.925781%)" fill-opacity="1" stroke-width="22.4726"
          stroke-linecap="butt" stroke-linejoin="round" stroke="rgb(85.546875%, 24.705505%, 23.925781%)"
          stroke-opacity="1" stroke-miterlimit="10"
          d="M 26884.804688 13592.304688 C 26884.804688 13592.304688 27374.609375 13686.40625 27745 13914.804688 C 28115.507812 14143.085938 28216.992188 14278.59375 28216.992188 14278.59375 L 28754.296875 14392.695312 C 28754.296875 14392.695312 28613.085938 14212.8125 28387.695312 14002.8125 C 28162.304688 13792.890625 27852.8125 13552.8125 27852.8125 13552.8125 Z M 26884.804688 13592.304688 "
          transform="matrix(0.1, 0, 0, -0.1, 0, 3000)"/>
    <path fill-rule="nonzero" fill="rgb(86.71875%, 26.660156%, 23.143005%)" fill-opacity="1" stroke-width="22.4726"
          stroke-linecap="butt" stroke-linejoin="round" stroke="rgb(86.71875%, 26.660156%, 23.143005%)"
          stroke-opacity="1" stroke-miterlimit="10"
          d="M 28213.789062 14274.6875 C 28213.789062 14274.6875 28418.007812 14590.585938 28531.484375 14842.695312 C 28645 15095 28667.695312 15283.398438 28667.695312 15283.398438 L 29173.59375 15351.40625 L 28738.085938 14389.21875 "
          transform="matrix(0.1, 0, 0, -0.1, 0, 3000)"/>
    <path fill-rule="nonzero" fill="rgb(90.234375%, 23.535156%, 19.993591%)" fill-opacity="1" stroke-width="22.4726"
          stroke-linecap="butt" stroke-linejoin="round" stroke="rgb(90.234375%, 23.535156%, 19.993591%)"
          stroke-opacity="1" stroke-miterlimit="10"
          d="M 31437.890625 19772.695312 C 31437.890625 19772.695312 30481.210938 20523.59375 30164.296875 20625.703125 C 29378.90625 20878.984375 27230.898438 20450.703125 27230.898438 20450.703125 L 17826.796875 19441.40625 L 16674.6875 18938.007812 L 17253.90625 18676.796875 C 17253.90625 18676.796875 17884.296875 18284.21875 18439.101562 18288.28125 C 20000.703125 18299.882812 27768.085938 19347.5 27768.085938 19347.5 Z M 31437.890625 19772.695312 "
          transform="matrix(0.1, 0, 0, -0.1, 0, 3000)"/>
    <path fill-rule="nonzero" fill="rgb(89.84375%, 16.868591%, 15.696716%)" fill-opacity="1" stroke-width="22.4726"
          stroke-linecap="butt" stroke-linejoin="round" stroke="rgb(89.84375%, 16.868591%, 15.696716%)"
          stroke-opacity="1" stroke-miterlimit="10"
          d="M 18838.789062 18150.507812 C 18838.789062 18150.507812 18496.992188 18097.617188 17884.296875 18298.59375 C 17271.71875 18499.609375 16388.085938 18954.804688 16388.085938 18954.804688 L 15782.8125 18851.484375 L 15144.6875 19460.390625 L 16858.59375 19832.617188 L 17581.09375 19565.703125 L 18340.78125 19181.40625 L 16898.90625 18955 C 16898.90625 18955 17454.804688 18651.210938 17943.398438 18502.695312 C 18431.992188 18354.21875 18853.28125 18361.015625 18853.28125 18361.015625 Z M 18838.789062 18150.507812 "
          transform="matrix(0.1, 0, 0, -0.1, 0, 3000)"/>
    <path fill-rule="nonzero" fill="rgb(84.764099%, 10.984802%, 9.008789%)" fill-opacity="1" stroke-width="22.4726"
          stroke-linecap="butt" stroke-linejoin="round" stroke="rgb(84.764099%, 10.984802%, 9.008789%)"
          stroke-opacity="1" stroke-miterlimit="10"
          d="M 16811.09375 11562.5 L 16692.890625 11525.117188 C 16692.890625 11525.117188 16612.382812 13166.914062 16443.203125 14755.390625 C 16273.984375 16343.710938 16343.59375 16649.882812 15973.90625 17812.8125 C 15738.90625 18551.71875 15144.6875 19460.390625 15144.6875 19460.390625 C 15144.6875 19460.390625 16100 18970.390625 16516.289062 17161.914062 C 16798.398438 15936.71875 16663.710938 15732.695312 16767.695312 14700.117188 C 16871.601562 13667.5 16931.796875 13031.40625 16931.796875 13031.40625 L 16989.804688 12442.382812 C 16989.804688 12442.382812 17020.78125 12236.796875 16976.09375 12016.796875 C 16931.40625 11796.796875 16811.09375 11562.5 16811.09375 11562.5 Z M 16811.09375 11562.5 "
          transform="matrix(0.1, 0, 0, -0.1, 0, 3000)"/>
    <path fill-rule="nonzero" fill="rgb(84.764099%, 10.984802%, 9.008789%)" fill-opacity="1" stroke-width="22.4726"
          stroke-linecap="butt" stroke-linejoin="round" stroke="rgb(84.764099%, 10.984802%, 9.008789%)"
          stroke-opacity="1" stroke-miterlimit="10"
          d="M 17480.703125 11766.09375 C 17480.703125 11766.09375 17544.804688 12523.59375 17498.789062 13224.6875 C 17452.8125 13925.78125 17335.78125 13891.40625 17296.601562 14570.703125 C 17257.5 15250 17368.90625 15951.015625 17368.90625 15951.015625 C 17368.90625 15951.015625 17436.40625 17007.5 17679.609375 17152.890625 C 17953.789062 17316.796875 29078.515625 18897.8125 29078.515625 18897.8125 C 29078.515625 18897.8125 29257.5 18920.898438 29244.804688 18642.304688 C 29233.984375 18405 28985.195312 18361.71875 28985.195312 18361.71875 C 28985.195312 18361.71875 18234.804688 16872.304688 18041.914062 16677.8125 C 17853.789062 16488.203125 17689.882812 15537.109375 17688.398438 14784.492188 C 17687.695312 14411.40625 17930.390625 13508.90625 17930.390625 13508.90625 C 17930.390625 13508.90625 17981.484375 13314.414062 18002.382812 13090 C 18023.398438 12865.703125 18014.21875 12611.289062 18014.21875 12611.289062 L 18026.601562 12043.984375 L 17681.796875 12002.5 Z M 17480.703125 11766.09375 "
          transform="matrix(0.1, 0, 0, -0.1, 0, 3000)"/>
    <path fill-rule="nonzero" fill="rgb(31.762695%, 35.693359%, 34.104919%)" fill-opacity="1" stroke-width="22.4726"
          stroke-linecap="butt" stroke-linejoin="round" stroke="rgb(31.762695%, 35.693359%, 34.104919%)"
          stroke-opacity="1" stroke-miterlimit="10"
          d="M 17881.914062 14641.601562 L 24563.59375 15849.101562 C 24563.59375 15849.101562 24856.289062 17418.28125 24467.8125 17439.882812 C 23072.5 17517.304688 18896.210938 16673.203125 18314.414062 16562.890625 C 17887.109375 16481.914062 17881.914062 14641.601562 17881.914062 14641.601562 Z M 17881.914062 14641.601562 "
          transform="matrix(0.1, 0, 0, -0.1, 0, 3000)"/>
    <path fill-rule="nonzero" fill="rgb(79.6875%, 18.821716%, 16.479492%)" fill-opacity="1" stroke-width="22.4726"
          stroke-linecap="round" stroke-linejoin="round" stroke="rgb(79.6875%, 18.821716%, 16.479492%)"
          stroke-opacity="1" stroke-miterlimit="10"
          d="M 27556.210938 14701.914062 C 27561.71875 14774.296875 27860.898438 14814.6875 27916.992188 14959.492188 C 28097.695312 15424.882812 28189.6875 15837.695312 28307.5 16555.3125 C 28425.390625 17272.890625 28444.6875 17395.78125 28425.390625 17722.382812 C 28412.695312 17936.796875 28186.289062 17923.59375 28172.1875 17849.414062 C 28136.914062 17664.492188 28013.515625 16783.007812 28013.515625 16783.007812 C 28013.515625 16783.007812 28082.617188 17603.203125 28118.007812 17916.40625 C 28130.507812 18028.398438 28557.890625 17995.390625 28560.585938 17919.296875 C 28569.609375 17671.601562 28595.898438 17295.585938 28464.609375 16561.015625 C 28333.398438 15826.289062 28162.304688 15395.78125 27992.304688 14907.304688 C 27956.601562 14804.804688 27549.101562 14610.3125 27556.210938 14701.914062 Z M 27556.210938 14701.914062 "
          transform="matrix(0.1, 0, 0, -0.1, 0, 3000)"/>
    <path fill-rule="nonzero" fill="rgb(79.6875%, 18.821716%, 16.479492%)" fill-opacity="1" stroke-width="22.4726"
          stroke-linecap="round" stroke-linejoin="round" stroke="rgb(79.6875%, 18.821716%, 16.479492%)"
          stroke-opacity="1" stroke-miterlimit="10"
          d="M 26564.492188 14528.085938 C 26570 14600.507812 26869.21875 14640.898438 26925.390625 14785.703125 C 27106.09375 15251.09375 27198.085938 15663.789062 27315.898438 16381.484375 C 27433.710938 17099.101562 27453.085938 17221.914062 27433.710938 17548.59375 C 27421.09375 17763.007812 27194.609375 17749.882812 27180.507812 17675.585938 C 27145.3125 17490.703125 27021.796875 16609.21875 27021.796875 16609.21875 C 27021.796875 16609.21875 27091.015625 17429.296875 27126.289062 17742.695312 C 27138.90625 17854.492188 27566.289062 17821.601562 27568.90625 17745.507812 C 27578.007812 17497.890625 27604.296875 17121.796875 27473.007812 16387.109375 C 27341.71875 15652.5 27170.703125 15221.992188 27000.585938 14733.398438 C 26965 14630.898438 26557.5 14436.484375 26564.492188 14528.085938 Z M 26564.492188 14528.085938 "
          transform="matrix(0.1, 0, 0, -0.1, 0, 3000)"/>
    <path fill-rule="nonzero" fill="rgb(79.6875%, 18.821716%, 16.479492%)" fill-opacity="1" stroke-width="22.4726"
          stroke-linecap="round" stroke-linejoin="round" stroke="rgb(79.6875%, 18.821716%, 16.479492%)"
          stroke-opacity="1" stroke-miterlimit="10"
          d="M 25553.203125 14371.71875 C 25558.710938 14444.21875 25857.890625 14484.492188 25914.101562 14629.296875 C 26094.804688 15094.6875 26186.796875 15507.5 26304.609375 16225.117188 C 26422.382812 16942.695312 26441.796875 17065.703125 26422.382812 17392.304688 C 26409.804688 17606.71875 26183.28125 17593.515625 26169.21875 17519.296875 C 26133.984375 17334.414062 26010.507812 16452.8125 26010.507812 16452.8125 C 26010.507812 16452.8125 26079.6875 17273.007812 26114.882812 17586.289062 C 26127.5 17698.203125 26554.882812 17665.195312 26557.695312 17589.101562 C 26566.601562 17341.484375 26593.007812 16965.507812 26461.601562 16230.703125 C 26330.390625 15496.09375 26159.414062 15065.585938 25989.296875 14577.109375 C 25953.710938 14474.609375 25546.210938 14280.195312 25553.203125 14371.71875 Z M 25553.203125 14371.71875 "
          transform="matrix(0.1, 0, 0, -0.1, 0, 3000)"/>
    <path fill-rule="nonzero" fill="rgb(22.75238%, 21.972656%, 24.705505%)" fill-opacity="1" stroke-width="22.4726"
          stroke-linecap="butt" stroke-linejoin="round" stroke="rgb(22.75238%, 21.972656%, 24.705505%)"
          stroke-opacity="1" stroke-miterlimit="10"
          d="M 17581.09375 19565.703125 L 17718.710938 19640.507812 L 17675.898438 19914.804688 L 14843.007812 19630 C 14843.007812 19630 14931.601562 19460.585938 15144.6875 19460.390625 C 15701.484375 19459.804688 16431.015625 19609.609375 17070.195312 19628.515625 C 17271.210938 19634.492188 17581.09375 19565.703125 17581.09375 19565.703125 Z M 17581.09375 19565.703125 "
          transform="matrix(0.1, 0, 0, -0.1, 0, 3000)"/>
    <path fill-rule="nonzero" fill="rgb(92.576599%, 34.910583%, 29.026794%)" fill-opacity="1" stroke-width="22.4726"
          stroke-linecap="butt" stroke-linejoin="round" stroke="rgb(92.576599%, 34.910583%, 29.026794%)"
          stroke-opacity="1" stroke-miterlimit="10"
          d="M 18838.789062 18150.507812 L 27506.289062 19264.609375 C 27506.289062 19264.609375 27841.289062 19340 28069.101562 19506.09375 C 28296.914062 19672.304688 28417.382812 19929.414062 28417.382812 19929.414062 L 28181.09375 19980.117188 C 28181.09375 19980.117188 28028.59375 19746.796875 27835 19625 C 27641.484375 19503.203125 27406.914062 19492.890625 27406.914062 19492.890625 L 18853.28125 18361.015625 Z M 18838.789062 18150.507812 "
          transform="matrix(0.1, 0, 0, -0.1, 0, 3000)"/>
    <path fill-rule="nonzero" fill="rgb(89.0625%, 14.892578%, 13.330078%)" fill-opacity="1" stroke-width="22.4726"
          stroke-linecap="butt" stroke-linejoin="round" stroke="rgb(89.0625%, 14.892578%, 13.330078%)"
          stroke-opacity="1" stroke-miterlimit="10"
          d="M 27230.898438 20450.703125 L 27951.914062 20546.210938 C 27951.914062 20546.210938 28229.492188 20519.101562 28345.898438 20364.882812 C 28462.304688 20210.703125 28417.382812 19929.414062 28417.382812 19929.414062 L 28181.09375 19980.117188 C 28181.09375 19980.117188 28294.21875 20211.09375 28056.71875 20328.789062 C 27819.101562 20446.40625 27230.898438 20450.703125 27230.898438 20450.703125 Z M 27230.898438 20450.703125 "
          transform="matrix(0.1, 0, 0, -0.1, 0, 3000)"/>
    <path fill-rule="nonzero" fill="rgb(77.734375%, 26.660156%, 25.87738%)" fill-opacity="1" stroke-width="22.4726"
          stroke-linecap="butt" stroke-linejoin="round" stroke="rgb(77.734375%, 26.660156%, 25.87738%)"
          stroke-opacity="1" stroke-miterlimit="10"
          d="M 14838.984375 10547.695312 C 14838.984375 10547.695312 15656.796875 10674.296875 16078.90625 10795.78125 C 16371.71875 10880.117188 16341.992188 10997.5 16479.101562 11176.914062 C 16616.09375 11356.40625 16692.890625 11525.117188 16692.890625 11525.117188 L 15332.890625 11281.289062 C 15332.890625 11281.289062 15259.492188 11081.484375 15121.914062 10870.117188 C 14984.296875 10658.90625 14838.984375 10547.695312 14838.984375 10547.695312 Z M 14838.984375 10547.695312 "
          transform="matrix(0.1, 0, 0, -0.1, 0, 3000)"/>
    <path fill-rule="nonzero" fill="rgb(34.521484%, 35.301208%, 35.301208%)" fill-opacity="1" stroke-width="22.4726"
          stroke-linecap="butt" stroke-linejoin="round" stroke="rgb(34.521484%, 35.301208%, 35.301208%)"
          stroke-opacity="1" stroke-miterlimit="10"
          d="M 13603.007812 11597.1875 L 13177.8125 11843.28125 C 13177.8125 11843.28125 13161.40625 12173.90625 13435.117188 12243.984375 C 13708.789062 12313.90625 14332.109375 12125.898438 14332.109375 12125.898438 L 14352.695312 13334.296875 L 14673.007812 13776.210938 C 14673.007812 13776.210938 14647.1875 13241.40625 14621.796875 12778.398438 C 14596.40625 12315.507812 14571.40625 11924.296875 14571.40625 11924.296875 Z M 13603.007812 11597.1875 "
          transform="matrix(0.1, 0, 0, -0.1, 0, 3000)"/>
    <path fill-rule="nonzero" fill="rgb(6.272888%, 6.665039%, 3.921509%)" fill-opacity="1" stroke-width="22.4726"
          stroke-linecap="butt" stroke-linejoin="round" stroke="rgb(6.272888%, 6.665039%, 3.921509%)" stroke-opacity="1"
          stroke-miterlimit="10"
          d="M 15618.203125 12954.101562 L 15875.898438 12980.195312 C 15875.898438 12980.195312 15941.015625 14011.601562 15864.101562 14928.085938 C 15787.109375 15844.609375 15568.085938 16646.210938 15568.085938 16646.210938 L 15328.59375 16662.109375 C 15328.59375 16662.109375 15479.609375 15735.703125 15565 14806.09375 C 15650.585938 13876.289062 15618.203125 12954.101562 15618.203125 12954.101562 Z M 15618.203125 12954.101562 "
          transform="matrix(0.1, 0, 0, -0.1, 0, 3000)"/>
    <path fill-rule="nonzero" fill="rgb(56.054688%, 56.054688%, 56.054688%)" fill-opacity="1" stroke-width="22.4726"
          stroke-linecap="butt" stroke-linejoin="round" stroke="rgb(56.054688%, 56.054688%, 56.054688%)"
          stroke-opacity="1" stroke-miterlimit="10"
          d="M 15616.484375 13924.101562 L 14673.007812 13776.210938 C 14673.007812 13776.210938 14674.804688 14431.992188 14605.390625 15036.71875 C 14536.09375 15641.289062 14395.585938 16194.804688 14395.585938 16194.804688 L 15371.210938 16386.289062 C 15371.210938 16386.289062 15458.789062 15861.796875 15520.117188 15246.289062 C 15581.484375 14630.78125 15616.484375 13924.101562 15616.484375 13924.101562 Z M 15616.484375 13924.101562 "
          transform="matrix(0.1, 0, 0, -0.1, 0, 3000)"/>
    <path fill-rule="nonzero" fill="rgb(56.054688%, 55.664062%, 56.834412%)" fill-opacity="1" stroke-width="22.4726"
          stroke-linecap="butt" stroke-linejoin="round" stroke="rgb(56.054688%, 55.664062%, 56.834412%)"
          stroke-opacity="1" stroke-miterlimit="10"
          d="M 14617.304688 10841.796875 L 14235.195312 10761.601562 C 14235.195312 10761.601562 13516.914062 11571.09375 13483.59375 11884.296875 C 13439.492188 12298.710938 14029.21875 12083.984375 14029.21875 12083.984375 Z M 14617.304688 10841.796875 "
          transform="matrix(0.1, 0, 0, -0.1, 0, 3000)"/>
    <path fill-rule="nonzero" fill="rgb(2.745056%, 2.745056%, 2.745056%)" fill-opacity="1" stroke-width="22.4726"
          stroke-linecap="butt" stroke-linejoin="round" stroke="rgb(2.745056%, 2.745056%, 2.745056%)" stroke-opacity="1"
          stroke-miterlimit="10"
          d="M 14617.304688 10841.796875 C 14617.304688 10841.796875 14137.8125 11308.007812 13987.1875 11598.203125 C 13836.484375 11888.203125 14029.21875 12083.984375 14029.21875 12083.984375 L 14571.40625 11924.296875 L 14981.71875 11990.898438 C 14981.71875 11990.898438 14952.8125 11717.304688 14861.71875 11430 C 14770.585938 11142.695312 14617.304688 10841.796875 14617.304688 10841.796875 Z M 14617.304688 10841.796875 "
          transform="matrix(0.1, 0, 0, -0.1, 0, 3000)"/>
    <path fill-rule="nonzero" fill="rgb(19.213867%, 19.213867%, 19.213867%)" fill-opacity="1" stroke-width="22.4726"
          stroke-linecap="butt" stroke-linejoin="round" stroke="rgb(19.213867%, 19.213867%, 19.213867%)"
          stroke-opacity="1" stroke-miterlimit="10"
          d="M 14352.695312 13334.296875 C 14352.695312 13334.296875 14361.796875 14160.507812 14301.71875 14846.015625 C 14241.601562 15531.484375 14112.5 16076.289062 14112.5 16076.289062 L 14395.585938 16194.804688 C 14395.585938 16194.804688 14536.09375 15641.289062 14605.390625 15036.71875 C 14674.804688 14431.992188 14673.007812 13776.210938 14673.007812 13776.210938 Z M 14352.695312 13334.296875 "
          transform="matrix(0.1, 0, 0, -0.1, 0, 3000)"/>
    <path fill-rule="nonzero" fill="rgb(47.068787%, 47.851562%, 47.459412%)" fill-opacity="1" stroke-width="22.4726"
          stroke-linecap="butt" stroke-linejoin="round" stroke="rgb(47.068787%, 47.851562%, 47.459412%)"
          stroke-opacity="1" stroke-miterlimit="10"
          d="M 13902.8125 10764.296875 C 13902.8125 10764.296875 13602.695312 10393.085938 13199.21875 10400.3125 C 12795.703125 10407.617188 12560 10573.085938 12146.601562 10946.210938 C 11733.203125 11319.21875 11545.507812 11892.617188 11545.507812 11892.617188 C 11545.507812 11892.617188 11761.796875 11879.492188 11995.898438 12023.007812 C 12307.382812 12213.984375 12365.898438 12623.515625 12365.898438 12623.515625 Z M 13902.8125 10764.296875 "
          transform="matrix(0.1, 0, 0, -0.1, 0, 3000)"/>
    <path fill-rule="nonzero" fill="rgb(4.704285%, 4.315186%, 5.488586%)" fill-opacity="1" stroke-width="22.4726"
          stroke-linecap="butt" stroke-linejoin="round" stroke="rgb(4.704285%, 4.315186%, 5.488586%)" stroke-opacity="1"
          stroke-miterlimit="10"
          d="M 13044.804688 11368.398438 C 12848.710938 11428.28125 12805.3125 11178.710938 12498.984375 11210 C 12192.617188 11241.289062 11819.492188 11493.59375 11819.492188 11493.59375 C 11819.492188 11493.59375 12375.390625 10889.882812 12766.09375 10751.796875 C 13156.914062 10613.789062 13312.890625 10787.1875 13382.5 10941.289062 C 13452.1875 11095.390625 13240.898438 11308.398438 13044.804688 11368.398438 Z M 13044.804688 11368.398438 "
          transform="matrix(0.1, 0, 0, -0.1, 0, 3000)"/>
    <path fill-rule="nonzero" fill="rgb(5.099487%, 5.883789%, 5.488586%)" fill-opacity="1" stroke-width="22.4726"
          stroke-linecap="butt" stroke-linejoin="round" stroke="rgb(5.099487%, 5.883789%, 5.488586%)" stroke-opacity="1"
          stroke-miterlimit="10"
          d="M 14060.898438 12686.289062 C 14156.40625 13196.09375 14093.515625 13901.796875 14000.390625 14843.710938 C 13907.382812 15785.585938 13807.382812 16048.90625 13688.789062 16453.710938 C 13629.882812 16654.296875 13423.398438 16429.21875 13423.398438 16429.21875 C 13423.398438 16429.21875 13673.984375 15593.789062 13746.484375 14667.109375 C 13818.984375 13740.507812 13709.804688 12703.90625 13709.804688 12703.90625 C 13709.804688 12703.90625 14013.789062 12434.6875 14060.898438 12686.289062 Z M 14060.898438 12686.289062 "
          transform="matrix(0.1, 0, 0, -0.1, 0, 3000)"/>
    <path fill-rule="nonzero" fill="rgb(61.914062%, 62.693787%, 62.304688%)" fill-opacity="1" stroke-width="22.4726"
          stroke-linecap="butt" stroke-linejoin="round" stroke="rgb(61.914062%, 62.693787%, 62.304688%)"
          stroke-opacity="1" stroke-miterlimit="10"
          d="M 13423.398438 16429.21875 C 13423.398438 16429.21875 13158.789062 16229.804688 13204.609375 16004.804688 C 13296.210938 15553.789062 13314.6875 15410.507812 13390 14588.789062 C 13465.3125 13767.109375 13450.898438 13548.984375 13462.695312 13071.09375 C 13468.398438 12840.585938 13709.804688 12703.90625 13709.804688 12703.90625 C 13709.804688 12703.90625 13818.085938 13735.78125 13746.484375 14667.109375 C 13674.882812 15598.398438 13423.398438 16429.21875 13423.398438 16429.21875 Z M 13423.398438 16429.21875 "
          transform="matrix(0.1, 0, 0, -0.1, 0, 3000)"/>
    <path fill-rule="nonzero" fill="rgb(24.705505%, 24.705505%, 24.705505%)" fill-opacity="1" stroke-width="22.4726"
          stroke-linecap="butt" stroke-linejoin="round" stroke="rgb(24.705505%, 24.705505%, 24.705505%)"
          stroke-opacity="1" stroke-miterlimit="10"
          d="M 14646.914062 11773.007812 C 14646.914062 11773.007812 14791.484375 11611.914062 14703.90625 11390.3125 C 14626.40625 11194.101562 14438.007812 11360 14438.007812 11360 Z M 14646.914062 11773.007812 "
          transform="matrix(0.1, 0, 0, -0.1, 0, 3000)"/>
    <path fill-rule="nonzero" fill="rgb(86.71875%, 87.889099%, 87.5%)" fill-opacity="1" stroke-width="22.4726"
          stroke-linecap="butt" stroke-linejoin="round" stroke="rgb(86.71875%, 87.889099%, 87.5%)" stroke-opacity="1"
          stroke-miterlimit="10"
          d="M 14048.59375 17707.304688 C 14048.59375 17707.304688 13978.59375 17896.914062 13925.390625 17988.710938 C 13872.109375 18080.390625 13835.703125 18074.21875 13835.703125 18074.21875 C 13835.703125 18074.21875 13968.90625 18142.617188 14022.109375 18050.898438 C 14075.3125 17959.101562 14048.59375 17707.304688 14048.59375 17707.304688 Z M 14048.59375 17707.304688 "
          transform="matrix(0.1, 0, 0, -0.1, 0, 3000)"/>
    <path fill-rule="nonzero" fill="rgb(46.263123%, 46.263123%, 46.263123%)" fill-opacity="1" stroke-width="22.4726"
          stroke-linecap="butt" stroke-linejoin="round" stroke="rgb(46.263123%, 46.263123%, 46.263123%)"
          stroke-opacity="1" stroke-miterlimit="10"
          d="M 12872.304688 18281.210938 L 13092.617188 18798.007812 C 13092.617188 18798.007812 12944.296875 18998.710938 12779.804688 19129.296875 C 12615.390625 19260 12434.804688 19320.585938 12434.804688 19320.585938 L 12405.507812 19620.195312 C 12405.507812 19620.195312 12817.304688 19489.492188 13060.3125 19294.21875 C 13303.28125 19098.984375 13377.382812 18839.101562 13377.382812 18839.101562 L 13130.78125 18360.507812 Z M 12872.304688 18281.210938 "
          transform="matrix(0.1, 0, 0, -0.1, 0, 3000)"/>
    <path fill-rule="nonzero" fill="rgb(10.984802%, 10.984802%, 10.984802%)" fill-opacity="1" stroke-width="22.4726"
          stroke-linecap="butt" stroke-linejoin="round" stroke="rgb(10.984802%, 10.984802%, 10.984802%)"
          stroke-opacity="1" stroke-miterlimit="10"
          d="M 12428.007812 18162.1875 C 12291.601562 18127.109375 12098.085938 18407.304688 11766.09375 18439.101562 C 11434.101562 18470.898438 11072.617188 18212.304688 11072.617188 18212.304688 C 11072.617188 18212.304688 11305 18796.914062 11693.515625 18932.695312 C 12081.992188 19068.515625 12449.882812 18967.304688 12626.71875 18755.507812 C 12803.59375 18543.59375 12650 18219.414062 12428.007812 18162.1875 Z M 12428.007812 18162.1875 "
          transform="matrix(0.1, 0, 0, -0.1, 0, 3000)"/>
    <path fill-rule="nonzero" fill="rgb(60.742188%, 11.767578%, 18.821716%)" fill-opacity="1" stroke-width="22.4726"
          stroke-linecap="butt" stroke-linejoin="round" stroke="rgb(60.742188%, 11.767578%, 18.821716%)"
          stroke-opacity="1" stroke-miterlimit="10"
          d="M 14105.117188 19317.8125 L 13505.3125 19648.203125 L 13988.515625 19606.71875 L 14405.585938 19362.382812 Z M 14105.117188 19317.8125 "
          transform="matrix(0.1, 0, 0, -0.1, 0, 3000)"/>
    <path fill-rule="nonzero" fill="rgb(28.637695%, 28.637695%, 28.637695%)" fill-opacity="1" stroke-width="22.4726"
          stroke-linecap="butt" stroke-linejoin="round" stroke="rgb(28.637695%, 28.637695%, 28.637695%)"
          stroke-opacity="1" stroke-miterlimit="10"
          d="M 12472.1875 14519.492188 L 11066.601562 14245.898438 L 10928.203125 14869.296875 L 12401.796875 15079.296875 Z M 12472.1875 14519.492188 "
          transform="matrix(0.1, 0, 0, -0.1, 0, 3000)"/>
    <path fill-rule="nonzero" fill="rgb(17.651367%, 17.651367%, 17.651367%)" fill-opacity="1" stroke-width="22.4726"
          stroke-linecap="butt" stroke-linejoin="round" stroke="rgb(17.651367%, 17.651367%, 17.651367%)"
          stroke-opacity="1" stroke-miterlimit="10"
          d="M 10264.101562 17010.195312 L 10790 17483.398438 L 10056.796875 17368.085938 Z M 10264.101562 17010.195312 "
          transform="matrix(0.1, 0, 0, -0.1, 0, 3000)"/>
    <path fill-rule="nonzero" fill="rgb(34.104919%, 34.104919%, 34.104919%)" fill-opacity="1" stroke-width="22.4726"
          stroke-linecap="butt" stroke-linejoin="round" stroke="rgb(34.104919%, 34.104919%, 34.104919%)"
          stroke-opacity="1" stroke-miterlimit="10"
          d="M 10578.203125 15970.507812 L 12046.210938 16181.796875 L 12267.890625 15571.210938 L 10825.390625 15317.1875 Z M 10578.203125 15970.507812 "
          transform="matrix(0.1, 0, 0, -0.1, 0, 3000)"/>
    <path fill-rule="nonzero" fill="rgb(20.384216%, 20.384216%, 20.384216%)" fill-opacity="1" stroke-width="22.4726"
          stroke-linecap="butt" stroke-linejoin="round" stroke="rgb(20.384216%, 20.384216%, 20.384216%)"
          stroke-opacity="1" stroke-miterlimit="10"
          d="M 11084.882812 13985.195312 L 8893.632812 13551.289062 L 8764.492188 14363.984375 L 10928.203125 14869.296875 Z M 11084.882812 13985.195312 "
          transform="matrix(0.1, 0, 0, -0.1, 0, 3000)"/>
    <path fill-rule="nonzero" fill="rgb(22.75238%, 22.75238%, 22.75238%)" fill-opacity="1" stroke-width="22.4726"
          stroke-linecap="butt" stroke-linejoin="round" stroke="rgb(22.75238%, 22.75238%, 22.75238%)" stroke-opacity="1"
          stroke-miterlimit="10"
          d="M 10325.507812 16829.21875 L 8275.273438 16298.007812 C 8275.273438 16298.007812 8194.140625 16541.914062 8089.335938 16789.804688 C 7984.492188 17037.695312 7856.015625 17289.609375 7856.015625 17289.609375 L 9851.992188 17778.984375 Z M 10325.507812 16829.21875 "
          transform="matrix(0.1, 0, 0, -0.1, 0, 3000)"/>
    <path fill-rule="nonzero" fill="rgb(25.488281%, 25.488281%, 25.488281%)" fill-opacity="1" stroke-width="22.4726"
          stroke-linecap="butt" stroke-linejoin="round" stroke="rgb(25.488281%, 25.488281%, 25.488281%)"
          stroke-opacity="1" stroke-miterlimit="10"
          d="M 9331.875 18622.109375 L 7385.820312 18159.804688 C 7385.820312 18159.804688 6959.257812 18699.101562 6543.046875 18944.804688 C 6126.875 19190.585938 5721.054688 19142.5 5721.054688 19142.5 C 5721.054688 19142.5 7126.40625 19613.90625 8029.140625 19483.789062 C 8931.835938 19353.710938 9331.875 18622.109375 9331.875 18622.109375 Z M 9331.875 18622.109375 "
          transform="matrix(0.1, 0, 0, -0.1, 0, 3000)"/>
    <path fill-rule="nonzero" fill="rgb(50.976562%, 51.756287%, 51.367188%)" fill-opacity="1" stroke-width="22.4726"
          stroke-linecap="butt" stroke-linejoin="round" stroke="rgb(50.976562%, 51.756287%, 51.367188%)"
          stroke-opacity="1" stroke-miterlimit="10"
          d="M 8631.445312 14928.203125 L 8402.265625 15826.601562 L 10469.101562 16405.78125 L 10755.78125 15501.015625 Z M 8631.445312 14928.203125 "
          transform="matrix(0.1, 0, 0, -0.1, 0, 3000)"/>
    <path fill-rule="nonzero" fill="rgb(29.80957%, 29.80957%, 29.80957%)" fill-opacity="1" stroke-width="22.4726"
          stroke-linecap="butt" stroke-linejoin="round" stroke="rgb(29.80957%, 29.80957%, 29.80957%)" stroke-opacity="1"
          stroke-miterlimit="10"
          d="M 5636.09375 15796.601562 C 5636.09375 15796.601562 5540.976562 15454.296875 5524.023438 14948.59375 C 5507.03125 14442.890625 5568.125 13773.710938 5568.125 13773.710938 L 4827.03125 13795.195312 C 4827.03125 13795.195312 4595.664062 15967.695312 4766.289062 17268.710938 C 4936.914062 18569.6875 5509.53125 18999.414062 5509.53125 18999.414062 C 5509.53125 18999.414062 5624.53125 18503.59375 5656.132812 17702.890625 C 5687.773438 16902.109375 5636.09375 15796.601562 5636.09375 15796.601562 Z M 5636.09375 15796.601562 "
          transform="matrix(0.1, 0, 0, -0.1, 0, 3000)"/>
    <path fill-rule="nonzero" fill="rgb(35.693359%, 35.693359%, 35.693359%)" fill-opacity="1" stroke-width="22.4726"
          stroke-linecap="butt" stroke-linejoin="round" stroke="rgb(35.693359%, 35.693359%, 35.693359%)"
          stroke-opacity="1" stroke-miterlimit="10"
          d="M 9851.992188 17778.984375 C 9851.992188 17778.984375 9737.929688 17993.515625 9607.890625 18204.21875 C 9477.890625 18415 9331.875 18622.109375 9331.875 18622.109375 L 7372.109375 18129.804688 C 7372.109375 18129.804688 7513.59375 17951.992188 7642.96875 17735.117188 C 7772.34375 17518.203125 7889.609375 17262.1875 7889.609375 17262.1875 Z M 9851.992188 17778.984375 "
          transform="matrix(0.1, 0, 0, -0.1, 0, 3000)"/>
    <path fill-rule="nonzero" fill="rgb(66.601562%, 67.771912%, 67.381287%)" fill-opacity="1" stroke-width="22.4726"
          stroke-linecap="butt" stroke-linejoin="round" stroke="rgb(66.601562%, 67.771912%, 67.381287%)"
          stroke-opacity="1" stroke-miterlimit="10"
          d="M 8893.632812 13551.289062 L 8781.679688 13536.015625 C 8781.679688 13536.015625 8319.84375 16516.914062 7464.84375 17860 C 6512.109375 19356.601562 5509.53125 18999.414062 5509.53125 18999.414062 C 5509.53125 18999.414062 6287.8125 19727.8125 7542.070312 17892.695312 C 8446.796875 16568.90625 8893.632812 13551.289062 8893.632812 13551.289062 Z M 8893.632812 13551.289062 "
          transform="matrix(0.1, 0, 0, -0.1, 0, 3000)"/>
    <path fill-rule="nonzero" fill="rgb(15.696716%, 15.696716%, 15.696716%)" fill-opacity="1" stroke-width="22.4726"
          stroke-linecap="butt" stroke-linejoin="round" stroke="rgb(15.696716%, 15.696716%, 15.696716%)"
          stroke-opacity="1" stroke-miterlimit="10"
          d="M 9134.84375 18886.210938 L 9083.632812 19570.898438 L 10247.109375 19734.296875 L 10494.101562 19515.195312 L 9331.875 18622.109375 Z M 9134.84375 18886.210938 "
          transform="matrix(0.1, 0, 0, -0.1, 0, 3000)"/>
    <path fill-rule="nonzero" fill="rgb(37.646484%, 38.426208%, 38.818359%)" fill-opacity="1" stroke-width="22.4726"
          stroke-linecap="butt" stroke-linejoin="round" stroke="rgb(37.646484%, 38.426208%, 38.818359%)"
          stroke-opacity="1" stroke-miterlimit="10"
          d="M 9215.703125 18790.585938 L 9194.414062 19467.109375 L 10362.5 19631.796875 L 10494.101562 19515.195312 L 9331.875 18622.109375 Z M 9215.703125 18790.585938 "
          transform="matrix(0.1, 0, 0, -0.1, 0, 3000)"/>
    <path fill-rule="nonzero" fill="rgb(11.767578%, 11.767578%, 12.547302%)" fill-opacity="1" stroke-width="22.4726"
          stroke-linecap="butt" stroke-linejoin="round" stroke="rgb(11.767578%, 11.767578%, 12.547302%)"
          stroke-opacity="1" stroke-miterlimit="10"
          d="M 10470.390625 17404.804688 L 10568.007812 17577.890625 L 10494.101562 19515.195312 L 9322.734375 19387.695312 L 9331.875 18622.109375 L 10056.796875 17368.085938 Z M 10470.390625 17404.804688 "
          transform="matrix(0.1, 0, 0, -0.1, 0, 3000)"/>
    <path fill-rule="nonzero" fill="rgb(11.767578%, 11.767578%, 12.547302%)" fill-opacity="1" stroke-width="22.4726"
          stroke-linecap="butt" stroke-linejoin="round" stroke="rgb(11.767578%, 11.767578%, 12.547302%)"
          stroke-opacity="1" stroke-miterlimit="10"
          d="M 6778.59375 13993.710938 C 6747.03125 14218.085938 6766.679688 14406.40625 6822.539062 14414.296875 C 6878.398438 14422.109375 6949.296875 14246.601562 6980.859375 14022.1875 C 7012.460938 13797.8125 6992.773438 13609.609375 6936.914062 13601.796875 C 6881.054688 13593.90625 6810.195312 13769.414062 6778.59375 13993.710938 Z M 6778.59375 13993.710938 "
          transform="matrix(0.1, 0, 0, -0.1, 0, 3000)"/>
    <path fill-rule="nonzero" fill="rgb(26.268005%, 28.24707%, 26.660156%)" fill-opacity="1" stroke-width="22.4726"
          stroke-linecap="butt" stroke-linejoin="round" stroke="rgb(26.268005%, 28.24707%, 26.660156%)"
          stroke-opacity="1" stroke-miterlimit="10"
          d="M 9940.195312 11938.984375 L 9964.726562 12468.203125 C 9964.726562 12468.203125 10094.492188 12450.117188 10183.007812 12490.898438 C 10271.601562 12531.796875 10318.789062 12631.484375 10318.789062 12631.484375 L 10510.195312 11933.085938 C 10510.195312 11933.085938 10354.492188 11808.28125 10211.992188 11809.804688 C 10069.492188 11811.289062 9940.195312 11938.984375 9940.195312 11938.984375 Z M 9940.195312 11938.984375 "
          transform="matrix(0.1, 0, 0, -0.1, 0, 3000)"/>
    <path fill-rule="nonzero" fill="rgb(16.088867%, 17.259216%, 16.868591%)" fill-opacity="1" stroke-width="22.4726"
          stroke-linecap="butt" stroke-linejoin="round" stroke="rgb(16.088867%, 17.259216%, 16.868591%)"
          stroke-opacity="1" stroke-miterlimit="10"
          d="M 10318.789062 12631.484375 C 10318.789062 12631.484375 10493.007812 12888.515625 10545.390625 13199.414062 C 10597.8125 13510.195312 10528.398438 13875 10528.398438 13875 L 11084.882812 13985.195312 C 11084.882812 13985.195312 11093.59375 13301.40625 10949.804688 12788.398438 C 10806.210938 12275.3125 10510.195312 11933.085938 10510.195312 11933.085938 Z M 10318.789062 12631.484375 "
          transform="matrix(0.1, 0, 0, -0.1, 0, 3000)"/>
</svg>
