<?xml version="1.0" encoding="UTF-8"?>
<svg xmlns="http://www.w3.org/2000/svg" xmlns:xlink="http://www.w3.org/1999/xlink" width="3406" height="2294"
     viewBox="0 0 3406 2294">

    <path fill-rule="nonzero" fill="rgb(9.008789%, 5.883789%, 3.137207%)" fill-opacity="1"
          d="M 363.230469 1716.667969 L 374.761719 1716.667969 L 374.761719 1671.875 L 363.230469 1671.875 Z M 363.230469 1716.667969 "/>
    <path fill-rule="nonzero" fill="rgb(87.889099%, 87.889099%, 87.889099%)" fill-opacity="1"
          d="M 341.320312 1924.011719 L 341.320312 2198.847656 L 334.402344 2198.847656 L 334.40625 1924.011719 Z M 341.320312 1924.011719 "/>
    <path fill-rule="nonzero" fill="rgb(13.330078%, 22.75238%, 2.745056%)" fill-opacity="1"
          d="M 341.320312 1924.011719 L 334.40625 1924.011719 L 334.402344 1905.5625 L 334.40625 1711.34375 L 341.320312 1715.335938 "/>
    <path fill-rule="nonzero" fill="rgb(12.939453%, 21.972656%, 2.745056%)" fill-opacity="1"
          d="M 334.40625 1711.34375 L 334.402344 1905.5625 L 326.371094 1905.5625 L 326.371094 1706.707031 Z M 334.40625 1711.34375 "/>
    <path fill-rule="nonzero" fill="rgb(14.892578%, 21.166992%, 2.745056%)" fill-opacity="1"
          d="M 115.3125 2291.097656 L 261.753906 2198.847656 L 2767.449219 2198.847656 L 2767.449219 2291.097656 L 334.402344 2291.097656 "/>
    <path fill-rule="nonzero" fill="rgb(87.889099%, 87.889099%, 87.889099%)" fill-opacity="1"
          d="M 341.320312 2293.402344 L 392.054688 2293.402344 L 392.054688 2291.097656 L 341.320312 2291.097656 Z M 341.320312 2293.402344 "/>
    <path fill-rule="nonzero" fill="rgb(87.889099%, 87.889099%, 87.889099%)" fill-opacity="1"
          d="M 334.402344 2293.402344 L 341.320312 2293.402344 L 341.320312 2291.097656 L 334.402344 2291.097656 Z M 334.402344 2293.402344 "/>
    <path fill-rule="nonzero" fill="rgb(87.889099%, 87.889099%, 87.889099%)" fill-opacity="1"
          d="M 1153.109375 2293.402344 L 1199.234375 2293.402344 L 1199.234375 2291.097656 L 1153.109375 2291.097656 Z M 1153.109375 2293.402344 "/>
    <path fill-rule="nonzero" fill="rgb(87.889099%, 87.889099%, 87.889099%)" fill-opacity="1"
          d="M 1960.28125 2293.402344 L 2006.40625 2293.402344 L 2006.40625 2291.097656 L 1960.28125 2291.097656 Z M 1960.28125 2293.402344 "/>
    <path fill-rule="nonzero" fill="rgb(87.889099%, 87.889099%, 87.889099%)" fill-opacity="1"
          d="M 2006.410156 2293.402344 L 2013.328125 2293.402344 L 2013.328125 2291.097656 L 2006.410156 2291.097656 Z M 2006.410156 2293.402344 "/>
    <path fill-rule="nonzero" fill="rgb(87.889099%, 87.889099%, 87.889099%)" fill-opacity="1"
          d="M 2013.320312 2293.402344 L 2017.933594 2293.402344 L 2017.933594 2291.097656 L 2013.320312 2291.097656 Z M 2013.320312 2293.402344 "/>
    <path fill-rule="nonzero" fill="rgb(87.889099%, 87.889099%, 87.889099%)" fill-opacity="1"
          d="M 334.402344 1373.226562 L 341.320312 1373.226562 L 341.320312 1232.546875 L 334.402344 1232.546875 Z M 334.402344 1373.226562 "/>
    <path fill-rule="nonzero" fill="rgb(87.889099%, 87.889099%, 87.889099%)" fill-opacity="1"
          d="M 334.402344 714.789062 L 341.320312 714.789062 L 341.320312 713.648438 L 334.402344 713.648438 Z M 334.402344 714.789062 "/>
    <path fill-rule="nonzero" fill="rgb(43.530273%, 36.083984%, 17.651367%)" fill-opacity="1"
          d="M 2813.578125 2131.96875 L 3044.199219 2131.96875 L 3044.199219 2108.90625 L 2813.578125 2108.90625 Z M 2813.578125 2131.96875 "/>
    <path fill-rule="nonzero" fill="rgb(20.384216%, 26.660156%, 13.330078%)" fill-opacity="1"
          d="M 326.371094 1905.5625 L 271.007812 1905.5625 L 271.007812 1674.738281 L 326.371094 1706.707031 Z M 326.371094 1905.5625 "/>
    <path fill-rule="nonzero" fill="rgb(5.883789%, 10.594177%, 1.177979%)" fill-opacity="1"
          d="M 260.625 1905.5625 L 261.78125 1905.5625 L 261.78125 1671.875 L 260.625 1671.875 Z M 260.625 1905.5625 "/>
    <path fill-rule="nonzero" fill="rgb(12.939453%, 21.972656%, 2.745056%)" fill-opacity="1"
          d="M 271.007812 1905.5625 L 261.78125 1905.5625 L 261.78125 1671.875 L 266.042969 1671.875 L 271.007812 1674.738281 "/>
    <path fill-rule="nonzero" fill="rgb(43.530273%, 36.083984%, 17.651367%)" fill-opacity="1"
          d="M 3113.378906 2143.5 L 3113.378906 2178.09375 L 2842.238281 2178.09375 L 2842.238281 2143.5 L 3044.199219 2143.5 "/>
    <path fill-rule="nonzero" fill="rgb(43.530273%, 36.083984%, 17.651367%)" fill-opacity="1"
          d="M 3390.128906 2281.871094 L 3390.128906 2293.402344 L 2956.878906 2293.402344 L 2956.878906 2281.871094 L 3320.929688 2281.871094 "/>
    <path fill-rule="nonzero" fill="rgb(58.396912%, 48.631287%, 23.535156%)" fill-opacity="1"
          d="M 2813.578125 2178.09375 L 2842.234375 2178.09375 L 2842.234375 2143.5 L 2813.578125 2143.5 Z M 2813.578125 2178.09375 "/>
    <path fill-rule="nonzero" fill="rgb(58.396912%, 48.631287%, 23.535156%)" fill-opacity="1"
          d="M 2813.578125 2212.6875 L 2870.894531 2212.6875 L 2870.894531 2178.09375 L 2813.578125 2178.09375 Z M 2813.578125 2212.6875 "/>
    <path fill-rule="nonzero" fill="rgb(43.530273%, 36.083984%, 17.651367%)" fill-opacity="1"
          d="M 2842.238281 2143.5 L 2813.578125 2143.5 L 2813.578125 2131.96875 L 3044.199219 2131.96875 L 3044.199219 2143.5 "/>
    <path fill-rule="nonzero" fill="rgb(43.530273%, 36.083984%, 17.651367%)" fill-opacity="1"
          d="M 3320.929688 2247.28125 L 3320.929688 2281.871094 L 2928.21875 2281.871094 L 2928.21875 2247.28125 L 3251.75 2247.28125 "/>
    <path fill-rule="nonzero" fill="rgb(43.530273%, 36.083984%, 17.651367%)" fill-opacity="1"
          d="M 3251.75 2212.6875 L 3251.75 2247.28125 L 2899.558594 2247.28125 L 2899.558594 2212.6875 L 3182.570312 2212.6875 "/>
    <path fill-rule="nonzero" fill="rgb(43.530273%, 36.083984%, 17.651367%)" fill-opacity="1"
          d="M 2870.898438 2212.6875 L 2870.898438 2178.09375 L 3182.570312 2178.09375 L 3182.570312 2212.6875 L 2899.558594 2212.6875 "/>
    <path fill-rule="nonzero" fill="rgb(58.396912%, 48.631287%, 23.535156%)" fill-opacity="1"
          d="M 2956.878906 2281.871094 L 2956.878906 2293.402344 L 2813.578125 2293.402344 L 2813.578125 2281.871094 L 2928.21875 2281.871094 "/>
    <path fill-rule="nonzero" fill="rgb(58.396912%, 48.631287%, 23.535156%)" fill-opacity="1"
          d="M 2928.21875 2247.28125 L 2928.21875 2281.871094 L 2813.578125 2281.871094 L 2813.578125 2247.28125 L 2899.558594 2247.28125 "/>
    <path fill-rule="nonzero" fill="rgb(58.396912%, 48.631287%, 23.535156%)" fill-opacity="1"
          d="M 2899.558594 2212.6875 L 2899.558594 2247.28125 L 2813.578125 2247.28125 L 2813.578125 2212.6875 L 2870.898438 2212.6875 "/>
    <path fill-rule="nonzero" fill="rgb(35.693359%, 24.705505%, 19.993591%)" fill-opacity="1"
          d="M 2600.449219 233 L 3405.308594 679.058594 L 2972.058594 679.058594 "/>
    <path fill-rule="nonzero" fill="rgb(40.380859%, 28.24707%, 22.363281%)" fill-opacity="1"
          d="M 2600.449219 233 L 2972.058594 679.058594 L 0 679.058594 L 1176.171875 0 L 1579.75 233 "/>
    <path fill-rule="nonzero" fill="rgb(16.479492%, 9.423828%, 5.488586%)" fill-opacity="1"
          d="M 0 713.648438 L 2956.871094 713.648438 L 2956.871094 679.058594 L 0 679.058594 Z M 0 713.648438 "/>
    <path fill-rule="nonzero" fill="rgb(12.156677%, 7.054138%, 4.315186%)" fill-opacity="1"
          d="M 3390.128906 679.058594 L 3390.128906 713.640625 L 2956.878906 713.640625 L 2956.878906 679.058594 L 2972.058594 679.058594 "/>
    <path fill-rule="nonzero" fill="rgb(59.568787%, 52.539062%, 28.637695%)" fill-opacity="1"
          d="M 3044.199219 1267.140625 L 3044.199219 1301.734375 L 2813.578125 1301.734375 L 2813.578125 713.640625 L 3044.199219 713.640625 L 3044.199219 823.808594 L 3043.308594 819.261719 L 3041.828125 813.851562 L 3039.949219 808.53125 L 3037.679688 803.339844 L 3035.039062 798.25 L 3032.019531 793.339844 L 3028.640625 788.578125 L 3024.921875 784.011719 L 3020.859375 779.628906 L 3016.480469 775.5 L 3011.808594 771.589844 L 3006.839844 767.929688 L 3001.621094 764.539062 L 2996.179688 761.449219 L 2990.480469 758.640625 L 2984.609375 756.140625 L 2978.558594 753.929688 L 2972.359375 752.070312 L 2966.039062 750.53125 L 2959.609375 749.328125 L 2953.089844 748.46875 L 2946.539062 747.941406 L 2939.949219 747.761719 L 2933.359375 747.941406 L 2925.089844 747.941406 L 2918.519531 748.46875 L 2912.011719 749.328125 L 2905.578125 750.53125 L 2899.261719 752.070312 L 2893.058594 753.929688 L 2887 756.140625 L 2881.128906 758.640625 L 2875.449219 761.449219 L 2869.988281 764.539062 L 2864.78125 767.929688 L 2859.820312 771.589844 L 2855.140625 775.5 L 2850.761719 779.628906 L 2846.710938 784.011719 L 2842.980469 788.578125 L 2839.609375 793.339844 L 2836.578125 798.25 L 2833.929688 803.339844 L 2831.660156 808.53125 L 2829.789062 813.851562 L 2828.308594 819.261719 L 2827.230469 824.71875 L 2826.570312 830.230469 L 2818.410156 830.230469 L 2818.410156 1267.140625 L 2826.710938 1267.140625 "/>
    <path fill-rule="nonzero" fill="rgb(59.568787%, 52.539062%, 28.637695%)" fill-opacity="1"
          d="M 2813.578125 1373.226562 L 3044.199219 1373.226562 L 3044.199219 1301.734375 L 2813.578125 1301.734375 Z M 2813.578125 1373.226562 "/>
    <path fill-rule="nonzero" fill="rgb(87.889099%, 87.889099%, 87.889099%)" fill-opacity="1"
          d="M 2813.578125 1301.734375 L 2813.578125 1373.226562 L 2767.449219 1373.226562 L 2767.449219 713.640625 L 2813.578125 713.640625 "/>
    <path fill-rule="nonzero" fill="rgb(59.568787%, 52.539062%, 28.637695%)" fill-opacity="1"
          d="M 3044.199219 1396.289062 L 3044.199219 1483.921875 L 2813.578125 1483.921875 L 2813.578125 1396.289062 L 2822.878906 1396.289062 "/>
    <path fill-rule="nonzero" fill="rgb(87.889099%, 87.889099%, 87.889099%)" fill-opacity="1"
          d="M 2767.449219 1483.921875 L 2813.570312 1483.921875 L 2813.570312 1396.289062 L 2767.449219 1396.289062 Z M 2767.449219 1483.921875 "/>
    <path fill-rule="nonzero" fill="rgb(80.076599%, 70.506287%, 38.426208%)" fill-opacity="1"
          d="M 2006.410156 1483.921875 L 2767.457031 1483.921875 L 2767.457031 1396.289062 L 2006.410156 1396.289062 Z M 2006.410156 1483.921875 "/>
    <path fill-rule="nonzero" fill="rgb(87.889099%, 87.889099%, 87.889099%)" fill-opacity="1"
          d="M 1960.28125 1483.921875 L 2006.40625 1483.921875 L 2006.40625 1396.289062 L 1960.28125 1396.289062 Z M 1960.28125 1483.921875 "/>
    <path fill-rule="nonzero" fill="rgb(80.076599%, 70.506287%, 38.426208%)" fill-opacity="1"
          d="M 1199.238281 1483.921875 L 1960.285156 1483.921875 L 1960.285156 1396.289062 L 1199.238281 1396.289062 Z M 1199.238281 1483.921875 "/>
    <path fill-rule="nonzero" fill="rgb(87.889099%, 87.889099%, 87.889099%)" fill-opacity="1"
          d="M 1153.109375 1483.921875 L 1199.234375 1483.921875 L 1199.234375 1396.289062 L 1153.109375 1396.289062 Z M 1153.109375 1483.921875 "/>
    <path fill-rule="nonzero" fill="rgb(13.330078%, 22.75238%, 2.745056%)" fill-opacity="1"
          d="M 1153.109375 1483.921875 L 392.0625 1483.921875 L 392.0625 1396.289062 L 1153.109375 1396.289062 Z M 590.277344 1399.535156 L 407.972656 1399.535156 L 407.972656 1480.480469 L 1137.179688 1480.480469 L 1137.179688 1399.535156 L 772.578125 1399.535156 "/>
    <path fill-rule="nonzero" fill="rgb(87.889099%, 87.889099%, 87.889099%)" fill-opacity="1"
          d="M 341.320312 1483.921875 L 392.054688 1483.921875 L 392.054688 1396.289062 L 341.320312 1396.289062 Z M 341.320312 1483.921875 "/>
    <path fill-rule="nonzero" fill="rgb(13.330078%, 22.75238%, 2.745056%)" fill-opacity="1"
          d="M 334.214844 1483.921875 L 341.320312 1483.921875 L 341.320312 1396.289062 L 334.214844 1396.289062 Z M 334.214844 1483.921875 "/>
    <path fill-rule="nonzero" fill="rgb(12.939453%, 22.363281%, 2.745056%)" fill-opacity="1"
          d="M 3044.199219 753.929688 L 3055.914062 753.929688 L 3055.914062 752.058594 L 3044.199219 752.058594 Z M 3044.199219 753.929688 "/>
    <path fill-rule="nonzero" fill="rgb(12.939453%, 21.972656%, 2.745056%)" fill-opacity="1"
          d="M 3044.199219 752.070312 L 3055.914062 752.070312 L 3055.914062 750.53125 L 3044.199219 750.53125 Z M 3044.199219 752.070312 "/>
    <path fill-rule="nonzero" fill="rgb(12.547302%, 21.556091%, 2.745056%)" fill-opacity="1"
          d="M 3044.199219 750.53125 L 3055.914062 750.53125 L 3055.914062 749.328125 L 3044.199219 749.328125 Z M 3044.199219 750.53125 "/>
    <path fill-rule="nonzero" fill="rgb(12.547302%, 21.166992%, 2.745056%)" fill-opacity="1"
          d="M 3044.199219 749.328125 L 3055.914062 749.328125 L 3055.914062 748.460938 L 3044.199219 748.460938 Z M 3044.199219 749.328125 "/>
    <path fill-rule="nonzero" fill="rgb(12.156677%, 20.776367%, 2.745056%)" fill-opacity="1"
          d="M 3044.199219 748.46875 L 3055.914062 748.46875 L 3055.914062 747.945312 L 3044.199219 747.945312 Z M 3044.199219 748.46875 "/>
    <path fill-rule="nonzero" fill="rgb(13.330078%, 22.75238%, 2.745056%)" fill-opacity="1"
          d="M 3044.199219 756.140625 L 3055.914062 756.140625 L 3055.914062 753.949219 L 3044.199219 753.949219 Z M 3044.199219 756.140625 "/>
    <path fill-rule="nonzero" fill="rgb(13.719177%, 23.143005%, 3.137207%)" fill-opacity="1"
          d="M 3044.199219 758.640625 L 3055.914062 758.640625 L 3055.914062 756.136719 L 3044.199219 756.136719 Z M 3044.199219 758.640625 "/>
    <path fill-rule="nonzero" fill="rgb(13.719177%, 23.535156%, 3.137207%)" fill-opacity="1"
          d="M 3044.199219 761.449219 L 3055.914062 761.449219 L 3055.914062 758.636719 L 3044.199219 758.636719 Z M 3044.199219 761.449219 "/>
    <path fill-rule="nonzero" fill="rgb(14.109802%, 23.925781%, 3.137207%)" fill-opacity="1"
          d="M 3044.199219 764.539062 L 3055.914062 764.539062 L 3055.914062 761.4375 L 3044.199219 761.4375 Z M 3044.199219 764.539062 "/>
    <path fill-rule="nonzero" fill="rgb(14.109802%, 24.31488%, 3.137207%)" fill-opacity="1"
          d="M 3044.199219 767.929688 L 3055.914062 767.929688 L 3055.914062 764.546875 L 3044.199219 764.546875 Z M 3044.199219 767.929688 "/>
    <path fill-rule="nonzero" fill="rgb(14.501953%, 24.31488%, 3.137207%)" fill-opacity="1"
          d="M 3044.199219 771.589844 L 3055.914062 771.589844 L 3055.914062 767.9375 L 3044.199219 767.9375 Z M 3044.199219 771.589844 "/>
    <path fill-rule="nonzero" fill="rgb(14.501953%, 24.705505%, 3.137207%)" fill-opacity="1"
          d="M 3044.199219 775.5 L 3055.914062 775.5 L 3055.914062 771.59375 L 3044.199219 771.59375 Z M 3044.199219 775.5 "/>
    <path fill-rule="nonzero" fill="rgb(14.892578%, 25.097656%, 3.137207%)" fill-opacity="1"
          d="M 3044.199219 779.628906 L 3055.914062 779.628906 L 3055.914062 775.488281 L 3044.199219 775.488281 Z M 3044.199219 779.628906 "/>
    <path fill-rule="nonzero" fill="rgb(14.892578%, 25.488281%, 3.137207%)" fill-opacity="1"
          d="M 3044.199219 784.011719 L 3055.914062 784.011719 L 3055.914062 779.644531 L 3044.199219 779.644531 Z M 3044.199219 784.011719 "/>
    <path fill-rule="nonzero" fill="rgb(14.892578%, 25.488281%, 3.137207%)" fill-opacity="1"
          d="M 3044.199219 788.578125 L 3055.914062 788.578125 L 3055.914062 784.003906 L 3044.199219 784.003906 Z M 3044.199219 788.578125 "/>
    <path fill-rule="nonzero" fill="rgb(15.281677%, 25.87738%, 3.529358%)" fill-opacity="1"
          d="M 3044.199219 793.339844 L 3055.914062 793.339844 L 3055.914062 788.582031 L 3044.199219 788.582031 Z M 3044.199219 793.339844 "/>
    <path fill-rule="nonzero" fill="rgb(15.281677%, 25.87738%, 3.529358%)" fill-opacity="1"
          d="M 3044.199219 798.25 L 3055.914062 798.25 L 3055.914062 793.324219 L 3044.199219 793.324219 Z M 3044.199219 798.25 "/>
    <path fill-rule="nonzero" fill="rgb(15.281677%, 25.87738%, 3.529358%)" fill-opacity="1"
          d="M 3044.199219 803.339844 L 3055.914062 803.339844 L 3055.914062 798.265625 L 3044.199219 798.265625 Z M 3044.199219 803.339844 "/>
    <path fill-rule="nonzero" fill="rgb(15.281677%, 25.87738%, 3.529358%)" fill-opacity="1"
          d="M 3044.199219 808.539062 L 3055.914062 808.539062 L 3055.914062 803.335938 L 3044.199219 803.335938 Z M 3044.199219 808.539062 "/>
    <path fill-rule="nonzero" fill="rgb(14.892578%, 25.488281%, 3.137207%)" fill-opacity="1"
          d="M 3044.199219 813.851562 L 3055.914062 813.851562 L 3055.914062 808.535156 L 3044.199219 808.535156 Z M 3044.199219 813.851562 "/>
    <path fill-rule="nonzero" fill="rgb(14.892578%, 25.097656%, 3.137207%)" fill-opacity="1"
          d="M 3044.199219 819.261719 L 3055.914062 819.261719 L 3055.914062 813.859375 L 3044.199219 813.859375 Z M 3044.199219 819.261719 "/>
    <path fill-rule="nonzero" fill="rgb(14.501953%, 24.705505%, 3.137207%)" fill-opacity="1"
          d="M 3044.199219 819.261719 L 3055.910156 819.261719 L 3055.910156 824.71875 L 3044.378906 824.71875 L 3044.199219 823.808594 "/>
    <path fill-rule="nonzero" fill="rgb(14.109802%, 23.925781%, 3.137207%)" fill-opacity="1"
          d="M 3044.378906 824.71875 L 3055.910156 824.71875 L 3055.910156 1267.140625 L 3053.199219 1267.140625 L 3053.199219 830.230469 L 3045.039062 830.230469 "/>
    <path fill-rule="nonzero" fill="rgb(9.812927%, 16.868591%, 1.960754%)" fill-opacity="1"
          d="M 3044.378906 824.71875 L 3045.039062 830.230469 L 3035.859375 830.230469 L 3035.859375 823.371094 L 3035.300781 820.578125 L 3033.929688 815.589844 L 3032.210938 810.691406 L 3030.121094 805.890625 L 3027.679688 801.210938 L 3024.878906 796.679688 L 3021.769531 792.28125 L 3018.339844 788.058594 L 3014.589844 784.039062 L 3010.558594 780.210938 L 3006.25 776.601562 L 3001.671875 773.230469 L 2996.851562 770.121094 L 2991.820312 767.261719 L 2986.570312 764.660156 L 2981.160156 762.359375 L 2975.578125 760.328125 L 2969.859375 758.609375 L 2964.011719 757.171875 L 2958.070312 756.070312 L 2952.070312 755.28125 L 2946.03125 754.789062 L 2939.949219 754.640625 L 2935.820312 754.738281 L 2933.878906 754.789062 L 2927.820312 755.28125 L 2921.820312 756.070312 L 2915.890625 757.171875 L 2910.050781 758.609375 L 2904.328125 760.328125 L 2898.75 762.359375 L 2893.320312 764.660156 L 2888.089844 767.261719 L 2883.058594 770.121094 L 2878.230469 773.230469 L 2873.660156 776.601562 L 2869.351562 780.210938 L 2865.320312 784.039062 L 2861.570312 788.058594 L 2858.128906 792.28125 L 2855 796.679688 L 2852.21875 801.210938 L 2849.789062 805.890625 L 2847.679688 810.691406 L 2845.960938 815.589844 L 2844.589844 820.578125 L 2844.050781 823.371094 L 2844.050781 830.230469 L 2834.851562 830.230469 L 2835.519531 824.71875 L 2836.589844 819.261719 L 2838.070312 813.851562 L 2839.949219 808.53125 L 2842.21875 803.339844 L 2844.871094 798.25 L 2847.878906 793.339844 L 2851.269531 788.578125 L 2854.988281 784.011719 L 2859.050781 779.628906 L 2863.429688 775.5 L 2868.101562 771.589844 L 2873.050781 767.929688 L 2878.269531 764.539062 L 2883.730469 761.449219 L 2889.410156 758.640625 L 2895.289062 756.140625 L 2901.328125 753.929688 L 2907.539062 752.070312 L 2913.871094 750.53125 L 2920.300781 749.328125 L 2926.800781 748.46875 L 2933.359375 747.941406 L 2939.949219 747.761719 L 2946.539062 747.941406 L 2953.089844 748.46875 L 2959.609375 749.328125 L 2966.039062 750.53125 L 2972.359375 752.070312 L 2978.558594 753.929688 L 2984.609375 756.140625 L 2990.480469 758.640625 L 2996.179688 761.449219 L 3001.621094 764.539062 L 3006.839844 767.929688 L 3011.808594 771.589844 L 3016.480469 775.5 L 3020.859375 779.628906 L 3024.921875 784.011719 L 3028.640625 788.578125 L 3032.019531 793.339844 L 3035.039062 798.25 L 3037.679688 803.339844 L 3039.949219 808.53125 L 3041.828125 813.851562 L 3043.308594 819.261719 L 3044.199219 823.808594 "/>
    <path fill-rule="nonzero" fill="rgb(9.812927%, 16.868591%, 1.960754%)" fill-opacity="1"
          d="M 2834.851562 830.230469 L 3053.199219 830.230469 L 3053.199219 1267.140625 L 2826.710938 1267.140625 L 2826.710938 830.230469 Z M 2842.039062 841.769531 L 2842.039062 1095.449219 L 3037.800781 1095.449219 L 3037.851562 841.769531 Z M 2842.039062 1105.699219 L 2842.109375 1245.359375 L 3037.800781 1245.359375 L 3037.851562 1105.699219 L 2842.109375 1105.699219 "/>
    <path fill-rule="nonzero" fill="rgb(13.330078%, 22.75238%, 2.745056%)" fill-opacity="1"
          d="M 2835.519531 824.71875 L 2834.851562 830.230469 L 2826.570312 830.230469 L 2827.230469 824.71875 Z M 2835.519531 824.71875 "/>
    <path fill-rule="nonzero" fill="rgb(13.719177%, 23.535156%, 3.137207%)" fill-opacity="1"
          d="M 2836.589844 819.261719 L 2835.519531 824.71875 L 2827.230469 824.71875 L 2828.308594 819.261719 Z M 2836.589844 819.261719 "/>
    <path fill-rule="nonzero" fill="rgb(14.109802%, 23.925781%, 3.137207%)" fill-opacity="1"
          d="M 2838.070312 813.851562 L 2836.589844 819.261719 L 2828.308594 819.261719 L 2829.789062 813.851562 Z M 2838.070312 813.851562 "/>
    <path fill-rule="nonzero" fill="rgb(14.501953%, 24.31488%, 3.137207%)" fill-opacity="1"
          d="M 2839.949219 808.53125 L 2838.070312 813.851562 L 2829.789062 813.851562 L 2831.660156 808.53125 Z M 2839.949219 808.53125 "/>
    <path fill-rule="nonzero" fill="rgb(14.501953%, 24.705505%, 3.137207%)" fill-opacity="1"
          d="M 2842.21875 803.339844 L 2839.949219 808.53125 L 2831.660156 808.53125 L 2833.929688 803.339844 Z M 2842.21875 803.339844 "/>
    <path fill-rule="nonzero" fill="rgb(14.501953%, 24.705505%, 3.137207%)" fill-opacity="1"
          d="M 2844.871094 798.25 L 2842.21875 803.339844 L 2833.929688 803.339844 L 2836.578125 798.25 Z M 2844.871094 798.25 "/>
    <path fill-rule="nonzero" fill="rgb(14.501953%, 24.705505%, 3.137207%)" fill-opacity="1"
          d="M 2847.878906 793.339844 L 2844.871094 798.25 L 2836.578125 798.25 L 2839.609375 793.339844 Z M 2847.878906 793.339844 "/>
    <path fill-rule="nonzero" fill="rgb(14.501953%, 24.705505%, 3.137207%)" fill-opacity="1"
          d="M 2851.269531 788.578125 L 2847.878906 793.339844 L 2839.609375 793.339844 L 2842.980469 788.578125 Z M 2851.269531 788.578125 "/>
    <path fill-rule="nonzero" fill="rgb(14.501953%, 24.705505%, 3.137207%)" fill-opacity="1"
          d="M 2854.988281 784.011719 L 2851.269531 788.578125 L 2842.980469 788.578125 L 2846.710938 784.011719 Z M 2854.988281 784.011719 "/>
    <path fill-rule="nonzero" fill="rgb(14.501953%, 24.705505%, 3.137207%)" fill-opacity="1"
          d="M 2859.050781 779.628906 L 2854.988281 784.011719 L 2846.710938 784.011719 L 2850.761719 779.628906 Z M 2859.050781 779.628906 "/>
    <path fill-rule="nonzero" fill="rgb(14.501953%, 24.31488%, 3.137207%)" fill-opacity="1"
          d="M 2863.429688 775.5 L 2859.050781 779.628906 L 2850.761719 779.628906 L 2855.140625 775.5 Z M 2863.429688 775.5 "/>
    <path fill-rule="nonzero" fill="rgb(14.109802%, 24.31488%, 3.137207%)" fill-opacity="1"
          d="M 2868.101562 771.589844 L 2863.429688 775.5 L 2855.140625 775.5 L 2859.820312 771.589844 Z M 2868.101562 771.589844 "/>
    <path fill-rule="nonzero" fill="rgb(14.109802%, 23.925781%, 3.137207%)" fill-opacity="1"
          d="M 2873.050781 767.929688 L 2868.101562 771.589844 L 2859.820312 771.589844 L 2864.78125 767.929688 Z M 2873.050781 767.929688 "/>
    <path fill-rule="nonzero" fill="rgb(13.719177%, 23.535156%, 3.137207%)" fill-opacity="1"
          d="M 2878.269531 764.539062 L 2873.050781 767.929688 L 2864.78125 767.929688 L 2869.988281 764.539062 Z M 2878.269531 764.539062 "/>
    <path fill-rule="nonzero" fill="rgb(13.719177%, 23.143005%, 3.137207%)" fill-opacity="1"
          d="M 2883.730469 761.449219 L 2878.269531 764.539062 L 2869.988281 764.539062 L 2875.449219 761.449219 Z M 2883.730469 761.449219 "/>
    <path fill-rule="nonzero" fill="rgb(13.330078%, 23.143005%, 3.137207%)" fill-opacity="1"
          d="M 2889.410156 758.640625 L 2883.730469 761.449219 L 2875.449219 761.449219 L 2881.128906 758.640625 Z M 2889.410156 758.640625 "/>
    <path fill-rule="nonzero" fill="rgb(13.330078%, 22.75238%, 2.745056%)" fill-opacity="1"
          d="M 2895.289062 756.140625 L 2889.410156 758.640625 L 2881.128906 758.640625 L 2887 756.140625 Z M 2895.289062 756.140625 "/>
    <path fill-rule="nonzero" fill="rgb(12.939453%, 22.363281%, 2.745056%)" fill-opacity="1"
          d="M 2901.328125 753.929688 L 2895.289062 756.140625 L 2887 756.140625 L 2893.058594 753.929688 Z M 2901.328125 753.929688 "/>
    <path fill-rule="nonzero" fill="rgb(12.939453%, 21.972656%, 2.745056%)" fill-opacity="1"
          d="M 2907.539062 752.070312 L 2901.328125 753.929688 L 2893.058594 753.929688 L 2899.261719 752.070312 Z M 2907.539062 752.070312 "/>
    <path fill-rule="nonzero" fill="rgb(12.547302%, 21.556091%, 2.745056%)" fill-opacity="1"
          d="M 2913.871094 750.53125 L 2907.539062 752.070312 L 2899.261719 752.070312 L 2905.578125 750.53125 Z M 2913.871094 750.53125 "/>
    <path fill-rule="nonzero" fill="rgb(12.547302%, 21.166992%, 2.745056%)" fill-opacity="1"
          d="M 2920.300781 749.328125 L 2913.871094 750.53125 L 2905.578125 750.53125 L 2912.011719 749.328125 Z M 2920.300781 749.328125 "/>
    <path fill-rule="nonzero" fill="rgb(12.156677%, 20.776367%, 2.745056%)" fill-opacity="1"
          d="M 2926.800781 748.46875 L 2920.300781 749.328125 L 2912.011719 749.328125 L 2918.519531 748.46875 Z M 2926.800781 748.46875 "/>
    <path fill-rule="nonzero" fill="rgb(12.156677%, 20.384216%, 2.745056%)" fill-opacity="1"
          d="M 2933.359375 747.941406 L 2926.800781 748.46875 L 2918.519531 748.46875 L 2925.089844 747.941406 Z M 2933.359375 747.941406 "/>
    <path fill-rule="nonzero" fill="rgb(10.205078%, 17.259216%, 2.352905%)" fill-opacity="1"
          d="M 3033.929688 815.589844 L 3035.300781 820.578125 L 3027.019531 820.578125 L 3025.660156 815.589844 Z M 3033.929688 815.589844 "/>
    <path fill-rule="nonzero" fill="rgb(59.959412%, 59.959412%, 59.959412%)" fill-opacity="1"
          d="M 3025.660156 815.589844 L 3027.019531 820.578125 L 3027.570312 823.371094 L 3027.570312 830.230469 L 2844.050781 830.230469 L 2844.050781 823.371094 L 2844.589844 820.578125 L 2845.960938 815.589844 L 2847.679688 810.691406 L 2849.789062 805.890625 L 2852.21875 801.210938 L 2855 796.679688 L 2858.128906 792.28125 L 2861.570312 788.058594 L 2865.320312 784.039062 L 2869.351562 780.210938 L 2873.660156 776.601562 L 2878.230469 773.230469 L 2883.058594 770.121094 L 2888.089844 767.261719 L 2893.320312 764.660156 L 2898.75 762.359375 L 2904.328125 760.328125 L 2910.050781 758.609375 L 2915.890625 757.171875 L 2921.820312 756.070312 L 2927.820312 755.28125 L 2933.878906 754.789062 L 2935.820312 754.738281 L 2937.738281 754.789062 L 2943.789062 755.28125 L 2949.800781 756.070312 L 2955.71875 757.171875 L 2961.558594 758.609375 L 2967.289062 760.328125 L 2972.859375 762.359375 L 2978.289062 764.660156 L 2983.519531 767.261719 L 2988.570312 770.121094 L 2993.378906 773.230469 L 2997.949219 776.601562 L 3002.261719 780.210938 L 3006.289062 784.039062 L 3010.050781 788.058594 L 3013.480469 792.28125 L 3016.609375 796.679688 L 3019.390625 801.210938 L 3021.839844 805.890625 L 3023.929688 810.691406 "/>
    <path fill-rule="nonzero" fill="rgb(10.594177%, 18.431091%, 2.352905%)" fill-opacity="1"
          d="M 3027.570312 823.371094 L 3027.019531 820.578125 L 3035.300781 820.578125 L 3035.859375 823.371094 Z M 3027.570312 823.371094 "/>
    <path fill-rule="nonzero" fill="rgb(9.423828%, 15.696716%, 1.960754%)" fill-opacity="1"
          d="M 3025.660156 815.589844 L 3023.929688 810.691406 L 3032.210938 810.691406 L 3033.929688 815.589844 Z M 3025.660156 815.589844 "/>
    <path fill-rule="nonzero" fill="rgb(8.616638%, 14.501953%, 1.960754%)" fill-opacity="1"
          d="M 3023.929688 810.691406 L 3021.839844 805.890625 L 3030.121094 805.890625 L 3032.210938 810.691406 Z M 3023.929688 810.691406 "/>
    <path fill-rule="nonzero" fill="rgb(7.835388%, 13.330078%, 1.567078%)" fill-opacity="1"
          d="M 3021.839844 805.890625 L 3019.390625 801.210938 L 3027.679688 801.210938 L 3030.121094 805.890625 Z M 3021.839844 805.890625 "/>
    <path fill-rule="nonzero" fill="rgb(7.054138%, 12.156677%, 1.567078%)" fill-opacity="1"
          d="M 3019.390625 801.210938 L 3016.609375 796.679688 L 3024.878906 796.679688 L 3027.679688 801.210938 Z M 3019.390625 801.210938 "/>
    <path fill-rule="nonzero" fill="rgb(6.665039%, 11.376953%, 1.177979%)" fill-opacity="1"
          d="M 3016.609375 796.679688 L 3013.480469 792.28125 L 3021.769531 792.28125 L 3024.878906 796.679688 Z M 3016.609375 796.679688 "/>
    <path fill-rule="nonzero" fill="rgb(5.883789%, 10.594177%, 1.177979%)" fill-opacity="1"
          d="M 3013.480469 792.28125 L 3010.050781 788.058594 L 3018.339844 788.058594 L 3021.769531 792.28125 Z M 3013.480469 792.28125 "/>
    <path fill-rule="nonzero" fill="rgb(5.883789%, 10.594177%, 1.177979%)" fill-opacity="1"
          d="M 3010.050781 788.058594 L 3006.289062 784.039062 L 3014.589844 784.039062 L 3018.339844 788.058594 Z M 3010.050781 788.058594 "/>
    <path fill-rule="nonzero" fill="rgb(5.883789%, 10.594177%, 1.177979%)" fill-opacity="1"
          d="M 3006.289062 784.039062 L 3002.261719 780.210938 L 3010.558594 780.210938 L 3014.589844 784.039062 Z M 3006.289062 784.039062 "/>
    <path fill-rule="nonzero" fill="rgb(5.883789%, 10.594177%, 1.177979%)" fill-opacity="1"
          d="M 3002.261719 780.210938 L 2997.949219 776.601562 L 3006.25 776.601562 L 3010.558594 780.210938 Z M 3002.261719 780.210938 "/>
    <path fill-rule="nonzero" fill="rgb(5.883789%, 10.594177%, 1.177979%)" fill-opacity="1"
          d="M 2997.949219 776.601562 L 2993.378906 773.230469 L 3001.671875 773.230469 L 3006.25 776.601562 Z M 2997.949219 776.601562 "/>
    <path fill-rule="nonzero" fill="rgb(5.883789%, 10.594177%, 1.177979%)" fill-opacity="1"
          d="M 2993.378906 773.230469 L 2988.570312 770.121094 L 2996.851562 770.121094 L 3001.671875 773.230469 Z M 2993.378906 773.230469 "/>
    <path fill-rule="nonzero" fill="rgb(5.883789%, 10.594177%, 1.177979%)" fill-opacity="1"
          d="M 2988.570312 770.121094 L 2983.519531 767.261719 L 2991.820312 767.261719 L 2996.851562 770.121094 Z M 2988.570312 770.121094 "/>
    <path fill-rule="nonzero" fill="rgb(5.883789%, 10.594177%, 1.177979%)" fill-opacity="1"
          d="M 2983.519531 767.261719 L 2978.289062 764.660156 L 2986.570312 764.660156 L 2991.820312 767.261719 Z M 2983.519531 767.261719 "/>
    <path fill-rule="nonzero" fill="rgb(5.883789%, 10.594177%, 1.177979%)" fill-opacity="1"
          d="M 2978.289062 764.660156 L 2972.859375 762.359375 L 2981.160156 762.359375 L 2986.570312 764.660156 Z M 2978.289062 764.660156 "/>
    <path fill-rule="nonzero" fill="rgb(5.883789%, 10.594177%, 1.177979%)" fill-opacity="1"
          d="M 2972.859375 762.359375 L 2967.289062 760.328125 L 2975.578125 760.328125 L 2981.160156 762.359375 Z M 2972.859375 762.359375 "/>
    <path fill-rule="nonzero" fill="rgb(5.883789%, 10.594177%, 1.177979%)" fill-opacity="1"
          d="M 2967.289062 760.328125 L 2961.558594 758.609375 L 2969.859375 758.609375 L 2975.578125 760.328125 Z M 2967.289062 760.328125 "/>
    <path fill-rule="nonzero" fill="rgb(5.883789%, 10.594177%, 1.177979%)" fill-opacity="1"
          d="M 2961.558594 758.609375 L 2955.71875 757.171875 L 2964.011719 757.171875 L 2969.859375 758.609375 Z M 2961.558594 758.609375 "/>
    <path fill-rule="nonzero" fill="rgb(5.883789%, 10.594177%, 1.177979%)" fill-opacity="1"
          d="M 2955.71875 757.171875 L 2949.800781 756.070312 L 2958.070312 756.070312 L 2964.011719 757.171875 Z M 2955.71875 757.171875 "/>
    <path fill-rule="nonzero" fill="rgb(5.883789%, 10.594177%, 1.177979%)" fill-opacity="1"
          d="M 2949.800781 756.070312 L 2943.789062 755.28125 L 2952.070312 755.28125 L 2958.070312 756.070312 Z M 2949.800781 756.070312 "/>
    <path fill-rule="nonzero" fill="rgb(5.883789%, 10.594177%, 1.177979%)" fill-opacity="1"
          d="M 2943.789062 755.28125 L 2937.738281 754.789062 L 2946.03125 754.789062 L 2952.070312 755.28125 Z M 2943.789062 755.28125 "/>
    <path fill-rule="nonzero" fill="rgb(12.547302%, 21.166992%, 2.745056%)" fill-opacity="1"
          d="M 3027.570312 830.230469 L 3035.855469 830.230469 L 3035.855469 823.371094 L 3027.570312 823.371094 Z M 3027.570312 830.230469 "/>
    <path fill-rule="nonzero" fill="rgb(5.883789%, 10.594177%, 1.177979%)" fill-opacity="1"
          d="M 2946.03125 754.789062 L 2937.738281 754.789062 L 2935.820312 754.738281 L 2939.949219 754.640625 Z M 2946.03125 754.789062 "/>
    <path fill-rule="nonzero" fill="rgb(12.547302%, 21.166992%, 2.745056%)" fill-opacity="1"
          d="M 2826.710938 830.230469 L 2826.710938 1267.140625 L 2818.410156 1267.140625 L 2818.410156 830.230469 L 2826.570312 830.230469 "/>
    <path fill-rule="nonzero" fill="rgb(65.429688%, 65.429688%, 65.429688%)" fill-opacity="1"
          d="M 3067.019531 1373.226562 L 3067.019531 1396.289062 L 2822.878906 1396.289062 L 2822.878906 1373.226562 L 3044.199219 1373.226562 "/>
    <path fill-rule="nonzero" fill="rgb(87.889099%, 87.889099%, 87.889099%)" fill-opacity="1"
          d="M 2822.878906 1373.226562 L 2822.878906 1396.289062 L 322.621094 1396.289062 L 322.621094 1373.226562 L 2813.578125 1373.226562 "/>
    <path fill-rule="nonzero" fill="rgb(65.429688%, 65.429688%, 65.429688%)" fill-opacity="1"
          d="M 2822.890625 1506.984375 L 3067.019531 1506.984375 L 3067.019531 1483.921875 L 2822.890625 1483.921875 Z M 2822.890625 1506.984375 "/>
    <path fill-rule="nonzero" fill="rgb(87.889099%, 87.889099%, 87.889099%)" fill-opacity="1"
          d="M 2822.878906 1483.921875 L 2822.878906 1506.984375 L 2006.410156 1506.984375 L 2006.410156 1622.296875 L 1960.28125 1622.296875 L 1960.28125 1506.746094 L 322.621094 1506.746094 L 322.621094 1483.921875 L 2813.578125 1483.921875 "/>
    <path fill-rule="nonzero" fill="rgb(40.380859%, 28.24707%, 22.363281%)" fill-opacity="1"
          d="M 322.621094 1506.746094 L 1960.28125 1506.746094 L 1960.28125 1631.929688 L 105.179688 1631.929688 L 322.621094 1506.390625 "/>
    <path fill-rule="nonzero" fill="rgb(11.767578%, 6.665039%, 3.921509%)" fill-opacity="1"
          d="M 105.179688 1631.929688 L 1960.28125 1631.929688 L 1960.28125 1641.914062 L 110.945312 1641.914062 Z M 105.179688 1631.929688 "/>
    <path fill-rule="nonzero" fill="rgb(11.767578%, 6.665039%, 3.921509%)" fill-opacity="1"
          d="M 128.242188 1671.875 L 110.945312 1641.914062 L 1960.28125 1641.914062 L 1960.28125 1671.875 L 260.625 1671.875 "/>
    <path fill-rule="nonzero" fill="rgb(87.889099%, 87.889099%, 87.889099%)" fill-opacity="1"
          d="M 1960.28125 1671.875 L 1960.28125 1622.296875 L 2006.410156 1622.296875 L 2006.410156 2030.496094 L 1960.28125 2030.496094 "/>
    <path fill-rule="nonzero" fill="rgb(80.076599%, 70.506287%, 38.426208%)" fill-opacity="1"
          d="M 2006.410156 1506.984375 L 2602.421875 1506.984375 L 2549.589844 1511.695312 L 2497.769531 1523.070312 L 2447.808594 1540.925781 L 2400.488281 1564.972656 L 2356.578125 1594.832031 L 2316.789062 1630.019531 L 2281.730469 1669.972656 L 2251.980469 1714.054688 L 2228.03125 1761.554688 L 2210.25 1811.710938 L 2198.910156 1863.722656 L 2194.21875 1916.753906 L 2194.21875 2016.304688 L 2767.449219 2016.304688 L 2767.449219 2108.90625 L 2006.410156 2108.90625 L 2006.410156 1622.296875 "/>
    <path fill-rule="nonzero" fill="rgb(87.889099%, 87.889099%, 87.889099%)" fill-opacity="1"
          d="M 2006.410156 2108.90625 L 2767.449219 2108.90625 L 2767.449219 2131.96875 L 2006.410156 2131.96875 L 2006.410156 2130.035156 "/>
    <path fill-rule="nonzero" fill="rgb(52.539062%, 39.598083%, 30.979919%)" fill-opacity="1"
          d="M 2006.410156 2198.847656 L 2767.457031 2198.847656 L 2767.457031 2131.96875 L 2006.410156 2131.96875 Z M 2006.410156 2198.847656 "/>
    <path fill-rule="nonzero" fill="rgb(52.146912%, 29.417419%, 14.501953%)" fill-opacity="1"
          d="M 2194.21875 2016.304688 L 2767.449219 2016.304688 L 2767.449219 2004.730469 L 2194.21875 2004.730469 Z M 2194.21875 2016.304688 "/>
    <path fill-rule="nonzero" fill="rgb(87.889099%, 87.889099%, 87.889099%)" fill-opacity="1"
          d="M 2767.449219 2016.304688 L 2767.449219 1506.984375 L 2813.578125 1506.984375 L 2813.578125 2108.90625 L 2767.449219 2108.90625 "/>
    <path fill-rule="nonzero" fill="rgb(57.226562%, 43.138123%, 33.714294%)" fill-opacity="1"
          d="M 2767.449219 2108.90625 L 2813.578125 2108.90625 L 2813.578125 2247.28125 L 2767.449219 2247.28125 L 2767.449219 2131.96875 "/>
    <path fill-rule="nonzero" fill="rgb(52.539062%, 39.598083%, 30.979919%)" fill-opacity="1"
          d="M 2767.449219 2247.28125 L 2813.578125 2247.28125 L 2813.578125 2293.402344 L 2767.449219 2293.402344 L 2767.449219 2291.097656 "/>
    <path fill-rule="nonzero" fill="rgb(40.795898%, 40.795898%, 40.795898%)" fill-opacity="1"
          d="M 1960.28125 2030.496094 L 2006.410156 2030.496094 L 2006.410156 2130.035156 L 1960.28125 2130.035156 L 1960.28125 2108.90625 "/>
    <path fill-rule="nonzero" fill="rgb(87.889099%, 87.889099%, 87.889099%)" fill-opacity="1"
          d="M 1960.28125 2130.035156 L 2006.410156 2130.035156 L 2006.410156 2198.847656 L 1960.28125 2198.847656 L 1960.28125 2131.96875 "/>
    <path fill-rule="nonzero" fill="rgb(87.889099%, 87.889099%, 87.889099%)" fill-opacity="1"
          d="M 341.320312 1373.21875 L 392.054688 1373.21875 L 392.054688 713.640625 L 341.320312 713.640625 Z M 341.320312 1373.21875 "/>
    <path fill-rule="nonzero" fill="rgb(52.539062%, 39.598083%, 30.979919%)" fill-opacity="1"
          d="M 392.054688 2198.847656 L 1153.105469 2198.847656 L 1153.105469 2131.96875 L 392.054688 2131.96875 Z M 392.054688 2198.847656 "/>
    <path fill-rule="nonzero" fill="rgb(87.889099%, 87.889099%, 87.889099%)" fill-opacity="1"
          d="M 392.054688 2131.96875 L 1153.105469 2131.96875 L 1153.105469 2108.90625 L 392.054688 2108.90625 Z M 392.054688 2131.96875 "/>
    <path fill-rule="nonzero" fill="rgb(80.076599%, 70.506287%, 38.426208%)" fill-opacity="1"
          d="M 1153.109375 2108.90625 L 392.054688 2108.90625 L 392.054688 1671.875 L 471.320312 1671.875 L 471.320312 1924.5625 L 1066.320312 1924.5625 L 1066.320312 1671.875 L 1153.109375 1671.875 "/>
    <path fill-rule="nonzero" fill="rgb(13.330078%, 22.75238%, 2.745056%)" fill-opacity="1"
          d="M 471.320312 1924.5625 L 471.320312 1671.875 L 492.074219 1671.875 L 492.074219 1906.109375 L 1045.558594 1906.109375 L 1045.558594 1671.875 L 1066.320312 1671.875 L 1066.320312 1924.5625 "/>
    <path fill-rule="nonzero" fill="rgb(9.008789%, 14.892578%, 1.960754%)" fill-opacity="1"
          d="M 1043.691406 1906.109375 L 1045.574219 1906.109375 L 1045.574219 1671.875 L 1043.691406 1671.875 Z M 1043.691406 1906.109375 "/>
    <path fill-rule="nonzero" fill="rgb(5.883789%, 10.594177%, 1.177979%)" fill-opacity="1"
          d="M 492.074219 1906.109375 L 494.234375 1906.109375 L 494.234375 1671.875 L 492.074219 1671.875 Z M 492.074219 1906.109375 "/>
    <path fill-rule="nonzero" fill="rgb(9.812927%, 12.547302%, 6.272888%)" fill-opacity="1"
          d="M 494.234375 1906.109375 L 507.207031 1906.109375 L 507.207031 1671.875 L 494.234375 1671.875 Z M 494.234375 1906.109375 "/>
    <path fill-rule="nonzero" fill="rgb(12.547302%, 21.556091%, 2.745056%)" fill-opacity="1"
          d="M 509.371094 1906.109375 L 518.285156 1906.109375 L 518.285156 1671.875 L 509.371094 1671.875 Z M 509.371094 1906.109375 "/>
    <path fill-rule="nonzero" fill="rgb(5.883789%, 10.594177%, 1.177979%)" fill-opacity="1"
          d="M 507.207031 1906.109375 L 509.371094 1906.109375 L 509.371094 1671.875 L 507.207031 1671.875 Z M 507.207031 1906.109375 "/>
    <path fill-rule="nonzero" fill="rgb(13.330078%, 23.143005%, 3.137207%)" fill-opacity="1"
          d="M 518.285156 1906.109375 L 527.203125 1906.109375 L 527.203125 1671.875 L 518.285156 1671.875 Z M 518.285156 1906.109375 "/>
    <path fill-rule="nonzero" fill="rgb(13.719177%, 18.041992%, 9.008789%)" fill-opacity="1"
          d="M 529.363281 1906.109375 L 542.335938 1906.109375 L 542.335938 1671.875 L 529.363281 1671.875 Z M 529.363281 1906.109375 "/>
    <path fill-rule="nonzero" fill="rgb(9.008789%, 14.892578%, 1.960754%)" fill-opacity="1"
          d="M 542.335938 1906.109375 L 544.5 1906.109375 L 544.5 1671.875 L 542.335938 1671.875 Z M 542.335938 1906.109375 "/>
    <path fill-rule="nonzero" fill="rgb(5.883789%, 10.594177%, 1.177979%)" fill-opacity="1"
          d="M 544.5 1906.109375 L 546.660156 1906.109375 L 546.660156 1671.875 L 544.5 1671.875 Z M 544.5 1906.109375 "/>
    <path fill-rule="nonzero" fill="rgb(9.008789%, 14.892578%, 1.960754%)" fill-opacity="1"
          d="M 527.203125 1906.109375 L 529.363281 1906.109375 L 529.363281 1671.875 L 527.203125 1671.875 Z M 527.203125 1906.109375 "/>
    <path fill-rule="nonzero" fill="rgb(13.719177%, 18.041992%, 9.008789%)" fill-opacity="1"
          d="M 581.789062 1906.109375 L 594.761719 1906.109375 L 594.761719 1671.875 L 581.789062 1671.875 Z M 581.789062 1906.109375 "/>
    <path fill-rule="nonzero" fill="rgb(9.008789%, 14.892578%, 1.960754%)" fill-opacity="1"
          d="M 594.761719 1906.109375 L 596.925781 1906.109375 L 596.925781 1671.875 L 594.761719 1671.875 Z M 594.761719 1906.109375 "/>
    <path fill-rule="nonzero" fill="rgb(83.984375%, 68.943787%, 27.050781%)" fill-opacity="1"
          d="M 596.925781 1906.109375 L 669.160156 1906.109375 L 669.160156 1671.875 L 596.925781 1671.875 Z M 596.925781 1906.109375 "/>
    <path fill-rule="nonzero" fill="rgb(9.008789%, 14.892578%, 1.960754%)" fill-opacity="1"
          d="M 579.625 1906.109375 L 581.789062 1906.109375 L 581.789062 1671.875 L 579.625 1671.875 Z M 579.625 1906.109375 "/>
    <path fill-rule="nonzero" fill="rgb(13.330078%, 23.143005%, 3.137207%)" fill-opacity="1"
          d="M 570.710938 1906.109375 L 579.625 1906.109375 L 579.625 1671.875 L 570.710938 1671.875 Z M 570.710938 1906.109375 "/>
    <path fill-rule="nonzero" fill="rgb(12.547302%, 21.556091%, 2.745056%)" fill-opacity="1"
          d="M 561.792969 1906.109375 L 570.710938 1906.109375 L 570.710938 1671.875 L 561.792969 1671.875 Z M 561.792969 1906.109375 "/>
    <path fill-rule="nonzero" fill="rgb(9.812927%, 12.547302%, 6.272888%)" fill-opacity="1"
          d="M 546.660156 1906.109375 L 559.632812 1906.109375 L 559.632812 1671.875 L 546.660156 1671.875 Z M 546.660156 1906.109375 "/>
    <path fill-rule="nonzero" fill="rgb(5.883789%, 10.594177%, 1.177979%)" fill-opacity="1"
          d="M 559.632812 1906.109375 L 561.792969 1906.109375 L 561.792969 1671.875 L 559.632812 1671.875 Z M 559.632812 1906.109375 "/>
    <path fill-rule="nonzero" fill="rgb(9.812927%, 12.547302%, 6.272888%)" fill-opacity="1"
          d="M 943.152344 1906.109375 L 956.125 1906.109375 L 956.125 1671.875 L 943.152344 1671.875 Z M 943.152344 1906.109375 "/>
    <path fill-rule="nonzero" fill="rgb(12.547302%, 21.556091%, 2.745056%)" fill-opacity="1"
          d="M 958.285156 1906.109375 L 967.203125 1906.109375 L 967.203125 1671.875 L 958.285156 1671.875 Z M 958.285156 1906.109375 "/>
    <path fill-rule="nonzero" fill="rgb(5.883789%, 10.594177%, 1.177979%)" fill-opacity="1"
          d="M 956.128906 1906.109375 L 958.292969 1906.109375 L 958.292969 1671.875 L 956.128906 1671.875 Z M 956.128906 1906.109375 "/>
    <path fill-rule="nonzero" fill="rgb(13.330078%, 23.143005%, 3.137207%)" fill-opacity="1"
          d="M 967.203125 1906.109375 L 976.121094 1906.109375 L 976.121094 1671.875 L 967.203125 1671.875 Z M 967.203125 1906.109375 "/>
    <path fill-rule="nonzero" fill="rgb(5.883789%, 10.594177%, 1.177979%)" fill-opacity="1"
          d="M 940.996094 1906.109375 L 943.15625 1906.109375 L 943.15625 1671.875 L 940.996094 1671.875 Z M 940.996094 1906.109375 "/>
    <path fill-rule="nonzero" fill="rgb(83.984375%, 68.943787%, 27.050781%)" fill-opacity="1"
          d="M 920.53125 1906.109375 L 940.988281 1906.109375 L 940.988281 1671.875 L 920.53125 1671.875 Z M 920.53125 1906.109375 "/>
    <path fill-rule="nonzero" fill="rgb(13.719177%, 18.041992%, 9.008789%)" fill-opacity="1"
          d="M 978.292969 1906.109375 L 991.261719 1906.109375 L 991.261719 1671.875 L 978.292969 1671.875 Z M 978.292969 1906.109375 "/>
    <path fill-rule="nonzero" fill="rgb(9.008789%, 14.892578%, 1.960754%)" fill-opacity="1"
          d="M 991.253906 1906.109375 L 993.417969 1906.109375 L 993.417969 1671.875 L 991.253906 1671.875 Z M 991.253906 1906.109375 "/>
    <path fill-rule="nonzero" fill="rgb(5.883789%, 10.594177%, 1.177979%)" fill-opacity="1"
          d="M 993.425781 1906.109375 L 995.589844 1906.109375 L 995.589844 1671.875 L 993.425781 1671.875 Z M 993.425781 1906.109375 "/>
    <path fill-rule="nonzero" fill="rgb(9.008789%, 14.892578%, 1.960754%)" fill-opacity="1"
          d="M 976.121094 1906.109375 L 978.28125 1906.109375 L 978.28125 1671.875 L 976.121094 1671.875 Z M 976.121094 1906.109375 "/>
    <path fill-rule="nonzero" fill="rgb(13.719177%, 18.041992%, 9.008789%)" fill-opacity="1"
          d="M 1030.710938 1906.109375 L 1043.683594 1906.109375 L 1043.683594 1671.875 L 1030.710938 1671.875 Z M 1030.710938 1906.109375 "/>
    <path fill-rule="nonzero" fill="rgb(9.008789%, 14.892578%, 1.960754%)" fill-opacity="1"
          d="M 1028.550781 1906.109375 L 1030.714844 1906.109375 L 1030.714844 1671.875 L 1028.550781 1671.875 Z M 1028.550781 1906.109375 "/>
    <path fill-rule="nonzero" fill="rgb(13.330078%, 23.143005%, 3.137207%)" fill-opacity="1"
          d="M 1019.628906 1906.109375 L 1028.546875 1906.109375 L 1028.546875 1671.875 L 1019.628906 1671.875 Z M 1019.628906 1906.109375 "/>
    <path fill-rule="nonzero" fill="rgb(12.547302%, 21.556091%, 2.745056%)" fill-opacity="1"
          d="M 1010.71875 1906.109375 L 1019.632812 1906.109375 L 1019.632812 1671.875 L 1010.71875 1671.875 Z M 1010.71875 1906.109375 "/>
    <path fill-rule="nonzero" fill="rgb(9.812927%, 12.547302%, 6.272888%)" fill-opacity="1"
          d="M 995.582031 1906.109375 L 1008.554688 1906.109375 L 1008.554688 1671.875 L 995.582031 1671.875 Z M 995.582031 1906.109375 "/>
    <path fill-rule="nonzero" fill="rgb(5.883789%, 10.594177%, 1.177979%)" fill-opacity="1"
          d="M 1008.550781 1906.109375 L 1010.714844 1906.109375 L 1010.714844 1671.875 L 1008.550781 1671.875 Z M 1008.550781 1906.109375 "/>
    <path fill-rule="nonzero" fill="rgb(52.539062%, 52.539062%, 52.539062%)" fill-opacity="1"
          d="M 810.304688 1906.109375 L 920.53125 1906.109375 L 920.53125 1671.875 L 810.304688 1671.875 Z M 810.304688 1906.109375 "/>
    <path fill-rule="nonzero" fill="rgb(52.539062%, 52.539062%, 52.539062%)" fill-opacity="1"
          d="M 669.160156 1906.109375 L 779.386719 1906.109375 L 779.386719 1671.875 L 669.160156 1671.875 Z M 669.160156 1906.109375 "/>
    <path fill-rule="nonzero" fill="rgb(52.539062%, 52.539062%, 52.539062%)" fill-opacity="1"
          d="M 779.390625 1906.109375 L 790.921875 1906.109375 L 790.921875 1671.875 L 779.390625 1671.875 Z M 779.390625 1906.109375 "/>
    <path fill-rule="nonzero" fill="rgb(58.396912%, 48.631287%, 23.535156%)" fill-opacity="1"
          d="M 790.921875 1906.109375 L 798.777344 1906.109375 L 798.777344 1671.875 L 790.921875 1671.875 Z M 790.921875 1906.109375 "/>
    <path fill-rule="nonzero" fill="rgb(52.539062%, 52.539062%, 52.539062%)" fill-opacity="1"
          d="M 798.769531 1906.109375 L 810.300781 1906.109375 L 810.300781 1671.875 L 798.769531 1671.875 Z M 798.769531 1906.109375 "/>
    <path fill-rule="nonzero" fill="rgb(80.076599%, 70.506287%, 38.426208%)" fill-opacity="1"
          d="M 392.054688 1373.226562 L 1153.105469 1373.226562 L 1153.105469 1301.734375 L 392.054688 1301.734375 Z M 392.054688 1373.226562 "/>
    <path fill-rule="nonzero" fill="rgb(80.076599%, 70.506287%, 38.426208%)" fill-opacity="1"
          d="M 1153.109375 1301.734375 L 392.054688 1301.734375 L 392.054688 713.640625 L 396.679688 713.640625 L 396.679688 843.828125 L 1149.75 843.828125 L 1149.75 713.640625 L 1153.109375 713.640625 "/>
    <path fill-rule="nonzero" fill="rgb(13.330078%, 22.75238%, 2.745056%)" fill-opacity="1"
          d="M 1149.75 843.828125 L 396.675781 843.828125 L 396.675781 713.648438 L 1149.75 713.648438 Z M 596.105469 737.660156 L 418.996094 737.660156 L 418.996094 819.460938 L 1127.441406 819.460938 L 1127.441406 737.660156 L 773.21875 737.660156 "/>
    <path fill-rule="nonzero" fill="rgb(87.889099%, 87.889099%, 87.889099%)" fill-opacity="1"
          d="M 1153.109375 2198.847656 L 1199.234375 2198.847656 L 1199.234375 1671.875 L 1153.109375 1671.875 Z M 1153.109375 2198.847656 "/>
    <path fill-rule="nonzero" fill="rgb(87.889099%, 87.889099%, 87.889099%)" fill-opacity="1"
          d="M 1153.109375 1373.21875 L 1199.234375 1373.21875 L 1199.234375 713.640625 L 1153.109375 713.640625 Z M 1153.109375 1373.21875 "/>
    <path fill-rule="nonzero" fill="rgb(52.539062%, 39.598083%, 30.979919%)" fill-opacity="1"
          d="M 1199.238281 2198.847656 L 1960.285156 2198.847656 L 1960.285156 2131.96875 L 1199.238281 2131.96875 Z M 1199.238281 2198.847656 "/>
    <path fill-rule="nonzero" fill="rgb(87.889099%, 87.889099%, 87.889099%)" fill-opacity="1"
          d="M 1960.28125 2131.96875 L 1199.238281 2131.96875 L 1199.238281 2108.90625 L 1960.28125 2108.90625 L 1960.28125 2130.035156 "/>
    <path fill-rule="nonzero" fill="rgb(80.076599%, 70.506287%, 38.426208%)" fill-opacity="1"
          d="M 1960.28125 2108.90625 L 1199.238281 2108.90625 L 1199.238281 1671.875 L 1210.75 1671.875 L 1210.75 2051.828125 L 1326.488281 2051.828125 L 1326.488281 1671.875 L 1819.601562 1671.875 L 1819.601562 2051.640625 L 1935.320312 2051.640625 L 1935.320312 1671.875 L 1960.28125 1671.875 L 1960.28125 2030.496094 "/>
    <path fill-rule="nonzero" fill="rgb(13.330078%, 22.75238%, 2.745056%)" fill-opacity="1"
          d="M 1210.75 2051.828125 L 1210.75 1671.875 L 1228.140625 1671.875 L 1228.140625 2031.828125 L 1309.101562 2031.828125 L 1309.101562 1671.875 L 1326.488281 1671.875 L 1326.488281 2051.828125 "/>
    <path fill-rule="nonzero" fill="rgb(13.330078%, 22.75238%, 2.745056%)" fill-opacity="1"
          d="M 1228.140625 2031.828125 L 1228.140625 1671.875 L 1234 1671.875 L 1234 2023.355469 L 1303.25 2023.355469 L 1303.25 1671.875 L 1309.101562 1671.875 L 1309.101562 2031.828125 "/>
    <path fill-rule="nonzero" fill="rgb(87.889099%, 87.889099%, 87.889099%)" fill-opacity="1"
          d="M 1234 2023.355469 L 1303.234375 2023.355469 L 1303.234375 1671.875 L 1234 1671.875 Z M 1234 2023.355469 "/>
    <path fill-rule="nonzero" fill="rgb(13.330078%, 22.75238%, 2.745056%)" fill-opacity="1"
          d="M 1819.601562 2051.640625 L 1819.601562 1671.875 L 1836.988281 1671.875 L 1836.988281 2031.640625 L 1917.929688 2031.640625 L 1917.929688 1671.875 L 1935.320312 1671.875 L 1935.320312 2051.640625 "/>
    <path fill-rule="nonzero" fill="rgb(13.330078%, 22.75238%, 2.745056%)" fill-opacity="1"
          d="M 1836.988281 2031.640625 L 1836.988281 1671.875 L 1842.839844 1671.875 L 1842.839844 2023.167969 L 1912.070312 2023.167969 L 1912.070312 1671.875 L 1917.929688 1671.875 L 1917.929688 2031.640625 "/>
    <path fill-rule="nonzero" fill="rgb(87.889099%, 87.889099%, 87.889099%)" fill-opacity="1"
          d="M 1842.839844 2023.167969 L 1912.074219 2023.167969 L 1912.074219 1671.875 L 1842.839844 1671.875 Z M 1842.839844 2023.167969 "/>
    <path fill-rule="nonzero" fill="rgb(80.076599%, 70.506287%, 38.426208%)" fill-opacity="1"
          d="M 1199.238281 1373.226562 L 1960.285156 1373.226562 L 1960.285156 1301.734375 L 1199.238281 1301.734375 Z M 1199.238281 1373.226562 "/>
    <path fill-rule="nonzero" fill="rgb(80.076599%, 70.506287%, 38.426208%)" fill-opacity="1"
          d="M 1960.28125 1301.734375 L 1199.234375 1301.734375 L 1199.234375 713.648438 L 1960.28125 713.648438 Z M 1373.441406 1209.480469 L 1787.027344 1209.480469 L 1787.027344 721.84375 L 1373.441406 721.84375 Z M 1373.441406 1209.480469 "/>
    <path fill-rule="nonzero" fill="rgb(87.889099%, 87.889099%, 87.889099%)" fill-opacity="1"
          d="M 1960.28125 1373.21875 L 2006.40625 1373.21875 L 2006.40625 713.640625 L 1960.28125 713.640625 Z M 1960.28125 1373.21875 "/>
    <path fill-rule="nonzero" fill="rgb(80.076599%, 70.506287%, 38.426208%)" fill-opacity="1"
          d="M 2006.410156 1373.226562 L 2767.457031 1373.226562 L 2767.457031 1301.734375 L 2006.410156 1301.734375 Z M 2006.410156 1373.226562 "/>
    <path fill-rule="nonzero" fill="rgb(80.076599%, 70.506287%, 38.426208%)" fill-opacity="1"
          d="M 2767.449219 1301.734375 L 2006.398438 1301.734375 L 2006.398438 713.648438 L 2767.449219 713.648438 Z M 2007.359375 1209.480469 L 2220.933594 1209.480469 L 2220.933594 721.84375 L 2007.359375 721.84375 Z M 2007.359375 1209.480469 "/>
    <path fill-rule="nonzero" fill="rgb(13.330078%, 22.75238%, 2.745056%)" fill-opacity="1"
          d="M 334.402344 1232.550781 L 334.214844 1232.550781 L 334.214844 1114.96875 L 341.320312 1114.96875 L 341.320312 1232.550781 "/>
    <path fill-rule="nonzero" fill="rgb(13.330078%, 22.75238%, 2.745056%)" fill-opacity="1"
          d="M 334.214844 1114.96875 L 341.320312 1114.96875 L 341.320312 1000.757812 L 334.214844 1000.757812 Z M 334.214844 1114.96875 "/>
    <path fill-rule="nonzero" fill="rgb(13.330078%, 22.75238%, 2.745056%)" fill-opacity="1"
          d="M 334.402344 1000.761719 L 341.320312 1000.761719 L 341.320312 845.320312 L 334.402344 845.320312 Z M 334.402344 1000.761719 "/>
    <path fill-rule="nonzero" fill="rgb(13.330078%, 22.75238%, 2.745056%)" fill-opacity="1"
          d="M 334.214844 1000.761719 L 334.402344 1000.761719 L 334.402344 845.320312 L 334.214844 845.320312 Z M 334.214844 1000.761719 "/>
    <path fill-rule="nonzero" fill="rgb(13.330078%, 22.75238%, 2.745056%)" fill-opacity="1"
          d="M 334.214844 845.320312 L 341.320312 845.320312 L 341.320312 714.789062 L 334.214844 714.789062 Z M 334.214844 845.320312 "/>
    <path fill-rule="nonzero" fill="rgb(19.993591%, 12.547302%, 7.054138%)" fill-opacity="1"
          d="M 271.007812 1674.738281 L 266.042969 1671.875 L 335.226562 1671.875 L 341.320312 1675.390625 L 341.320312 1715.335938 L 334.40625 1711.34375 L 326.371094 1706.707031 "/>
    <path fill-rule="nonzero" fill="rgb(13.330078%, 22.75238%, 2.745056%)" fill-opacity="1"
          d="M 341.320312 1675.390625 L 335.226562 1671.875 L 341.320312 1671.875 "/>
    <path fill-rule="nonzero" fill="rgb(87.889099%, 87.889099%, 87.889099%)" fill-opacity="1"
          d="M 411.953125 1474.625 L 586.296875 1474.625 L 586.296875 1405.390625 L 411.953125 1405.390625 Z M 411.953125 1474.625 "/>
    <path fill-rule="nonzero" fill="rgb(13.330078%, 22.75238%, 2.745056%)" fill-opacity="1"
          d="M 590.277344 1480.480469 L 407.972656 1480.480469 L 407.972656 1399.535156 L 590.277344 1399.535156 Z M 411.953125 1474.625 L 586.296875 1474.625 L 586.296875 1405.390625 L 411.953125 1405.390625 Z M 411.953125 1474.625 "/>
    <path fill-rule="nonzero" fill="rgb(13.330078%, 22.75238%, 2.745056%)" fill-opacity="1"
          d="M 590.277344 1399.535156 L 772.582031 1399.535156 L 772.582031 1480.480469 L 590.277344 1480.480469 Z M 594.257812 1474.625 L 768.601562 1474.625 L 768.601562 1405.390625 L 594.257812 1405.390625 Z M 594.257812 1474.625 "/>
    <path fill-rule="nonzero" fill="rgb(13.330078%, 22.75238%, 2.745056%)" fill-opacity="1"
          d="M 1137.179688 1480.480469 L 954.875 1480.480469 L 954.875 1399.535156 L 1137.179688 1399.535156 Z M 958.863281 1474.625 L 1133.207031 1474.625 L 1133.207031 1405.390625 L 958.863281 1405.390625 Z M 958.863281 1474.625 "/>
    <path fill-rule="nonzero" fill="rgb(13.330078%, 22.75238%, 2.745056%)" fill-opacity="1"
          d="M 772.578125 1399.535156 L 954.882812 1399.535156 L 954.882812 1480.480469 L 772.578125 1480.480469 Z M 776.558594 1474.625 L 950.902344 1474.625 L 950.902344 1405.390625 L 776.558594 1405.390625 Z M 776.558594 1474.625 "/>
    <path fill-rule="nonzero" fill="rgb(87.889099%, 87.889099%, 87.889099%)" fill-opacity="1"
          d="M 594.257812 1474.625 L 768.601562 1474.625 L 768.601562 1405.390625 L 594.257812 1405.390625 Z M 594.257812 1474.625 "/>
    <path fill-rule="nonzero" fill="rgb(87.889099%, 87.889099%, 87.889099%)" fill-opacity="1"
          d="M 776.558594 1474.625 L 950.902344 1474.625 L 950.902344 1405.390625 L 776.558594 1405.390625 Z M 776.558594 1474.625 "/>
    <path fill-rule="nonzero" fill="rgb(87.889099%, 87.889099%, 87.889099%)" fill-opacity="1"
          d="M 958.863281 1474.625 L 1133.207031 1474.625 L 1133.207031 1405.390625 L 958.863281 1405.390625 Z M 958.863281 1474.625 "/>
    <path fill-rule="nonzero" fill="rgb(13.330078%, 22.75238%, 2.745056%)" fill-opacity="1"
          d="M 2029.058594 743.628906 L 2114.15625 743.628906 L 2114.15625 828.960938 L 2029.058594 828.960938 Z M 2109.28125 746.558594 L 2033.9375 746.558594 L 2033.9375 825.976562 L 2109.28125 825.976562 Z M 2109.28125 746.558594 "/>
    <path fill-rule="nonzero" fill="rgb(13.330078%, 22.75238%, 2.745056%)" fill-opacity="1"
          d="M 2199.25 828.949219 L 2114.152344 828.949219 L 2114.152344 743.617188 L 2199.25 743.617188 Z M 2194.371094 746.558594 L 2119.027344 746.558594 L 2119.027344 825.976562 L 2194.371094 825.976562 Z M 2194.371094 746.558594 "/>
    <path fill-rule="nonzero" fill="rgb(13.330078%, 22.75238%, 2.745056%)" fill-opacity="1"
          d="M 2119.039062 852.390625 L 2194.382812 852.390625 L 2194.382812 1174.339844 L 2119.039062 1174.339844 Z M 2119.550781 1173.089844 L 2193.871094 1173.089844 L 2193.871094 853.632812 L 2119.550781 853.632812 Z M 2119.550781 1173.089844 "/>
    <path fill-rule="nonzero" fill="rgb(80.859375%, 80.859375%, 80.859375%)" fill-opacity="1"
          d="M 2119.550781 1173.089844 L 2193.871094 1173.089844 L 2193.871094 853.632812 L 2119.550781 853.632812 Z M 2119.550781 1173.089844 "/>
    <path fill-rule="nonzero" fill="rgb(13.330078%, 22.75238%, 2.745056%)" fill-opacity="1"
          d="M 2114.148438 1186.421875 L 2029.050781 1186.421875 L 2029.050781 840.488281 L 2114.148438 840.488281 Z M 2109.28125 852.390625 L 2033.9375 852.390625 L 2033.9375 1174.339844 L 2109.28125 1174.339844 Z M 2109.28125 852.390625 "/>
    <path fill-rule="nonzero" fill="rgb(13.330078%, 22.75238%, 2.745056%)" fill-opacity="1"
          d="M 2114.148438 840.488281 L 2199.246094 840.488281 L 2199.246094 1186.421875 L 2114.148438 1186.421875 Z M 2194.371094 852.390625 L 2119.027344 852.390625 L 2119.027344 1174.339844 L 2194.371094 1174.339844 Z M 2194.371094 852.390625 "/>
    <path fill-rule="nonzero" fill="rgb(13.330078%, 22.75238%, 2.745056%)" fill-opacity="1"
          d="M 2033.929688 852.390625 L 2109.269531 852.390625 L 2109.269531 1174.339844 L 2033.929688 1174.339844 Z M 2034.441406 1173.089844 L 2108.761719 1173.089844 L 2108.761719 853.632812 L 2034.441406 853.632812 Z M 2034.441406 1173.089844 "/>
    <path fill-rule="nonzero" fill="rgb(80.859375%, 80.859375%, 80.859375%)" fill-opacity="1"
          d="M 2034.441406 1173.089844 L 2108.761719 1173.089844 L 2108.761719 853.632812 L 2034.441406 853.632812 Z M 2034.441406 1173.089844 "/>
    <path fill-rule="nonzero" fill="rgb(13.330078%, 22.75238%, 2.745056%)" fill-opacity="1"
          d="M 2007.359375 721.851562 L 2220.933594 721.851562 L 2220.933594 1209.484375 L 2007.359375 1209.484375 Z M 2029.058594 828.949219 L 2199.253906 828.949219 L 2199.253906 743.628906 L 2029.058594 743.628906 Z M 2029.058594 1186.421875 L 2199.261719 1186.421875 L 2199.261719 840.488281 L 2029.058594 840.488281 Z M 2029.058594 1186.421875 "/>
    <path fill-rule="nonzero" fill="rgb(13.330078%, 22.75238%, 2.745056%)" fill-opacity="1"
          d="M 2119.039062 746.558594 L 2194.382812 746.558594 L 2194.382812 825.976562 L 2119.039062 825.976562 Z M 2119.550781 825.679688 L 2193.871094 825.679688 L 2193.871094 746.878906 L 2119.550781 746.878906 Z M 2119.550781 825.679688 "/>
    <path fill-rule="nonzero" fill="rgb(80.859375%, 80.859375%, 80.859375%)" fill-opacity="1"
          d="M 2119.550781 825.679688 L 2193.871094 825.679688 L 2193.871094 746.878906 L 2119.550781 746.878906 Z M 2119.550781 825.679688 "/>
    <path fill-rule="nonzero" fill="rgb(13.330078%, 22.75238%, 2.745056%)" fill-opacity="1"
          d="M 2033.929688 746.558594 L 2109.269531 746.558594 L 2109.269531 825.976562 L 2033.929688 825.976562 Z M 2034.441406 825.679688 L 2108.761719 825.679688 L 2108.761719 746.878906 L 2034.441406 746.878906 Z M 2034.441406 825.679688 "/>
    <path fill-rule="nonzero" fill="rgb(80.859375%, 80.859375%, 80.859375%)" fill-opacity="1"
          d="M 2034.441406 825.679688 L 2108.761719 825.679688 L 2108.761719 746.878906 L 2034.441406 746.878906 Z M 2034.441406 825.679688 "/>
    <path fill-rule="nonzero" fill="rgb(9.812927%, 16.868591%, 1.960754%)" fill-opacity="1"
          d="M 2930.429688 1083.558594 L 2850.46875 1083.558594 L 2850.46875 1082.308594 L 2929.558594 1082.308594 L 2929.558594 855.101562 L 2850.46875 855.101562 L 2850.46875 853.859375 L 2930.429688 853.859375 "/>
    <path fill-rule="nonzero" fill="rgb(12.547302%, 21.166992%, 2.745056%)" fill-opacity="1"
          d="M 2930.429688 1083.550781 L 2931.46875 1083.550781 L 2931.46875 853.851562 L 2930.429688 853.851562 Z M 2930.429688 1083.550781 "/>
    <path fill-rule="nonzero" fill="rgb(12.547302%, 21.166992%, 2.745056%)" fill-opacity="1"
          d="M 2928.53125 1082.308594 L 2929.566406 1082.308594 L 2929.566406 855.101562 L 2928.53125 855.101562 Z M 2928.53125 1082.308594 "/>
    <path fill-rule="nonzero" fill="rgb(59.959412%, 59.959412%, 59.959412%)" fill-opacity="1"
          d="M 2850.46875 1082.308594 L 2928.527344 1082.308594 L 2928.527344 855.101562 L 2850.46875 855.101562 Z M 2850.46875 1082.308594 "/>
    <path fill-rule="nonzero" fill="rgb(9.812927%, 16.868591%, 1.960754%)" fill-opacity="1"
          d="M 2842.039062 1095.449219 L 2842.039062 841.769531 L 2842.109375 1095.449219 "/>
    <path fill-rule="nonzero" fill="rgb(9.812927%, 16.868591%, 1.960754%)" fill-opacity="1"
          d="M 2842.109375 841.769531 L 2939.890625 841.769531 L 2939.890625 1095.449219 L 2842.109375 1095.449219 Z M 2850.46875 1083.558594 L 2931.46875 1083.558594 L 2931.46875 853.859375 L 2850.46875 853.859375 L 2850.46875 1082.308594 "/>
    <path fill-rule="nonzero" fill="rgb(12.547302%, 21.166992%, 2.745056%)" fill-opacity="1"
          d="M 2939.890625 1095.449219 L 2940.015625 1095.449219 L 2940.015625 841.769531 L 2939.890625 841.769531 Z M 2939.890625 1095.449219 "/>
    <path fill-rule="nonzero" fill="rgb(9.812927%, 16.868591%, 1.960754%)" fill-opacity="1"
          d="M 3037.851562 841.769531 L 3037.851562 1095.449219 L 3037.800781 841.769531 "/>
    <path fill-rule="nonzero" fill="rgb(9.812927%, 16.868591%, 1.960754%)" fill-opacity="1"
          d="M 3037.800781 1095.449219 L 2940.015625 1095.449219 L 2940.015625 841.769531 L 3037.800781 841.769531 Z M 3029.441406 1083.558594 L 3029.441406 853.859375 L 2948.429688 853.859375 L 2948.429688 1083.558594 L 3028.410156 1083.558594 "/>
    <path fill-rule="nonzero" fill="rgb(12.547302%, 21.166992%, 2.745056%)" fill-opacity="1"
          d="M 3028.410156 1083.550781 L 3029.445312 1083.550781 L 3029.445312 853.851562 L 3028.410156 853.851562 Z M 3028.410156 1083.550781 "/>
    <path fill-rule="nonzero" fill="rgb(9.812927%, 16.868591%, 1.960754%)" fill-opacity="1"
          d="M 3028.410156 853.859375 L 3028.410156 1083.558594 L 2948.429688 1083.558594 L 2948.429688 1082.308594 L 3027.539062 1082.308594 L 3027.539062 855.101562 L 2948.429688 855.101562 L 2948.429688 853.859375 "/>
    <path fill-rule="nonzero" fill="rgb(12.547302%, 21.166992%, 2.745056%)" fill-opacity="1"
          d="M 3026.5 1082.308594 L 3027.539062 1082.308594 L 3027.539062 855.101562 L 3026.5 855.101562 Z M 3026.5 1082.308594 "/>
    <path fill-rule="nonzero" fill="rgb(59.959412%, 59.959412%, 59.959412%)" fill-opacity="1"
          d="M 2948.429688 1082.308594 L 3026.492188 1082.308594 L 3026.492188 855.101562 L 2948.429688 855.101562 Z M 2948.429688 1082.308594 "/>
    <path fill-rule="nonzero" fill="rgb(9.812927%, 16.868591%, 1.960754%)" fill-opacity="1"
          d="M 2842.109375 1105.699219 L 2842.109375 1245.359375 L 2842.039062 1105.699219 "/>
    <path fill-rule="nonzero" fill="rgb(9.812927%, 16.868591%, 1.960754%)" fill-opacity="1"
          d="M 2842.109375 1245.359375 L 2842.109375 1105.699219 L 2939.890625 1105.699219 L 2939.949219 1245.359375 Z M 2931.46875 1117.789062 L 2850.46875 1117.789062 L 2850.46875 1119.039062 L 2850.511719 1232.210938 L 2850.53125 1233.460938 L 2931.539062 1233.460938 "/>
    <path fill-rule="nonzero" fill="rgb(9.812927%, 16.868591%, 1.960754%)" fill-opacity="1"
          d="M 3037.800781 1245.359375 L 2939.949219 1245.359375 L 2940.011719 1105.699219 L 3037.800781 1105.699219 Z M 3029.378906 1233.460938 L 3029.441406 1117.789062 L 2948.429688 1117.789062 L 2948.429688 1119.039062 L 2948.371094 1232.210938 L 2948.371094 1233.460938 L 3028.339844 1233.460938 "/>
    <path fill-rule="nonzero" fill="rgb(9.812927%, 16.868591%, 1.960754%)" fill-opacity="1"
          d="M 2940.011719 1105.699219 L 2939.949219 1245.359375 L 2939.890625 1105.699219 "/>
    <path fill-rule="nonzero" fill="rgb(12.547302%, 21.166992%, 2.745056%)" fill-opacity="1"
          d="M 3029.441406 1117.789062 L 3029.378906 1233.460938 L 3028.339844 1233.460938 L 3028.410156 1117.789062 Z M 3029.441406 1117.789062 "/>
    <path fill-rule="nonzero" fill="rgb(9.812927%, 16.868591%, 1.960754%)" fill-opacity="1"
          d="M 3028.410156 1117.789062 L 3028.339844 1233.460938 L 2948.371094 1233.460938 L 2948.371094 1232.210938 L 3027.46875 1232.210938 L 3027.539062 1119.039062 L 2948.429688 1119.039062 L 2948.429688 1117.789062 "/>
    <path fill-rule="nonzero" fill="rgb(12.547302%, 21.166992%, 2.745056%)" fill-opacity="1"
          d="M 3026.5 1119.039062 L 3027.539062 1119.039062 L 3027.46875 1232.210938 L 3026.429688 1232.210938 Z M 3026.5 1119.039062 "/>
    <path fill-rule="nonzero" fill="rgb(59.959412%, 59.959412%, 59.959412%)" fill-opacity="1"
          d="M 3026.5 1119.039062 L 3026.429688 1232.210938 L 2948.371094 1232.210938 L 2948.429688 1119.039062 Z M 3026.5 1119.039062 "/>
    <path fill-rule="nonzero" fill="rgb(12.547302%, 21.166992%, 2.745056%)" fill-opacity="1"
          d="M 2930.429688 1117.789062 L 2931.46875 1117.789062 L 2931.539062 1233.460938 L 2930.5 1233.460938 Z M 2930.429688 1117.789062 "/>
    <path fill-rule="nonzero" fill="rgb(9.812927%, 16.868591%, 1.960754%)" fill-opacity="1"
          d="M 2930.429688 1117.789062 L 2930.5 1233.460938 L 2850.53125 1233.460938 L 2850.511719 1232.210938 L 2929.609375 1232.210938 L 2929.558594 1119.039062 L 2850.46875 1119.039062 L 2850.46875 1117.789062 "/>
    <path fill-rule="nonzero" fill="rgb(12.547302%, 21.166992%, 2.745056%)" fill-opacity="1"
          d="M 2928.53125 1119.039062 L 2929.558594 1119.039062 L 2929.609375 1232.210938 L 2928.589844 1232.210938 Z M 2928.53125 1119.039062 "/>
    <path fill-rule="nonzero" fill="rgb(59.959412%, 59.959412%, 59.959412%)" fill-opacity="1"
          d="M 2928.53125 1119.039062 L 2928.589844 1232.210938 L 2850.511719 1232.210938 L 2850.46875 1119.039062 Z M 2928.53125 1119.039062 "/>
    <path fill-rule="nonzero" fill="rgb(13.330078%, 22.75238%, 2.745056%)" fill-opacity="1"
          d="M 1415.441406 743.628906 L 1580.234375 743.628906 L 1580.234375 828.960938 L 1415.441406 828.960938 Z M 1570.800781 746.558594 L 1424.902344 746.558594 L 1424.902344 825.976562 L 1570.800781 825.976562 Z M 1570.800781 746.558594 "/>
    <path fill-rule="nonzero" fill="rgb(13.330078%, 22.75238%, 2.745056%)" fill-opacity="1"
          d="M 1745.039062 828.949219 L 1580.246094 828.949219 L 1580.246094 743.617188 L 1745.039062 743.617188 Z M 1735.578125 746.558594 L 1589.683594 746.558594 L 1589.683594 825.976562 L 1735.578125 825.976562 Z M 1735.578125 746.558594 "/>
    <path fill-rule="nonzero" fill="rgb(13.330078%, 22.75238%, 2.745056%)" fill-opacity="1"
          d="M 1589.691406 852.390625 L 1735.585938 852.390625 L 1735.585938 1174.339844 L 1589.691406 1174.339844 Z M 1590.671875 1173.089844 L 1734.59375 1173.089844 L 1734.59375 853.632812 L 1590.671875 853.632812 Z M 1590.671875 1173.089844 "/>
    <path fill-rule="nonzero" fill="rgb(80.859375%, 80.859375%, 80.859375%)" fill-opacity="1"
          d="M 1590.671875 1173.089844 L 1734.59375 1173.089844 L 1734.59375 853.632812 L 1590.671875 853.632812 Z M 1590.671875 1173.089844 "/>
    <path fill-rule="nonzero" fill="rgb(13.330078%, 22.75238%, 2.745056%)" fill-opacity="1"
          d="M 1580.238281 1186.421875 L 1415.445312 1186.421875 L 1415.445312 840.488281 L 1580.238281 840.488281 Z M 1570.800781 852.390625 L 1424.902344 852.390625 L 1424.902344 1174.339844 L 1570.800781 1174.339844 Z M 1570.800781 852.390625 "/>
    <path fill-rule="nonzero" fill="rgb(13.330078%, 22.75238%, 2.745056%)" fill-opacity="1"
          d="M 1580.238281 840.488281 L 1745.03125 840.488281 L 1745.03125 1186.421875 L 1580.238281 1186.421875 Z M 1735.578125 852.390625 L 1589.683594 852.390625 L 1589.683594 1174.339844 L 1735.578125 1174.339844 Z M 1735.578125 852.390625 "/>
    <path fill-rule="nonzero" fill="rgb(13.330078%, 22.75238%, 2.745056%)" fill-opacity="1"
          d="M 1424.890625 852.390625 L 1570.785156 852.390625 L 1570.785156 1174.339844 L 1424.890625 1174.339844 Z M 1425.890625 1173.089844 L 1569.808594 1173.089844 L 1569.808594 853.632812 L 1425.890625 853.632812 Z M 1425.890625 1173.089844 "/>
    <path fill-rule="nonzero" fill="rgb(80.859375%, 80.859375%, 80.859375%)" fill-opacity="1"
          d="M 1425.890625 1173.089844 L 1569.808594 1173.089844 L 1569.808594 853.632812 L 1425.890625 853.632812 Z M 1425.890625 1173.089844 "/>
    <path fill-rule="nonzero" fill="rgb(13.330078%, 22.75238%, 2.745056%)" fill-opacity="1"
          d="M 1373.441406 721.851562 L 1787.027344 721.851562 L 1787.027344 1209.484375 L 1373.441406 1209.484375 Z M 1415.441406 828.949219 L 1745.035156 828.949219 L 1745.035156 743.628906 L 1415.441406 743.628906 Z M 1415.441406 1186.421875 L 1745.03125 1186.421875 L 1745.03125 840.488281 L 1415.441406 840.488281 Z M 1415.441406 1186.421875 "/>
    <path fill-rule="nonzero" fill="rgb(13.330078%, 22.75238%, 2.745056%)" fill-opacity="1"
          d="M 1589.691406 746.558594 L 1735.585938 746.558594 L 1735.585938 825.976562 L 1589.691406 825.976562 Z M 1590.671875 825.679688 L 1734.59375 825.679688 L 1734.59375 746.878906 L 1590.671875 746.878906 Z M 1590.671875 825.679688 "/>
    <path fill-rule="nonzero" fill="rgb(80.859375%, 80.859375%, 80.859375%)" fill-opacity="1"
          d="M 1590.671875 825.679688 L 1734.59375 825.679688 L 1734.59375 746.878906 L 1590.671875 746.878906 Z M 1590.671875 825.679688 "/>
    <path fill-rule="nonzero" fill="rgb(13.330078%, 22.75238%, 2.745056%)" fill-opacity="1"
          d="M 1424.890625 746.558594 L 1570.785156 746.558594 L 1570.785156 825.976562 L 1424.890625 825.976562 Z M 1425.890625 825.679688 L 1569.808594 825.679688 L 1569.808594 746.878906 L 1425.890625 746.878906 Z M 1425.890625 825.679688 "/>
    <path fill-rule="nonzero" fill="rgb(80.859375%, 80.859375%, 80.859375%)" fill-opacity="1"
          d="M 1425.890625 825.679688 L 1569.808594 825.679688 L 1569.808594 746.878906 L 1425.890625 746.878906 Z M 1425.890625 825.679688 "/>
    <path fill-rule="nonzero" fill="rgb(87.889099%, 87.889099%, 87.889099%)" fill-opacity="1"
          d="M 422.863281 813.539062 L 592.242188 813.539062 L 592.242188 743.582031 L 422.863281 743.582031 Z M 422.863281 813.539062 "/>
    <path fill-rule="nonzero" fill="rgb(13.330078%, 22.75238%, 2.745056%)" fill-opacity="1"
          d="M 596.105469 819.460938 L 418.996094 819.460938 L 418.996094 737.667969 L 596.105469 737.667969 Z M 422.863281 813.539062 L 592.242188 813.539062 L 592.242188 743.582031 L 422.863281 743.582031 Z M 422.863281 813.539062 "/>
    <path fill-rule="nonzero" fill="rgb(13.330078%, 22.75238%, 2.745056%)" fill-opacity="1"
          d="M 596.105469 737.660156 L 773.21875 737.660156 L 773.21875 819.457031 L 596.105469 819.457031 Z M 599.972656 813.539062 L 769.351562 813.539062 L 769.351562 743.582031 L 599.972656 743.582031 Z M 599.972656 813.539062 "/>
    <path fill-rule="nonzero" fill="rgb(13.330078%, 22.75238%, 2.745056%)" fill-opacity="1"
          d="M 1127.441406 819.460938 L 950.332031 819.460938 L 950.332031 737.667969 L 1127.441406 737.667969 Z M 954.191406 813.539062 L 1123.566406 813.539062 L 1123.566406 743.582031 L 954.191406 743.582031 Z M 954.191406 813.539062 "/>
    <path fill-rule="nonzero" fill="rgb(13.330078%, 22.75238%, 2.745056%)" fill-opacity="1"
          d="M 773.21875 737.660156 L 950.332031 737.660156 L 950.332031 819.457031 L 773.21875 819.457031 Z M 777.085938 813.539062 L 946.464844 813.539062 L 946.464844 743.582031 L 777.085938 743.582031 Z M 777.085938 813.539062 "/>
    <path fill-rule="nonzero" fill="rgb(87.889099%, 87.889099%, 87.889099%)" fill-opacity="1"
          d="M 599.972656 813.539062 L 769.351562 813.539062 L 769.351562 743.582031 L 599.972656 743.582031 Z M 599.972656 813.539062 "/>
    <path fill-rule="nonzero" fill="rgb(87.889099%, 87.889099%, 87.889099%)" fill-opacity="1"
          d="M 777.085938 813.539062 L 946.464844 813.539062 L 946.464844 743.582031 L 777.085938 743.582031 Z M 777.085938 813.539062 "/>
    <path fill-rule="nonzero" fill="rgb(87.889099%, 87.889099%, 87.889099%)" fill-opacity="1"
          d="M 954.191406 813.539062 L 1123.566406 813.539062 L 1123.566406 743.582031 L 954.191406 743.582031 Z M 954.191406 813.539062 "/>
</svg>
