<?xml version="1.0" encoding="UTF-8"?>
<svg xmlns="http://www.w3.org/2000/svg" xmlns:xlink="http://www.w3.org/1999/xlink" width="2170" height="3001"
     viewBox="0 0 2170 3001">
    <path fill-rule="evenodd" fill="rgb(83.59375%, 83.59375%, 83.59375%)" fill-opacity="1"
          d="M 1084.988281 1253 C 1111.078125 1253 1136.539062 1257.21875 1160.679688 1264.980469 C 1168.828125 1267.601562 1176.800781 1270.648438 1184.570312 1274.078125 L 1184.648438 1273.941406 C 1154.160156 1260.46875 1120.449219 1253 1084.988281 1253 Z M 1084.988281 1346.761719 C 1085.070312 1346.761719 1085.148438 1346.761719 1085.238281 1346.761719 C 1085.148438 1346.761719 1085.078125 1346.761719 1084.988281 1346.761719 Z M 995.558594 1375.558594 L 995.457031 1375.410156 C 1008.21875 1366.21875 1022.511719 1358.929688 1037.871094 1353.980469 C 1052.421875 1349.300781 1068.25 1346.761719 1084.988281 1346.761719 C 1051.609375 1346.761719 1020.71875 1357.429688 995.558594 1375.558594 Z M 1381.558594 1013.289062 C 1184.628906 933.488281 985.691406 928.890625 789.53125 1012.859375 C 787.175781 1013.75 784.863281 1014.828125 782.617188 1016.128906 C 760.199219 1029.070312 752.519531 1057.75 765.460938 1080.171875 L 765.640625 1080.058594 L 908.390625 1327.320312 L 925.523438 1357 C 926.777344 1359.730469 928.304688 1362.390625 930.128906 1364.921875 C 945.03125 1385.609375 973.691406 1390.539062 994.617188 1376.210938 C 988.230469 1380.890625 982.210938 1386.050781 976.625 1391.628906 C 952.660156 1415.601562 936.597656 1447.480469 932.679688 1483.019531 C 932.464844 1488.570312 931.757812 1494.160156 931.757812 1500 C 931.757812 1505.519531 932.050781 1510.980469 932.609375 1516.351562 C 936.410156 1552.148438 952.519531 1584.261719 976.625 1608.371094 C 989.636719 1621.378906 1004.988281 1632.058594 1021.980469 1639.730469 C 1041.199219 1648.410156 1062.53125 1653.238281 1084.988281 1653.238281 C 1127.320312 1653.238281 1165.640625 1636.078125 1193.359375 1608.359375 C 1215.980469 1585.738281 1231.578125 1556.058594 1236.539062 1522.898438 C 1237.648438 1515.429688 1238.230469 1507.789062 1238.230469 1500 L 1238.199219 1496.320312 C 1238.101562 1492.410156 1237.871094 1488.53125 1237.46875 1484.679688 C 1237.441406 1484.371094 1237.421875 1484.058594 1237.390625 1483.75 C 1233.609375 1447.921875 1217.488281 1415.761719 1193.359375 1391.640625 C 1187.761719 1386.039062 1181.730469 1380.871094 1175.320312 1376.191406 C 1176.308594 1376.859375 1177.328125 1377.511719 1178.390625 1378.121094 C 1200.800781 1391.058594 1229.480469 1383.378906 1242.421875 1360.960938 L 1242.289062 1360.769531 L 1261.601562 1327.328125 L 1402.128906 1083.929688 C 1404.199219 1081.011719 1405.96875 1077.808594 1407.378906 1074.351562 C 1417.109375 1050.359375 1405.539062 1023.019531 1381.558594 1013.289062 "/>
    <path fill-rule="nonzero" fill="rgb(5.880737%, 5.880737%, 5.880737%)" fill-opacity="1"
          d="M 1084.988281 773.398438 C 1286.289062 773.398438 1468.550781 855.011719 1600.46875 986.929688 C 1732.390625 1118.851562 1814 1301.109375 1814 1502.398438 C 1814 1703.699219 1732.390625 1885.960938 1600.46875 2017.882812 C 1468.550781 2149.800781 1286.300781 2231.40625 1084.988281 2231.40625 C 883.695312 2231.40625 701.4375 2149.800781 569.519531 2017.882812 C 437.601562 1885.960938 355.996094 1703.699219 355.996094 1502.398438 C 355.996094 1301.109375 437.601562 1118.851562 569.519531 986.929688 C 701.4375 855.011719 883.695312 773.398438 1084.988281 773.398438 Z M 1534.191406 1053.210938 C 1419.25 938.269531 1260.410156 867.160156 1084.988281 867.160156 C 909.570312 867.160156 750.746094 938.269531 635.804688 1053.210938 C 520.863281 1168.160156 449.753906 1326.980469 449.753906 1502.398438 C 449.753906 1677.820312 520.863281 1836.648438 635.804688 1951.601562 C 750.746094 2066.539062 909.570312 2137.648438 1084.988281 2137.648438 C 1260.421875 2137.648438 1419.25 2066.539062 1534.191406 1951.601562 C 1649.128906 1836.648438 1720.238281 1677.828125 1720.238281 1502.398438 C 1720.238281 1326.980469 1649.128906 1168.160156 1534.191406 1053.210938 "/>
    <path fill-rule="nonzero" fill="rgb(5.880737%, 5.880737%, 5.880737%)" fill-opacity="1"
          d="M 1084.988281 1253 C 1153.191406 1253 1214.949219 1280.660156 1259.648438 1325.351562 C 1304.351562 1370.050781 1332 1431.808594 1332 1500 C 1332 1568.191406 1304.351562 1629.949219 1259.648438 1674.648438 C 1214.949219 1719.339844 1153.191406 1747 1084.988281 1747 C 1016.789062 1747 955.039062 1719.351562 910.339844 1674.648438 C 865.640625 1629.949219 837.992188 1568.199219 837.992188 1500 C 837.992188 1431.800781 865.640625 1370.050781 910.339844 1325.351562 C 955.039062 1280.648438 1016.789062 1253 1084.988281 1253 Z M 1193.359375 1391.640625 C 1165.640625 1363.921875 1127.320312 1346.761719 1084.988281 1346.761719 C 1042.671875 1346.761719 1004.351562 1363.910156 976.625 1391.628906 C 948.902344 1419.359375 931.753906 1457.671875 931.753906 1500 C 931.753906 1542.328125 948.902344 1580.640625 976.625 1608.371094 C 1004.351562 1636.089844 1042.671875 1653.238281 1084.988281 1653.238281 C 1127.320312 1653.238281 1165.640625 1636.078125 1193.359375 1608.359375 C 1221.078125 1580.640625 1238.238281 1542.320312 1238.238281 1500 C 1238.238281 1457.679688 1221.078125 1419.359375 1193.359375 1391.640625 "/>
    <path fill-rule="nonzero" fill="rgb(5.880737%, 5.880737%, 5.880737%)" fill-opacity="1"
          d="M 925.523438 1357 L 765.640625 1080.058594 L 765.460938 1080.171875 C 752.519531 1057.75 760.199219 1029.070312 782.617188 1016.128906 C 784.863281 1014.828125 787.175781 1013.75 789.53125 1012.859375 C 985.691406 928.890625 1184.628906 933.488281 1381.519531 1013.328125 L 1381.558594 1013.289062 C 1405.539062 1023.019531 1417.109375 1050.359375 1407.378906 1074.351562 C 1405.96875 1077.808594 1404.199219 1081.011719 1402.128906 1083.929688 L 1242.289062 1360.769531 L 1242.421875 1360.960938 C 1229.480469 1383.378906 1200.800781 1391.058594 1178.390625 1378.121094 C 1175.941406 1376.699219 1173.671875 1375.101562 1171.578125 1373.339844 C 1159.570312 1365.128906 1146.289062 1358.550781 1132.109375 1353.980469 C 1117.558594 1349.300781 1101.730469 1346.761719 1084.988281 1346.761719 C 1068.25 1346.761719 1052.421875 1349.300781 1037.871094 1353.980469 C 1022.511719 1358.929688 1008.21875 1366.21875 995.457031 1375.410156 L 995.558594 1375.558594 C 974.554688 1390.679688 945.253906 1385.921875 930.128906 1364.921875 C 928.304688 1362.390625 926.777344 1359.730469 925.523438 1357 Z M 873.753906 1080.648438 L 985.429688 1274.078125 C 993.191406 1270.648438 1001.148438 1267.601562 1009.300781 1264.980469 C 1033.441406 1257.21875 1058.898438 1253 1084.988281 1253 C 1111.078125 1253 1136.539062 1257.21875 1160.679688 1264.980469 C 1168.828125 1267.601562 1176.800781 1270.648438 1184.570312 1274.078125 L 1295.769531 1081.460938 C 1154.78125 1034.648438 1014.46875 1031.941406 873.753906 1080.648438 "/>
    <path fill-rule="nonzero" fill="rgb(5.880737%, 5.880737%, 5.880737%)" fill-opacity="1"
          d="M 1284.121094 1433.191406 L 1608.359375 1433.191406 C 1634.25 1433.191406 1655.230469 1454.179688 1655.230469 1480.070312 C 1655.230469 1482.839844 1654.988281 1485.558594 1654.53125 1488.210938 C 1642.359375 1589.179688 1612.339844 1682.648438 1563.460938 1768.089844 C 1514.390625 1853.851562 1446.289062 1931.351562 1358.160156 2000.011719 L 1358.21875 2000.191406 C 1337.808594 2016.097656 1308.351562 2012.433594 1292.429688 1992.019531 C 1290.390625 1989.390625 1288.660156 1986.609375 1287.261719 1983.71875 L 1126.859375 1705.898438 L 1126.71875 1705.898438 C 1113.78125 1683.480469 1121.460938 1654.800781 1143.878906 1641.859375 C 1145.960938 1640.660156 1148.101562 1639.628906 1150.28125 1638.78125 C 1176.339844 1626.511719 1198.390625 1607.121094 1213.871094 1583.140625 C 1229.269531 1559.269531 1238.230469 1530.710938 1238.230469 1500 C 1238.230469 1495.628906 1238.210938 1493.019531 1238.160156 1492.199219 C 1238.050781 1489.621094 1237.851562 1487.101562 1237.609375 1484.671875 L 1237.46875 1484.679688 C 1234.929688 1458.929688 1253.75 1435.960938 1279.511719 1433.421875 C 1281.058594 1433.269531 1282.601562 1433.191406 1284.121094 1433.191406 Z M 1553.769531 1526.949219 L 1330.519531 1526.949219 C 1326.261719 1565.921875 1312.910156 1602.21875 1292.609375 1633.671875 C 1276.199219 1659.078125 1255.269531 1681.289062 1230.949219 1699.148438 L 1342.199219 1891.828125 C 1400.441406 1840 1446.929688 1783.160156 1482.160156 1721.578125 C 1516.628906 1661.328125 1540.351562 1596.371094 1553.769531 1526.949219 "/>
    <path fill-rule="nonzero" fill="rgb(5.880737%, 5.880737%, 5.880737%)" fill-opacity="1"
          d="M 1041.5 1708.75 L 881.082031 1986.589844 L 881.179688 1986.648438 C 868.234375 2009.0625 839.558594 2016.746094 817.140625 2003.804688 C 814.375 2002.207031 811.839844 2000.371094 809.53125 1998.328125 C 728.609375 1937.460938 662.980469 1864.941406 613.597656 1780.179688 C 563.789062 1694.671875 530.695312 1597 515.320312 1486.519531 L 515.207031 1486.53125 C 511.644531 1460.890625 529.53125 1437.199219 555.175781 1433.640625 C 557.347656 1433.339844 559.507812 1433.191406 561.636719 1433.191406 L 885.863281 1433.191406 C 911.753906 1433.191406 932.742188 1454.179688 932.742188 1480.070312 C 932.742188 1486.578125 931.757812 1493.121094 931.757812 1500 C 931.757812 1530.71875 940.714844 1559.269531 956.128906 1583.140625 C 972.03125 1607.789062 994.875 1627.589844 1021.898438 1639.800781 L 1021.980469 1639.75 C 1045.570312 1650.398438 1056.050781 1678.171875 1045.390625 1701.769531 C 1044.269531 1704.238281 1042.96875 1706.570312 1041.5 1708.75 Z M 827.320312 1892.648438 L 939.039062 1699.160156 C 914.730469 1681.300781 893.785156 1659.089844 877.386719 1633.679688 C 857.078125 1602.230469 843.722656 1565.921875 839.46875 1526.949219 L 617.132812 1526.949219 C 632.910156 1603.410156 658.863281 1672.089844 694.523438 1733.300781 C 729.46875 1793.269531 773.882812 1846.289062 827.320312 1892.648438 "/>
    <path fill-rule="nonzero" fill="rgb(5.880737%, 5.880737%, 5.880737%)" fill-opacity="1"
          d="M 150.496094 332.710938 L 2019.5 332.710938 C 2045.378906 332.710938 2066.378906 353.699219 2066.378906 379.589844 L 2066.378906 2620.421875 C 2066.378906 2646.3125 2045.378906 2667.300781 2019.5 2667.300781 L 150.496094 2667.300781 C 124.609375 2667.300781 103.617188 2646.3125 103.617188 2620.421875 L 103.617188 379.589844 C 103.617188 353.699219 124.609375 332.710938 150.496094 332.710938 Z M 1972.621094 426.46875 L 197.378906 426.46875 L 197.378906 2573.542969 L 1972.621094 2573.542969 L 1972.621094 426.46875 "/>
    <path fill-rule="nonzero" fill="rgb(5.880737%, 5.880737%, 5.880737%)" fill-opacity="1"
          d="M 47.75 0 L 2122.238281 0 C 2148.128906 0 2169.121094 20.988281 2169.121094 46.878906 L 2169.121094 379.589844 C 2169.121094 405.480469 2148.128906 426.46875 2122.238281 426.46875 L 47.75 426.46875 C 21.859375 426.46875 0.871094 405.480469 0.871094 379.589844 L 0.871094 46.878906 C 0.871094 20.988281 21.859375 0 47.75 0 Z M 2075.359375 93.761719 L 94.628906 93.761719 L 94.628906 332.710938 L 2075.359375 332.710938 L 2075.359375 93.761719 "/>
    <path fill-rule="nonzero" fill="rgb(5.880737%, 5.880737%, 5.880737%)" fill-opacity="1"
          d="M 94.628906 2906.246094 L 2075.359375 2906.246094 L 2075.359375 2667.300781 L 94.628906 2667.300781 Z M 2122.238281 3000.003906 L 47.75 3000.003906 C 21.859375 3000.003906 0.871094 2979.015625 0.871094 2953.125 L 0.871094 2620.421875 C 0.871094 2594.53125 21.859375 2573.542969 47.75 2573.542969 L 2122.238281 2573.542969 C 2148.128906 2573.542969 2169.121094 2594.53125 2169.121094 2620.421875 L 2169.121094 2953.125 C 2169.121094 2979.015625 2148.128906 3000.003906 2122.238281 3000.003906 "/>
    <path fill-rule="nonzero" fill="rgb(5.880737%, 5.880737%, 5.880737%)" fill-opacity="1"
          d="M 150.496094 582.25 L 2019.5 582.25 C 2045.378906 582.25 2066.378906 603.238281 2066.378906 629.128906 L 2066.378906 2370.867188 C 2066.378906 2396.757812 2045.378906 2417.746094 2019.5 2417.746094 L 150.496094 2417.746094 C 124.609375 2417.746094 103.617188 2396.757812 103.617188 2370.867188 L 103.617188 629.128906 C 103.617188 603.238281 124.609375 582.25 150.496094 582.25 Z M 1972.621094 676.011719 L 197.378906 676.011719 L 197.378906 2323.988281 L 1972.621094 2323.988281 L 1972.621094 676.011719 "/>
    <path fill-rule="evenodd" fill="rgb(75.193787%, 75.193787%, 75.193787%)" fill-opacity="1"
          d="M 150.496094 332.710938 L 2075.359375 332.710938 L 2075.359375 93.761719 L 94.628906 93.761719 L 94.628906 332.710938 L 150.496094 332.710938 "/>
    <path fill-rule="evenodd" fill="rgb(75.193787%, 75.193787%, 75.193787%)" fill-opacity="1"
          d="M 1972.621094 426.46875 L 197.378906 426.46875 L 197.378906 582.25 L 1972.621094 582.25 L 1972.621094 426.46875 "/>
    <path fill-rule="evenodd" fill="rgb(92.576599%, 92.576599%, 92.576599%)" fill-opacity="1"
          d="M 1534.191406 1053.210938 C 1419.25 938.269531 1260.410156 867.160156 1084.988281 867.160156 C 909.570312 867.160156 750.746094 938.269531 635.804688 1053.210938 C 520.863281 1168.160156 449.753906 1326.980469 449.753906 1502.398438 C 449.753906 1677.820312 520.863281 1836.648438 635.804688 1951.601562 C 750.746094 2066.539062 909.570312 2137.648438 1084.988281 2137.648438 C 1260.421875 2137.648438 1419.25 2066.539062 1534.191406 1951.601562 C 1649.128906 1836.648438 1720.238281 1677.828125 1720.238281 1502.398438 C 1720.238281 1326.980469 1649.128906 1168.160156 1534.191406 1053.210938 Z M 1381.519531 1013.328125 Z M 1407.378906 1074.351562 C 1405.96875 1077.808594 1404.199219 1081.011719 1402.128906 1083.929688 L 1261.601562 1327.328125 C 1290.140625 1356.519531 1311.511719 1392.75 1322.851562 1433.191406 L 1608.359375 1433.191406 C 1634.25 1433.191406 1655.230469 1454.179688 1655.230469 1480.070312 C 1655.230469 1482.839844 1654.988281 1485.558594 1654.53125 1488.210938 C 1642.359375 1589.179688 1612.339844 1682.648438 1563.460938 1768.089844 C 1514.390625 1853.851562 1446.289062 1931.351562 1358.160156 2000.011719 L 1358.21875 2000.191406 C 1337.808594 2016.097656 1308.351562 2012.433594 1292.429688 1992.019531 C 1290.390625 1989.390625 1288.660156 1986.609375 1287.261719 1983.71875 L 1146.179688 1739.359375 C 1126.609375 1744.351562 1106.109375 1747 1084.988281 1747 C 1063.878906 1747 1043.390625 1744.351562 1023.820312 1739.371094 L 881.082031 1986.589844 L 881.179688 1986.648438 C 868.234375 2009.0625 839.558594 2016.746094 817.140625 2003.804688 C 814.375 2002.207031 811.839844 2000.371094 809.53125 1998.328125 C 728.609375 1937.460938 662.980469 1864.941406 613.597656 1780.179688 C 563.789062 1694.671875 530.695312 1597 515.320312 1486.519531 L 515.207031 1486.53125 C 511.644531 1460.890625 529.53125 1437.199219 555.175781 1433.640625 C 557.347656 1433.339844 559.507812 1433.191406 561.636719 1433.191406 L 847.136719 1433.191406 C 858.472656 1392.75 879.84375 1356.511719 908.390625 1327.320312 L 765.640625 1080.058594 L 765.460938 1080.171875 C 752.519531 1057.75 760.199219 1029.070312 782.617188 1016.128906 C 784.863281 1014.828125 787.175781 1013.75 789.53125 1012.859375 C 985.691406 928.890625 1184.628906 933.488281 1381.558594 1013.289062 C 1405.539062 1023.019531 1417.109375 1050.359375 1407.378906 1074.351562 "/>
    <path fill-rule="evenodd" fill="rgb(83.59375%, 83.59375%, 83.59375%)" fill-opacity="1"
          d="M 839.46875 1526.949219 L 617.132812 1526.949219 C 632.910156 1603.410156 658.863281 1672.089844 694.523438 1733.300781 C 729.46875 1793.269531 773.882812 1846.289062 827.320312 1892.648438 L 938.992188 1699.25 C 928.816406 1691.78125 919.238281 1683.550781 910.339844 1674.648438 C 871.605469 1635.921875 845.683594 1584.390625 839.46875 1526.949219 "/>
    <path fill-rule="evenodd" fill="rgb(83.59375%, 83.59375%, 83.59375%)" fill-opacity="1"
          d="M 1330.550781 1526.949219 C 1324.308594 1584.378906 1298.378906 1635.921875 1259.648438 1674.648438 C 1250.75 1683.550781 1241.171875 1691.769531 1231 1699.230469 L 1342.199219 1891.828125 C 1400.441406 1840 1446.929688 1783.160156 1482.160156 1721.578125 C 1516.628906 1661.328125 1540.351562 1596.371094 1553.769531 1526.949219 L 1330.550781 1526.949219 "/>
    <path fill-rule="evenodd" fill="rgb(75.193787%, 75.193787%, 75.193787%)" fill-opacity="1"
          d="M 1814 1502.398438 C 1814 1703.699219 1732.390625 1885.960938 1600.46875 2017.882812 C 1468.550781 2149.800781 1286.300781 2231.40625 1084.988281 2231.40625 C 883.695312 2231.40625 701.4375 2149.800781 569.519531 2017.882812 C 437.601562 1885.960938 355.996094 1703.699219 355.996094 1502.398438 C 355.996094 1301.109375 437.601562 1118.851562 569.519531 986.929688 C 701.4375 855.011719 883.695312 773.398438 1084.988281 773.398438 C 1286.289062 773.398438 1468.550781 855.011719 1600.46875 986.929688 C 1732.390625 1118.851562 1814 1301.109375 1814 1502.398438 Z M 1972.621094 676.011719 L 197.378906 676.011719 L 197.378906 2323.988281 L 1972.621094 2323.988281 L 1972.621094 676.011719 "/>
    <path fill-rule="evenodd" fill="rgb(75.193787%, 75.193787%, 75.193787%)" fill-opacity="1"
          d="M 1972.621094 2417.746094 L 197.378906 2417.746094 L 197.378906 2573.542969 L 1972.621094 2573.542969 L 1972.621094 2417.746094 "/>
    <path fill-rule="evenodd" fill="rgb(75.193787%, 75.193787%, 75.193787%)" fill-opacity="1"
          d="M 2019.5 2667.300781 L 94.628906 2667.300781 L 94.628906 2906.246094 L 2075.359375 2906.246094 L 2075.359375 2667.300781 L 2019.5 2667.300781 "/>
</svg>
