<?xml version="1.0" encoding="UTF-8"?>
<svg xmlns="http://www.w3.org/2000/svg" xmlns:xlink="http://www.w3.org/1999/xlink" width="4500" height="2625"
     viewBox="0 0 4500 2625">
    <rect x="-450" y="-262.5" width="5400" height="3150" fill="rgb(100%, 100%, 100%)" fill-opacity="1"/>
    <path fill-rule="nonzero" fill="rgb(15.281677%, 68.164062%, 37.646484%)" fill-opacity="1"
          d="M 522.1875 810.910156 C 546.898438 810.910156 566.921875 831.429688 566.921875 856.75 C 566.921875 882.070312 546.898438 902.589844 522.1875 902.589844 C 497.472656 902.589844 477.453125 882.070312 477.453125 856.75 C 477.453125 831.429688 497.472656 810.910156 522.1875 810.910156 Z M 3968.96875 810.910156 C 3994.640625 810.910156 4015.441406 832.199219 4015.441406 858.511719 C 4015.441406 884.820312 3994.640625 906.140625 3968.96875 906.140625 C 3943.308594 906.140625 3922.511719 884.820312 3922.511719 858.511719 C 3922.511719 832.199219 3943.308594 810.910156 3968.96875 810.910156 Z M 512.664062 1648.546875 C 512.664062 1709.894531 460.144531 1759.648438 404.25 1759.648438 L 404.25 2108.078125 L 4097.25 2108.078125 L 4097.25 1759.648438 C 4033.371094 1759.648438 3988.839844 1709.902344 3988.839844 1648.546875 C 3988.839844 1587.191406 4033.371094 1537.449219 4097.25 1537.449219 L 4097.25 553.328125 L 3210.929688 553.328125 L 3210.929688 689.558594 C 3210.929688 692.78125 3207.941406 696.199219 3207.941406 699.800781 C 3207.941406 718.300781 3190.929688 733.308594 3172.878906 733.308594 C 3154.820312 733.308594 3140.761719 718.300781 3140.761719 699.800781 C 3140.761719 696.199219 3131.089844 692.78125 3143.058594 689.558594 L 3143.058594 553.328125 L 404.25 553.328125 L 404.25 1537.449219 C 460.144531 1537.449219 512.664062 1587.191406 512.664062 1648.546875 Z M 512.664062 1648.546875 "/>
    <path fill-rule="nonzero" fill="rgb(18.431091%, 17.651367%, 16.088867%)" fill-opacity="1"
          d="M 3318.578125 2018.84375 L 3773.800781 2018.84375 L 3773.800781 1471.769531 L 3318.578125 1471.769531 Z M 3318.578125 2018.84375 "/>
    <path fill-rule="nonzero" fill="rgb(18.431091%, 17.651367%, 16.088867%)" fill-opacity="1"
          d="M 3318.578125 1403.890625 L 3773.800781 1403.890625 L 3773.800781 852.828125 L 3318.578125 852.828125 Z M 3318.578125 1403.890625 "/>
    <path fill-rule="nonzero" fill="rgb(18.431091%, 17.651367%, 16.088867%)" fill-opacity="1"
          d="M 2587.808594 1471.769531 L 3043.039062 1471.769531 L 3043.03125 2018.84375 L 2587.808594 2018.84375 Z M 2587.808594 1471.769531 "/>
    <path fill-rule="nonzero" fill="rgb(18.431091%, 17.651367%, 16.088867%)" fill-opacity="1"
          d="M 2587.808594 852.820312 L 3043.039062 852.820312 L 3043.03125 1403.890625 L 2587.808594 1403.890625 Z M 2587.808594 852.820312 "/>
    <path fill-rule="nonzero" fill="rgb(18.431091%, 17.651367%, 16.088867%)" fill-opacity="1"
          d="M 1441.761719 2018.84375 L 1896.984375 2018.84375 L 1896.984375 1471.769531 L 1441.761719 1471.769531 Z M 1441.761719 2018.84375 "/>
    <path fill-rule="nonzero" fill="rgb(18.431091%, 17.651367%, 16.088867%)" fill-opacity="1"
          d="M 1441.761719 1403.890625 L 1896.984375 1403.890625 L 1896.984375 852.828125 L 1441.761719 852.828125 Z M 1441.761719 1403.890625 "/>
    <path fill-rule="nonzero" fill="rgb(18.431091%, 17.651367%, 16.088867%)" fill-opacity="1"
          d="M 707.011719 2018.84375 L 1162.238281 2018.84375 L 1162.238281 1471.769531 L 707.011719 1471.769531 Z M 707.011719 2018.84375 "/>
    <path fill-rule="nonzero" fill="rgb(18.431091%, 17.651367%, 16.088867%)" fill-opacity="1"
          d="M 707.011719 1403.890625 L 1162.238281 1403.890625 L 1162.238281 852.828125 L 707.011719 852.828125 Z M 707.011719 1403.890625 "/>
    <path fill-rule="nonzero" fill="rgb(100%, 75.78125%, 32.93457%)" fill-opacity="1"
          d="M 3925.539062 673.121094 L 3961.476562 673.121094 L 3961.476562 553.324219 L 3925.539062 553.324219 Z M 3925.539062 673.121094 "/>
    <path fill-rule="nonzero" fill="rgb(100%, 75.78125%, 32.93457%)" fill-opacity="1"
          d="M 3877.628906 673.121094 L 3913.566406 673.121094 L 3913.566406 553.324219 L 3877.628906 553.324219 Z M 3877.628906 673.121094 "/>
    <path fill-rule="nonzero" fill="rgb(100%, 75.78125%, 32.93457%)" fill-opacity="1"
          d="M 3825.710938 673.121094 L 3857.65625 673.121094 L 3857.65625 553.324219 L 3825.710938 553.324219 Z M 3825.710938 673.121094 "/>
    <path fill-rule="nonzero" fill="rgb(100%, 75.78125%, 32.93457%)" fill-opacity="1"
          d="M 3773.808594 673.121094 L 3809.742188 673.121094 L 3809.742188 553.324219 L 3773.808594 553.324219 Z M 3773.808594 673.121094 "/>
    <path fill-rule="nonzero" fill="rgb(100%, 75.78125%, 32.93457%)" fill-opacity="1"
          d="M 3725.890625 673.121094 L 3753.84375 673.121094 L 3753.84375 553.324219 L 3725.890625 553.324219 Z M 3725.890625 673.121094 "/>
    <path fill-rule="nonzero" fill="rgb(100%, 75.78125%, 32.93457%)" fill-opacity="1"
          d="M 3673.96875 673.121094 L 3705.917969 673.121094 L 3705.917969 553.324219 L 3673.96875 553.324219 Z M 3673.96875 673.121094 "/>
    <path fill-rule="nonzero" fill="rgb(100%, 75.78125%, 32.93457%)" fill-opacity="1"
          d="M 3622.070312 673.121094 L 3650.019531 673.121094 L 3650.019531 553.324219 L 3622.070312 553.324219 Z M 3622.070312 673.121094 "/>
    <path fill-rule="nonzero" fill="rgb(100%, 75.78125%, 32.93457%)" fill-opacity="1"
          d="M 3570.148438 673.121094 L 3598.101562 673.121094 L 3598.101562 553.324219 L 3570.148438 553.324219 Z M 3570.148438 673.121094 "/>
    <path fill-rule="nonzero" fill="rgb(100%, 75.78125%, 32.93457%)" fill-opacity="1"
          d="M 3514.238281 673.121094 L 3546.1875 673.121094 L 3546.1875 553.324219 L 3514.238281 553.324219 Z M 3514.238281 673.121094 "/>
    <path fill-rule="nonzero" fill="rgb(100%, 75.78125%, 32.93457%)" fill-opacity="1"
          d="M 3466.320312 673.121094 L 3494.273438 673.121094 L 3494.273438 553.324219 L 3466.320312 553.324219 Z M 3466.320312 673.121094 "/>
    <path fill-rule="nonzero" fill="rgb(100%, 75.78125%, 32.93457%)" fill-opacity="1"
          d="M 3414.410156 673.121094 L 3438.371094 673.121094 L 3438.371094 553.324219 L 3414.410156 553.324219 Z M 3414.410156 673.121094 "/>
    <path fill-rule="nonzero" fill="rgb(100%, 75.78125%, 32.93457%)" fill-opacity="1"
          d="M 3358.511719 673.121094 L 3394.445312 673.121094 L 3394.445312 553.324219 L 3358.511719 553.324219 Z M 3358.511719 673.121094 "/>
    <path fill-rule="nonzero" fill="rgb(100%, 75.78125%, 32.93457%)" fill-opacity="1"
          d="M 3314.570312 673.121094 L 3338.53125 673.121094 L 3338.53125 553.324219 L 3314.570312 553.324219 Z M 3314.570312 673.121094 "/>
    <path fill-rule="nonzero" fill="rgb(100%, 75.78125%, 32.93457%)" fill-opacity="1"
          d="M 3074.980469 673.121094 L 3102.933594 673.121094 L 3102.933594 553.324219 L 3074.980469 553.324219 Z M 3074.980469 673.121094 "/>
    <path fill-rule="nonzero" fill="rgb(100%, 75.78125%, 32.93457%)" fill-opacity="1"
          d="M 3019.089844 673.121094 L 3051.035156 673.121094 L 3051.035156 553.324219 L 3019.089844 553.324219 Z M 3019.089844 673.121094 "/>
    <path fill-rule="nonzero" fill="rgb(100%, 75.78125%, 32.93457%)" fill-opacity="1"
          d="M 2971.160156 673.121094 L 2999.109375 673.121094 L 2999.109375 553.324219 L 2971.160156 553.324219 Z M 2971.160156 673.121094 "/>
    <path fill-rule="nonzero" fill="rgb(100%, 75.78125%, 32.93457%)" fill-opacity="1"
          d="M 2915.25 673.121094 L 2947.199219 673.121094 L 2947.199219 553.324219 L 2915.25 553.324219 Z M 2915.25 673.121094 "/>
    <path fill-rule="nonzero" fill="rgb(100%, 75.78125%, 32.93457%)" fill-opacity="1"
          d="M 2867.339844 673.121094 L 2895.292969 673.121094 L 2895.292969 553.324219 L 2867.339844 553.324219 Z M 2867.339844 673.121094 "/>
    <path fill-rule="nonzero" fill="rgb(100%, 75.78125%, 32.93457%)" fill-opacity="1"
          d="M 2811.429688 673.121094 L 2839.382812 673.121094 L 2839.382812 553.324219 L 2811.429688 553.324219 Z M 2811.429688 673.121094 "/>
    <path fill-rule="nonzero" fill="rgb(100%, 75.78125%, 32.93457%)" fill-opacity="1"
          d="M 2759.511719 673.121094 L 2795.449219 673.121094 L 2795.449219 553.324219 L 2759.511719 553.324219 Z M 2759.511719 673.121094 "/>
    <path fill-rule="nonzero" fill="rgb(100%, 75.78125%, 32.93457%)" fill-opacity="1"
          d="M 2707.609375 673.121094 L 2739.558594 673.121094 L 2739.558594 553.324219 L 2707.609375 553.324219 Z M 2707.609375 673.121094 "/>
    <path fill-rule="nonzero" fill="rgb(100%, 75.78125%, 32.93457%)" fill-opacity="1"
          d="M 2659.691406 673.121094 L 2687.644531 673.121094 L 2687.644531 553.324219 L 2659.691406 553.324219 Z M 2659.691406 673.121094 "/>
    <path fill-rule="nonzero" fill="rgb(100%, 75.78125%, 32.93457%)" fill-opacity="1"
          d="M 2603.78125 673.121094 L 2635.726562 673.121094 L 2635.726562 553.324219 L 2603.78125 553.324219 Z M 2603.78125 673.121094 "/>
    <path fill-rule="nonzero" fill="rgb(100%, 75.78125%, 32.93457%)" fill-opacity="1"
          d="M 2555.871094 673.121094 L 2587.816406 673.121094 L 2587.816406 553.324219 L 2555.871094 553.324219 Z M 2555.871094 673.121094 "/>
    <path fill-rule="nonzero" fill="rgb(100%, 75.78125%, 32.93457%)" fill-opacity="1"
          d="M 2503.960938 673.121094 L 2535.902344 673.121094 L 2535.902344 553.324219 L 2503.960938 553.324219 Z M 2503.960938 673.121094 "/>
    <path fill-rule="nonzero" fill="rgb(100%, 75.78125%, 32.93457%)" fill-opacity="1"
          d="M 2452.050781 673.121094 L 2484 673.121094 L 2484 553.324219 L 2452.050781 553.324219 Z M 2452.050781 673.121094 "/>
    <path fill-rule="nonzero" fill="rgb(100%, 75.78125%, 32.93457%)" fill-opacity="1"
          d="M 2400.140625 673.121094 L 2432.082031 673.121094 L 2432.082031 553.324219 L 2400.140625 553.324219 Z M 2400.140625 673.121094 "/>
    <path fill-rule="nonzero" fill="rgb(100%, 75.78125%, 32.93457%)" fill-opacity="1"
          d="M 2344.21875 673.121094 L 2384.148438 673.121094 L 2384.148438 553.324219 L 2344.21875 553.324219 Z M 2344.21875 673.121094 "/>
    <path fill-rule="nonzero" fill="rgb(100%, 75.78125%, 32.93457%)" fill-opacity="1"
          d="M 2296.308594 673.121094 L 2328.257812 673.121094 L 2328.257812 553.324219 L 2296.308594 553.324219 Z M 2296.308594 673.121094 "/>
    <path fill-rule="nonzero" fill="rgb(100%, 75.78125%, 32.93457%)" fill-opacity="1"
          d="M 2244.398438 673.121094 L 2280.339844 673.121094 L 2280.339844 553.324219 L 2244.398438 553.324219 Z M 2244.398438 673.121094 "/>
    <path fill-rule="nonzero" fill="rgb(100%, 75.78125%, 32.93457%)" fill-opacity="1"
          d="M 2196.46875 673.121094 L 2224.421875 673.121094 L 2224.421875 553.324219 L 2196.46875 553.324219 Z M 2196.46875 673.121094 "/>
    <path fill-rule="nonzero" fill="rgb(100%, 75.78125%, 32.93457%)" fill-opacity="1"
          d="M 2144.570312 673.121094 L 2172.519531 673.121094 L 2172.519531 553.324219 L 2144.570312 553.324219 Z M 2144.570312 673.121094 "/>
    <path fill-rule="nonzero" fill="rgb(100%, 75.78125%, 32.93457%)" fill-opacity="1"
          d="M 2092.660156 673.121094 L 2120.613281 673.121094 L 2120.613281 553.324219 L 2092.660156 553.324219 Z M 2092.660156 673.121094 "/>
    <path fill-rule="nonzero" fill="rgb(100%, 75.78125%, 32.93457%)" fill-opacity="1"
          d="M 2040.730469 673.121094 L 2068.683594 673.121094 L 2068.683594 553.324219 L 2040.730469 553.324219 Z M 2040.730469 673.121094 "/>
    <path fill-rule="nonzero" fill="rgb(100%, 75.78125%, 32.93457%)" fill-opacity="1"
          d="M 1988.820312 673.121094 L 2016.773438 673.121094 L 2016.773438 553.324219 L 1988.820312 553.324219 Z M 1988.820312 673.121094 "/>
    <path fill-rule="nonzero" fill="rgb(100%, 75.78125%, 32.93457%)" fill-opacity="1"
          d="M 1932.921875 673.121094 L 1968.859375 673.121094 L 1968.859375 553.324219 L 1932.921875 553.324219 Z M 1932.921875 673.121094 "/>
    <path fill-rule="nonzero" fill="rgb(100%, 75.78125%, 32.93457%)" fill-opacity="1"
          d="M 1885.019531 673.121094 L 1912.972656 673.121094 L 1912.972656 553.324219 L 1885.019531 553.324219 Z M 1885.019531 673.121094 "/>
    <path fill-rule="nonzero" fill="rgb(100%, 75.78125%, 32.93457%)" fill-opacity="1"
          d="M 1833.101562 673.121094 L 1869.039062 673.121094 L 1869.039062 553.324219 L 1833.101562 553.324219 Z M 1833.101562 673.121094 "/>
    <path fill-rule="nonzero" fill="rgb(100%, 75.78125%, 32.93457%)" fill-opacity="1"
          d="M 1785.179688 673.121094 L 1813.132812 673.121094 L 1813.132812 553.324219 L 1785.179688 553.324219 Z M 1785.179688 673.121094 "/>
    <path fill-rule="nonzero" fill="rgb(100%, 75.78125%, 32.93457%)" fill-opacity="1"
          d="M 1729.28125 673.121094 L 1761.226562 673.121094 L 1761.226562 553.324219 L 1729.28125 553.324219 Z M 1729.28125 673.121094 "/>
    <path fill-rule="nonzero" fill="rgb(100%, 75.78125%, 32.93457%)" fill-opacity="1"
          d="M 1677.371094 673.121094 L 1709.3125 673.121094 L 1709.3125 553.324219 L 1677.371094 553.324219 Z M 1677.371094 673.121094 "/>
    <path fill-rule="nonzero" fill="rgb(100%, 75.78125%, 32.93457%)" fill-opacity="1"
          d="M 1625.460938 673.121094 L 1661.398438 673.121094 L 1661.398438 553.324219 L 1625.460938 553.324219 Z M 1625.460938 673.121094 "/>
    <path fill-rule="nonzero" fill="rgb(100%, 75.78125%, 32.93457%)" fill-opacity="1"
          d="M 1573.550781 673.121094 L 1609.488281 673.121094 L 1609.488281 553.324219 L 1573.550781 553.324219 Z M 1573.550781 673.121094 "/>
    <path fill-rule="nonzero" fill="rgb(100%, 75.78125%, 32.93457%)" fill-opacity="1"
          d="M 1525.621094 673.121094 L 1557.570312 673.121094 L 1557.570312 553.324219 L 1525.621094 553.324219 Z M 1525.621094 673.121094 "/>
    <path fill-rule="nonzero" fill="rgb(100%, 75.78125%, 32.93457%)" fill-opacity="1"
          d="M 1473.71875 673.121094 L 1501.671875 673.121094 L 1501.671875 553.324219 L 1473.71875 553.324219 Z M 1473.71875 673.121094 "/>
    <path fill-rule="nonzero" fill="rgb(100%, 75.78125%, 32.93457%)" fill-opacity="1"
          d="M 1421.808594 673.121094 L 1453.75 673.121094 L 1453.75 553.324219 L 1421.808594 553.324219 Z M 1421.808594 673.121094 "/>
    <path fill-rule="nonzero" fill="rgb(100%, 75.78125%, 32.93457%)" fill-opacity="1"
          d="M 1373.878906 673.121094 L 1397.84375 673.121094 L 1397.84375 553.324219 L 1373.878906 553.324219 Z M 1373.878906 673.121094 "/>
    <path fill-rule="nonzero" fill="rgb(100%, 75.78125%, 32.93457%)" fill-opacity="1"
          d="M 1317.980469 673.121094 L 1345.929688 673.121094 L 1345.929688 553.324219 L 1317.980469 553.324219 Z M 1317.980469 673.121094 "/>
    <path fill-rule="nonzero" fill="rgb(100%, 75.78125%, 32.93457%)" fill-opacity="1"
          d="M 1266.070312 673.121094 L 1294.023438 673.121094 L 1294.023438 553.324219 L 1266.070312 553.324219 Z M 1266.070312 673.121094 "/>
    <path fill-rule="nonzero" fill="rgb(100%, 75.78125%, 32.93457%)" fill-opacity="1"
          d="M 1214.148438 673.121094 L 1242.101562 673.121094 L 1242.101562 553.324219 L 1214.148438 553.324219 Z M 1214.148438 673.121094 "/>
    <path fill-rule="nonzero" fill="rgb(100%, 75.78125%, 32.93457%)" fill-opacity="1"
          d="M 1162.230469 673.121094 L 1190.183594 673.121094 L 1190.183594 553.324219 L 1162.230469 553.324219 Z M 1162.230469 673.121094 "/>
    <path fill-rule="nonzero" fill="rgb(100%, 75.78125%, 32.93457%)" fill-opacity="1"
          d="M 1110.328125 673.121094 L 1142.28125 673.121094 L 1142.28125 553.324219 L 1110.328125 553.324219 Z M 1110.328125 673.121094 "/>
    <path fill-rule="nonzero" fill="rgb(100%, 75.78125%, 32.93457%)" fill-opacity="1"
          d="M 1062.410156 673.121094 L 1086.371094 673.121094 L 1086.371094 553.324219 L 1062.410156 553.324219 Z M 1062.410156 673.121094 "/>
    <path fill-rule="nonzero" fill="rgb(100%, 75.78125%, 32.93457%)" fill-opacity="1"
          d="M 1006.488281 673.121094 L 1038.4375 673.121094 L 1038.4375 553.324219 L 1006.488281 553.324219 Z M 1006.488281 673.121094 "/>
    <path fill-rule="nonzero" fill="rgb(100%, 75.78125%, 32.93457%)" fill-opacity="1"
          d="M 958.574219 673.121094 L 986.527344 673.121094 L 986.527344 553.324219 L 958.574219 553.324219 Z M 958.574219 673.121094 "/>
    <path fill-rule="nonzero" fill="rgb(100%, 75.78125%, 32.93457%)" fill-opacity="1"
          d="M 902.675781 673.121094 L 930.628906 673.121094 L 930.628906 553.324219 L 902.675781 553.324219 Z M 902.675781 673.121094 "/>
    <path fill-rule="nonzero" fill="rgb(100%, 75.78125%, 32.93457%)" fill-opacity="1"
          d="M 850.777344 673.121094 L 882.71875 673.121094 L 882.71875 553.324219 L 850.777344 553.324219 Z M 850.777344 673.121094 "/>
    <path fill-rule="nonzero" fill="rgb(100%, 75.78125%, 32.93457%)" fill-opacity="1"
          d="M 798.847656 673.121094 L 826.800781 673.121094 L 826.800781 553.324219 L 798.847656 553.324219 Z M 798.847656 673.121094 "/>
    <path fill-rule="nonzero" fill="rgb(100%, 75.78125%, 32.93457%)" fill-opacity="1"
          d="M 746.941406 673.121094 L 778.890625 673.121094 L 778.890625 553.324219 L 746.941406 553.324219 Z M 746.941406 673.121094 "/>
    <path fill-rule="nonzero" fill="rgb(100%, 75.78125%, 32.93457%)" fill-opacity="1"
          d="M 695.023438 673.121094 L 726.96875 673.121094 L 726.96875 553.324219 L 695.023438 553.324219 Z M 695.023438 673.121094 "/>
    <path fill-rule="nonzero" fill="rgb(100%, 75.78125%, 32.93457%)" fill-opacity="1"
          d="M 643.121094 673.121094 L 675.070312 673.121094 L 675.070312 553.324219 L 643.121094 553.324219 Z M 643.121094 673.121094 "/>
    <path fill-rule="nonzero" fill="rgb(100%, 75.78125%, 32.93457%)" fill-opacity="1"
          d="M 587.210938 673.121094 L 627.144531 673.121094 L 627.144531 553.324219 L 587.210938 553.324219 Z M 587.210938 673.121094 "/>
    <path fill-rule="nonzero" fill="rgb(100%, 75.78125%, 32.93457%)" fill-opacity="1"
          d="M 543.296875 673.121094 L 575.242188 673.121094 L 575.242188 553.324219 L 543.296875 553.324219 Z M 543.296875 673.121094 "/>
    <path fill-rule="nonzero" fill="rgb(21.972656%, 23.535156%, 25.87738%)" fill-opacity="1"
          d="M 2104.640625 2018.835938 L 2360.203125 2018.835938 L 2360.203125 1903.035156 L 2104.640625 1903.035156 Z M 2104.640625 2018.835938 "/>
    <path fill-rule="nonzero" fill="rgb(100%, 95.3125%, 76.171875%)" fill-opacity="1"
          d="M 2028.769531 2006.859375 L 2104.644531 2006.859375 L 2104.644531 2002.867188 L 2028.769531 2002.867188 Z M 2028.769531 2006.859375 "/>
    <path fill-rule="nonzero" fill="rgb(100%, 95.3125%, 76.171875%)" fill-opacity="1"
          d="M 2028.769531 1990.882812 L 2104.644531 1990.882812 L 2104.644531 1966.925781 L 2028.769531 1966.925781 Z M 2028.769531 1990.882812 "/>
    <path fill-rule="nonzero" fill="rgb(100%, 95.3125%, 76.171875%)" fill-opacity="1"
          d="M 2028.769531 1954.949219 L 2104.644531 1954.949219 L 2104.644531 1950.953125 L 2028.769531 1950.953125 Z M 2028.769531 1954.949219 "/>
    <path fill-rule="nonzero" fill="rgb(100%, 95.3125%, 76.171875%)" fill-opacity="1"
          d="M 2028.769531 1934.984375 L 2104.644531 1934.984375 L 2104.644531 1915.011719 L 2028.769531 1915.011719 Z M 2028.769531 1934.984375 "/>
    <path fill-rule="nonzero" fill="rgb(100%, 95.3125%, 76.171875%)" fill-opacity="1"
          d="M 2360.199219 2006.859375 L 2444.054688 2006.859375 L 2444.054688 2002.867188 L 2360.199219 2002.867188 Z M 2360.199219 2006.859375 "/>
    <path fill-rule="nonzero" fill="rgb(100%, 95.3125%, 76.171875%)" fill-opacity="1"
          d="M 2360.199219 1990.882812 L 2444.054688 1990.882812 L 2444.054688 1966.925781 L 2360.199219 1966.925781 Z M 2360.199219 1990.882812 "/>
    <path fill-rule="nonzero" fill="rgb(100%, 95.3125%, 76.171875%)" fill-opacity="1"
          d="M 2360.199219 1954.949219 L 2444.054688 1954.949219 L 2444.054688 1950.953125 L 2360.199219 1950.953125 Z M 2360.199219 1954.949219 "/>
    <path fill-rule="nonzero" fill="rgb(100%, 95.3125%, 76.171875%)" fill-opacity="1"
          d="M 2360.199219 1934.984375 L 2444.054688 1934.984375 L 2444.054688 1915.011719 L 2360.199219 1915.011719 Z M 2360.199219 1934.984375 "/>
    <path fill-rule="nonzero" fill="rgb(6.665039%, 9.008789%, 9.812927%)" fill-opacity="1"
          d="M 2151.921875 1918.050781 C 2162.371094 1918.050781 2170.851562 1926.515625 2170.851562 1936.980469 C 2170.851562 1947.441406 2162.371094 1955.933594 2151.921875 1955.933594 C 2141.460938 1955.933594 2133 1947.441406 2133 1936.980469 C 2133 1926.515625 2141.460938 1918.050781 2151.921875 1918.050781 Z M 2151.921875 1918.050781 "/>
    <path fill-rule="nonzero" fill="rgb(100%, 95.3125%, 76.171875%)" fill-opacity="1"
          d="M 3809.75 808.890625 L 3833.703125 808.890625 L 3833.703125 804.898438 L 3809.75 804.898438 Z M 3809.75 808.890625 "/>
    <path fill-rule="nonzero" fill="rgb(100%, 95.3125%, 76.171875%)" fill-opacity="1"
          d="M 3809.75 768.96875 L 3833.703125 768.96875 L 3833.703125 756.984375 L 3809.75 756.984375 Z M 3809.75 768.96875 "/>
    <path fill-rule="nonzero" fill="rgb(3.529358%, 3.921509%, 3.529358%)" fill-opacity="1"
          d="M 3809.75 804.898438 L 3833.703125 804.898438 L 3833.703125 768.960938 L 3809.75 768.960938 Z M 3809.75 804.898438 "/>
    <path fill-rule="nonzero" fill="rgb(100%, 95.3125%, 76.171875%)" fill-opacity="1"
          d="M 3865.640625 1168.28125 L 3901.578125 1168.28125 L 3901.578125 1164.292969 L 3865.640625 1164.292969 Z M 3865.640625 1168.28125 "/>
    <path fill-rule="nonzero" fill="rgb(100%, 95.3125%, 76.171875%)" fill-opacity="1"
          d="M 3865.640625 1128.351562 L 3901.578125 1128.351562 L 3901.578125 1120.363281 L 3865.640625 1120.363281 Z M 3865.640625 1128.351562 "/>
    <path fill-rule="nonzero" fill="rgb(3.529358%, 3.921509%, 3.529358%)" fill-opacity="1"
          d="M 3865.640625 1164.289062 L 3901.578125 1164.289062 L 3901.578125 1128.347656 L 3865.640625 1128.347656 Z M 3865.640625 1164.289062 "/>
    <path fill-rule="nonzero" fill="rgb(100%, 95.3125%, 76.171875%)" fill-opacity="1"
          d="M 3865.640625 1403.878906 L 3901.578125 1403.878906 L 3901.578125 1391.894531 L 3865.640625 1391.894531 Z M 3865.640625 1403.878906 "/>
    <path fill-rule="nonzero" fill="rgb(100%, 95.3125%, 76.171875%)" fill-opacity="1"
          d="M 3865.640625 1351.980469 L 3901.578125 1351.980469 L 3901.578125 1347.984375 L 3865.640625 1347.984375 Z M 3865.640625 1351.980469 "/>
    <path fill-rule="nonzero" fill="rgb(3.529358%, 3.921509%, 3.529358%)" fill-opacity="1"
          d="M 3865.640625 1391.910156 L 3901.578125 1391.910156 L 3901.578125 1351.972656 L 3865.640625 1351.972656 Z M 3865.640625 1391.910156 "/>
    <path fill-rule="nonzero" fill="rgb(100%, 95.3125%, 76.171875%)" fill-opacity="1"
          d="M 3865.640625 1615.519531 L 3901.578125 1615.519531 L 3901.578125 1607.53125 L 3865.640625 1607.53125 Z M 3865.640625 1615.519531 "/>
    <path fill-rule="nonzero" fill="rgb(100%, 95.3125%, 76.171875%)" fill-opacity="1"
          d="M 3865.640625 1575.601562 L 3901.578125 1575.601562 L 3901.578125 1563.613281 L 3865.640625 1563.613281 Z M 3865.640625 1575.601562 "/>
    <path fill-rule="nonzero" fill="rgb(3.529358%, 3.921509%, 3.529358%)" fill-opacity="1"
          d="M 3865.640625 1607.539062 L 3901.578125 1607.539062 L 3901.578125 1575.589844 L 3865.640625 1575.589844 Z M 3865.640625 1607.539062 "/>
    <path fill-rule="nonzero" fill="rgb(100%, 95.3125%, 76.171875%)" fill-opacity="1"
          d="M 3865.640625 1843.140625 L 3901.578125 1843.140625 L 3901.578125 1831.164062 L 3865.640625 1831.164062 Z M 3865.640625 1843.140625 "/>
    <path fill-rule="nonzero" fill="rgb(100%, 95.3125%, 76.171875%)" fill-opacity="1"
          d="M 3865.640625 1803.210938 L 3901.578125 1803.210938 L 3901.578125 1795.222656 L 3865.640625 1795.222656 Z M 3865.640625 1803.210938 "/>
    <path fill-rule="nonzero" fill="rgb(3.529358%, 3.921509%, 3.529358%)" fill-opacity="1"
          d="M 3865.640625 1831.164062 L 3901.578125 1831.164062 L 3901.578125 1803.210938 L 3865.640625 1803.210938 Z M 3865.640625 1831.164062 "/>
    <path fill-rule="nonzero" fill="rgb(100%, 95.3125%, 76.171875%)" fill-opacity="1"
          d="M 583.21875 1168.28125 L 615.167969 1168.28125 L 615.167969 1164.292969 L 583.21875 1164.292969 Z M 583.21875 1168.28125 "/>
    <path fill-rule="nonzero" fill="rgb(100%, 95.3125%, 76.171875%)" fill-opacity="1"
          d="M 583.21875 1128.351562 L 615.167969 1128.351562 L 615.167969 1120.363281 L 583.21875 1120.363281 Z M 583.21875 1128.351562 "/>
    <path fill-rule="nonzero" fill="rgb(3.529358%, 3.921509%, 3.529358%)" fill-opacity="1"
          d="M 583.21875 1164.289062 L 615.167969 1164.289062 L 615.167969 1128.347656 L 583.21875 1128.347656 Z M 583.21875 1164.289062 "/>
    <path fill-rule="nonzero" fill="rgb(100%, 95.3125%, 76.171875%)" fill-opacity="1"
          d="M 583.222656 1403.878906 L 615.167969 1403.878906 L 615.167969 1391.894531 L 583.222656 1391.894531 Z M 583.222656 1403.878906 "/>
    <path fill-rule="nonzero" fill="rgb(100%, 95.3125%, 76.171875%)" fill-opacity="1"
          d="M 583.222656 1351.980469 L 615.167969 1351.980469 L 615.167969 1347.984375 L 583.222656 1347.984375 Z M 583.222656 1351.980469 "/>
    <path fill-rule="nonzero" fill="rgb(3.529358%, 3.921509%, 3.529358%)" fill-opacity="1"
          d="M 583.222656 1391.910156 L 615.167969 1391.910156 L 615.167969 1351.972656 L 583.222656 1351.972656 Z M 583.222656 1391.910156 "/>
    <path fill-rule="nonzero" fill="rgb(100%, 95.3125%, 76.171875%)" fill-opacity="1"
          d="M 583.222656 1615.519531 L 615.167969 1615.519531 L 615.167969 1607.53125 L 583.222656 1607.53125 Z M 583.222656 1615.519531 "/>
    <path fill-rule="nonzero" fill="rgb(100%, 95.3125%, 76.171875%)" fill-opacity="1"
          d="M 583.222656 1575.601562 L 615.167969 1575.601562 L 615.167969 1563.613281 L 583.222656 1563.613281 Z M 583.222656 1575.601562 "/>
    <path fill-rule="nonzero" fill="rgb(3.529358%, 3.921509%, 3.529358%)" fill-opacity="1"
          d="M 583.222656 1607.539062 L 615.167969 1607.539062 L 615.167969 1575.589844 L 583.222656 1575.589844 Z M 583.222656 1607.539062 "/>
    <path fill-rule="nonzero" fill="rgb(100%, 95.3125%, 76.171875%)" fill-opacity="1"
          d="M 583.222656 1843.140625 L 615.167969 1843.140625 L 615.167969 1831.164062 L 583.222656 1831.164062 Z M 583.222656 1843.140625 "/>
    <path fill-rule="nonzero" fill="rgb(100%, 95.3125%, 76.171875%)" fill-opacity="1"
          d="M 583.222656 1803.210938 L 615.167969 1803.210938 L 615.167969 1795.222656 L 583.222656 1795.222656 Z M 583.222656 1803.210938 "/>
    <path fill-rule="nonzero" fill="rgb(3.529358%, 3.921509%, 3.529358%)" fill-opacity="1"
          d="M 583.222656 1831.164062 L 615.167969 1831.164062 L 615.167969 1803.210938 L 583.222656 1803.210938 Z M 583.222656 1831.164062 "/>
    <path fill-rule="nonzero" fill="rgb(100%, 95.3125%, 76.171875%)" fill-opacity="1"
          d="M 2196.480469 1875.082031 L 2208.457031 1875.082031 L 2208.457031 1843.140625 L 2196.480469 1843.140625 Z M 2196.480469 1875.082031 "/>
    <path fill-rule="nonzero" fill="rgb(100%, 95.3125%, 76.171875%)" fill-opacity="1"
          d="M 2236.398438 1875.082031 L 2244.386719 1875.082031 L 2244.386719 1843.140625 L 2236.398438 1843.140625 Z M 2236.398438 1875.082031 "/>
    <path fill-rule="nonzero" fill="rgb(3.529358%, 3.921509%, 3.529358%)" fill-opacity="1"
          d="M 2208.449219 1875.082031 L 2236.402344 1875.082031 L 2236.402344 1843.140625 L 2208.449219 1843.140625 Z M 2208.449219 1875.082031 "/>
    <path fill-rule="nonzero" fill="rgb(100%, 95.3125%, 76.171875%)" fill-opacity="1"
          d="M 2196.480469 1819.183594 L 2208.457031 1819.183594 L 2208.457031 1795.222656 L 2196.480469 1795.222656 Z M 2196.480469 1819.183594 "/>
    <path fill-rule="nonzero" fill="rgb(100%, 95.3125%, 76.171875%)" fill-opacity="1"
          d="M 2236.398438 1819.183594 L 2244.386719 1819.183594 L 2244.386719 1795.222656 L 2236.398438 1795.222656 Z M 2236.398438 1819.183594 "/>
    <path fill-rule="nonzero" fill="rgb(3.529358%, 3.921509%, 3.529358%)" fill-opacity="1"
          d="M 2208.449219 1819.183594 L 2236.402344 1819.183594 L 2236.402344 1795.222656 L 2208.449219 1795.222656 Z M 2208.449219 1819.183594 "/>
    <path fill-rule="nonzero" fill="rgb(100%, 95.3125%, 76.171875%)" fill-opacity="1"
          d="M 2196.480469 1767.261719 L 2208.457031 1767.261719 L 2208.457031 1739.308594 L 2196.480469 1739.308594 Z M 2196.480469 1767.261719 "/>
    <path fill-rule="nonzero" fill="rgb(100%, 95.3125%, 76.171875%)" fill-opacity="1"
          d="M 2236.398438 1767.261719 L 2244.386719 1767.261719 L 2244.386719 1739.308594 L 2236.398438 1739.308594 Z M 2236.398438 1767.261719 "/>
    <path fill-rule="nonzero" fill="rgb(3.529358%, 3.921509%, 3.529358%)" fill-opacity="1"
          d="M 2208.449219 1767.261719 L 2236.402344 1767.261719 L 2236.402344 1739.308594 L 2208.449219 1739.308594 Z M 2208.449219 1767.261719 "/>
    <path fill-rule="nonzero" fill="rgb(100%, 95.3125%, 76.171875%)" fill-opacity="1"
          d="M 2196.480469 1719.351562 L 2208.457031 1719.351562 L 2208.457031 1687.402344 L 2196.480469 1687.402344 Z M 2196.480469 1719.351562 "/>
    <path fill-rule="nonzero" fill="rgb(100%, 95.3125%, 76.171875%)" fill-opacity="1"
          d="M 2236.398438 1719.351562 L 2244.386719 1719.351562 L 2244.386719 1687.402344 L 2236.398438 1687.402344 Z M 2236.398438 1719.351562 "/>
    <path fill-rule="nonzero" fill="rgb(3.529358%, 3.921509%, 3.529358%)" fill-opacity="1"
          d="M 2208.449219 1719.351562 L 2236.402344 1719.351562 L 2236.402344 1687.402344 L 2208.449219 1687.402344 Z M 2208.449219 1719.351562 "/>
    <path fill-rule="nonzero" fill="rgb(100%, 95.3125%, 76.171875%)" fill-opacity="1"
          d="M 2196.480469 1667.4375 L 2208.457031 1667.4375 L 2208.457031 1639.484375 L 2196.480469 1639.484375 Z M 2196.480469 1667.4375 "/>
    <path fill-rule="nonzero" fill="rgb(100%, 95.3125%, 76.171875%)" fill-opacity="1"
          d="M 2236.398438 1667.4375 L 2244.386719 1667.4375 L 2244.386719 1639.484375 L 2236.398438 1639.484375 Z M 2236.398438 1667.4375 "/>
    <path fill-rule="nonzero" fill="rgb(3.529358%, 3.921509%, 3.529358%)" fill-opacity="1"
          d="M 2208.449219 1667.4375 L 2236.402344 1667.4375 L 2236.402344 1639.484375 L 2208.449219 1639.484375 Z M 2208.449219 1667.4375 "/>
    <path fill-rule="nonzero" fill="rgb(100%, 95.3125%, 76.171875%)" fill-opacity="1"
          d="M 2196.480469 1615.53125 L 2208.457031 1615.53125 L 2208.457031 1587.578125 L 2196.480469 1587.578125 Z M 2196.480469 1615.53125 "/>
    <path fill-rule="nonzero" fill="rgb(100%, 95.3125%, 76.171875%)" fill-opacity="1"
          d="M 2236.398438 1615.53125 L 2244.386719 1615.53125 L 2244.386719 1587.578125 L 2236.398438 1587.578125 Z M 2236.398438 1615.53125 "/>
    <path fill-rule="nonzero" fill="rgb(3.529358%, 3.921509%, 3.529358%)" fill-opacity="1"
          d="M 2208.449219 1615.53125 L 2236.402344 1615.53125 L 2236.402344 1587.578125 L 2208.449219 1587.578125 Z M 2208.449219 1615.53125 "/>
    <path fill-rule="nonzero" fill="rgb(100%, 95.3125%, 76.171875%)" fill-opacity="1"
          d="M 2196.480469 1563.609375 L 2208.457031 1563.609375 L 2208.457031 1535.660156 L 2196.480469 1535.660156 Z M 2196.480469 1563.609375 "/>
    <path fill-rule="nonzero" fill="rgb(100%, 95.3125%, 76.171875%)" fill-opacity="1"
          d="M 2236.398438 1563.609375 L 2244.386719 1563.609375 L 2244.386719 1535.660156 L 2236.398438 1535.660156 Z M 2236.398438 1563.609375 "/>
    <path fill-rule="nonzero" fill="rgb(3.529358%, 3.921509%, 3.529358%)" fill-opacity="1"
          d="M 2208.449219 1563.609375 L 2236.402344 1563.609375 L 2236.402344 1535.660156 L 2208.449219 1535.660156 Z M 2208.449219 1563.609375 "/>
    <path fill-rule="nonzero" fill="rgb(100%, 95.3125%, 76.171875%)" fill-opacity="1"
          d="M 2196.480469 1511.699219 L 2208.457031 1511.699219 L 2208.457031 1483.746094 L 2196.480469 1483.746094 Z M 2196.480469 1511.699219 "/>
    <path fill-rule="nonzero" fill="rgb(100%, 95.3125%, 76.171875%)" fill-opacity="1"
          d="M 2236.398438 1511.699219 L 2244.386719 1511.699219 L 2244.386719 1483.746094 L 2236.398438 1483.746094 Z M 2236.398438 1511.699219 "/>
    <path fill-rule="nonzero" fill="rgb(3.529358%, 3.921509%, 3.529358%)" fill-opacity="1"
          d="M 2208.449219 1511.699219 L 2236.402344 1511.699219 L 2236.402344 1483.746094 L 2208.449219 1483.746094 Z M 2208.449219 1511.699219 "/>
    <path fill-rule="nonzero" fill="rgb(100%, 95.3125%, 76.171875%)" fill-opacity="1"
          d="M 2196.480469 1459.78125 L 2208.457031 1459.78125 L 2208.457031 1427.839844 L 2196.480469 1427.839844 Z M 2196.480469 1459.78125 "/>
    <path fill-rule="nonzero" fill="rgb(100%, 95.3125%, 76.171875%)" fill-opacity="1"
          d="M 2236.398438 1459.78125 L 2244.386719 1459.78125 L 2244.386719 1427.839844 L 2236.398438 1427.839844 Z M 2236.398438 1459.78125 "/>
    <path fill-rule="nonzero" fill="rgb(3.529358%, 3.921509%, 3.529358%)" fill-opacity="1"
          d="M 2208.449219 1459.78125 L 2236.402344 1459.78125 L 2236.402344 1427.839844 L 2208.449219 1427.839844 Z M 2208.449219 1459.78125 "/>
    <path fill-rule="nonzero" fill="rgb(100%, 95.3125%, 76.171875%)" fill-opacity="1"
          d="M 2196.480469 1407.878906 L 2208.457031 1407.878906 L 2208.457031 1379.925781 L 2196.480469 1379.925781 Z M 2196.480469 1407.878906 "/>
    <path fill-rule="nonzero" fill="rgb(100%, 95.3125%, 76.171875%)" fill-opacity="1"
          d="M 2236.398438 1407.878906 L 2244.386719 1407.878906 L 2244.386719 1379.925781 L 2236.398438 1379.925781 Z M 2236.398438 1407.878906 "/>
    <path fill-rule="nonzero" fill="rgb(3.529358%, 3.921509%, 3.529358%)" fill-opacity="1"
          d="M 2208.449219 1407.878906 L 2236.402344 1407.878906 L 2236.402344 1379.925781 L 2208.449219 1379.925781 Z M 2208.449219 1407.878906 "/>
    <path fill-rule="nonzero" fill="rgb(100%, 95.3125%, 76.171875%)" fill-opacity="1"
          d="M 2196.480469 1351.980469 L 2208.457031 1351.980469 L 2208.457031 1324.027344 L 2196.480469 1324.027344 Z M 2196.480469 1351.980469 "/>
    <path fill-rule="nonzero" fill="rgb(100%, 95.3125%, 76.171875%)" fill-opacity="1"
          d="M 2236.398438 1351.980469 L 2244.386719 1351.980469 L 2244.386719 1324.027344 L 2236.398438 1324.027344 Z M 2236.398438 1351.980469 "/>
    <path fill-rule="nonzero" fill="rgb(3.529358%, 3.921509%, 3.529358%)" fill-opacity="1"
          d="M 2208.449219 1351.980469 L 2236.402344 1351.980469 L 2236.402344 1324.027344 L 2208.449219 1324.027344 Z M 2208.449219 1351.980469 "/>
    <path fill-rule="nonzero" fill="rgb(100%, 95.3125%, 76.171875%)" fill-opacity="1"
          d="M 2196.480469 1308.050781 L 2208.457031 1308.050781 L 2208.457031 1272.109375 L 2196.480469 1272.109375 Z M 2196.480469 1308.050781 "/>
    <path fill-rule="nonzero" fill="rgb(100%, 95.3125%, 76.171875%)" fill-opacity="1"
          d="M 2236.398438 1308.050781 L 2244.386719 1308.050781 L 2244.386719 1272.109375 L 2236.398438 1272.109375 Z M 2236.398438 1308.050781 "/>
    <path fill-rule="nonzero" fill="rgb(3.529358%, 3.921509%, 3.529358%)" fill-opacity="1"
          d="M 2208.449219 1308.050781 L 2236.402344 1308.050781 L 2236.402344 1272.109375 L 2208.449219 1272.109375 Z M 2208.449219 1308.050781 "/>
    <path fill-rule="nonzero" fill="rgb(100%, 95.3125%, 76.171875%)" fill-opacity="1"
          d="M 2196.480469 1252.140625 L 2208.457031 1252.140625 L 2208.457031 1220.199219 L 2196.480469 1220.199219 Z M 2196.480469 1252.140625 "/>
    <path fill-rule="nonzero" fill="rgb(100%, 95.3125%, 76.171875%)" fill-opacity="1"
          d="M 2236.398438 1252.140625 L 2244.386719 1252.140625 L 2244.386719 1220.199219 L 2236.398438 1220.199219 Z M 2236.398438 1252.140625 "/>
    <path fill-rule="nonzero" fill="rgb(3.529358%, 3.921509%, 3.529358%)" fill-opacity="1"
          d="M 2208.449219 1252.140625 L 2236.402344 1252.140625 L 2236.402344 1220.199219 L 2208.449219 1220.199219 Z M 2208.449219 1252.140625 "/>
    <path fill-rule="nonzero" fill="rgb(100%, 95.3125%, 76.171875%)" fill-opacity="1"
          d="M 2196.480469 1208.21875 L 2208.457031 1208.21875 L 2208.457031 1168.289062 L 2196.480469 1168.289062 Z M 2196.480469 1208.21875 "/>
    <path fill-rule="nonzero" fill="rgb(100%, 95.3125%, 76.171875%)" fill-opacity="1"
          d="M 2236.398438 1208.21875 L 2244.386719 1208.21875 L 2244.386719 1168.289062 L 2236.398438 1168.289062 Z M 2236.398438 1208.21875 "/>
    <path fill-rule="nonzero" fill="rgb(3.529358%, 3.921509%, 3.529358%)" fill-opacity="1"
          d="M 2208.449219 1208.21875 L 2236.402344 1208.21875 L 2236.402344 1168.289062 L 2208.449219 1168.289062 Z M 2208.449219 1208.21875 "/>
    <path fill-rule="nonzero" fill="rgb(100%, 95.3125%, 76.171875%)" fill-opacity="1"
          d="M 3166.839844 2002.859375 L 3198.785156 2002.859375 L 3198.785156 1990.882812 L 3166.839844 1990.882812 Z M 3166.839844 2002.859375 "/>
    <path fill-rule="nonzero" fill="rgb(100%, 95.3125%, 76.171875%)" fill-opacity="1"
          d="M 3166.839844 1954.949219 L 3198.785156 1954.949219 L 3198.785156 1950.953125 L 3166.839844 1950.953125 Z M 3166.839844 1954.949219 "/>
    <path fill-rule="nonzero" fill="rgb(3.529358%, 3.921509%, 3.529358%)" fill-opacity="1"
          d="M 3166.839844 1990.890625 L 3198.785156 1990.890625 L 3198.785156 1954.949219 L 3166.839844 1954.949219 Z M 3166.839844 1990.890625 "/>
    <path fill-rule="nonzero" fill="rgb(100%, 95.3125%, 76.171875%)" fill-opacity="1"
          d="M 3166.839844 1815.1875 L 3198.785156 1815.1875 L 3198.785156 1803.210938 L 3166.839844 1803.210938 Z M 3166.839844 1815.1875 "/>
    <path fill-rule="nonzero" fill="rgb(100%, 95.3125%, 76.171875%)" fill-opacity="1"
          d="M 3166.839844 1767.269531 L 3198.785156 1767.269531 L 3198.785156 1759.28125 L 3166.839844 1759.28125 Z M 3166.839844 1767.269531 "/>
    <path fill-rule="nonzero" fill="rgb(3.529358%, 3.921509%, 3.529358%)" fill-opacity="1"
          d="M 3166.839844 1803.210938 L 3198.785156 1803.210938 L 3198.785156 1767.269531 L 3166.839844 1767.269531 Z M 3166.839844 1803.210938 "/>
    <path fill-rule="nonzero" fill="rgb(100%, 95.3125%, 76.171875%)" fill-opacity="1"
          d="M 3166.839844 1627.507812 L 3198.785156 1627.507812 L 3198.785156 1615.53125 L 3166.839844 1615.53125 Z M 3166.839844 1627.507812 "/>
    <path fill-rule="nonzero" fill="rgb(100%, 95.3125%, 76.171875%)" fill-opacity="1"
          d="M 3166.839844 1587.578125 L 3198.785156 1587.578125 L 3198.785156 1575.59375 L 3166.839844 1575.59375 Z M 3166.839844 1587.578125 "/>
    <path fill-rule="nonzero" fill="rgb(3.529358%, 3.921509%, 3.529358%)" fill-opacity="1"
          d="M 3166.839844 1615.53125 L 3198.785156 1615.53125 L 3198.785156 1587.578125 L 3166.839844 1587.578125 Z M 3166.839844 1615.53125 "/>
    <path fill-rule="nonzero" fill="rgb(100%, 95.3125%, 76.171875%)" fill-opacity="1"
          d="M 3166.839844 1439.820312 L 3198.785156 1439.820312 L 3198.785156 1427.84375 L 3166.839844 1427.84375 Z M 3166.839844 1439.820312 "/>
    <path fill-rule="nonzero" fill="rgb(100%, 95.3125%, 76.171875%)" fill-opacity="1"
          d="M 3166.839844 1403.878906 L 3198.785156 1403.878906 L 3198.785156 1391.894531 L 3166.839844 1391.894531 Z M 3166.839844 1403.878906 "/>
    <path fill-rule="nonzero" fill="rgb(3.529358%, 3.921509%, 3.529358%)" fill-opacity="1"
          d="M 3166.839844 1427.839844 L 3198.785156 1427.839844 L 3198.785156 1403.875 L 3166.839844 1403.875 Z M 3166.839844 1427.839844 "/>
    <path fill-rule="nonzero" fill="rgb(100%, 95.3125%, 76.171875%)" fill-opacity="1"
          d="M 3166.839844 1252.140625 L 3198.785156 1252.140625 L 3198.785156 1244.152344 L 3166.839844 1244.152344 Z M 3166.839844 1252.140625 "/>
    <path fill-rule="nonzero" fill="rgb(100%, 95.3125%, 76.171875%)" fill-opacity="1"
          d="M 3166.839844 1216.199219 L 3198.785156 1216.199219 L 3198.785156 1208.210938 L 3166.839844 1208.210938 Z M 3166.839844 1216.199219 "/>
    <path fill-rule="nonzero" fill="rgb(3.529358%, 3.921509%, 3.529358%)" fill-opacity="1"
          d="M 3166.839844 1244.148438 L 3198.785156 1244.148438 L 3198.785156 1216.195312 L 3166.839844 1216.195312 Z M 3166.839844 1244.148438 "/>
    <path fill-rule="nonzero" fill="rgb(100%, 95.3125%, 76.171875%)" fill-opacity="1"
          d="M 2432.078125 1815.1875 L 2464.019531 1815.1875 L 2464.019531 1803.210938 L 2432.078125 1803.210938 Z M 2432.078125 1815.1875 "/>
    <path fill-rule="nonzero" fill="rgb(100%, 95.3125%, 76.171875%)" fill-opacity="1"
          d="M 2432.078125 1767.269531 L 2464.019531 1767.269531 L 2464.019531 1759.28125 L 2432.078125 1759.28125 Z M 2432.078125 1767.269531 "/>
    <path fill-rule="nonzero" fill="rgb(3.529358%, 3.921509%, 3.529358%)" fill-opacity="1"
          d="M 2432.078125 1803.210938 L 2464.019531 1803.210938 L 2464.019531 1767.269531 L 2432.078125 1767.269531 Z M 2432.078125 1803.210938 "/>
    <path fill-rule="nonzero" fill="rgb(100%, 95.3125%, 76.171875%)" fill-opacity="1"
          d="M 2432.078125 1627.507812 L 2464.019531 1627.507812 L 2464.019531 1615.53125 L 2432.078125 1615.53125 Z M 2432.078125 1627.507812 "/>
    <path fill-rule="nonzero" fill="rgb(100%, 95.3125%, 76.171875%)" fill-opacity="1"
          d="M 2432.078125 1587.578125 L 2464.019531 1587.578125 L 2464.019531 1575.59375 L 2432.078125 1575.59375 Z M 2432.078125 1587.578125 "/>
    <path fill-rule="nonzero" fill="rgb(3.529358%, 3.921509%, 3.529358%)" fill-opacity="1"
          d="M 2432.078125 1615.53125 L 2464.019531 1615.53125 L 2464.019531 1587.578125 L 2432.078125 1587.578125 Z M 2432.078125 1615.53125 "/>
    <path fill-rule="nonzero" fill="rgb(100%, 95.3125%, 76.171875%)" fill-opacity="1"
          d="M 2432.078125 1439.820312 L 2464.019531 1439.820312 L 2464.019531 1427.84375 L 2432.078125 1427.84375 Z M 2432.078125 1439.820312 "/>
    <path fill-rule="nonzero" fill="rgb(100%, 95.3125%, 76.171875%)" fill-opacity="1"
          d="M 2432.078125 1403.878906 L 2464.019531 1403.878906 L 2464.019531 1391.894531 L 2432.078125 1391.894531 Z M 2432.078125 1403.878906 "/>
    <path fill-rule="nonzero" fill="rgb(3.529358%, 3.921509%, 3.529358%)" fill-opacity="1"
          d="M 2432.078125 1427.839844 L 2464.019531 1427.839844 L 2464.019531 1403.875 L 2432.078125 1403.875 Z M 2432.078125 1427.839844 "/>
    <path fill-rule="nonzero" fill="rgb(100%, 95.3125%, 76.171875%)" fill-opacity="1"
          d="M 2432.078125 1252.140625 L 2464.019531 1252.140625 L 2464.019531 1244.152344 L 2432.078125 1244.152344 Z M 2432.078125 1252.140625 "/>
    <path fill-rule="nonzero" fill="rgb(100%, 95.3125%, 76.171875%)" fill-opacity="1"
          d="M 2432.078125 1216.199219 L 2464.019531 1216.199219 L 2464.019531 1208.210938 L 2432.078125 1208.210938 Z M 2432.078125 1216.199219 "/>
    <path fill-rule="nonzero" fill="rgb(3.529358%, 3.921509%, 3.529358%)" fill-opacity="1"
          d="M 2432.078125 1244.148438 L 2464.019531 1244.148438 L 2464.019531 1216.195312 L 2432.078125 1216.195312 Z M 2432.078125 1244.148438 "/>
    <path fill-rule="nonzero" fill="rgb(100%, 95.3125%, 76.171875%)" fill-opacity="1"
          d="M 2016.78125 1815.1875 L 2052.71875 1815.1875 L 2052.71875 1803.210938 L 2016.78125 1803.210938 Z M 2016.78125 1815.1875 "/>
    <path fill-rule="nonzero" fill="rgb(100%, 95.3125%, 76.171875%)" fill-opacity="1"
          d="M 2016.78125 1767.269531 L 2052.71875 1767.269531 L 2052.71875 1759.28125 L 2016.78125 1759.28125 Z M 2016.78125 1767.269531 "/>
    <path fill-rule="nonzero" fill="rgb(3.529358%, 3.921509%, 3.529358%)" fill-opacity="1"
          d="M 2016.78125 1803.210938 L 2052.71875 1803.210938 L 2052.71875 1767.269531 L 2016.78125 1767.269531 Z M 2016.78125 1803.210938 "/>
    <path fill-rule="nonzero" fill="rgb(100%, 95.3125%, 76.171875%)" fill-opacity="1"
          d="M 2016.78125 1627.507812 L 2052.71875 1627.507812 L 2052.71875 1615.53125 L 2016.78125 1615.53125 Z M 2016.78125 1627.507812 "/>
    <path fill-rule="nonzero" fill="rgb(100%, 95.3125%, 76.171875%)" fill-opacity="1"
          d="M 2016.78125 1587.578125 L 2052.71875 1587.578125 L 2052.71875 1575.59375 L 2016.78125 1575.59375 Z M 2016.78125 1587.578125 "/>
    <path fill-rule="nonzero" fill="rgb(3.529358%, 3.921509%, 3.529358%)" fill-opacity="1"
          d="M 2016.78125 1615.53125 L 2052.71875 1615.53125 L 2052.71875 1587.578125 L 2016.78125 1587.578125 Z M 2016.78125 1615.53125 "/>
    <path fill-rule="nonzero" fill="rgb(100%, 95.3125%, 76.171875%)" fill-opacity="1"
          d="M 2016.78125 1439.820312 L 2052.71875 1439.820312 L 2052.71875 1427.84375 L 2016.78125 1427.84375 Z M 2016.78125 1439.820312 "/>
    <path fill-rule="nonzero" fill="rgb(100%, 95.3125%, 76.171875%)" fill-opacity="1"
          d="M 2016.78125 1403.878906 L 2052.71875 1403.878906 L 2052.71875 1391.894531 L 2016.78125 1391.894531 Z M 2016.78125 1403.878906 "/>
    <path fill-rule="nonzero" fill="rgb(3.529358%, 3.921509%, 3.529358%)" fill-opacity="1"
          d="M 2016.78125 1427.839844 L 2052.71875 1427.839844 L 2052.71875 1403.875 L 2016.78125 1403.875 Z M 2016.78125 1427.839844 "/>
    <path fill-rule="nonzero" fill="rgb(100%, 95.3125%, 76.171875%)" fill-opacity="1"
          d="M 2016.78125 1252.140625 L 2052.71875 1252.140625 L 2052.71875 1244.152344 L 2016.78125 1244.152344 Z M 2016.78125 1252.140625 "/>
    <path fill-rule="nonzero" fill="rgb(100%, 95.3125%, 76.171875%)" fill-opacity="1"
          d="M 2016.78125 1216.199219 L 2052.71875 1216.199219 L 2052.71875 1208.210938 L 2016.78125 1208.210938 Z M 2016.78125 1216.199219 "/>
    <path fill-rule="nonzero" fill="rgb(3.529358%, 3.921509%, 3.529358%)" fill-opacity="1"
          d="M 2016.78125 1244.148438 L 2052.71875 1244.148438 L 2052.71875 1216.195312 L 2016.78125 1216.195312 Z M 2016.78125 1244.148438 "/>
    <path fill-rule="nonzero" fill="rgb(100%, 95.3125%, 76.171875%)" fill-opacity="1"
          d="M 1294.011719 2002.859375 L 1321.960938 2002.859375 L 1321.960938 1990.882812 L 1294.011719 1990.882812 Z M 1294.011719 2002.859375 "/>
    <path fill-rule="nonzero" fill="rgb(100%, 95.3125%, 76.171875%)" fill-opacity="1"
          d="M 1294.011719 1954.949219 L 1321.960938 1954.949219 L 1321.960938 1950.953125 L 1294.011719 1950.953125 Z M 1294.011719 1954.949219 "/>
    <path fill-rule="nonzero" fill="rgb(3.529358%, 3.921509%, 3.529358%)" fill-opacity="1"
          d="M 1294.011719 1990.890625 L 1321.960938 1990.890625 L 1321.960938 1954.949219 L 1294.011719 1954.949219 Z M 1294.011719 1990.890625 "/>
    <path fill-rule="nonzero" fill="rgb(100%, 95.3125%, 76.171875%)" fill-opacity="1"
          d="M 1294.011719 1815.1875 L 1321.960938 1815.1875 L 1321.960938 1803.210938 L 1294.011719 1803.210938 Z M 1294.011719 1815.1875 "/>
    <path fill-rule="nonzero" fill="rgb(100%, 95.3125%, 76.171875%)" fill-opacity="1"
          d="M 1294.011719 1767.269531 L 1321.960938 1767.269531 L 1321.960938 1759.28125 L 1294.011719 1759.28125 Z M 1294.011719 1767.269531 "/>
    <path fill-rule="nonzero" fill="rgb(3.529358%, 3.921509%, 3.529358%)" fill-opacity="1"
          d="M 1294.011719 1803.210938 L 1321.960938 1803.210938 L 1321.960938 1767.269531 L 1294.011719 1767.269531 Z M 1294.011719 1803.210938 "/>
    <path fill-rule="nonzero" fill="rgb(100%, 95.3125%, 76.171875%)" fill-opacity="1"
          d="M 1294.011719 1627.507812 L 1321.960938 1627.507812 L 1321.960938 1615.53125 L 1294.011719 1615.53125 Z M 1294.011719 1627.507812 "/>
    <path fill-rule="nonzero" fill="rgb(100%, 95.3125%, 76.171875%)" fill-opacity="1"
          d="M 1294.011719 1587.578125 L 1321.960938 1587.578125 L 1321.960938 1575.59375 L 1294.011719 1575.59375 Z M 1294.011719 1587.578125 "/>
    <path fill-rule="nonzero" fill="rgb(3.529358%, 3.921509%, 3.529358%)" fill-opacity="1"
          d="M 1294.011719 1615.53125 L 1321.960938 1615.53125 L 1321.960938 1587.578125 L 1294.011719 1587.578125 Z M 1294.011719 1615.53125 "/>
    <path fill-rule="nonzero" fill="rgb(100%, 95.3125%, 76.171875%)" fill-opacity="1"
          d="M 1294.011719 1439.820312 L 1321.960938 1439.820312 L 1321.960938 1427.84375 L 1294.011719 1427.84375 Z M 1294.011719 1439.820312 "/>
    <path fill-rule="nonzero" fill="rgb(100%, 95.3125%, 76.171875%)" fill-opacity="1"
          d="M 1294.011719 1403.878906 L 1321.960938 1403.878906 L 1321.960938 1391.894531 L 1294.011719 1391.894531 Z M 1294.011719 1403.878906 "/>
    <path fill-rule="nonzero" fill="rgb(3.529358%, 3.921509%, 3.529358%)" fill-opacity="1"
          d="M 1294.011719 1427.839844 L 1321.960938 1427.839844 L 1321.960938 1403.875 L 1294.011719 1403.875 Z M 1294.011719 1427.839844 "/>
    <path fill-rule="nonzero" fill="rgb(100%, 95.3125%, 76.171875%)" fill-opacity="1"
          d="M 1294.011719 1252.140625 L 1321.960938 1252.140625 L 1321.960938 1244.152344 L 1294.011719 1244.152344 Z M 1294.011719 1252.140625 "/>
    <path fill-rule="nonzero" fill="rgb(100%, 95.3125%, 76.171875%)" fill-opacity="1"
          d="M 1294.011719 1216.199219 L 1321.960938 1216.199219 L 1321.960938 1208.210938 L 1294.011719 1208.210938 Z M 1294.011719 1216.199219 "/>
    <path fill-rule="nonzero" fill="rgb(3.529358%, 3.921509%, 3.529358%)" fill-opacity="1"
          d="M 1294.011719 1244.148438 L 1321.960938 1244.148438 L 1321.960938 1216.195312 L 1294.011719 1216.195312 Z M 1294.011719 1244.148438 "/>
    <path fill-rule="nonzero" fill="rgb(100%, 95.3125%, 76.171875%)" fill-opacity="1"
          d="M 3761.820312 808.890625 L 3797.753906 808.890625 L 3797.753906 804.898438 L 3761.820312 804.898438 Z M 3761.820312 808.890625 "/>
    <path fill-rule="nonzero" fill="rgb(100%, 95.3125%, 76.171875%)" fill-opacity="1"
          d="M 3761.820312 768.96875 L 3797.753906 768.96875 L 3797.753906 756.984375 L 3761.820312 756.984375 Z M 3761.820312 768.96875 "/>
    <path fill-rule="nonzero" fill="rgb(3.529358%, 3.921509%, 3.529358%)" fill-opacity="1"
          d="M 3761.820312 804.898438 L 3797.753906 804.898438 L 3797.753906 768.960938 L 3761.820312 768.960938 Z M 3761.820312 804.898438 "/>
    <path fill-rule="nonzero" fill="rgb(100%, 95.3125%, 76.171875%)" fill-opacity="1"
          d="M 3725.890625 808.890625 L 3753.84375 808.890625 L 3753.84375 804.898438 L 3725.890625 804.898438 Z M 3725.890625 808.890625 "/>
    <path fill-rule="nonzero" fill="rgb(100%, 95.3125%, 76.171875%)" fill-opacity="1"
          d="M 3725.890625 768.96875 L 3753.84375 768.96875 L 3753.84375 756.984375 L 3725.890625 756.984375 Z M 3725.890625 768.96875 "/>
    <path fill-rule="nonzero" fill="rgb(3.529358%, 3.921509%, 3.529358%)" fill-opacity="1"
          d="M 3725.890625 804.898438 L 3753.84375 804.898438 L 3753.84375 768.960938 L 3725.890625 768.960938 Z M 3725.890625 804.898438 "/>
    <path fill-rule="nonzero" fill="rgb(100%, 95.3125%, 76.171875%)" fill-opacity="1"
          d="M 3677.960938 808.890625 L 3713.902344 808.890625 L 3713.902344 804.898438 L 3677.960938 804.898438 Z M 3677.960938 808.890625 "/>
    <path fill-rule="nonzero" fill="rgb(100%, 95.3125%, 76.171875%)" fill-opacity="1"
          d="M 3677.960938 768.96875 L 3713.902344 768.96875 L 3713.902344 756.984375 L 3677.960938 756.984375 Z M 3677.960938 768.96875 "/>
    <path fill-rule="nonzero" fill="rgb(3.529358%, 3.921509%, 3.529358%)" fill-opacity="1"
          d="M 3677.960938 804.898438 L 3713.902344 804.898438 L 3713.902344 768.960938 L 3677.960938 768.960938 Z M 3677.960938 804.898438 "/>
    <path fill-rule="nonzero" fill="rgb(100%, 95.3125%, 76.171875%)" fill-opacity="1"
          d="M 3614.070312 808.890625 L 3638.023438 808.890625 L 3638.023438 804.898438 L 3614.070312 804.898438 Z M 3614.070312 808.890625 "/>
    <path fill-rule="nonzero" fill="rgb(100%, 95.3125%, 76.171875%)" fill-opacity="1"
          d="M 3614.070312 768.96875 L 3638.023438 768.96875 L 3638.023438 756.984375 L 3614.070312 756.984375 Z M 3614.070312 768.96875 "/>
    <path fill-rule="nonzero" fill="rgb(3.529358%, 3.921509%, 3.529358%)" fill-opacity="1"
          d="M 3614.070312 804.898438 L 3638.023438 804.898438 L 3638.023438 768.960938 L 3614.070312 768.960938 Z M 3614.070312 804.898438 "/>
    <path fill-rule="nonzero" fill="rgb(100%, 95.3125%, 76.171875%)" fill-opacity="1"
          d="M 3570.148438 808.890625 L 3598.101562 808.890625 L 3598.101562 804.898438 L 3570.148438 804.898438 Z M 3570.148438 808.890625 "/>
    <path fill-rule="nonzero" fill="rgb(100%, 95.3125%, 76.171875%)" fill-opacity="1"
          d="M 3570.148438 768.96875 L 3598.101562 768.96875 L 3598.101562 756.984375 L 3570.148438 756.984375 Z M 3570.148438 768.96875 "/>
    <path fill-rule="nonzero" fill="rgb(3.529358%, 3.921509%, 3.529358%)" fill-opacity="1"
          d="M 3570.148438 804.898438 L 3598.101562 804.898438 L 3598.101562 768.960938 L 3570.148438 768.960938 Z M 3570.148438 804.898438 "/>
    <path fill-rule="nonzero" fill="rgb(100%, 95.3125%, 76.171875%)" fill-opacity="1"
          d="M 3522.230469 808.890625 L 3558.167969 808.890625 L 3558.167969 804.898438 L 3522.230469 804.898438 Z M 3522.230469 808.890625 "/>
    <path fill-rule="nonzero" fill="rgb(100%, 95.3125%, 76.171875%)" fill-opacity="1"
          d="M 3522.230469 768.96875 L 3558.167969 768.96875 L 3558.167969 756.984375 L 3522.230469 756.984375 Z M 3522.230469 768.96875 "/>
    <path fill-rule="nonzero" fill="rgb(3.529358%, 3.921509%, 3.529358%)" fill-opacity="1"
          d="M 3522.230469 804.898438 L 3558.167969 804.898438 L 3558.167969 768.960938 L 3522.230469 768.960938 Z M 3522.230469 804.898438 "/>
    <path fill-rule="nonzero" fill="rgb(100%, 95.3125%, 76.171875%)" fill-opacity="1"
          d="M 3486.28125 808.890625 L 3514.234375 808.890625 L 3514.234375 804.898438 L 3486.28125 804.898438 Z M 3486.28125 808.890625 "/>
    <path fill-rule="nonzero" fill="rgb(100%, 95.3125%, 76.171875%)" fill-opacity="1"
          d="M 3486.28125 768.96875 L 3514.234375 768.96875 L 3514.234375 756.984375 L 3486.28125 756.984375 Z M 3486.28125 768.96875 "/>
    <path fill-rule="nonzero" fill="rgb(3.529358%, 3.921509%, 3.529358%)" fill-opacity="1"
          d="M 3486.28125 804.898438 L 3514.234375 804.898438 L 3514.234375 768.960938 L 3486.28125 768.960938 Z M 3486.28125 804.898438 "/>
    <path fill-rule="nonzero" fill="rgb(100%, 95.3125%, 76.171875%)" fill-opacity="1"
          d="M 3374.480469 808.890625 L 3402.429688 808.890625 L 3402.429688 804.898438 L 3374.480469 804.898438 Z M 3374.480469 808.890625 "/>
    <path fill-rule="nonzero" fill="rgb(100%, 95.3125%, 76.171875%)" fill-opacity="1"
          d="M 3374.480469 768.96875 L 3402.429688 768.96875 L 3402.429688 756.984375 L 3374.480469 756.984375 Z M 3374.480469 768.96875 "/>
    <path fill-rule="nonzero" fill="rgb(3.529358%, 3.921509%, 3.529358%)" fill-opacity="1"
          d="M 3374.480469 804.898438 L 3402.429688 804.898438 L 3402.429688 768.960938 L 3374.480469 768.960938 Z M 3374.480469 804.898438 "/>
    <path fill-rule="nonzero" fill="rgb(100%, 95.3125%, 76.171875%)" fill-opacity="1"
          d="M 3330.558594 808.890625 L 3358.511719 808.890625 L 3358.511719 804.898438 L 3330.558594 804.898438 Z M 3330.558594 808.890625 "/>
    <path fill-rule="nonzero" fill="rgb(100%, 95.3125%, 76.171875%)" fill-opacity="1"
          d="M 3330.558594 768.96875 L 3358.511719 768.96875 L 3358.511719 756.984375 L 3330.558594 756.984375 Z M 3330.558594 768.96875 "/>
    <path fill-rule="nonzero" fill="rgb(3.529358%, 3.921509%, 3.529358%)" fill-opacity="1"
          d="M 3330.558594 804.898438 L 3358.511719 804.898438 L 3358.511719 768.960938 L 3330.558594 768.960938 Z M 3330.558594 804.898438 "/>
    <path fill-rule="nonzero" fill="rgb(100%, 95.3125%, 76.171875%)" fill-opacity="1"
          d="M 3290.621094 808.890625 L 3318.574219 808.890625 L 3318.574219 804.898438 L 3290.621094 804.898438 Z M 3290.621094 808.890625 "/>
    <path fill-rule="nonzero" fill="rgb(100%, 95.3125%, 76.171875%)" fill-opacity="1"
          d="M 3290.621094 768.96875 L 3318.574219 768.96875 L 3318.574219 756.984375 L 3290.621094 756.984375 Z M 3290.621094 768.96875 "/>
    <path fill-rule="nonzero" fill="rgb(3.529358%, 3.921509%, 3.529358%)" fill-opacity="1"
          d="M 3290.621094 804.898438 L 3318.574219 804.898438 L 3318.574219 768.960938 L 3290.621094 768.960938 Z M 3290.621094 804.898438 "/>
    <path fill-rule="nonzero" fill="rgb(100%, 95.3125%, 76.171875%)" fill-opacity="1"
          d="M 3246.699219 808.898438 L 3282.636719 808.898438 L 3282.636719 804.898438 L 3246.699219 804.898438 Z M 3246.699219 808.898438 "/>
    <path fill-rule="nonzero" fill="rgb(100%, 95.3125%, 76.171875%)" fill-opacity="1"
          d="M 3246.699219 768.96875 L 3282.636719 768.96875 L 3282.636719 756.984375 L 3246.699219 756.984375 Z M 3246.699219 768.96875 "/>
    <path fill-rule="nonzero" fill="rgb(3.529358%, 3.921509%, 3.529358%)" fill-opacity="1"
          d="M 3246.699219 804.898438 L 3282.636719 804.898438 L 3282.636719 768.960938 L 3246.699219 768.960938 Z M 3246.699219 804.898438 "/>
    <path fill-rule="nonzero" fill="rgb(100%, 95.3125%, 76.171875%)" fill-opacity="1"
          d="M 3011.089844 804.898438 L 3043.039062 804.898438 L 3043.03125 808.890625 L 3011.089844 808.890625 Z M 3011.089844 804.898438 "/>
    <path fill-rule="nonzero" fill="rgb(100%, 95.3125%, 76.171875%)" fill-opacity="1"
          d="M 3011.089844 756.980469 L 3043.039062 756.980469 L 3043.03125 768.96875 L 3011.089844 768.96875 Z M 3011.089844 756.980469 "/>
    <path fill-rule="nonzero" fill="rgb(3.529358%, 3.921509%, 3.529358%)" fill-opacity="1"
          d="M 3043.039062 768.960938 L 3011.089844 768.960938 L 3011.089844 804.898438 L 3043.03125 804.898438 Z M 3043.039062 768.960938 "/>
    <path fill-rule="nonzero" fill="rgb(100%, 95.3125%, 76.171875%)" fill-opacity="1"
          d="M 2971.160156 808.890625 L 2999.109375 808.890625 L 2999.109375 804.898438 L 2971.160156 804.898438 Z M 2971.160156 808.890625 "/>
    <path fill-rule="nonzero" fill="rgb(100%, 95.3125%, 76.171875%)" fill-opacity="1"
          d="M 2971.160156 768.96875 L 2999.109375 768.96875 L 2999.109375 756.984375 L 2971.160156 756.984375 Z M 2971.160156 768.96875 "/>
    <path fill-rule="nonzero" fill="rgb(3.529358%, 3.921509%, 3.529358%)" fill-opacity="1"
          d="M 2971.160156 804.898438 L 2999.109375 804.898438 L 2999.109375 768.960938 L 2971.160156 768.960938 Z M 2971.160156 804.898438 "/>
    <path fill-rule="nonzero" fill="rgb(100%, 95.3125%, 76.171875%)" fill-opacity="1"
          d="M 2927.238281 808.890625 L 2959.1875 808.890625 L 2959.1875 804.898438 L 2927.238281 804.898438 Z M 2927.238281 808.890625 "/>
    <path fill-rule="nonzero" fill="rgb(100%, 95.3125%, 76.171875%)" fill-opacity="1"
          d="M 2927.238281 768.96875 L 2959.1875 768.96875 L 2959.1875 756.984375 L 2927.238281 756.984375 Z M 2927.238281 768.96875 "/>
    <path fill-rule="nonzero" fill="rgb(3.529358%, 3.921509%, 3.529358%)" fill-opacity="1"
          d="M 2927.238281 804.898438 L 2959.1875 804.898438 L 2959.1875 768.960938 L 2927.238281 768.960938 Z M 2927.238281 804.898438 "/>
    <path fill-rule="nonzero" fill="rgb(100%, 95.3125%, 76.171875%)" fill-opacity="1"
          d="M 2811.429688 808.890625 L 2839.382812 808.890625 L 2839.382812 804.898438 L 2811.429688 804.898438 Z M 2811.429688 808.890625 "/>
    <path fill-rule="nonzero" fill="rgb(100%, 95.3125%, 76.171875%)" fill-opacity="1"
          d="M 2811.429688 768.96875 L 2839.382812 768.96875 L 2839.382812 756.984375 L 2811.429688 756.984375 Z M 2811.429688 768.96875 "/>
    <path fill-rule="nonzero" fill="rgb(3.529358%, 3.921509%, 3.529358%)" fill-opacity="1"
          d="M 2811.429688 804.898438 L 2839.382812 804.898438 L 2839.382812 768.960938 L 2811.429688 768.960938 Z M 2811.429688 804.898438 "/>
    <path fill-rule="nonzero" fill="rgb(100%, 95.3125%, 76.171875%)" fill-opacity="1"
          d="M 2771.5 808.890625 L 2807.441406 808.890625 L 2807.441406 804.898438 L 2771.5 804.898438 Z M 2771.5 808.890625 "/>
    <path fill-rule="nonzero" fill="rgb(100%, 95.3125%, 76.171875%)" fill-opacity="1"
          d="M 2771.5 768.96875 L 2807.441406 768.96875 L 2807.441406 756.984375 L 2771.5 756.984375 Z M 2771.5 768.96875 "/>
    <path fill-rule="nonzero" fill="rgb(3.529358%, 3.921509%, 3.529358%)" fill-opacity="1"
          d="M 2771.5 804.898438 L 2807.441406 804.898438 L 2807.441406 768.960938 L 2771.5 768.960938 Z M 2771.5 804.898438 "/>
    <path fill-rule="nonzero" fill="rgb(100%, 95.3125%, 76.171875%)" fill-opacity="1"
          d="M 2731.570312 808.890625 L 2759.523438 808.890625 L 2759.523438 804.898438 L 2731.570312 804.898438 Z M 2731.570312 808.890625 "/>
    <path fill-rule="nonzero" fill="rgb(100%, 95.3125%, 76.171875%)" fill-opacity="1"
          d="M 2731.570312 768.96875 L 2759.523438 768.96875 L 2759.523438 756.984375 L 2731.570312 756.984375 Z M 2731.570312 768.96875 "/>
    <path fill-rule="nonzero" fill="rgb(3.529358%, 3.921509%, 3.529358%)" fill-opacity="1"
          d="M 2731.570312 804.898438 L 2759.523438 804.898438 L 2759.523438 768.960938 L 2731.570312 768.960938 Z M 2731.570312 804.898438 "/>
    <path fill-rule="nonzero" fill="rgb(100%, 95.3125%, 76.171875%)" fill-opacity="1"
          d="M 2619.769531 808.890625 L 2647.722656 808.890625 L 2647.722656 804.898438 L 2619.769531 804.898438 Z M 2619.769531 808.890625 "/>
    <path fill-rule="nonzero" fill="rgb(100%, 95.3125%, 76.171875%)" fill-opacity="1"
          d="M 2619.769531 768.96875 L 2647.722656 768.96875 L 2647.722656 756.984375 L 2619.769531 756.984375 Z M 2619.769531 768.96875 "/>
    <path fill-rule="nonzero" fill="rgb(3.529358%, 3.921509%, 3.529358%)" fill-opacity="1"
          d="M 2619.769531 804.898438 L 2647.722656 804.898438 L 2647.722656 768.960938 L 2619.769531 768.960938 Z M 2619.769531 804.898438 "/>
    <path fill-rule="nonzero" fill="rgb(100%, 95.3125%, 76.171875%)" fill-opacity="1"
          d="M 2579.828125 808.890625 L 2603.78125 808.890625 L 2603.78125 804.898438 L 2579.828125 804.898438 Z M 2579.828125 808.890625 "/>
    <path fill-rule="nonzero" fill="rgb(100%, 95.3125%, 76.171875%)" fill-opacity="1"
          d="M 2579.828125 768.96875 L 2603.78125 768.96875 L 2603.78125 756.984375 L 2579.828125 756.984375 Z M 2579.828125 768.96875 "/>
    <path fill-rule="nonzero" fill="rgb(3.529358%, 3.921509%, 3.529358%)" fill-opacity="1"
          d="M 2579.828125 804.898438 L 2603.78125 804.898438 L 2603.78125 768.960938 L 2579.828125 768.960938 Z M 2579.828125 804.898438 "/>
    <path fill-rule="nonzero" fill="rgb(100%, 95.3125%, 76.171875%)" fill-opacity="1"
          d="M 2535.910156 808.890625 L 2567.855469 808.890625 L 2567.855469 804.898438 L 2535.910156 804.898438 Z M 2535.910156 808.890625 "/>
    <path fill-rule="nonzero" fill="rgb(100%, 95.3125%, 76.171875%)" fill-opacity="1"
          d="M 2535.910156 768.96875 L 2567.855469 768.96875 L 2567.855469 756.984375 L 2535.910156 756.984375 Z M 2535.910156 768.96875 "/>
    <path fill-rule="nonzero" fill="rgb(3.529358%, 3.921509%, 3.529358%)" fill-opacity="1"
          d="M 2535.910156 804.898438 L 2567.855469 804.898438 L 2567.855469 768.960938 L 2535.910156 768.960938 Z M 2535.910156 804.898438 "/>
    <path fill-rule="nonzero" fill="rgb(100%, 95.3125%, 76.171875%)" fill-opacity="1"
          d="M 2420.089844 808.890625 L 2452.039062 808.890625 L 2452.039062 804.898438 L 2420.089844 804.898438 Z M 2420.089844 808.890625 "/>
    <path fill-rule="nonzero" fill="rgb(100%, 95.3125%, 76.171875%)" fill-opacity="1"
          d="M 2420.089844 768.96875 L 2452.039062 768.96875 L 2452.039062 756.984375 L 2420.089844 756.984375 Z M 2420.089844 768.96875 "/>
    <path fill-rule="nonzero" fill="rgb(3.529358%, 3.921509%, 3.529358%)" fill-opacity="1"
          d="M 2420.089844 804.898438 L 2452.039062 804.898438 L 2452.039062 768.960938 L 2420.089844 768.960938 Z M 2420.089844 804.898438 "/>
    <path fill-rule="nonzero" fill="rgb(100%, 95.3125%, 76.171875%)" fill-opacity="1"
          d="M 2384.171875 808.890625 L 2408.125 808.890625 L 2408.125 804.898438 L 2384.171875 804.898438 Z M 2384.171875 808.890625 "/>
    <path fill-rule="nonzero" fill="rgb(100%, 95.3125%, 76.171875%)" fill-opacity="1"
          d="M 2384.171875 768.96875 L 2408.125 768.96875 L 2408.125 756.984375 L 2384.171875 756.984375 Z M 2384.171875 768.96875 "/>
    <path fill-rule="nonzero" fill="rgb(3.529358%, 3.921509%, 3.529358%)" fill-opacity="1"
          d="M 2384.171875 804.898438 L 2408.125 804.898438 L 2408.125 768.960938 L 2384.171875 768.960938 Z M 2384.171875 804.898438 "/>
    <path fill-rule="nonzero" fill="rgb(100%, 95.3125%, 76.171875%)" fill-opacity="1"
          d="M 2340.230469 808.890625 L 2372.171875 808.890625 L 2372.171875 804.898438 L 2340.230469 804.898438 Z M 2340.230469 808.890625 "/>
    <path fill-rule="nonzero" fill="rgb(100%, 95.3125%, 76.171875%)" fill-opacity="1"
          d="M 2340.230469 768.96875 L 2372.171875 768.96875 L 2372.171875 756.984375 L 2340.230469 756.984375 Z M 2340.230469 768.96875 "/>
    <path fill-rule="nonzero" fill="rgb(3.529358%, 3.921509%, 3.529358%)" fill-opacity="1"
          d="M 2340.230469 804.898438 L 2372.171875 804.898438 L 2372.171875 768.960938 L 2340.230469 768.960938 Z M 2340.230469 804.898438 "/>
    <path fill-rule="nonzero" fill="rgb(100%, 95.3125%, 76.171875%)" fill-opacity="1"
          d="M 2224.429688 808.898438 L 2256.378906 808.898438 L 2256.378906 804.898438 L 2224.429688 804.898438 Z M 2224.429688 808.898438 "/>
    <path fill-rule="nonzero" fill="rgb(100%, 95.3125%, 76.171875%)" fill-opacity="1"
          d="M 2224.429688 768.96875 L 2256.378906 768.96875 L 2256.378906 756.984375 L 2224.429688 756.984375 Z M 2224.429688 768.96875 "/>
    <path fill-rule="nonzero" fill="rgb(3.529358%, 3.921509%, 3.529358%)" fill-opacity="1"
          d="M 2224.429688 804.898438 L 2256.378906 804.898438 L 2256.378906 768.960938 L 2224.429688 768.960938 Z M 2224.429688 804.898438 "/>
    <path fill-rule="nonzero" fill="rgb(100%, 95.3125%, 76.171875%)" fill-opacity="1"
          d="M 2184.5 808.898438 L 2212.453125 808.898438 L 2212.453125 804.898438 L 2184.5 804.898438 Z M 2184.5 808.898438 "/>
    <path fill-rule="nonzero" fill="rgb(100%, 95.3125%, 76.171875%)" fill-opacity="1"
          d="M 2184.5 768.96875 L 2212.453125 768.96875 L 2212.453125 756.984375 L 2184.5 756.984375 Z M 2184.5 768.96875 "/>
    <path fill-rule="nonzero" fill="rgb(3.529358%, 3.921509%, 3.529358%)" fill-opacity="1"
          d="M 2184.5 804.898438 L 2212.453125 804.898438 L 2212.453125 768.960938 L 2184.5 768.960938 Z M 2184.5 804.898438 "/>
    <path fill-rule="nonzero" fill="rgb(100%, 95.3125%, 76.171875%)" fill-opacity="1"
          d="M 2144.570312 808.898438 L 2172.519531 808.898438 L 2172.519531 804.898438 L 2144.570312 804.898438 Z M 2144.570312 808.898438 "/>
    <path fill-rule="nonzero" fill="rgb(100%, 95.3125%, 76.171875%)" fill-opacity="1"
          d="M 2144.570312 768.96875 L 2172.519531 768.96875 L 2172.519531 756.984375 L 2144.570312 756.984375 Z M 2144.570312 768.96875 "/>
    <path fill-rule="nonzero" fill="rgb(3.529358%, 3.921509%, 3.529358%)" fill-opacity="1"
          d="M 2144.570312 804.898438 L 2172.519531 804.898438 L 2172.519531 768.960938 L 2144.570312 768.960938 Z M 2144.570312 804.898438 "/>
    <path fill-rule="nonzero" fill="rgb(100%, 95.3125%, 76.171875%)" fill-opacity="1"
          d="M 2028.761719 808.898438 L 2060.707031 808.898438 L 2060.707031 804.898438 L 2028.761719 804.898438 Z M 2028.761719 808.898438 "/>
    <path fill-rule="nonzero" fill="rgb(100%, 95.3125%, 76.171875%)" fill-opacity="1"
          d="M 2028.761719 768.96875 L 2060.707031 768.96875 L 2060.707031 756.984375 L 2028.761719 756.984375 Z M 2028.761719 768.96875 "/>
    <path fill-rule="nonzero" fill="rgb(3.529358%, 3.921509%, 3.529358%)" fill-opacity="1"
          d="M 2028.761719 804.898438 L 2060.707031 804.898438 L 2060.707031 768.960938 L 2028.761719 768.960938 Z M 2028.761719 804.898438 "/>
    <path fill-rule="nonzero" fill="rgb(100%, 95.3125%, 76.171875%)" fill-opacity="1"
          d="M 1988.820312 808.898438 L 2016.773438 808.898438 L 2016.773438 804.898438 L 1988.820312 804.898438 Z M 1988.820312 808.898438 "/>
    <path fill-rule="nonzero" fill="rgb(100%, 95.3125%, 76.171875%)" fill-opacity="1"
          d="M 1988.820312 768.96875 L 2016.773438 768.96875 L 2016.773438 756.984375 L 1988.820312 756.984375 Z M 1988.820312 768.96875 "/>
    <path fill-rule="nonzero" fill="rgb(3.529358%, 3.921509%, 3.529358%)" fill-opacity="1"
          d="M 1988.820312 804.898438 L 2016.773438 804.898438 L 2016.773438 768.960938 L 1988.820312 768.960938 Z M 1988.820312 804.898438 "/>
    <path fill-rule="nonzero" fill="rgb(100%, 95.3125%, 76.171875%)" fill-opacity="1"
          d="M 1948.898438 808.890625 L 1976.851562 808.890625 L 1976.851562 804.898438 L 1948.898438 804.898438 Z M 1948.898438 808.890625 "/>
    <path fill-rule="nonzero" fill="rgb(100%, 95.3125%, 76.171875%)" fill-opacity="1"
          d="M 1948.898438 768.96875 L 1976.851562 768.96875 L 1976.851562 756.984375 L 1948.898438 756.984375 Z M 1948.898438 768.96875 "/>
    <path fill-rule="nonzero" fill="rgb(3.529358%, 3.921509%, 3.529358%)" fill-opacity="1"
          d="M 1948.898438 804.898438 L 1976.851562 804.898438 L 1976.851562 768.960938 L 1948.898438 768.960938 Z M 1948.898438 804.898438 "/>
    <path fill-rule="nonzero" fill="rgb(100%, 95.3125%, 76.171875%)" fill-opacity="1"
          d="M 1833.101562 808.890625 L 1869.039062 808.890625 L 1869.039062 804.898438 L 1833.101562 804.898438 Z M 1833.101562 808.890625 "/>
    <path fill-rule="nonzero" fill="rgb(100%, 95.3125%, 76.171875%)" fill-opacity="1"
          d="M 1833.101562 768.96875 L 1869.039062 768.96875 L 1869.039062 756.984375 L 1833.101562 756.984375 Z M 1833.101562 768.96875 "/>
    <path fill-rule="nonzero" fill="rgb(3.529358%, 3.921509%, 3.529358%)" fill-opacity="1"
          d="M 1833.101562 804.898438 L 1869.039062 804.898438 L 1869.039062 768.960938 L 1833.101562 768.960938 Z M 1833.101562 804.898438 "/>
    <path fill-rule="nonzero" fill="rgb(100%, 95.3125%, 76.171875%)" fill-opacity="1"
          d="M 1797.171875 808.890625 L 1821.125 808.890625 L 1821.125 804.898438 L 1797.171875 804.898438 Z M 1797.171875 808.890625 "/>
    <path fill-rule="nonzero" fill="rgb(100%, 95.3125%, 76.171875%)" fill-opacity="1"
          d="M 1797.171875 768.96875 L 1821.125 768.96875 L 1821.125 756.984375 L 1797.171875 756.984375 Z M 1797.171875 768.96875 "/>
    <path fill-rule="nonzero" fill="rgb(3.529358%, 3.921509%, 3.529358%)" fill-opacity="1"
          d="M 1797.171875 804.898438 L 1821.125 804.898438 L 1821.125 768.960938 L 1797.171875 768.960938 Z M 1797.171875 804.898438 "/>
    <path fill-rule="nonzero" fill="rgb(100%, 95.3125%, 76.171875%)" fill-opacity="1"
          d="M 1749.230469 808.890625 L 1785.167969 808.890625 L 1785.167969 804.898438 L 1749.230469 804.898438 Z M 1749.230469 808.890625 "/>
    <path fill-rule="nonzero" fill="rgb(100%, 95.3125%, 76.171875%)" fill-opacity="1"
          d="M 1749.230469 768.96875 L 1785.167969 768.96875 L 1785.167969 756.984375 L 1749.230469 756.984375 Z M 1749.230469 768.96875 "/>
    <path fill-rule="nonzero" fill="rgb(3.529358%, 3.921509%, 3.529358%)" fill-opacity="1"
          d="M 1749.230469 804.898438 L 1785.167969 804.898438 L 1785.167969 768.960938 L 1749.230469 768.960938 Z M 1749.230469 804.898438 "/>
    <path fill-rule="nonzero" fill="rgb(100%, 95.3125%, 76.171875%)" fill-opacity="1"
          d="M 1637.421875 808.890625 L 1665.375 808.890625 L 1665.375 804.898438 L 1637.421875 804.898438 Z M 1637.421875 808.890625 "/>
    <path fill-rule="nonzero" fill="rgb(100%, 95.3125%, 76.171875%)" fill-opacity="1"
          d="M 1637.421875 768.96875 L 1665.375 768.96875 L 1665.375 756.984375 L 1637.421875 756.984375 Z M 1637.421875 768.96875 "/>
    <path fill-rule="nonzero" fill="rgb(3.529358%, 3.921509%, 3.529358%)" fill-opacity="1"
          d="M 1637.421875 804.898438 L 1665.375 804.898438 L 1665.375 768.960938 L 1637.421875 768.960938 Z M 1637.421875 804.898438 "/>
    <path fill-rule="nonzero" fill="rgb(100%, 95.3125%, 76.171875%)" fill-opacity="1"
          d="M 1593.5 808.890625 L 1625.441406 808.890625 L 1625.441406 804.898438 L 1593.5 804.898438 Z M 1593.5 808.890625 "/>
    <path fill-rule="nonzero" fill="rgb(100%, 95.3125%, 76.171875%)" fill-opacity="1"
          d="M 1593.5 768.96875 L 1625.441406 768.96875 L 1625.441406 756.984375 L 1593.5 756.984375 Z M 1593.5 768.96875 "/>
    <path fill-rule="nonzero" fill="rgb(3.529358%, 3.921509%, 3.529358%)" fill-opacity="1"
          d="M 1593.5 804.898438 L 1625.441406 804.898438 L 1625.441406 768.960938 L 1593.5 768.960938 Z M 1593.5 804.898438 "/>
    <path fill-rule="nonzero" fill="rgb(100%, 95.3125%, 76.171875%)" fill-opacity="1"
          d="M 1557.558594 808.890625 L 1585.511719 808.890625 L 1585.511719 804.898438 L 1557.558594 804.898438 Z M 1557.558594 808.890625 "/>
    <path fill-rule="nonzero" fill="rgb(100%, 95.3125%, 76.171875%)" fill-opacity="1"
          d="M 1557.558594 768.96875 L 1585.511719 768.96875 L 1585.511719 756.984375 L 1557.558594 756.984375 Z M 1557.558594 768.96875 "/>
    <path fill-rule="nonzero" fill="rgb(3.529358%, 3.921509%, 3.529358%)" fill-opacity="1"
          d="M 1557.558594 804.898438 L 1585.511719 804.898438 L 1585.511719 768.960938 L 1557.558594 768.960938 Z M 1557.558594 804.898438 "/>
    <path fill-rule="nonzero" fill="rgb(100%, 95.3125%, 76.171875%)" fill-opacity="1"
          d="M 1441.761719 808.890625 L 1473.707031 808.890625 L 1473.707031 804.898438 L 1441.761719 804.898438 Z M 1441.761719 808.890625 "/>
    <path fill-rule="nonzero" fill="rgb(100%, 95.3125%, 76.171875%)" fill-opacity="1"
          d="M 1441.761719 768.96875 L 1473.707031 768.96875 L 1473.707031 756.984375 L 1441.761719 756.984375 Z M 1441.761719 768.96875 "/>
    <path fill-rule="nonzero" fill="rgb(3.529358%, 3.921509%, 3.529358%)" fill-opacity="1"
          d="M 1441.761719 804.898438 L 1473.707031 804.898438 L 1473.707031 768.960938 L 1441.761719 768.960938 Z M 1441.761719 804.898438 "/>
    <path fill-rule="nonzero" fill="rgb(100%, 95.3125%, 76.171875%)" fill-opacity="1"
          d="M 1397.839844 808.890625 L 1425.792969 808.890625 L 1425.792969 804.898438 L 1397.839844 804.898438 Z M 1397.839844 808.890625 "/>
    <path fill-rule="nonzero" fill="rgb(100%, 95.3125%, 76.171875%)" fill-opacity="1"
          d="M 1397.839844 768.96875 L 1425.792969 768.96875 L 1425.792969 756.984375 L 1397.839844 756.984375 Z M 1397.839844 768.96875 "/>
    <path fill-rule="nonzero" fill="rgb(3.529358%, 3.921509%, 3.529358%)" fill-opacity="1"
          d="M 1397.839844 804.898438 L 1425.792969 804.898438 L 1425.792969 768.960938 L 1397.839844 768.960938 Z M 1397.839844 804.898438 "/>
    <path fill-rule="nonzero" fill="rgb(100%, 95.3125%, 76.171875%)" fill-opacity="1"
          d="M 1361.898438 808.890625 L 1389.851562 808.890625 L 1389.851562 804.898438 L 1361.898438 804.898438 Z M 1361.898438 808.890625 "/>
    <path fill-rule="nonzero" fill="rgb(100%, 95.3125%, 76.171875%)" fill-opacity="1"
          d="M 1361.898438 768.96875 L 1389.851562 768.96875 L 1389.851562 756.984375 L 1361.898438 756.984375 Z M 1361.898438 768.96875 "/>
    <path fill-rule="nonzero" fill="rgb(3.529358%, 3.921509%, 3.529358%)" fill-opacity="1"
          d="M 1361.898438 804.898438 L 1389.851562 804.898438 L 1389.851562 768.960938 L 1361.898438 768.960938 Z M 1361.898438 804.898438 "/>
    <path fill-rule="nonzero" fill="rgb(100%, 95.3125%, 76.171875%)" fill-opacity="1"
          d="M 1242.101562 808.890625 L 1278.039062 808.890625 L 1278.039062 804.898438 L 1242.101562 804.898438 Z M 1242.101562 808.890625 "/>
    <path fill-rule="nonzero" fill="rgb(100%, 95.3125%, 76.171875%)" fill-opacity="1"
          d="M 1242.101562 768.96875 L 1278.039062 768.96875 L 1278.039062 756.984375 L 1242.101562 756.984375 Z M 1242.101562 768.96875 "/>
    <path fill-rule="nonzero" fill="rgb(3.529358%, 3.921509%, 3.529358%)" fill-opacity="1"
          d="M 1242.101562 804.898438 L 1278.039062 804.898438 L 1278.039062 768.960938 L 1242.101562 768.960938 Z M 1242.101562 804.898438 "/>
    <path fill-rule="nonzero" fill="rgb(100%, 95.3125%, 76.171875%)" fill-opacity="1"
          d="M 1202.179688 808.890625 L 1234.121094 808.890625 L 1234.121094 804.898438 L 1202.179688 804.898438 Z M 1202.179688 808.890625 "/>
    <path fill-rule="nonzero" fill="rgb(100%, 95.3125%, 76.171875%)" fill-opacity="1"
          d="M 1202.179688 768.96875 L 1234.121094 768.96875 L 1234.121094 756.984375 L 1202.179688 756.984375 Z M 1202.179688 768.96875 "/>
    <path fill-rule="nonzero" fill="rgb(3.529358%, 3.921509%, 3.529358%)" fill-opacity="1"
          d="M 1202.179688 804.898438 L 1234.121094 804.898438 L 1234.121094 768.960938 L 1202.179688 768.960938 Z M 1202.179688 804.898438 "/>
    <path fill-rule="nonzero" fill="rgb(100%, 95.3125%, 76.171875%)" fill-opacity="1"
          d="M 1162.230469 808.898438 L 1190.183594 808.898438 L 1190.183594 804.898438 L 1162.230469 804.898438 Z M 1162.230469 808.898438 "/>
    <path fill-rule="nonzero" fill="rgb(100%, 95.3125%, 76.171875%)" fill-opacity="1"
          d="M 1162.230469 768.96875 L 1190.183594 768.96875 L 1190.183594 756.984375 L 1162.230469 756.984375 Z M 1162.230469 768.96875 "/>
    <path fill-rule="nonzero" fill="rgb(3.529358%, 3.921509%, 3.529358%)" fill-opacity="1"
          d="M 1162.230469 804.898438 L 1190.183594 804.898438 L 1190.183594 768.960938 L 1162.230469 768.960938 Z M 1162.230469 804.898438 "/>
    <path fill-rule="nonzero" fill="rgb(0%, 25.097656%, 4.704285%)" fill-opacity="1"
          d="M 433.691406 1153.25 C 433.691406 1119.738281 460.863281 1092.570312 494.367188 1092.570312 C 527.871094 1092.570312 555.042969 1119.738281 555.042969 1153.25 C 555.042969 1186.75 527.871094 1213.929688 494.367188 1213.929688 C 460.863281 1213.929688 433.691406 1186.75 433.691406 1153.25 Z M 433.691406 1153.25 "/>
    <path fill-rule="nonzero" fill="rgb(100%, 76.951599%, 58.006287%)" fill-opacity="1"
          d="M 469.828125 1153.25 C 469.828125 1139.691406 480.832031 1128.710938 494.367188 1128.710938 C 507.925781 1128.710938 518.90625 1139.691406 518.90625 1153.25 C 518.90625 1166.78125 507.925781 1177.769531 494.367188 1177.769531 C 480.832031 1177.769531 469.828125 1166.78125 469.828125 1153.25 Z M 469.828125 1153.25 "/>
    <path fill-rule="nonzero" fill="rgb(0%, 25.097656%, 4.704285%)" fill-opacity="1"
          d="M 3903.550781 1979.386719 C 3903.550781 1945.90625 3930.730469 1918.734375 3964.238281 1918.734375 C 3997.730469 1918.734375 4024.898438 1945.90625 4024.898438 1979.386719 C 4024.898438 2012.894531 3997.730469 2040.066406 3964.238281 2040.066406 C 3930.730469 2040.066406 3903.550781 2012.894531 3903.550781 1979.386719 Z M 3903.550781 1979.386719 "/>
    <path fill-rule="nonzero" fill="rgb(100%, 76.951599%, 58.006287%)" fill-opacity="1"
          d="M 3939.691406 1979.386719 C 3939.691406 1965.847656 3950.671875 1954.867188 3964.21875 1954.867188 C 3977.761719 1954.867188 3988.75 1965.847656 3988.75 1979.386719 C 3988.75 1992.945312 3977.761719 2003.925781 3964.21875 2003.925781 C 3950.671875 2003.925781 3939.691406 1992.945312 3939.691406 1979.386719 Z M 3939.691406 1979.386719 "/>
</svg>
