<!-- icon666.com - MILLIONS OF FREE VECTOR ICONS -->
<svg clip-rule="evenodd" fill-rule="evenodd" image-rendering="optimizeQuality" shape-rendering="geometricPrecision"
     text-rendering="geometricPrecision" viewBox="0 0 1707 1707" xmlns="http://www.w3.org/2000/svg"
     xmlns:xlink="http://www.w3.org/1999/xlink">
    <linearGradient id="id0" gradientUnits="userSpaceOnUse" x1="232.161" x2="1475.25" y1="228.622" y2="1478.04">
        <stop offset="0" stop-color="#401379"></stop>
        <stop offset=".501961" stop-color="#8a0b92"></stop>
        <stop offset="1" stop-color="#ec067f"></stop>
    </linearGradient>
    <g id="Layer_x0020_1">
        <path d="m190 1376h-109c-15 0-9 31-9 60 0 5 4 9 9 9h1543c15 0 10-31 10-60 0-5-5-9-10-9zm1167-521c-42 0-94-12-195-43-25-8-13-46 12-38 236 71 192 34 362-2-48-36-109-80-143-109-19-16-19-16-60-16h-266c-85 6-128-100-178-171v104c0 10-6 18-15 20l-197 50-91 192c-9 18-28 8-53 11l-5 1c-98 7-257 46-263 46s-12-3-16-8l-127-161c-15 30-28 57-38 77-65 122-51 137-4 277 24 72 80 239 110 250h109l15-161c1-9 7-16 16-18 80-17 205-48 293-94 5-3 9-6 13-9l134-168c4-7 12-9 20-8 0 0 215 52 297 47 8-1 16 4 19 11l91 192 198 50c9 2 15 10 15 19v139h27c94-11 180-262 209-345 34-100 36-108-67-186-98 19-169 51-222 51zm237-90c2 1 3 2 4 3 122 92 125 118 86 233-44 127-99 267-169 334h109c58 0 50 65 50 101-1 27-23 49-50 49h-1543c-58 0-49-65-49-100 0-28 22-50 49-50h57c-43-65-81-196-117-297-56-162 18-212 75-345 0-1 1-2 2-3 73-153 162-317 245-317h459l15-79c2-8 8-14 16-16l288-56c5-1 9 0 13 2l250 133c6 3 10 9 11 15 21 121 47 259 58 287zm-1254 570h1030v-123l-192-49c-6-1-11-5-13-11l-89-188c-6 0-12 0-19 0l-75 75v130c0 26-40 26-40 0v-138c0-5 2-11 6-14l58-58c-82-10-179-32-213-40l-127 160 135 79c6 4 10 10 10 17v74c0 11-9 20-20 20-28 0-20-43-20-82l-141-83c-80 42-230 78-277 89zm906-729-36-136c-10-12-53-65-95-47-68 30-23 61-56 69-36 8-44-69 40-105 76-33 145 58 148 69l41 150c40 1 89-3 113 12-17-73-37-187-44-230l-235-125-268 52-13 65c102 39 138 233 223 227 13-1 100-1 182-1zm-761 212-58-58c-3-3-6-8-6-14v-138c0-26 40-26 40 0v130l76 75h18l89-188c3-6 8-10 14-11l191-49v-135c-13-10-28-17-44-17h-461c-62 3-142 156-203 279l132 166c34-8 131-30 212-40z"
              fill="url(#id0)"></path>
    </g>
</svg>