<?xml version="1.0" encoding="UTF-8"?>
<svg xmlns="http://www.w3.org/2000/svg" xmlns:xlink="http://www.w3.org/1999/xlink" width="2400" height="2400"
     viewBox="0 0 2400 2400">

    <path fill-rule="nonzero" fill="rgb(13.729858%, 12.159729%, 12.548828%)" fill-opacity="1"
          d="M 1596.398438 1200.03125 L 1596.398438 803.628906 L 1024.339844 803.628906 C 1032.710938 789.28125 1041.339844 774.628906 1050.179688 759.730469 L 1640.300781 759.730469 L 1640.300781 1200.03125 L 1596.398438 1200.03125 "/>
    <path fill-rule="nonzero" fill="rgb(13.729858%, 12.159729%, 12.548828%)" fill-opacity="1"
          d="M 1640.300781 1640.328125 L 759.699219 1640.328125 L 759.699219 1200.03125 L 803.601562 1200.03125 L 803.601562 1596.421875 L 1596.398438 1596.421875 L 1640.300781 1640.328125 "/>
    <path fill-rule="nonzero" fill="rgb(13.729858%, 12.159729%, 12.548828%)" fill-opacity="1"
          d="M 1640.300781 1377.46875 L 1341.421875 1377.46875 L 1341.421875 1421.375 L 1563.191406 1421.375 L 1563.191406 1465.277344 L 1297.511719 1465.277344 L 1297.511719 1333.558594 L 1596.398438 1333.558594 L 1596.398438 1289.660156 L 1253.609375 1289.660156 L 1253.609375 1596.421875 L 1596.398438 1596.421875 L 1596.398438 1552.519531 L 1297.511719 1552.519531 L 1297.511719 1508.617188 L 1640.300781 1508.617188 L 1640.300781 1640.328125 L 1209.710938 1640.328125 L 1209.710938 1245.75 L 1640.300781 1245.75 L 1640.300781 1377.46875 "/>
    <path fill-rule="nonzero" fill="rgb(13.729858%, 12.159729%, 12.548828%)" fill-opacity="1"
          d="M 1040.671875 1154.25 L 989.628906 1065.878906 L 891.410156 1065.878906 L 891.410156 1154.25 L 759.699219 1154.25 L 759.699219 934.730469 L 1081.660156 935.289062 C 1090.671875 935.289062 1099.199219 933.511719 1107.269531 929.941406 C 1115.339844 926.378906 1122.378906 921.691406 1128.378906 915.878906 C 1134.378906 910.058594 1139.078125 903.109375 1142.449219 895.050781 C 1145.828125 886.980469 1147.519531 878.441406 1147.519531 869.429688 C 1147.519531 860.429688 1145.828125 851.890625 1142.449219 843.820312 C 1139.078125 835.761719 1134.378906 828.71875 1128.378906 822.71875 C 1122.378906 816.710938 1115.339844 812.019531 1107.269531 808.640625 C 1099.199219 805.269531 1090.671875 803.578125 1081.660156 803.578125 L 803.601562 803.578125 L 803.601562 847.480469 L 1081.660156 847.480469 C 1087.671875 847.859375 1092.640625 850.109375 1096.578125 854.238281 C 1100.519531 858.359375 1102.488281 863.429688 1102.488281 869.429688 C 1102.488281 875.441406 1100.519531 880.511719 1096.578125 884.640625 C 1092.640625 888.761719 1087.671875 891.011719 1081.660156 891.390625 L 759.699219 891.390625 L 759.699219 759.671875 L 1081.660156 759.671875 C 1096.671875 759.671875 1110.929688 762.578125 1124.441406 768.398438 C 1137.949219 774.21875 1149.578125 782 1159.339844 791.761719 C 1169.089844 801.519531 1176.878906 813.148438 1182.691406 826.660156 C 1188.511719 840.171875 1191.421875 854.429688 1191.421875 869.429688 C 1191.421875 884.441406 1188.511719 898.609375 1182.691406 911.929688 C 1176.878906 925.261719 1169.089844 936.878906 1159.339844 946.828125 C 1149.578125 956.769531 1137.949219 964.648438 1124.441406 970.46875 C 1110.929688 976.289062 1096.671875 979.199219 1081.660156 979.199219 L 803.601562 978.628906 L 803.601562 1110.339844 L 847.507812 1110.339844 L 847.507812 1021.96875 L 1014.679688 1021.96875 C 1019.179688 1030.230469 1024.25 1039.140625 1029.878906 1048.710938 C 1035.511719 1058.28125 1040.851562 1067.46875 1045.921875 1076.289062 C 1050.980469 1085.109375 1055.390625 1092.609375 1059.148438 1098.800781 C 1062.898438 1105 1065.148438 1108.839844 1065.898438 1110.339844 L 1116.558594 1110.339844 C 1115.441406 1108.839844 1113.089844 1105.089844 1109.53125 1099.089844 C 1105.960938 1093.089844 1101.828125 1085.859375 1097.140625 1077.421875 C 1092.449219 1068.96875 1087.289062 1059.871094 1081.660156 1050.121094 C 1076.03125 1040.359375 1070.589844 1030.980469 1065.339844 1021.96875 L 1115.988281 1021.96875 C 1125.378906 1038.109375 1134.570312 1054.058594 1143.578125 1069.820312 C 1152.589844 1085.578125 1160.839844 1099.648438 1168.339844 1112.03125 L 1192.550781 1154.25 L 1040.671875 1154.25 "/>
</svg>
