<?xml version="1.0" encoding="utf-8"?>
<!-- Generator: Adobe Illustrator 19.0.0, SVG Export Plug-In . SVG Version: 6.00 Build 0)  -->
<svg xmlns="http://www.w3.org/2000/svg" xmlns:xlink="http://www.w3.org/1999/xlink" version="1.1" id="Layer_1" x="0px"
     y="0px" viewBox="0 0 1400 980" style="enable-background:new 0 0 1400 980;" xml:space="preserve">
<style type="text/css">
	.st0{fill:#FFFFFF;}
	.st1{enable-background:new    ;}
	.st2{fill:#6D6E71;}
	.st3{fill:#594A42;}
	.st4{fill:#D1D3D4;}
	.st5{fill:#BCBEC0;}
	.st6{fill:#A7A9AC;}
	.st7{fill:#939598;}
	.st8{fill:#868687;}
	.st9{fill:#818181;}
	.st10{fill:#929292;}
	.st11{fill:#8D8D8D;}
</style>
    <g>
	
	<g>
		<g>
			<g>
				<g class="st1">
					<g>
						<g>
							<polygon class="st2" points="664.6,665.6 534.2,589.8 566.5,571.1 696.9,646.9        "/>
                            <path class="st3"
                                  d="M664.6,669.1c-0.6,0-1.2-0.2-1.8-0.5l-130.4-75.8c-1.1-0.6-1.7-1.8-1.7-3c0-1.2,0.7-2.4,1.8-3l32.3-18.7         c1.1-0.6,2.4-0.6,3.5,0l130.4,75.8c1.1,0.6,1.7,1.8,1.7,3c0,1.2-0.7,2.4-1.8,3l-32.3,18.7         C665.8,668.9,665.2,669.1,664.6,669.1z M541.2,589.8l123.4,71.7l25.3-14.6l-123.4-71.7L541.2,589.8z"/>
						</g>
					</g>
                    <g>
						<g>
							<polygon class="st2" points="573,744.2 442.7,668.4 442.6,637.2 573,713        "/>
                            <path class="st3"
                                  d="M573.1,747.7C573.1,747.7,573.1,747.7,573.1,747.7c-0.6,0-1.2-0.2-1.8-0.5l-130.4-75.8         c-1.1-0.6-1.7-1.8-1.7-3l-0.1-31.3c0-1.3,0.7-2.4,1.8-3c1.1-0.6,2.4-0.6,3.5,0l130.4,75.8c1.1,0.6,1.7,1.8,1.7,3l0.1,30.9         c0,0.1,0,0.3,0,0.4C576.6,746.2,575,747.7,573.1,747.7z M446.2,666.4l123.4,71.7l-0.1-23.1l-123.4-71.7L446.2,666.4z"/>
						</g>
					</g>
                    <g>
						<g>
							<polygon class="st4" points="545.2,760.3 414.9,684.5 442.7,668.4 573,744.2        "/>
                            <path class="st3"
                                  d="M545.2,763.8c-0.6,0-1.2-0.2-1.8-0.5l-130.4-75.8c-1.1-0.6-1.7-1.8-1.7-3c0-1.2,0.7-2.4,1.8-3l27.8-16         c1.1-0.6,2.4-0.6,3.5,0l130.4,75.8c1.1,0.6,1.7,1.8,1.7,3c0,1.2-0.7,2.4-1.8,3l-27.8,16C546.5,763.6,545.8,763.8,545.2,763.8         z M421.8,684.5l123.4,71.7l20.8-12l-123.4-71.7L421.8,684.5z"/>
						</g>
					</g>
                    <g>
						<g>
							<polygon class="st5" points="545.3,780.5 414.9,704.7 414.9,684.5 545.2,760.3        "/>
                            <path class="st3"
                                  d="M545.3,784C545.3,784,545.3,784,545.3,784c-0.6,0-1.2-0.2-1.8-0.5l-130.4-75.8c-1.1-0.6-1.7-1.8-1.7-3         l-0.1-20.2c0-1.3,0.7-2.4,1.8-3c1.1-0.6,2.4-0.6,3.5,0L547,757.2c1.1,0.6,1.7,1.8,1.7,3l0.1,19.9c0,0.1,0,0.3,0,0.4         C548.8,782.4,547.3,784,545.3,784z M418.4,702.7l123.4,71.7l0-12.1l-123.4-71.7L418.4,702.7z"/>
						</g>
					</g>
                    <g>
						<g>
							<polygon class="st6"
                                     points="664.5,639.8 664.6,665.6 696.9,646.9 697,667.1 664.6,685.8 664.7,711.6 636.9,727.6          573.1,764.5 545.3,780.5 545.2,760.3 573,744.2 573,713 545.2,729 545.1,708.8 572.9,692.7 636.7,655.9        "/>
                            <path class="st3"
                                  d="M545.3,784c-0.6,0-1.2-0.2-1.7-0.5c-1.1-0.6-1.8-1.8-1.8-3l-0.1-20.2c0-1.3,0.7-2.4,1.8-3l26-15         l-0.1-23.2l-22.6,13c-1.1,0.6-2.4,0.6-3.5,0c-1.1-0.6-1.8-1.8-1.8-3l-0.1-20.2c0-1.3,0.7-2.4,1.8-3l119.4-68.9         c1.1-0.6,2.4-0.6,3.5,0c1.1,0.6,1.8,1.8,1.8,3l0.1,19.7l27.1-15.6c1.1-0.6,2.4-0.6,3.5,0c1.1,0.6,1.8,1.8,1.8,3l0.1,20.2         c0,1.3-0.7,2.4-1.8,3l-30.6,17.7l0.1,23.7c0,1.3-0.7,2.4-1.8,3l-119.4,68.9C546.5,783.9,545.9,784,545.3,784z M548.8,762.3         l0,12.2l112.4-64.9l-0.1-23.7c0-1.3,0.7-2.4,1.8-3l30.6-17.7l0-12.2l-27.1,15.6c-1.1,0.6-2.4,0.6-3.5,0         c-1.1-0.6-1.8-1.8-1.8-3l-0.1-19.7l-112.4,64.9l0,12.2l22.6-13c1.1-0.6,2.4-0.6,3.5,0c1.1,0.6,1.8,1.8,1.8,3l0.1,31.3         c0,1.3-0.7,2.4-1.8,3L548.8,762.3z"/>
						</g>
					</g>
                    <g>
						<g>
							<polygon class="st5" points="545.2,729 414.8,653.2 414.7,633 545.1,708.8        "/>
                            <path class="st3"
                                  d="M545.2,732.5C545.2,732.5,545.2,732.5,545.2,732.5c-0.6,0-1.2-0.2-1.8-0.5L413,656.3         c-1.1-0.6-1.7-1.8-1.7-3l-0.1-20.2c0-1.3,0.7-2.4,1.8-3c1.1-0.6,2.4-0.6,3.5,0l130.4,75.8c1.1,0.6,1.7,1.8,1.7,3l0.1,19.9         c0,0.1,0,0.3,0,0.4C548.7,731,547.1,732.5,545.2,732.5z M418.3,651.2l123.4,71.7l0-12.1l-123.4-71.7L418.3,651.2z"/>
						</g>
					</g>
                    <g>
						<polygon class="st4"
                                 points="534.1,564.1 506.3,580.1 442.5,617 414.7,633 545.1,708.8 572.9,692.7 636.7,655.9 664.5,639.8               "/>
                        <path class="st3"
                              d="M545.1,712.3c-0.6,0-1.2-0.2-1.8-0.5L413,636c-1.1-0.6-1.7-1.8-1.7-3c0-1.2,0.7-2.4,1.8-3L532.4,561        c1.1-0.6,2.4-0.6,3.5,0l130.4,75.8c1.1,0.6,1.7,1.8,1.7,3c0,1.2-0.7,2.4-1.8,3l-119.4,68.9        C546.3,712.1,545.7,712.3,545.1,712.3z M421.7,633l123.4,71.7l112.4-64.9l-123.4-71.7L421.7,633z"/>
					</g>
				</g>
			</g>
            <g>
				<g class="st1">
					<g>
						<g>
							<polygon class="st2" points="1288.6,745.3 1139.2,658.4 1176.6,636.8 1326,723.7        "/>
                            <path class="st3"
                                  d="M1288.6,748.8c-0.6,0-1.2-0.2-1.8-0.5l-149.4-86.8c-1.1-0.6-1.7-1.8-1.7-3c0-1.2,0.7-2.4,1.8-3         l37.4-21.6c1.1-0.6,2.4-0.6,3.5,0l149.4,86.8c1.1,0.6,1.7,1.8,1.7,3c0,1.2-0.7,2.4-1.8,3l-37.4,21.6         C1289.8,748.6,1289.2,748.8,1288.6,748.8z M1146.2,658.4l142.4,82.8l30.4-17.6l-142.4-82.8L1146.2,658.4z"/>
						</g>
					</g>
                    <g>
						<g>
							<polygon class="st7" points="1326,723.7 1176.6,636.8 1184.5,562.3 1334,649.1        "/>
                            <path class="st3"
                                  d="M1326,727.2c-0.6,0-1.2-0.2-1.8-0.5l-149.4-86.8c-1.2-0.7-1.9-2-1.7-3.4l7.9-74.5         c0.1-1.2,0.8-2.2,1.9-2.8c1.1-0.5,2.3-0.5,3.3,0.1l149.4,86.8c1.2,0.7,1.9,2,1.7,3.4l-7.9,74.5c-0.1,1.2-0.8,2.2-1.9,2.8         C1327.1,727.1,1326.6,727.2,1326,727.2z M1180.3,635l142.8,83l7.1-66.9l-142.8-83L1180.3,635z"/>
						</g>
					</g>
                    <g>
						<g>
							<polygon class="st4" points="1334,649.1 1184.5,562.3 1200.2,553.3 1349.6,640.1        "/>
                            <path class="st3"
                                  d="M1334,652.6c-0.6,0-1.2-0.2-1.8-0.5l-149.4-86.8c-1.1-0.6-1.7-1.8-1.7-3c0-1.2,0.7-2.4,1.8-3l15.6-9         c1.1-0.6,2.4-0.6,3.5,0l149.4,86.8c1.1,0.6,1.7,1.8,1.7,3c0,1.2-0.7,2.4-1.8,3l-15.6,9C1335.2,652.5,1334.6,652.6,1334,652.6         z M1191.5,562.3l142.4,82.8l8.6-5l-142.4-82.8L1191.5,562.3z"/>
						</g>
					</g>
                    <g>
						<g>
							<polygon class="st6"
                                     points="1349.6,640.1 1349.8,731.4 1264.9,780.4 1264.7,689.1 1280.3,680.1 1288.6,745.3 1326,723.7          1334,649.1        "/>
                            <path class="st3"
                                  d="M1264.9,783.9c-0.6,0-1.2-0.2-1.7-0.5c-1.1-0.6-1.8-1.8-1.8-3l-0.3-91.3c0-1.3,0.7-2.4,1.8-3l15.6-9         c1-0.6,2.3-0.6,3.3-0.1c1,0.5,1.8,1.5,1.9,2.7l7.7,59.9l31.3-18.1l7.7-72.8c0.1-1.1,0.8-2.1,1.7-2.7l15.6-9         c1.1-0.6,2.4-0.6,3.5,0c1.1,0.6,1.8,1.8,1.8,3l0.3,91.3c0,1.3-0.7,2.4-1.8,3l-84.9,49         C1266.2,783.8,1265.5,783.9,1264.9,783.9z M1268.2,691.2l0.2,83.2l77.9-45l-0.2-83.2l-8.8,5.1l-7.7,72.8         c-0.1,1.1-0.8,2.1-1.7,2.7l-37.4,21.6c-1,0.6-2.3,0.6-3.3,0.1c-1-0.5-1.8-1.5-1.9-2.7l-7.7-59.9L1268.2,691.2z"/>
						</g>
					</g>
                    <g>
						<g>
							<polygon class="st5" points="1264.9,780.4 1115.5,693.6 1115.3,602.3 1264.7,689.1        "/>
                            <path class="st3"
                                  d="M1265,783.9C1265,783.9,1265,783.9,1265,783.9c-0.6,0-1.2-0.2-1.8-0.5l-149.4-86.8         c-1.1-0.6-1.7-1.8-1.7-3l-0.3-91.3c0-1.3,0.7-2.4,1.8-3c1.1-0.6,2.4-0.6,3.5,0l149.4,86.8c1.1,0.6,1.7,1.8,1.7,3l0.3,90.9         c0,0.1,0,0.3,0,0.4C1268.5,782.4,1266.9,783.9,1265,783.9z M1119,691.6l142.4,82.8l-0.2-83.2l-142.4-82.8L1119,691.6z"/>
						</g>
					</g>
                    <g>
						<g>
							<polygon class="st4" points="1264.7,689.1 1115.3,602.3 1130.9,593.3 1280.3,680.1        "/>
                            <path class="st3"
                                  d="M1264.7,692.6c-0.6,0-1.2-0.2-1.8-0.5l-149.4-86.8c-1.1-0.6-1.7-1.8-1.7-3c0-1.2,0.7-2.4,1.8-3l15.6-9         c1.1-0.6,2.4-0.6,3.5,0l149.4,86.8c1.1,0.6,1.7,1.8,1.7,3c0,1.2-0.7,2.4-1.8,3l-15.6,9         C1265.9,692.5,1265.3,692.6,1264.7,692.6z M1122.3,602.3l142.4,82.8l8.6-5l-142.4-82.8L1122.3,602.3z"/>
						</g>
					</g>
				</g>
			</g>
            <g>
				<g>
					<g class="st1">
						<g>
							<g>
								<polygon class="st8" points="303.3,733.8 99,615.1 133.1,595.4 337.4,714.1         "/>
                                <path class="st3"
                                      d="M303.3,737.3c-0.6,0-1.2-0.2-1.8-0.5L97.2,618.1c-1.1-0.6-1.7-1.8-1.7-3c0-1.2,0.7-2.4,1.8-3l34.1-19.7          c1.1-0.6,2.4-0.6,3.5,0l204.3,118.7c1.1,0.6,1.7,1.8,1.7,3c0,1.2-0.7,2.4-1.8,3l-34.1,19.7          C304.5,737.2,303.9,737.3,303.3,737.3z M106,615.1l197.3,114.7l27.1-15.7L133.1,599.4L106,615.1z"/>
							</g>
						</g>
                        <g>
							<g>
								<polygon class="st2" points="337.4,714.1 133.1,595.4 133,556.2 337.3,675         "/>
                                <path class="st3"
                                      d="M337.4,717.6C337.4,717.6,337.4,717.6,337.4,717.6c-0.6,0-1.2-0.2-1.8-0.5L131.3,598.4          c-1.1-0.6-1.7-1.8-1.7-3l-0.1-39.2c0-1.3,0.7-2.4,1.8-3c1.1-0.6,2.4-0.6,3.5,0l204.3,118.7c1.1,0.6,1.7,1.8,1.7,3l0.1,38.8          c0,0.1,0,0.3,0,0.4C340.9,716.1,339.4,717.6,337.4,717.6z M136.6,593.4l197.3,114.7l-0.1-31.1L136.5,562.3L136.6,593.4z"/>
							</g>
						</g>
                        <g>
							<g>
								<path class="st6"
                                      d="M293,688.8l54.4-31.4l0.2,62.5l-54.4,31.4L293,688.8z M337.4,714.1l-0.1-39.2l-34.1,19.7l0.1,39.2          L337.4,714.1"/>
                                <path class="st3"
                                      d="M293.2,754.9c-0.6,0-1.2-0.2-1.7-0.5c-1.1-0.6-1.8-1.8-1.8-3l-0.2-62.5c0-1.3,0.7-2.4,1.8-3l54.4-31.4          c1.1-0.6,2.4-0.6,3.5,0c1.1,0.6,1.8,1.8,1.8,3l0.2,62.5c0,1.3-0.7,2.4-1.8,3l-54.4,31.4          C294.4,754.7,293.8,754.9,293.2,754.9z M296.5,690.9l0.2,54.5l47.4-27.4l-0.2-54.5L296.5,690.9z M303.3,737.3          c-0.6,0-1.2-0.2-1.7-0.5c-1.1-0.6-1.8-1.8-1.8-3l-0.1-39.2c0-1.3,0.7-2.4,1.8-3l34.1-19.7c1.1-0.6,2.4-0.6,3.5,0          c1.1,0.6,1.8,1.8,1.8,3l0.1,39.2c0,1.3-0.7,2.4-1.8,3l-34.1,19.7C304.5,737.2,303.9,737.3,303.3,737.3z M306.7,696.7          l0.1,31.1l27.1-15.7l-0.1-31.1L306.7,696.7z"/>
							</g>
						</g>
                        <g>
							<g>
								<polygon class="st2" points="293,688.8 88.7,570.1 143.1,538.7 347.4,657.4         "/>
                                <path class="st3"
                                      d="M293,692.3c-0.6,0-1.2-0.2-1.8-0.5L86.9,573.1c-1.1-0.6-1.7-1.8-1.7-3c0-1.2,0.7-2.4,1.8-3l54.4-31.4          c1.1-0.6,2.4-0.6,3.5,0l204.3,118.7c1.1,0.6,1.7,1.8,1.7,3c0,1.2-0.7,2.4-1.8,3l-54.4,31.4          C294.2,692.2,293.6,692.3,293,692.3z M95.7,570.1L293,684.8l47.4-27.4L143.1,542.7L95.7,570.1z"/>
							</g>
						</g>
                        <g>
							<g>
								<polygon class="st9" points="293.2,751.4 88.9,632.6 88.7,570.1 293,688.8         "/>
                                <path class="st3"
                                      d="M293.2,754.9C293.2,754.9,293.2,754.9,293.2,754.9c-0.6,0-1.2-0.2-1.8-0.5L87.1,635.7          c-1.1-0.6-1.7-1.8-1.7-3l-0.2-62.5c0-1.3,0.7-2.4,1.8-3c1.1-0.6,2.4-0.6,3.5,0l204.3,118.7c1.1,0.6,1.7,1.8,1.7,3l0.2,62.2          c0,0.1,0,0.3,0,0.4C296.7,753.3,295.1,754.9,293.2,754.9z M92.4,630.6l197.3,114.7l-0.2-54.4L92.2,576.2L92.4,630.6z"/>
							</g>
						</g>
					</g>
				</g>
                <g>
					<g class="st1">
						<g>
							<g>
								<polygon class="st8" points="248.8,765.5 44.5,646.8 78.6,627.1 282.9,745.8         "/>
                                <path class="st3"
                                      d="M248.8,769c-0.6,0-1.2-0.2-1.8-0.5L42.7,649.8c-1.1-0.6-1.7-1.8-1.7-3c0-1.2,0.7-2.4,1.8-3l34.1-19.7          c1.1-0.6,2.4-0.6,3.5,0l204.3,118.7c1.1,0.6,1.7,1.8,1.7,3c0,1.2-0.7,2.4-1.8,3l-34.1,19.7C250,768.9,249.4,769,248.8,769z           M51.5,646.8l197.3,114.7l27.1-15.7L78.6,631.1L51.5,646.8z"/>
							</g>
						</g>
                        <g>
							<g>
								<polygon class="st2" points="282.9,745.8 78.6,627.1 78.5,587.9 282.8,706.7         "/>
                                <path class="st3"
                                      d="M282.9,749.3C282.9,749.3,282.9,749.3,282.9,749.3c-0.6,0-1.2-0.2-1.8-0.5L76.8,630.1          c-1.1-0.6-1.7-1.8-1.7-3L75,587.9c0-1.3,0.7-2.4,1.8-3c1.1-0.6,2.4-0.6,3.5,0l204.3,118.7c1.1,0.6,1.7,1.8,1.7,3l0.1,38.8          c0,0.1,0,0.3,0,0.4C286.4,747.8,284.8,749.3,282.9,749.3z M82.1,625.1l197.3,114.7l-0.1-31.1L82,594L82.1,625.1z"/>
							</g>
						</g>
                        <g>
							<g>
								<path class="st6"
                                      d="M238.5,720.5l54.4-31.4l0.2,62.5l-54.4,31.4L238.5,720.5z M282.9,745.8l-0.1-39.2l-34.1,19.7l0.1,39.2          L282.9,745.8"/>
                                <path class="st3"
                                      d="M238.7,786.6c-0.6,0-1.2-0.2-1.7-0.5c-1.1-0.6-1.8-1.8-1.8-3l-0.2-62.5c0-1.3,0.7-2.4,1.8-3l54.4-31.4          c1.1-0.6,2.4-0.6,3.5,0c1.1,0.6,1.8,1.8,1.8,3l0.2,62.5c0,1.3-0.7,2.4-1.8,3l-54.4,31.4          C239.9,786.4,239.3,786.6,238.7,786.6z M242,722.5l0.2,54.5l47.4-27.4l-0.2-54.5L242,722.5z M248.8,769          c-0.6,0-1.2-0.2-1.7-0.5c-1.1-0.6-1.8-1.8-1.8-3l-0.1-39.2c0-1.3,0.7-2.4,1.8-3l34.1-19.7c1.1-0.6,2.4-0.6,3.5,0          c1.1,0.6,1.8,1.8,1.8,3l0.1,39.2c0,1.3-0.7,2.4-1.8,3l-34.1,19.7C250,768.9,249.4,769,248.8,769z M252.2,728.4l0.1,31.1          l27.1-15.7l-0.1-31.1L252.2,728.4z"/>
							</g>
						</g>
                        <g>
							<g>
								<polygon class="st4" points="238.5,720.5 34.2,601.8 88.6,570.4 292.9,689.1         "/>
                                <path class="st3"
                                      d="M238.5,724c-0.6,0-1.2-0.2-1.8-0.5L32.4,604.8c-1.1-0.6-1.7-1.8-1.7-3c0-1.2,0.7-2.4,1.8-3l54.4-31.4          c1.1-0.6,2.4-0.6,3.5,0l204.3,118.7c1.1,0.6,1.7,1.8,1.7,3c0,1.2-0.7,2.4-1.8,3l-54.4,31.4C239.7,723.9,239.1,724,238.5,724          z M41.1,601.8l197.3,114.7l47.4-27.4L88.6,574.4L41.1,601.8z"/>
							</g>
						</g>
                        <g>
							<g>
								<polygon class="st5" points="238.7,783.1 34.3,664.3 34.2,601.8 238.5,720.5         "/>
                                <path class="st3"
                                      d="M238.7,786.6C238.7,786.6,238.7,786.6,238.7,786.6c-0.6,0-1.2-0.2-1.8-0.5L32.6,667.4          c-1.1-0.6-1.7-1.8-1.7-3l-0.2-62.5c0-1.3,0.7-2.4,1.8-3c1.1-0.6,2.4-0.6,3.5,0l204.3,118.7c1.1,0.6,1.7,1.8,1.7,3l0.2,62.2          c0,0.1,0,0.3,0,0.4C242.2,785,240.6,786.6,238.7,786.6z M37.8,662.3L235.1,777l-0.2-54.4L37.7,607.9L37.8,662.3z"/>
							</g>
						</g>
					</g>
				</g>
                <g>
					<g class="st1">
						<g>
							<g>
								<polygon class="st8" points="275.3,687.5 71,568.8 105.1,549.1 309.4,667.8         "/>
                                <path class="st3"
                                      d="M275.3,691c-0.6,0-1.2-0.2-1.8-0.5L69.2,571.8c-1.1-0.6-1.7-1.8-1.7-3c0-1.2,0.7-2.4,1.8-3l34.1-19.7          c1.1-0.6,2.4-0.6,3.5,0l204.3,118.7c1.1,0.6,1.7,1.8,1.7,3c0,1.2-0.7,2.4-1.8,3l-34.1,19.7C276.5,690.9,275.9,691,275.3,691          z M78,568.8l197.3,114.7l27.1-15.7L105.1,553.1L78,568.8z"/>
							</g>
						</g>
                        <g>
							<g>
								<polygon class="st2" points="309.4,667.8 105.1,549.1 105,509.9 309.3,628.7         "/>
                                <path class="st3"
                                      d="M309.4,671.3C309.4,671.3,309.4,671.3,309.4,671.3c-0.6,0-1.2-0.2-1.8-0.5L103.3,552.1          c-1.1-0.6-1.7-1.8-1.7-3l-0.1-39.2c0-1.3,0.7-2.4,1.8-3c1.1-0.6,2.4-0.6,3.5,0l204.3,118.7c1.1,0.6,1.7,1.8,1.7,3l0.1,38.8          c0,0.1,0,0.3,0,0.4C312.9,669.8,311.4,671.3,309.4,671.3z M108.6,547.1l197.3,114.7l-0.1-31.1L108.5,516L108.6,547.1z"/>
							</g>
						</g>
                        <g>
							<g>
								<path class="st6"
                                      d="M265,642.5l54.4-31.4l0.2,62.5l-54.4,31.4L265,642.5z M309.4,667.8l-0.1-39.2l-34.1,19.7l0.1,39.2          L309.4,667.8"/>
                                <path class="st3"
                                      d="M265.2,708.6c-0.6,0-1.2-0.2-1.7-0.5c-1.1-0.6-1.8-1.8-1.8-3l-0.2-62.5c0-1.3,0.7-2.4,1.8-3l54.4-31.4          c1.1-0.6,2.4-0.6,3.5,0c1.1,0.6,1.8,1.8,1.8,3l0.2,62.5c0,1.3-0.7,2.4-1.8,3l-54.4,31.4          C266.4,708.4,265.8,708.6,265.2,708.6z M268.5,644.5l0.2,54.5l47.4-27.4l-0.2-54.5L268.5,644.5z M275.3,691          c-0.6,0-1.2-0.2-1.7-0.5c-1.1-0.6-1.8-1.8-1.8-3l-0.1-39.2c0-1.3,0.7-2.4,1.8-3l34.1-19.7c1.1-0.6,2.4-0.6,3.5,0          c1.1,0.6,1.8,1.8,1.8,3l0.1,39.2c0,1.3-0.7,2.4-1.8,3l-34.1,19.7C276.5,690.9,275.9,691,275.3,691z M278.7,650.4l0.1,31.1          l27.1-15.7l-0.1-31.1L278.7,650.4z"/>
							</g>
						</g>
                        <g>
							<g>
								<polygon class="st4" points="265,642.5 60.7,523.8 115.1,492.4 319.4,611.1         "/>
                                <path class="st3"
                                      d="M265,646c-0.6,0-1.2-0.2-1.8-0.5L58.9,526.8c-1.1-0.6-1.7-1.8-1.7-3c0-1.2,0.7-2.4,1.8-3l54.4-31.4          c1.1-0.6,2.4-0.6,3.5,0l204.3,118.7c1.1,0.6,1.7,1.8,1.7,3c0,1.2-0.7,2.4-1.8,3l-54.4,31.4C266.2,645.9,265.6,646,265,646z           M67.7,523.8L265,638.5l47.4-27.4L115.1,496.4L67.7,523.8z"/>
							</g>
						</g>
                        <g>
							<g>
								<polygon class="st5" points="265.2,705.1 60.9,586.3 60.7,523.8 265,642.5         "/>
                                <path class="st3"
                                      d="M265.2,708.6C265.2,708.6,265.2,708.6,265.2,708.6c-0.6,0-1.2-0.2-1.8-0.5L59.1,589.4          c-1.1-0.6-1.7-1.8-1.7-3l-0.2-62.5c0-1.3,0.7-2.4,1.8-3c1.1-0.6,2.4-0.6,3.5,0l204.3,118.7c1.1,0.6,1.7,1.8,1.7,3l0.2,62.2          c0,0.1,0,0.3,0,0.4C268.7,707,267.1,708.6,265.2,708.6z M64.4,584.3L261.7,699l-0.2-54.4L64.2,529.9L64.4,584.3z"/>
							</g>
						</g>
					</g>
				</g>
			</g>
            <g>
				<g class="st1">
					<g>
						<g>
							<polygon class="st2" points="1041.1,695.4 879.7,601.6 875.4,582.2 1036.8,676        "/>
                            <path class="st3"
                                  d="M1041.1,698.9c-0.6,0-1.2-0.2-1.8-0.5l-161.4-93.8c-0.8-0.5-1.4-1.3-1.7-2.3l-4.3-19.4         c-0.3-1.4,0.2-2.8,1.4-3.6c1.1-0.8,2.6-0.9,3.8-0.2l161.4,93.8c0.8,0.5,1.4,1.3,1.7,2.3l4.2,19c0.1,0.4,0.2,0.7,0.2,1.1         C1044.6,697.3,1043,698.9,1041.1,698.9C1041.1,698.9,1041.1,698.9,1041.1,698.9z M882.8,599.3l153.2,89l-2.2-10.1l-153.2-89         L882.8,599.3z"/>
						</g>
					</g>
                    <g>
						<polygon class="st5"
                                 points="916.9,745.2 916.8,723 755.4,629.3 755.5,651.4 755.5,673.3 916.9,767.1       "/>
                        <path class="st3"
                              d="M916.9,770.6c-0.6,0-1.2-0.2-1.8-0.5l-161.4-93.8c-1.1-0.6-1.7-1.8-1.7-3l-0.1-44c0-1.3,0.7-2.4,1.8-3        c1.1-0.6,2.4-0.6,3.5,0L918.6,720c1.1,0.6,1.7,1.8,1.7,3l0.1,44c0,1.3-0.7,2.4-1.8,3C918.1,770.4,917.5,770.6,916.9,770.6z         M759,671.3L913.4,761l-0.1-35.9l-154.4-89.7L759,671.3z"/>
					</g>
                    <g>
						<g>
							<polygon class="st6"
                                     points="1058,641.5 1058,663.7 1058.1,685.6 1041.1,695.4 1036.8,676 938.1,733 933.9,757.2          916.9,767.1 916.9,745.2 916.8,723 942.3,708.3 1032.5,656.3        "/>
                            <path class="st3"
                                  d="M916.9,770.6c-0.6,0-1.2-0.2-1.7-0.5c-1.1-0.6-1.8-1.8-1.8-3l-0.1-44c0-1.3,0.7-2.4,1.8-3l141.2-81.5         c1.1-0.6,2.4-0.6,3.5,0c1.1,0.6,1.8,1.8,1.8,3l0.1,44c0,1.3-0.7,2.4-1.8,3l-17,9.8c-1,0.6-2.1,0.6-3.2,0.2         c-1-0.5-1.8-1.4-2-2.5l-3.2-14.7l-93.1,53.8l-3.9,22.7c-0.2,1-0.8,1.9-1.7,2.4l-17,9.8C918.1,770.4,917.5,770.6,916.9,770.6z          M920.3,725.1l0.1,35.9l10.4-6l3.9-22.7c0.2-1,0.8-1.9,1.7-2.4l98.7-57c1-0.6,2.1-0.6,3.2-0.2c1,0.5,1.8,1.4,2,2.5l3.2,14.7         l11.1-6.4l-0.1-35.9L920.3,725.1z"/>
						</g>
					</g>
                    <g>
						<polygon class="st4"
                                 points="896.6,547.7 871.1,562.5 780.9,614.5 755.4,629.3 916.8,723 942.3,708.3 1032.5,656.3         1058,641.5       "/>
                        <path class="st3"
                              d="M916.8,726.5c-0.6,0-1.2-0.2-1.8-0.5l-161.4-93.8c-1.1-0.6-1.7-1.8-1.7-3c0-1.2,0.7-2.4,1.8-3l141.2-81.5        c1.1-0.6,2.4-0.6,3.5,0l161.4,93.8c1.1,0.6,1.7,1.8,1.7,3c0,1.2-0.7,2.4-1.8,3l-141.2,81.5C918,726.4,917.4,726.5,916.8,726.5        z M762.4,629.3L916.8,719l134.2-77.5l-154.4-89.7L762.4,629.3z"/>
					</g>
				</g>
			</g>
		</g>
        <g>
			<g>
				<g class="st1">
					<g>
						<g>
							<polygon class="st9" points="810.9,244 810.6,337.7 794.1,328.2 794.4,234.5        "/>
                            <path class="st3"
                                  d="M810.6,341.2c-0.6,0-1.2-0.2-1.8-0.5l-16.5-9.5c-1.1-0.6-1.8-1.8-1.8-3l0.3-93.7c0-1.2,0.7-2.4,1.8-3         c1.1-0.6,2.4-0.6,3.5,0l16.5,9.5c1.1,0.6,1.8,1.8,1.8,3l-0.3,93.7c0,1.2-0.7,2.4-1.8,3C811.8,341.1,811.2,341.2,810.6,341.2z          M797.6,326.2l9.5,5.5l0.2-85.7l-9.5-5.5L797.6,326.2z"/>
						</g>
					</g>
                    <g>
						<g>
							<polygon class="st6" points="993.1,288.5 992.9,382.3 969.8,395.7 970.1,301.9        "/>
                            <path class="st3"
                                  d="M969.8,399.2c-0.6,0-1.2-0.2-1.8-0.5c-1.1-0.6-1.8-1.8-1.8-3l0.3-93.7c0-1.2,0.7-2.4,1.7-3l23-13.4         c1.1-0.6,2.4-0.6,3.5,0c1.1,0.6,1.8,1.8,1.8,3l-0.3,93.7c0,1.2-0.7,2.4-1.7,3l-23,13.4C971,399,970.4,399.2,969.8,399.2z          M973.6,303.9l-0.2,85.6l16-9.3l0.2-85.6L973.6,303.9z"/>
						</g>
					</g>
                    <g>
						<g>
							<polygon class="st7" points="970.1,301.9 969.8,395.7 951.1,384.9 951.4,291.1        "/>
                            <path class="st3"
                                  d="M969.8,399.2c-0.6,0-1.2-0.2-1.8-0.5l-18.7-10.8c-1.1-0.6-1.8-1.8-1.8-3l0.3-93.7c0-1.2,0.7-2.4,1.8-3         c1.1-0.6,2.4-0.6,3.5,0l18.7,10.8c1.1,0.6,1.8,1.8,1.8,3l-0.3,93.7c0,1.2-0.7,2.4-1.8,3C971,399,970.4,399.2,969.8,399.2z          M954.6,382.9l11.7,6.8l0.2-85.7l-11.7-6.8L954.6,382.9z"/>
						</g>
					</g>
                    <g>
						<g>
							<polygon class="st2" points="951.4,291.1 951.1,384.9 915.5,405.6 915.8,311.8        "/>
                            <path class="st3"
                                  d="M915.5,409.1c-0.6,0-1.2-0.2-1.8-0.5c-1.1-0.6-1.8-1.8-1.8-3l0.3-93.7c0-1.2,0.7-2.4,1.7-3l35.6-20.7         c1.1-0.6,2.4-0.6,3.5,0c1.1,0.6,1.8,1.8,1.8,3l-0.3,93.7c0,1.2-0.7,2.4-1.7,3l-35.6,20.7         C916.8,408.9,916.1,409.1,915.5,409.1z M919.3,313.8l-0.2,85.6l28.6-16.6l0.2-85.6L919.3,313.8z"/>
						</g>
					</g>
                    <g>
						<g>
							<polygon class="st6" points="934.5,322.6 934.2,416.4 911.2,429.8 911.4,336        "/>
                            <path class="st3"
                                  d="M911.2,433.3c-0.6,0-1.2-0.2-1.8-0.5c-1.1-0.6-1.8-1.8-1.8-3l0.3-93.7c0-1.2,0.7-2.4,1.7-3l23-13.4         c1.1-0.6,2.4-0.6,3.5,0c1.1,0.6,1.8,1.8,1.8,3l-0.3,93.7c0,1.2-0.7,2.4-1.7,3l-23,13.4C912.4,433.1,911.8,433.3,911.2,433.3z          M914.9,338l-0.2,85.6l16-9.3l0.2-85.6L914.9,338z"/>
						</g>
					</g>
                    <g>
						<g>
							<polygon class="st4"
                                     points="993.1,288.5 970.1,301.9 951.4,291.1 915.8,311.8 934.5,322.6 911.4,336 874.8,314.9          818.2,282.2 781.6,261 810.9,244 794.4,234.5 817.4,221.1 833.9,230.6 863.3,213.6 899.9,234.7 956.5,267.4        "/>
                            <path class="st3"
                                  d="M911.4,339.5c-0.6,0-1.2-0.2-1.8-0.5l-129.9-75c-1.1-0.6-1.7-1.8-1.8-3c0-1.2,0.7-2.4,1.7-3l24.1-14         l-11.3-6.5c-1.1-0.6-1.7-1.8-1.8-3c0-1.2,0.7-2.4,1.7-3l23-13.4c1.1-0.6,2.4-0.6,3.5,0l14.7,8.5l27.6-16         c1.1-0.6,2.4-0.6,3.5,0l129.9,75c1.1,0.6,1.7,1.8,1.8,3c0,1.2-0.7,2.4-1.7,3l-23,13.4c-1.1,0.6-2.4,0.6-3.5,0l-16.9-9.8         l-28.6,16.6l13.4,7.8c1.1,0.6,1.7,1.8,1.8,3c0,1.2-0.7,2.4-1.7,3l-23,13.4C912.7,339.3,912,339.5,911.4,339.5z M788.6,261         L911.4,332l16.1-9.3l-13.4-7.8c-1.1-0.6-1.7-1.8-1.8-3c0-1.2,0.7-2.4,1.7-3l35.6-20.7c1.1-0.6,2.4-0.6,3.5,0l16.9,9.8         l16.1-9.3l-122.9-70.9l-27.6,16c-1.1,0.6-2.4,0.6-3.5,0l-14.7-8.5l-16.1,9.3l11.3,6.5c1.1,0.6,1.7,1.8,1.8,3         c0,1.2-0.7,2.4-1.7,3L788.6,261z"/>
						</g>
					</g>
                    <g>
						<polygon class="st5"
                                 points="874.8,314.9 818.2,282.2 781.6,261 781.3,354.8 817.9,375.9 874.6,408.6 911.2,429.8 911.4,336               "/>
                        <path class="st3"
                              d="M911.2,433.2c-0.6,0-1.2-0.2-1.8-0.5l-129.9-75c-1.1-0.6-1.8-1.8-1.8-3l0.3-93.7c0-1.2,0.7-2.4,1.8-3        c1.1-0.6,2.4-0.6,3.5,0l129.9,75c1.1,0.6,1.8,1.8,1.8,3l-0.3,93.7c0,1.2-0.7,2.4-1.8,3C912.4,433.1,911.8,433.2,911.2,433.2z         M784.8,352.8l122.9,70.9l0.2-85.7l-122.9-70.9L784.8,352.8z"/>
					</g>
				</g>
			</g>
            <g>
				<g class="st1">
					<g>
						<g>
							<polygon class="st7" points="190.4,250.8 190.2,332.3 136.9,301.5 137.1,220        "/>
                            <path class="st3"
                                  d="M190.2,335.8c-0.6,0-1.2-0.2-1.8-0.5l-53.3-30.8c-1.1-0.6-1.8-1.8-1.8-3l0.2-81.5c0-1.2,0.7-2.4,1.8-3         c1.1-0.6,2.4-0.6,3.5,0l53.3,30.8c1.1,0.6,1.8,1.8,1.8,3l-0.2,81.5c0,1.2-0.7,2.4-1.8,3C191.4,335.6,190.8,335.8,190.2,335.8         z M140.4,299.5l46.3,26.7l0.2-73.4l-46.3-26.7L140.4,299.5z"/>
						</g>
					</g>
                    <g>
						<g>
							<polygon class="st2" points="137.1,220 136.9,301.5 84,332.3 84.2,250.8        "/>
                            <path class="st3"
                                  d="M84,335.8c-0.6,0-1.2-0.2-1.8-0.5c-1.1-0.6-1.8-1.8-1.8-3l0.2-81.5c0-1.2,0.7-2.4,1.7-3l52.9-30.8         c1.1-0.6,2.4-0.6,3.5,0c1.1,0.6,1.8,1.8,1.8,3l-0.2,81.5c0,1.2-0.7,2.4-1.7,3l-52.9,30.8C85.2,335.6,84.6,335.8,84,335.8z          M87.7,252.8l-0.2,73.4l45.9-26.7l0.2-73.4L87.7,252.8z"/>
						</g>
					</g>
                    <g>
						<g>
							<polygon class="st7" points="259.9,290.9 259.6,372.4 206.4,341.7 206.6,260.1        "/>
                            <path class="st3"
                                  d="M259.6,375.9c-0.6,0-1.2-0.2-1.8-0.5l-53.3-30.8c-1.1-0.6-1.8-1.8-1.8-3l0.2-81.5c0-1.2,0.7-2.4,1.8-3         c1.1-0.6,2.4-0.6,3.5,0l53.3,30.8c1.1,0.6,1.8,1.8,1.8,3l-0.2,81.5c0,1.2-0.7,2.4-1.8,3C260.8,375.8,260.2,375.9,259.6,375.9         z M209.9,339.6l46.3,26.7l0.2-73.4l-46.3-26.7L209.9,339.6z"/>
						</g>
					</g>
                    <g>
						<g>
							<polygon class="st2" points="206.6,260.1 206.4,341.7 153.4,372.4 153.7,290.9        "/>
                            <path class="st3"
                                  d="M153.4,375.9c-0.6,0-1.2-0.2-1.8-0.5c-1.1-0.6-1.8-1.8-1.8-3l0.2-81.5c0-1.2,0.7-2.4,1.7-3l52.9-30.8         c1.1-0.6,2.4-0.6,3.5,0c1.1,0.6,1.8,1.8,1.8,3l-0.2,81.5c0,1.2-0.7,2.4-1.7,3l-52.9,30.8C154.7,375.8,154,375.9,153.4,375.9z          M157.2,292.9l-0.2,73.4l45.9-26.7l0.2-73.4L157.2,292.9z"/>
						</g>
					</g>
                    <g>
						<g>
							<path class="st4"
                                  d="M135.6,203.9l152.2,87.9l-79.3,46.1L56.3,250L135.6,203.9z M206.9,321.7l52.9-30.8l-53.3-30.8         l-52.9,30.8L206.9,321.7 M137.5,281.5l52.9-30.8L137.1,220l-52.9,30.8L137.5,281.5"/>
                            <path class="st3"
                                  d="M208.6,341.4c-0.6,0-1.2-0.2-1.8-0.5L54.6,253c-1.1-0.6-1.7-1.8-1.8-3c0-1.2,0.7-2.4,1.7-3l79.3-46.1         c1.1-0.6,2.4-0.6,3.5,0l152.2,87.9c1.1,0.6,1.7,1.8,1.8,3c0,1.2-0.7,2.4-1.7,3l-79.3,46.1         C209.8,341.2,209.2,341.4,208.6,341.4z M63.3,250l145.2,83.9l72.3-42l-145.2-83.9L63.3,250z M206.9,325.2         c-0.6,0-1.2-0.2-1.8-0.5l-53.3-30.8c-1.1-0.6-1.7-1.8-1.8-3c0-1.2,0.7-2.4,1.7-3l52.9-30.8c1.1-0.6,2.4-0.6,3.5,0l53.3,30.8         c1.1,0.6,1.7,1.8,1.8,3c0,1.2-0.7,2.4-1.7,3l-52.9,30.8C208.2,325,207.6,325.2,206.9,325.2z M160.7,290.9l46.3,26.7l46-26.7         l-46.3-26.7L160.7,290.9z M137.5,285c-0.6,0-1.2-0.2-1.8-0.5l-53.3-30.8c-1.1-0.6-1.7-1.8-1.8-3c0-1.2,0.7-2.4,1.7-3         l52.9-30.8c1.1-0.6,2.4-0.6,3.5,0l53.3,30.8c1.1,0.6,1.7,1.8,1.8,3c0,1.2-0.7,2.4-1.7,3l-52.9,30.8         C138.7,284.9,138.1,285,137.5,285z M91.2,250.8l46.3,26.7l46-26.7l-46.3-26.7L91.2,250.8z"/>
						</g>
					</g>
                    <g>
						<g>
							<polygon class="st5" points="208.6,337.9 208.4,419.4 56.1,331.5 56.3,250        "/>
                            <path class="st3"
                                  d="M208.4,422.9c-0.6,0-1.2-0.2-1.8-0.5L54.4,334.5c-1.1-0.6-1.8-1.8-1.8-3l0.2-81.5c0-1.2,0.7-2.4,1.8-3         c1.1-0.6,2.4-0.6,3.5,0l152.2,87.9c1.1,0.6,1.8,1.8,1.8,3l-0.2,81.5c0,1.2-0.7,2.4-1.8,3C209.6,422.7,209,422.9,208.4,422.9z          M59.6,329.5l145.2,83.9l0.2-73.4L59.8,256L59.6,329.5z"/>
						</g>
					</g>
                    <g>
						<g>
							<polygon class="st6" points="287.9,291.8 287.6,373.3 208.4,419.4 208.6,337.9        "/>
                            <path class="st3"
                                  d="M208.4,422.9c-0.6,0-1.2-0.2-1.8-0.5c-1.1-0.6-1.8-1.8-1.8-3l0.2-81.5c0-1.2,0.7-2.4,1.7-3l79.3-46.1         c1.1-0.6,2.4-0.6,3.5,0c1.1,0.6,1.8,1.8,1.8,3l-0.2,81.5c0,1.2-0.7,2.4-1.7,3l-79.3,46.1C209.6,422.7,209,422.9,208.4,422.9z          M212.1,339.9l-0.2,73.4l72.3-42l0.2-73.4L212.1,339.9z"/>
						</g>
					</g>
				</g>
			</g>
            <g>
				<g class="st1">
					<g>
						<g>
							<polygon class="st7" points="1193.9,265.1 1193.7,349.1 1150.8,324.3 1151,240.3        "/>
                            <path class="st3"
                                  d="M1193.7,352.6c-0.6,0-1.2-0.2-1.8-0.5l-42.9-24.8c-1.1-0.6-1.8-1.8-1.8-3l0.2-84c0-1.2,0.7-2.4,1.8-3         c1.1-0.6,2.4-0.6,3.5,0l42.9,24.8c1.1,0.6,1.8,1.8,1.8,3l-0.2,84c0,1.2-0.7,2.4-1.8,3         C1194.9,352.4,1194.3,352.6,1193.7,352.6z M1154.3,322.3l35.9,20.7l0.2-75.9l-35.9-20.7L1154.3,322.3z"/>
						</g>
					</g>
                    <g>
						<g>
							<polygon class="st2" points="1151,240.3 1150.8,324.3 1108.1,349.1 1108.4,265.1        "/>
                            <path class="st3"
                                  d="M1108.1,352.6c-0.6,0-1.2-0.2-1.8-0.5c-1.1-0.6-1.8-1.8-1.8-3l0.2-84c0-1.2,0.7-2.4,1.7-3l42.6-24.8         c1.1-0.6,2.4-0.6,3.5,0c1.1,0.6,1.8,1.8,1.8,3l-0.2,84c0,1.2-0.7,2.4-1.7,3l-42.6,24.8         C1109.4,352.4,1108.7,352.6,1108.1,352.6z M1111.9,267.1l-0.2,75.9l35.6-20.7l0.2-75.9L1111.9,267.1z"/>
						</g>
					</g>
                    <g>
						<g>
							<polygon class="st2" points="1237.2,265.1 1237,349.1 1210.9,364.2 1211.1,280.3        "/>
                            <path class="st3"
                                  d="M1210.9,367.7c-0.6,0-1.2-0.2-1.8-0.5c-1.1-0.6-1.8-1.8-1.8-3l0.2-84c0-1.2,0.7-2.4,1.7-3l26.1-15.2         c1.1-0.6,2.4-0.6,3.5,0c1.1,0.6,1.8,1.8,1.8,3l-0.2,84c0,1.2-0.7,2.4-1.7,3l-26.1,15.2         C1212.1,367.6,1211.5,367.7,1210.9,367.7z M1214.6,282.3l-0.2,75.9l19.1-11.1l0.2-75.9L1214.6,282.3z"/>
						</g>
					</g>
                    <g>
						<g>
							<polygon class="st10" points="1197.8,311.5 1197.6,395.5 1177.3,383.8 1177.5,299.8        "/>
                            <path class="st3"
                                  d="M1197.6,399c-0.6,0-1.2-0.2-1.8-0.5l-20.3-11.7c-1.1-0.6-1.8-1.8-1.8-3l0.2-84c0-1.2,0.7-2.4,1.8-3         c1.1-0.6,2.4-0.6,3.5,0l20.3,11.7c1.1,0.6,1.8,1.8,1.8,3l-0.2,84c0,1.2-0.7,2.4-1.8,3C1198.8,398.8,1198.2,399,1197.6,399z          M1180.8,381.7l13.3,7.7l0.2-75.9l-13.3-7.7L1180.8,381.7z"/>
						</g>
					</g>
                    <g>
						<g>
							<polygon class="st5" points="1151.4,315 1151.2,398.9 1064.8,349.1 1065,265.1        "/>
                            <path class="st3"
                                  d="M1151.2,402.4c-0.6,0-1.2-0.2-1.8-0.5l-86.4-49.9c-1.1-0.6-1.8-1.8-1.8-3l0.2-84c0-1.2,0.7-2.4,1.8-3         c1.1-0.6,2.4-0.6,3.5,0l86.4,49.9c1.1,0.6,1.8,1.8,1.8,3l-0.2,84c0,1.2-0.7,2.4-1.8,3         C1152.4,402.3,1151.8,402.4,1151.2,402.4z M1068.3,347l79.4,45.8l0.2-75.9l-79.4-45.8L1068.3,347z"/>
						</g>
					</g>
                    <g>
						<g>
							<polygon class="st2" points="1177.5,299.8 1177.3,383.8 1151.2,398.9 1151.4,315        "/>
                            <path class="st3"
                                  d="M1151.2,402.4c-0.6,0-1.2-0.2-1.8-0.5c-1.1-0.6-1.8-1.8-1.8-3l0.2-84c0-1.2,0.7-2.4,1.7-3l26.1-15.2         c1.1-0.6,2.4-0.6,3.5,0c1.1,0.6,1.8,1.8,1.8,3l-0.2,84c0,1.2-0.7,2.4-1.7,3l-26.1,15.2         C1152.4,402.3,1151.8,402.4,1151.2,402.4z M1154.9,317l-0.2,75.9l19.1-11.1l0.2-75.9L1154.9,317z"/>
						</g>
					</g>
                    <g>
						<g>
							<polygon class="st7" points="1300.6,326.7 1300.3,410.6 1257.4,385.9 1257.7,301.9        "/>
                            <path class="st3"
                                  d="M1300.3,414.1c-0.6,0-1.2-0.2-1.8-0.5l-42.9-24.8c-1.1-0.6-1.8-1.8-1.8-3l0.2-84c0-1.2,0.7-2.4,1.8-3         c1.1-0.6,2.4-0.6,3.5,0l42.9,24.8c1.1,0.6,1.8,1.8,1.8,3l-0.2,84c0,1.2-0.7,2.4-1.8,3C1301.5,414,1300.9,414.1,1300.3,414.1z          M1260.9,383.9l35.9,20.7l0.2-75.9l-35.9-20.7L1260.9,383.9z"/>
						</g>
					</g>
                    <g>
						<g>
							<polygon class="st2" points="1257.7,301.9 1257.4,385.9 1214.8,410.6 1215,326.7        "/>
                            <path class="st3"
                                  d="M1214.8,414.1c-0.6,0-1.2-0.2-1.8-0.5c-1.1-0.6-1.8-1.8-1.8-3l0.2-84c0-1.2,0.7-2.4,1.7-3l42.6-24.8         c1.1-0.6,2.4-0.6,3.5,0c1.1,0.6,1.8,1.8,1.8,3l-0.2,84c0,1.2-0.7,2.4-1.7,3l-42.6,24.8C1216,414,1215.4,414.1,1214.8,414.1z          M1218.5,328.7l-0.2,75.9l35.6-20.7l0.2-75.9L1218.5,328.7z"/>
						</g>
					</g>
                    <g>
						<g>
							<path class="st4"
                                  d="M1257.5,276.8l86.4,49.9l-85.8,49.9l-86.4-49.9l26.1-15.2l-20.3-11.7l-26.1,15.2l-86.4-49.9l85.8-49.9         l86.4,49.9l-26.1,15.2l20.3,11.7L1257.5,276.8z M1257.9,351.4l42.6-24.8l-42.9-24.8l-42.6,24.8L1257.9,351.4 M1151.3,289.9         l42.6-24.8l-42.9-24.8l-42.6,24.8L1151.3,289.9"/>
                            <path class="st3"
                                  d="M1258.1,380c-0.6,0-1.2-0.2-1.8-0.5l-86.4-49.9c-1.1-0.6-1.7-1.8-1.8-3c0-1.2,0.7-2.4,1.7-3l20.9-12.1         l-13.3-7.7l-24.3,14.1c-1.1,0.6-2.4,0.6-3.5,0l-86.4-49.9c-1.1-0.6-1.7-1.8-1.8-3s0.7-2.4,1.7-3l85.8-49.9         c1.1-0.6,2.4-0.6,3.5,0l86.4,49.9c1.1,0.6,1.7,1.8,1.8,3c0,1.2-0.7,2.4-1.7,3l-20.9,12.1l13.3,7.7l24.3-14.1         c1.1-0.6,2.4-0.6,3.5,0l86.4,49.9c1.1,0.6,1.7,1.8,1.8,3s-0.7,2.4-1.7,3l-85.8,49.9C1259.3,379.9,1258.7,380,1258.1,380z          M1178.7,326.7l79.4,45.8l78.8-45.8l-79.4-45.8l-24.3,14.1c-1.1,0.6-2.4,0.6-3.5,0l-20.3-11.7c-1.1-0.6-1.7-1.8-1.8-3         c0-1.2,0.7-2.4,1.7-3l20.9-12.1l-79.4-45.8l-78.8,45.8l79.4,45.8l24.3-14.1c1.1-0.6,2.4-0.6,3.5,0l20.3,11.7         c1.1,0.6,1.7,1.8,1.8,3c0,1.2-0.7,2.4-1.7,3L1178.7,326.7z M1257.9,354.9c-0.6,0-1.2-0.2-1.8-0.5l-42.9-24.8         c-1.1-0.6-1.7-1.8-1.8-3c0-1.2,0.7-2.4,1.7-3l42.6-24.8c1.1-0.6,2.4-0.6,3.5,0l42.9,24.8c1.1,0.6,1.7,1.8,1.8,3         s-0.7,2.4-1.7,3l-42.6,24.8C1259.1,354.8,1258.5,354.9,1257.9,354.9z M1222,326.7l35.9,20.7l35.6-20.7l-35.9-20.7L1222,326.7         z M1151.3,293.4c-0.6,0-1.2-0.2-1.8-0.5l-42.9-24.8c-1.1-0.6-1.7-1.8-1.8-3s0.7-2.4,1.7-3l42.6-24.8c1.1-0.6,2.4-0.6,3.5,0         l42.9,24.8c1.1,0.6,1.7,1.8,1.8,3c0,1.2-0.7,2.4-1.7,3l-42.6,24.8C1152.5,293.2,1151.9,293.4,1151.3,293.4z M1115.4,265.1         l35.9,20.7l35.6-20.7l-35.9-20.7L1115.4,265.1z"/>
						</g>
					</g>
                    <g>
						<g>
							<polygon class="st5" points="1258.1,376.5 1257.8,460.5 1171.5,410.6 1171.7,326.7        "/>
                            <path class="st3"
                                  d="M1257.8,464c-0.6,0-1.2-0.2-1.8-0.5l-86.4-49.9c-1.1-0.6-1.8-1.8-1.8-3l0.2-84c0-1.2,0.7-2.4,1.8-3         c1.1-0.6,2.4-0.6,3.5,0l86.4,49.9c1.1,0.6,1.8,1.8,1.8,3l-0.2,84c0,1.2-0.7,2.4-1.8,3C1259,463.9,1258.4,464,1257.8,464z          M1175,408.6l79.4,45.8l0.2-75.9l-79.4-45.8L1175,408.6z"/>
						</g>
					</g>
                    <g>
						<g>
							<polygon class="st7" points="1343.9,326.7 1343.6,410.6 1257.8,460.5 1258.1,376.5        "/>
                            <path class="st3"
                                  d="M1257.8,464c-0.6,0-1.2-0.2-1.8-0.5c-1.1-0.6-1.8-1.8-1.8-3l0.2-84c0-1.2,0.7-2.4,1.7-3l85.8-49.9         c1.1-0.6,2.4-0.6,3.5,0c1.1,0.6,1.8,1.8,1.8,3l-0.2,84c0,1.2-0.7,2.4-1.7,3l-85.8,49.9C1259.1,463.8,1258.4,464,1257.8,464z          M1261.6,378.6l-0.2,75.9l78.8-45.8l0.2-75.9L1261.6,378.6z"/>
						</g>
					</g>
				</g>
			</g>
            <g>
				<g class="st1">
					<g>
						<path class="st11"
                              d="M701.1,357.1l2.1-1.2L503.7,240l-2.1,1.2c-0.3,0.2-0.6,0.3-0.9,0.5c-0.1,0-0.2,0.1-0.2,0.1        c-0.2,0.1-0.3,0.1-0.5,0.2c-0.2,0.1-0.5,0.2-0.7,0.2c-0.2,0-0.3,0.1-0.5,0.1c-0.1,0-0.3,0.1-0.4,0.1c-0.2,0-0.4,0.1-0.5,0.1        c-0.1,0-0.2,0-0.3,0c-0.2,0-0.4,0-0.7,0c0,0-0.1,0-0.1,0c-0.3,0-0.5,0-0.8-0.1c-0.1,0-0.1,0-0.2,0c-0.2,0-0.4-0.1-0.6-0.2        c-0.1,0-0.1,0-0.2-0.1c-0.2-0.1-0.5-0.2-0.7-0.3l0,0l0,0l0,0l199.5,115.9c0,0,0,0,0.1,0c0.2,0.1,0.3,0.2,0.5,0.3        c0,0,0.1,0,0.1,0c0.1,0,0.1,0,0.2,0.1c0.1,0,0.2,0.1,0.3,0.1c0.1,0,0.2,0,0.3,0.1c0.1,0,0.1,0,0.2,0c0,0,0.1,0,0.1,0        c0.2,0,0.4,0.1,0.6,0.1c0,0,0,0,0,0c0,0,0.1,0,0.1,0c0.2,0,0.3,0,0.5,0c0.1,0,0.1,0,0.2,0c0.1,0,0.2,0,0.3,0        c0.1,0,0.2,0,0.3,0c0.1,0,0.2,0,0.3-0.1c0.1,0,0.3-0.1,0.4-0.1c0.1,0,0.1,0,0.2,0c0.1,0,0.2-0.1,0.2-0.1        c0.2-0.1,0.5-0.2,0.7-0.2c0.1,0,0.2-0.1,0.3-0.1c0.1,0,0.2-0.1,0.3-0.1c0.1,0,0.2-0.1,0.2-0.1        C700.5,357.4,700.8,357.3,701.1,357.1z"/>
                        <path class="st3"
                              d="M696.6,362c-0.1,0-0.3,0-0.4,0c0,0-0.1,0-0.1,0c-0.1,0-0.2,0-0.3,0c-0.3,0-0.6-0.1-0.9-0.1        c-0.1,0-0.2,0-0.3-0.1c0,0-0.1,0-0.2,0c-0.2,0-0.4-0.1-0.5-0.1c-0.2-0.1-0.3-0.1-0.4-0.2c-0.1,0-0.2-0.1-0.2-0.1        c-0.1,0-0.2-0.1-0.3-0.1c-0.3-0.1-0.6-0.3-0.9-0.4c0,0-0.1,0-0.1-0.1L492.6,244.9c-1.7-1-2.2-3.1-1.3-4.8        c0.7-1.1,1.9-1.8,3.1-1.7c0.6,0,1.2,0.2,1.7,0.5l0,0c0.1,0,0.1,0.1,0.2,0.1c0.1,0,0.2,0.1,0.2,0.1c0,0,0.1,0,0.1,0        c0,0,0.1,0,0.2,0c0.1,0,0.2,0,0.2,0c0.1,0,0.2,0,0.2,0l0.2,0c0.1,0,0.2,0,0.3,0c0.1,0,0.2,0,0.2-0.1c0.1,0,0.2,0,0.3-0.1        c0.2,0,0.3-0.1,0.5-0.2l0.1,0c0.1,0,0.2-0.1,0.2-0.1l0.2-0.1c0.2-0.1,0.5-0.2,0.7-0.4l2.1-1.2c1.1-0.6,2.4-0.6,3.5,0        L705,352.9c1.1,0.6,1.7,1.8,1.7,3c0,1.2-0.7,2.4-1.8,3l-2.1,1.2c-0.4,0.2-0.8,0.4-1.2,0.6l-0.3,0.1c-0.1,0.1-0.2,0.1-0.3,0.2        c-0.1,0.1-0.3,0.1-0.4,0.1c-0.3,0.1-0.6,0.2-0.8,0.3c-0.1,0-0.3,0.1-0.4,0.1c-0.1,0-0.3,0.1-0.4,0.1c-0.1,0-0.3,0.1-0.5,0.1        c-0.1,0-0.2,0.1-0.4,0.1c-0.1,0-0.3,0-0.4,0c-0.1,0-0.2,0-0.4,0c-0.1,0-0.2,0-0.3,0C696.8,362,696.7,362,696.6,362z"/>
					</g>
                    <g>
						<path class="st2"
                              d="M676.9,361.2c0-0.2,0-0.3,0-0.5c0-0.1,0-0.2,0-0.4c0-0.4,0-0.8,0-1.1c0-3.2-1.2-5.5-3-6.6L474.5,236.7        c1.8,1.1,3,3.3,3,6.6c0,0.4,0,0.8,0,1.1c0,0.1,0,0.2,0,0.4c0,0.2-0.1,0.5-0.1,0.7c0,0.3-0.1,0.5-0.1,0.8        c0,0.2-0.1,0.4-0.1,0.6c0,0.2-0.1,0.4-0.1,0.5c-0.1,0.2-0.1,0.5-0.2,0.7c0,0.1-0.1,0.3-0.1,0.4c-0.1,0.3-0.2,0.5-0.3,0.8        c0,0.1-0.1,0.2-0.1,0.3c-0.1,0.4-0.3,0.8-0.5,1.1c0,0,0,0.1-0.1,0.1c-0.1,0.3-0.3,0.7-0.5,1c-0.1,0.1-0.1,0.2-0.2,0.3        c-0.2,0.3-0.3,0.6-0.5,0.9c0,0.1-0.1,0.1-0.1,0.2c-0.2,0.4-0.4,0.7-0.6,1.1c-0.1,0.1-0.1,0.2-0.2,0.3        c-0.2,0.2-0.3,0.5-0.5,0.7c-0.1,0.1-0.2,0.3-0.3,0.4c-0.2,0.2-0.3,0.4-0.5,0.6c-0.1,0.2-0.3,0.3-0.4,0.5        c-0.1,0.1-0.3,0.3-0.4,0.4c-0.2,0.3-0.5,0.5-0.7,0.7c-0.1,0.1-0.3,0.3-0.4,0.4c-0.1,0.1-0.2,0.2-0.3,0.3        c-0.2,0.2-0.4,0.3-0.6,0.5c-0.1,0.1-0.2,0.2-0.4,0.3c-0.2,0.2-0.4,0.3-0.6,0.5c-0.1,0.1-0.2,0.2-0.3,0.2        c-0.3,0.2-0.6,0.4-1,0.6l-60.6,35c-0.3,0.2-0.6,0.3-0.9,0.5c-0.1,0-0.2,0.1-0.2,0.1c-0.2,0.1-0.3,0.1-0.5,0.2        c-0.2,0.1-0.5,0.2-0.7,0.2c-0.2,0-0.3,0.1-0.5,0.1c-0.1,0-0.3,0.1-0.4,0.1c-0.2,0-0.4,0.1-0.5,0.1c-0.1,0-0.2,0-0.3,0        c-0.2,0-0.4,0-0.7,0c0,0-0.1,0-0.1,0c-0.3,0-0.5,0-0.8-0.1c-0.1,0-0.1,0-0.2,0c-0.2,0-0.4-0.1-0.6-0.2c-0.1,0-0.1,0-0.2-0.1        c-0.2-0.1-0.5-0.2-0.7-0.3l199.5,115.9c0,0,0,0,0.1,0c0.2,0.1,0.3,0.2,0.5,0.3c0,0,0.1,0,0.1,0c0.1,0,0.1,0,0.2,0.1        c0.1,0,0.2,0.1,0.3,0.1c0.1,0,0.2,0,0.3,0.1c0.1,0,0.1,0,0.2,0c0,0,0.1,0,0.1,0c0.2,0,0.4,0.1,0.6,0.1c0,0,0,0,0,0        c0,0,0.1,0,0.2,0c0.2,0,0.3,0,0.5,0c0.1,0,0.1,0,0.2,0c0.1,0,0.2,0,0.3,0c0.1,0,0.2,0,0.3,0c0.1,0,0.2,0,0.3-0.1        c0.1,0,0.3-0.1,0.4-0.1c0.1,0,0.1,0,0.2,0c0.1,0,0.2-0.1,0.2-0.1c0.2-0.1,0.5-0.2,0.7-0.2c0.1,0,0.2-0.1,0.3-0.1        c0.1,0,0.2-0.1,0.3-0.1c0.1,0,0.2-0.1,0.2-0.1c0.3-0.1,0.6-0.3,0.9-0.5l60.6-35c0.3-0.2,0.7-0.4,1-0.6        c0.1-0.1,0.2-0.2,0.3-0.2c0.2-0.2,0.4-0.3,0.6-0.5c0.1-0.1,0.2-0.2,0.4-0.3c0.2-0.2,0.4-0.3,0.6-0.5c0.1-0.1,0.2-0.2,0.3-0.3        c0.1-0.1,0.1-0.1,0.2-0.2c0.1-0.1,0.1-0.2,0.2-0.2c0.2-0.2,0.5-0.5,0.7-0.7c0.1-0.1,0.1-0.2,0.2-0.2c0.1-0.1,0.1-0.1,0.2-0.2        c0.1-0.2,0.3-0.3,0.4-0.5c0.1-0.1,0.2-0.2,0.3-0.3c0.1-0.1,0.1-0.2,0.2-0.3c0.1-0.1,0.2-0.3,0.3-0.4c0.1-0.1,0.1-0.2,0.2-0.3        c0.1-0.2,0.2-0.3,0.3-0.5c0.1-0.1,0.1-0.2,0.2-0.3c0,0,0.1-0.1,0.1-0.1c0.2-0.3,0.4-0.6,0.5-0.9c0,0,0,0,0-0.1        c0-0.1,0.1-0.1,0.1-0.2c0.1-0.2,0.2-0.4,0.3-0.6c0.1-0.1,0.1-0.2,0.1-0.3c0.1-0.1,0.1-0.2,0.2-0.3c0-0.1,0.1-0.2,0.1-0.3        c0.1-0.2,0.2-0.5,0.3-0.7c0,0,0-0.1,0.1-0.1c0,0,0,0,0,0c0.1-0.3,0.3-0.6,0.4-0.9c0-0.1,0-0.1,0.1-0.2c0-0.1,0.1-0.2,0.1-0.3        c0.1-0.2,0.1-0.3,0.2-0.5c0-0.1,0.1-0.2,0.1-0.4c0-0.1,0.1-0.3,0.1-0.4c0-0.1,0.1-0.2,0.1-0.3c0-0.2,0.1-0.3,0.1-0.5        c0-0.2,0.1-0.4,0.1-0.5c0-0.1,0-0.1,0-0.2c0-0.1,0-0.3,0.1-0.4c0.1-0.3,0.1-0.5,0.1-0.8C676.8,361.4,676.8,361.3,676.9,361.2z        "/>
                        <path class="st3"
                              d="M601.7,416.8c-0.1,0-0.3,0-0.4,0c-0.1,0-0.1,0-0.1,0c-0.1,0-0.2,0-0.3,0c-0.3,0-0.6-0.1-0.9-0.1        c-0.1,0-0.2,0-0.3-0.1l-0.1,0c-0.2,0-0.4-0.1-0.5-0.1c-0.2,0-0.3-0.1-0.4-0.1c-0.1,0-0.2-0.1-0.2-0.1c-0.1,0-0.2-0.1-0.3-0.1        c-0.3-0.1-0.6-0.3-0.9-0.4l0,0c0,0-0.1-0.1-0.1-0.1L397.7,299.7c-1.7-1-2.2-3.1-1.3-4.8c1-1.7,3.1-2.2,4.8-1.3c0,0,0,0,0,0        l0,0c0.1,0,0.1,0.1,0.2,0.1c0.1,0,0.2,0.1,0.2,0.1c0,0,0.1,0,0.1,0c0,0,0.1,0,0.2,0c0.1,0,0.1,0,0.2,0c0.1,0,0.2,0,0.3,0        l0.2,0c0.1,0,0.2,0,0.3,0c0.1,0,0.2,0,0.2-0.1c0.1,0,0.2-0.1,0.3-0.1c0.2,0,0.3-0.1,0.5-0.2c0.2-0.1,0.3-0.1,0.4-0.1l0.2-0.1        c0.2-0.1,0.4-0.2,0.7-0.4l60.6-35c0.2-0.1,0.5-0.3,0.7-0.5l0.2-0.2c0.2-0.1,0.3-0.2,0.5-0.4c0.1-0.1,0.2-0.1,0.3-0.2        c0.2-0.2,0.3-0.3,0.5-0.4c0.1-0.1,0.2-0.2,0.3-0.3c0.1-0.1,0.2-0.2,0.3-0.3c0.2-0.2,0.4-0.4,0.6-0.7c0.1-0.1,0.2-0.2,0.3-0.4        c0.1-0.1,0.2-0.3,0.3-0.4c0.1-0.2,0.3-0.3,0.4-0.5l0.2-0.3c0.1-0.2,0.3-0.4,0.4-0.6l0.2-0.3c0.2-0.3,0.4-0.6,0.5-0.9        c0,0,0.1-0.2,0.1-0.2c0.1-0.2,0.3-0.5,0.4-0.8l0.1-0.3c0.1-0.3,0.3-0.6,0.4-0.9c0,0,0-0.1,0-0.1c0.1-0.3,0.3-0.7,0.4-1        l0.1-0.3c0.1-0.2,0.2-0.4,0.2-0.7l0.1-0.4c0.1-0.2,0.1-0.4,0.2-0.6l0.1-0.4c0-0.1,0-0.2,0.1-0.3l0-0.1c0-0.2,0.1-0.5,0.1-0.7        c0-0.2,0.1-0.4,0.1-0.6l0-0.3c0-0.3,0-0.6,0-0.9c0-1.8-0.5-3.1-1.2-3.6l0,0v0c-1.7-1-2.2-3.1-1.3-4.8c1-1.7,3.1-2.2,4.8-1.3        l199.5,115.9c3,1.7,4.7,5.2,4.7,9.6c0,0.5,0,0.9-0.1,1.4c0,0.1,0,0.2,0,0.3c0,0,0,0.1,0,0.1l0,0.1c0,0.2,0,0.3,0,0.5        c0,0.1,0,0.2-0.1,0.3c0,0.3-0.1,0.6-0.2,0.9c0,0.2,0,0.3-0.1,0.5c0,0.1,0,0.1-0.1,0.2c0,0.2-0.1,0.4-0.1,0.6l0,0.1        c0,0.1-0.1,0.3-0.1,0.4c0,0.1,0,0.2-0.1,0.3c-0.1,0.2-0.1,0.4-0.2,0.5l-0.1,0.4c-0.1,0.2-0.1,0.3-0.1,0.4l-0.3,0.7        c-0.1,0.4-0.3,0.7-0.4,1c0,0.1,0,0.1-0.1,0.2l0,0.1c-0.1,0.3-0.2,0.5-0.4,0.8c0,0.1-0.1,0.2-0.1,0.3l-0.4,0.7        c-0.1,0.2-0.2,0.5-0.4,0.7L677,371c0,0-0.1,0.1-0.1,0.1c-0.2,0.3-0.4,0.7-0.6,1c0,0-0.1,0.1-0.1,0.1l-0.3,0.5        c-0.1,0.1-0.2,0.3-0.3,0.4l-0.2,0.2c0,0-0.1,0.1-0.1,0.1c-0.1,0.2-0.2,0.3-0.3,0.4l-0.2,0.3c-0.1,0.1-0.2,0.2-0.2,0.3        l-0.1,0.1c-0.1,0.2-0.3,0.4-0.5,0.6c-0.1,0.1-0.1,0.2-0.2,0.2c-0.1,0.1-0.2,0.2-0.2,0.2c-0.3,0.3-0.5,0.6-0.8,0.9        c-0.1,0.1-0.2,0.2-0.3,0.3c-0.1,0.1-0.1,0.1-0.2,0.2c-0.2,0.2-0.3,0.3-0.4,0.4c-0.2,0.2-0.4,0.4-0.7,0.6        c-0.2,0.1-0.3,0.2-0.4,0.4c-0.2,0.2-0.5,0.4-0.8,0.6L670,379c-0.1,0.1-0.2,0.2-0.3,0.2c-0.4,0.3-0.8,0.5-1.2,0.8l-60.6,35        c-0.4,0.2-0.8,0.4-1.2,0.6c-0.1,0.1-0.2,0.1-0.3,0.2c-0.1,0-0.2,0.1-0.3,0.1c-0.1,0-0.2,0.1-0.4,0.1c-0.3,0.1-0.6,0.2-0.8,0.3        c-0.1,0.1-0.3,0.1-0.4,0.1c-0.2,0-0.3,0.1-0.4,0.1c-0.1,0-0.3,0.1-0.5,0.1c-0.1,0-0.2,0.1-0.4,0.1c-0.1,0-0.3,0-0.4,0        c-0.1,0-0.3,0-0.4,0c-0.1,0-0.2,0-0.3,0C601.9,416.8,601.8,416.8,601.7,416.8z M601.3,409.8c0,0,0.1,0,0.1,0l0.2,0        c0,0,0.1,0,0.1,0l0.3,0c0.1,0,0.1,0,0.2,0c0.1,0,0.1,0,0.2,0c0,0,0.1,0,0.1,0c0,0,0.1,0,0.1,0c0.2-0.1,0.3-0.1,0.5-0.2        c0.1,0,0.2-0.1,0.2-0.1l0.3-0.1c0.2-0.1,0.4-0.2,0.7-0.3l60.6-35c0.2-0.1,0.5-0.3,0.7-0.5l0.3-0.2c0.2-0.1,0.3-0.2,0.5-0.4        l0.2-0.2c0.2-0.2,0.4-0.3,0.5-0.4c0.1-0.1,0.2-0.2,0.3-0.3l0.4-0.4c0.2-0.2,0.4-0.4,0.6-0.6c0.1-0.1,0.1-0.1,0.2-0.2l0.1-0.2        c0.1-0.1,0.2-0.3,0.3-0.4l1.3-1.7c0,0,0.1-0.1,0.1-0.1c0.1-0.2,0.3-0.5,0.4-0.7c0,0,0-0.1,0.1-0.1l0.1-0.1        c0.1-0.2,0.2-0.4,0.3-0.5l0.3-0.7c0.1-0.3,0.2-0.5,0.3-0.7c0,0,0-0.1,0.1-0.1c0,0,0,0,0-0.1c0.1-0.2,0.2-0.5,0.3-0.7l0.1-0.3        c0,0,0-0.1,0-0.1l0.5-1.6c0-0.2,0.1-0.3,0.1-0.4c0,0,0-0.2,0-0.2l0-0.2c0-0.2,0.1-0.5,0.1-0.7c0-0.1,0-0.2,0-0.2l0.1-0.6        c0-0.3,0-0.6,0-0.9c0-1.8-0.5-3.1-1.3-3.6L481,244.5c0,0.1,0,0.1,0,0.2c0,0.1,0,0.2,0,0.3c0,0,0,0.1,0,0.1        c0,0.3-0.1,0.6-0.1,0.9c0,0.3-0.1,0.7-0.2,1l0,0.1c0,0.2-0.1,0.4-0.1,0.6c0,0.2-0.1,0.3-0.1,0.5l0,0.1        c-0.1,0.3-0.1,0.6-0.2,0.9l-0.1,0.5c-0.1,0.3-0.2,0.6-0.3,1l-0.1,0.4c-0.2,0.4-0.3,0.9-0.5,1.3c0,0-0.1,0.1-0.1,0.1        c-0.2,0.4-0.3,0.8-0.5,1.1l-0.2,0.4c-0.2,0.3-0.4,0.7-0.6,1l-0.1,0.2c-0.2,0.4-0.5,0.8-0.7,1.2l-0.2,0.3        c-0.2,0.3-0.4,0.6-0.6,0.8l-0.3,0.4c-0.2,0.2-0.4,0.5-0.5,0.7c-0.2,0.2-0.3,0.4-0.5,0.6c-0.1,0.2-0.3,0.3-0.4,0.5        c-0.3,0.3-0.5,0.6-0.8,0.9c-0.2,0.2-0.4,0.4-0.5,0.5c-0.1,0.1-0.3,0.3-0.4,0.4c-0.2,0.2-0.5,0.4-0.7,0.6        c-0.2,0.1-0.3,0.2-0.4,0.4c-0.2,0.2-0.5,0.4-0.8,0.6c-0.2,0.1-0.3,0.2-0.4,0.3c-0.4,0.3-0.8,0.5-1.2,0.8l-59.6,34.4        l191.2,111.1c0,0,0,0,0,0c0,0,0.1,0,0.1,0c0,0,0.1,0,0.1,0l0.2,0.1c0,0,0.1,0,0.1,0l0,0c0,0,0,0,0.1,0        C601.3,409.8,601.3,409.8,601.3,409.8L601.3,409.8z"/>
					</g>
                    <g>
						<g>
							<polygon class="st5" points="569.8,452.4 370.3,336.5 370.3,317 569.7,433        "/>
                            <path class="st3"
                                  d="M569.8,455.9C569.8,455.9,569.8,455.9,569.8,455.9c-0.6,0-1.2-0.2-1.8-0.5L368.6,339.5         c-1.1-0.6-1.7-1.8-1.7-3l-0.1-19.5c0-1.3,0.7-2.4,1.8-3c1.1-0.6,2.4-0.6,3.5,0l199.5,115.9c1.1,0.6,1.7,1.8,1.7,3l0.1,19.1         c0,0.1,0,0.3,0,0.4C573.3,454.4,571.7,455.9,569.8,455.9z M373.8,334.5l192.4,111.8l0-11.4L373.8,323.1L373.8,334.5z"/>
						</g>
					</g>
                    <g>
						<path class="st2"
                              d="M581.9,416c0-0.2,0-0.3,0.1-0.5c0-0.1,0-0.2,0-0.4c0-0.4,0-0.8,0-1.1c0-3.2-1.2-5.5-3-6.6L379.6,291.5        c1.8,1.1,3,3.3,3,6.6c0,0.4,0,0.8,0,1.1c0,0.1,0,0.2,0,0.4c0,0.2-0.1,0.5-0.1,0.7c0,0.3-0.1,0.5-0.1,0.8        c0,0.2-0.1,0.4-0.1,0.6c0,0.2-0.1,0.3-0.1,0.5c-0.1,0.2-0.1,0.5-0.2,0.7c0,0.1-0.1,0.3-0.1,0.4c-0.1,0.3-0.2,0.6-0.3,0.8        c0,0.1-0.1,0.2-0.1,0.3c-0.1,0.4-0.3,0.8-0.5,1.1c0,0,0,0.1-0.1,0.1c-0.1,0.3-0.3,0.7-0.5,1c-0.1,0.1-0.1,0.2-0.2,0.3        c-0.2,0.3-0.3,0.6-0.5,0.9c0,0.1-0.1,0.1-0.1,0.2c-0.2,0.4-0.4,0.7-0.6,1.1c-0.1,0.1-0.1,0.2-0.2,0.3        c-0.2,0.2-0.3,0.5-0.5,0.7c-0.1,0.1-0.2,0.3-0.3,0.4c-0.2,0.2-0.3,0.4-0.5,0.6c-0.1,0.2-0.3,0.3-0.4,0.5        c-0.1,0.2-0.3,0.3-0.4,0.4c-0.2,0.2-0.5,0.5-0.7,0.7c-0.1,0.1-0.3,0.3-0.4,0.4c-0.1,0.1-0.2,0.2-0.3,0.3        c-0.2,0.2-0.4,0.3-0.6,0.5c-0.1,0.1-0.2,0.2-0.3,0.3c-0.2,0.2-0.4,0.3-0.6,0.5c-0.1,0.1-0.2,0.2-0.3,0.2        c-0.3,0.2-0.6,0.4-1,0.6l-2.1,1.2L569.7,433l2.1-1.2c0.3-0.2,0.7-0.4,1-0.6c0.1-0.1,0.2-0.2,0.3-0.2c0.2-0.2,0.4-0.3,0.6-0.5        c0.1-0.1,0.2-0.2,0.3-0.3c0.2-0.2,0.4-0.3,0.6-0.5c0.1-0.1,0.2-0.2,0.3-0.3c0.1-0.1,0.1-0.1,0.2-0.2c0.1-0.1,0.1-0.2,0.2-0.2        c0.2-0.2,0.5-0.5,0.7-0.7c0.1-0.1,0.1-0.2,0.2-0.2c0.1-0.1,0.1-0.1,0.2-0.2c0.1-0.2,0.3-0.3,0.4-0.5c0.1-0.1,0.2-0.2,0.3-0.3        c0.1-0.1,0.1-0.2,0.2-0.3c0.1-0.1,0.2-0.3,0.3-0.4c0.1-0.1,0.1-0.2,0.2-0.3c0.1-0.2,0.2-0.3,0.3-0.5c0.1-0.1,0.1-0.2,0.2-0.3        c0,0,0.1-0.1,0.1-0.1c0.2-0.3,0.4-0.6,0.5-0.9c0,0,0,0,0-0.1c0-0.1,0.1-0.1,0.1-0.2c0.1-0.2,0.2-0.4,0.3-0.6        c0.1-0.1,0.1-0.2,0.2-0.3c0.1-0.1,0.1-0.2,0.2-0.3c0-0.1,0.1-0.2,0.1-0.3c0.1-0.2,0.2-0.5,0.3-0.7c0,0,0-0.1,0.1-0.1        c0,0,0,0,0,0c0.1-0.3,0.3-0.6,0.4-0.9c0-0.1,0-0.1,0.1-0.2c0-0.1,0.1-0.2,0.1-0.3c0.1-0.2,0.1-0.3,0.2-0.5        c0-0.1,0.1-0.2,0.1-0.4c0-0.1,0.1-0.3,0.1-0.4c0-0.1,0.1-0.2,0.1-0.3c0-0.2,0.1-0.3,0.1-0.5c0-0.2,0.1-0.3,0.1-0.5        c0-0.1,0-0.1,0-0.2c0-0.1,0-0.3,0.1-0.4c0.1-0.3,0.1-0.5,0.1-0.8C581.9,416.2,581.9,416.1,581.9,416z"/>
                        <path class="st3"
                              d="M569.7,436.5c-0.6,0-1.2-0.2-1.8-0.5L368.5,320.1c-1.1-0.6-1.7-1.8-1.7-3c0-1.2,0.7-2.4,1.8-3l2.1-1.2        c0.3-0.1,0.5-0.3,0.7-0.5l0.2-0.2c0.2-0.1,0.3-0.3,0.5-0.4c0.1-0.1,0.2-0.2,0.3-0.2c0.2-0.1,0.3-0.3,0.5-0.4        c0.1-0.1,0.2-0.2,0.3-0.3c0.1-0.1,0.2-0.2,0.3-0.3c0.3-0.3,0.4-0.5,0.6-0.7c0.1-0.1,0.2-0.3,0.3-0.4c0.1-0.1,0.2-0.3,0.3-0.4        c0.1-0.2,0.3-0.3,0.4-0.5l0.2-0.3c0.2-0.2,0.3-0.4,0.4-0.6l0.2-0.3c0.2-0.3,0.4-0.6,0.5-0.9l0.1-0.2c0.1-0.2,0.3-0.5,0.4-0.8        l0.1-0.3c0.1-0.3,0.3-0.5,0.4-0.8c0,0,0-0.1,0-0.1c0.1-0.3,0.3-0.6,0.4-1l0.1-0.2c0,0,0-0.1,0-0.1c0.1-0.2,0.2-0.5,0.2-0.7        l0.1-0.4c0.1-0.2,0.1-0.4,0.2-0.6l0.2-0.9c0-0.2,0.1-0.4,0.1-0.7c0-0.2,0.1-0.4,0.1-0.6l0-0.3c0-0.3,0-0.6,0-0.9        c0-1.8-0.5-3.1-1.3-3.6l0,0l0,0c-1.7-1-2.2-3.1-1.3-4.8c1-1.7,3.1-2.2,4.8-1.3l199.5,115.9c3,1.7,4.7,5.2,4.7,9.6        c0,0.5,0,0.9-0.1,1.4c0,0.1,0,0.2,0,0.3l0,0.2c0,0.2,0,0.4-0.1,0.5c0,0.1,0,0.2-0.1,0.3c0,0.3-0.1,0.6-0.2,0.9        c0,0.2-0.1,0.3-0.1,0.4c0,0.1,0,0.2-0.1,0.3c0,0.1-0.1,0.3-0.1,0.4l-0.1,0.3c0,0.1-0.1,0.3-0.1,0.4l-0.3,0.9        c0,0.1-0.1,0.2-0.1,0.3c0,0.1-0.1,0.3-0.1,0.4l-0.3,0.7c-0.1,0.4-0.3,0.7-0.4,1.1l0,0c0,0,0,0.1,0,0.1c0,0,0,0.1,0,0.1        c-0.1,0.3-0.3,0.6-0.4,0.8l-0.5,1c-0.1,0.2-0.3,0.5-0.4,0.7l-0.1,0.2c0,0-0.1,0.1-0.1,0.1c-0.2,0.3-0.4,0.6-0.6,1        c0,0-0.1,0.1-0.1,0.2l-0.3,0.4c-0.1,0.1-0.2,0.3-0.3,0.4c-0.1,0.1-0.1,0.2-0.2,0.3c-0.1,0.2-0.2,0.3-0.4,0.5        c-0.1,0.1-0.2,0.2-0.2,0.3c-0.1,0.1-0.1,0.2-0.2,0.3c0,0-0.1,0.1-0.1,0.1c-0.2,0.2-0.3,0.4-0.5,0.6l-0.2,0.2        c-0.1,0.1-0.2,0.2-0.3,0.3c-0.3,0.3-0.5,0.6-0.8,0.8c-0.1,0.1-0.2,0.2-0.3,0.3c-0.1,0.1-0.2,0.1-0.2,0.2        c-0.2,0.2-0.3,0.3-0.4,0.4c-0.2,0.2-0.5,0.4-0.7,0.6c-0.1,0.1-0.3,0.2-0.4,0.3c-0.2,0.2-0.5,0.4-0.8,0.6        c-0.2,0.1-0.3,0.2-0.4,0.3c-0.4,0.3-0.8,0.5-1.2,0.8l-2.1,1.2C570.9,436.3,570.3,436.5,569.7,436.5z M376.9,316.9l192.8,112        l0.3-0.2c0.3-0.1,0.5-0.3,0.8-0.5l0.2-0.2c0.2-0.1,0.4-0.3,0.5-0.4c0.1-0.1,0.2-0.2,0.3-0.2c0.2-0.1,0.3-0.3,0.5-0.4        c0.1-0.1,0.2-0.2,0.3-0.3l0.1-0.1c0.1-0.1,0.2-0.2,0.2-0.2c0.2-0.2,0.4-0.4,0.6-0.6c0.1-0.1,0.1-0.1,0.2-0.2l0.1-0.2        c0.1-0.1,0.2-0.3,0.3-0.4l0.2-0.2c0,0,0.1-0.1,0.1-0.1l1-1.4c0,0,0.1-0.1,0.1-0.1c0.1-0.2,0.3-0.5,0.4-0.7c0,0,0-0.1,0.1-0.1        c0,0,0-0.1,0.1-0.1c0.1-0.2,0.2-0.4,0.3-0.5l0.3-0.7c0,0,0-0.1,0.1-0.1c0.1-0.2,0.2-0.4,0.3-0.6c0,0,0-0.1,0.1-0.1        c0,0,0,0,0,0c0.1-0.2,0.2-0.5,0.3-0.8l0.8-2.5c0,0,0-0.2,0-0.2c0-0.1,0-0.2,0-0.3c0-0.2,0.1-0.4,0.1-0.6c0-0.1,0-0.2,0-0.2        l0.1-0.6c0-0.3,0-0.6,0-0.9c0-1.8-0.5-3.1-1.3-3.6L386,299.3c0,0.1,0,0.1,0,0.2c0,0.1,0,0.2,0,0.3c0,0.4-0.1,0.7-0.1,1        c0,0.3-0.1,0.6-0.2,1l0,0.1c0,0.2-0.1,0.3-0.1,0.5c0,0.2-0.1,0.3-0.1,0.5l0,0.1c-0.1,0.3-0.1,0.6-0.2,0.9        c0,0.2-0.1,0.3-0.1,0.5c-0.1,0.3-0.2,0.6-0.3,1c-0.1,0.2-0.1,0.3-0.2,0.4c-0.1,0.4-0.3,0.8-0.5,1.3c0,0,0,0.1-0.1,0.1        c-0.2,0.4-0.4,0.8-0.5,1.1l-0.2,0.4c-0.2,0.3-0.4,0.7-0.6,1l-0.1,0.2c-0.3,0.4-0.5,0.8-0.8,1.2l-0.2,0.4        c-0.2,0.3-0.4,0.6-0.6,0.8c-0.1,0.1-0.2,0.3-0.3,0.4c-0.2,0.2-0.3,0.4-0.5,0.7c-0.2,0.2-0.3,0.4-0.5,0.6        c-0.1,0.2-0.3,0.3-0.4,0.5c-0.3,0.3-0.6,0.6-0.8,0.9c-0.2,0.2-0.4,0.4-0.5,0.5c-0.1,0.1-0.3,0.3-0.4,0.4        C377.4,316.5,377.1,316.7,376.9,316.9z"/>
					</g>
                    <g>
						<g>
							<polygon class="st4" points="569.6,389.9 370.1,274 503.6,196.9 703.1,312.8        "/>
                            <path class="st3"
                                  d="M569.6,393.4c-0.6,0-1.2-0.2-1.8-0.5L368.4,277c-1.1-0.6-1.7-1.8-1.7-3c0-1.2,0.7-2.4,1.8-3l133.5-77.1         c1.1-0.6,2.4-0.6,3.5,0l199.5,115.9c1.1,0.6,1.7,1.8,1.7,3c0,1.2-0.7,2.4-1.8,3l-133.5,77.1         C570.8,393.2,570.2,393.4,569.6,393.4z M377.1,274l192.5,111.9l126.5-73L503.6,201L377.1,274z"/>
						</g>
					</g>
                    <g>
						<g>
							<polygon class="st5" points="569.7,409.4 370.2,293.5 370.1,274 569.6,389.9        "/>
                            <path class="st3"
                                  d="M569.7,412.9C569.7,412.9,569.7,412.9,569.7,412.9c-0.6,0-1.2-0.2-1.8-0.5L368.4,296.5         c-1.1-0.6-1.7-1.8-1.7-3l-0.1-19.5c0-1.3,0.7-2.4,1.8-3c1.1-0.6,2.4-0.6,3.5,0l199.5,115.9c1.1,0.6,1.7,1.8,1.7,3l0.1,19.1         c0,0.1,0,0.3,0,0.4C573.2,411.3,571.6,412.9,569.7,412.9z M373.7,291.4l192.4,111.8l0-11.4L373.7,280.1L373.7,291.4z"/>
						</g>
					</g>
                    <g>
						<g>
							<path class="st6"
                                  d="M701.1,333.5c-5.7,3.3-10.3,11.2-10.2,17.7c0,6.5,4.6,9.1,10.3,5.9l2.1-1.2l0.1,19.5l-133.5,77.1         l-0.1-19.5l2.1-1.2c5.7-3.3,10.3-11.2,10.2-17.7c0-6.5-4.6-9.1-10.3-5.9l-2.1,1.2l-0.1-19.5l133.5-77.1l0.1,19.5L701.1,333.5         z M666.8,376.9c5.7-3.3,10.3-11.2,10.2-17.7c0-6.5-4.6-9.1-10.3-5.9l-60.6,35c-5.7,3.3-10.2,11.2-10.2,17.7         c0,6.5,4.6,9.1,10.3,5.9L666.8,376.9"/>
                            <path class="st3"
                                  d="M569.8,455.9c-0.6,0-1.2-0.2-1.7-0.5c-1.1-0.6-1.8-1.8-1.8-3l-0.1-19.5c0-1.3,0.7-2.4,1.7-3l2.1-1.2         c4.6-2.7,8.5-9.4,8.5-14.7c0-1.4-0.3-3.8-2.2-3.8c-0.6,0-1.5,0.2-2.9,0.9l-2.1,1.2c-1.1,0.6-2.4,0.6-3.5,0         c-1.1-0.6-1.8-1.8-1.8-3l-0.1-19.5c0-1.3,0.7-2.4,1.8-3l133.5-77.1c1.1-0.6,2.4-0.6,3.5,0c1.1,0.6,1.8,1.8,1.8,3l0.1,19.5         c0,1.3-0.7,2.4-1.8,3l-2.1,1.2c-4.6,2.7-8.5,9.4-8.5,14.7c0,1.4,0.3,3.8,2.2,3.8h0c0.6,0,1.5-0.2,2.9-0.9l2.1-1.2         c1.1-0.6,2.4-0.6,3.5,0c1.1,0.6,1.8,1.8,1.8,3l0.1,19.5c0,1.3-0.7,2.4-1.8,3l-133.5,77.1C571,455.8,570.4,455.9,569.8,455.9z          M573.2,435l0,11.4l126.5-73l0-11.8c-1.1,0.3-2.2,0.5-3.2,0.5h0c-4.6,0-9.2-3.3-9.2-10.8c0-7.7,5.2-16.9,12-20.8l0.3-0.2         l0-11.4l-126.5,73l0,11.8c1.1-0.3,2.2-0.5,3.2-0.5c4.6,0,9.2,3.3,9.2,10.8c0,7.8-5.2,16.9-12,20.8L573.2,435z M601.6,416.8         L601.6,416.8c-4.6,0-9.2-3.3-9.2-10.8c0-7.7,5.2-16.9,12-20.8l60.6-35c2.2-1.2,4.3-1.9,6.4-1.9c4.6,0,9.2,3.3,9.2,10.8         c0,7.8-5.2,16.9-12,20.8l-60.6,35C605.8,416.2,603.6,416.8,601.6,416.8z M671.3,355.4c-0.6,0-1.5,0.2-2.9,0.9l-60.6,35         c-4.6,2.7-8.5,9.4-8.5,14.7c0,1.4,0.3,3.8,2.2,3.8l0,0c0.6,0,1.5-0.2,2.9-0.9l60.6-35c4.6-2.7,8.5-9.4,8.5-14.7         C673.5,357.8,673.2,355.4,671.3,355.4z"/>
						</g>
					</g>
				</g>
			</g>
		</g>
	</g>
</g>
</svg>
