<?xml version="1.0" encoding="UTF-8"?>
<svg xmlns="http://www.w3.org/2000/svg" xmlns:xlink="http://www.w3.org/1999/xlink" width="3200" height="3200"
     viewBox="0 0 3200 3200">
    <rect x="-320" y="-320" width="3840" height="3840" fill="rgb(92.1875%, 92.1875%, 92.1875%)" fill-opacity="1"/>
    <path fill-rule="evenodd" fill="rgb(100%, 100%, 100%)" fill-opacity="1"
          d="M 1000 1450 L 960 1470 L 1000 1490 L 1040 1470 L 1560 1730 L 1640 1690 L 1600 1670 L 1560 1690 L 960 1390 L 920 1410 Z M 1000 730 L 920 770 L 1560 1090 L 1640 1050 Z M 1640 410 L 1040 710 L 1680 1030 L 2280 730 L 1640 410 "/>
    <path fill-rule="evenodd" fill="rgb(20.800781%, 97.65625%, 89.0625%)" fill-opacity="1"
          d="M 1560 1730 L 1040 1470 L 1000 1490 L 960 1470 L 1000 1450 L 920 1410 L 920 2450 L 1560 2770 Z M 1680 1030 L 1040 710 L 1040 750 L 1640 1050 L 1640 1650 L 1600 1670 L 1640 1690 L 1640 2730 L 1680 2750 Z M 960 1390 L 960 1430 L 1000 1450 L 1000 1410 L 1560 1690 L 1560 1090 L 920 770 L 920 1370 L 960 1390 "/>
    <path fill-rule="evenodd" fill="rgb(30.589294%, 12.889099%, 73.631287%)" fill-opacity="1"
          d="M 1035.550781 701.050781 C 1035.460938 701.089844 1035.378906 701.128906 1035.289062 701.179688 L 1035.230469 701.210938 L 1035.210938 701.21875 L 1035.160156 701.25 L 1035.140625 701.261719 L 1035.089844 701.289062 L 1035.058594 701.300781 L 1035.019531 701.328125 L 1034.980469 701.351562 L 1034.949219 701.371094 C 1034.128906 701.851562 1033.398438 702.429688 1032.769531 703.101562 L 1032.738281 703.121094 L 1032.699219 703.160156 L 1032.691406 703.179688 L 1032.648438 703.21875 L 1032.628906 703.238281 L 1032.601562 703.28125 L 1032.570312 703.308594 L 1032.539062 703.339844 L 1032.511719 703.371094 L 1032.488281 703.398438 L 1032.46875 703.421875 L 1032.460938 703.441406 L 1032.441406 703.460938 L 1032.398438 703.5 L 1032.390625 703.511719 L 1032.339844 703.570312 L 1032.339844 703.578125 L 1032.289062 703.628906 C 1032.25 703.679688 1032.21875 703.71875 1032.179688 703.761719 L 1032.140625 703.820312 L 1032.089844 703.878906 L 1032.039062 703.949219 L 1031.988281 704.011719 L 1031.96875 704.039062 L 1031.949219 704.070312 L 1031.921875 704.101562 L 1031.898438 704.140625 L 1031.871094 704.171875 L 1031.851562 704.199219 L 1031.820312 704.238281 L 1031.808594 704.261719 L 1031.761719 704.328125 L 1031.730469 704.390625 C 1031.679688 704.460938 1031.628906 704.53125 1031.589844 704.601562 L 1031.511719 704.71875 L 1031.488281 704.738281 L 1031.460938 704.789062 L 1031.449219 704.820312 L 1031.421875 704.859375 L 1031.410156 704.890625 L 1031.378906 704.929688 L 1031.359375 704.960938 L 1031.339844 704.988281 L 1031.328125 705.019531 L 1031.320312 705.039062 L 1031.300781 705.058594 L 1031.289062 705.089844 L 1031.28125 705.109375 L 1031.269531 705.128906 L 1031.238281 705.191406 L 1031.191406 705.261719 L 1031.148438 705.339844 C 1031.140625 705.359375 1031.128906 705.390625 1031.121094 705.410156 L 1031.078125 705.488281 L 1031.039062 705.558594 L 1031 705.640625 L 1030.960938 705.71875 L 1030.929688 705.800781 L 1030.890625 705.871094 L 1030.878906 705.910156 C 1030.5 706.738281 1030.238281 707.628906 1030.109375 708.550781 L 1030.101562 708.601562 L 1030.089844 708.679688 L 1030.078125 708.769531 L 1030.070312 708.800781 C 1030.058594 708.921875 1030.039062 709.050781 1030.03125 709.179688 L 1030.03125 709.289062 L 1030.019531 709.328125 L 1030.019531 709.429688 L 1030.011719 709.46875 L 1030.011719 709.679688 L 1030 709.710938 L 1030 709.910156 C 1030 709.941406 1030 709.96875 1030 710 L 1030 733.820312 L 1004.46875 721.058594 C 1001.660156 719.648438 998.34375 719.648438 995.527344 721.058594 L 915.546875 761.050781 C 915.460938 761.089844 915.375 761.128906 915.292969 761.179688 L 915.234375 761.210938 L 915.214844 761.21875 L 915.160156 761.25 L 915.136719 761.261719 L 915.089844 761.289062 L 915.058594 761.300781 L 915.019531 761.328125 L 914.984375 761.351562 L 914.945312 761.371094 C 914.132812 761.851562 913.402344 762.429688 912.765625 763.101562 L 912.746094 763.121094 L 912.703125 763.160156 L 912.6875 763.179688 L 912.628906 763.238281 L 912.597656 763.28125 L 912.570312 763.308594 L 912.542969 763.339844 L 912.511719 763.371094 L 912.492188 763.398438 L 912.472656 763.421875 L 912.457031 763.441406 L 912.386719 763.511719 L 912.34375 763.570312 L 912.335938 763.578125 L 912.289062 763.628906 C 912.253906 763.679688 912.21875 763.71875 912.183594 763.761719 L 912.089844 763.878906 L 912.039062 763.949219 L 911.992188 764.011719 L 911.972656 764.039062 L 911.945312 764.070312 L 911.921875 764.101562 L 911.898438 764.140625 L 911.871094 764.171875 L 911.855469 764.199219 L 911.824219 764.238281 L 911.808594 764.261719 L 911.765625 764.328125 L 911.726562 764.390625 C 911.675781 764.460938 911.632812 764.53125 911.585938 764.601562 L 911.546875 764.660156 L 911.503906 764.71875 L 911.492188 764.738281 L 911.464844 764.789062 L 911.449219 764.820312 L 911.421875 764.859375 L 911.40625 764.890625 L 911.382812 764.929688 L 911.363281 764.960938 L 911.34375 764.988281 L 911.332031 765.019531 L 911.320312 765.039062 L 911.304688 765.058594 L 911.289062 765.089844 L 911.265625 765.128906 L 911.234375 765.191406 L 911.195312 765.261719 L 911.152344 765.339844 C 911.140625 765.359375 911.128906 765.390625 911.113281 765.410156 L 911.074219 765.488281 L 911.035156 765.558594 L 911 765.640625 L 910.964844 765.71875 L 910.925781 765.800781 L 910.890625 765.871094 L 910.875 765.910156 C 910.5 766.738281 910.238281 767.628906 910.105469 768.550781 L 910.097656 768.601562 L 910.085938 768.679688 L 910.074219 768.769531 L 910.074219 768.800781 C 910.058594 768.921875 910.042969 769.050781 910.035156 769.179688 L 910.03125 769.210938 L 910.027344 769.269531 L 910.023438 769.289062 L 910.023438 769.328125 L 910.019531 769.351562 L 910.019531 769.378906 L 910.015625 769.410156 L 910.015625 769.46875 L 910.011719 769.511719 L 910.011719 769.558594 L 910.007812 769.589844 L 910.007812 769.648438 L 910.003906 769.679688 L 910.003906 769.820312 L 910 769.839844 L 910 769.910156 C 910 769.941406 910 769.96875 910 770 L 910 1370 C 910 1373.789062 912.140625 1377.25 915.527344 1378.941406 L 937.640625 1390 L 915.546875 1401.050781 C 915.460938 1401.089844 915.375 1401.128906 915.292969 1401.179688 L 915.234375 1401.210938 L 915.214844 1401.21875 L 915.160156 1401.25 L 915.136719 1401.261719 L 915.089844 1401.289062 L 915.058594 1401.308594 L 915.019531 1401.328125 L 914.984375 1401.351562 L 914.945312 1401.371094 C 914.132812 1401.851562 913.402344 1402.429688 912.765625 1403.101562 L 912.746094 1403.121094 L 912.703125 1403.160156 L 912.6875 1403.179688 L 912.628906 1403.238281 L 912.597656 1403.28125 L 912.570312 1403.308594 L 912.542969 1403.339844 L 912.511719 1403.371094 L 912.492188 1403.398438 L 912.472656 1403.421875 L 912.457031 1403.441406 L 912.4375 1403.449219 L 912.398438 1403.5 L 912.386719 1403.511719 L 912.34375 1403.570312 L 912.335938 1403.578125 L 912.289062 1403.628906 C 912.253906 1403.679688 912.21875 1403.71875 912.183594 1403.761719 L 912.089844 1403.878906 L 912.039062 1403.949219 L 911.992188 1404.011719 L 911.972656 1404.039062 L 911.945312 1404.070312 L 911.921875 1404.101562 L 911.898438 1404.140625 L 911.871094 1404.171875 L 911.855469 1404.199219 L 911.824219 1404.238281 L 911.808594 1404.261719 L 911.765625 1404.328125 L 911.726562 1404.390625 C 911.675781 1404.460938 911.632812 1404.53125 911.585938 1404.601562 L 911.546875 1404.660156 L 911.503906 1404.71875 L 911.492188 1404.738281 L 911.464844 1404.789062 L 911.449219 1404.820312 L 911.421875 1404.859375 L 911.40625 1404.890625 L 911.382812 1404.929688 L 911.363281 1404.960938 L 911.34375 1404.988281 L 911.332031 1405.019531 L 911.320312 1405.039062 L 911.304688 1405.058594 L 911.289062 1405.089844 L 911.265625 1405.128906 L 911.234375 1405.191406 L 911.195312 1405.261719 L 911.152344 1405.339844 C 911.140625 1405.359375 911.128906 1405.390625 911.113281 1405.410156 L 911.074219 1405.488281 L 911.035156 1405.558594 L 911 1405.640625 L 910.964844 1405.71875 L 910.925781 1405.800781 L 910.890625 1405.871094 L 910.875 1405.910156 C 910.5 1406.738281 910.238281 1407.628906 910.105469 1408.550781 L 910.097656 1408.601562 L 910.085938 1408.679688 L 910.074219 1408.769531 L 910.074219 1408.800781 C 910.058594 1408.921875 910.042969 1409.050781 910.035156 1409.179688 L 910.03125 1409.210938 L 910.027344 1409.269531 L 910.023438 1409.289062 L 910.023438 1409.328125 L 910.019531 1409.351562 L 910.019531 1409.378906 L 910.015625 1409.410156 L 910.015625 1409.46875 L 910.011719 1409.511719 L 910.011719 1409.558594 L 910.007812 1409.589844 L 910.007812 1409.648438 L 910.003906 1409.679688 L 910.003906 1409.820312 L 910 1409.839844 L 910 1409.910156 C 910 1409.941406 910 1409.96875 910 1410 L 910 2450 C 910 2453.789062 912.140625 2457.25 915.527344 2458.945312 L 1555.5 2778.933594 C 1555.898438 2779.132812 1556.300781 2779.300781 1556.710938 2779.445312 L 1556.921875 2779.515625 L 1556.988281 2779.539062 L 1557.019531 2779.546875 L 1557.070312 2779.5625 L 1557.089844 2779.570312 L 1557.148438 2779.585938 L 1557.171875 2779.59375 L 1557.25 2779.613281 L 1557.300781 2779.628906 L 1557.320312 2779.636719 L 1557.378906 2779.648438 L 1557.398438 2779.65625 L 1557.449219 2779.671875 L 1557.480469 2779.675781 L 1557.558594 2779.695312 L 1557.628906 2779.714844 L 1557.710938 2779.734375 L 1557.789062 2779.753906 L 1557.839844 2779.761719 C 1558.25 2779.855469 1558.660156 2779.917969 1559.078125 2779.957031 L 1559.109375 2779.960938 L 1559.191406 2779.96875 L 1559.269531 2779.972656 L 1559.351562 2779.980469 L 1559.429688 2779.984375 L 1559.511719 2779.988281 L 1559.578125 2779.992188 L 1559.660156 2779.992188 L 1559.710938 2779.996094 L 1559.820312 2779.996094 L 1559.871094 2780 L 1560.140625 2780 L 1560.179688 2779.996094 L 1560.289062 2779.996094 L 1560.339844 2779.992188 L 1560.421875 2779.992188 L 1560.488281 2779.988281 L 1560.570312 2779.984375 L 1560.648438 2779.980469 L 1560.730469 2779.972656 L 1560.808594 2779.96875 L 1560.890625 2779.960938 L 1560.921875 2779.957031 C 1561.339844 2779.917969 1561.75 2779.855469 1562.160156 2779.761719 L 1562.210938 2779.753906 L 1562.289062 2779.734375 L 1562.371094 2779.714844 L 1562.441406 2779.695312 L 1562.519531 2779.675781 L 1562.601562 2779.65625 L 1562.679688 2779.636719 L 1562.699219 2779.628906 L 1562.75 2779.613281 L 1562.828125 2779.59375 L 1562.851562 2779.585938 L 1562.910156 2779.570312 L 1562.929688 2779.5625 L 1562.980469 2779.546875 L 1563.011719 2779.539062 L 1563.058594 2779.519531 L 1563.078125 2779.515625 L 1563.289062 2779.445312 C 1563.699219 2779.300781 1564.101562 2779.132812 1564.5 2778.933594 L 1600 2761.179688 L 1675.53125 2798.945312 C 1678.339844 2800.351562 1681.660156 2800.351562 1684.46875 2798.945312 L 2244.46875 2518.945312 C 2247.859375 2517.25 2250 2513.789062 2250 2510 L 2250 2476.179688 L 2284.46875 2458.945312 C 2287.859375 2457.25 2290 2453.789062 2290 2450 L 2290 729.679688 L 2289.988281 729.648438 L 2289.988281 729.46875 L 2289.980469 729.429688 L 2289.980469 729.289062 L 2289.96875 729.210938 L 2289.96875 729.179688 C 2289.960938 729.050781 2289.941406 728.921875 2289.929688 728.800781 L 2289.921875 728.769531 L 2289.910156 728.679688 L 2289.898438 728.601562 L 2289.890625 728.550781 C 2289.761719 727.628906 2289.5 726.738281 2289.121094 725.910156 L 2289.109375 725.871094 L 2289.070312 725.800781 L 2289.039062 725.71875 L 2289 725.640625 L 2288.960938 725.558594 L 2288.921875 725.488281 L 2288.890625 725.410156 C 2288.871094 725.390625 2288.859375 725.359375 2288.851562 725.339844 L 2288.808594 725.261719 L 2288.769531 725.199219 L 2288.761719 725.191406 L 2288.730469 725.128906 L 2288.71875 725.109375 L 2288.710938 725.089844 L 2288.699219 725.058594 L 2288.679688 725.039062 L 2288.671875 725.019531 L 2288.660156 724.988281 L 2288.640625 724.960938 L 2288.621094 724.929688 L 2288.589844 724.890625 L 2288.578125 724.859375 L 2288.550781 724.820312 L 2288.539062 724.789062 L 2288.511719 724.738281 L 2288.5 724.71875 L 2288.460938 724.671875 L 2288.449219 724.660156 L 2288.410156 724.601562 C 2288.371094 724.53125 2288.320312 724.460938 2288.28125 724.390625 L 2288.238281 724.328125 L 2288.191406 724.261719 L 2288.148438 724.199219 L 2288.128906 724.171875 L 2288.101562 724.140625 L 2288.078125 724.101562 L 2288.050781 724.070312 L 2288.03125 724.039062 L 2288.011719 724.011719 L 2287.980469 723.96875 L 2287.960938 723.949219 L 2287.921875 723.898438 L 2287.910156 723.878906 L 2287.859375 723.820312 L 2287.820312 723.761719 C 2287.78125 723.71875 2287.75 723.679688 2287.710938 723.628906 L 2287.660156 723.578125 L 2287.609375 723.511719 L 2287.601562 723.5 L 2287.558594 723.460938 L 2287.539062 723.441406 L 2287.53125 723.421875 L 2287.511719 723.398438 L 2287.488281 723.371094 L 2287.460938 723.339844 L 2287.429688 723.308594 L 2287.398438 723.28125 L 2287.371094 723.238281 L 2287.351562 723.21875 L 2287.308594 723.179688 L 2287.261719 723.121094 L 2287.238281 723.101562 C 2286.601562 722.429688 2285.871094 721.851562 2285.050781 721.371094 L 2285.019531 721.351562 L 2284.980469 721.328125 L 2284.941406 721.300781 L 2284.910156 721.289062 L 2284.859375 721.261719 L 2284.839844 721.25 L 2284.789062 721.21875 L 2284.769531 721.210938 L 2284.710938 721.179688 C 2284.621094 721.128906 2284.539062 721.089844 2284.449219 721.050781 L 1644.46875 401.058594 C 1641.660156 399.648438 1638.339844 399.648438 1635.53125 401.058594 Z M 930 1426.179688 L 930 2443.820312 L 1550 2753.820312 L 1550 1736.179688 L 1050 1486.179688 L 1050 2069.929688 C 1050 2070.160156 1050 2070.378906 1049.980469 2070.601562 L 1049.980469 2070.710938 L 1049.96875 2070.730469 C 1049.96875 2070.761719 1049.96875 2070.789062 1049.96875 2070.820312 L 1049.960938 2070.839844 L 1049.960938 2070.910156 C 1049.800781 2072.691406 1049.171875 2074.351562 1048.179688 2075.75 L 1048.160156 2075.769531 L 1048.140625 2075.800781 L 1048.128906 2075.828125 L 1048.109375 2075.851562 L 1048.101562 2075.871094 L 1048.089844 2075.878906 C 1047.738281 2076.359375 1047.339844 2076.808594 1046.910156 2077.230469 L 1046.878906 2077.261719 L 1046.828125 2077.300781 L 1046.820312 2077.308594 C 1046.800781 2077.339844 1046.769531 2077.359375 1046.75 2077.378906 L 1046.738281 2077.390625 L 1046.699219 2077.421875 L 1046.621094 2077.5 C 1045.171875 2078.769531 1043.351562 2079.640625 1041.328125 2079.910156 L 1041.261719 2079.921875 L 1041.238281 2079.921875 C 1041.210938 2079.929688 1041.179688 2079.929688 1041.148438 2079.929688 L 1041.140625 2079.941406 L 1041.070312 2079.941406 L 1041.039062 2079.949219 L 1040.980469 2079.949219 L 1040.898438 2079.960938 C 1040.859375 2079.960938 1040.828125 2079.96875 1040.789062 2079.96875 L 1040.730469 2079.96875 L 1040.679688 2079.980469 L 1040.648438 2079.980469 C 1040.621094 2079.980469 1040.589844 2079.980469 1040.558594 2079.980469 L 1040.539062 2079.988281 L 1040.460938 2079.988281 C 1038.671875 2080.070312 1036.949219 2079.671875 1035.441406 2078.898438 L 995.527344 2058.941406 C 992.714844 2057.539062 990.722656 2054.890625 990.160156 2051.789062 L 950.160156 1831.789062 C 950.054688 1831.199219 950 1830.601562 950 1830 L 950 1469.839844 L 950.003906 1469.820312 L 950.003906 1469.679688 L 950.007812 1469.648438 L 950.007812 1469.589844 L 950.011719 1469.558594 L 950.011719 1469.511719 L 950.015625 1469.46875 L 950.015625 1469.410156 L 950.019531 1469.378906 L 950.019531 1469.351562 L 950.023438 1469.328125 L 950.023438 1469.289062 L 950.03125 1469.210938 L 950.035156 1469.179688 C 950.042969 1469.050781 950.058594 1468.921875 950.074219 1468.800781 L 950.074219 1468.769531 L 950.085938 1468.679688 L 950.097656 1468.601562 L 950.105469 1468.550781 C 950.238281 1467.628906 950.5 1466.738281 950.875 1465.910156 L 950.890625 1465.871094 L 950.925781 1465.800781 L 950.964844 1465.71875 L 951 1465.640625 L 951.035156 1465.558594 L 951.074219 1465.488281 L 951.113281 1465.410156 C 951.128906 1465.390625 951.140625 1465.359375 951.152344 1465.339844 L 951.195312 1465.261719 L 951.226562 1465.199219 L 951.234375 1465.191406 L 951.265625 1465.128906 L 951.289062 1465.089844 L 951.304688 1465.058594 L 951.320312 1465.039062 L 951.332031 1465.019531 L 951.34375 1464.988281 L 951.363281 1464.960938 L 951.382812 1464.929688 L 951.40625 1464.890625 L 951.421875 1464.859375 L 951.449219 1464.820312 L 951.464844 1464.789062 L 951.492188 1464.738281 L 951.503906 1464.71875 L 951.539062 1464.671875 L 951.585938 1464.601562 C 951.632812 1464.53125 951.675781 1464.460938 951.726562 1464.390625 L 951.765625 1464.328125 L 951.808594 1464.261719 L 951.855469 1464.199219 L 951.871094 1464.171875 L 951.898438 1464.140625 L 951.921875 1464.101562 L 951.945312 1464.070312 L 951.972656 1464.039062 L 951.992188 1464.011719 L 952.023438 1463.96875 L 952.039062 1463.949219 L 952.078125 1463.898438 L 952.089844 1463.878906 L 952.183594 1463.761719 C 952.21875 1463.71875 952.253906 1463.679688 952.289062 1463.628906 L 952.335938 1463.578125 L 952.386719 1463.511719 L 952.398438 1463.5 L 952.4375 1463.449219 L 952.457031 1463.441406 L 952.472656 1463.421875 L 952.492188 1463.398438 L 952.511719 1463.371094 L 952.542969 1463.339844 L 952.570312 1463.308594 L 952.597656 1463.28125 L 952.628906 1463.238281 L 952.765625 1463.101562 C 953.402344 1462.429688 954.132812 1461.851562 954.945312 1461.371094 L 954.984375 1461.351562 L 955.019531 1461.328125 L 955.058594 1461.308594 L 955.089844 1461.289062 L 955.136719 1461.261719 L 955.160156 1461.25 L 955.214844 1461.21875 L 955.234375 1461.210938 L 955.292969 1461.179688 C 955.375 1461.128906 955.460938 1461.089844 955.546875 1461.050781 L 977.640625 1450 Z M 1050 743.820312 L 1644.449219 1041.050781 C 1644.539062 1041.089844 1644.621094 1041.128906 1644.710938 1041.179688 L 1644.769531 1041.210938 L 1644.789062 1041.21875 L 1644.839844 1041.25 L 1644.859375 1041.261719 L 1644.910156 1041.289062 L 1644.941406 1041.300781 L 1644.980469 1041.328125 L 1645.019531 1041.351562 L 1645.050781 1041.371094 C 1645.289062 1041.511719 1645.519531 1041.660156 1645.75 1041.820312 L 1645.828125 1041.871094 L 1645.890625 1041.921875 L 1645.96875 1041.96875 L 1646.039062 1042.03125 L 1646.101562 1042.078125 L 1646.171875 1042.128906 L 1646.238281 1042.191406 L 1646.308594 1042.238281 L 1646.378906 1042.289062 L 1646.441406 1042.351562 L 1646.511719 1042.410156 L 1646.570312 1042.460938 L 1646.640625 1042.519531 L 1646.699219 1042.578125 L 1646.769531 1042.628906 L 1646.828125 1042.691406 L 1646.890625 1042.75 L 1646.949219 1042.808594 L 1647.019531 1042.871094 L 1647.078125 1042.929688 L 1647.140625 1042.988281 L 1647.199219 1043.058594 L 1647.300781 1043.160156 L 1647.308594 1043.179688 L 1647.351562 1043.21875 L 1647.371094 1043.238281 L 1647.398438 1043.28125 L 1647.429688 1043.308594 L 1647.460938 1043.339844 L 1647.488281 1043.371094 L 1647.511719 1043.398438 L 1647.53125 1043.421875 L 1647.539062 1043.441406 L 1647.558594 1043.460938 L 1647.601562 1043.5 L 1647.609375 1043.511719 L 1647.660156 1043.570312 L 1647.660156 1043.578125 L 1647.710938 1043.628906 C 1647.75 1043.679688 1647.78125 1043.71875 1647.820312 1043.761719 L 1647.859375 1043.820312 L 1647.910156 1043.878906 L 1647.960938 1043.949219 L 1648.011719 1044.011719 L 1648.03125 1044.039062 L 1648.050781 1044.070312 L 1648.078125 1044.101562 L 1648.101562 1044.140625 L 1648.128906 1044.171875 L 1648.148438 1044.199219 L 1648.179688 1044.238281 L 1648.191406 1044.261719 L 1648.238281 1044.328125 L 1648.28125 1044.390625 C 1648.320312 1044.460938 1648.371094 1044.53125 1648.410156 1044.601562 L 1648.488281 1044.71875 L 1648.511719 1044.738281 L 1648.539062 1044.789062 L 1648.550781 1044.820312 L 1648.578125 1044.859375 L 1648.589844 1044.890625 L 1648.621094 1044.929688 L 1648.640625 1044.960938 L 1648.660156 1044.988281 L 1648.671875 1045.019531 L 1648.679688 1045.039062 L 1648.699219 1045.058594 L 1648.710938 1045.089844 L 1648.71875 1045.109375 L 1648.730469 1045.128906 L 1648.769531 1045.191406 L 1648.808594 1045.261719 L 1648.851562 1045.339844 L 1648.890625 1045.410156 L 1648.921875 1045.488281 L 1648.960938 1045.558594 L 1649 1045.640625 L 1649.039062 1045.71875 L 1649.070312 1045.800781 L 1649.109375 1045.871094 L 1649.140625 1045.949219 L 1649.179688 1046.03125 L 1649.210938 1046.109375 L 1649.238281 1046.191406 L 1649.28125 1046.269531 L 1649.308594 1046.351562 L 1649.339844 1046.429688 L 1649.371094 1046.511719 L 1649.398438 1046.589844 L 1649.429688 1046.671875 L 1649.460938 1046.75 L 1649.488281 1046.828125 L 1649.511719 1046.910156 L 1649.539062 1046.988281 L 1649.558594 1047.078125 L 1649.589844 1047.160156 L 1649.609375 1047.238281 L 1649.640625 1047.328125 L 1649.660156 1047.410156 L 1649.679688 1047.488281 L 1649.699219 1047.578125 L 1649.71875 1047.660156 L 1649.738281 1047.738281 L 1649.761719 1047.828125 L 1649.78125 1047.910156 L 1649.800781 1048 L 1649.808594 1048.078125 L 1649.828125 1048.171875 L 1649.851562 1048.25 L 1649.859375 1048.339844 L 1649.878906 1048.421875 L 1649.890625 1048.511719 L 1649.898438 1048.601562 L 1649.910156 1048.679688 L 1649.921875 1048.769531 L 1649.941406 1048.859375 L 1649.941406 1048.941406 L 1649.949219 1049.03125 L 1649.960938 1049.121094 L 1649.96875 1049.210938 L 1649.96875 1049.269531 L 1649.980469 1049.289062 L 1649.980469 1049.429688 L 1649.988281 1049.46875 L 1649.988281 1049.679688 L 1650 1049.710938 L 1650 1049.910156 C 1650 1049.941406 1650 1049.96875 1650 1050 L 1650 1650 C 1650 1650.238281 1649.988281 1650.46875 1649.980469 1650.710938 L 1649.96875 1650.789062 L 1649.960938 1650.878906 L 1649.949219 1650.96875 L 1649.941406 1651.058594 L 1649.941406 1651.140625 L 1649.921875 1651.230469 L 1649.910156 1651.320312 L 1649.898438 1651.398438 L 1649.890625 1651.488281 L 1649.878906 1651.570312 L 1649.859375 1651.660156 L 1649.851562 1651.75 L 1649.828125 1651.828125 L 1649.808594 1651.921875 L 1649.800781 1652 L 1649.78125 1652.089844 L 1649.761719 1652.171875 L 1649.738281 1652.261719 L 1649.71875 1652.339844 L 1649.699219 1652.421875 L 1649.679688 1652.511719 L 1649.660156 1652.589844 L 1649.640625 1652.671875 L 1649.609375 1652.761719 L 1649.589844 1652.839844 L 1649.558594 1652.921875 L 1649.539062 1653.011719 L 1649.511719 1653.089844 L 1649.488281 1653.171875 L 1649.460938 1653.25 L 1649.429688 1653.328125 L 1649.398438 1653.410156 L 1649.371094 1653.488281 L 1649.339844 1653.570312 L 1649.308594 1653.648438 L 1649.28125 1653.730469 L 1649.238281 1653.808594 L 1649.210938 1653.890625 L 1649.179688 1653.96875 L 1649.140625 1654.050781 L 1649.109375 1654.128906 L 1649.070312 1654.199219 L 1649.039062 1654.28125 L 1649 1654.359375 L 1648.960938 1654.441406 L 1648.921875 1654.511719 L 1648.890625 1654.589844 L 1648.851562 1654.660156 L 1648.808594 1654.738281 L 1648.769531 1654.808594 L 1648.71875 1654.890625 L 1648.679688 1654.960938 L 1648.640625 1655.039062 L 1648.589844 1655.109375 L 1648.550781 1655.179688 L 1648.511719 1655.261719 L 1648.460938 1655.328125 L 1648.421875 1655.398438 L 1648.320312 1655.539062 L 1648.269531 1655.621094 L 1648.230469 1655.691406 L 1648.179688 1655.761719 L 1648.128906 1655.828125 L 1648.078125 1655.898438 L 1648.03125 1655.960938 L 1647.980469 1656.03125 L 1647.921875 1656.101562 L 1647.871094 1656.171875 L 1647.820312 1656.238281 L 1647.761719 1656.300781 L 1647.710938 1656.371094 L 1647.660156 1656.429688 L 1647.601562 1656.5 L 1647.539062 1656.558594 L 1647.488281 1656.628906 L 1647.429688 1656.691406 L 1647.371094 1656.761719 L 1647.308594 1656.820312 L 1647.261719 1656.878906 L 1647.199219 1656.941406 L 1647.140625 1657.011719 L 1647.078125 1657.070312 L 1647.019531 1657.128906 L 1646.949219 1657.191406 L 1646.890625 1657.25 L 1646.828125 1657.308594 L 1646.769531 1657.359375 L 1646.699219 1657.421875 L 1646.640625 1657.480469 L 1646.570312 1657.539062 L 1646.511719 1657.589844 L 1646.441406 1657.648438 L 1646.378906 1657.710938 L 1646.308594 1657.761719 L 1646.238281 1657.808594 L 1646.171875 1657.871094 L 1646.101562 1657.921875 L 1646.039062 1657.96875 L 1645.96875 1658.03125 L 1645.890625 1658.078125 L 1645.828125 1658.128906 L 1645.75 1658.179688 L 1645.609375 1658.28125 L 1645.539062 1658.328125 L 1645.46875 1658.371094 L 1645.390625 1658.421875 L 1645.320312 1658.46875 L 1645.238281 1658.519531 L 1645.171875 1658.558594 L 1645.089844 1658.609375 L 1645.019531 1658.648438 L 1644.941406 1658.691406 L 1644.859375 1658.738281 L 1644.789062 1658.78125 L 1644.710938 1658.820312 L 1644.628906 1658.859375 L 1644.550781 1658.898438 L 1644.46875 1658.941406 L 1622.359375 1670 L 1644.449219 1681.050781 C 1644.539062 1681.089844 1644.621094 1681.128906 1644.710938 1681.179688 L 1644.769531 1681.210938 L 1644.789062 1681.21875 L 1644.839844 1681.25 L 1644.859375 1681.261719 L 1644.910156 1681.289062 L 1644.941406 1681.308594 L 1644.980469 1681.328125 L 1645.019531 1681.351562 L 1645.050781 1681.371094 C 1645.121094 1681.410156 1645.179688 1681.449219 1645.238281 1681.480469 L 1645.320312 1681.53125 L 1645.390625 1681.578125 L 1645.46875 1681.621094 L 1645.539062 1681.671875 L 1645.609375 1681.71875 L 1645.75 1681.820312 L 1645.828125 1681.871094 L 1645.890625 1681.921875 L 1645.96875 1681.96875 L 1646.039062 1682.03125 L 1646.101562 1682.078125 L 1646.171875 1682.128906 L 1646.238281 1682.191406 L 1646.308594 1682.238281 L 1646.378906 1682.289062 L 1646.441406 1682.351562 L 1646.511719 1682.410156 L 1646.570312 1682.460938 L 1646.640625 1682.519531 L 1646.699219 1682.578125 L 1646.769531 1682.628906 L 1646.828125 1682.691406 L 1646.890625 1682.75 L 1646.949219 1682.808594 L 1647.019531 1682.871094 L 1647.078125 1682.929688 L 1647.140625 1682.988281 L 1647.199219 1683.058594 L 1647.300781 1683.160156 L 1647.308594 1683.179688 L 1647.351562 1683.21875 L 1647.371094 1683.238281 L 1647.398438 1683.28125 L 1647.429688 1683.308594 L 1647.460938 1683.339844 L 1647.488281 1683.371094 L 1647.511719 1683.398438 L 1647.53125 1683.421875 L 1647.539062 1683.441406 L 1647.558594 1683.460938 L 1647.601562 1683.5 L 1647.609375 1683.511719 L 1647.660156 1683.570312 L 1647.660156 1683.578125 L 1647.710938 1683.628906 C 1647.75 1683.679688 1647.78125 1683.71875 1647.820312 1683.761719 L 1647.859375 1683.820312 L 1647.910156 1683.878906 L 1647.960938 1683.949219 L 1648.011719 1684.011719 L 1648.03125 1684.039062 L 1648.050781 1684.070312 L 1648.078125 1684.101562 L 1648.101562 1684.140625 L 1648.128906 1684.171875 L 1648.148438 1684.199219 L 1648.179688 1684.238281 L 1648.191406 1684.261719 L 1648.238281 1684.328125 L 1648.28125 1684.390625 C 1648.320312 1684.460938 1648.371094 1684.53125 1648.410156 1684.601562 L 1648.488281 1684.71875 L 1648.511719 1684.738281 L 1648.539062 1684.789062 L 1648.550781 1684.820312 L 1648.578125 1684.859375 L 1648.589844 1684.890625 L 1648.621094 1684.929688 L 1648.640625 1684.960938 L 1648.660156 1684.988281 L 1648.671875 1685.019531 L 1648.679688 1685.039062 L 1648.699219 1685.058594 L 1648.710938 1685.089844 L 1648.71875 1685.109375 L 1648.730469 1685.128906 L 1648.769531 1685.191406 L 1648.808594 1685.261719 L 1648.851562 1685.339844 L 1648.890625 1685.410156 L 1648.921875 1685.488281 L 1648.960938 1685.558594 L 1649 1685.640625 L 1649.039062 1685.71875 L 1649.070312 1685.800781 L 1649.109375 1685.871094 L 1649.140625 1685.949219 L 1649.179688 1686.03125 L 1649.210938 1686.109375 L 1649.238281 1686.191406 L 1649.28125 1686.269531 L 1649.308594 1686.351562 L 1649.339844 1686.429688 L 1649.371094 1686.511719 L 1649.398438 1686.589844 L 1649.429688 1686.671875 L 1649.460938 1686.75 L 1649.488281 1686.828125 L 1649.511719 1686.910156 L 1649.539062 1686.988281 L 1649.558594 1687.078125 L 1649.589844 1687.160156 L 1649.609375 1687.238281 L 1649.640625 1687.328125 L 1649.660156 1687.410156 L 1649.679688 1687.488281 L 1649.699219 1687.578125 L 1649.71875 1687.660156 L 1649.738281 1687.738281 L 1649.761719 1687.828125 L 1649.78125 1687.910156 L 1649.800781 1688 L 1649.808594 1688.078125 L 1649.828125 1688.171875 L 1649.851562 1688.25 L 1649.859375 1688.339844 L 1649.878906 1688.421875 L 1649.890625 1688.511719 L 1649.898438 1688.601562 L 1649.910156 1688.679688 L 1649.921875 1688.769531 L 1649.941406 1688.859375 L 1649.941406 1688.941406 L 1649.949219 1689.03125 L 1649.960938 1689.121094 L 1649.96875 1689.210938 L 1649.96875 1689.269531 L 1649.980469 1689.289062 L 1649.980469 1689.429688 L 1649.988281 1689.46875 L 1649.988281 1689.679688 L 1650 1689.710938 L 1650 2723.820312 L 1670 2733.820312 L 1670 1036.179688 L 1050 726.179688 Z M 970 1486.179688 L 990 1496.179688 L 990 1850 C 990 1850.601562 990.054688 1851.199219 990.160156 1851.789062 L 1026.578125 2052.109375 L 1008.941406 2043.289062 L 970 1829.101562 Z M 1022.359375 1450 L 1044.449219 1461.050781 L 1044.480469 1461.058594 L 1044.5 1461.070312 L 1560 1718.820312 L 1617.640625 1690 L 1600 1681.179688 L 1564.5 1698.929688 C 1564.101562 1699.128906 1563.699219 1699.300781 1563.289062 1699.441406 L 1563.230469 1699.460938 L 1563.160156 1699.488281 L 1563.078125 1699.511719 L 1563.011719 1699.539062 L 1562.980469 1699.539062 L 1562.929688 1699.558594 L 1562.910156 1699.570312 L 1562.851562 1699.578125 L 1562.828125 1699.589844 L 1562.78125 1699.609375 L 1562.75 1699.609375 L 1562.699219 1699.628906 L 1562.679688 1699.640625 L 1562.628906 1699.648438 L 1562.601562 1699.660156 L 1562.550781 1699.671875 L 1562.441406 1699.699219 L 1562.371094 1699.71875 L 1562.289062 1699.730469 L 1562.210938 1699.75 L 1562.160156 1699.761719 C 1561.78125 1699.851562 1561.390625 1699.910156 1561.011719 1699.949219 L 1560.96875 1699.949219 L 1560.890625 1699.960938 L 1560.808594 1699.96875 L 1560.730469 1699.96875 L 1560.648438 1699.980469 L 1560.570312 1699.980469 L 1560.488281 1699.988281 L 1560.339844 1699.988281 L 1560.289062 1700 L 1559.710938 1700 L 1559.660156 1699.988281 L 1559.511719 1699.988281 L 1559.429688 1699.980469 L 1559.351562 1699.980469 L 1559.269531 1699.96875 L 1559.191406 1699.96875 L 1559.109375 1699.960938 L 1559.03125 1699.949219 L 1558.988281 1699.949219 C 1558.609375 1699.910156 1558.21875 1699.851562 1557.839844 1699.761719 L 1557.789062 1699.75 L 1557.710938 1699.730469 L 1557.628906 1699.71875 L 1557.558594 1699.699219 L 1557.480469 1699.679688 L 1557.398438 1699.660156 L 1557.320312 1699.640625 L 1557.300781 1699.628906 L 1557.25 1699.609375 L 1557.21875 1699.609375 L 1557.171875 1699.589844 L 1557.148438 1699.578125 L 1557.089844 1699.570312 L 1557.070312 1699.558594 L 1557.019531 1699.539062 L 1556.988281 1699.539062 L 1556.941406 1699.519531 L 1556.921875 1699.511719 L 1556.839844 1699.488281 L 1556.769531 1699.460938 L 1556.710938 1699.441406 C 1556.300781 1699.300781 1555.898438 1699.128906 1555.5 1698.929688 L 1040 1441.179688 Z M 930 1363.820312 L 950 1373.820312 L 950 1190 C 950 1189.070312 950.128906 1188.148438 950.386719 1187.25 L 990.386719 1047.25 C 991.203125 1044.390625 993.25 1042.039062 995.972656 1040.851562 C 998.632812 1039.679688 1001.660156 1039.71875 1004.28125 1040.960938 C 1004.339844 1040.988281 1004.410156 1041.019531 1004.46875 1041.058594 L 1044.320312 1060.980469 C 1044.839844 1061.230469 1045.339844 1061.519531 1045.800781 1061.859375 L 1045.839844 1061.878906 L 1045.871094 1061.910156 L 1045.890625 1061.921875 L 1045.921875 1061.941406 L 1045.929688 1061.949219 L 1045.949219 1061.960938 C 1046.929688 1062.691406 1047.761719 1063.578125 1048.398438 1064.578125 C 1049.140625 1065.71875 1049.648438 1067.019531 1049.871094 1068.410156 L 1049.878906 1068.421875 L 1049.890625 1068.511719 C 1049.96875 1069.050781 1050.011719 1069.601562 1050 1070.148438 L 1050 1423.820312 L 1550 1673.820312 L 1550 1096.179688 L 1485.609375 1063.980469 L 930 786.179688 Z M 982.359375 1470 L 1000 1478.820312 L 1017.640625 1470 L 1000 1461.179688 Z M 1028.109375 1075.230469 L 1006.308594 1064.328125 L 970 1191.398438 L 970 1423.820312 L 990 1433.820312 L 990 1210 C 990 1209.070312 990.128906 1208.148438 990.386719 1207.25 Z M 942.359375 1410 L 950 1413.820312 L 950 1406.179688 Z M 942.359375 770 L 1560 1078.820312 L 1617.640625 1050 L 1000 741.179688 Z M 2257.640625 730 L 1680 1018.820312 L 1062.359375 710 L 1640 421.179688 L 2257.640625 730 "/>
</svg>
