<?xml version="1.0" encoding="utf-8"?>
<!-- Generator: Adobe Illustrator 16.0.0, SVG Export Plug-In . SVG Version: 6.00 Build 0)  -->
<!DOCTYPE svg PUBLIC "-//W3C//DTD SVG 1.1//EN" "http://www.w3.org/Graphics/SVG/1.1/DTD/svg11.dtd">
<svg xmlns="http://www.w3.org/2000/svg" xmlns:xlink="http://www.w3.org/1999/xlink" version="1.1" id="Layer_2" x="0px"
     y="0px" width="1400px" height="980px" viewBox="0 0 1400 980" enable-background="new 0 0 1400 980"
     xml:space="preserve">

<g>
	<path fill="#CCCCCC"
          d="M295.2,382.7v-8l2.8-2.8c0.3-0.3,0.5-0.8,0.5-1.3v-13h4.7v13c0,0.5,0.2,0.9,0.5,1.3l2.8,2.8v6.4   c-0.2,0.5-0.2,1.1-0.2,1.6c0,3.1,2.6,5.7,5.7,5.7c3.1,0,5.7-2.6,5.7-5.7v-8l2.8-2.8c0.3-0.3,0.5-0.8,0.5-1.3v-13h4.7v13   c0,0.5,0.2,0.9,0.5,1.3l2.8,2.8v6.4c-0.2,0.5-0.2,1.1-0.2,1.6c0,3.1,2.6,5.7,5.7,5.7s5.7-2.6,5.7-5.7v-8l2.8-2.8   c0.3-0.3,0.5-0.8,0.5-1.3v-13h6.2c3.7,0,6.7-3,6.7-6.7v-6.2h13c0.5,0,0.9-0.2,1.3-0.5l2.8-2.8h8c3.1,0,5.7-2.6,5.7-5.7   c0-3.1-2.6-5.7-5.7-5.7c-0.5,0-1.1,0.1-1.6,0.2h-6.4l-2.8-2.8c-0.3-0.3-0.8-0.5-1.3-0.5h-13V322h13c0.5,0,0.9-0.2,1.3-0.5l2.8-2.8   h8c3.1,0,5.7-2.6,5.7-5.7c0-3.1-2.6-5.7-5.7-5.7c-0.5,0-1.1,0.1-1.6,0.2h-6.4l-2.8-2.8c-0.3-0.3-0.8-0.5-1.3-0.5h-13v-4.7h13   c0.5,0,0.9-0.2,1.3-0.5l2.8-2.8h8c3.1,0,5.7-2.6,5.7-5.7c0-3.7-3.5-6.6-7.3-5.5h-6.4l-2.8-2.8c-0.3-0.3-0.8-0.5-1.3-0.5h-13v-4.7   h13c0.5,0,0.9-0.2,1.3-0.5l2.8-2.8h8c3.1,0,5.7-2.6,5.7-5.7c0-3.7-3.5-6.6-7.3-5.5h-6.4l-2.8-2.8c-0.3-0.3-0.8-0.5-1.3-0.5h-13   v-4.7h13c0.5,0,0.9-0.2,1.3-0.5l2.8-2.8h8c3.1,0,5.7-2.6,5.7-5.7c0-3.7-3.5-6.6-7.3-5.5h-6.4l-2.8-2.8c-0.3-0.3-0.8-0.5-1.3-0.5   h-13v-4.7h13c0.5,0,0.9-0.2,1.3-0.5l2.8-2.8h8c3.1,0,5.7-2.6,5.7-5.7c0-3.7-3.4-6.6-7.3-5.5h-6.4l-2.8-2.8   c-0.3-0.3-0.8-0.5-1.3-0.5h-13V209h13c0.5,0,0.9-0.2,1.3-0.5l2.8-2.8h8c3.1,0,5.7-2.6,5.7-5.7c0-3.7-3.5-6.6-7.3-5.5h-6.4l-2.8-2.8   c-0.3-0.3-0.8-0.5-1.3-0.5h-13v-6.2c0-3.7-3-6.7-6.7-6.7h-6.2v-13c0-0.5-0.2-0.9-0.5-1.3l-2.8-2.8v-8c0-3.1-2.6-5.7-5.7-5.7   s-5.7,2.6-5.7,5.7c0,0.5,0.1,1.1,0.2,1.6v6.4l-2.8,2.8c-0.3,0.3-0.5,0.8-0.5,1.3v13h-4.7v-13c0-0.5-0.2-0.9-0.5-1.3l-2.8-2.8v-8   c0-3.1-2.6-5.7-5.7-5.7c-3.1,0-5.7,2.6-5.7,5.7c0,0.5,0.1,1,0.2,1.6v6.4l-2.8,2.8c-0.3,0.3-0.5,0.8-0.5,1.3v13h-4.7v-13   c0-0.5-0.2-0.9-0.5-1.3l-2.8-2.8v-8c0-3.1-2.6-5.7-5.7-5.7c-3.1,0-5.7,2.6-5.7,5.7c0,0.5,0.1,1,0.2,1.6v6.4l-2.8,2.8   c-0.3,0.3-0.5,0.8-0.5,1.3v13H276v-13c0-0.5-0.2-0.9-0.5-1.3l-2.8-2.8v-8c0-3.1-2.5-5.6-5.6-5.7v0c0,0-0.1,0-0.1,0l0,0   c-3.1,0-5.7,2.6-5.7,5.7c0,0.5,0.1,1.1,0.2,1.6v6.4l-2.8,2.8c-0.3,0.3-0.5,0.8-0.5,1.3v13h-4.7v-13c0-0.5-0.2-0.9-0.5-1.3L250,161   v-8c0-1.2-0.4-2.3-1-3.2c-1-1.5-2.8-2.5-4.7-2.5l0,0c-3.1,0-5.7,2.6-5.7,5.7c0,0.5,0.1,1,0.2,1.6v6.4l-2.8,2.8   c-0.3,0.3-0.5,0.8-0.5,1.3v13h-4.7v-13c0-0.5-0.2-0.9-0.5-1.3l-2.8-2.8v-8c0-3.1-2.6-5.7-5.7-5.7l0,0c-3.1,0-5.7,2.6-5.7,5.7   c0,0.5,0.1,1,0.2,1.6v6.4l-2.8,2.8c-0.3,0.3-0.5,0.8-0.5,1.3v13h-4.7v-13c0-0.5-0.2-0.9-0.5-1.3l-2.8-2.8v-8c0-3.1-2.6-5.7-5.7-5.7   l0,0c-3.1,0-5.7,2.6-5.7,5.7c0,0.5,0.1,1,0.2,1.6v6.4l-2.8,2.8c-0.3,0.3-0.5,0.8-0.5,1.3v13h-6.2l0,0c-2.8,0-5.2,1.7-6.2,4.1   c-0.3,0.8-0.5,1.7-0.5,2.6v6.2h-13l0,0c-0.5,0-0.9,0.2-1.3,0.5l-2.8,2.8h-6.4c-0.5-0.1-0.9-0.2-1.4-0.2c-3.2-0.1-5.9,2.5-5.9,5.7   c0,3.1,2.6,5.7,5.7,5.7l0,0h8l2.8,2.8c0.3,0.3,0.8,0.5,1.3,0.5l0,0h13v4.7h-13l0,0c-0.5,0-0.9,0.2-1.3,0.5l-2.8,2.8h-6.4   c-0.5-0.1-1-0.2-1.4-0.2c-2.1-0.1-3.9,1-4.9,2.6c-0.6,0.9-0.9,2-0.9,3.1c0,3.1,2.6,5.7,5.7,5.7l0,0h8l2.8,2.8   c0.3,0.3,0.8,0.5,1.3,0.5l0,0h13v4.7h-13l0,0c-0.5,0-0.9,0.2-1.3,0.5l-2.8,2.8h-6.4c-0.5-0.1-0.9-0.2-1.4-0.2c-3-0.1-5.5,2.1-5.8,5   c0,0.2,0,0.4,0,0.7c0,3.1,2.6,5.7,5.7,5.7l0,0h8l2.8,2.8c0.3,0.3,0.8,0.5,1.3,0.5l0,0h13v4.7h-13l0,0c-0.5,0-0.9,0.2-1.3,0.5   l-2.8,2.8h-6.4c-0.5-0.1-0.9-0.2-1.4-0.2c-3.2-0.1-5.9,2.5-5.9,5.7c0,3.1,2.6,5.7,5.7,5.7l0,0h8l2.8,2.8c0.3,0.3,0.8,0.5,1.3,0.5   l0,0h13v4.7h-13l0,0c-0.5,0-0.9,0.2-1.3,0.5l-2.8,2.8h-6.4c-0.5-0.1-0.9-0.2-1.4-0.2c-2.7-0.1-5.1,1.8-5.7,4.4   c-0.1,0.4-0.2,0.9-0.2,1.3c0,3.1,2.6,5.7,5.7,5.7l0,0h8l2.8,2.8c0.3,0.3,0.8,0.5,1.3,0.5l0,0h13v4.7h-13l0,0   c-0.5,0-0.9,0.2-1.3,0.5l-2.8,2.8h-6.4c-0.5-0.2-1-0.2-1.6-0.2l0,0c-3.1,0-5.7,2.6-5.7,5.7c0,3.1,2.6,5.7,5.7,5.7l0,0h8l2.8,2.8   c0.3,0.3,0.8,0.5,1.3,0.5l0,0h13v4.7h-13l0,0c-0.5,0-0.9,0.2-1.3,0.5l-2.8,2.8h-6.4c-0.5-0.2-1-0.2-1.6-0.2l0,0   c-3.1,0-5.7,2.6-5.7,5.7c0,3.1,2.6,5.7,5.7,5.7l0,0h8l2.8,2.8c0.3,0.3,0.8,0.5,1.3,0.5l0,0h13v6.2c0,0.9,0.2,1.8,0.5,2.6   c1,2.4,3.4,4.1,6.2,4.1l0,0h6.2v13c0,0.5,0.2,0.9,0.5,1.3l2.8,2.8v6.4c-0.2,0.5-0.2,1.1-0.2,1.6c0,3.1,2.6,5.7,5.7,5.7l0,0   c3.1,0,5.7-2.6,5.7-5.7v-8l2.8-2.8c0.3-0.3,0.5-0.8,0.5-1.3v-13h4.7v13c0,0.5,0.2,0.9,0.5,1.3l2.8,2.8v6.4   c-0.2,0.5-0.2,1.1-0.2,1.6c0,3.1,2.6,5.7,5.7,5.7l0,0c3.1,0,5.7-2.6,5.7-5.7v-8l2.8-2.8c0.3-0.3,0.5-0.8,0.5-1.3v-13h4.7v13   c0,0.5,0.2,0.9,0.5,1.3l2.8,2.8v6.4c-0.2,0.5-0.2,1.1-0.2,1.6c0,3.1,2.6,5.7,5.7,5.7l0,0c2,0,3.7-1,4.7-2.5c0.6-0.9,1-2,1-3.2v-8   l2.8-2.8c0.3-0.3,0.5-0.8,0.5-1.3v-13h4.7v13c0,0.5,0.2,0.9,0.5,1.3l2.8,2.8v6.4c-0.2,0.5-0.2,1-0.2,1.6c0,3.1,2.6,5.7,5.7,5.7l0,0   c0,0,0.1,0,0.1,0v0c3.1-0.1,5.6-2.6,5.6-5.7v-8l2.8-2.8c0.3-0.3,0.5-0.8,0.5-1.3v-13h4.7v13c0,0.5,0.2,0.9,0.5,1.3l2.8,2.8v6.4   c-0.2,0.5-0.2,1.1-0.2,1.6c0,3.1,2.6,5.7,5.7,5.7C292.7,388.4,295.2,385.8,295.2,382.7z M267.1,294h-26.1v-52.3h26.1h26.1V294   H267.1z"/>
    <g>
		<g>
			<path fill="#FBB03B"
                  d="M194.1,152.8V144c0-2.1-1.7-3.9-3.9-3.9s-3.9,1.7-3.9,3.9c0,0.5,0.1,0.9,0.2,1.3v7.4l-3.4,3.4v14.8h6.1h2     h6.1v-14.8L194.1,152.8z"/>
            <path fill="#560404"
                  d="M197.4,172.8h-14.3c-1,0-1.8-0.8-1.8-1.8v-14.8c0-0.5,0.2-0.9,0.5-1.3l2.8-2.8v-6.4     c-0.2-0.5-0.2-1-0.2-1.6c0-3.1,2.6-5.7,5.7-5.7c3.1,0,5.7,2.6,5.7,5.7v8l2.8,2.8c0.3,0.3,0.5,0.8,0.5,1.3v14.8     C199.2,171.9,198.4,172.8,197.4,172.8z M185,169.1h10.7v-12.3l-2.8-2.8c-0.3-0.3-0.5-0.8-0.5-1.3V144c0-1.1-0.9-2.1-2.1-2.1     c-1.1,0-2.1,0.9-2.1,2.1c0,0.2,0,0.4,0.1,0.7c0.1,0.2,0.1,0.4,0.1,0.6v7.4c0,0.5-0.2,0.9-0.5,1.3l-2.8,2.8V169.1z"/>
            <path fill="#FBB03B"
                  d="M329.7,152.8V144c0-2.1-1.7-3.9-3.9-3.9c-2.1,0-3.9,1.7-3.9,3.9c0,0.5,0.1,0.9,0.2,1.3v7.4l-3.4,3.4v14.8     h6.1h2h6.1v-14.8L329.7,152.8z"/>
            <path fill="#560404"
                  d="M333.1,172.8h-14.3c-1,0-1.8-0.8-1.8-1.8v-14.8c0-0.5,0.2-0.9,0.5-1.3l2.8-2.8v-6.4     c-0.2-0.5-0.2-1.1-0.2-1.6c0-3.1,2.6-5.7,5.7-5.7c3.1,0,5.7,2.6,5.7,5.7v8l2.8,2.8c0.3,0.3,0.5,0.8,0.5,1.3v14.8     C334.9,171.9,334.1,172.8,333.1,172.8z M320.6,169.1h10.7v-12.2l-2.8-2.8c-0.3-0.3-0.5-0.8-0.5-1.3V144c0-1.1-0.9-2.1-2.1-2.1     c-1.1,0-2.1,0.9-2.1,2.1c0,0.2,0,0.4,0.1,0.7c0.1,0.2,0.1,0.4,0.1,0.6v7.4c0,0.5-0.2,0.9-0.5,1.3l-2.8,2.8V169.1z"/>
            <path fill="#FBB03B"
                  d="M216.7,152.8V144c0-2.1-1.7-3.9-3.9-3.9c-2.1,0-3.9,1.7-3.9,3.9c0,0.5,0.1,0.9,0.2,1.3v7.4l-3.4,3.4v14.8     h6.1h2h6.1v-14.8L216.7,152.8z"/>
            <path fill="#560404"
                  d="M220,172.8h-14.3c-1,0-1.8-0.8-1.8-1.8v-14.8c0-0.5,0.2-0.9,0.5-1.3l2.8-2.8v-6.4c-0.2-0.5-0.2-1-0.2-1.6     c0-3.1,2.6-5.7,5.7-5.7c3.1,0,5.7,2.6,5.7,5.7v8l2.8,2.8c0.3,0.3,0.5,0.8,0.5,1.3v14.8C221.8,171.9,221,172.8,220,172.8z      M207.6,169.1h10.7v-12.3l-2.8-2.8c-0.3-0.3-0.5-0.8-0.5-1.3V144c0-1.1-0.9-2.1-2.1-2.1c-1.1,0-2.1,0.9-2.1,2.1     c0,0.2,0,0.4,0.1,0.7c0.1,0.2,0.1,0.4,0.1,0.6v7.4c0,0.5-0.2,0.9-0.5,1.3l-2.8,2.8V169.1z"/>
            <path fill="#FBB03B"
                  d="M239.3,152.8V144c0-2.1-1.7-3.9-3.9-3.9c-2.1,0-3.9,1.7-3.9,3.9c0,0.5,0.1,0.9,0.2,1.3v7.4l-3.4,3.4v14.8     h6.1h2h6.1v-14.8L239.3,152.8z"/>
            <path fill="#560404"
                  d="M242.6,172.8h-14.3c-1,0-1.8-0.8-1.8-1.8v-14.8c0-0.5,0.2-0.9,0.5-1.3l2.8-2.8v-6.4     c-0.2-0.5-0.2-1.1-0.2-1.6c0-3.1,2.6-5.7,5.7-5.7c3.1,0,5.7,2.6,5.7,5.7v8l2.8,2.8c0.3,0.3,0.5,0.8,0.5,1.3v14.8     C244.5,171.9,243.6,172.8,242.6,172.8z M230.2,169.1h10.7v-12.2L238,154c-0.3-0.3-0.5-0.8-0.5-1.3V144c0-1.1-0.9-2.1-2.1-2.1     c-1.1,0-2.1,0.9-2.1,2.1c0,0.2,0,0.4,0.1,0.7c0.1,0.2,0.1,0.4,0.1,0.6v7.4c0,0.5-0.2,0.9-0.5,1.3l-2.8,2.8V169.1z"/>
            <path fill="#FBB03B"
                  d="M261.9,152.8V144c0-2.1-1.7-3.9-3.9-3.9c-2.2,0-3.9,1.7-3.9,3.9c0,0.5,0.1,0.9,0.2,1.3v7.4l-3.4,3.4v14.8     h6.1h2h6.1v-14.8L261.9,152.8z"/>
            <path fill="#560404"
                  d="M265.3,172.8H251c-1,0-1.8-0.8-1.8-1.8v-14.8c0-0.5,0.2-0.9,0.5-1.3l2.8-2.8v-6.4c-0.2-0.5-0.2-1-0.2-1.6     c0-3.1,2.6-5.7,5.7-5.7c3.1,0,5.7,2.6,5.7,5.7v8l2.8,2.8c0.3,0.3,0.5,0.8,0.5,1.3v14.8C267.1,171.9,266.3,172.8,265.3,172.8z      M252.8,169.1h10.7v-12.2l-2.8-2.8c-0.3-0.3-0.5-0.8-0.5-1.3V144c0-1.1-0.9-2.1-2.1-2.1c-1.1,0-2.1,0.9-2.1,2.1     c0,0.2,0,0.4,0.1,0.7c0.1,0.2,0.1,0.4,0.1,0.6v7.4c0,0.5-0.2,0.9-0.5,1.3l-2.8,2.8V169.1z"/>
            <path fill="#FBB03B"
                  d="M284.5,152.8V144c0-2.1-1.7-3.9-3.9-3.9c-2.1,0-3.9,1.7-3.9,3.9c0,0.5,0.1,0.9,0.2,1.3v7.4l-3.4,3.4v14.8     h6.1h2h6.1v-14.8L284.5,152.8z"/>
            <path fill="#560404"
                  d="M287.9,172.8h-14.3c-1,0-1.8-0.8-1.8-1.8v-14.8c0-0.5,0.2-0.9,0.5-1.3l2.8-2.8v-6.4     c-0.2-0.5-0.2-1.1-0.2-1.6c0-3.1,2.6-5.7,5.7-5.7c3.1,0,5.7,2.6,5.7,5.7v8l2.8,2.8c0.3,0.3,0.5,0.8,0.5,1.3v14.8     C289.7,171.9,288.9,172.8,287.9,172.8z M275.4,169.1H286v-12.2l-2.8-2.8c-0.3-0.3-0.5-0.8-0.5-1.3V144c0-1.1-0.9-2.1-2.1-2.1     c-1.1,0-2.1,0.9-2.1,2.1c0,0.2,0,0.4,0.1,0.7c0.1,0.2,0.1,0.4,0.1,0.6v7.4c0,0.5-0.2,0.9-0.5,1.3l-2.8,2.8V169.1z"/>
            <path fill="#FBB03B"
                  d="M307.1,152.8V144c0-2.1-1.7-3.9-3.9-3.9c-2.1,0-3.9,1.7-3.9,3.9c0,0.5,0.1,0.9,0.2,1.3v7.4l-3.4,3.4v14.8     h6.1h2h6.1v-14.8L307.1,152.8z"/>
            <path fill="#560404"
                  d="M310.5,172.8h-14.3c-1,0-1.8-0.8-1.8-1.8v-14.8c0-0.5,0.2-0.9,0.5-1.3l2.8-2.8v-6.4     c-0.2-0.5-0.2-1.1-0.2-1.6c0-3.1,2.6-5.7,5.7-5.7c3.1,0,5.7,2.6,5.7,5.7v8l2.8,2.8c0.3,0.3,0.5,0.8,0.5,1.3v14.8     C312.3,171.9,311.5,172.8,310.5,172.8z M298,169.1h10.7v-12.2l-2.8-2.8c-0.3-0.3-0.5-0.8-0.5-1.3V144c0-1.1-0.9-2.1-2.1-2.1     s-2.1,0.9-2.1,2.1c0,0.2,0,0.4,0.1,0.7c0.1,0.2,0.1,0.4,0.1,0.6v7.4c0,0.5-0.2,0.9-0.5,1.3l-2.8,2.8V169.1z"/>
            <path fill="#FBB03B"
                  d="M194.1,365v8.7c0,2.1-1.7,3.9-3.9,3.9s-3.9-1.7-3.9-3.9c0-0.5,0.1-0.9,0.2-1.3V365l-3.4-3.4v-14.8h6.1h2     h6.1v14.8L194.1,365z"/>
            <path fill="#560404"
                  d="M190.2,379.4c-3.1,0-5.7-2.6-5.7-5.7c0-0.5,0.1-1,0.2-1.6v-6.4l-2.8-2.8c-0.3-0.3-0.5-0.8-0.5-1.3v-14.8     c0-1,0.8-1.8,1.8-1.8h14.3c1,0,1.8,0.8,1.8,1.8v14.8c0,0.5-0.2,0.9-0.5,1.3l-2.8,2.8v8C195.9,376.9,193.3,379.4,190.2,379.4z      M185,360.9l2.8,2.8c0.3,0.3,0.5,0.8,0.5,1.3v7.4c0,0.2,0,0.4-0.1,0.6c-0.1,0.3-0.1,0.5-0.1,0.7c0,1.1,0.9,2.1,2.1,2.1     c1.1,0,2.1-0.9,2.1-2.1V365c0-0.5,0.2-0.9,0.5-1.3l2.8-2.8v-12.2H185V360.9z"/>
            <path fill="#FBB03B"
                  d="M329.7,365v8.7c0,2.1-1.7,3.9-3.9,3.9c-2.1,0-3.9-1.7-3.9-3.9c0-0.5,0.1-0.9,0.2-1.3V365l-3.4-3.4v-14.8     h6.1h2h6.1v14.8L329.7,365z"/>
            <path fill="#560404"
                  d="M325.8,379.4c-3.1,0-5.7-2.6-5.7-5.7c0-0.5,0.1-1.1,0.2-1.6v-6.4l-2.8-2.8c-0.3-0.3-0.5-0.8-0.5-1.3     v-14.8c0-1,0.8-1.8,1.8-1.8h14.3c1,0,1.8,0.8,1.8,1.8v14.8c0,0.5-0.2,0.9-0.5,1.3l-2.8,2.8v8C331.5,376.9,329,379.4,325.8,379.4z      M320.6,360.9l2.8,2.8c0.3,0.3,0.5,0.8,0.5,1.3v7.4c0,0.2,0,0.4-0.1,0.6c-0.1,0.2-0.1,0.4-0.1,0.7c0,1.1,0.9,2.1,2.1,2.1     c1.1,0,2.1-0.9,2.1-2.1V365c0-0.5,0.2-0.9,0.5-1.3l2.8-2.8v-12.2h-10.7V360.9z"/>
            <path fill="#FBB03B"
                  d="M216.7,365v8.7c0,2.1-1.7,3.9-3.9,3.9c-2.1,0-3.9-1.7-3.9-3.9c0-0.5,0.1-0.9,0.2-1.3V365l-3.4-3.4v-14.8     h6.1h2h6.1v14.8L216.7,365z"/>
            <path fill="#560404"
                  d="M212.8,379.4c-3.1,0-5.7-2.6-5.7-5.7c0-0.5,0.1-1,0.2-1.6v-6.4l-2.8-2.8c-0.3-0.3-0.5-0.8-0.5-1.3v-14.8     c0-1,0.8-1.8,1.8-1.8H220c1,0,1.8,0.8,1.8,1.8v14.8c0,0.5-0.2,0.9-0.5,1.3l-2.8,2.8v8C218.5,376.9,215.9,379.4,212.8,379.4z      M207.6,360.9l2.8,2.8c0.3,0.3,0.5,0.8,0.5,1.3v7.4c0,0.2,0,0.4-0.1,0.6c-0.1,0.2-0.1,0.5-0.1,0.7c0,1.1,0.9,2.1,2.1,2.1     c1.1,0,2.1-0.9,2.1-2.1V365c0-0.5,0.2-0.9,0.5-1.3l2.8-2.8v-12.2h-10.7V360.9z"/>
            <path fill="#FBB03B"
                  d="M239.3,365v8.7c0,2.1-1.7,3.9-3.9,3.9c-2.1,0-3.9-1.7-3.9-3.9c0-0.5,0.1-0.9,0.2-1.3V365l-3.4-3.4v-14.8     h6.1h2h6.1v14.8L239.3,365z"/>
            <path fill="#560404"
                  d="M235.4,379.4c-3.1,0-5.7-2.6-5.7-5.7c0-0.5,0.1-1,0.2-1.6v-6.4l-2.8-2.8c-0.3-0.3-0.5-0.8-0.5-1.3v-14.8     c0-1,0.8-1.8,1.8-1.8h14.3c1,0,1.8,0.8,1.8,1.8v14.8c0,0.5-0.2,0.9-0.5,1.3l-2.8,2.8v8C241.1,376.9,238.5,379.4,235.4,379.4z      M230.2,360.9l2.8,2.8c0.3,0.3,0.5,0.8,0.5,1.3v7.4c0,0.2,0,0.4-0.1,0.6c-0.1,0.2-0.1,0.5-0.1,0.7c0,1.1,0.9,2.1,2.1,2.1     c1.1,0,2.1-0.9,2.1-2.1V365c0-0.5,0.2-0.9,0.5-1.3l2.8-2.8v-12.2h-10.7V360.9z"/>
            <path fill="#FBB03B"
                  d="M261.9,365v8.7c0,2.1-1.7,3.9-3.9,3.9c-2.2,0-3.9-1.7-3.9-3.9c0-0.5,0.1-0.9,0.2-1.3V365l-3.4-3.4v-14.8     h6.1h2h6.1v14.8L261.9,365z"/>
            <path fill="#560404"
                  d="M258,379.4c-3.1,0-5.7-2.6-5.7-5.7c0-0.5,0.1-1.1,0.2-1.6v-6.4l-2.8-2.8c-0.3-0.3-0.5-0.8-0.5-1.3v-14.8     c0-1,0.8-1.8,1.8-1.8h14.3c1,0,1.8,0.8,1.8,1.8v14.8c0,0.5-0.2,0.9-0.5,1.3l-2.8,2.8v8C263.7,376.9,261.1,379.4,258,379.4z      M252.8,360.9l2.8,2.8c0.3,0.3,0.5,0.8,0.5,1.3v7.4c0,0.2,0,0.4-0.1,0.6c-0.1,0.2-0.1,0.5-0.1,0.7c0,1.1,0.9,2.1,2.1,2.1     c1.1,0,2.1-0.9,2.1-2.1V365c0-0.5,0.2-0.9,0.5-1.3l2.8-2.8v-12.2h-10.7V360.9z"/>
            <path fill="#FBB03B"
                  d="M284.5,365v8.7c0,2.1-1.7,3.9-3.9,3.9c-2.1,0-3.9-1.7-3.9-3.9c0-0.5,0.1-0.9,0.2-1.3V365l-3.4-3.4v-14.8     h6.1h2h6.1v14.8L284.5,365z"/>
            <path fill="#560404"
                  d="M280.6,379.4c-3.1,0-5.7-2.6-5.7-5.7c0-0.5,0.1-1,0.2-1.6v-6.4l-2.8-2.8c-0.3-0.3-0.5-0.8-0.5-1.3v-14.8     c0-1,0.8-1.8,1.8-1.8h14.3c1,0,1.8,0.8,1.8,1.8v14.8c0,0.5-0.2,0.9-0.5,1.3l-2.8,2.8v8C286.3,376.9,283.7,379.4,280.6,379.4z      M275.4,360.9l2.8,2.8c0.3,0.3,0.5,0.8,0.5,1.3v7.4c0,0.2,0,0.4-0.1,0.6c-0.1,0.2-0.1,0.5-0.1,0.7c0,1.1,0.9,2.1,2.1,2.1     c1.1,0,2.1-0.9,2.1-2.1V365c0-0.5,0.2-0.9,0.5-1.3l2.8-2.8v-12.2h-10.7V360.9z"/>
            <path fill="#FBB03B"
                  d="M307.1,365v8.7c0,2.1-1.7,3.9-3.9,3.9c-2.1,0-3.9-1.7-3.9-3.9c0-0.5,0.1-0.9,0.2-1.3V365l-3.4-3.4v-14.8     h6.1h2h6.1v14.8L307.1,365z"/>
            <path fill="#560404"
                  d="M303.2,379.4c-3.1,0-5.7-2.6-5.7-5.7c0-0.5,0.1-1,0.2-1.6v-6.4l-2.8-2.8c-0.3-0.3-0.5-0.8-0.5-1.3v-14.8     c0-1,0.8-1.8,1.8-1.8h14.3c1,0,1.8,0.8,1.8,1.8v14.8c0,0.5-0.2,0.9-0.5,1.3l-2.8,2.8v8C308.9,376.9,306.3,379.4,303.2,379.4z      M298,360.9l2.8,2.8c0.3,0.3,0.5,0.8,0.5,1.3v7.4c0,0.2,0,0.4-0.1,0.6c-0.1,0.3-0.1,0.5-0.1,0.7c0,1.1,0.9,2.1,2.1,2.1     s2.1-0.9,2.1-2.1V365c0-0.5,0.2-0.9,0.5-1.3l2.8-2.8v-12.2H298V360.9z"/>
            <path fill="#FBB03B"
                  d="M364.2,194.8h8.7c2.1,0,3.9-1.7,3.9-3.9c0-2.1-1.7-3.9-3.9-3.9c-0.5,0-0.9,0.1-1.3,0.2h-7.4l-3.4-3.4H346     v6.1v2v6.1h14.8L364.2,194.8z"/>
            <path fill="#560404"
                  d="M360.9,200H346c-1,0-1.8-0.8-1.8-1.8v-14.3c0-1,0.8-1.8,1.8-1.8h14.8c0.5,0,0.9,0.2,1.3,0.5l2.8,2.8h6.4     c3.8-1.1,7.3,1.8,7.3,5.5c0,3.1-2.6,5.7-5.7,5.7h-8l-2.8,2.8C361.8,199.8,361.3,200,360.9,200z M347.9,196.4h12.2l2.8-2.8     c0.3-0.3,0.8-0.5,1.3-0.5h8.7c1.1,0,2.1-0.9,2.1-2.1c0-1.1-0.9-2.1-2.1-2.1c-0.2,0-0.4,0-0.7,0.1c-0.2,0.1-0.4,0.1-0.6,0.1h-7.4     c-0.5,0-0.9-0.2-1.3-0.5l-2.8-2.8h-12.2V196.4z"/>
            <path fill="#FBB03B"
                  d="M364.2,330.5h8.7c2.1,0,3.9-1.7,3.9-3.9c0-2.1-1.7-3.9-3.9-3.9c-0.5,0-0.9,0.1-1.3,0.2h-7.4l-3.4-3.4H346     v6.1v2v6.1h14.8L364.2,330.5z"/>
            <path fill="#560404"
                  d="M360.9,335.7H346c-1,0-1.8-0.8-1.8-1.8v-14.3c0-1,0.8-1.8,1.8-1.8h14.8c0.5,0,0.9,0.2,1.3,0.5l2.8,2.8     h6.4c0.5-0.2,1.1-0.2,1.6-0.2c3.1,0,5.7,2.6,5.7,5.7c0,3.1-2.6,5.7-5.7,5.7h-8l-2.8,2.8C361.8,335.5,361.3,335.7,360.9,335.7z      M347.9,332h12.2l2.8-2.8c0.3-0.3,0.8-0.5,1.3-0.5h8.7c1.1,0,2.1-0.9,2.1-2.1c0-1.1-0.9-2.1-2.1-2.1c-0.2,0-0.4,0-0.7,0.1     c-0.2,0.1-0.4,0.1-0.6,0.1h-7.4c-0.5,0-0.9-0.2-1.3-0.5l-2.8-2.8h-12.2V332z"/>
            <path fill="#FBB03B"
                  d="M364.2,217.4h8.7c2.1,0,3.9-1.7,3.9-3.9c0-2.1-1.7-3.9-3.9-3.9c-0.5,0-0.9,0.1-1.3,0.2h-7.4l-3.4-3.4H346     v6.1v2v6.1h14.8L364.2,217.4z"/>
            <path fill="#560404"
                  d="M360.9,222.6H346c-1,0-1.8-0.8-1.8-1.8v-14.3c0-1,0.8-1.8,1.8-1.8h14.8c0.5,0,0.9,0.2,1.3,0.5l2.8,2.8     h6.4c3.8-1.1,7.3,1.8,7.3,5.5c0,3.1-2.6,5.7-5.7,5.7h-8l-2.8,2.8C361.8,222.4,361.3,222.6,360.9,222.6z M347.9,219h12.2l2.8-2.8     c0.3-0.3,0.8-0.5,1.3-0.5h8.7c1.1,0,2.1-0.9,2.1-2.1c0-1.1-0.9-2.1-2.1-2.1c-0.2,0-0.4,0-0.7,0.1c-0.2,0.1-0.4,0.1-0.6,0.1h-7.4     c-0.5,0-0.9-0.2-1.3-0.5l-2.8-2.8h-12.2V219z"/>
            <path fill="#FBB03B"
                  d="M364.2,240h8.7c2.1,0,3.9-1.7,3.9-3.9c0-2.1-1.7-3.9-3.9-3.9c-0.5,0-0.9,0.1-1.3,0.2h-7.4l-3.4-3.4H346     v6.1v2v6.1h14.8L364.2,240z"/>
            <path fill="#560404"
                  d="M360.9,245.2H346c-1,0-1.8-0.8-1.8-1.8v-14.3c0-1,0.8-1.8,1.8-1.8h14.8c0.5,0,0.9,0.2,1.3,0.5l2.8,2.8     h6.4c3.8-1.1,7.3,1.8,7.3,5.5c0,3.1-2.6,5.7-5.7,5.7h-8l-2.8,2.8C361.8,245,361.3,245.2,360.9,245.2z M347.9,241.6h12.2l2.8-2.8     c0.3-0.3,0.8-0.5,1.3-0.5h8.7c1.1,0,2.1-0.9,2.1-2.1c0-1.1-0.9-2.1-2.1-2.1c-0.2,0-0.4,0-0.7,0.1c-0.2,0.1-0.4,0.1-0.6,0.1h-7.4     c-0.5,0-0.9-0.2-1.3-0.5l-2.8-2.8h-12.2V241.6z"/>
            <path fill="#FBB03B"
                  d="M364.2,262.7h8.7c2.1,0,3.9-1.7,3.9-3.9c0-2.1-1.7-3.9-3.9-3.9c-0.5,0-0.9,0.1-1.3,0.2h-7.4l-3.4-3.4H346     v6.1v2v6.1h14.8L364.2,262.7z"/>
            <path fill="#560404"
                  d="M360.9,267.8H346c-1,0-1.8-0.8-1.8-1.8v-14.3c0-1,0.8-1.8,1.8-1.8h14.8c0.5,0,0.9,0.2,1.3,0.5l2.8,2.8     h6.4c3.8-1.1,7.3,1.8,7.3,5.5c0,3.1-2.6,5.7-5.7,5.7h-8l-2.8,2.8C361.8,267.6,361.3,267.8,360.9,267.8z M347.9,264.2h12.2     l2.8-2.8c0.3-0.3,0.8-0.5,1.3-0.5h8.7c1.1,0,2.1-0.9,2.1-2.1c0-1.1-0.9-2.1-2.1-2.1c-0.2,0-0.4,0-0.7,0.1     c-0.2,0.1-0.4,0.1-0.6,0.1h-7.4c-0.5,0-0.9-0.2-1.3-0.5l-2.8-2.8h-12.2V264.2z"/>
            <path fill="#FBB03B"
                  d="M364.2,285.3h8.7c2.1,0,3.9-1.7,3.9-3.9c0-2.1-1.7-3.9-3.9-3.9c-0.5,0-0.9,0.1-1.3,0.2h-7.4l-3.4-3.4H346     v6.1v2v6.1h14.8L364.2,285.3z"/>
            <path fill="#560404"
                  d="M360.9,290.4H346c-1,0-1.8-0.8-1.8-1.8v-14.3c0-1,0.8-1.8,1.8-1.8h14.8c0.5,0,0.9,0.2,1.3,0.5l2.8,2.8     h6.4c3.7-1.1,7.3,1.8,7.3,5.5c0,3.1-2.6,5.7-5.7,5.7h-8l-2.8,2.8C361.8,290.3,361.3,290.4,360.9,290.4z M347.9,286.8h12.2     l2.8-2.8c0.3-0.3,0.8-0.5,1.3-0.5h8.7c1.1,0,2.1-0.9,2.1-2.1c0-1.1-0.9-2.1-2.1-2.1c-0.2,0-0.4,0-0.7,0.1     c-0.2,0.1-0.4,0.1-0.6,0.1h-7.4c-0.5,0-0.9-0.2-1.3-0.5l-2.8-2.8h-12.2V286.8z"/>
            <path fill="#FBB03B"
                  d="M364.2,307.9h8.7c2.1,0,3.9-1.7,3.9-3.9c0-2.1-1.7-3.9-3.9-3.9c-0.5,0-0.9,0.1-1.3,0.2h-7.4l-3.4-3.4H346     v6.1v2v6.1h14.8L364.2,307.9z"/>
            <path fill="#560404"
                  d="M360.9,313H346c-1,0-1.8-0.8-1.8-1.8V297c0-1,0.8-1.8,1.8-1.8h14.8c0.5,0,0.9,0.2,1.3,0.5l2.8,2.8h6.4     c0.5-0.2,1.1-0.2,1.6-0.2c3.1,0,5.7,2.6,5.7,5.7c0,3.1-2.6,5.7-5.7,5.7h-8l-2.8,2.8C361.8,312.9,361.3,313,360.9,313z      M347.9,309.4h12.2l2.8-2.8c0.3-0.3,0.8-0.5,1.3-0.5h8.7c1.1,0,2.1-0.9,2.1-2.1c0-1.1-0.9-2.1-2.1-2.1c-0.2,0-0.4,0-0.7,0.1     c-0.2,0.1-0.4,0.1-0.6,0.1h-7.4c-0.5,0-0.9-0.2-1.3-0.5l-2.8-2.8h-12.2V309.4z"/>
            <path fill="#FBB03B"
                  d="M152,194.8h-8.7c-2.1,0-3.9-1.7-3.9-3.9c0-2.1,1.7-3.9,3.9-3.9c0.5,0,0.9,0.1,1.3,0.2h7.4l3.4-3.4h14.8     v6.1v2v6.1h-14.8L152,194.8z"/>
            <path fill="#560404"
                  d="M170.2,200h-14.8c-0.5,0-0.9-0.2-1.3-0.5l-2.8-2.8h-8c-3.1,0-5.7-2.6-5.7-5.7c0-3.7,3.5-6.6,7.3-5.5h6.4     l2.8-2.8c0.3-0.3,0.8-0.5,1.3-0.5h14.8c1,0,1.8,0.8,1.8,1.8v14.3C172,199.2,171.2,200,170.2,200z M156.1,196.4h12.2v-10.7h-12.2     l-2.8,2.8c-0.3,0.3-0.8,0.5-1.3,0.5h-7.4c-0.2,0-0.4,0-0.6-0.1c-0.3-0.1-0.5-0.1-0.7-0.1c-1.1,0-2.1,0.9-2.1,2.1     c0,1.1,0.9,2.1,2.1,2.1h8.7c0.5,0,0.9,0.2,1.3,0.5L156.1,196.4z"/>
            <path fill="#FBB03B"
                  d="M152,330.5h-8.7c-2.1,0-3.9-1.7-3.9-3.9c0-2.1,1.7-3.9,3.9-3.9c0.5,0,0.9,0.1,1.3,0.2h7.4l3.4-3.4h14.8     v6.1v2v6.1h-14.8L152,330.5z"/>
            <path fill="#560404"
                  d="M170.2,335.7h-14.8c-0.5,0-0.9-0.2-1.3-0.5l-2.8-2.8h-8c-3.1,0-5.7-2.6-5.7-5.7c0-3.1,2.6-5.7,5.7-5.7     c0.5,0,1,0.1,1.6,0.2h6.4l2.8-2.8c0.3-0.3,0.8-0.5,1.3-0.5h14.8c1,0,1.8,0.8,1.8,1.8v14.3C172,334.8,171.2,335.7,170.2,335.7z      M156.1,332h12.2v-10.7h-12.2l-2.8,2.8c-0.3,0.3-0.8,0.5-1.3,0.5h-7.4c-0.2,0-0.4,0-0.6-0.1c-0.2-0.1-0.5-0.1-0.7-0.1     c-1.1,0-2.1,0.9-2.1,2.1c0,1.1,0.9,2.1,2.1,2.1h8.7c0.5,0,0.9,0.2,1.3,0.5L156.1,332z"/>
            <path fill="#FBB03B"
                  d="M152,217.4h-8.7c-2.1,0-3.9-1.7-3.9-3.9c0-2.1,1.7-3.9,3.9-3.9c0.5,0,0.9,0.1,1.3,0.2h7.4l3.4-3.4h14.8     v6.1v2v6.1h-14.8L152,217.4z"/>
            <path fill="#560404"
                  d="M170.2,222.6h-14.8c-0.5,0-0.9-0.2-1.3-0.5l-2.8-2.8h-8c-3.1,0-5.7-2.6-5.7-5.7c0-3.7,3.4-6.6,7.3-5.5     h6.4l2.8-2.8c0.3-0.3,0.8-0.5,1.3-0.5h14.8c1,0,1.8,0.8,1.8,1.8v14.3C172,221.8,171.2,222.6,170.2,222.6z M156.1,219h12.2v-10.7     h-12.2l-2.8,2.8c-0.3,0.3-0.8,0.5-1.3,0.5h-7.4c-0.2,0-0.4,0-0.6-0.1c-0.3-0.1-0.5-0.1-0.7-0.1c-1.1,0-2.1,0.9-2.1,2.1     c0,1.1,0.9,2.1,2.1,2.1h8.7c0.5,0,0.9,0.2,1.3,0.5L156.1,219z"/>
            <path fill="#FBB03B"
                  d="M152,240h-8.7c-2.1,0-3.9-1.7-3.9-3.9c0-2.1,1.7-3.9,3.9-3.9c0.5,0,0.9,0.1,1.3,0.2h7.4l3.4-3.4h14.8v6.1     v2v6.1h-14.8L152,240z"/>
            <path fill="#560404"
                  d="M170.2,245.2h-14.8c-0.5,0-0.9-0.2-1.3-0.5l-2.8-2.8h-8c-3.1,0-5.7-2.6-5.7-5.7c0-3.7,3.5-6.6,7.3-5.5     h6.4l2.8-2.8c0.3-0.3,0.8-0.5,1.3-0.5h14.8c1,0,1.8,0.8,1.8,1.8v14.3C172,244.4,171.2,245.2,170.2,245.2z M156.1,241.6h12.2     v-10.7h-12.2l-2.8,2.8c-0.3,0.3-0.8,0.5-1.3,0.5h-7.4c-0.2,0-0.4,0-0.6-0.1c-0.3-0.1-0.5-0.1-0.7-0.1c-1.1,0-2.1,0.9-2.1,2.1     c0,1.1,0.9,2.1,2.1,2.1h8.7c0.5,0,0.9,0.2,1.3,0.5L156.1,241.6z"/>
            <path fill="#FBB03B"
                  d="M152,262.7h-8.7c-2.1,0-3.9-1.7-3.9-3.9c0-2.1,1.7-3.9,3.9-3.9c0.5,0,0.9,0.1,1.3,0.2h7.4l3.4-3.4h14.8     v6.1v2v6.1h-14.8L152,262.7z"/>
            <path fill="#560404"
                  d="M170.2,267.8h-14.8c-0.5,0-0.9-0.2-1.3-0.5l-2.8-2.8h-8c-3.1,0-5.7-2.6-5.7-5.7c0-3.7,3.5-6.6,7.3-5.5     h6.4l2.8-2.8c0.3-0.3,0.8-0.5,1.3-0.5h14.8c1,0,1.8,0.8,1.8,1.8V266C172,267,171.2,267.8,170.2,267.8z M156.1,264.2h12.2v-10.7     h-12.2l-2.8,2.8c-0.3,0.3-0.8,0.5-1.3,0.5h-7.4c-0.2,0-0.4,0-0.6-0.1c-0.3-0.1-0.5-0.1-0.7-0.1c-1.1,0-2.1,0.9-2.1,2.1     c0,1.1,0.9,2.1,2.1,2.1h8.7c0.5,0,0.9,0.2,1.3,0.5L156.1,264.2z"/>
            <path fill="#FBB03B"
                  d="M152,285.3h-8.7c-2.1,0-3.9-1.7-3.9-3.9c0-2.1,1.7-3.9,3.9-3.9c0.5,0,0.9,0.1,1.3,0.2h7.4l3.4-3.4h14.8     v6.1v2v6.1h-14.8L152,285.3z"/>
            <path fill="#560404"
                  d="M170.2,290.4h-14.8c-0.5,0-0.9-0.2-1.3-0.5l-2.8-2.8h-8c-3.1,0-5.7-2.6-5.7-5.7c0-3.7,3.5-6.6,7.3-5.5     h6.4l2.8-2.8c0.3-0.3,0.8-0.5,1.3-0.5h14.8c1,0,1.8,0.8,1.8,1.8v14.3C172,289.6,171.2,290.4,170.2,290.4z M156.1,286.8h12.2     v-10.7h-12.2l-2.8,2.8c-0.3,0.3-0.8,0.5-1.3,0.5h-7.4c-0.2,0-0.4,0-0.6-0.1c-0.3-0.1-0.5-0.1-0.7-0.1c-1.1,0-2.1,0.9-2.1,2.1     c0,1.1,0.9,2.1,2.1,2.1h8.7c0.5,0,0.9,0.2,1.3,0.5L156.1,286.8z"/>
            <path fill="#FBB03B"
                  d="M152,307.9h-8.7c-2.1,0-3.9-1.7-3.9-3.9c0-2.1,1.7-3.9,3.9-3.9c0.5,0,0.9,0.1,1.3,0.2h7.4l3.4-3.4h14.8     v6.1v2v6.1h-14.8L152,307.9z"/>
            <path fill="#560404"
                  d="M170.2,313h-14.8c-0.5,0-0.9-0.2-1.3-0.5l-2.8-2.8h-8c-3.1,0-5.7-2.6-5.7-5.7c0-3.1,2.6-5.7,5.7-5.7     c0.5,0,1,0.1,1.6,0.2h6.4l2.8-2.8c0.3-0.3,0.8-0.5,1.3-0.5h14.8c1,0,1.8,0.8,1.8,1.8v14.3C172,312.2,171.2,313,170.2,313z      M156.1,309.4h12.2v-10.7h-12.2l-2.8,2.8c-0.3,0.3-0.8,0.5-1.3,0.5h-7.4c-0.2,0-0.4,0-0.6-0.1c-0.2-0.1-0.5-0.1-0.7-0.1     c-1.1,0-2.1,0.9-2.1,2.1c0,1.1,0.9,2.1,2.1,2.1h8.7c0.5,0,0.9,0.2,1.3,0.5L156.1,309.4z"/>
            <path d="M341.1,170.9h-166c-2.7,0-4.9,2.2-4.9,4.9v166c0,2.7,2.2,4.9,4.9,4.9h166c2.7,0,4.9-2.2,4.9-4.9v-166     C346,173.2,343.8,170.9,341.1,170.9z M286.1,285.3c0,0.9-0.7,1.6-1.6,1.6h-52.8c-0.9,0-1.6-0.7-1.6-1.6v-52.8     c0-0.9,0.7-1.6,1.6-1.6h52.8c0.9,0,1.6,0.7,1.6,1.6V285.3z"/>
            <path fill="#560404"
                  d="M341.1,348.6h-166c-3.7,0-6.7-3-6.7-6.7v-166c0-3.7,3-6.7,6.7-6.7h166c3.7,0,6.7,3,6.7,6.7v166     C347.9,345.6,344.8,348.6,341.1,348.6z M175.1,172.8c-1.7,0-3.1,1.4-3.1,3.1v166c0,1.7,1.4,3.1,3.1,3.1h166     c1.7,0,3.1-1.4,3.1-3.1v-166c0-1.7-1.4-3.1-3.1-3.1H175.1z M284.5,288.6h-52.8c-1.9,0-3.4-1.5-3.4-3.4v-52.8     c0-1.9,1.5-3.4,3.4-3.4h52.8c1.9,0,3.4,1.5,3.4,3.4v52.8C287.9,287.1,286.4,288.6,284.5,288.6z M232,285h52.3v-52.3H232V285z"/>
		</g>
        <path opacity="0.2" fill="#FFFFFF"
              d="M232,285v-52.3h26.1v-94.4c0,0-0.1,0-0.1,0c-3.1,0-5.7,2.6-5.7,5.7c0,0.5,0.1,1.1,0.2,1.6    v6.4l-2.8,2.8c-0.3,0.3-0.5,0.8-0.5,1.3v13h-4.7v-13c0-0.5-0.2-0.9-0.5-1.3l-2.8-2.8v-8c0-3.1-2.6-5.7-5.7-5.7    c-3.1,0-5.7,2.6-5.7,5.7c0,0.5,0.1,1,0.2,1.6v6.4l-2.8,2.8c-0.3,0.3-0.5,0.8-0.5,1.3v13h-4.7v-13c0-0.5-0.2-0.9-0.5-1.3l-2.8-2.8    v-8c0-3.1-2.6-5.7-5.7-5.7c-3.1,0-5.7,2.6-5.7,5.7c0,0.5,0.1,1,0.2,1.6v6.4l-2.8,2.8c-0.3,0.3-0.5,0.8-0.5,1.3v13h-4.7v-13    c0-0.5-0.2-0.9-0.5-1.3l-2.8-2.8v-8c0-3.1-2.6-5.7-5.7-5.7c-3.1,0-5.7,2.6-5.7,5.7c0,0.5,0.1,1,0.2,1.6v6.4l-2.8,2.8    c-0.3,0.3-0.5,0.8-0.5,1.3v13h-6.2c-3.7,0-6.7,3-6.7,6.7v6.2h-13c-0.5,0-0.9,0.2-1.3,0.5l-2.8,2.8h-6.4c-3.8-1.1-7.3,1.8-7.3,5.5    c0,3.1,2.6,5.7,5.7,5.7h8l2.8,2.8c0.3,0.3,0.8,0.5,1.3,0.5h13v4.7h-13c-0.5,0-0.9,0.2-1.3,0.5l-2.8,2.8h-6.4    c-3.8-1.1-7.3,1.8-7.3,5.5c0,3.1,2.6,5.7,5.7,5.7h8l2.8,2.8c0.3,0.3,0.8,0.5,1.3,0.5h13v4.7h-13c-0.5,0-0.9,0.2-1.3,0.5l-2.8,2.8    h-6.4c-3.8-1.1-7.3,1.8-7.3,5.5c0,3.1,2.6,5.7,5.7,5.7h8l2.8,2.8c0.3,0.3,0.8,0.5,1.3,0.5h13v4.7h-13c-0.5,0-0.9,0.2-1.3,0.5    l-2.8,2.8h-6.4c-3.8-1.1-7.3,1.8-7.3,5.5c0,3.1,2.6,5.7,5.7,5.7h8l2.8,2.8c0.3,0.3,0.8,0.5,1.3,0.5h13v4.7h-13    c-0.5,0-0.9,0.2-1.3,0.5l-2.8,2.8h-6.4c-3.8-1.1-7.3,1.8-7.3,5.5c0,3.1,2.6,5.7,5.7,5.7h8l2.8,2.8c0.3,0.3,0.8,0.5,1.3,0.5h13v4.7    h-13c-0.5,0-0.9,0.2-1.3,0.5l-2.8,2.8h-6.4c-0.5-0.2-1-0.2-1.6-0.2c-3.1,0-5.7,2.6-5.7,5.7c0,3.1,2.6,5.7,5.7,5.7h8l2.8,2.8    c0.3,0.3,0.8,0.5,1.3,0.5h13v4.7h-13c-0.5,0-0.9,0.2-1.3,0.5l-2.8,2.8h-6.4c-0.5-0.2-1-0.2-1.6-0.2c-3.1,0-5.7,2.6-5.7,5.7    c0,3.1,2.6,5.7,5.7,5.7h8l2.8,2.8c0.3,0.3,0.8,0.5,1.3,0.5h13v6.2c0,3.7,3,6.7,6.7,6.7h6.2v13c0,0.5,0.2,0.9,0.5,1.3l2.8,2.8v6.4    c-0.2,0.5-0.2,1.1-0.2,1.6c0,3.1,2.6,5.7,5.7,5.7c3.1,0,5.7-2.6,5.7-5.7v-8l2.8-2.8c0.3-0.3,0.5-0.8,0.5-1.3v-13h4.7v13    c0,0.5,0.2,0.9,0.5,1.3l2.8,2.8v6.4c-0.2,0.5-0.2,1.1-0.2,1.6c0,3.1,2.6,5.7,5.7,5.7c3.1,0,5.7-2.6,5.7-5.7v-8l2.8-2.8    c0.3-0.3,0.5-0.8,0.5-1.3v-13h4.7v13c0,0.5,0.2,0.9,0.5,1.3l2.8,2.8v6.4c-0.2,0.5-0.2,1.1-0.2,1.6c0,3.1,2.6,5.7,5.7,5.7    c3.1,0,5.7-2.6,5.7-5.7v-8l2.8-2.8c0.3-0.3,0.5-0.8,0.5-1.3v-13h4.7v13c0,0.5,0.2,0.9,0.5,1.3l2.8,2.8v6.4c-0.2,0.5-0.2,1-0.2,1.6    c0,3.1,2.6,5.7,5.7,5.7c0,0,0.1,0,0.1,0V285H232z"/>
	</g>
</g>
    <g>
	<path fill="#CCCCCC"
          d="M1023.4,367.1h112.9h112.9c1,0,1.8-0.8,1.8-1.8V139.5c0-1-0.8-1.8-1.8-1.8h-112.9h-112.9   c-1,0-1.8,0.8-1.8,1.8v225.8C1021.6,366.3,1022.4,367.1,1023.4,367.1z"/>
        <g>
		<g>
			<polygon fill="#FBB03B"
                     points="1240.3,356.3 1014.5,356.3 1014.5,341 1014.5,145.9 1014.5,130.5 1240.3,130.5 1240.3,145.9         "/>
            <path fill="#560404"
                  d="M1240.3,358.1h-225.8c-1,0-1.8-0.8-1.8-1.8V130.5c0-1,0.8-1.8,1.8-1.8h225.8c1,0,1.8,0.8,1.8,1.8v225.8     C1242.1,357.3,1241.3,358.1,1240.3,358.1z M1016.3,354.5h222.2V132.3h-222.2V354.5z"/>
            <path fill="#560404"
                  d="M1075,254.6c1.6,0,2.8-1.3,2.8-2.8c0-1.6-1.3-2.8-2.8-2.8c-1.6,0-2.8,1.3-2.8,2.8     C1072.2,253.3,1073.4,254.6,1075,254.6z"/>
            <path fill="#560404"
                  d="M1038.6,290.2c-1.6,0-2.8,1.3-2.8,2.8c0,1.6,1.3,2.8,2.8,2.8c1.6,0,2.8-1.3,2.8-2.8     C1041.4,291.5,1040.1,290.2,1038.6,290.2z"/>
            <path fill="#560404"
                  d="M1185.6,295.9c1.6,0,2.8-1.3,2.8-2.8c0-1.6-1.3-2.8-2.8-2.8c-1.6,0-2.8,1.3-2.8,2.8     C1182.7,294.6,1184,295.9,1185.6,295.9z"/>
            <path fill="#560404"
                  d="M1095.5,164.7c1.6,0,2.8-1.3,2.8-2.8c0-1.6-1.3-2.8-2.8-2.8c-1.6,0-2.8,1.3-2.8,2.8     C1092.7,163.4,1094,164.7,1095.5,164.7z"/>
            <path fill="#560404"
                  d="M1094,214.9c1.6,0,2.8-1.3,2.8-2.8c0-1.6-1.3-2.8-2.8-2.8c-1.6,0-2.8,1.3-2.8,2.8     C1091.2,213.6,1092.5,214.9,1094,214.9z"/>
            <path fill="#560404"
                  d="M1036,252.3c0,1.6,1.3,2.8,2.8,2.8s2.8-1.3,2.8-2.8c0-1.6-1.3-2.8-2.8-2.8S1036,250.7,1036,252.3z"/>
            <path fill="#333132"
                  d="M1166.9,265.5c1.6,0,2.8-1.3,2.8-2.8c0-1.6-1.3-2.8-2.8-2.8c-1.6,0-2.8,1.3-2.8,2.8     C1164.1,264.2,1165.4,265.5,1166.9,265.5z"/>
            <path fill="#560404"
                  d="M1188.8,201.9c0-1.6-1.3-2.8-2.8-2.8s-2.8,1.3-2.8,2.8s1.3,2.8,2.8,2.8S1188.8,203.5,1188.8,201.9z"/>
            <path fill="#560404"
                  d="M1240.3,135.5c0-2.7-2.2-4.9-4.9-4.9h-215.9c-2.7,0-4.9,2.2-4.9,4.9v215.9c0,2.7,2.2,4.9,4.9,4.9H1187     h48.3c2.7,0,4.9-2.2,4.9-4.9V317c-3.7,3.7-7,7-7,7h-3.4v3h-29.7v-9.4h29.7v3.3c0.8,0,1.6,0,2,0c0.4-0.4,4.3-4.3,8.3-8.3V299     c-3.6,3.6-6.7,6.7-6.7,6.7h-3.6v3.3h-29.7v-9.4h29.7v3c0.9,0,1.8,0,2.3,0c0.4-0.4,4-4,8-8v-17.3c-3,3-8,8-8,8h-2.3v2.7h-29.7     v-9.4h29.7v3.5c0.4,0,0.7,0,1,0c0.7-0.7,7-7,9.4-9.4v-8.5H1230v3.8h-29.7v-9.5h29.7v2.5h10.3v-16.2c-4.5,0-8.1,0-10.3,0v3.8     h-29.7V239h29.7v2.5h10.3v-7.1c-35.9,0-68.5,0-75.7,0c-0.9,2.8-3.5,4.8-6.5,4.8c-3.8,0-6.9-3.1-6.9-6.9c0-3.8,3.1-6.9,6.9-6.9     c3.4,0,6.2,2.5,6.8,5.8h75.5v-16.2h-55.7v-6.3c-2.5-0.5-4.5-2.4-5.2-4.8h-42.3c-0.8,2.8-3.5,4.9-6.6,4.9c-3.8,0-6.9-3.1-6.9-6.9     c0-3.8,3.1-6.9,6.9-6.9c3.4,0,6.2,2.4,6.8,5.6h42c0.6-3.2,3.4-5.6,6.8-5.6c3.8,0,6.9,3.1,6.9,6.9c0,3.1-2.1,5.8-5,6.6     c0,1,0,2.2,0,3.2c1.1,0,23.5,0,52.5,0v-15.6c-2.4,2.4-7.2,7.2-7.2,7.2h-3.1v3h-29.7v-9.4h29.7v3.3c0.7,0,1.4,0,1.8,0     c0.8-0.8,8.5-8.5,8.5-8.5h0v-9.1H1230v2.2h-29.7v-9.5h29.7v4.1h10.3v-17.5H1230v3.1h-29.7v-9.4h29.7v3.1h10.3v-6.3 M1200.3,216.6     h29.7v9.4h-29.7V216.6z M1021.2,149.7c5.3,0,15.8,0,16.8,0c0.9-1,8.5-9.7,8.5-9.7h153.7v-3.1h29.7v9.4h-29.7v-3.2     c-15.6,0-150.9,0-152.3,0c-0.8,1-8.5,9.7-8.5,9.7h-18.3V149.7z M1021.2,170.7c9.9,0,34,0,35,0c0.9-0.9,10.1-10.1,10.1-10.1h22.4     c0.6-3.2,3.4-5.6,6.8-5.6c3.8,0,6.9,3.1,6.9,6.9s-3.1,6.9-6.9,6.9c-3.1,0-5.7-2.1-6.6-4.9c-3.5,0-20.1,0-21.3,0     c-0.9,0.9-10.1,10.1-10.1,10.1h-36.4V170.7z M1094,205.2c3.8,0,6.9,3.1,6.9,6.9c0,3.8-3.1,6.9-6.9,6.9c-3.8,0-6.9-3.1-6.9-6.9     C1087.1,208.2,1090.2,205.2,1094,205.2z M1075,244.8c3.8,0,6.9,3.1,6.9,6.9c0,3.8-3.1,6.9-6.9,6.9c-3.8,0-6.9-3.1-6.9-6.9     C1068.1,247.9,1071.2,244.8,1075,244.8z M1021.2,199.3h7.4v11.4h12.1v35c2.9,0.8,5,3.4,5,6.6c0,3.8-3.1,6.9-6.9,6.9     c-3.8,0-6.9-3.1-6.9-6.9c0-3.3,2.4-6.1,5.6-6.8c0-5.8,0-29.1,0-31.7c-1.6,0-5.9,0-8.9,0v8.1h-7.4V199.3z M1028.8,344h-7.6v-21.9     h7.6V344z M1028.8,305.1h-7.6v-23.8h7.6V305.1z M1038.6,299.9c-3.8,0-6.9-3.1-6.9-6.9c0-3.8,3.1-6.9,6.9-6.9     c3.3,0,6.1,2.4,6.7,5.5h133.5c0.6-3.1,3.4-5.5,6.7-5.5c3.8,0,6.9,3.1,6.9,6.9c0,3.8-3.1,6.9-6.9,6.9c-3.2,0-5.8-2.2-6.6-5.1     h-133.8C1044.4,297.8,1041.7,299.9,1038.6,299.9z M1069.1,323.5h-20.5v-21.6h20.5V323.5z M1094,339.2c-3.8,0-6.9-3.1-6.9-6.9     c0-3.8,3.1-6.9,6.9-6.9c3.8,0,6.9,3.1,6.9,6.9C1100.9,336.1,1097.8,339.2,1094,339.2z"/>
            <path fill="#560404"
                  d="M1127.6,201.9c0,1.6,1.3,2.8,2.8,2.8s2.8-1.3,2.8-2.8s-1.3-2.8-2.8-2.8S1127.6,200.4,1127.6,201.9z"/>
            <path fill="#560404"
                  d="M1155.2,232.3c0,1.6,1.3,2.8,2.8,2.8c1.6,0,2.8-1.3,2.8-2.8c0-1.6-1.3-2.8-2.8-2.8     C1156.5,229.5,1155.2,230.7,1155.2,232.3z"/>
            <path fill="#560404"
                  d="M1094,329.5c-1.6,0-2.8,1.3-2.8,2.8s1.3,2.8,2.8,2.8c1.6,0,2.8-1.3,2.8-2.8S1095.6,329.5,1094,329.5z"/>
		</g>
            <path opacity="0.2" fill="#FFFFFF"
                  d="M1014.5,128.7c-1,0-1.8,0.8-1.8,1.8v225.8c0,1,0.8,1.8,1.8,1.8h112.9V128.7H1014.5z"/>
	</g>
</g>
    <g>
	<path fill="#CCCCCC"
          d="M860.9,626.5h-32V589c0-1-0.8-1.8-1.8-1.8h-6.3v-40.5c0-1-0.8-1.8-1.8-1.8h-8.1c-1,0-1.8,0.8-1.8,1.8v40.5   h-6.3c-1,0-1.8,0.8-1.8,1.8v37.5h-19.7V589c0-1-0.8-1.8-1.8-1.8h-6.3v-40.5c0-1-0.8-1.8-1.8-1.8h-8.1c-1,0-1.8,0.8-1.8,1.8v40.5   H755c-1,0-1.8,0.8-1.8,1.8v37.5h-19.7V589c0-1-0.8-1.8-1.8-1.8h-6.3v-40.5c0-1-0.8-1.8-1.8-1.8h-8.1c-1,0-1.8,0.8-1.8,1.8v40.5   h-6.3c-1,0-1.8,0.8-1.8,1.8v37.5h-9.9h-9.9V589c0-1-0.8-1.8-1.8-1.8h-6.3v-40.5c0-1-0.8-1.8-1.8-1.8h-8.1c-1,0-1.8,0.8-1.8,1.8   v40.5h-6.3c-1,0-1.8,0.8-1.8,1.8v37.5H638V589c0-1-0.8-1.8-1.8-1.8h-6.3v-40.5c0-1-0.8-1.8-1.8-1.8h-8.1c-1,0-1.8,0.8-1.8,1.8v40.5   h-6.3c-1,0-1.8,0.8-1.8,1.8v37.5h-19.7V589c0-1-0.8-1.8-1.8-1.8h-6.3v-40.5c0-1-0.8-1.8-1.8-1.8h-8.1c-1,0-1.8,0.8-1.8,1.8v40.5   H564c-1,0-1.8,0.8-1.8,1.8v37.5h-32h0c-0.9,0-1.6,0.6-1.8,1.4c0,0.1,0,0.2,0,0.4v139.5c0,0.1,0,0.2,0,0.4c0.2,0.8,0.9,1.4,1.8,1.4   h0h32v37.5c0,1,0.8,1.8,1.8,1.8h6.3v40.5c0,0.1,0,0.2,0,0.4c0.2,0.8,0.9,1.4,1.8,1.4h0h8.1h0c0.6,0,1.2-0.3,1.5-0.8   c0.2-0.3,0.3-0.6,0.3-1V809h6.3h0c0.6,0,1.2-0.3,1.5-0.8c0.2-0.3,0.3-0.6,0.3-1v-37.5h19.7v37.5c0,1,0.8,1.8,1.8,1.8h6.3v40.5   c0,0.1,0,0.2,0,0.4c0.2,0.8,0.9,1.4,1.8,1.4h0h8.1h0c0.6,0,1.2-0.3,1.5-0.8c0.2-0.3,0.3-0.6,0.3-1V809h6.3c1,0,1.8-0.8,1.8-1.8   v-37.5h19.7v37.5c0,1,0.8,1.8,1.8,1.8h6.3v40.5c0,1,0.8,1.8,1.8,1.8h8.1h0c0.6,0,1.2-0.3,1.5-0.8c0.2-0.3,0.3-0.6,0.3-1V809h6.3   c1,0,1.8-0.8,1.8-1.8v-37.5h9.9h9.9v37.5c0,1,0.8,1.8,1.8,1.8h6.3v40.5c0,1,0.8,1.8,1.8,1.8h8.1c1,0,1.8-0.8,1.8-1.8V809h6.3   c1,0,1.8-0.8,1.8-1.8v-37.5h19.7v37.5c0,1,0.8,1.8,1.8,1.8h6.3v40.5c0,1,0.8,1.8,1.8,1.8h8.1c1,0,1.8-0.8,1.8-1.8V809h6.3   c1,0,1.8-0.8,1.8-1.8v-37.5h19.7v37.5c0,1,0.8,1.8,1.8,1.8h6.3v40.5c0,1,0.8,1.8,1.8,1.8h8.1c1,0,1.8-0.8,1.8-1.8V809h6.3   c1,0,1.8-0.8,1.8-1.8v-37.5h32c1,0,1.8-0.8,1.8-1.8V628.3C862.7,627.3,861.9,626.5,860.9,626.5z"/>
        <g>
		<g>
			<polygon fill="#FBB03B"
                     points="563.2,537.7 563.2,580 555.1,580 555.1,620.7 579.5,620.7 579.5,580 571.3,580 571.3,537.7         "/>
            <path fill="#560404"
                  d="M579.5,622.5h-24.4c-1,0-1.8-0.8-1.8-1.8V580c0-1,0.8-1.8,1.8-1.8h6.3v-40.5c0-1,0.8-1.8,1.8-1.8h8.1     c1,0,1.8,0.8,1.8,1.8v40.5h6.3c1,0,1.8,0.8,1.8,1.8v40.6C581.3,621.7,580.5,622.5,579.5,622.5z M556.9,618.9h20.8v-37h-6.3     c-1,0-1.8-0.8-1.8-1.8v-40.5H565V580c0,1-0.8,1.8-1.8,1.8h-6.3V618.9z"/>
            <polygon fill="#FBB03B"
                     points="610.9,537.7 610.9,580 602.8,580 602.8,620.7 627.2,620.7 627.2,580 619.1,580 619.1,537.7         "/>
            <path fill="#560404"
                  d="M627.2,622.5h-24.4c-1,0-1.8-0.8-1.8-1.8V580c0-1,0.8-1.8,1.8-1.8h6.3v-40.5c0-1,0.8-1.8,1.8-1.8h8.1     c1,0,1.8,0.8,1.8,1.8v40.5h6.3c1,0,1.8,0.8,1.8,1.8v40.6C629,621.7,628.2,622.5,627.2,622.5z M604.6,618.9h20.8v-37h-6.3     c-1,0-1.8-0.8-1.8-1.8v-40.5h-4.5V580c0,1-0.8,1.8-1.8,1.8h-6.3V618.9z"/>
            <polygon fill="#FBB03B"
                     points="658.7,537.7 658.7,580 650.5,580 650.5,620.7 675,620.7 675,580 666.8,580 666.8,537.7    "/>
            <path fill="#560404"
                  d="M675,622.5h-24.4c-1,0-1.8-0.8-1.8-1.8V580c0-1,0.8-1.8,1.8-1.8h6.3v-40.5c0-1,0.8-1.8,1.8-1.8h8.1     c1,0,1.8,0.8,1.8,1.8v40.5h6.3c1,0,1.8,0.8,1.8,1.8v40.6C676.8,621.7,676,622.5,675,622.5z M652.4,618.9h20.8v-37h-6.3     c-1,0-1.8-0.8-1.8-1.8v-40.5h-4.5V580c0,1-0.8,1.8-1.8,1.8h-6.3V618.9z"/>
            <polygon fill="#FBB03B"
                     points="706.4,537.7 706.4,580 698.3,580 698.3,620.7 722.7,620.7 722.7,580 714.6,580 714.6,537.7         "/>
            <path fill="#560404"
                  d="M722.7,622.5h-24.4c-1,0-1.8-0.8-1.8-1.8V580c0-1,0.8-1.8,1.8-1.8h6.3v-40.5c0-1,0.8-1.8,1.8-1.8h8.1     c1,0,1.8,0.8,1.8,1.8v40.5h6.3c1,0,1.8,0.8,1.8,1.8v40.6C724.5,621.7,723.7,622.5,722.7,622.5z M700.1,618.9h20.8v-37h-6.3     c-1,0-1.8-0.8-1.8-1.8v-40.5h-4.5V580c0,1-0.8,1.8-1.8,1.8h-6.3V618.9z"/>
            <polygon fill="#FBB03B"
                     points="754.2,537.7 754.2,580 746,580 746,620.7 770.5,620.7 770.5,580 762.3,580 762.3,537.7    "/>
            <path fill="#560404"
                  d="M770.5,622.5H746c-1,0-1.8-0.8-1.8-1.8V580c0-1,0.8-1.8,1.8-1.8h6.3v-40.5c0-1,0.8-1.8,1.8-1.8h8.1     c1,0,1.8,0.8,1.8,1.8v40.5h6.3c1,0,1.8,0.8,1.8,1.8v40.6C772.3,621.7,771.5,622.5,770.5,622.5z M747.9,618.9h20.8v-37h-6.3     c-1,0-1.8-0.8-1.8-1.8v-40.5H756V580c0,1-0.8,1.8-1.8,1.8h-6.3V618.9z"/>
            <polygon fill="#FBB03B"
                     points="801.9,537.7 801.9,580 793.8,580 793.8,620.7 818.2,620.7 818.2,580 810.1,580 810.1,537.7         "/>
            <path fill="#560404"
                  d="M818.2,622.5h-24.4c-1,0-1.8-0.8-1.8-1.8V580c0-1,0.8-1.8,1.8-1.8h6.3v-40.5c0-1,0.8-1.8,1.8-1.8h8.1     c1,0,1.8,0.8,1.8,1.8v40.5h6.3c1,0,1.8,0.8,1.8,1.8v40.6C820,621.7,819.2,622.5,818.2,622.5z M795.6,618.9h20.8v-37h-6.3     c-1,0-1.8-0.8-1.8-1.8v-40.5h-4.5V580c0,1-0.8,1.8-1.8,1.8h-6.3V618.9z"/>
            <polygon fill="#FBB03B"
                     points="555.1,757.6 555.1,798.2 563.2,798.2 563.2,840.5 571.3,840.5 571.3,798.2 579.5,798.2      579.5,757.6    "/>
            <path fill="#560404"
                  d="M571.3,842.3h-8.1c-1,0-1.8-0.8-1.8-1.8V800h-6.3c-1,0-1.8-0.8-1.8-1.8v-40.6c0-1,0.8-1.8,1.8-1.8h24.4     c1,0,1.8,0.8,1.8,1.8v40.6c0,1-0.8,1.8-1.8,1.8h-6.3v40.5C573.1,841.5,572.3,842.3,571.3,842.3z M565,838.7h4.5v-40.5     c0-1,0.8-1.8,1.8-1.8h6.3v-37h-20.8v37h6.3c1,0,1.8,0.8,1.8,1.8V838.7z"/>
            <polygon fill="#FBB03B"
                     points="602.8,757.6 602.8,798.2 610.9,798.2 610.9,840.5 619.1,840.5 619.1,798.2 627.2,798.2      627.2,757.6    "/>
            <path fill="#560404"
                  d="M619.1,842.3h-8.1c-1,0-1.8-0.8-1.8-1.8V800h-6.3c-1,0-1.8-0.8-1.8-1.8v-40.6c0-1,0.8-1.8,1.8-1.8h24.4     c1,0,1.8,0.8,1.8,1.8v40.6c0,1-0.8,1.8-1.8,1.8h-6.3v40.5C620.9,841.5,620.1,842.3,619.1,842.3z M612.8,838.7h4.5v-40.5     c0-1,0.8-1.8,1.8-1.8h6.3v-37h-20.8v37h6.3c1,0,1.8,0.8,1.8,1.8V838.7z"/>
            <polygon fill="#FBB03B"
                     points="650.5,757.6 650.5,798.2 658.7,798.2 658.7,840.5 666.8,840.5 666.8,798.2 675,798.2 675,757.6         "/>
            <path fill="#560404"
                  d="M666.8,842.3h-8.1c-1,0-1.8-0.8-1.8-1.8V800h-6.3c-1,0-1.8-0.8-1.8-1.8v-40.6c0-1,0.8-1.8,1.8-1.8H675     c1,0,1.8,0.8,1.8,1.8v40.6c0,1-0.8,1.8-1.8,1.8h-6.3v40.5C668.6,841.5,667.8,842.3,666.8,842.3z M660.5,838.7h4.5v-40.5     c0-1,0.8-1.8,1.8-1.8h6.3v-37h-20.8v37h6.3c1,0,1.8,0.8,1.8,1.8V838.7z"/>
            <polygon fill="#FBB03B"
                     points="698.3,757.6 698.3,798.2 706.4,798.2 706.4,840.5 714.6,840.5 714.6,798.2 722.7,798.2      722.7,757.6    "/>
            <path fill="#560404"
                  d="M714.6,842.3h-8.1c-1,0-1.8-0.8-1.8-1.8V800h-6.3c-1,0-1.8-0.8-1.8-1.8v-40.6c0-1,0.8-1.8,1.8-1.8h24.4     c1,0,1.8,0.8,1.8,1.8v40.6c0,1-0.8,1.8-1.8,1.8h-6.3v40.5C716.4,841.5,715.6,842.3,714.6,842.3z M708.2,838.7h4.5v-40.5     c0-1,0.8-1.8,1.8-1.8h6.3v-37h-20.8v37h6.3c1,0,1.8,0.8,1.8,1.8V838.7z"/>
            <polygon fill="#FBB03B"
                     points="746,757.6 746,798.2 754.2,798.2 754.2,840.5 762.3,840.5 762.3,798.2 770.5,798.2 770.5,757.6         "/>
            <path fill="#560404"
                  d="M762.3,842.3h-8.1c-1,0-1.8-0.8-1.8-1.8V800H746c-1,0-1.8-0.8-1.8-1.8v-40.6c0-1,0.8-1.8,1.8-1.8h24.4     c1,0,1.8,0.8,1.8,1.8v40.6c0,1-0.8,1.8-1.8,1.8h-6.3v40.5C764.1,841.5,763.3,842.3,762.3,842.3z M756,838.7h4.5v-40.5     c0-1,0.8-1.8,1.8-1.8h6.3v-37h-20.8v37h6.3c1,0,1.8,0.8,1.8,1.8V838.7z"/>
            <polygon fill="#FBB03B"
                     points="793.8,757.6 793.8,798.2 801.9,798.2 801.9,840.5 810.1,840.5 810.1,798.2 818.2,798.2      818.2,757.6    "/>
            <path fill="#560404"
                  d="M810.1,842.3h-8.1c-1,0-1.8-0.8-1.8-1.8V800h-6.3c-1,0-1.8-0.8-1.8-1.8v-40.6c0-1,0.8-1.8,1.8-1.8h24.4     c1,0,1.8,0.8,1.8,1.8v40.6c0,1-0.8,1.8-1.8,1.8h-6.3v40.5C811.9,841.5,811.1,842.3,810.1,842.3z M803.7,838.7h4.5v-40.5     c0-1,0.8-1.8,1.8-1.8h6.3v-37h-20.8v37h6.3c1,0,1.8,0.8,1.8,1.8V838.7z"/>
            <rect x="521.3" y="619.4" width="330.7" height="139.5"/>
            <path fill="#560404"
                  d="M852,760.7H521.3c-1,0-1.8-0.8-1.8-1.8V619.4c0-1,0.8-1.8,1.8-1.8H852c1,0,1.8,0.8,1.8,1.8v139.5     C853.8,759.9,853,760.7,852,760.7z M523.1,757h327.1V621.2H523.1V757z"/>
		</g>
            <path opacity="0.2" fill="#FFFFFF"
                  d="M676.8,617.6V580c0-1-0.8-1.8-1.8-1.8h-6.3v-40.5c0-1-0.8-1.8-1.8-1.8h-8.1    c-1,0-1.8,0.8-1.8,1.8v40.5h-6.3c-1,0-1.8,0.8-1.8,1.8v37.5H629V580c0-1-0.8-1.8-1.8-1.8h-6.3v-40.5c0-1-0.8-1.8-1.8-1.8h-8.1    c-1,0-1.8,0.8-1.8,1.8v40.5h-6.3c-1,0-1.8,0.8-1.8,1.8v37.5h-19.7V580c0-1-0.8-1.8-1.8-1.8h-6.3v-40.5c0-1-0.8-1.8-1.8-1.8h-8.1    c-1,0-1.8,0.8-1.8,1.8v40.5h-6.3c-1,0-1.8,0.8-1.8,1.8v37.5h-32c-1,0-1.8,0.8-1.8,1.8v139.5c0,1,0.8,1.8,1.8,1.8h32v37.5    c0,1,0.8,1.8,1.8,1.8h6.3v40.5c0,1,0.8,1.8,1.8,1.8h8.1c1,0,1.8-0.8,1.8-1.8V800h6.3c1,0,1.8-0.8,1.8-1.8v-37.5H601v37.5    c0,1,0.8,1.8,1.8,1.8h6.3v40.5c0,1,0.8,1.8,1.8,1.8h8.1c1,0,1.8-0.8,1.8-1.8V800h6.3c1,0,1.8-0.8,1.8-1.8v-37.5h19.7v37.5    c0,1,0.8,1.8,1.8,1.8h6.3v40.5c0,1,0.8,1.8,1.8,1.8h8.1c1,0,1.8-0.8,1.8-1.8V800h6.3c1,0,1.8-0.8,1.8-1.8v-37.5h9.9V617.6H676.8z"/>
	</g>
</g>
    <g>
	<path fill="#CCCCCC"
          d="M239.1,611.1h-36.8h-18.1h0h-8l0,0h-10.7h0c-2.1,0-3.9,1.5-4.3,3.5c-0.1,0.3-0.1,0.6-0.1,0.9v96.9   c0,0.3,0,0.6,0.1,0.9c0.4,2,2.1,3.5,4.2,3.5v1.9c-2.1,0-3.8,1.5-4.2,3.5c-0.1,0.3-0.1,0.6-0.1,0.9v9.6c0,0.3,0,0.6,0.1,0.9   c0.4,2,2.2,3.5,4.3,3.5h0h9.5v46.9c0,0.6,0.5,1.2,1.2,1.2l0,0h6.4c0.6,0,1.2-0.5,1.2-1.2V737h0.5h0h18.1h18.6v46.9   c0,0.6,0.5,1.2,1.2,1.2h6.4c0.6,0,1.2-0.5,1.2-1.2V737h9.5c2.4,0,4.4-2,4.4-4.4V723c0-2.4-1.9-4.3-4.3-4.4v-1.9   c2.4-0.1,4.3-2,4.3-4.4v-96.9C243.5,613.1,241.5,611.1,239.1,611.1z"/>
        <path fill="#CCCCCC"
              d="M387.8,640.6h-5V613c0-0.6-0.5-1.2-1.2-1.2h-43h-43c-0.6,0-1.2,0.5-1.2,1.2v27.6h-5h0   c-0.6,0-1.2,0.5-1.2,1.2V725c0,0.6,0.5,1.2,1.2,1.2h0h16.8v51c0,0.7,0.5,1.2,1.2,1.2h0h6.4c0.6,0,1.2-0.5,1.2-1.2v-51h19.1v57   c0,0.6,0.5,1.2,1.2,1.2h3.2h3.2c0.6,0,1.2-0.5,1.2-1.2v-57h19.1v51c0,0.7,0.5,1.2,1.2,1.2h6.4c0.6,0,1.2-0.5,1.2-1.2v-51h16.8   c0.7,0,1.2-0.5,1.2-1.2v-83.3C388.9,641.1,388.4,640.6,387.8,640.6z M338.7,634.1c-0.3,0-0.6,0-0.9-0.1c-0.1,0-0.2,0-0.4,0   c-0.4-0.1-0.8-0.2-1.1-0.4c0,0,0,0-0.1,0c-2.3-1-3.9-3.3-3.9-5.9c0-3.1,2.2-5.7,5.1-6.3c0.1,0,0.2,0,0.4,0c0.3,0,0.6-0.1,0.9-0.1   c3.5,0,6.4,2.9,6.4,6.4S342.2,634.1,338.7,634.1z"/>
        <g>
		<g>
			<g>
				<g>
					<rect x="167.2" y="726.9" fill="#FBB03B" width="6.4" height="48"/>
                    <path fill="#560404"
                          d="M173.6,776.1h-6.4c-0.6,0-1.2-0.5-1.2-1.2v-48c0-0.7,0.5-1.2,1.2-1.2h6.4c0.6,0,1.2,0.5,1.2,1.2v48       C174.8,775.6,174.2,776.1,173.6,776.1z M168.4,773.7h4.1v-45.7h-4.1V773.7z"/>
				</g>
			</g>
            <g>
				<g>
					<rect x="213.1" y="726.9" fill="#FBB03B" width="6.4" height="48"/>
                    <path fill="#560404"
                          d="M219.5,776.1h-6.4c-0.6,0-1.2-0.5-1.2-1.2v-48c0-0.7,0.5-1.2,1.2-1.2h6.4c0.6,0,1.2,0.5,1.2,1.2v48       C220.7,775.6,220.1,776.1,219.5,776.1z M214.3,773.7h4.1v-45.7h-4.1V773.7z"/>
				</g>
			</g>
            <path d="M230.2,706.6c1.8,0,3.2-1.4,3.2-3.2v-96.9c0-1.8-1.4-3.2-3.2-3.2h-53.4h-20.3c-1.8,0-3.2,1.4-3.2,3.2v96.9     c0,1.8,1.4,3.2,3.2,3.2h1.1v4.3h-1.1c-1.8,0-3.2,1.4-3.2,3.2v9.6c0,1.8,1.4,3.2,3.2,3.2h20.3h53.4c1.8,0,3.2-1.4,3.2-3.2v-9.6     c0-1.8-1.4-3.2-3.2-3.2h-1.1v-4.3H230.2z"/>
            <path fill="#560404"
                  d="M230.2,728.1h-73.7c-2.4,0-4.4-2-4.4-4.4v-9.6c0-2.4,1.9-4.3,4.3-4.4v-1.9c-2.4-0.1-4.3-2-4.3-4.4v-96.9     c0-2.4,2-4.4,4.4-4.4h73.7c2.4,0,4.4,2,4.4,4.4v96.9c0,2.4-1.9,4.3-4.3,4.4v1.9c2.4,0.1,4.3,2,4.3,4.4v9.6     C234.5,726.1,232.6,728.1,230.2,728.1z M156.5,712.1c-1.1,0-2,0.9-2,2v9.6c0,1.1,0.9,2,2,2h73.7c1.1,0,2-0.9,2-2v-9.6     c0-1.1-0.9-2-2-2h-1.1c-0.6,0-1.2-0.5-1.2-1.2v-4.3c0-0.6,0.5-1.2,1.2-1.2h1.1c1.1,0,2-0.9,2-2v-96.9c0-1.1-0.9-2-2-2h-73.7     c-1.1,0-2,0.9-2,2v96.9c0,1.1,0.9,2,2,2h1.1c0.6,0,1.2,0.5,1.2,1.2v4.3c0,0.6-0.5,1.2-1.2,1.2H156.5z"/>
            <rect x="167.2" y="603.3" fill="#FFFFFF" width="8" height="123.6"/>
            <path fill="#560404"
                  d="M175.2,728.1h-8c-0.6,0-1.2-0.5-1.2-1.2V603.3c0-0.6,0.5-1.2,1.2-1.2h8c0.6,0,1.2,0.5,1.2,1.2v123.6     C176.4,727.5,175.9,728.1,175.2,728.1z M168.4,725.7h5.7V604.5h-5.7V725.7z"/>
		</g>
            <path opacity="0.2" fill="#FFFFFF"
                  d="M175.2,602.2h-8h-10.7c-2.4,0-4.4,2-4.4,4.4v96.9c0,2.4,1.9,4.3,4.3,4.4v1.9    c-2.4,0.1-4.3,2-4.3,4.4v9.6c0,2.4,2,4.4,4.4,4.4h9.5v46.9c0,0.7,0.5,1.2,1.2,1.2h6.4c0.6,0,1.2-0.5,1.2-1.2v-46.9h0.5h18.1V602.2    H175.2z"/>
	</g>
        <g>
		<g>
			<g>
				<g>
					<rect x="298.6" y="712.7" fill="#FBB03B" width="6.4" height="55.5"/>
                    <path fill="#560404"
                          d="M305,769.4h-6.4c-0.7,0-1.2-0.5-1.2-1.2v-55.5c0-0.7,0.5-1.2,1.2-1.2h6.4c0.6,0,1.2,0.5,1.2,1.2v55.5       C306.2,768.9,305.7,769.4,305,769.4z M299.8,767h4.1v-53.2h-4.1V767z"/>
				</g>
			</g>
            <g>
				<g>
					<rect x="326.5" y="712.7" fill="#FBB03B" width="6.4" height="61.5"/>
                    <path fill="#560404"
                          d="M332.9,775.4h-6.4c-0.6,0-1.2-0.5-1.2-1.2v-61.5c0-0.7,0.5-1.2,1.2-1.2h6.4c0.6,0,1.2,0.5,1.2,1.2v61.5       C334.1,774.9,333.6,775.4,332.9,775.4z M327.7,773h4.1v-59.2h-4.1V773z"/>
				</g>
			</g>
            <g>
				<g>
					<rect x="354.4" y="712.7" fill="#FBB03B" width="6.4" height="55.5"/>
                    <path fill="#560404"
                          d="M360.8,769.4h-6.4c-0.6,0-1.2-0.5-1.2-1.2v-55.5c0-0.7,0.5-1.2,1.2-1.2h6.4c0.6,0,1.2,0.5,1.2,1.2v55.5       C362,768.9,361.4,769.4,360.8,769.4z M355.6,767h4.1v-53.2h-4.1V767z"/>
				</g>
			</g>
            <path fill="#4D4D4D"
                  d="M286.7,604v29.4h85.9V604H286.7z M329.7,626.3c-4.2,0-7.6-3.4-7.6-7.6c0-4.2,3.4-7.6,7.6-7.6     c4.2,0,7.6,3.4,7.6,7.6C337.3,622.9,333.9,626.3,329.7,626.3z"/>
            <path fill="#560404"
                  d="M372.7,634.6h-85.9c-0.6,0-1.2-0.5-1.2-1.2V604c0-0.6,0.5-1.2,1.2-1.2h85.9c0.6,0,1.2,0.5,1.2,1.2v29.4     C373.8,634,373.3,634.6,372.7,634.6z M287.9,632.2h83.6v-27h-83.6V632.2z M329.7,627.5c-4.8,0-8.8-3.9-8.8-8.8     c0-4.8,3.9-8.8,8.8-8.8c4.8,0,8.8,3.9,8.8,8.8C338.5,623.5,334.6,627.5,329.7,627.5z M329.7,612.3c-3.5,0-6.4,2.9-6.4,6.4     s2.9,6.4,6.4,6.4c3.5,0,6.4-2.9,6.4-6.4S333.3,612.3,329.7,612.3z"/>
            <rect x="280.6" y="632.8" width="98.2" height="83.3"/>
            <path fill="#560404"
                  d="M378.8,717.2h-98.2c-0.7,0-1.2-0.5-1.2-1.2v-83.3c0-0.6,0.5-1.2,1.2-1.2h98.2c0.6,0,1.2,0.5,1.2,1.2V716     C380,716.7,379.5,717.2,378.8,717.2z M281.8,714.9h95.9V634h-95.9V714.9z"/>
		</g>
            <path opacity="0.2" fill="#FFFFFF"
                  d="M323.3,618.7c0-3.5,2.9-6.4,6.4-6.4v-9.4h-43c-0.6,0-1.2,0.5-1.2,1.2v27.6h-5    c-0.6,0-1.2,0.5-1.2,1.2V716c0,0.6,0.5,1.2,1.2,1.2h16.8v51c0,0.7,0.5,1.2,1.2,1.2h6.4c0.6,0,1.2-0.5,1.2-1.2v-51h19.1v57    c0,0.6,0.5,1.2,1.2,1.2h3.2V625.1C326.2,625.1,323.3,622.2,323.3,618.7z"/>
	</g>
</g>
    <g>
	<path fill="#CCCCCC"
          d="M565.4,318.4L565.4,318.4h10.8v5.6c0,1,0.8,1.8,1.8,1.8h5.3v46.6c0,1,0.8,1.8,1.8,1.8h0h6.8   c1,0,1.8-0.8,1.8-1.8v-46.6h5.3h0c0.3,0,0.6-0.1,0.9-0.2c0.6-0.3,1-0.9,1-1.6v-5.6h11.1v5.6c0,1,0.8,1.8,1.8,1.8h5.3v46.6   c0,1,0.8,1.8,1.8,1.8h6.8h0c0.9,0,1.6-0.6,1.8-1.4c0-0.1,0-0.2,0-0.4v-46.6h5.3h0c0.9,0,1.6-0.6,1.8-1.4c0-0.1,0-0.2,0-0.4v-5.6   h11.1v5.6c0,1,0.8,1.8,1.8,1.8h5.3v46.6c0,1,0.8,1.8,1.8,1.8h0h6.8h0c0.9,0,1.6-0.6,1.8-1.4c0-0.1,0-0.2,0-0.4v-46.6h5.3h0   c0.9,0,1.6-0.6,1.8-1.4c0-0.1,0-0.2,0-0.4v-5.6h11.1v5.6c0,1,0.8,1.8,1.8,1.8h5.3v46.6c0,1,0.8,1.8,1.8,1.8h0h3.4h3.4   c1,0,1.8-0.8,1.8-1.8v-46.6h5.3c1,0,1.8-0.8,1.8-1.8v-5.6H719v5.6c0,1,0.8,1.8,1.8,1.8h5.3v46.6c0,1,0.8,1.8,1.8,1.8h6.8   c1,0,1.8-0.8,1.8-1.8v-46.6h5.3c1,0,1.8-0.8,1.8-1.8v-5.6h11.1v5.6c0,1,0.8,1.8,1.8,1.8h5.3v46.6c0,1,0.8,1.8,1.8,1.8h6.8   c1,0,1.8-0.8,1.8-1.8v-46.6h5.3c1,0,1.8-0.8,1.8-1.8v-5.6h11.1v5.6c0,1,0.8,1.8,1.8,1.8h5.3v46.6c0,1,0.8,1.8,1.8,1.8h6.8   c1,0,1.8-0.8,1.8-1.8v-46.6h5.3c1,0,1.8-0.8,1.8-1.8v-5.6h10.8c1,0,1.8-0.8,1.8-1.8v-35.8c0-1-0.8-1.8-1.8-1.8h-4.7v-22.3h4.7   c1,0,1.8-0.8,1.8-1.8v-35.8c0-1-0.8-1.8-1.8-1.8h-10.8v-5.6c0-1-0.8-1.8-1.8-1.8h-5.3v-46.6c0-1-0.8-1.8-1.8-1.8h-6.8   c-1,0-1.8,0.8-1.8,1.8v46.6h-5.3c-1,0-1.8,0.8-1.8,1.8v5.6h-11.1v-5.6c0-1-0.8-1.8-1.8-1.8h-5.3v-46.6c0-1-0.8-1.8-1.8-1.8h-6.8   c-1,0-1.8,0.8-1.8,1.8v46.6h-5.3c-1,0-1.8,0.8-1.8,1.8v5.6h-11.1v-5.6c0-1-0.8-1.8-1.8-1.8h-5.3v-46.6c0-1-0.8-1.8-1.8-1.8h-6.8   c-1,0-1.8,0.8-1.8,1.8v46.6h-5.3c-1,0-1.8,0.8-1.8,1.8v5.6h-11.1v-5.6c0-1-0.8-1.8-1.8-1.8h-5.3v-46.6c0-1-0.8-1.8-1.8-1.8h-3.4   h-3.4h0c-1,0-1.8,0.8-1.8,1.8v46.6h-5.3h0c-1,0-1.8,0.8-1.8,1.8v5.6h-11.1v-5.6c0-0.1,0-0.2,0-0.4c-0.2-0.8-0.9-1.4-1.8-1.4h0h-5.3   v-46.6c0-0.1,0-0.2,0-0.4c-0.2-0.8-0.9-1.4-1.8-1.4h0h-6.8h0c-1,0-1.8,0.8-1.8,1.8v46.6h-5.3c-1,0-1.8,0.8-1.8,1.8v5.6h-11.1v-5.6   c0-0.1,0-0.2,0-0.4c-0.2-0.8-0.9-1.4-1.8-1.4h0h-5.3v-46.6c0-0.1,0-0.2,0-0.4c-0.2-0.8-0.9-1.4-1.8-1.4h0h-6.8   c-1,0-1.8,0.8-1.8,1.8v46.6h-5.3c-1,0-1.8,0.8-1.8,1.8v5.6h-11.1v-5.6c0-0.7-0.4-1.3-1-1.6c-0.3-0.1-0.5-0.2-0.9-0.2h0h-5.3v-46.6   c0-1-0.8-1.8-1.8-1.8h-6.8h0c-1,0-1.8,0.8-1.8,1.8v46.6H578c-1,0-1.8,0.8-1.8,1.8v5.6h-10.8l0,0c-0.9,0-1.6,0.6-1.8,1.4   c0,0.1,0,0.2,0,0.4v35.8c0,0.1,0,0.2,0,0.4c0.2,0.8,0.9,1.4,1.8,1.4l0,0h4.7V279h-4.7l0,0c-0.9,0-1.6,0.6-1.8,1.4   c0,0.1,0,0.2,0,0.4v35.8c0,0.1,0,0.2,0,0.4C563.8,317.8,564.5,318.4,565.4,318.4z"/>
        <g>
		<g>
			<g>
				<polygon fill="#FBB03B"
                         points="569.1,315 576.2,315 576.2,363.5 583,363.5 583,315 590.1,315 590.1,307.6 569.1,307.6     "/>
                <path fill="#560404"
                      d="M583,365.3h-6.8c-1,0-1.8-0.8-1.8-1.8v-46.6h-5.3c-1,0-1.8-0.8-1.8-1.8v-7.4c0-1,0.8-1.8,1.8-1.8h21      c1,0,1.8,0.8,1.8,1.8v7.4c0,1-0.8,1.8-1.8,1.8h-5.3v46.6C584.8,364.5,584,365.3,583,365.3z M578,361.6h3.2V315      c0-1,0.8-1.8,1.8-1.8h5.3v-3.8h-17.4v3.8h5.3c1,0,1.8,0.8,1.8,1.8V361.6z"/>
			</g>
            <g>
				<polygon fill="#FBB03B"
                         points="604.8,315 611.9,315 611.9,363.5 618.7,363.5 618.7,315 625.8,315 625.8,307.6 604.8,307.6           "/>
                <path fill="#560404"
                      d="M618.7,365.3h-6.8c-1,0-1.8-0.8-1.8-1.8v-46.6h-5.3c-1,0-1.8-0.8-1.8-1.8v-7.4c0-1,0.8-1.8,1.8-1.8h21      c1,0,1.8,0.8,1.8,1.8v7.4c0,1-0.8,1.8-1.8,1.8h-5.3v46.6C620.5,364.5,619.7,365.3,618.7,365.3z M613.7,361.6h3.2V315      c0-1,0.8-1.8,1.8-1.8h5.3v-3.8h-17.4v3.8h5.3c1,0,1.8,0.8,1.8,1.8V361.6z"/>
			</g>
            <g>
				<polygon fill="#FBB03B"
                         points="640.5,315 647.6,315 647.6,363.5 654.3,363.5 654.3,315 661.4,315 661.4,307.6 640.5,307.6           "/>
                <path fill="#560404"
                      d="M654.3,365.3h-6.8c-1,0-1.8-0.8-1.8-1.8v-46.6h-5.3c-1,0-1.8-0.8-1.8-1.8v-7.4c0-1,0.8-1.8,1.8-1.8h21      c1,0,1.8,0.8,1.8,1.8v7.4c0,1-0.8,1.8-1.8,1.8h-5.3v46.6C656.2,364.5,655.3,365.3,654.3,365.3z M649.4,361.6h3.2V315      c0-1,0.8-1.8,1.8-1.8h5.3v-3.8h-17.4v3.8h5.3c1,0,1.8,0.8,1.8,1.8V361.6z"/>
			</g>
            <g>
				<polygon fill="#FBB03B"
                         points="676.1,315 683.2,315 683.2,363.5 690,363.5 690,315 697.1,315 697.1,307.6 676.1,307.6     "/>
                <path fill="#560404"
                      d="M690,365.3h-6.8c-1,0-1.8-0.8-1.8-1.8v-46.6h-5.3c-1,0-1.8-0.8-1.8-1.8v-7.4c0-1,0.8-1.8,1.8-1.8h21      c1,0,1.8,0.8,1.8,1.8v7.4c0,1-0.8,1.8-1.8,1.8h-5.3v46.6C691.8,364.5,691,365.3,690,365.3z M685,361.6h3.2V315      c0-1,0.8-1.8,1.8-1.8h5.3v-3.8H678v3.8h5.3c1,0,1.8,0.8,1.8,1.8V361.6z"/>
			</g>
            <g>
				<polygon fill="#FBB03B"
                         points="711.8,315 718.9,315 718.9,363.5 725.7,363.5 725.7,315 732.8,315 732.8,307.6 711.8,307.6           "/>
                <path fill="#560404"
                      d="M725.7,365.3h-6.8c-1,0-1.8-0.8-1.8-1.8v-46.6h-5.3c-1,0-1.8-0.8-1.8-1.8v-7.4c0-1,0.8-1.8,1.8-1.8h21      c1,0,1.8,0.8,1.8,1.8v7.4c0,1-0.8,1.8-1.8,1.8h-5.3v46.6C727.5,364.5,726.7,365.3,725.7,365.3z M720.7,361.6h3.2V315      c0-1,0.8-1.8,1.8-1.8h5.3v-3.8h-17.4v3.8h5.3c1,0,1.8,0.8,1.8,1.8V361.6z"/>
			</g>
            <g>
				<polygon fill="#FBB03B"
                         points="747.5,315 754.6,315 754.6,363.5 761.4,363.5 761.4,315 768.5,315 768.5,307.6 747.5,307.6           "/>
                <path fill="#560404"
                      d="M761.4,365.3h-6.8c-1,0-1.8-0.8-1.8-1.8v-46.6h-5.3c-1,0-1.8-0.8-1.8-1.8v-7.4c0-1,0.8-1.8,1.8-1.8h21      c1,0,1.8,0.8,1.8,1.8v7.4c0,1-0.8,1.8-1.8,1.8h-5.3v46.6C763.2,364.5,762.4,365.3,761.4,365.3z M756.4,361.6h3.2V315      c0-1,0.8-1.8,1.8-1.8h5.3v-3.8h-17.4v3.8h5.3c1,0,1.8,0.8,1.8,1.8V361.6z"/>
			</g>
            <g>
				<polygon fill="#FBB03B"
                         points="804.2,307.6 783.2,307.6 783.2,315 790.3,315 790.3,363.5 797.1,363.5 797.1,315 804.2,315           "/>
                <path fill="#560404"
                      d="M797.1,365.3h-6.8c-1,0-1.8-0.8-1.8-1.8v-46.6h-5.3c-1,0-1.8-0.8-1.8-1.8v-7.4c0-1,0.8-1.8,1.8-1.8h21      c1,0,1.8,0.8,1.8,1.8v7.4c0,1-0.8,1.8-1.8,1.8h-5.3v46.6C798.9,364.5,798.1,365.3,797.1,365.3z M792.1,361.6h3.2V315      c0-1,0.8-1.8,1.8-1.8h5.3v-3.8H785v3.8h5.3c1,0,1.8,0.8,1.8,1.8V361.6z"/>
			</g>
            <g>
				<polygon fill="#FBB03B"
                         points="797.1,202.7 797.1,154.3 790.3,154.3 790.3,202.7 783.2,202.7 783.2,210.1 804.2,210.1       804.2,202.7     "/>
                <path fill="#560404"
                      d="M804.2,212h-21c-1,0-1.8-0.8-1.8-1.8v-7.4c0-1,0.8-1.8,1.8-1.8h5.3v-46.6c0-1,0.8-1.8,1.8-1.8h6.8      c1,0,1.8,0.8,1.8,1.8v46.6h5.3c1,0,1.8,0.8,1.8,1.8v7.4C806,211.1,805.2,212,804.2,212z M785,208.3h17.4v-3.8h-5.3      c-1,0-1.8-0.8-1.8-1.8v-46.6h-3.2v46.6c0,1-0.8,1.8-1.8,1.8H785V208.3z"/>
			</g>
            <g>
				<polygon fill="#FBB03B"
                         points="761.4,154.3 754.6,154.3 754.6,202.7 747.5,202.7 747.5,210.1 768.5,210.1 768.5,202.7       761.4,202.7     "/>
                <path fill="#560404"
                      d="M768.5,212h-21c-1,0-1.8-0.8-1.8-1.8v-7.4c0-1,0.8-1.8,1.8-1.8h5.3v-46.6c0-1,0.8-1.8,1.8-1.8h6.8      c1,0,1.8,0.8,1.8,1.8v46.6h5.3c1,0,1.8,0.8,1.8,1.8v7.4C770.3,211.1,769.5,212,768.5,212z M749.3,208.3h17.4v-3.8h-5.3      c-1,0-1.8-0.8-1.8-1.8v-46.6h-3.2v46.6c0,1-0.8,1.8-1.8,1.8h-5.3V208.3z"/>
			</g>
            <g>
				<polygon fill="#FBB03B"
                         points="725.7,154.3 718.9,154.3 718.9,202.7 711.8,202.7 711.8,210.1 732.8,210.1 732.8,202.7       725.7,202.7     "/>
                <path fill="#560404"
                      d="M732.8,212h-21c-1,0-1.8-0.8-1.8-1.8v-7.4c0-1,0.8-1.8,1.8-1.8h5.3v-46.6c0-1,0.8-1.8,1.8-1.8h6.8      c1,0,1.8,0.8,1.8,1.8v46.6h5.3c1,0,1.8,0.8,1.8,1.8v7.4C734.6,211.1,733.8,212,732.8,212z M713.6,208.3H731v-3.8h-5.3      c-1,0-1.8-0.8-1.8-1.8v-46.6h-3.2v46.6c0,1-0.8,1.8-1.8,1.8h-5.3V208.3z"/>
			</g>
            <g>
				<polygon fill="#FBB03B"
                         points="690,154.3 683.2,154.3 683.2,202.7 676.1,202.7 676.1,210.1 697.1,210.1 697.1,202.7 690,202.7           "/>
                <path fill="#560404"
                      d="M697.1,212h-21c-1,0-1.8-0.8-1.8-1.8v-7.4c0-1,0.8-1.8,1.8-1.8h5.3v-46.6c0-1,0.8-1.8,1.8-1.8h6.8      c1,0,1.8,0.8,1.8,1.8v46.6h5.3c1,0,1.8,0.8,1.8,1.8v7.4C698.9,211.1,698.1,212,697.1,212z M678,208.3h17.4v-3.8H690      c-1,0-1.8-0.8-1.8-1.8v-46.6H685v46.6c0,1-0.8,1.8-1.8,1.8H678V208.3z"/>
			</g>
            <g>
				<polygon fill="#FBB03B"
                         points="654.3,154.3 647.6,154.3 647.6,202.7 640.5,202.7 640.5,210.1 661.4,210.1 661.4,202.7       654.3,202.7     "/>
                <path fill="#560404"
                      d="M661.4,212h-21c-1,0-1.8-0.8-1.8-1.8v-7.4c0-1,0.8-1.8,1.8-1.8h5.3v-46.6c0-1,0.8-1.8,1.8-1.8h6.8      c1,0,1.8,0.8,1.8,1.8v46.6h5.3c1,0,1.8,0.8,1.8,1.8v7.4C663.2,211.1,662.4,212,661.4,212z M642.3,208.3h17.4v-3.8h-5.3      c-1,0-1.8-0.8-1.8-1.8v-46.6h-3.2v46.6c0,1-0.8,1.8-1.8,1.8h-5.3V208.3z"/>
			</g>
            <g>
				<polygon fill="#FBB03B"
                         points="618.7,154.3 611.9,154.3 611.9,202.7 604.8,202.7 604.8,210.1 625.8,210.1 625.8,202.7       618.7,202.7     "/>
                <path fill="#560404"
                      d="M625.8,212h-21c-1,0-1.8-0.8-1.8-1.8v-7.4c0-1,0.8-1.8,1.8-1.8h5.3v-46.6c0-1,0.8-1.8,1.8-1.8h6.8      c1,0,1.8,0.8,1.8,1.8v46.6h5.3c1,0,1.8,0.8,1.8,1.8v7.4C627.6,211.1,626.8,212,625.8,212z M606.6,208.3h17.4v-3.8h-5.3      c-1,0-1.8-0.8-1.8-1.8v-46.6h-3.2v46.6c0,1-0.8,1.8-1.8,1.8h-5.3V208.3z"/>
			</g>
            <g>
				<polygon fill="#FBB03B"
                         points="583,154.3 576.2,154.3 576.2,202.7 569.1,202.7 569.1,210.1 590.1,210.1 590.1,202.7 583,202.7           "/>
                <path fill="#560404"
                      d="M590.1,212h-21c-1,0-1.8-0.8-1.8-1.8v-7.4c0-1,0.8-1.8,1.8-1.8h5.3v-46.6c0-1,0.8-1.8,1.8-1.8h6.8      c1,0,1.8,0.8,1.8,1.8v46.6h5.3c1,0,1.8,0.8,1.8,1.8v7.4C591.9,211.1,591.1,212,590.1,212z M570.9,208.3h17.4v-3.8H583      c-1,0-1.8-0.8-1.8-1.8v-46.6H578v46.6c0,1-0.8,1.8-1.8,1.8h-5.3V208.3z"/>
			</g>
            <path d="M816.8,245.9v-35.8H556.5v35.8h6.5v25.9h-6.5v35.8h260.3v-35.8h-6.5v-25.9H816.8z M686.6,282     c-12.8,0-23.1-10.4-23.1-23.1s10.3-23.1,23.1-23.1c12.8,0,23.1,10.4,23.1,23.1S699.4,282,686.6,282z"/>
            <path fill="#560404"
                  d="M816.8,309.4H556.5c-1,0-1.8-0.8-1.8-1.8v-35.8c0-1,0.8-1.8,1.8-1.8h4.7v-22.3h-4.7c-1,0-1.8-0.8-1.8-1.8     v-35.8c0-1,0.8-1.8,1.8-1.8h260.3c1,0,1.8,0.8,1.8,1.8v35.8c0,1-0.8,1.8-1.8,1.8h-4.7V270h4.7c1,0,1.8,0.8,1.8,1.8v35.8     C818.6,308.6,817.8,309.4,816.8,309.4z M558.3,305.8H815v-32.2h-4.7c-1,0-1.8-0.8-1.8-1.8v-25.9c0-1,0.8-1.8,1.8-1.8h4.7V212     H558.3v32.2h4.7c1,0,1.8,0.8,1.8,1.8v25.9c0,1-0.8,1.8-1.8,1.8h-4.7V305.8z M686.6,283.8c-13.7,0-24.9-11.2-24.9-24.9     c0-13.7,11.2-24.9,24.9-24.9c13.7,0,24.9,11.2,24.9,24.9C711.6,272.6,700.4,283.8,686.6,283.8z M686.6,237.6     c-11.7,0-21.3,9.6-21.3,21.3s9.6,21.3,21.3,21.3c11.7,0,21.3-9.6,21.3-21.3S698.4,237.6,686.6,237.6z"/>
		</g>
            <g>
			<path fill="none" d="M665.3,258.9c0,11.7,9.6,21.3,21.3,21.3v-42.6C674.9,237.6,665.3,247.1,665.3,258.9z"/>
                <path fill="none"
                      d="M686.6,280.2c11.7,0,21.3-9.6,21.3-21.3s-9.6-21.3-21.3-21.3c0,0,0,0,0,0L686.6,280.2     C686.6,280.2,686.6,280.2,686.6,280.2z"/>
                <path opacity="0.2" fill="#FFFFFF"
                      d="M665.3,258.9c0-11.7,9.6-21.3,21.3-21.3v-85.1h-3.4c-1,0-1.8,0.8-1.8,1.8v46.6h-5.3     c-1,0-1.8,0.8-1.8,1.8v5.6h-11.1v-5.6c0-1-0.8-1.8-1.8-1.8h-5.3v-46.6c0-1-0.8-1.8-1.8-1.8h-6.8c-1,0-1.8,0.8-1.8,1.8v46.6h-5.3     c-1,0-1.8,0.8-1.8,1.8v5.6h-11.1v-5.6c0-1-0.8-1.8-1.8-1.8h-5.3v-46.6c0-1-0.8-1.8-1.8-1.8h-6.8c-1,0-1.8,0.8-1.8,1.8v46.6h-5.3     c-1,0-1.8,0.8-1.8,1.8v5.6h-11.1v-5.6c0-1-0.8-1.8-1.8-1.8h-5.3v-46.6c0-1-0.8-1.8-1.8-1.8h-6.8c-1,0-1.8,0.8-1.8,1.8v46.6h-5.3     c-1,0-1.8,0.8-1.8,1.8v5.6h-10.8c-1,0-1.8,0.8-1.8,1.8v35.8c0,1,0.8,1.8,1.8,1.8h4.7V270h-4.7c-1,0-1.8,0.8-1.8,1.8v35.8     c0,1,0.8,1.8,1.8,1.8h10.8v5.6c0,1,0.8,1.8,1.8,1.8h5.3v46.6c0,1,0.8,1.8,1.8,1.8h6.8c1,0,1.8-0.8,1.8-1.8v-46.6h5.3     c1,0,1.8-0.8,1.8-1.8v-5.6H603v5.6c0,1,0.8,1.8,1.8,1.8h5.3v46.6c0,1,0.8,1.8,1.8,1.8h6.8c1,0,1.8-0.8,1.8-1.8v-46.6h5.3     c1,0,1.8-0.8,1.8-1.8v-5.6h11.1v5.6c0,1,0.8,1.8,1.8,1.8h5.3v46.6c0,1,0.8,1.8,1.8,1.8h6.8c1,0,1.8-0.8,1.8-1.8v-46.6h5.3     c1,0,1.8-0.8,1.8-1.8v-5.6h11.1v5.6c0,1,0.8,1.8,1.8,1.8h5.3v46.6c0,1,0.8,1.8,1.8,1.8h3.4v-85.1     C674.9,280.2,665.3,270.6,665.3,258.9z"/>
		</g>
	</g>
</g>
    <g>
	<path fill="#CCCCCC"
          d="M1260.6,553.9h-124.3H1078c-0.5,0-0.9,0.2-1.3,0.5l-56.9,56.9c-0.3,0.3-0.5,0.8-0.5,1.3v123.7h-9.1v44.3   h9.1v59.8c0,1,0.8,1.8,1.8,1.8h115.2h124.3c1,0,1.8-0.8,1.8-1.8V555.7C1262.4,554.7,1261.6,553.9,1260.6,553.9z"/>
        <g>
		<g>
			<polygon fill="#FBB03B"
                     points="1012.2,804 1012.2,818.9 1012.2,827.3 1012.2,831.5 1016.5,831.5 1025.1,831.5 1065.5,831.5      1251.7,831.5 1251.7,546.8 1085.4,546.8 1069.1,546.8 1012.2,603.7    "/>
            <path fill="#560404"
                  d="M1251.7,833.3h-239.5c-1,0-1.8-0.8-1.8-1.8V603.7c0-0.5,0.2-0.9,0.5-1.3l56.9-56.9     c0.3-0.3,0.8-0.5,1.3-0.5h182.6c1,0,1.8,0.8,1.8,1.8v284.7C1253.5,832.5,1252.7,833.3,1251.7,833.3z M1014,829.7h235.9V548.6     h-180l-55.8,55.8V829.7z"/>
            <g>
				<path fill="#C9CACC"
                      d="M1125.2,672.7h-30.8c-5.8,0-10.5,4.7-10.5,10.5c0,5.8,4.7,10.5,10.5,10.5h30.8c5.8,0,10.5-4.7,10.5-10.5      C1135.7,677.5,1131,672.7,1125.2,672.7z"/>
			</g>
            <path fill="#C9CACC"
                  d="M1123.1,597.1c0,9-7.3,16.3-16.3,16.3c-9,0-16.3-7.3-16.3-16.3c0-9,7.3-16.3,16.3-16.3     C1115.8,580.8,1123.1,588.1,1123.1,597.1z"/>
            <rect x="1160.5" y="614.7" width="80.3" height="39.4"/>
            <rect x="1101.6" y="807.8" width="133.7" height="14.4"/>
            <rect x="1144.2" y="557" fill="#343433" width="96.6" height="14.4"/>
            <rect x="1101.6" y="717.7" width="24.8" height="24.8"/>
            <rect x="1039.6" y="622.1" width="24.8" height="35.2"/>
            <rect x="1105.2" y="639.7" width="17.6" height="17.6"/>
            <rect x="1023.8" y="679.8" width="17.6" height="17.6"/>
            <rect x="1050.7" y="679.8" width="8.8" height="17.6"/>
            <rect x="1023.8" y="790.8" fill="#4E4E4E" width="26.8" height="24.1"/>
            <rect x="1059.4" y="794.4" fill="#4E4E4E" width="8.8" height="17.6"/>
            <rect x="1140.1" y="750.1" fill="#8D7966" width="8.8" height="17.6"/>
            <rect x="1140.1" y="642.6" fill="#8D7966" width="8.8" height="17.6"/>
            <rect x="1135.7" y="736.6" fill="#F5CB5B" width="17.6" height="8.8"/>
            <rect x="1135.7" y="772.5" fill="#F5CB5B" width="17.6" height="8.8"/>
            <rect x="1188.5" y="677.6" fill="#8D7966" width="11.9" height="6"/>
            <rect x="1178.4" y="674.6" fill="#F5CB5B" width="6" height="11.9"/>
            <rect x="1135.7" y="718.6" fill="#F5CB5B" width="17.6" height="8.8"/>
            <rect x="1072.6" y="738.2" fill="#8D7966" width="17.6" height="8.8"/>
            <rect x="1072.6" y="756.9" fill="#8D7966" width="17.6" height="8.8"/>
            <rect x="1140.1" y="700.6" fill="#8D7966" width="8.8" height="8.8"/>
            <rect x="1117.6" y="700.6" fill="#8D7966" width="8.8" height="8.8"/>
            <rect x="1168.5" y="654.2" fill="#C9CACC" width="8.8" height="8.8"/>
            <rect x="1186.6" y="654.2" fill="#C9CACC" width="8.8" height="8.8"/>
            <rect x="1204.7" y="654.2" fill="#C9CACC" width="8.8" height="8.8"/>
            <rect x="1222.7" y="654.2" fill="#C9CACC" width="8.8" height="8.8"/>
            <rect x="1168.5" y="605.9" fill="#C9CACC" width="8.8" height="8.8"/>
            <rect x="1186.6" y="605.9" fill="#C9CACC" width="8.8" height="8.8"/>
            <rect x="1204.7" y="605.9" fill="#C9CACC" width="8.8" height="8.8"/>
            <rect x="1222.7" y="605.9" fill="#C9CACC" width="8.8" height="8.8"/>
            <rect x="1140.1" y="667.9" fill="#C9CACC" width="8.8" height="8.8"/>
            <rect x="1206.1" y="677.6" fill="#343433" width="11.9" height="6"/>
            <rect x="1223.1" y="674.5" fill="#8D7966" width="8.8" height="8.8"/>
            <rect x="1223.1" y="691.8" fill="#343433" width="8.8" height="8.8"/>
            <path fill="#FFFFFF"
                  d="M1178.6,693.5c2.8,0,5.1,2.3,5.1,5.1c0,2.8-2.3,5.1-5.1,5.1c-2.8,0-5.1-2.3-5.1-5.1     C1173.5,695.8,1175.8,693.5,1178.6,693.5z"/>
            <circle fill="#FFFFFF" cx="1088.9" cy="814.9" r="7.5"/>
            <circle fill="#A7A9AC" cx="1037.3" cy="802.6" r="7.5"/>
            <path fill="#C9CACC"
                  d="M1075.4,566c0-4.2,3.4-7.5,7.5-7.5c4.2,0,7.5,3.4,7.5,7.5c0,4.2-3.4,7.5-7.5,7.5     C1078.8,573.5,1075.4,570.2,1075.4,566z"/>
            <path fill="#FFFFFF"
                  d="M1217.6,764h-48.5v-17.3h48.5V764 M1224,770.3V764v-17.3v-6.3h-6.3h-48.5h-6.3v6.3V764v6.3h6.3h48.5H1224     L1224,770.3z"/>
            <path fill="#FFFFFF"
                  d="M1227.3,764h-48.5v-17.3h48.5V764 M1233.6,770.3V764v-17.3v-6.3h-6.3h-48.5h-6.3v6.3V764v6.3h6.3h48.5     H1233.6L1233.6,770.3z"/>
            <rect x="1162.4" y="727.3" fill="#FFFFFF" width="71.2" height="6.3"/>
            <rect x="1001.3" y="727.4" width="63.1" height="44.3"/>
		</g>
            <path opacity="0.2" fill="#FFFFFF"
                  d="M1069.1,545c-0.5,0-0.9,0.2-1.3,0.5l-56.9,56.9c-0.3,0.3-0.5,0.8-0.5,1.3v123.7h-9.1v44.3    h9.1v59.8c0,1,0.8,1.8,1.8,1.8h115.2V545H1069.1z"/>
	</g>
</g>
</svg>
