<?xml version="1.0" encoding="utf-8"?>
<!-- Generator: Adobe Illustrator 18.0.0, SVG Export Plug-In . SVG Version: 6.00 Build 0)  -->
<!DOCTYPE svg PUBLIC "-//W3C//DTD SVG 1.1//EN" "http://www.w3.org/Graphics/SVG/1.1/DTD/svg11.dtd">
<svg xmlns="http://www.w3.org/2000/svg" xmlns:xlink="http://www.w3.org/1999/xlink" version="1.1" x="0px" y="0px"
     viewBox="0 0 1900 1400" enable-background="new 0 0 1900 1400" xml:space="preserve">
<g id="Background">
	
</g>
    <g id="Object">
	<g>
		<path fill="#450520"
              d="M1738.7,955.5c-0.2-0.1-0.4-0.3-0.6-0.4c-1.1-0.7-4.3-2.7-13.6-2.7c-4.6,0-11,0.6-15,2.1    c-0.3,0.1-0.6,0.3-0.9,0.4c-5.1,2.5-16.9,16.9-26.5,29.3c-1.1-0.4-2.3-0.6-3.6-0.6h-11.1c-6.7-10.4-16.2-24.9-18.7-27.3    c-0.7-0.7-1.5-1.3-2.4-1.8c-3.5-2-9.7-2.3-13.1-2.3c-3.8,0-10.9,0.4-15.2,2.9c-4.3,2.5-19.7,19.2-29.4,30    c-1.2-0.4-2.4-0.7-3.7-0.7h-7.7c-4-8.5-11.4-23.4-15.3-27.6c-5.2-5.6-15.6-6.3-19.9-6.3c-3.9,0-9.5,0.5-13.3,2.6    c-0.4,0.2-0.8,0.5-1.2,0.8c-7.3,5.5-177.6,175.5-211.6,209.6c-3,3-3.9,7.4-2.4,11.3c1.5,3.9,5.2,6.5,9.4,6.7    c5.7,0.2,8.1,1,8.9,1.3c1.9,2.1,7.6,10.6,17.3,30.5c1.8,3.6,5.4,5.9,9.5,5.9h29.1c4.1,0,7.8-2.4,9.5-6c9.4-19.9,15-27.9,16.6-29.4    c0.4-0.3,0.8-0.7,1.2-1l0.7-0.7c1.2,0.5,2.5,0.8,3.8,0.8c0.2,0,0.4,0,0.6,0l0.7,0c0.4,0,0.7-0.1,1.1-0.1c2.3,0,3.7,0.3,4.4,0.5    c1.6,2.5,5.9,11,13.6,29.6c1.6,3.9,5.5,6.5,9.7,6.5h30.1c3.9,0,7.4-2.1,9.3-5.5c10.3-18.9,16.9-29.8,18.8-31.8    c0.1-0.1,0.3-0.3,0.4-0.4l1.5-1.5c1.2,0.5,2.4,0.7,3.8,0.8c2.1,0,3.1,0.5,3.3,0.6c1.2,1.5,5.7,9.4,14.8,29.4    c1.4,3.1,4.3,5.4,7.7,6c0.6,0.1,1.2,0.2,1.9,0.2c2.8,0,5.5-1.1,7.4-3.1l212.4-212.4c3.5-3.5,4.1-9,1.4-13.1    C1743.7,959.2,1739.9,956.4,1738.7,955.5z"/>
        <g>
			<path fill="#8B3553"
                  d="M1663.3,994.1c-1.1,0-2.1-0.6-2.7-1.5c-7.1-11.1-17.9-27.4-19.5-29c-0.4-0.2-3.1-0.9-7.9-0.9     c-4.9,0-8.7,0.7-9.9,1.4c-2.4,1.4-16.3,16.2-28.4,29.7c0,0,0,0-0.1,0c0,0,0,0,0,0.1l-175.2,178.2c0.8,0,1.6-0.1,2.3-0.1     c3.8,0,9,0.6,11.8,3.4c3.4,3.4,12.2,24.3,15.9,33.3h30.1c4.2-7.8,16.7-30.4,20.6-34.3c0,0,0,0,0-0.1l178.1-180.2H1663.3z"/>
            <path fill="#8B3553"
                  d="M1572.5,994.8c-1.2,0-2.4-0.7-2.9-1.9c-4.5-9.6-12.6-26-15.5-29.1c-1.3-1.4-5.9-2.9-12.1-2.9     c-4.1,0-7,0.6-8.2,1.3c-5.8,4.3-148.9,147.1-210.5,208.6c6.7,0.3,11.4,1.3,14.2,2.9c5.3,3.2,16.5,25.5,21,34.8h29.1     c4.8-10.1,14.3-29.4,19.8-33.4l177.3-180.4H1572.5z"/>
            <path fill="#8B3553"
                  d="M1732.5,964c-0.6-0.4-3-1.1-7.9-1.1c-5,0-9.4,0.7-11.3,1.4c-2.7,1.3-14.9,15.9-24.6,28.5     c0,0-0.1,0.1-0.1,0.1c0,0.1-0.1,0.1-0.1,0.2l-174.9,177c4.8,0.1,8.8,1.6,11.2,4.3c3.6,4.2,12.4,23,16.4,31.8l212.4-212.4     C1744.6,980.1,1734.7,965.7,1732.5,964z"/>
		</g>
	</g>
        <g>
		<path fill="#450520"
              d="M1718.3,893.8c-0.2-0.1-0.4-0.3-0.6-0.4c-1.1-0.7-4.3-2.7-13.6-2.7c-4.6,0-11,0.6-15,2.1    c-0.3,0.1-0.6,0.3-0.9,0.4c-5.1,2.5-16.9,16.9-26.5,29.3c-1.1-0.4-2.3-0.6-3.6-0.6H1647c-6.7-10.4-16.2-24.9-18.7-27.3    c-0.7-0.7-1.5-1.3-2.4-1.8c-3.5-2-9.7-2.3-13.1-2.3c-3.8,0-10.9,0.4-15.2,2.9c-4.3,2.5-19.7,19.2-29.4,30    c-1.2-0.4-2.4-0.7-3.7-0.7h-7.7c-4-8.5-11.4-23.4-15.3-27.6c-5.2-5.6-15.6-6.3-19.9-6.3c-3.9,0-9.5,0.5-13.3,2.6    c-0.4,0.2-0.8,0.5-1.2,0.8c-7.3,5.5-177.6,175.5-211.6,209.6c-3,3-3.9,7.4-2.4,11.3c1.5,3.9,5.2,6.5,9.4,6.7    c5.7,0.2,8.1,1,8.9,1.3c1.9,2.1,7.6,10.6,17.3,30.5c1.8,3.6,5.4,5.9,9.5,5.9h29.1c4.1,0,7.8-2.4,9.5-6c9.4-19.9,15-27.9,16.6-29.4    c0.4-0.3,0.8-0.7,1.2-1l0.7-0.7c1.2,0.5,2.5,0.8,3.8,0.8c0.2,0,0.4,0,0.6,0l0.7,0c0.4,0,0.7-0.1,1.1-0.1c2.3,0,3.7,0.3,4.4,0.5    c1.6,2.5,5.9,11,13.6,29.6c1.6,3.9,5.5,6.5,9.7,6.5h30.1c3.9,0,7.4-2.1,9.3-5.5c10.3-18.9,16.9-29.8,18.8-31.8    c0.1-0.1,0.3-0.3,0.4-0.4l1.5-1.5c1.2,0.5,2.4,0.7,3.8,0.8c2.1,0,3.1,0.5,3.3,0.6c1.2,1.5,5.7,9.4,14.8,29.4    c1.4,3.1,4.3,5.4,7.7,6c0.6,0.1,1.2,0.2,1.9,0.2c2.8,0,5.5-1.1,7.4-3.1l212.4-212.4c3.5-3.5,4.1-9,1.4-13.1    C1723.4,897.5,1719.6,894.7,1718.3,893.8z"/>
            <g>
			<path fill="#8B3553"
                  d="M1643,932.4c-1.1,0-2.1-0.6-2.7-1.5c-7.1-11.1-17.9-27.4-19.5-29c-0.4-0.2-3.1-0.9-7.9-0.9     c-4.9,0-8.7,0.7-9.9,1.4c-2.4,1.4-16.3,16.2-28.4,29.7c0,0,0,0-0.1,0c0,0,0,0,0,0.1l-175.2,178.2c0.8,0,1.6-0.1,2.3-0.1     c3.8,0,9,0.6,11.8,3.4c3.4,3.4,12.2,24.3,15.9,33.3h30.1c4.2-7.8,16.7-30.4,20.6-34.3c0,0,0,0,0-0.1l178.1-180.2H1643z"/>
                <path fill="#8B3553"
                      d="M1552.1,933.1c-1.2,0-2.4-0.7-2.9-1.9c-4.5-9.6-12.6-26-15.5-29.1c-1.3-1.4-5.9-2.9-12.1-2.9     c-4.1,0-7,0.6-8.2,1.3c-5.8,4.3-148.9,147.1-210.5,208.6c6.7,0.3,11.4,1.3,14.2,2.9c5.3,3.2,16.5,25.5,21,34.8h29.1     c4.8-10.1,14.3-29.4,19.8-33.4l177.3-180.4H1552.1z"/>
                <path fill="#8B3553"
                      d="M1712.1,902.3c-0.6-0.4-3-1.1-7.9-1.1c-5,0-9.4,0.7-11.3,1.4c-2.7,1.3-14.9,15.9-24.6,28.5     c0,0-0.1,0.1-0.1,0.1c0,0.1-0.1,0.1-0.1,0.2l-174.9,177c4.8,0.1,8.8,1.6,11.2,4.3c3.6,4.2,12.4,23,16.4,31.8l212.4-212.4     C1724.3,918.3,1714.3,903.9,1712.1,902.3z"/>
		</g>
	</g>
        <g>
		<path fill="#7A3600"
              d="M1198.8,1001c-1.7-3.6-5.4-6-9.5-6H957.9c-5.1,0-9.4,3.7-10.3,8.6c-0.1,0-0.2,0-0.3,0h-4    c-0.9-4.9-5.2-8.6-10.3-8.6h-22.5c-2.8,0-5.5,1.1-7.4,3.1L739.1,1162c-1.4,1.4-2.3,3.2-2.8,5c-2.9,1.9-4.8,5.1-4.8,8.9v31.4    c0,5.8,4.7,10.5,10.5,10.5h224.5c4.3,0,8.1-2.6,9.7-6.4c1.9-0.6,3.6-1.8,4.9-3.4l5.4-6.6c0.6-0.8,1.1-1.6,1.5-2.5h0    c0.1,0.2,0.1,0.4,0.2,0.5l0.9,1.9c1.1,2.3,3.1,4.1,5.3,5v0.9c0,5.8,4.7,10.5,10.5,10.5h22.8c3.7,0,7-2,8.9-4.9    c1.9-0.5,3.6-1.4,5-2.8l159.6-161.7c1.9-2,3-4.6,3-7.4v-30.7C1204.3,1006.3,1202.1,1002.8,1198.8,1001z"/>
            <g>
			<path fill="#E48423"
                  d="M775.5,1181.5H799v-8.9c0-0.2,0.1-0.3,0.1-0.4c0-0.3,0.1-0.5,0.2-0.7c0.1-0.2,0.2-0.4,0.4-0.6     c0.1-0.1,0.1-0.3,0.3-0.4l147.4-156.3h-9.8l-162,159.9V1181.5z"/>
                <path fill="#E48423"
                      d="M805.4,1184.7c0,1.8-1.4,3.2-3.2,3.2h-29.9c-1.8,0-3.2-1.4-3.2-3.2v-8.9H742v31.4h224.5v-15.7     c0-1.8,1.4-3.2,3.2-3.2h32.1c1.8,0,3.2,1.4,3.2,3.2v15.7h22.8v-31.4H805.4V1184.7z"/>
                <path fill="#E48423"
                      d="M957.9,1005.5v5.3c0,0.2-0.1,0.3-0.1,0.4c0,0.3-0.1,0.5-0.2,0.7c-0.1,0.2-0.2,0.4-0.4,0.6     c-0.1,0.1-0.1,0.3-0.3,0.4l-147.4,156.3h219.9l159.8-163.9H957.9z"/>
                <polygon fill="#E48423" points="998.5,1196.6 998.5,1194.7 997.6,1194.7    "/>
                <polygon fill="#E48423" points="932.9,1009.5 932.9,1005.5 910.4,1005.5 746.5,1169.4 770.9,1169.4    "/>
                <polygon fill="#E48423" points="972.8,1201.4 978.2,1194.7 972.8,1194.7    "/>
                <polygon fill="#E48423" points="1034.1,1202.6 1193.7,1040.9 1193.7,1010.2 1034.1,1173.9    "/>
		</g>
	</g>
        <g>
		<path fill="#7A3600"
              d="M1167.2,928.3c-1.7-3.6-5.4-6-9.5-6H926.3c-5.1,0-9.4,3.7-10.3,8.6c-0.1,0-0.2,0-0.3,0h-4    c-0.9-4.9-5.2-8.6-10.3-8.6h-22.5c-2.8,0-5.5,1.1-7.4,3.1l-163.9,163.9c-1.4,1.4-2.3,3.2-2.8,5c-2.9,1.9-4.8,5.1-4.8,8.9v31.4    c0,5.8,4.7,10.5,10.5,10.5h224.5c4.3,0,8.1-2.6,9.7-6.4c1.9-0.6,3.6-1.8,4.9-3.4l5.4-6.6c0.6-0.8,1.1-1.6,1.5-2.5h0    c0.1,0.2,0.1,0.4,0.2,0.5l0.9,1.9c1.1,2.3,3.1,4.1,5.3,5v0.9c0,5.8,4.7,10.5,10.5,10.5h22.8c3.7,0,7-2,8.9-4.9    c1.9-0.5,3.6-1.4,5-2.8l159.6-161.7c1.9-2,3-4.6,3-7.4v-30.7C1172.7,933.7,1170.6,930.2,1167.2,928.3z"/>
            <g>
			<path fill="#E48423"
                  d="M743.9,1108.9h23.5v-8.9c0-0.2,0.1-0.3,0.1-0.4c0-0.3,0.1-0.5,0.2-0.7c0.1-0.2,0.2-0.4,0.4-0.6     c0.1-0.1,0.1-0.3,0.3-0.4l147.4-156.3h-9.8l-162,159.9V1108.9z"/>
                <path fill="#E48423"
                      d="M773.8,1112.1c0,1.8-1.4,3.2-3.2,3.2h-29.9c-1.8,0-3.2-1.4-3.2-3.2v-8.9h-27.1v31.4h224.5v-15.7     c0-1.8,1.4-3.2,3.2-3.2h32.1c1.8,0,3.2,1.4,3.2,3.2v15.7h22.8v-31.4H773.8V1112.1z"/>
                <path fill="#E48423"
                      d="M926.3,932.9v5.3c0,0.2-0.1,0.3-0.1,0.4c0,0.3-0.1,0.5-0.2,0.7c-0.1,0.2-0.2,0.4-0.4,0.6     c-0.1,0.1-0.1,0.3-0.3,0.4L778,1096.8H998l159.8-163.9H926.3z"/>
                <polygon fill="#E48423" points="966.9,1123.9 966.9,1122.1 966,1122.1    "/>
                <polygon fill="#E48423" points="901.4,936.9 901.4,932.9 878.8,932.9 714.9,1096.8 739.4,1096.8    "/>
                <polygon fill="#E48423" points="941.3,1128.7 946.6,1122.1 941.3,1122.1    "/>
                <polygon fill="#E48423" points="1002.5,1129.9 1162.2,968.3 1162.2,937.6 1002.5,1101.3    "/>
		</g>
	</g>
        <g>
		<path fill="#3A2F19"
              d="M578.4,951.7c-1.9-3.3-5.4-5.4-9.2-5.4h-27.3c-2.8,0-5.5,1.1-7.4,3.1L521.9,962c-1.2-0.4-2.4-0.7-3.7-0.7    h-4.9l-5.5-9.7c-1.9-3.3-5.4-5.3-9.1-5.3h-24.5c-2.9,0-5.7,1.2-7.7,3.4l-11.9,12.8c-1.1-0.4-2.4-0.7-3.6-0.7h-6.9l-3.7-9    c-1.6-3.9-5.5-6.5-9.7-6.5h-28.9c-3.2,0-6.2,1.5-8.2,4L383.2,963c-1.1-0.4-2.2-0.6-3.4-0.6h-4.3l-6.1-10.7    c-1.9-3.3-5.4-5.3-9.2-5.3h-20.3c-2.8,0-5.5,1.1-7.4,3.1l-215.9,214.8c-3,3-3.9,7.5-2.3,11.5c1.6,3.9,5.5,6.5,9.7,6.5h19.2    l6.5,10.1c1.9,3,5.3,4.8,8.9,4.8h25.2c3.8,0,7.3-2,9.1-5.3l5.8-10.1c0.9,0.3,1.9,0.4,2.9,0.4h10.8l5.5,9.7    c1.9,3.3,5.4,5.3,9.1,5.3h26.3c3.7,0,7.1-1.9,9-5.1l6.3-10.3c1,0.3,2,0.4,3,0.4h11.4l6,9.9c1.9,3.1,5.3,5.1,9,5.1h23.1    c3.7,0,7.1-1.9,9-5.1l6.3-10.3c1,0.3,2,0.4,3,0.4h10.5l5.3,8.2c1.7,2.7,4.6,4.4,7.7,4.8c0.4,0,0.7,0.1,1.1,0.1    c2.8,0,5.5-1.1,7.5-3.1l213-213.5c3.3-3.3,4-8.5,1.7-12.6L578.4,951.7z"/>
            <g>
			<path fill="#6B583C"
                  d="M439,972.4c-1.3,0-2.5-0.8-3-2l-5.6-13.5h-28.9l-11.9,14.8c0,0-0.1,0-0.1,0.1c0,0,0,0.1-0.1,0.1     l-187.8,199.8h15c1.2,0,2.2,0.6,2.8,1.6l7.6,13.3h26.3l8.1-13.4c0-0.1,0.1-0.1,0.2-0.2c0.1-0.1,0.1-0.3,0.2-0.4l188.9-200.3H439z     "/>
                <path fill="#6B583C"
                      d="M371.2,972.9c-1.2,0-2.2-0.6-2.8-1.6l-8.2-14.4h-20.3L124,1171.7h23.2c1.1,0,2.1,0.6,2.7,1.5l8.7,13.5     h25.2l7.6-13.3c0-0.1,0.1-0.1,0.2-0.2c0.1-0.1,0.1-0.3,0.3-0.4l187.8-199.8H371.2z"/>
                <path fill="#6B583C"
                      d="M509.1,971.8c-1.2,0-2.2-0.6-2.8-1.6l-7.6-13.3h-24.5l-13.5,14.5c0,0,0,0,0,0c0,0,0,0,0,0l-188.9,200.3     h15.5c1.1,0,2.2,0.6,2.7,1.5l8.1,13.4h23.1l8.1-13.4c0-0.1,0.1-0.1,0.2-0.2c0.1-0.1,0.1-0.2,0.2-0.4l188.4-200.9H509.1z"/>
                <path fill="#6B583C"
                      d="M541.9,956.9l-14,14l-188.4,200.9h14.5c1.1,0,2.1,0.6,2.7,1.5l7.5,11.6l213-213.5l-8.1-14.4H541.9z"/>
		</g>
	</g>
        <g>
		<path fill="#3A2F19"
              d="M564.3,909.6c-1.9-3.3-5.4-5.4-9.2-5.4h-27.3c-2.8,0-5.5,1.1-7.4,3.1l-12.6,12.6c-1.2-0.4-2.4-0.7-3.7-0.7    h-4.9l-5.5-9.7c-1.9-3.3-5.4-5.3-9.1-5.3h-24.5c-2.9,0-5.7,1.2-7.7,3.4l-11.9,12.8c-1.1-0.4-2.4-0.7-3.6-0.7h-6.9l-3.7-9    c-1.6-3.9-5.5-6.5-9.7-6.5h-28.9c-3.2,0-6.2,1.5-8.2,4l-10.1,12.7c-1.1-0.4-2.2-0.6-3.4-0.6h-4.3l-6.1-10.7    c-1.9-3.3-5.4-5.3-9.2-5.3h-20.3c-2.8,0-5.5,1.1-7.4,3.1l-215.9,214.8c-3,3-3.9,7.5-2.3,11.5c1.6,3.9,5.5,6.5,9.7,6.5h19.2    l6.5,10.1c1.9,3,5.3,4.8,8.9,4.8h25.2c3.8,0,7.3-2,9.1-5.3l5.8-10.1c0.9,0.3,1.9,0.4,2.9,0.4h10.8l5.5,9.7    c1.9,3.3,5.4,5.3,9.1,5.3h26.3c3.7,0,7.1-1.9,9-5.1l6.3-10.3c1,0.3,2,0.4,3,0.4h11.4l6,9.9c1.9,3.1,5.3,5.1,9,5.1h23.1    c3.7,0,7.1-1.9,9-5.1l6.3-10.3c1,0.3,2,0.4,3,0.4H336l5.3,8.2c1.7,2.7,4.6,4.4,7.7,4.8c0.4,0,0.7,0.1,1.1,0.1    c2.8,0,5.5-1.1,7.5-3.1l213-213.5c3.3-3.3,4-8.5,1.7-12.6L564.3,909.6z"/>
            <g>
			<path fill="#6B583C"
                  d="M425,930.3c-1.3,0-2.5-0.8-3-2l-5.6-13.5h-28.9l-11.9,14.8c0,0-0.1,0-0.1,0.1c0,0,0,0.1-0.1,0.1     l-187.8,199.8h15c1.2,0,2.2,0.6,2.8,1.6l7.6,13.3h26.3l8.1-13.4c0-0.1,0.1-0.1,0.2-0.2c0.1-0.1,0.1-0.3,0.2-0.4l188.9-200.3H425z     "/>
                <path fill="#6B583C"
                      d="M357.1,930.8c-1.2,0-2.2-0.6-2.8-1.6l-8.2-14.4h-20.3L110,1129.6h23.2c1.1,0,2.1,0.6,2.7,1.5l8.7,13.5     h25.2l7.6-13.3c0-0.1,0.1-0.1,0.2-0.2c0.1-0.1,0.1-0.3,0.3-0.4l187.8-199.8H357.1z"/>
                <path fill="#6B583C"
                      d="M495,929.7c-1.2,0-2.2-0.6-2.8-1.6l-7.6-13.3h-24.5l-13.5,14.5c0,0,0,0,0,0c0,0,0,0,0,0l-188.9,200.3     h15.5c1.1,0,2.2,0.6,2.7,1.5l8.1,13.4h23.1l8.1-13.4c0-0.1,0.1-0.1,0.2-0.2c0.1-0.1,0.1-0.2,0.2-0.4l188.4-200.9H495z"/>
                <path fill="#6B583C"
                      d="M527.9,914.8l-14,14l-188.4,200.9H340c1.1,0,2.1,0.6,2.7,1.5l7.5,11.6l213-213.5l-8.1-14.4H527.9z"/>
		</g>
	</g>
        <g>
		<path fill="#742510"
              d="M601.9,393.4c-26,0-41.7,9.4-50.3,17.3c-5.9,5.4-9.4,10.9-11.3,14.6c-0.9-0.2-1.8-0.4-2.8-0.4h-14.1    c-5.1-11.1-20.9-35.8-58.9-35.8c-38.5,0-57.9,25.8-63.9,35.7c-1-0.3-2-0.5-3.1-0.5h-16.4c-5.2-10.5-20.8-34.2-56-35.7    c-0.2,0-0.3,0-0.5,0c-2.7,0-5.4,1.1-7.3,3L184.7,520.7c-1.4,1.4-2.4,3.1-2.9,5c-0.5,0.4-1,0.8-1.5,1.2c-2.1,2.1-3.2,4.9-3,7.9    l0.8,17.8c0.2,5.3,4.3,9.5,9.6,10c4.3,0.4,15,2,21.8,9.1c4,4.2,6.1,9.7,6.2,16.8c0.1,5.7,4.8,10.3,10.5,10.3h62.5    c4.9,0,9.2-3.4,10.3-8.2c1.9-8.2,8.4-27.1,28.7-27.1c19.3,0,25.6,17.1,27.7,27.3c1,4.9,5.3,8.5,10.3,8.5h62.6    c4.9,0,9.1-3.3,10.2-8.1c2-8.3,8.7-27.7,28.2-27.7c17.3,0,23.1,12.2,25,22.4c0.9,5,5.3,8.6,10.4,8.6h22.3c2.9,0,5.7-1.2,7.7-3.4    c0.3-0.4,0.6-0.8,0.9-1.2c1.8-0.5,3.5-1.4,4.8-2.8l127.8-131.9c2.7-2.8,3.7-6.9,2.4-10.7C659.8,419.9,638,393.4,601.9,393.4z"/>
            <g>
			<path fill="#BD5945"
                  d="M241.6,565.9h32.2c1.5-3.3,5-9.8,11.3-16.2c0.1-0.2,0.2-0.3,0.3-0.5l112.2-114.3h-21.2     c-1.4,0-2.6-0.9-3-2.2c-0.5-1.3-11.4-31.9-48.6-33.6L192,528.3C205.8,529.6,233.8,536.1,241.6,565.9z"/>
                <path fill="#BD5945"
                      d="M217.1,564.5c5.9,6.1,9,14.1,9.2,23.8h62.5c2-8.8,10.5-35.3,39-35.3c28.5,0,36.2,26.8,38,35.8h62.6     c2.1-8.8,10.8-35.8,38.4-35.8c27.2,0,33.8,22.7,35.4,31h22.3c-0.6-7.8-4.9-19.3-14.1-29.1c-7.4-7.9-20.6-17.4-41.4-17.4     c-18.4,0-30.5,7-38.3,14.5l-2.2,2.2l0,0c-7.2,7.7-9.9,15.2-9.9,15.3c-0.4,1.3-1.7,2.2-3,2.2H378c-1.6,0-2.9-1.1-3.2-2.7     c-0.2-1.2-5.6-30.4-44.9-30.4c-40,0-50.8,31.2-50.9,31.5c-0.4,1.3-1.7,2.2-3,2.2H239c-1.5,0-2.8-1.1-3.1-2.5     c-6.7-31.5-37.9-35-48-35.4l0.8,17.8C194.6,552.7,207.9,554.9,217.1,564.5z"/>
                <path fill="#BD5945"
                      d="M329.9,532.2c37.6,0,48.1,24.8,50.6,33.1h32.8c1.4-3.1,4.7-9.2,10.4-15.3c0.1-0.1,0.1-0.2,0.2-0.3     l1.4-1.4c0.1-0.1,0.2-0.2,0.2-0.2l112.1-112.6h-19c-1.4,0-2.7-0.9-3.1-2.3c-0.4-1.4-10.6-33.5-50.9-33.5     c-40.8,0-56.3,33.1-56.4,33.4c-0.1,0.3-0.4,0.6-0.6,0.9c0,0,0,0,0,0.1l-99.9,101.7C313.9,533.6,321.3,532.2,329.9,532.2z"/>
                <path fill="#BD5945"
                      d="M468.8,531.1c23.1,0,37.8,10.5,46.1,19.4c9,9.6,13.8,20.5,15.4,29.3L658.1,448c-2.8-8.5-17.1-44-56.2-44     c-43.7,0-53.5,29-53.6,29.3c0,0,0,0.1-0.1,0.1c0,0.1-0.1,0.2-0.2,0.3c-0.1,0.2-0.3,0.5-0.5,0.7c0,0.1-0.1,0.1-0.1,0.2l-99.3,99.8     C454.2,532.4,461,531.1,468.8,531.1z"/>
		</g>
	</g>
        <g>
		<path fill="#742510"
              d="M561.4,288c-26,0-41.7,9.4-50.3,17.3c-5.9,5.4-9.4,10.9-11.3,14.6c-0.9-0.2-1.8-0.4-2.8-0.4h-14.1    c-5.1-11.1-20.9-35.8-58.9-35.8c-38.5,0-57.9,25.8-63.9,35.7c-1-0.3-2-0.5-3.1-0.5h-16.4c-5.2-10.5-20.8-34.2-56-35.7    c-0.2,0-0.3,0-0.5,0c-2.7,0-5.4,1.1-7.3,3L144.2,415.3c-1.4,1.4-2.4,3.1-2.9,5c-0.5,0.4-1,0.8-1.5,1.2c-2.1,2.1-3.2,4.9-3,7.9    l0.8,17.8c0.2,5.3,4.3,9.5,9.6,10c4.3,0.4,15,2,21.8,9.1c4,4.2,6.1,9.7,6.2,16.8c0.1,5.7,4.8,10.3,10.5,10.3h62.5    c4.9,0,9.2-3.4,10.3-8.2c1.9-8.2,8.4-27.1,28.7-27.1c19.3,0,25.6,17.1,27.7,27.3c1,4.9,5.3,8.5,10.3,8.5h62.6    c4.9,0,9.1-3.3,10.2-8.1c2-8.3,8.7-27.7,28.2-27.7c17.3,0,23.1,12.2,25,22.4c0.9,5,5.3,8.6,10.4,8.6h22.3c2.9,0,5.7-1.2,7.7-3.4    c0.3-0.4,0.6-0.8,0.9-1.2c1.8-0.5,3.5-1.4,4.8-2.8l127.8-131.9c2.7-2.8,3.7-6.9,2.4-10.7C619.3,314.4,597.5,288,561.4,288z"/>
            <g>
			<path fill="#BD5945"
                  d="M201,460.4h32.2c1.5-3.3,5-9.8,11.3-16.2c0.1-0.2,0.2-0.3,0.3-0.5L357,329.5h-21.2c-1.4,0-2.6-0.9-3-2.2     c-0.5-1.3-11.4-31.9-48.6-33.6L151.5,422.8C165.2,424.2,193.2,430.7,201,460.4z"/>
                <path fill="#BD5945"
                      d="M176.5,459c5.9,6.1,9,14.1,9.2,23.8h62.5c2-8.8,10.5-35.3,39-35.3c28.5,0,36.2,26.8,38,35.8h62.6     c2.1-8.8,10.8-35.8,38.4-35.8c27.2,0,33.8,22.7,35.4,31h22.3c-0.6-7.8-4.9-19.3-14.1-29.1c-7.4-7.9-20.6-17.4-41.4-17.4     c-18.4,0-30.5,7-38.3,14.5l-2.2,2.2l0,0c-7.2,7.7-9.9,15.2-9.9,15.3c-0.4,1.3-1.7,2.2-3,2.2h-37.4c-1.6,0-2.9-1.1-3.2-2.7     c-0.2-1.2-5.6-30.4-44.9-30.4c-40,0-50.8,31.2-50.9,31.5c-0.4,1.3-1.7,2.2-3,2.2h-36.9c-1.5,0-2.8-1.1-3.1-2.5     c-6.7-31.5-37.9-35-48-35.4l0.8,17.8C154.1,447.2,167.4,449.5,176.5,459z"/>
                <path fill="#BD5945"
                      d="M289.3,426.7c37.6,0,48.1,24.8,50.6,33.1h32.8c1.4-3.1,4.7-9.2,10.4-15.3c0.1-0.1,0.1-0.2,0.2-0.3     l1.4-1.4c0.1-0.1,0.2-0.2,0.2-0.2L497,330h-19c-1.4,0-2.7-0.9-3.1-2.3c-0.4-1.4-10.6-33.5-50.9-33.5c-40.8,0-56.3,33.1-56.4,33.4     c-0.1,0.3-0.4,0.6-0.6,0.9c0,0,0,0,0,0.1l-99.9,101.7C273.4,428.1,280.7,426.7,289.3,426.7z"/>
                <path fill="#BD5945"
                      d="M428.3,425.7c23.1,0,37.8,10.5,46.1,19.4c9,9.6,13.8,20.5,15.4,29.3l127.8-131.9     c-2.8-8.5-17.1-44-56.2-44c-43.7,0-53.5,29-53.6,29.3c0,0,0,0.1-0.1,0.1c0,0.1-0.1,0.2-0.2,0.3c-0.1,0.2-0.3,0.5-0.5,0.7     c0,0.1-0.1,0.1-0.1,0.2l-99.3,99.8C413.6,426.9,420.4,425.7,428.3,425.7z"/>
		</g>
	</g>
        <g>
		<path fill="#742510"
              d="M505.4,204.3c-26,0-41.7,9.4-50.3,17.3c-5.9,5.4-9.4,10.9-11.3,14.6c-0.9-0.2-1.8-0.4-2.8-0.4H427    c-5.1-11.1-20.9-35.8-58.9-35.8c-38.5,0-57.9,25.8-63.9,35.7c-1-0.3-2-0.5-3.1-0.5h-16.4c-5.2-10.5-20.8-34.2-56-35.7    c-0.2,0-0.3,0-0.5,0c-2.7,0-5.4,1.1-7.3,3L88.2,331.6c-1.4,1.4-2.4,3.1-2.9,5c-0.5,0.4-1,0.8-1.5,1.2c-2.1,2.1-3.2,4.9-3,7.9    l0.8,17.8c0.2,5.3,4.3,9.5,9.6,10c4.3,0.4,15,2,21.8,9.1c4,4.2,6.1,9.7,6.2,16.8c0.1,5.7,4.8,10.3,10.5,10.3h62.5    c4.9,0,9.2-3.4,10.3-8.2c1.9-8.2,8.4-27.1,28.7-27.1c19.3,0,25.6,17.1,27.7,27.3c1,4.9,5.3,8.5,10.3,8.5h62.6    c4.9,0,9.1-3.3,10.2-8.1c2-8.3,8.7-27.7,28.2-27.7c17.3,0,23.1,12.2,25,22.4c0.9,5,5.3,8.6,10.4,8.6h22.3c2.9,0,5.7-1.2,7.7-3.4    c0.3-0.4,0.6-0.8,0.9-1.2c1.8-0.5,3.5-1.4,4.8-2.8l127.8-131.9c2.7-2.8,3.7-6.9,2.4-10.7C563.3,230.7,541.5,204.3,505.4,204.3z"/>
            <g>
			<path fill="#BD5945"
                  d="M145,376.7h32.2c1.5-3.3,5-9.8,11.3-16.2c0.1-0.2,0.2-0.3,0.3-0.5l112.2-114.3h-21.2     c-1.4,0-2.6-0.9-3-2.2c-0.5-1.3-11.4-31.9-48.6-33.6L95.5,339.1C109.3,340.5,137.3,347,145,376.7z"/>
                <path fill="#BD5945"
                      d="M120.6,375.3c5.9,6.1,9,14.1,9.2,23.8h62.5c2-8.8,10.5-35.3,39-35.3c28.5,0,36.2,26.8,38,35.8h62.6     c2.1-8.8,10.8-35.8,38.4-35.8c27.2,0,33.8,22.7,35.4,31h22.3c-0.6-7.8-4.9-19.3-14.1-29.1c-7.4-7.9-20.6-17.4-41.4-17.4     c-18.4,0-30.5,7-38.3,14.5l-2.2,2.2l0,0c-7.2,7.7-9.9,15.2-9.9,15.3c-0.4,1.3-1.7,2.2-3,2.2h-37.4c-1.6,0-2.9-1.1-3.2-2.7     c-0.2-1.2-5.6-30.4-44.9-30.4c-40,0-50.8,31.2-50.9,31.5c-0.4,1.3-1.7,2.2-3,2.2h-36.9c-1.5,0-2.8-1.1-3.1-2.5     c-6.7-31.5-37.9-35-48-35.4l0.8,17.8C98.1,363.5,111.4,365.8,120.6,375.3z"/>
                <path fill="#BD5945"
                      d="M233.4,343.1c37.6,0,48.1,24.8,50.6,33.1h32.8c1.4-3.1,4.7-9.2,10.4-15.3c0.1-0.1,0.1-0.2,0.2-0.3     l1.4-1.4c0.1-0.1,0.2-0.2,0.2-0.2L441,246.3h-19c-1.4,0-2.7-0.9-3.1-2.3c-0.4-1.4-10.6-33.5-50.9-33.5     c-40.8,0-56.3,33.1-56.4,33.4c-0.1,0.3-0.4,0.6-0.6,0.9c0,0,0,0,0,0.1l-99.9,101.7C217.4,344.4,224.8,343.1,233.4,343.1z"/>
                <path fill="#BD5945"
                      d="M372.3,342c23.1,0,37.8,10.5,46.1,19.4c9,9.6,13.8,20.5,15.4,29.3l127.8-131.9c-2.8-8.5-17.1-44-56.2-44     c-43.7,0-53.5,29-53.6,29.3c0,0,0,0.1-0.1,0.1c0,0.1-0.1,0.2-0.2,0.3c-0.1,0.2-0.3,0.5-0.5,0.7c0,0.1-0.1,0.1-0.1,0.2l-99.3,99.8     C357.7,343.2,364.5,342,372.3,342z"/>
		</g>
	</g>
        <g>
		<path fill="#1B3B23"
              d="M1207.7,391.3c-1.9-2.2-4.6-3.5-7.6-3.7c-0.1,0-0.3,0-0.4,0c-0.7,0-1.3,0.1-1.9,0.2    c-1.7-1.1-3.6-1.7-5.7-1.7h-47.4c-2.9,0-5.7,1.2-7.7,3.3c0,0-21.5,23-27,28.9c-1.2-0.5-2.5-0.7-3.8-0.7h-12.7l-18.6-25.5    c-1.8-2.5-4.6-4.1-7.7-4.3c-0.3,0-0.5,0-0.8,0c-0.5,0-0.9,0-1.4,0.1c-1.7-1.2-3.8-1.8-5.9-1.8h-44.9c-2.9,0-5.7,1.2-7.7,3.3    l-26.9,28.9c-1.2-0.4-2.4-0.7-3.7-0.7h-9.7L947.2,392c-1.8-2.5-4.6-4-7.7-4.2c-0.3,0-0.5,0-0.8,0c-0.5,0-1,0-1.5,0.1    c-1.7-1.2-3.7-1.8-5.9-1.8h-42.8c-2.8,0-5.5,1.1-7.5,3.1L752.9,518c-1.4,1.4-2.3,3.2-2.8,5c-2.9,1.9-4.8,5.1-4.8,8.8V550    c0,5.8,4.7,10.5,10.5,10.5h36.5l18.2,23.7c2,2.6,5.1,4.1,8.3,4.1h47.2c3,0,5.8-1.3,7.8-3.4l23.6-25.9h22l19.3,25.3    c2,2.6,5.1,4.1,8.4,4.1h48.2c3.1,0,6-1.3,8-3.7l23-26.8h24.1l19.6,24.8c1.9,2.4,4.7,3.8,7.7,4c0.2,0,0.4,0,0.6,0    c2.8,0,5.5-1.1,7.5-3.1l10.6-10.7c0.8-0.8,1.4-1.7,1.9-2.7c1-0.5,1.9-1.1,2.6-1.9l131.5-133.4c3.8-3.9,4.1-10.1,0.5-14.3    L1207.7,391.3z"/>
            <g>
			<path fill="#4F7A54"
                  d="M1061.8,525.4l130.3-128.8h-47.4l-28.4,30.5c0,0,0,0,0,0c0,0,0,0,0,0l-96.7,98.2H1061.8z"/>
                <polygon fill="#4F7A54" points="1093.4,560.9 1225,427.5 1199.7,398.1 1067.4,528.9    "/>
                <polygon fill="#4F7A54"
                         points="931.4,525.4 1059.2,396.6 1014.3,396.6 985.8,427.1 985.8,427.1 985.8,427.2 892.1,525.4    "/>
                <path fill="#4F7A54"
                      d="M957.3,554.8h28.5l23.6-28.2c0,0,0.1,0,0.1-0.1c0,0,0-0.1,0.1-0.1l96.7-98.2h-16.4c-1,0-2-0.5-2.6-1.3     l-20.8-28.5L937,528.9L957.3,554.8z"/>
                <path fill="#4F7A54"
                      d="M798.4,551.3l20.4,26.5h47.2l25.8-28.3c0.6-0.7,1.5-1.1,2.4-1.1h28.9c1,0,1.9,0.5,2.5,1.3l21.5,28.1h48.2     l25.2-29.3c0.6-0.7,1.5-1.1,2.4-1.1h31c1,0,1.9,0.4,2.5,1.2l21.8,27.6l10.6-10.7l-27.3-33.6h-48.3l-23.6,28.2     c-0.6,0.7-1.5,1.2-2.5,1.2h-31.5c-1,0-1.9-0.5-2.5-1.2l-22-28.2h-45.1l-25.2,28.3c-0.6,0.7-1.5,1.1-2.4,1.1h-31.5     c-1,0-1.9-0.5-2.5-1.3l-21.5-28.1h-47V550h40.1C796.9,550,797.8,550.5,798.4,551.3z"/>
                <polygon fill="#4F7A54" points="931.4,396.6 888.6,396.6 760.3,525.4 803.1,525.4    "/>
                <path fill="#4F7A54"
                      d="M828.5,554.8H857l25.2-28.3c0,0,0,0,0,0c0,0,0,0,0,0l93.7-98.3h-13.4c-1,0-2-0.5-2.6-1.3l-21.3-28.6     L808.7,528.9L828.5,554.8z"/>
		</g>
	</g>
        <g>
		<path fill="#1B3B23"
              d="M1166.7,304.4c-1.9-2.2-4.6-3.5-7.6-3.7c-0.1,0-0.3,0-0.4,0c-0.7,0-1.3,0.1-1.9,0.2    c-1.7-1.1-3.6-1.7-5.7-1.7h-47.4c-2.9,0-5.7,1.2-7.7,3.3c0,0-21.5,23-27,28.9c-1.2-0.5-2.5-0.7-3.8-0.7h-12.7l-18.6-25.5    c-1.8-2.5-4.6-4.1-7.7-4.3c-0.3,0-0.5,0-0.8,0c-0.5,0-0.9,0-1.4,0.1c-1.7-1.2-3.8-1.8-5.9-1.8h-44.9c-2.9,0-5.7,1.2-7.7,3.3    l-26.9,28.9c-1.2-0.4-2.4-0.7-3.7-0.7h-9.7l-19.1-25.6c-1.8-2.5-4.6-4-7.7-4.2c-0.3,0-0.5,0-0.8,0c-0.5,0-1,0-1.5,0.1    c-1.7-1.2-3.7-1.8-5.9-1.8h-42.8c-2.8,0-5.5,1.1-7.5,3.1L711.8,431.1c-1.4,1.4-2.3,3.2-2.8,5c-2.9,1.9-4.8,5.1-4.8,8.8v18.2    c0,5.8,4.7,10.5,10.5,10.5h36.5l18.2,23.7c2,2.6,5.1,4.1,8.3,4.1H825c3,0,5.8-1.3,7.8-3.4l23.6-25.9h22l19.3,25.3    c2,2.6,5.1,4.1,8.4,4.1h48.2c3.1,0,6-1.3,8-3.7l23-26.8h24.1l19.6,24.8c1.9,2.4,4.7,3.8,7.7,4c0.2,0,0.4,0,0.6,0    c2.8,0,5.5-1.1,7.5-3.1l10.6-10.7c0.8-0.8,1.4-1.7,1.9-2.7c1-0.5,1.9-1.1,2.6-1.9L1191.4,348c3.8-3.9,4.1-10.1,0.5-14.3    L1166.7,304.4z"/>
            <g>
			<path fill="#4F7A54"
                  d="M1020.7,438.6l130.3-128.8h-47.4l-28.4,30.5c0,0,0,0,0,0c0,0,0,0,0,0l-96.7,98.2H1020.7z"/>
                <polygon fill="#4F7A54" points="1052.4,474 1183.9,340.6 1158.7,311.3 1026.4,442    "/>
                <polygon fill="#4F7A54"
                         points="890.3,438.6 1018.1,309.8 973.2,309.8 944.8,340.3 944.8,340.3 944.8,340.3 851.1,438.6    "/>
                <path fill="#4F7A54"
                      d="M916.2,468h28.5l23.6-28.2c0,0,0.1,0,0.1-0.1c0,0,0-0.1,0.1-0.1l96.7-98.2h-16.4c-1,0-2-0.5-2.6-1.3     l-20.8-28.5L895.9,442L916.2,468z"/>
                <path fill="#4F7A54"
                      d="M757.4,464.4l20.4,26.5H825l25.8-28.3c0.6-0.7,1.5-1.1,2.4-1.1H882c1,0,1.9,0.5,2.5,1.3l21.5,28.1h48.2     l25.2-29.3c0.6-0.7,1.5-1.1,2.4-1.1h31c1,0,1.9,0.4,2.5,1.2l21.8,27.6l10.6-10.7l-27.3-33.6h-48.3l-23.6,28.2     c-0.6,0.7-1.5,1.2-2.5,1.2h-31.5c-1,0-1.9-0.5-2.5-1.2l-22-28.2H845l-25.2,28.3c-0.6,0.7-1.5,1.1-2.4,1.1h-31.5     c-1,0-1.9-0.5-2.5-1.3L761.8,445h-47v18.2h40.1C755.8,463.2,756.8,463.6,757.4,464.4z"/>
                <polygon fill="#4F7A54" points="890.4,309.8 847.6,309.8 719.3,438.6 762.1,438.6    "/>
                <path fill="#4F7A54"
                      d="M787.4,468h28.5l25.2-28.3c0,0,0,0,0,0c0,0,0,0,0,0l93.7-98.3h-13.4c-1,0-2-0.5-2.6-1.3l-21.3-28.6     L767.7,442.1L787.4,468z"/>
		</g>
	</g>
        <g>
		<path fill="#1B3B23"
              d="M1125.6,217.6c-1.9-2.2-4.6-3.5-7.6-3.7c-0.1,0-0.3,0-0.4,0c-0.7,0-1.3,0.1-1.9,0.2    c-1.7-1.1-3.6-1.7-5.7-1.7h-47.4c-2.9,0-5.7,1.2-7.7,3.3c0,0-21.5,23-27,28.9c-1.2-0.5-2.5-0.7-3.8-0.7h-12.7l-18.6-25.5    c-1.8-2.5-4.6-4.1-7.7-4.3c-0.3,0-0.5,0-0.8,0c-0.5,0-0.9,0-1.4,0.1c-1.7-1.2-3.8-1.8-5.9-1.8h-44.9c-2.9,0-5.7,1.2-7.7,3.3    l-26.9,28.9c-1.2-0.4-2.4-0.7-3.7-0.7h-9.7l-19.1-25.6c-1.8-2.5-4.6-4-7.7-4.2c-0.3,0-0.5,0-0.8,0c-0.5,0-1,0-1.5,0.1    c-1.7-1.2-3.7-1.8-5.9-1.8h-42.8c-2.8,0-5.5,1.1-7.5,3.1L670.8,344.3c-1.4,1.4-2.3,3.2-2.8,5c-2.9,1.9-4.8,5.1-4.8,8.8v18.2    c0,5.8,4.7,10.5,10.5,10.5h36.5l18.2,23.7c2,2.6,5.1,4.1,8.3,4.1H784c3,0,5.8-1.3,7.8-3.4l23.6-25.9h22l19.3,25.3    c2,2.6,5.1,4.1,8.4,4.1h48.2c3.1,0,6-1.3,8-3.7l23-26.8h24.1L988,409c1.9,2.4,4.7,3.8,7.7,4c0.2,0,0.4,0,0.6,0    c2.8,0,5.5-1.1,7.5-3.1l10.6-10.7c0.8-0.8,1.4-1.7,1.9-2.7c1-0.5,1.9-1.1,2.6-1.9l131.5-133.4c3.8-3.9,4.1-10.1,0.5-14.3    L1125.6,217.6z"/>
            <g>
			<path fill="#4F7A54"
                  d="M979.7,351.7L1110,222.9h-47.4l-28.4,30.5c0,0,0,0,0,0c0,0,0,0,0,0l-96.7,98.2H979.7z"/>
                <polygon fill="#4F7A54" points="1011.3,387.2 1142.9,253.8 1117.6,224.4 985.3,355.2    "/>
                <polygon fill="#4F7A54"
                         points="849.3,351.7 977,222.9 932.2,222.9 903.7,253.4 903.7,253.4 903.7,253.5 810,351.7    "/>
                <path fill="#4F7A54"
                      d="M875.2,381.1h28.5l23.6-28.2c0,0,0.1,0,0.1-0.1c0,0,0-0.1,0.1-0.1l96.7-98.2h-16.4c-1,0-2-0.5-2.6-1.3     l-20.8-28.5L854.9,355.2L875.2,381.1z"/>
                <path fill="#4F7A54"
                      d="M716.3,377.6l20.4,26.5H784l25.8-28.3c0.6-0.7,1.5-1.1,2.4-1.1H841c1,0,1.9,0.5,2.5,1.3l21.5,28.1h48.2     l25.2-29.3c0.6-0.7,1.5-1.1,2.4-1.1h31c1,0,1.9,0.4,2.5,1.2l21.8,27.6l10.6-10.7l-27.3-33.6h-48.3l-23.6,28.2     c-0.6,0.7-1.5,1.2-2.5,1.2h-31.5c-1,0-1.9-0.5-2.5-1.2l-22-28.2h-45.1l-25.2,28.3c-0.6,0.7-1.5,1.1-2.4,1.1h-31.5     c-1,0-1.9-0.5-2.5-1.3l-21.5-28.1h-47v18.2h40.1C714.8,376.3,715.7,376.8,716.3,377.6z"/>
                <polygon fill="#4F7A54" points="849.3,222.9 806.5,222.9 678.2,351.7 721,351.7    "/>
                <path fill="#4F7A54"
                      d="M746.4,381.1h28.5l25.2-28.3c0,0,0,0,0,0c0,0,0,0,0,0l93.7-98.3h-13.4c-1,0-2-0.5-2.6-1.3l-21.3-28.6     L726.6,355.2L746.4,381.1z"/>
		</g>
	</g>
        <g>
		<path fill="#450520"
              d="M1698,832c-0.2-0.1-0.4-0.3-0.6-0.4c-1.1-0.7-4.3-2.7-13.6-2.7c-4.6,0-11,0.6-15,2.1    c-0.3,0.1-0.6,0.3-0.9,0.4c-5.1,2.5-16.9,16.9-26.5,29.3c-1.1-0.4-2.3-0.6-3.6-0.6h-11.1c-6.7-10.4-16.2-24.9-18.7-27.3    c-0.7-0.7-1.5-1.3-2.4-1.8c-3.5-2-9.7-2.3-13.1-2.3c-3.8,0-10.9,0.4-15.2,2.9c-4.3,2.5-19.7,19.2-29.4,30    c-1.2-0.4-2.4-0.7-3.7-0.7h-7.7c-4-8.5-11.4-23.4-15.3-27.6c-5.2-5.6-15.6-6.3-19.9-6.3c-3.9,0-9.5,0.5-13.3,2.6    c-0.4,0.2-0.8,0.5-1.2,0.8c-7.3,5.5-177.6,175.5-211.6,209.6c-3,3-3.9,7.4-2.4,11.3c1.5,3.9,5.2,6.5,9.4,6.7    c5.7,0.2,8.1,1,8.9,1.3c1.9,2.1,7.6,10.6,17.3,30.5c1.8,3.6,5.4,5.9,9.5,5.9h29.1c4.1,0,7.8-2.4,9.5-6c9.4-19.9,15-27.9,16.6-29.4    c0.4-0.3,0.8-0.7,1.2-1l0.7-0.7c1.2,0.5,2.5,0.8,3.8,0.8c0.2,0,0.4,0,0.6,0l0.7,0c0.4,0,0.7-0.1,1.1-0.1c2.3,0,3.7,0.3,4.4,0.5    c1.6,2.5,5.9,11,13.6,29.6c1.6,3.9,5.5,6.5,9.7,6.5h30.1c3.9,0,7.4-2.1,9.3-5.5c10.3-18.9,16.9-29.8,18.8-31.8    c0.1-0.1,0.3-0.3,0.4-0.4l1.5-1.5c1.2,0.5,2.4,0.7,3.8,0.8c2.1,0,3.1,0.5,3.3,0.6c1.2,1.5,5.7,9.4,14.8,29.4    c1.4,3.1,4.3,5.4,7.7,6c0.6,0.1,1.2,0.2,1.9,0.2c2.8,0,5.5-1.1,7.4-3.1l212.4-212.4c3.5-3.5,4.1-9,1.4-13.1    C1703,835.7,1699.2,832.9,1698,832z"/>
            <g>
			<path fill="#8B3553"
                  d="M1622.6,870.6c-1.1,0-2.1-0.6-2.7-1.5c-7.1-11.1-17.9-27.4-19.5-29c-0.4-0.2-3.1-0.9-7.9-0.9     c-4.9,0-8.7,0.7-9.9,1.4c-2.4,1.4-16.3,16.2-28.4,29.7c0,0,0,0-0.1,0c0,0,0,0,0,0.1l-175.2,178.2c0.8,0,1.6-0.1,2.3-0.1     c3.8,0,9,0.6,11.8,3.4c3.4,3.4,12.2,24.3,15.9,33.3h30.1c4.2-7.8,16.7-30.4,20.6-34.3c0,0,0,0,0-0.1l178.1-180.2H1622.6z"/>
                <path fill="#8B3553"
                      d="M1531.8,871.3c-1.2,0-2.4-0.7-2.9-1.9c-4.5-9.6-12.6-26-15.5-29.1c-1.3-1.4-5.9-2.9-12.1-2.9     c-4.1,0-7,0.6-8.2,1.3c-5.8,4.3-148.9,147.1-210.5,208.6c6.7,0.3,11.4,1.3,14.2,2.9c5.3,3.2,16.5,25.5,21,34.8h29.1     c4.8-10.1,14.3-29.4,19.8-33.4l177.3-180.4H1531.8z"/>
                <path fill="#8B3553"
                      d="M1691.8,840.5c-0.6-0.4-3-1.1-7.9-1.1c-5,0-9.4,0.7-11.3,1.4c-2.7,1.3-14.9,15.9-24.6,28.5     c0,0-0.1,0.1-0.1,0.1c0,0.1-0.1,0.1-0.1,0.2l-174.9,177c4.8,0.1,8.8,1.6,11.2,4.3c3.6,4.2,12.4,23,16.4,31.8l212.4-212.4     C1703.9,856.6,1694,842.1,1691.8,840.5z"/>
		</g>
	</g>
        <g>
		<path fill="#7A3600"
              d="M1135.6,855.7c-1.7-3.6-5.4-6-9.5-6H894.7c-5.1,0-9.4,3.7-10.3,8.6c-0.1,0-0.2,0-0.3,0h-4    c-0.9-4.9-5.2-8.6-10.3-8.6h-22.5c-2.8,0-5.5,1.1-7.4,3.1l-163.9,163.9c-1.4,1.4-2.3,3.2-2.8,5c-2.9,1.9-4.8,5.1-4.8,8.9v31.4    c0,5.8,4.7,10.5,10.5,10.5h224.5c4.3,0,8.1-2.6,9.7-6.4c1.9-0.6,3.6-1.8,4.9-3.4l5.4-6.6c0.6-0.8,1.1-1.6,1.5-2.5h0    c0.1,0.2,0.1,0.4,0.2,0.5l0.9,1.9c1.1,2.3,3.1,4.1,5.3,5v0.9c0,5.8,4.7,10.5,10.5,10.5h22.8c3.7,0,7-2,8.9-4.9    c1.9-0.5,3.6-1.4,5-2.8L1138.1,903c1.9-2,3-4.6,3-7.4v-30.7C1141.1,861.1,1139,857.5,1135.6,855.7z"/>
            <g>
			<path fill="#E48423"
                  d="M712.3,1036.3h23.5v-8.9c0-0.2,0.1-0.3,0.1-0.4c0-0.3,0.1-0.5,0.2-0.7c0.1-0.2,0.2-0.4,0.4-0.6     c0.1-0.1,0.1-0.3,0.3-0.4l147.4-156.3h-9.8l-162,159.9V1036.3z"/>
                <path fill="#E48423"
                      d="M742.2,1039.5c0,1.8-1.4,3.2-3.2,3.2h-29.9c-1.8,0-3.2-1.4-3.2-3.2v-8.9h-27.1v31.4h224.5v-15.7     c0-1.8,1.4-3.2,3.2-3.2h32.1c1.8,0,3.2,1.4,3.2,3.2v15.7h22.8v-31.4H742.2V1039.5z"/>
                <path fill="#E48423"
                      d="M894.7,860.2v5.3c0,0.2-0.1,0.3-0.1,0.4c0,0.3-0.1,0.5-0.2,0.7c-0.1,0.2-0.2,0.4-0.4,0.6     c-0.1,0.1-0.1,0.3-0.3,0.4l-147.4,156.3h219.9l159.8-163.9H894.7z"/>
                <polygon fill="#E48423" points="935.3,1051.3 935.3,1049.4 934.4,1049.4    "/>
                <polygon fill="#E48423" points="869.8,864.3 869.8,860.2 847.2,860.2 683.3,1024.1 707.8,1024.1    "/>
                <polygon fill="#E48423" points="909.7,1056.1 915.1,1049.4 909.7,1049.4    "/>
                <polygon fill="#E48423" points="971,1057.3 1130.6,895.6 1130.6,864.9 971,1028.6    "/>
		</g>
	</g>
        <g>
		<path fill="#283246"
              d="M1833.8,375.2c-5.1-7.1-24.2-30.3-57.2-31.8c-0.7,0-1.4,0-2,0c-22.7,0-38.2,15.8-50.7,28.5    c-3.3,3.4-6.8,6.9-10.1,9.8c-0.2,0.2-0.5,0.4-0.7,0.7l-6.4,6.7c-1.2-0.4-2.4-0.7-3.7-0.7c-0.4,0-0.9,0-1.3,0.1    c-0.3,0-0.6,0.1-1,0.2c-0.1,0-0.1,0-0.2,0c-5.1,0-9.5-5-16.1-13.1c-10.2-12.5-24.1-29.6-53.5-31c-1-0.1-2-0.1-3-0.1    c-25,0-42.1,17.9-54.6,31.1c-2.7,2.9-5.6,5.9-8.1,8.2c-0.2,0.2-0.4,0.4-0.6,0.6l-4.6,4.9c-1.1-0.4-2.3-0.7-3.6-0.7    c-0.1,0-0.3,0-0.4,0c-0.3,0-0.5,0-0.8,0c-8.1,0-13.3-6.1-25.5-25.7c-13.2-21.1-36.4-22.7-43.2-22.7c-0.3,0-0.5,0-0.8,0    c-2.8,0.1-5.5,1.2-7.4,3.2l-124.2,129.4c-1.4,1.5-2.3,3.3-2.7,5.2c-0.6,0.5-1.2,1-1.7,1.6c-2,2.3-2.9,5.4-2.4,8.4l2.2,15    c0.7,4.9,4.8,8.7,9.8,9c4.5,0.3,16.3,2.6,28.6,18.7c14.7,19.2,30.9,23.5,41.9,23.8c0,0,0.9,0,0.9,0c24.9,0,44-19.5,51-28    c14.3-17.1,15.5-17.1,24.7-17.1c4.2,0,9,5.2,17.5,16c10.6,13.5,25.1,32.1,50.4,32.1c24.4,0,38.8-16.9,50.4-30.5    c11-13,16-17.6,22.3-17.6c11.6,0,21.5,13.2,24.2,17.2c2,3,5.3,4.6,8.7,4.6c1.8,0,3.5-0.4,5.2-1.4l13.1-7.4    c1.4-0.8,2.6-1.9,3.5-3.3c1.4-0.5,2.7-1.3,3.8-2.4l127.3-127.9C1836.3,385.2,1836.8,379.4,1833.8,375.2z"/>
            <g>
			<path fill="#627392"
                  d="M1776.1,354c-19-0.8-32.7,13.1-44.8,25.3c-3.6,3.7-7.1,7.3-10.7,10.4l-85.2,89.3c3.5-1,7.3-1.5,11.5-1.5     c27,0,45,22.9,51,31.8l127.3-127.9C1820.6,374.9,1804.3,355.2,1776.1,354z"/>
                <path fill="#627392"
                      d="M1646.9,483.8c-19.2,0-31.1,14.1-41.7,26.5c-11.4,13.4-19.2,21.6-31,21.6c-12,0-19.8-8.8-30.3-22.3     c-9.9-12.7-20.2-25.8-37.6-25.8c-20.5,0-27.6,6.4-44.2,26.2c-10.2,12.1-21.3,18.8-31.3,18.8l-0.5,0c-7.9-0.2-15.4-4.8-22.2-13.8     c-20.2-26.4-42.4-28.8-50.4-28.7l2.2,15c6.1,0.3,21.4,3.3,36.3,22.8c12.1,15.9,25.1,19.4,33.8,19.6l0.7,0     c20.5,0,36.9-16.9,43-24.2c16.2-19.3,19.8-20.8,32.7-20.8c9.4,0,16,7.6,25.8,20.1c9.8,12.5,21.9,28,42.1,28     c19.6,0,31.7-14.3,42.4-26.8c11.2-13.2,18.9-21.3,30.3-21.3c16.3,0,28.6,15.4,32.9,21.8l13.1-7.4     C1687.8,505.4,1671.3,483.8,1646.9,483.8z"/>
                <path fill="#627392"
                      d="M1413.2,511.2c5.6,7.3,11.4,11.1,17.3,11.2c0,0,0,0,0,0c8.3,0,17.9-6,26.8-16.5     c5.2-6.2,9.7-11.3,13.9-15.3c0,0,0,0,0-0.1l85.2-91.4c-15.3,0.6-23-10.4-35.7-30.6c-10.6-17-30-17.9-34.9-17.8l-124.2,129.4     C1372.7,480.9,1393.9,486,1413.2,511.2z"/>
                <path fill="#627392"
                      d="M1506.4,477.4c20.5,0,32.8,15.7,42.6,28.3c9.7,12.3,16.2,19.8,25.3,19.8c9,0,15.9-7.3,26.1-19.3     c5.2-6.1,10.7-12.5,17.2-17.8l85.4-89.5c-0.4,0.1-0.8,0.2-1.3,0.2c-11.1,0.7-18.1-7.9-25.5-17c-9.9-12.2-21.2-26-45.9-27.1     c-21.8-1.2-37,14.8-49.3,27.7c-3.1,3.2-5.9,6.2-8.6,8.7l-81.7,87.7C1495.1,478,1500.2,477.4,1506.4,477.4z"/>
		</g>
	</g>
        <g>
		<path fill="#283246"
              d="M1791.7,305.8c-5.1-7.1-24.2-30.3-57.2-31.8c-0.7,0-1.4,0-2,0c-22.7,0-38.2,15.8-50.7,28.5    c-3.3,3.4-6.8,6.9-10.1,9.8c-0.2,0.2-0.5,0.4-0.7,0.7l-6.4,6.7c-1.2-0.4-2.4-0.7-3.7-0.7c-0.4,0-0.9,0-1.3,0.1    c-0.3,0-0.6,0.1-1,0.2c-0.1,0-0.1,0-0.2,0c-5.1,0-9.5-5-16.1-13.1c-10.2-12.5-24.1-29.6-53.5-31c-1-0.1-2-0.1-3-0.1    c-25,0-42.1,17.9-54.6,31.1c-2.7,2.9-5.6,5.9-8.1,8.2c-0.2,0.2-0.4,0.4-0.6,0.6l-4.6,4.9c-1.1-0.4-2.3-0.7-3.6-0.7    c-0.1,0-0.3,0-0.4,0c-0.3,0-0.5,0-0.8,0c-8.1,0-13.3-6.1-25.5-25.7c-13.2-21.1-36.4-22.7-43.2-22.7c-0.3,0-0.5,0-0.8,0    c-2.8,0.1-5.5,1.2-7.4,3.2L1312,403.3c-1.4,1.5-2.3,3.3-2.7,5.2c-0.6,0.5-1.2,1-1.7,1.6c-2,2.3-2.9,5.4-2.4,8.4l2.2,15    c0.7,4.9,4.8,8.7,9.8,9c4.5,0.3,16.3,2.6,28.6,18.7c14.7,19.2,30.9,23.5,41.9,23.8c0,0,0.9,0,0.9,0c24.9,0,44-19.5,51-28    c14.3-17.1,15.5-17.1,24.7-17.1c4.2,0,9,5.2,17.5,16c10.6,13.5,25.1,32.1,50.4,32.1c24.4,0,38.8-16.9,50.4-30.5    c11-13,16-17.6,22.3-17.6c11.6,0,21.5,13.2,24.2,17.2c2,3,5.3,4.6,8.7,4.6c1.8,0,3.5-0.4,5.2-1.4l13.1-7.4    c1.4-0.8,2.6-1.9,3.5-3.3c1.4-0.5,2.7-1.3,3.8-2.4l127.3-127.9C1794.2,315.7,1794.7,309.9,1791.7,305.8z"/>
            <g>
			<path fill="#627392"
                  d="M1734,284.5c-19-0.8-32.7,13.1-44.8,25.3c-3.6,3.7-7.1,7.3-10.7,10.4l-85.2,89.3c3.5-1,7.3-1.5,11.5-1.5     c27,0,45,22.9,51,31.8l127.3-127.9C1778.5,305.4,1762.2,285.8,1734,284.5z"/>
                <path fill="#627392"
                      d="M1604.8,414.4c-19.2,0-31.1,14.1-41.7,26.5c-11.4,13.4-19.2,21.6-31,21.6c-12,0-19.8-8.8-30.3-22.3     c-9.9-12.7-20.2-25.8-37.6-25.8c-20.5,0-27.6,6.4-44.2,26.2c-10.2,12.1-21.3,18.8-31.3,18.8l-0.5,0c-7.9-0.2-15.4-4.8-22.2-13.8     c-20.2-26.4-42.4-28.8-50.4-28.7l2.2,15c6.1,0.3,21.4,3.3,36.3,22.8c12.1,15.9,25.1,19.4,33.8,19.6l0.7,0     c20.5,0,36.9-16.9,43-24.2c16.2-19.3,19.8-20.8,32.7-20.8c9.4,0,16,7.6,25.8,20.1c9.8,12.5,21.9,28,42.1,28     c19.6,0,31.7-14.3,42.4-26.8c11.2-13.2,18.9-21.3,30.3-21.3c16.3,0,28.6,15.4,32.9,21.8l13.1-7.4     C1645.6,436,1629.2,414.4,1604.8,414.4z"/>
                <path fill="#627392"
                      d="M1371.1,441.7c5.6,7.3,11.4,11.1,17.3,11.2c0,0,0,0,0,0c8.3,0,17.9-6,26.8-16.5     c5.2-6.2,9.7-11.3,13.9-15.3c0,0,0,0,0-0.1l85.2-91.4c-15.3,0.6-23-10.4-35.7-30.6c-10.6-17-30-17.9-34.9-17.8l-124.2,129.4     C1330.5,411.4,1351.8,416.5,1371.1,441.7z"/>
                <path fill="#627392"
                      d="M1464.3,407.9c20.5,0,32.8,15.7,42.6,28.3c9.7,12.3,16.2,19.8,25.3,19.8c9,0,15.9-7.3,26.1-19.3     c5.2-6.1,10.7-12.5,17.2-17.8l85.4-89.5c-0.4,0.1-0.8,0.2-1.3,0.2c-11.1,0.7-18.1-7.9-25.5-17c-9.9-12.2-21.2-26-45.9-27.1     c-21.8-1.2-37,14.8-49.3,27.7c-3.1,3.2-5.9,6.2-8.6,8.7l-81.7,87.7C1453,408.5,1458.1,407.9,1464.3,407.9z"/>
		</g>
	</g>
        <g>
		<path fill="#283246"
              d="M1750.6,236.3c-5.1-7.1-24.2-30.3-57.2-31.8c-0.7,0-1.4,0-2,0c-22.7,0-38.2,15.8-50.7,28.5    c-3.3,3.4-6.8,6.9-10.1,9.8c-0.2,0.2-0.5,0.4-0.7,0.7l-6.4,6.7c-1.2-0.4-2.4-0.7-3.7-0.7c-0.4,0-0.9,0-1.3,0.1    c-0.3,0-0.6,0.1-1,0.2c-0.1,0-0.1,0-0.2,0c-5.1,0-9.5-5-16.1-13.1c-10.2-12.5-24.1-29.6-53.5-31c-1-0.1-2-0.1-3-0.1    c-25,0-42.1,17.9-54.6,31.1c-2.7,2.9-5.6,5.9-8.1,8.2c-0.2,0.2-0.4,0.4-0.6,0.6l-4.6,4.9c-1.1-0.4-2.3-0.7-3.6-0.7    c-0.1,0-0.3,0-0.4,0c-0.3,0-0.5,0-0.8,0c-8.1,0-13.3-6.1-25.5-25.7c-13.2-21.1-36.4-22.7-43.2-22.7c-0.3,0-0.5,0-0.8,0    c-2.8,0.1-5.5,1.2-7.4,3.2l-124.2,129.4c-1.4,1.5-2.3,3.3-2.7,5.2c-0.6,0.5-1.2,1-1.7,1.6c-2,2.3-2.9,5.4-2.4,8.4l2.2,15    c0.7,4.9,4.8,8.7,9.8,9c4.5,0.3,16.3,2.6,28.6,18.7c14.7,19.2,30.9,23.5,41.9,23.8c0,0,0.9,0,0.9,0c24.9,0,44-19.5,51-28    c14.3-17.1,15.5-17.1,24.7-17.1c4.2,0,9,5.2,17.5,16c10.6,13.5,25.1,32.1,50.4,32.1c24.4,0,38.8-16.9,50.4-30.5    c11-13,16-17.6,22.3-17.6c11.6,0,21.5,13.2,24.2,17.2c2,3,5.3,4.6,8.7,4.6c1.8,0,3.5-0.4,5.2-1.4l13.1-7.4    c1.4-0.8,2.6-1.9,3.5-3.3c1.4-0.5,2.7-1.3,3.8-2.4l127.3-127.9C1753.1,246.2,1753.6,240.5,1750.6,236.3z"/>
            <g>
			<path fill="#627392"
                  d="M1692.9,215c-19-0.8-32.7,13.1-44.8,25.3c-3.6,3.7-7.1,7.3-10.7,10.4l-85.2,89.3c3.5-1,7.3-1.5,11.5-1.5     c27,0,45,22.9,51,31.8l127.3-127.9C1737.4,235.9,1721.1,216.3,1692.9,215z"/>
                <path fill="#627392"
                      d="M1563.8,344.9c-19.2,0-31.1,14.1-41.7,26.5c-11.4,13.4-19.2,21.6-31,21.6c-12,0-19.8-8.8-30.3-22.3     c-9.9-12.7-20.2-25.8-37.6-25.8c-20.5,0-27.6,6.4-44.2,26.2c-10.2,12.1-21.3,18.8-31.3,18.8l-0.5,0c-7.9-0.2-15.4-4.8-22.2-13.8     c-20.2-26.4-42.4-28.8-50.4-28.7l2.2,15c6.1,0.3,21.4,3.3,36.3,22.8c12.1,15.9,25.1,19.4,33.8,19.6l0.7,0     c20.5,0,36.9-16.9,43-24.2c16.2-19.3,19.8-20.8,32.7-20.8c9.4,0,16,7.6,25.8,20.1c9.8,12.5,21.9,28,42.1,28     c19.6,0,31.7-14.3,42.4-26.8c11.2-13.2,18.9-21.3,30.3-21.3c16.3,0,28.6,15.4,32.9,21.8l13.1-7.4     C1604.6,366.5,1588.1,344.9,1563.8,344.9z"/>
                <path fill="#627392"
                      d="M1330,372.3c5.6,7.3,11.4,11.1,17.3,11.2c0,0,0,0,0,0c8.3,0,17.9-6,26.8-16.5c5.2-6.2,9.7-11.3,13.9-15.3     c0,0,0,0,0-0.1l85.2-91.4c-15.3,0.6-23-10.4-35.7-30.6c-10.6-17-30-17.9-34.9-17.8l-124.2,129.4     C1289.5,341.9,1310.8,347,1330,372.3z"/>
                <path fill="#627392"
                      d="M1423.2,338.5c20.5,0,32.8,15.7,42.6,28.3c9.7,12.3,16.2,19.8,25.3,19.8c9,0,15.9-7.3,26.1-19.3     c5.2-6.1,10.7-12.5,17.2-17.8l85.4-89.5c-0.4,0.1-0.8,0.2-1.3,0.2c-11.1,0.7-18.1-7.9-25.5-17c-9.9-12.2-21.2-26-45.9-27.1     c-21.8-1.2-37,14.8-49.3,27.7c-3.1,3.2-5.9,6.2-8.6,8.7l-81.7,87.7C1411.9,339,1417.1,338.5,1423.2,338.5z"/>
		</g>
	</g>
        <g>
		<path fill="#3A2F19"
              d="M553.8,861.9c-1.9-3.3-5.4-5.4-9.2-5.4h-27.3c-2.8,0-5.5,1.1-7.4,3.1l-12.6,12.6c-1.2-0.4-2.4-0.7-3.7-0.7    h-4.9l-5.5-9.7c-1.9-3.3-5.4-5.3-9.1-5.3h-24.5c-2.9,0-5.7,1.2-7.7,3.4l-11.9,12.8c-1.1-0.4-2.4-0.7-3.6-0.7h-6.9l-3.7-9    c-1.6-3.9-5.5-6.5-9.7-6.5H377c-3.2,0-6.2,1.5-8.2,4l-10.1,12.7c-1.1-0.4-2.2-0.6-3.4-0.6h-4.3l-6.1-10.7    c-1.9-3.3-5.4-5.3-9.2-5.3h-20.3c-2.8,0-5.5,1.1-7.4,3.1L92,1074.4c-3,3-3.9,7.5-2.3,11.5c1.6,3.9,5.5,6.5,9.7,6.5h19.2l6.5,10.1    c1.9,3,5.3,4.8,8.9,4.8h25.2c3.8,0,7.3-2,9.1-5.3l5.8-10.1c0.9,0.3,1.9,0.4,2.9,0.4h10.8l5.5,9.7c1.9,3.3,5.4,5.3,9.1,5.3h26.3    c3.7,0,7.1-1.9,9-5.1l6.3-10.3c1,0.3,2,0.4,3,0.4h11.4l6,9.9c1.9,3.1,5.3,5.1,9,5.1h23.1c3.7,0,7.1-1.9,9-5.1l6.3-10.3    c1,0.3,2,0.4,3,0.4h10.5l5.3,8.2c1.7,2.7,4.6,4.4,7.7,4.8c0.4,0,0.7,0.1,1.1,0.1c2.8,0,5.5-1.1,7.5-3.1l213-213.5    c3.3-3.3,4-8.5,1.7-12.6L553.8,861.9z"/>
            <g>
			<path fill="#6B583C"
                  d="M414.5,882.5c-1.3,0-2.5-0.8-3-2l-5.6-13.5H377l-11.9,14.8c0,0-0.1,0-0.1,0.1c0,0,0,0.1-0.1,0.1     l-187.8,199.8h15c1.2,0,2.2,0.6,2.8,1.6l7.6,13.3h26.3l8.1-13.4c0-0.1,0.1-0.1,0.2-0.2c0.1-0.1,0.1-0.3,0.2-0.4l188.9-200.3     H414.5z"/>
                <path fill="#6B583C"
                      d="M346.6,883.1c-1.2,0-2.2-0.6-2.8-1.6l-8.2-14.4h-20.3L99.5,1081.9h23.2c1.1,0,2.1,0.6,2.7,1.5l8.7,13.5     h25.2l7.6-13.3c0-0.1,0.1-0.1,0.2-0.2c0.1-0.1,0.1-0.3,0.3-0.4l187.8-199.8H346.6z"/>
                <path fill="#6B583C"
                      d="M484.5,882c-1.2,0-2.2-0.6-2.8-1.6l-7.6-13.3h-24.5l-13.5,14.5c0,0,0,0,0,0c0,0,0,0,0,0l-188.9,200.3     h15.5c1.1,0,2.2,0.6,2.7,1.5l8.1,13.4h23.1l8.1-13.4c0-0.1,0.1-0.1,0.2-0.2c0.1-0.1,0.1-0.2,0.2-0.4L493.7,882H484.5z"/>
                <path fill="#6B583C"
                      d="M517.3,867l-14,14L315,1081.9h14.5c1.1,0,2.1,0.6,2.7,1.5l7.5,11.6l213-213.5l-8.1-14.4H517.3z"/>
		</g>
	</g>
</g>
</svg>
