<?xml version="1.0" encoding="UTF-8"?>
<svg xmlns="http://www.w3.org/2000/svg" xmlns:xlink="http://www.w3.org/1999/xlink" width="2384" height="3001"
     viewBox="0 0 2384 3001">
    <path fill-rule="evenodd" fill="rgb(0%, 0%, 0%)" fill-opacity="1"
          d="M 2347.839844 3000 L 385.4375 3000 C 373.230469 3000 361.757812 2993.65625 355.410156 2983.15625 C -117.25 2207.03125 -117.25 793.210938 355.410156 16.839844 C 361.757812 6.351562 373.230469 0 385.4375 0 L 2347.839844 0 C 2360.53125 0 2372.261719 6.839844 2378.601562 17.820312 C 2384.710938 28.800781 2384.710938 42.480469 2377.871094 53.21875 C 1916.929688 810.300781 1916.929688 2189.203125 2377.871094 2946.28125 C 2384.460938 2957.023438 2384.710938 2970.699219 2378.601562 2981.679688 C 2372.261719 2993.164062 2360.53125 3000 2347.839844 3000 Z M 1601.738281 2824.21875 L 853.703125 2824.21875 C 834.171875 2824.21875 818.546875 2808.351562 818.546875 2789.0625 C 818.546875 2769.773438 834.171875 2753.90625 853.703125 2753.90625 L 1601.988281 2753.90625 C 1621.28125 2753.90625 1637.148438 2769.773438 1637.148438 2789.0625 C 1637.148438 2808.351562 1621.28125 2824.21875 1601.738281 2824.21875 Z M 1899.839844 2648.195312 L 555.605469 2648.195312 C 542.183594 2648.195312 529.730469 2640.382812 523.871094 2628.171875 C 207.703125 1969.96875 207.703125 898.679688 523.871094 240.480469 C 529.730469 228.269531 541.9375 220.449219 555.605469 220.449219 L 1899.839844 220.460938 C 1911.308594 220.460938 1922.050781 226.070312 1928.648438 235.351562 C 1935.238281 244.628906 1936.949219 256.589844 1933.039062 267.328125 C 1681.578125 976.320312 1681.578125 1892.328125 1933.039062 2601.070312 C 1936.949219 2611.8125 1935.238281 2623.777344 1928.648438 2633.050781 C 1921.808594 2642.824219 1911.308594 2648.195312 1899.839844 2648.195312 Z M 577.820312 2577.882812 L 1850.28125 2577.882812 C 1615.421875 1877.441406 1615.421875 991.460938 1850.28125 290.769531 L 578.0625 290.769531 C 282.410156 927.25 282.410156 1941.648438 577.820312 2577.882812 "/>
</svg>
