<!-- icon666.com - MILLIONS OF FREE VECTOR ICONS -->
<svg id="Capa_1" enable-background="new 0 0 512 512" viewBox="0 0 512 512" xmlns="http://www.w3.org/2000/svg">
    <g>
        <path d="m135.02 179.522-120.728 209.108h483.417l-120.729-209.108c-53.769-93.13-188.191-93.13-241.96 0z"
              fill="#ffd064"></path>
        <path d="m255.994 109.676c-16.38 0-32.76 23.282-42.114 69.846l-42.031 209.116h-157.566l120.737-209.116c26.877-46.564 73.926-69.846 120.974-69.846z"
              fill="#ffc250"></path>
        <path d="m491.184 360.694h-470.368c-11.496 0-20.816 9.32-20.816 20.816 0 11.496 9.32 20.816 20.816 20.816h470.369c11.496 0 20.816-9.32 20.816-20.816-.001-11.496-9.321-20.816-20.817-20.816z"
              fill="#808080"></path>
        <path d="m97.661 396.231c3.77 3.76 8.973 6.088 14.721 6.088h-91.562c-5.748 0-10.951-2.328-14.721-6.088-3.771-3.77-6.099-8.973-6.099-14.721 0-11.497 9.323-20.82 20.82-20.82h91.563c-11.497 0-20.82 9.323-20.82 20.82-.001 5.748 2.328 10.951 6.098 14.721z"
              fill="#595959"></path>
        <g>
            <path d="m413.111 330.475c-4.267 0-7.726-3.459-7.726-7.726v-.515c0-4.267 3.459-7.726 7.726-7.726s7.726 3.459 7.726 7.726v.515c.001 4.267-3.459 7.726-7.726 7.726z"
                  fill="#ffc250"></path>
            <path d="m402.025 310.278c-4.267 0-7.726-3.459-7.726-7.726v-.515c0-4.267 3.459-7.726 7.726-7.726s7.726 3.459 7.726 7.726v.515c0 4.267-3.459 7.726-7.726 7.726z"
                  fill="#ffc250"></path>
            <path d="m389.585 328.14c-4.267 0-7.726-3.459-7.726-7.726v-.515c0-4.267 3.459-7.726 7.726-7.726s7.726 3.459 7.726 7.726v.515c0 4.267-3.459 7.726-7.726 7.726z"
                  fill="#ffc250"></path>
            <path d="m104.003 327.883c-4.267 0-7.726-3.459-7.726-7.726v-.515c0-4.267 3.459-7.726 7.726-7.726s7.726 3.459 7.726 7.726v.515c0 4.266-3.459 7.726-7.726 7.726z"
                  fill="#ffd064"></path>
            <path d="m124.837 321.269c-4.267 0-7.726-3.459-7.726-7.726v-.515c0-4.267 3.459-7.726 7.726-7.726s7.726 3.459 7.726 7.726v.515c0 4.267-3.459 7.726-7.726 7.726z"
                  fill="#ffd064"></path>
            <path d="m107.231 303.259c-4.267 0-7.726-3.459-7.726-7.726v-.515c0-4.267 3.459-7.726 7.726-7.726s7.726 3.459 7.726 7.726v.515c.001 4.267-3.459 7.726-7.726 7.726z"
                  fill="#ffd064"></path>
            <g fill="#ffc250">
                <path d="m306.333 186.359c-4.267 0-7.726-3.459-7.726-7.726v-.515c0-4.267 3.459-7.726 7.726-7.726s7.726 3.459 7.726 7.726v.515c.001 4.267-3.458 7.726-7.726 7.726z"></path>
                <path d="m327.502 194.201c-4.267 0-7.726-3.459-7.726-7.726v-.515c0-4.267 3.459-7.726 7.726-7.726s7.726 3.459 7.726 7.726v.515c0 4.267-3.459 7.726-7.726 7.726z"></path>
                <path d="m306.333 206.944c-4.267 0-7.726-3.459-7.726-7.726v-.515c0-4.267 3.459-7.726 7.726-7.726s7.726 3.459 7.726 7.726v.515c.001 4.267-3.458 7.726-7.726 7.726z"></path>
                <path d="m245.16 243.168c-4.267 0-7.726-3.459-7.726-7.726v-.515c0-4.267 3.459-7.726 7.726-7.726s7.726 3.459 7.726 7.726v.515c.001 4.266-3.458 7.726-7.726 7.726z"></path>
                <path d="m273.588 302.545c-4.267 0-7.726-3.459-7.726-7.726v-.515c0-4.267 3.459-7.726 7.726-7.726s7.726 3.459 7.726 7.726v.515c0 4.266-3.459 7.726-7.726 7.726z"></path>
            </g>
            <path d="m145.174 252.036c-4.267 0-7.726-3.459-7.726-7.726v-.515c0-4.267 3.459-7.726 7.726-7.726s7.726 3.459 7.726 7.726v.515c0 4.267-3.459 7.726-7.726 7.726z"
                  fill="#ffd064"></path>
            <path d="m163.799 234.392c-4.267 0-7.726-3.459-7.726-7.726v-.515c0-4.267 3.459-7.726 7.726-7.726s7.726 3.459 7.726 7.726v.515c0 4.266-3.459 7.726-7.726 7.726z"
                  fill="#ffd064"></path>
            <path d="m331.423 264.315c-4.267 0-7.726-3.459-7.726-7.726v-.515c0-4.267 3.459-7.726 7.726-7.726s7.726 3.459 7.726 7.726v.515c0 4.266-3.459 7.726-7.726 7.726z"
                  fill="#ffc250"></path>
            <path d="m250.062 161.388c-4.267 0-7.726-3.459-7.726-7.726v-.515c0-4.267 3.459-7.726 7.726-7.726s7.726 3.459 7.726 7.726v.515c0 4.266-3.459 7.726-7.726 7.726z"
                  fill="#ffc250"></path>
        </g>
    </g>
</svg>