<?xml version="1.0" encoding="UTF-8"?>
<svg xmlns="http://www.w3.org/2000/svg" xmlns:xlink="http://www.w3.org/1999/xlink" width="2401" height="2401"
     viewBox="0 0 2401 2401">
    <path fill-rule="evenodd" fill="rgb(99.609375%, 90.625%, 84.764099%)" fill-opacity="1"
          d="M 2400 1200 C 2400 1518.261719 2273.570312 1823.488281 2048.53125 2048.53125 C 1823.488281 2273.574219 1518.261719 2400.003906 1200 2400.003906 C 881.742188 2400.003906 576.515625 2273.574219 351.472656 2048.53125 C 126.429688 1823.488281 0 1518.261719 0 1200 C 0 881.738281 126.429688 576.519531 351.472656 351.46875 C 576.515625 126.429688 881.742188 0 1200 0 C 1518.261719 0 1823.488281 126.429688 2048.53125 351.46875 C 2273.570312 576.519531 2400 881.738281 2400 1200 Z M 2400 1200 "/>
    <path fill-rule="evenodd" fill="rgb(78.125%, 37.646484%, 9.812927%)" fill-opacity="1"
          d="M 1049.25 1252.699219 C 985.53125 1252.699219 933.695312 1200.871094 933.695312 1137.148438 C 933.695312 1073.21875 985.53125 1021.378906 1049.25 1021.378906 C 1112.960938 1021.378906 1164.800781 1073.21875 1164.800781 1137.148438 C 1164.800781 1200.871094 1112.960938 1252.699219 1049.25 1252.699219 Z M 1049.25 1057.449219 C 1005.398438 1057.449219 969.546875 1093.089844 969.546875 1137.148438 C 969.546875 1181 1005.398438 1216.628906 1049.25 1216.628906 C 1093.089844 1216.628906 1128.730469 1181 1128.730469 1137.148438 C 1128.730469 1093.089844 1093.089844 1057.449219 1049.25 1057.449219 Z M 1049.25 1057.449219 "/>
    <path fill-rule="evenodd" fill="rgb(78.125%, 37.646484%, 9.812927%)" fill-opacity="1"
          d="M 1350.539062 1252.699219 C 1286.828125 1252.699219 1234.988281 1200.871094 1234.988281 1137.148438 C 1234.988281 1073.21875 1286.828125 1021.378906 1350.539062 1021.378906 C 1414.261719 1021.378906 1466.308594 1073.21875 1466.308594 1137.148438 C 1466.308594 1200.871094 1414.261719 1252.699219 1350.539062 1252.699219 Z M 1350.539062 1057.449219 C 1306.699219 1057.449219 1271.058594 1093.089844 1271.058594 1137.148438 C 1271.058594 1181 1306.699219 1216.628906 1350.539062 1216.628906 C 1394.601562 1216.628906 1430.238281 1181 1430.238281 1137.148438 C 1430.238281 1093.089844 1394.601562 1057.449219 1350.539062 1057.449219 Z M 1350.539062 1057.449219 "/>
    <path fill-rule="evenodd" fill="rgb(78.125%, 37.646484%, 9.812927%)" fill-opacity="1"
          d="M 676.242188 1252.699219 C 612.527344 1252.699219 560.691406 1200.871094 560.691406 1137.148438 C 560.691406 1073.21875 612.527344 1021.378906 676.242188 1021.378906 C 739.957031 1021.378906 791.792969 1073.21875 791.792969 1137.148438 C 791.792969 1200.871094 739.957031 1252.699219 676.242188 1252.699219 Z M 676.242188 1057.449219 C 632.398438 1057.449219 596.546875 1093.089844 596.546875 1137.148438 C 596.546875 1181 632.398438 1216.628906 676.242188 1216.628906 C 720.085938 1216.628906 755.941406 1181 755.941406 1137.148438 C 755.941406 1093.089844 720.085938 1057.449219 676.242188 1057.449219 Z M 676.242188 1057.449219 "/>
    <path fill-rule="evenodd" fill="rgb(78.125%, 37.646484%, 9.812927%)" fill-opacity="1"
          d="M 1723.539062 1252.699219 C 1659.828125 1252.699219 1607.988281 1200.871094 1607.988281 1137.148438 C 1607.988281 1073.21875 1659.828125 1021.378906 1723.539062 1021.378906 C 1787.261719 1021.378906 1839.089844 1073.21875 1839.089844 1137.148438 C 1839.089844 1200.871094 1787.261719 1252.699219 1723.539062 1252.699219 Z M 1723.539062 1057.449219 C 1679.699219 1057.449219 1643.851562 1093.089844 1643.851562 1137.148438 C 1643.851562 1181 1679.699219 1216.628906 1723.539062 1216.628906 C 1767.390625 1216.628906 1803.238281 1181 1803.238281 1137.148438 C 1803.238281 1093.089844 1767.390625 1057.449219 1723.539062 1057.449219 Z M 1723.539062 1057.449219 "/>
    <path fill-rule="evenodd" fill="rgb(10.594177%, 23.535156%, 27.050781%)" fill-opacity="1"
          d="M 1200 1824.410156 C 1034.769531 1824.410156 886.828125 1754.214844 823.113281 1645.574219 C 817.929688 1636.933594 820.953125 1625.921875 829.375 1620.953125 C 838.015625 1615.984375 849.03125 1618.792969 853.996094 1627.433594 C 911.449219 1725.273438 1047.300781 1788.339844 1200 1788.339844 C 1352.480469 1788.339844 1488.339844 1725.273438 1545.789062 1627.433594 C 1550.761719 1618.792969 1561.769531 1615.984375 1570.410156 1620.953125 C 1579.050781 1625.921875 1581.859375 1636.933594 1576.890625 1645.574219 C 1512.960938 1754.214844 1365.011719 1824.410156 1200 1824.410156 Z M 1200 1824.410156 "/>
    <path fill-rule="evenodd" fill="rgb(78.125%, 37.646484%, 9.812927%)" fill-opacity="1"
          d="M 1200 1967.820312 C 966.957031 1967.820312 758.53125 1869.117188 668.898438 1716.417969 C 663.933594 1707.992188 666.738281 1696.980469 675.378906 1691.796875 C 684.019531 1686.828125 695.035156 1689.636719 700 1698.273438 C 783.371094 1840.175781 979.484375 1931.753906 1200 1931.753906 C 1420.308594 1931.753906 1616.628906 1840.175781 1699.789062 1698.273438 C 1704.96875 1689.636719 1715.980469 1686.828125 1724.410156 1691.796875 C 1733.050781 1696.980469 1735.859375 1707.992188 1730.890625 1716.417969 C 1641.25 1869.117188 1432.828125 1967.820312 1200 1967.820312 Z M 1200 1967.820312 "/>
    <path fill-rule="evenodd" fill="rgb(78.125%, 37.646484%, 9.812927%)" fill-opacity="1"
          d="M 1200 1635.421875 C 1077.320312 1635.421875 967.386719 1583.15625 919.871094 1502.160156 C 914.902344 1493.523438 917.710938 1482.507812 926.351562 1477.539062 C 934.992188 1472.574219 945.789062 1475.378906 950.972656 1484.019531 C 992.226562 1554.214844 1089.851562 1599.355469 1200 1599.355469 C 1309.941406 1599.355469 1407.78125 1554.214844 1448.808594 1484.019531 C 1454 1475.378906 1465.011719 1472.574219 1473.441406 1477.539062 C 1482.070312 1482.507812 1484.878906 1493.523438 1479.910156 1502.160156 C 1432.398438 1583.15625 1322.460938 1635.421875 1200 1635.421875 Z M 1200 1635.421875 "/>
    <path fill-rule="evenodd" fill="rgb(10.594177%, 23.535156%, 27.050781%)" fill-opacity="1"
          d="M 1851.191406 1427.863281 L 548.597656 1427.863281 C 492.007812 1427.863281 445.789062 1381.859375 445.789062 1325.269531 L 445.789062 949.03125 C 445.789062 892.441406 492.007812 846.21875 548.597656 846.21875 L 1851.191406 846.21875 C 1908 846.21875 1954 892.441406 1954 949.03125 L 1954 1325.269531 C 1954 1381.859375 1908 1427.863281 1851.191406 1427.863281 Z M 548.597656 882.289062 C 511.878906 882.289062 481.859375 912.308594 481.859375 949.03125 L 481.859375 1325.269531 C 481.859375 1361.988281 511.878906 1391.789062 548.597656 1391.789062 L 1851.191406 1391.789062 C 1888.128906 1391.789062 1917.929688 1361.988281 1917.929688 1325.269531 L 1917.929688 949.03125 C 1917.929688 912.308594 1888.128906 882.289062 1851.191406 882.289062 Z M 548.597656 882.289062 "/>
    <path fill-rule="evenodd" fill="rgb(10.594177%, 23.535156%, 27.050781%)" fill-opacity="1"
          d="M 1265.011719 787.910156 L 1134.769531 787.910156 C 1090.929688 787.910156 1055.289062 752.058594 1055.289062 708.210938 L 1055.289062 646.648438 C 1055.289062 636.71875 1063.289062 637.578125 1073.21875 637.578125 C 1083.160156 637.578125 1091.359375 636.71875 1091.359375 646.648438 L 1091.359375 708.210938 C 1091.359375 732.179688 1110.800781 751.839844 1134.769531 751.839844 L 1265.011719 751.839844 C 1288.988281 751.839844 1308.640625 732.179688 1308.640625 708.210938 L 1308.640625 646.648438 C 1308.640625 636.71875 1316.628906 637.578125 1326.570312 637.578125 C 1336.5 637.578125 1344.5 636.71875 1344.5 646.648438 L 1344.5 708.210938 C 1344.5 752.058594 1308.859375 787.910156 1265.011719 787.910156 Z M 1265.011719 787.910156 "/>
    <path fill-rule="evenodd" fill="rgb(78.125%, 37.646484%, 9.812927%)" fill-opacity="1"
          d="M 1698.488281 664.578125 L 701.296875 664.578125 C 637.367188 664.578125 585.097656 612.53125 585.097656 548.378906 L 585.097656 449.890625 C 585.097656 439.960938 593.089844 431.960938 603.023438 431.960938 L 1796.761719 431.960938 C 1806.699219 431.960938 1814.691406 439.960938 1814.691406 449.890625 L 1814.691406 548.378906 C 1814.691406 612.53125 1762.640625 664.578125 1698.488281 664.578125 Z M 621.167969 468.03125 L 621.167969 548.378906 C 621.167969 592.660156 657.019531 628.511719 701.296875 628.511719 L 1698.488281 628.511719 C 1742.769531 628.511719 1778.621094 592.660156 1778.621094 548.378906 L 1778.621094 468.03125 Z M 621.167969 468.03125 "/>
</svg>
