<?xml version="1.0" encoding="UTF-8"?>
<svg xmlns="http://www.w3.org/2000/svg" xmlns:xlink="http://www.w3.org/1999/xlink" width="3001" height="3000"
     viewBox="0 0 3001 3000">
    <path fill-rule="evenodd" fill="rgb(0%, 0%, 39.988708%)" fill-opacity="1"
          d="M 2411.28125 2999.988281 L 590.6875 2999.988281 C 265.546875 2999.988281 1 2735.441406 1 2410.273438 L 1 589.710938 C 1 264.558594 265.527344 0.0195312 590.6875 0.0195312 L 2411.28125 0.0195312 C 2736.441406 0.0195312 3001 264.539062 3001 589.710938 L 3001 2410.300781 C 3000.96875 2735.460938 2736.429688 2999.988281 2411.28125 2999.988281 Z M 590.6875 68.71875 C 303.429688 68.71875 69.703125 302.421875 69.703125 589.710938 L 69.703125 2410.300781 C 69.703125 2697.585938 303.402344 2931.289062 590.6875 2931.289062 L 2411.28125 2931.289062 C 2698.570312 2931.289062 2932.269531 2697.585938 2932.269531 2410.300781 L 2932.269531 589.710938 C 2932.269531 302.449219 2698.570312 68.71875 2411.28125 68.71875 L 590.6875 68.71875 "/>
    <path fill-rule="evenodd" fill="rgb(0%, 0%, 39.988708%)" fill-opacity="1"
          d="M 2966.621094 856.660156 L 2312.238281 856.660156 C 2150.71875 856.660156 2019.351562 725.269531 2019.351562 563.769531 L 2019.351562 34.371094 C 2019.351562 -10.851562 2088.050781 -10.851562 2088.050781 34.371094 L 2088.050781 563.75 C 2088.050781 687.371094 2188.628906 787.941406 2312.21875 787.941406 L 2966.601562 787.941406 C 3011.828125 787.941406 3011.820312 856.660156 2966.621094 856.660156 "/>
    <path fill-rule="evenodd" fill="rgb(100%, 39.988708%, 0%)" fill-opacity="1"
          d="M 2315.03125 2569.214844 L 686.945312 2569.214844 C 641.730469 2569.214844 641.730469 2500.511719 686.945312 2500.511719 L 2315.03125 2500.511719 C 2360.238281 2500.511719 2360.25 2569.214844 2315.03125 2569.214844 "/>
    <path fill-rule="evenodd" fill="rgb(100%, 39.988708%, 0%)" fill-opacity="1"
          d="M 652.503906 1248.519531 C 633.542969 1248.519531 618.152344 1233.128906 618.152344 1214.171875 L 618.152344 727.941406 C 588.15625 755.058594 554.058594 798.960938 524.519531 766.269531 C 511.808594 752.191406 512.898438 730.480469 526.980469 717.738281 L 629.484375 625.070312 C 651.511719 605.140625 686.855469 620.859375 686.855469 650.550781 L 686.855469 1214.121094 C 686.855469 1233.140625 671.464844 1248.519531 652.503906 1248.519531 "/>
    <path fill-rule="evenodd" fill="rgb(100%, 39.988708%, 0%)" fill-opacity="1"
          d="M 757.980469 1248.519531 L 546.988281 1248.519531 C 501.765625 1248.519531 501.765625 1179.820312 546.988281 1179.820312 L 757.980469 1179.820312 C 803.195312 1179.820312 803.203125 1248.519531 757.980469 1248.519531 "/>
    <path fill-rule="evenodd" fill="rgb(100%, 39.988708%, 0%)" fill-opacity="1"
          d="M 1293.589844 1247.261719 C 1274.628906 1247.261719 1259.238281 1231.871094 1259.238281 1212.910156 L 1259.238281 958.398438 L 1071.378906 958.398438 C 1052.421875 958.398438 1037.03125 943.011719 1037.03125 924.050781 L 1037.03125 651.839844 C 1037.03125 606.621094 1105.738281 606.621094 1105.738281 651.839844 L 1105.738281 889.699219 L 1259.238281 889.699219 L 1259.238281 729.628906 C 1259.238281 684.410156 1327.941406 684.410156 1327.941406 729.628906 L 1327.941406 1212.929688 C 1327.941406 1231.890625 1312.578125 1247.261719 1293.589844 1247.261719 "/>
    <path fill-rule="evenodd" fill="rgb(100%, 39.988708%, 0%)" fill-opacity="1"
          d="M 1376.851562 2350.019531 C 1179.949219 2350.019531 1106.121094 2096.824219 1192.351562 2096.824219 C 1211.308594 2096.824219 1226.699219 2112.230469 1226.699219 2131.175781 C 1226.699219 2328.75 1526.988281 2328.75 1526.988281 2131.175781 C 1526.988281 2023.019531 1469.851562 2004.148438 1368.898438 1980.078125 C 1274.96875 1957.699219 1158.03125 1929.878906 1158.03125 1762.160156 C 1158.03125 1641.480469 1256.191406 1543.320312 1376.871094 1543.320312 C 1573.800781 1543.320312 1647.621094 1796.511719 1561.390625 1796.511719 C 1542.449219 1796.511719 1527.039062 1781.101562 1527.039062 1762.160156 C 1527.039062 1564.578125 1226.761719 1564.578125 1226.761719 1762.160156 C 1226.761719 1870.320312 1283.890625 1889.191406 1384.871094 1913.261719 C 1478.808594 1935.640625 1595.769531 1963.449219 1595.769531 2131.175781 C 1595.71875 2251.851562 1497.53125 2350.019531 1376.851562 2350.019531 "/>
    <path fill-rule="evenodd" fill="rgb(100%, 39.988708%, 0%)" fill-opacity="1"
          d="M 1809.589844 2350.019531 C 1790.628906 2350.019531 1775.238281 2334.609375 1775.238281 2315.667969 L 1775.238281 1993.179688 C 1775.238281 1947.949219 1843.941406 1947.96875 1843.941406 1993.179688 L 1843.941406 2315.667969 C 1843.941406 2334.628906 1828.558594 2350.019531 1809.589844 2350.019531 "/>
    <path fill-rule="evenodd" fill="rgb(100%, 39.988708%, 0%)" fill-opacity="1"
          d="M 1809.589844 1931.390625 C 1762.851562 1931.390625 1762.851562 1847.039062 1809.589844 1847.039062 C 1856.328125 1847.039062 1856.351562 1931.390625 1809.589844 1931.390625 "/>
    <path fill-rule="evenodd" fill="rgb(85.546875%, 85.546875%, 85.546875%)" fill-opacity="1"
          d="M 2829.078125 2233.003906 C 2829.058594 2558.160156 2564.5 2822.691406 2239.359375 2822.691406 L 418.769531 2822.691406 C 356.308594 2822.691406 296.089844 2812.929688 239.546875 2794.851562 C 332.226562 2879.550781 455.53125 2931.28125 590.6875 2931.28125 L 2411.28125 2931.28125 C 2698.570312 2931.28125 2932.269531 2697.578125 2932.269531 2410.292969 L 2932.269531 856.648438 L 2829.078125 856.648438 L 2829.078125 2233.003906 "/>
</svg>
