<?xml version="1.0" encoding="UTF-8"?>
<svg xmlns="http://www.w3.org/2000/svg" xmlns:xlink="http://www.w3.org/1999/xlink" width="3001" height="1858"
     viewBox="0 0 3001 1858">
    <path fill-rule="evenodd" fill="rgb(0%, 0%, 0%)" fill-opacity="1"
          d="M 2965.851562 1857.785156 L 36.164062 1857.785156 C 16.628906 1857.785156 1 1841.921875 1 1822.628906 L 1 1614.0625 C 252.269531 1655.15625 564.765625 1477.675781 747.347656 1617.800781 C 1008.441406 1818.199219 1256.710938 1446.804688 1479.761719 1617.800781 C 1538.359375 1662.480469 1597.441406 1678.59375 1655.539062 1678.59375 C 1855.089844 1678.59375 2040.289062 1485.914062 2212.171875 1617.800781 C 2440.699219 1793.128906 2773.308594 1575.59375 3001 1633.996094 L 3001 1822.402344 C 3001 1841.921875 2985.128906 1857.785156 2965.851562 1857.785156 Z M 2810.820312 933.964844 C 2762.578125 933.964844 2765.191406 856.660156 2812.28125 858.761719 C 2859.101562 860.839844 2856.449219 933.964844 2810.820312 933.964844 Z M 2444.359375 1118.289062 C 2396.25 1118.289062 2398.199219 1040.695312 2446.070312 1043.101562 C 2492.578125 1045.429688 2489.96875 1118.289062 2444.359375 1118.289062 Z M 2517.609375 898.5625 C 2469.558594 898.5625 2471.648438 821.859375 2519.308594 823.371094 C 2565.039062 824.820312 2563.929688 898.5625 2517.609375 898.5625 Z M 2653.101562 1019.414062 C 2605.398438 1019.414062 2606.871094 943.621094 2654.570312 944.214844 C 2700.058594 944.78125 2699.929688 1019.414062 2653.101562 1019.414062 Z M 2316.199219 1041.386719 C 2267.800781 1041.386719 2270.421875 963.5 2317.898438 966.199219 C 2364.699219 968.855469 2361.53125 1041.386719 2316.199219 1041.386719 Z M 2063.5 913.210938 C 2015.269531 913.210938 2017.871094 835.921875 2064.96875 838.011719 C 2111.769531 840.089844 2109.140625 913.210938 2063.5 913.210938 Z M 1865.75 1052.371094 C 1817.589844 1052.371094 1819.710938 974.789062 1867.449219 977.175781 C 1913.96875 979.511719 1911.371094 1052.371094 1865.75 1052.371094 Z M 1682.648438 931.519531 C 1634.390625 931.519531 1636.839844 853.949219 1684.121094 856.320312 C 1731.230469 858.6875 1728.011719 931.519531 1682.648438 931.519531 Z M 1635.039062 1078.003906 C 1587.460938 1078.003906 1588.648438 1002.199219 1636.511719 1002.804688 C 1682 1003.378906 1681.851562 1078.003906 1635.039062 1078.003906 Z M 1356.71875 931.519531 C 1308.988281 931.519531 1310.320312 854.539062 1358.179688 856.320312 C 1404.5 858.042969 1402.621094 931.519531 1356.71875 931.519531 Z M 1177.28125 1088.988281 C 1129.671875 1088.988281 1130.941406 1012.886719 1178.738281 1013.789062 C 1224.351562 1014.648438 1223.96875 1088.988281 1177.28125 1088.988281 Z M 664.589844 935.183594 C 616.859375 935.183594 618.183594 858.203125 666.050781 859.980469 C 712.378906 861.703125 710.476562 935.183594 664.589844 935.183594 Z M 1005.160156 905.886719 C 957.472656 905.886719 958.859375 828.910156 1006.628906 830.691406 C 1052.949219 832.421875 1051.050781 905.886719 1005.160156 905.886719 Z M 745.152344 1078.003906 C 697.445312 1078.003906 698.957031 1001.902344 746.613281 1002.804688 C 792.230469 1003.660156 791.84375 1078.003906 745.152344 1078.003906 Z M 400.90625 982.789062 C 353.371094 982.789062 354.4375 906.101562 402.375 907.589844 C 448.503906 909.015625 447.140625 982.789062 400.90625 982.789062 Z M 199.746094 1087.769531 C 151.601562 1087.769531 153.660156 1009.898438 201.449219 1012.578125 C 248.214844 1015.199219 245.121094 1087.769531 199.746094 1087.769531 Z M 1 1541.511719 L 1.007812 1260.324219 C 249.472656 1323.363281 552.914062 1060.125 747.347656 1209.351562 C 1008.441406 1409.75 1256.710938 1038.347656 1479.761719 1209.351562 C 1538.359375 1254.03125 1597.441406 1270.140625 1655.539062 1270.140625 C 1855.101562 1270.140625 2040.289062 1077.464844 2212.171875 1209.351562 C 2439.238281 1383.5625 2772.539062 1208.074219 3001 1272.539062 L 3001 1560.90625 C 2752.929688 1508.242188 2442.539062 1706.125 2254.898438 1562.140625 C 1994.300781 1362.175781 1745.578125 1733.335938 1522.488281 1562.140625 C 1261.878906 1362.167969 1013.160156 1733.328125 790.0625 1562.140625 C 568.460938 1392.078125 234.101562 1584.960938 1 1541.511719 Z M 1.007812 1186.75 L 1.011719 755.261719 C 1.011719 742.558594 7.839844 730.851562 18.839844 724.738281 C 264.050781 587.238281 314.179688 709.921875 367.464844 720.101562 L 470.003906 720.101562 C 496.859375 712.53125 527.863281 700.070312 562.296875 682.988281 C 826.121094 546.980469 873.226562 708.839844 955.113281 720.101562 L 1034.949219 720.101562 C 1063.761719 713.75 1096.949219 701.300781 1133.570312 682.988281 C 1408.648438 540.738281 1430.511719 718.609375 1554.230469 720.109375 L 2965.839844 720.109375 C 2985.121094 720.109375 3001 735.730469 3001 755.269531 L 3001 1198.355469 C 2752.601562 1137.277344 2441.460938 1296.851562 2254.898438 1153.691406 C 1994.300781 953.726562 1745.578125 1324.886719 1522.488281 1153.691406 C 1261.878906 953.71875 1013.160156 1324.878906 790.0625 1153.691406 C 552.203125 971.15625 226.777344 1263.824219 1.007812 1186.75 "/>
    <path fill-rule="evenodd" fill="rgb(0%, 0%, 0%)" fill-opacity="1"
          d="M 1585.921875 661.5 C 1619.441406 623.019531 1674.851562 586.050781 1755.878906 567.019531 C 1780.789062 499.148438 1858.910156 403.691406 2023.699219 419.070312 C 2038.839844 418.820312 2156.03125 412.960938 2178 323.109375 C 2205.101562 212.039062 2329.128906 200.070312 2415.070312 212.519531 C 2515.488281 56.109375 2971.710938 -199.398438 2971.710938 265.5 L 2971.710938 661.699219 C 2969.769531 661.578125 2967.820312 661.5 2965.839844 661.5 L 1585.921875 661.5 "/>
</svg>
