<?xml version="1.0" encoding="UTF-8"?>
<svg xmlns="http://www.w3.org/2000/svg" xmlns:xlink="http://www.w3.org/1999/xlink" width="2355.9" height="3304.98"
     viewBox="0 0 2355.9 3304.98">
    <defs>
        <clipPath id="clip-0">
            <path clip-rule="nonzero" d="M 148 0 L 2207 0 L 2207 3304.980469 L 148 3304.980469 Z M 148 0 "/>
        </clipPath>
        <clipPath id="clip-1">
            <path clip-rule="evenodd"
                  d="M 1984.449219 3304.980469 L 371.445312 3304.980469 C 248.707031 3304.980469 148.886719 3205.167969 148.886719 3082.441406 L 148.886719 222.558594 C 148.886719 99.820312 248.734375 0 371.445312 0 L 1984.429688 0 C 2107.160156 0 2207 99.851562 2207 222.558594 L 2207 3082.441406 C 2207.019531 3205.167969 2107.191406 3304.980469 1984.449219 3304.980469 "/>
        </clipPath>
        <linearGradient id="linear-pattern-0" gradientUnits="userSpaceOnUse" x1="-0.00000000371285" y1="0" x2="1" y2="0"
                        gradientTransform="matrix(0.00003941, 3304.98, -3304.98, 0.00003941, 1177.94, -0.000000000000195642)">
            <stop offset="0" stop-color="rgb(14.509583%, 38.822937%, 58.430481%)" stop-opacity="1"/>
            <stop offset="0.0078125" stop-color="rgb(14.491272%, 38.969421%, 58.569336%)" stop-opacity="1"/>
            <stop offset="0.015625" stop-color="rgb(14.453125%, 39.263916%, 58.848572%)" stop-opacity="1"/>
            <stop offset="0.0234375" stop-color="rgb(14.416504%, 39.556885%, 59.127808%)" stop-opacity="1"/>
            <stop offset="0.03125" stop-color="rgb(14.379883%, 39.851379%, 59.405518%)" stop-opacity="1"/>
            <stop offset="0.0390625" stop-color="rgb(14.343262%, 40.145874%, 59.684753%)" stop-opacity="1"/>
            <stop offset="0.046875" stop-color="rgb(14.306641%, 40.440369%, 59.963989%)" stop-opacity="1"/>
            <stop offset="0.0546875" stop-color="rgb(14.27002%, 40.733337%, 60.241699%)" stop-opacity="1"/>
            <stop offset="0.0625" stop-color="rgb(14.233398%, 41.027832%, 60.520935%)" stop-opacity="1"/>
            <stop offset="0.0703125" stop-color="rgb(14.196777%, 41.322327%, 60.800171%)" stop-opacity="1"/>
            <stop offset="0.078125" stop-color="rgb(14.160156%, 41.616821%, 61.079407%)" stop-opacity="1"/>
            <stop offset="0.0859375" stop-color="rgb(14.123535%, 41.90979%, 61.357117%)" stop-opacity="1"/>
            <stop offset="0.09375" stop-color="rgb(14.086914%, 42.204285%, 61.636353%)" stop-opacity="1"/>
            <stop offset="0.101562" stop-color="rgb(14.048767%, 42.498779%, 61.915588%)" stop-opacity="1"/>
            <stop offset="0.109375" stop-color="rgb(14.012146%, 42.793274%, 62.193298%)" stop-opacity="1"/>
            <stop offset="0.117188" stop-color="rgb(13.975525%, 43.086243%, 62.472534%)" stop-opacity="1"/>
            <stop offset="0.125" stop-color="rgb(13.938904%, 43.380737%, 62.75177%)" stop-opacity="1"/>
            <stop offset="0.132812" stop-color="rgb(13.902283%, 43.675232%, 63.031006%)" stop-opacity="1"/>
            <stop offset="0.140625" stop-color="rgb(13.865662%, 43.969727%, 63.308716%)" stop-opacity="1"/>
            <stop offset="0.148438" stop-color="rgb(13.829041%, 44.262695%, 63.587952%)" stop-opacity="1"/>
            <stop offset="0.15625" stop-color="rgb(13.792419%, 44.55719%, 63.867188%)" stop-opacity="1"/>
            <stop offset="0.164062" stop-color="rgb(13.755798%, 44.851685%, 64.144897%)" stop-opacity="1"/>
            <stop offset="0.171875" stop-color="rgb(13.719177%, 45.146179%, 64.424133%)" stop-opacity="1"/>
            <stop offset="0.179688" stop-color="rgb(13.68103%, 45.439148%, 64.703369%)" stop-opacity="1"/>
            <stop offset="0.1875" stop-color="rgb(13.644409%, 45.733643%, 64.982605%)" stop-opacity="1"/>
            <stop offset="0.195313" stop-color="rgb(13.607788%, 46.028137%, 65.260315%)" stop-opacity="1"/>
            <stop offset="0.203125" stop-color="rgb(13.571167%, 46.322632%, 65.539551%)" stop-opacity="1"/>
            <stop offset="0.210938" stop-color="rgb(13.534546%, 46.615601%, 65.818787%)" stop-opacity="1"/>
            <stop offset="0.21875" stop-color="rgb(13.497925%, 46.910095%, 66.096497%)" stop-opacity="1"/>
            <stop offset="0.226563" stop-color="rgb(13.461304%, 47.20459%, 66.375732%)" stop-opacity="1"/>
            <stop offset="0.234375" stop-color="rgb(13.424683%, 47.499084%, 66.654968%)" stop-opacity="1"/>
            <stop offset="0.242188" stop-color="rgb(13.388062%, 47.792053%, 66.934204%)" stop-opacity="1"/>
            <stop offset="0.25" stop-color="rgb(13.35144%, 48.086548%, 67.211914%)" stop-opacity="1"/>
            <stop offset="0.257812" stop-color="rgb(13.314819%, 48.381042%, 67.49115%)" stop-opacity="1"/>
            <stop offset="0.265625" stop-color="rgb(13.276672%, 48.675537%, 67.770386%)" stop-opacity="1"/>
            <stop offset="0.273438" stop-color="rgb(13.240051%, 48.968506%, 68.048096%)" stop-opacity="1"/>
            <stop offset="0.28125" stop-color="rgb(13.20343%, 49.263%, 68.327332%)" stop-opacity="1"/>
            <stop offset="0.289062" stop-color="rgb(13.166809%, 49.557495%, 68.606567%)" stop-opacity="1"/>
            <stop offset="0.296875" stop-color="rgb(13.130188%, 49.85199%, 68.884277%)" stop-opacity="1"/>
            <stop offset="0.304688" stop-color="rgb(13.093567%, 50.144958%, 69.163513%)" stop-opacity="1"/>
            <stop offset="0.3125" stop-color="rgb(13.056946%, 50.439453%, 69.442749%)" stop-opacity="1"/>
            <stop offset="0.320313" stop-color="rgb(13.020325%, 50.733948%, 69.721985%)" stop-opacity="1"/>
            <stop offset="0.328125" stop-color="rgb(12.983704%, 51.028442%, 69.999695%)" stop-opacity="1"/>
            <stop offset="0.335938" stop-color="rgb(12.947083%, 51.322937%, 70.278931%)" stop-opacity="1"/>
            <stop offset="0.34375" stop-color="rgb(12.910461%, 51.615906%, 70.558167%)" stop-opacity="1"/>
            <stop offset="0.351563" stop-color="rgb(12.872314%, 51.9104%, 70.835876%)" stop-opacity="1"/>
            <stop offset="0.359375" stop-color="rgb(12.835693%, 52.204895%, 71.115112%)" stop-opacity="1"/>
            <stop offset="0.367188" stop-color="rgb(12.799072%, 52.49939%, 71.394348%)" stop-opacity="1"/>
            <stop offset="0.375" stop-color="rgb(12.762451%, 52.792358%, 71.673584%)" stop-opacity="1"/>
            <stop offset="0.382813" stop-color="rgb(12.72583%, 53.086853%, 71.951294%)" stop-opacity="1"/>
            <stop offset="0.390625" stop-color="rgb(12.689209%, 53.381348%, 72.23053%)" stop-opacity="1"/>
            <stop offset="0.398438" stop-color="rgb(12.652588%, 53.675842%, 72.509766%)" stop-opacity="1"/>
            <stop offset="0.40625" stop-color="rgb(12.615967%, 53.968811%, 72.787476%)" stop-opacity="1"/>
            <stop offset="0.414062" stop-color="rgb(12.579346%, 54.263306%, 73.066711%)" stop-opacity="1"/>
            <stop offset="0.421875" stop-color="rgb(12.542725%, 54.5578%, 73.345947%)" stop-opacity="1"/>
            <stop offset="0.429688" stop-color="rgb(12.504578%, 54.852295%, 73.625183%)" stop-opacity="1"/>
            <stop offset="0.4375" stop-color="rgb(12.467957%, 55.145264%, 73.902893%)" stop-opacity="1"/>
            <stop offset="0.445312" stop-color="rgb(12.431335%, 55.439758%, 74.182129%)" stop-opacity="1"/>
            <stop offset="0.453125" stop-color="rgb(12.394714%, 55.734253%, 74.461365%)" stop-opacity="1"/>
            <stop offset="0.460938" stop-color="rgb(12.358093%, 56.028748%, 74.739075%)" stop-opacity="1"/>
            <stop offset="0.46875" stop-color="rgb(12.321472%, 56.321716%, 75.018311%)" stop-opacity="1"/>
            <stop offset="0.476563" stop-color="rgb(12.284851%, 56.616211%, 75.297546%)" stop-opacity="1"/>
            <stop offset="0.484375" stop-color="rgb(12.24823%, 56.910706%, 75.576782%)" stop-opacity="1"/>
            <stop offset="0.492188" stop-color="rgb(12.211609%, 57.2052%, 75.854492%)" stop-opacity="1"/>
            <stop offset="0.5" stop-color="rgb(12.174988%, 57.498169%, 76.133728%)" stop-opacity="1"/>
            <stop offset="0.507812" stop-color="rgb(12.138367%, 57.792664%, 76.412964%)" stop-opacity="1"/>
            <stop offset="0.515625" stop-color="rgb(12.10022%, 58.087158%, 76.690674%)" stop-opacity="1"/>
            <stop offset="0.523438" stop-color="rgb(12.063599%, 58.381653%, 76.96991%)" stop-opacity="1"/>
            <stop offset="0.53125" stop-color="rgb(12.026978%, 58.674622%, 77.249146%)" stop-opacity="1"/>
            <stop offset="0.539062" stop-color="rgb(11.990356%, 58.969116%, 77.528381%)" stop-opacity="1"/>
            <stop offset="0.546875" stop-color="rgb(11.953735%, 59.263611%, 77.806091%)" stop-opacity="1"/>
            <stop offset="0.554687" stop-color="rgb(11.917114%, 59.558105%, 78.085327%)" stop-opacity="1"/>
            <stop offset="0.5625" stop-color="rgb(11.880493%, 59.851074%, 78.364563%)" stop-opacity="1"/>
            <stop offset="0.570312" stop-color="rgb(11.843872%, 60.145569%, 78.642273%)" stop-opacity="1"/>
            <stop offset="0.578125" stop-color="rgb(11.807251%, 60.440063%, 78.921509%)" stop-opacity="1"/>
            <stop offset="0.585937" stop-color="rgb(11.77063%, 60.734558%, 79.200745%)" stop-opacity="1"/>
            <stop offset="0.59375" stop-color="rgb(11.732483%, 61.027527%, 79.47998%)" stop-opacity="1"/>
            <stop offset="0.601562" stop-color="rgb(11.695862%, 61.322021%, 79.75769%)" stop-opacity="1"/>
            <stop offset="0.609375" stop-color="rgb(11.659241%, 61.616516%, 80.036926%)" stop-opacity="1"/>
            <stop offset="0.617187" stop-color="rgb(11.62262%, 61.911011%, 80.316162%)" stop-opacity="1"/>
            <stop offset="0.625" stop-color="rgb(11.585999%, 62.203979%, 80.593872%)" stop-opacity="1"/>
            <stop offset="0.632812" stop-color="rgb(11.549377%, 62.498474%, 80.873108%)" stop-opacity="1"/>
            <stop offset="0.640625" stop-color="rgb(11.512756%, 62.792969%, 81.152344%)" stop-opacity="1"/>
            <stop offset="0.648437" stop-color="rgb(11.476135%, 63.087463%, 81.43158%)" stop-opacity="1"/>
            <stop offset="0.65625" stop-color="rgb(11.439514%, 63.380432%, 81.70929%)" stop-opacity="1"/>
            <stop offset="0.664062" stop-color="rgb(11.402893%, 63.674927%, 81.988525%)" stop-opacity="1"/>
            <stop offset="0.671875" stop-color="rgb(11.366272%, 63.969421%, 82.267761%)" stop-opacity="1"/>
            <stop offset="0.679688" stop-color="rgb(11.328125%, 64.263916%, 82.545471%)" stop-opacity="1"/>
            <stop offset="0.6875" stop-color="rgb(11.291504%, 64.556885%, 82.824707%)" stop-opacity="1"/>
            <stop offset="0.695313" stop-color="rgb(11.254883%, 64.851379%, 83.103943%)" stop-opacity="1"/>
            <stop offset="0.703125" stop-color="rgb(11.218262%, 65.145874%, 83.383179%)" stop-opacity="1"/>
            <stop offset="0.710938" stop-color="rgb(11.181641%, 65.440369%, 83.660889%)" stop-opacity="1"/>
            <stop offset="0.71875" stop-color="rgb(11.14502%, 65.733337%, 83.940125%)" stop-opacity="1"/>
            <stop offset="0.726563" stop-color="rgb(11.108398%, 66.027832%, 84.21936%)" stop-opacity="1"/>
            <stop offset="0.734375" stop-color="rgb(11.071777%, 66.322327%, 84.49707%)" stop-opacity="1"/>
            <stop offset="0.742188" stop-color="rgb(11.035156%, 66.616821%, 84.776306%)" stop-opacity="1"/>
            <stop offset="0.75" stop-color="rgb(10.998535%, 66.90979%, 85.055542%)" stop-opacity="1"/>
            <stop offset="0.757813" stop-color="rgb(10.961914%, 67.204285%, 85.334778%)" stop-opacity="1"/>
            <stop offset="0.765625" stop-color="rgb(10.923767%, 67.498779%, 85.612488%)" stop-opacity="1"/>
            <stop offset="0.773438" stop-color="rgb(10.887146%, 67.793274%, 85.891724%)" stop-opacity="1"/>
            <stop offset="0.78125" stop-color="rgb(10.850525%, 68.086243%, 86.170959%)" stop-opacity="1"/>
            <stop offset="0.789063" stop-color="rgb(10.813904%, 68.380737%, 86.448669%)" stop-opacity="1"/>
            <stop offset="0.796875" stop-color="rgb(10.777283%, 68.675232%, 86.727905%)" stop-opacity="1"/>
            <stop offset="0.804688" stop-color="rgb(10.740662%, 68.969727%, 87.007141%)" stop-opacity="1"/>
            <stop offset="0.8125" stop-color="rgb(10.704041%, 69.262695%, 87.286377%)" stop-opacity="1"/>
            <stop offset="0.820313" stop-color="rgb(10.667419%, 69.55719%, 87.564087%)" stop-opacity="1"/>
            <stop offset="0.828125" stop-color="rgb(10.630798%, 69.851685%, 87.843323%)" stop-opacity="1"/>
            <stop offset="0.835938" stop-color="rgb(10.594177%, 70.146179%, 88.122559%)" stop-opacity="1"/>
            <stop offset="0.84375" stop-color="rgb(10.55603%, 70.439148%, 88.400269%)" stop-opacity="1"/>
            <stop offset="0.851563" stop-color="rgb(10.519409%, 70.733643%, 88.679504%)" stop-opacity="1"/>
            <stop offset="0.859375" stop-color="rgb(10.482788%, 71.028137%, 88.95874%)" stop-opacity="1"/>
            <stop offset="0.867188" stop-color="rgb(10.446167%, 71.322632%, 89.237976%)" stop-opacity="1"/>
            <stop offset="0.875" stop-color="rgb(10.409546%, 71.615601%, 89.515686%)" stop-opacity="1"/>
            <stop offset="0.882812" stop-color="rgb(10.372925%, 71.910095%, 89.794922%)" stop-opacity="1"/>
            <stop offset="0.890625" stop-color="rgb(10.336304%, 72.20459%, 90.074158%)" stop-opacity="1"/>
            <stop offset="0.898438" stop-color="rgb(10.299683%, 72.499084%, 90.351868%)" stop-opacity="1"/>
            <stop offset="0.90625" stop-color="rgb(10.263062%, 72.792053%, 90.631104%)" stop-opacity="1"/>
            <stop offset="0.914062" stop-color="rgb(10.22644%, 73.086548%, 90.910339%)" stop-opacity="1"/>
            <stop offset="0.921875" stop-color="rgb(10.189819%, 73.381042%, 91.189575%)" stop-opacity="1"/>
            <stop offset="0.929687" stop-color="rgb(10.151672%, 73.675537%, 91.467285%)" stop-opacity="1"/>
            <stop offset="0.9375" stop-color="rgb(10.115051%, 73.968506%, 91.746521%)" stop-opacity="1"/>
            <stop offset="0.945312" stop-color="rgb(10.07843%, 74.263%, 92.025757%)" stop-opacity="1"/>
            <stop offset="0.953125" stop-color="rgb(10.041809%, 74.557495%, 92.303467%)" stop-opacity="1"/>
            <stop offset="0.960937" stop-color="rgb(10.005188%, 74.85199%, 92.582703%)" stop-opacity="1"/>
            <stop offset="0.96875" stop-color="rgb(9.968567%, 75.146484%, 92.861938%)" stop-opacity="1"/>
            <stop offset="0.976562" stop-color="rgb(9.931946%, 75.439453%, 93.141174%)" stop-opacity="1"/>
            <stop offset="0.984375" stop-color="rgb(9.895325%, 75.733948%, 93.418884%)" stop-opacity="1"/>
            <stop offset="0.992187" stop-color="rgb(9.858704%, 76.028442%, 93.69812%)" stop-opacity="1"/>
            <stop offset="1" stop-color="rgb(9.822083%, 76.322937%, 93.977356%)" stop-opacity="1"/>
        </linearGradient>
        <clipPath id="clip-2">
            <path clip-rule="nonzero" d="M 349 200 L 2007 200 L 2007 2838 L 349 2838 Z M 349 200 "/>
        </clipPath>
        <clipPath id="clip-3">
            <path clip-rule="evenodd"
                  d="M 1878.660156 2837.621094 L 477.253906 2837.621094 C 406.640625 2837.621094 349.199219 2780.148438 349.199219 2709.550781 L 349.199219 328.328125 C 349.199219 257.730469 406.640625 200.269531 477.253906 200.269531 L 1878.628906 200.269531 C 1949.28125 200.269531 2006.699219 257.730469 2006.699219 328.328125 L 2006.699219 2709.519531 C 2006.730469 2780.148438 1949.28125 2837.621094 1878.660156 2837.621094 "/>
        </clipPath>
        <linearGradient id="linear-pattern-1" gradientUnits="userSpaceOnUse" x1="-0.0000000137363" y1="0" x2="1.000004"
                        y2="0"
                        gradientTransform="matrix(-0.000115282, -2637.34, 2637.34, -0.000115282, 1177.95, 2837.62)">
            <stop offset="0" stop-color="rgb(87.841797%, 87.841797%, 87.449646%)" stop-opacity="1"/>
            <stop offset="0.03125" stop-color="rgb(87.651062%, 87.663269%, 87.290955%)" stop-opacity="1"/>
            <stop offset="0.0625" stop-color="rgb(87.271118%, 87.309265%, 86.972046%)" stop-opacity="1"/>
            <stop offset="0.09375" stop-color="rgb(86.891174%, 86.953735%, 86.653137%)" stop-opacity="1"/>
            <stop offset="0.125" stop-color="rgb(86.51123%, 86.598206%, 86.334229%)" stop-opacity="1"/>
            <stop offset="0.15625" stop-color="rgb(86.131287%, 86.242676%, 86.01532%)" stop-opacity="1"/>
            <stop offset="0.1875" stop-color="rgb(85.752869%, 85.887146%, 85.696411%)" stop-opacity="1"/>
            <stop offset="0.21875" stop-color="rgb(85.372925%, 85.531616%, 85.379028%)" stop-opacity="1"/>
            <stop offset="0.25" stop-color="rgb(84.992981%, 85.176086%, 85.06012%)" stop-opacity="1"/>
            <stop offset="0.28125" stop-color="rgb(84.613037%, 84.820557%, 84.741211%)" stop-opacity="1"/>
            <stop offset="0.3125" stop-color="rgb(84.233093%, 84.465027%, 84.422302%)" stop-opacity="1"/>
            <stop offset="0.34375" stop-color="rgb(83.853149%, 84.109497%, 84.103394%)" stop-opacity="1"/>
            <stop offset="0.375" stop-color="rgb(83.473206%, 83.753967%, 83.786011%)" stop-opacity="1"/>
            <stop offset="0.40625" stop-color="rgb(83.093262%, 83.399963%, 83.467102%)" stop-opacity="1"/>
            <stop offset="0.4375" stop-color="rgb(82.713318%, 83.044434%, 83.148193%)" stop-opacity="1"/>
            <stop offset="0.46875" stop-color="rgb(82.333374%, 82.688904%, 82.829285%)" stop-opacity="1"/>
            <stop offset="0.5" stop-color="rgb(81.95343%, 82.333374%, 82.510376%)" stop-opacity="1"/>
            <stop offset="0.53125" stop-color="rgb(81.573486%, 81.977844%, 82.191467%)" stop-opacity="1"/>
            <stop offset="0.5625" stop-color="rgb(81.193542%, 81.622314%, 81.874084%)" stop-opacity="1"/>
            <stop offset="0.59375" stop-color="rgb(80.813599%, 81.266785%, 81.555176%)" stop-opacity="1"/>
            <stop offset="0.625" stop-color="rgb(80.433655%, 80.911255%, 81.236267%)" stop-opacity="1"/>
            <stop offset="0.65625" stop-color="rgb(80.053711%, 80.555725%, 80.917358%)" stop-opacity="1"/>
            <stop offset="0.6875" stop-color="rgb(79.673767%, 80.200195%, 80.59845%)" stop-opacity="1"/>
            <stop offset="0.71875" stop-color="rgb(79.293823%, 79.844666%, 80.281067%)" stop-opacity="1"/>
            <stop offset="0.75" stop-color="rgb(78.913879%, 79.490662%, 79.962158%)" stop-opacity="1"/>
            <stop offset="0.78125" stop-color="rgb(78.533936%, 79.135132%, 79.64325%)" stop-opacity="1"/>
            <stop offset="0.8125" stop-color="rgb(78.153992%, 78.779602%, 79.324341%)" stop-opacity="1"/>
            <stop offset="0.84375" stop-color="rgb(77.774048%, 78.424072%, 79.005432%)" stop-opacity="1"/>
            <stop offset="0.875" stop-color="rgb(77.394104%, 78.068542%, 78.688049%)" stop-opacity="1"/>
            <stop offset="0.90625" stop-color="rgb(77.01416%, 77.713013%, 78.369141%)" stop-opacity="1"/>
            <stop offset="0.9375" stop-color="rgb(76.634216%, 77.357483%, 78.050232%)" stop-opacity="1"/>
            <stop offset="0.96875" stop-color="rgb(76.254272%, 77.001953%, 77.731323%)" stop-opacity="1"/>
            <stop offset="1" stop-color="rgb(75.874329%, 76.646423%, 77.412415%)" stop-opacity="1"/>
        </linearGradient>
        <clipPath id="clip-4">
            <path clip-rule="nonzero" d="M 2115 429 L 2355.898438 429 L 2355.898438 949 L 2115 949 Z M 2115 429 "/>
        </clipPath>
        <clipPath id="clip-5">
            <path clip-rule="nonzero" d="M 0 0 L 2355.898438 0 L 2355.898438 3304.980469 L 0 3304.980469 Z M 0 0 "/>
        </clipPath>
    </defs>
    <path fill-rule="evenodd" fill="rgb(46.263123%, 52.929688%, 62.693787%)" fill-opacity="1"
          d="M 548.355469 2979.550781 L 816.550781 2979.550781 C 841.894531 2979.550781 862.421875 3000.089844 862.421875 3025.410156 C 862.421875 3050.761719 841.855469 3071.300781 816.550781 3071.300781 L 548.355469 3071.300781 C 523.019531 3071.300781 502.480469 3050.761719 502.480469 3025.410156 C 502.480469 3000.089844 523.019531 2979.550781 548.355469 2979.550781 Z M 1539.410156 2979.550781 L 1807.578125 2979.550781 C 1832.929688 2979.550781 1853.46875 3000.089844 1853.46875 3025.410156 C 1853.46875 3050.761719 1832.929688 3071.300781 1807.578125 3071.300781 L 1539.410156 3071.300781 C 1514.070312 3071.300781 1493.53125 3050.761719 1493.53125 3025.410156 C 1493.53125 3000.089844 1514.070312 2979.550781 1539.410156 2979.550781 Z M 371.457031 3213.257812 L 1984.429688 3213.257812 C 2056.601562 3213.257812 2115.28125 3154.589844 2115.28125 3082.441406 L 2115.28125 222.558594 C 2115.28125 150.421875 2056.601562 91.738281 1984.429688 91.738281 L 371.457031 91.738281 C 299.320312 91.738281 240.628906 150.421875 240.628906 222.558594 L 240.628906 3082.441406 C 240.628906 3154.589844 299.320312 3213.257812 371.457031 3213.257812 Z M 2006.699219 328.328125 L 2006.699219 2709.519531 C 2006.730469 2780.148438 1949.28125 2837.621094 1878.660156 2837.621094 L 477.269531 2837.621094 C 406.652344 2837.621094 349.210938 2780.148438 349.210938 2709.550781 L 349.210938 328.328125 C 349.210938 257.730469 406.652344 200.269531 477.269531 200.269531 L 1878.628906 200.269531 C 1949.28125 200.269531 2006.699219 257.730469 2006.699219 328.328125 "/>
    <path fill-rule="evenodd" fill="rgb(46.263123%, 52.929688%, 62.693787%)" fill-opacity="1"
          d="M 1415.808594 501.230469 L 940.101562 501.230469 C 914.769531 501.230469 894.230469 480.691406 894.230469 455.359375 C 894.230469 430.03125 914.769531 409.488281 940.101562 409.488281 L 1415.828125 409.488281 C 1441.179688 409.488281 1461.71875 430.03125 1461.71875 455.359375 C 1461.71875 480.691406 1441.148438 501.230469 1415.808594 501.230469 Z M 477.269531 2745.871094 L 1878.628906 2745.871094 C 1898.351562 2745.871094 1914.980469 2729.25 1914.980469 2709.519531 L 1914.980469 328.328125 C 1914.980469 308.328125 1898.640625 292.019531 1878.628906 292.019531 L 477.269531 292.019531 C 457.253906 292.019531 440.941406 308.328125 440.941406 328.328125 L 440.941406 2709.519531 C 440.941406 2729.53125 457.253906 2745.871094 477.269531 2745.871094 "/>
    <g clip-path="url(#clip-0)">
        <g clip-path="url(#clip-1)">
            <path fill-rule="nonzero" fill="url(#linear-pattern-0)"
                  d="M 2207.019531 0 L 148.886719 0 L 148.886719 3304.980469 L 2207.019531 3304.980469 Z M 2207.019531 0 "/>
        </g>
    </g>
    <g clip-path="url(#clip-2)">
        <g clip-path="url(#clip-3)">
            <path fill-rule="nonzero" fill="url(#linear-pattern-1)"
                  d="M 349.199219 2837.621094 L 2006.730469 2837.621094 L 2006.730469 200.269531 L 349.199219 200.269531 Z M 349.199219 2837.621094 "/>
        </g>
    </g>
    <path fill-rule="evenodd" fill="rgb(46.263123%, 52.929688%, 62.693787%)" fill-opacity="1"
          d="M 2207.019531 521.5 L 2207.019531 857.210938 L 2264.179688 857.210938 L 2264.179688 521.5 L 2207.019531 521.5 "/>
    <path fill-rule="evenodd" fill="rgb(46.263123%, 52.929688%, 62.693787%)" fill-opacity="1"
          d="M 148.898438 1292.75 L 148.898438 521.5 L 91.769531 521.5 L 91.769531 1292.75 L 148.898438 1292.75 "/>
    <g clip-path="url(#clip-4)">
        <path fill-rule="evenodd" fill="rgb(8.227539%, 36.863708%, 58.396912%)" fill-opacity="1"
              d="M 2310.039062 948.949219 L 2161.171875 948.949219 C 2135.820312 948.949219 2115.28125 928.410156 2115.28125 903.078125 L 2115.28125 475.628906 C 2115.28125 450.28125 2135.820312 429.75 2161.171875 429.75 L 2310.039062 429.75 C 2335.359375 429.75 2355.898438 450.28125 2355.898438 475.628906 L 2355.898438 903.089844 C 2355.898438 928.429688 2335.359375 948.949219 2310.039062 948.949219 "/>
    </g>
    <path fill-rule="evenodd" fill="rgb(8.227539%, 36.863708%, 58.396912%)" fill-opacity="1"
          d="M 194.769531 1384.5 L 45.859375 1384.5 C 20.527344 1384.5 0 1363.960938 0 1338.628906 L 0 475.628906 C 0 450.28125 20.527344 429.75 45.859375 429.75 L 194.769531 429.75 C 220.105469 429.75 240.628906 450.28125 240.628906 475.628906 L 240.628906 1338.628906 C 240.628906 1363.960938 220.105469 1384.5 194.769531 1384.5 "/>
    <g clip-path="url(#clip-5)">
        <path fill-rule="evenodd" fill="rgb(0%, 0%, 0%)" fill-opacity="1"
              d="M 371.457031 91.738281 C 299.320312 91.738281 240.628906 150.421875 240.628906 222.558594 L 240.628906 3082.441406 C 240.628906 3154.589844 299.320312 3213.257812 371.457031 3213.257812 L 1984.429688 3213.257812 C 2056.601562 3213.257812 2115.28125 3154.589844 2115.28125 3082.441406 L 2115.28125 222.558594 C 2115.28125 150.421875 2056.601562 91.738281 1984.429688 91.738281 Z M 477.269531 292.019531 C 457.253906 292.019531 440.941406 308.328125 440.941406 328.328125 L 440.941406 2709.519531 C 440.941406 2729.53125 457.253906 2745.871094 477.269531 2745.871094 L 1878.628906 2745.871094 C 1898.351562 2745.871094 1914.980469 2729.25 1914.980469 2709.519531 L 1914.980469 328.328125 C 1914.980469 308.328125 1898.640625 292.019531 1878.628906 292.019531 Z M 1878.660156 2837.621094 C 1949.28125 2837.621094 2006.730469 2780.148438 2006.699219 2709.519531 L 2006.699219 328.328125 C 2006.699219 257.730469 1949.28125 200.269531 1878.628906 200.269531 L 477.269531 200.269531 C 406.652344 200.269531 349.210938 257.730469 349.210938 328.328125 L 349.210938 2709.550781 C 349.210938 2780.148438 406.652344 2837.621094 477.269531 2837.621094 Z M 1415.808594 501.230469 C 1441.148438 501.230469 1461.71875 480.691406 1461.71875 455.359375 C 1461.71875 430.03125 1441.179688 409.488281 1415.828125 409.488281 L 940.101562 409.488281 C 914.769531 409.488281 894.230469 430.03125 894.230469 455.359375 C 894.230469 480.691406 914.769531 501.230469 940.101562 501.230469 Z M 816.550781 3071.300781 C 841.855469 3071.300781 862.421875 3050.761719 862.421875 3025.410156 C 862.421875 3000.089844 841.894531 2979.550781 816.550781 2979.550781 L 548.355469 2979.550781 C 523.019531 2979.550781 502.480469 3000.089844 502.480469 3025.410156 C 502.480469 3050.761719 523.019531 3071.300781 548.355469 3071.300781 Z M 1807.578125 3071.300781 C 1832.929688 3071.300781 1853.46875 3050.761719 1853.46875 3025.410156 C 1853.46875 3000.089844 1832.929688 2979.550781 1807.578125 2979.550781 L 1539.410156 2979.550781 C 1514.070312 2979.550781 1493.53125 3000.089844 1493.53125 3025.410156 C 1493.53125 3050.761719 1514.070312 3071.300781 1539.410156 3071.300781 Z M 2207.019531 857.210938 L 2264.179688 857.210938 L 2264.179688 521.5 L 2207.019531 521.5 Z M 148.898438 1292.75 L 148.898438 521.5 L 91.769531 521.5 L 91.769531 1292.75 Z M 1984.480469 3304.980469 L 371.457031 3304.980469 C 248.71875 3304.980469 148.898438 3205.167969 148.898438 3082.441406 L 148.898438 1384.5 L 45.859375 1384.5 C 20.527344 1384.5 0 1363.960938 0 1338.628906 L 0 475.628906 C 0 450.28125 20.527344 429.75 45.859375 429.75 L 148.898438 429.75 L 148.898438 222.558594 C 148.898438 99.820312 248.746094 0 371.457031 0 L 1984.429688 0 C 2107.160156 0 2207 99.851562 2207 222.558594 L 2207 429.75 L 2310.039062 429.75 C 2335.359375 429.75 2355.898438 450.28125 2355.898438 475.628906 L 2355.898438 903.089844 C 2355.898438 928.429688 2335.359375 948.949219 2310.039062 948.949219 L 2207 948.949219 L 2207 3082.441406 C 2207.019531 3205.167969 2107.21875 3304.980469 1984.480469 3304.980469 "/>
    </g>
</svg>
