<?xml version="1.0" encoding="UTF-8"?>
<svg xmlns="http://www.w3.org/2000/svg" xmlns:xlink="http://www.w3.org/1999/xlink" width="3001" height="3000"
     viewBox="0 0 3001 3000">
    <path fill-rule="evenodd" fill="rgb(0%, 0%, 39.988708%)" fill-opacity="1"
          d="M 2411.28125 2999.980469 L 590.6875 2999.980469 C 265.546875 2999.980469 1 2735.4375 1 2410.265625 L 1 589.699219 C 1 264.558594 265.527344 0.0117188 590.6875 0.0117188 L 2411.28125 0.0117188 C 2736.441406 0.0117188 3001 264.539062 3001 589.699219 L 3001 2410.292969 C 3000.96875 2735.453125 2736.429688 2999.980469 2411.28125 2999.980469 Z M 590.6875 68.710938 C 303.429688 68.710938 69.703125 302.410156 69.703125 589.699219 L 69.703125 2410.292969 C 69.703125 2697.578125 303.402344 2931.28125 590.6875 2931.28125 L 2411.28125 2931.28125 C 2698.570312 2931.28125 2932.269531 2697.578125 2932.269531 2410.292969 L 2932.269531 589.699219 C 2932.269531 302.441406 2698.570312 68.710938 2411.28125 68.710938 L 590.6875 68.710938 "/>
    <path fill-rule="evenodd" fill="rgb(0%, 0%, 39.988708%)" fill-opacity="1"
          d="M 2966.621094 856.648438 L 2312.238281 856.648438 C 2150.71875 856.648438 2019.351562 725.261719 2019.351562 563.761719 L 2019.351562 34.359375 C 2019.351562 -10.851562 2088.050781 -10.851562 2088.050781 34.359375 L 2088.050781 563.738281 C 2088.050781 687.359375 2188.628906 787.929688 2312.21875 787.929688 L 2966.601562 787.929688 C 3011.828125 787.929688 3011.820312 856.648438 2966.621094 856.648438 "/>
    <path fill-rule="evenodd" fill="rgb(100%, 39.988708%, 0%)" fill-opacity="1"
          d="M 2315.03125 2569.207031 L 686.945312 2569.207031 C 641.730469 2569.207031 641.730469 2500.507812 686.945312 2500.507812 L 2315.03125 2500.507812 C 2360.238281 2500.507812 2360.25 2569.207031 2315.03125 2569.207031 "/>
    <path fill-rule="evenodd" fill="rgb(100%, 39.988708%, 0%)" fill-opacity="1"
          d="M 643.144531 1248.511719 C 624.183594 1248.511719 608.792969 1233.121094 608.792969 1214.160156 L 608.792969 727.929688 C 578.796875 755.050781 544.699219 798.949219 515.164062 766.261719 C 502.449219 752.179688 503.539062 730.46875 517.625 717.730469 L 620.125 625.058594 C 642.179688 605.109375 677.496094 620.878906 677.496094 650.539062 L 677.496094 1214.109375 C 677.496094 1233.128906 662.113281 1248.511719 643.144531 1248.511719 "/>
    <path fill-rule="evenodd" fill="rgb(100%, 39.988708%, 0%)" fill-opacity="1"
          d="M 748.632812 1248.511719 L 537.640625 1248.511719 C 492.414062 1248.511719 492.414062 1179.808594 537.640625 1179.808594 L 748.632812 1179.808594 C 793.835938 1179.808594 793.871094 1248.511719 748.632812 1248.511719 "/>
    <path fill-rule="evenodd" fill="rgb(100%, 39.988708%, 0%)" fill-opacity="1"
          d="M 1173.25 1247.25 C 1082.789062 1247.25 1009.199219 1173.660156 1009.199219 1083.210938 C 1009.199219 992.75 1082.789062 919.160156 1173.25 919.160156 C 1263.699219 919.160156 1337.289062 992.75 1337.289062 1083.210938 C 1337.289062 1173.660156 1263.699219 1247.25 1173.25 1247.25 Z M 1173.25 987.828125 C 1047.738281 987.828125 1047.710938 1178.578125 1173.25 1178.578125 C 1298.789062 1178.578125 1298.761719 987.828125 1173.25 987.828125 "/>
    <path fill-rule="evenodd" fill="rgb(100%, 39.988708%, 0%)" fill-opacity="1"
          d="M 1043.5 1117.558594 C 1025.148438 1117.558594 1009.929688 1103.050781 1009.191406 1084.570312 C 997.578125 792.96875 1180.160156 557.109375 1234.210938 631.710938 C 1245.328125 647.078125 1241.890625 668.539062 1226.53125 679.691406 C 1068.300781 794.261719 1077.699219 1079 1077.820312 1081.851562 C 1078.601562 1101.308594 1062.988281 1117.558594 1043.5 1117.558594 "/>
    <path fill-rule="evenodd" fill="rgb(100%, 39.988708%, 0%)" fill-opacity="1"
          d="M 1500.988281 2431.308594 C 1288.339844 2431.308594 1209.089844 2159.386719 1297.789062 2159.386719 C 1316.75 2159.386719 1332.140625 2174.796875 1332.140625 2193.738281 C 1332.140625 2286.847656 1407.890625 2362.578125 1501.011719 2362.578125 C 1594.140625 2362.578125 1669.878906 2286.835938 1669.878906 2193.738281 C 1669.878906 2071.988281 1606 2050.84375 1493.070312 2023.941406 C 1390.78125 1999.589844 1263.46875 1969.289062 1263.46875 1787.328125 C 1263.46875 1656.339844 1370.03125 1549.75 1501.011719 1549.75 C 1713.710938 1549.75 1792.929688 1821.679688 1704.230469 1821.679688 C 1685.289062 1821.679688 1669.878906 1806.269531 1669.878906 1787.328125 C 1669.878906 1694.21875 1594.140625 1618.480469 1501.011719 1618.480469 C 1407.910156 1618.480469 1332.140625 1694.230469 1332.140625 1787.328125 C 1332.140625 1909.078125 1396.03125 1930.21875 1508.960938 1957.121094 C 1611.269531 1981.480469 1738.578125 2011.777344 1738.578125 2193.738281 C 1738.558594 2324.722656 1632 2431.308594 1500.988281 2431.308594 "/>
    <path fill-rule="evenodd" fill="rgb(85.546875%, 85.546875%, 85.546875%)" fill-opacity="1"
          d="M 2829.078125 2233.003906 C 2829.058594 2558.160156 2564.5 2822.691406 2239.359375 2822.691406 L 418.769531 2822.691406 C 356.308594 2822.691406 296.089844 2812.929688 239.546875 2794.851562 C 332.226562 2879.550781 455.53125 2931.28125 590.6875 2931.28125 L 2411.28125 2931.28125 C 2698.570312 2931.28125 2932.269531 2697.578125 2932.269531 2410.292969 L 2932.269531 856.648438 L 2829.078125 856.648438 L 2829.078125 2233.003906 "/>
</svg>
