<?xml version="1.0" encoding="UTF-8"?>
<svg xmlns="http://www.w3.org/2000/svg" xmlns:xlink="http://www.w3.org/1999/xlink" width="3000" height="3000"
     viewBox="0 0 3000 3000">
    <path fill-rule="evenodd" fill="rgb(88.671875%, 94.139099%, 79.6875%)" fill-opacity="1"
          d="M 1500 0 C 2328.421875 0 3000 671.578125 3000 1500 C 3000 2328.421875 2328.421875 2999.996094 1500 2999.996094 C 671.578125 2999.996094 0.00390625 2328.421875 0.00390625 1500 C 0.00390625 671.578125 671.578125 0 1500 0 "/>
    <path fill-rule="evenodd" fill="rgb(0%, 0%, 0.78125%)" fill-opacity="1"
          d="M 2082.578125 2459.984375 L 917.402344 2459.984375 C 709.3125 2459.984375 540.003906 2290.675781 540.003906 2082.566406 L 540.003906 917.410156 C 540.003906 709.320312 709.300781 540.011719 917.402344 540.011719 L 2082.578125 540.011719 C 2290.679688 540.011719 2460 709.308594 2460 917.410156 L 2460 2082.585938 C 2459.980469 2290.6875 2290.671875 2459.984375 2082.578125 2459.984375 Z M 917.402344 583.980469 C 733.558594 583.980469 583.972656 733.550781 583.972656 917.410156 L 583.972656 2082.585938 C 583.972656 2266.445312 733.539062 2416.015625 917.402344 2416.015625 L 2082.578125 2416.015625 C 2266.441406 2416.015625 2416.011719 2266.445312 2416.011719 2082.585938 L 2416.011719 917.410156 C 2416.011719 733.558594 2266.441406 583.980469 2082.578125 583.980469 L 917.402344 583.980469 "/>
    <path fill-rule="evenodd" fill="rgb(0%, 0%, 0.78125%)" fill-opacity="1"
          d="M 2438 1088.261719 L 2019.191406 1088.261719 C 1915.820312 1088.261719 1831.738281 1004.171875 1831.738281 900.808594 L 1831.738281 561.988281 C 1831.738281 549.859375 1841.601562 540.011719 1853.730469 540.011719 C 1865.851562 540.011719 1875.710938 549.859375 1875.710938 561.988281 L 1875.710938 900.800781 C 1875.710938 979.910156 1940.078125 1044.28125 2019.179688 1044.28125 L 2437.980469 1044.28125 C 2450.121094 1044.28125 2459.96875 1054.128906 2459.96875 1066.261719 C 2459.96875 1078.398438 2450.140625 1088.261719 2438 1088.261719 "/>
    <path fill-rule="evenodd" fill="rgb(0%, 0%, 0.78125%)" fill-opacity="1"
          d="M 2020.980469 2184.289062 L 979.003906 2184.289062 C 966.871094 2184.289062 957.019531 2174.429688 957.019531 2162.308594 C 957.019531 2150.183594 966.871094 2140.320312 979.003906 2140.320312 L 2020.980469 2140.320312 C 2033.109375 2140.320312 2042.960938 2150.183594 2042.960938 2162.308594 C 2042.960938 2174.429688 2033.121094 2184.289062 2020.980469 2184.289062 "/>
    <path fill-rule="evenodd" fill="rgb(0%, 0%, 0.78125%)" fill-opacity="1"
          d="M 1009.691406 1338.238281 C 951.890625 1338.238281 899.832031 1303.921875 877.050781 1250.789062 C 872.273438 1239.628906 877.433594 1226.699219 888.59375 1221.929688 C 899.753906 1217.148438 912.683594 1222.308594 917.460938 1233.46875 C 933.292969 1270.398438 969.488281 1294.261719 1009.671875 1294.261719 C 1064.96875 1294.261719 1109.960938 1249.269531 1109.960938 1193.96875 C 1109.960938 1138.679688 1064.96875 1093.691406 1009.671875 1093.691406 C 970.605469 1093.691406 934.816406 1116.640625 918.5 1152.148438 C 913.414062 1163.191406 900.375 1167.988281 889.335938 1162.941406 C 878.296875 1157.859375 873.472656 1144.808594 878.539062 1133.78125 C 902.019531 1082.710938 953.484375 1049.71875 1009.671875 1049.71875 C 1089.210938 1049.71875 1153.921875 1114.441406 1153.921875 1193.96875 C 1153.921875 1273.511719 1089.25 1338.238281 1009.691406 1338.238281 "/>
    <path fill-rule="evenodd" fill="rgb(0%, 0%, 0.78125%)" fill-opacity="1"
          d="M 898.609375 1164.890625 C 897.292969 1164.890625 895.953125 1164.769531 894.609375 1164.519531 C 882.671875 1162.320312 874.777344 1150.851562 876.976562 1138.921875 L 911.175781 953.191406 C 913.085938 942.761719 922.1875 935.191406 932.796875 935.191406 L 1112.519531 935.191406 C 1124.648438 935.191406 1134.5 945.039062 1134.5 957.179688 C 1134.5 969.308594 1124.648438 979.160156 1112.519531 979.160156 L 951.101562 979.160156 L 920.214844 1146.878906 C 918.257812 1157.480469 909.007812 1164.890625 898.609375 1164.890625 "/>
    <path fill-rule="evenodd" fill="rgb(0%, 0%, 0.78125%)" fill-opacity="1"
          d="M 1389.878906 1338.238281 C 1309.558594 1338.238281 1244.199219 1272.898438 1244.199219 1192.578125 L 1244.199219 1080.871094 C 1244.199219 1000.550781 1309.550781 935.191406 1389.878906 935.191406 C 1470.210938 935.191406 1535.558594 1000.53125 1535.558594 1080.871094 L 1535.558594 1192.578125 C 1535.558594 1272.898438 1470.210938 1338.238281 1389.878906 1338.238281 Z M 1389.878906 979.160156 C 1333.808594 979.160156 1288.171875 1024.78125 1288.171875 1080.871094 L 1288.171875 1192.578125 C 1288.171875 1248.660156 1333.789062 1294.28125 1389.878906 1294.28125 C 1445.960938 1294.28125 1491.578125 1248.660156 1491.578125 1192.578125 L 1491.578125 1080.871094 C 1491.578125 1024.78125 1445.960938 979.160156 1389.878906 979.160156 "/>
    <path fill-rule="evenodd" fill="rgb(0%, 0%, 0.78125%)" fill-opacity="1"
          d="M 1328.238281 2040.675781 C 1248.949219 2040.675781 1184.421875 1976.140625 1184.421875 1896.851562 C 1184.421875 1884.710938 1194.269531 1874.859375 1206.410156 1874.859375 C 1218.539062 1874.859375 1228.390625 1884.730469 1228.390625 1896.851562 C 1228.390625 1951.898438 1273.191406 1996.699219 1328.25 1996.699219 C 1383.308594 1996.699219 1428.101562 1951.898438 1428.101562 1896.851562 C 1428.101562 1824.890625 1390.179688 1812.378906 1323.160156 1796.410156 C 1261.359375 1781.691406 1184.441406 1763.378906 1184.441406 1653.179688 C 1184.441406 1573.890625 1248.960938 1509.390625 1328.261719 1509.390625 C 1407.550781 1509.390625 1472.058594 1573.890625 1472.058594 1653.179688 C 1472.058594 1665.320312 1462.210938 1675.171875 1450.070312 1675.171875 C 1437.941406 1675.171875 1428.089844 1665.308594 1428.089844 1653.179688 C 1428.089844 1598.148438 1383.289062 1553.351562 1328.238281 1553.351562 C 1273.191406 1553.351562 1228.378906 1598.148438 1228.378906 1653.179688 C 1228.378906 1725.140625 1266.300781 1737.671875 1333.320312 1753.628906 C 1395.121094 1768.359375 1472.039062 1786.671875 1472.039062 1896.851562 C 1472.050781 1976.140625 1407.539062 2040.675781 1328.238281 2040.675781 "/>
    <path fill-rule="evenodd" fill="rgb(0%, 0%, 0.78125%)" fill-opacity="1"
          d="M 1793.578125 2040.675781 C 1781.441406 2040.675781 1771.589844 2030.816406 1771.589844 2018.691406 L 1771.589844 1862.019531 C 1771.589844 1819.960938 1737.390625 1785.761719 1695.351562 1785.761719 C 1653.308594 1785.761719 1619.109375 1819.960938 1619.109375 1862.019531 L 1619.109375 2018.675781 C 1619.109375 2030.808594 1609.25 2040.660156 1597.128906 2040.660156 C 1585 2040.660156 1575.140625 2030.796875 1575.140625 2018.675781 L 1575.140625 1862.019531 C 1575.140625 1795.710938 1629.078125 1741.769531 1695.359375 1741.769531 C 1761.648438 1741.769531 1815.589844 1795.710938 1815.589844 1862.019531 L 1815.589844 2018.675781 C 1815.558594 2030.816406 1805.710938 2040.675781 1793.578125 2040.675781 "/>
    <path fill-rule="evenodd" fill="rgb(0%, 0%, 0.78125%)" fill-opacity="1"
          d="M 1597.101562 1884.019531 C 1584.96875 1884.019531 1575.121094 1874.160156 1575.121094 1862.039062 L 1575.121094 1743.890625 C 1575.121094 1731.75 1584.980469 1721.898438 1597.101562 1721.898438 C 1609.230469 1721.898438 1619.089844 1731.761719 1619.089844 1743.890625 L 1619.089844 1862.039062 C 1619.089844 1874.160156 1609.238281 1884.019531 1597.101562 1884.019531 "/>
    <path fill-rule="evenodd" fill="rgb(72.068787%, 100%, 72.068787%)" fill-opacity="1"
          d="M 1389.878906 1294.28125 C 1445.960938 1294.28125 1491.578125 1248.660156 1491.578125 1192.578125 L 1491.578125 1080.871094 C 1491.578125 1024.78125 1445.960938 979.160156 1389.878906 979.160156 C 1333.808594 979.160156 1288.171875 1024.78125 1288.171875 1080.871094 L 1288.171875 1192.578125 C 1288.171875 1248.660156 1333.789062 1294.28125 1389.878906 1294.28125 "/>
    <path fill-rule="evenodd" fill="rgb(54.881287%, 84.764099%, 41.967773%)" fill-opacity="1"
          d="M 1875.710938 900.800781 C 1875.710938 979.910156 1940.078125 1044.28125 2019.179688 1044.28125 L 2416.011719 1044.28125 L 2416.011719 917.410156 C 2416.011719 733.558594 2266.441406 583.980469 2082.578125 583.980469 L 1875.710938 583.980469 L 1875.710938 900.800781 "/>
    <path fill-rule="evenodd" fill="rgb(72.068787%, 100%, 72.068787%)" fill-opacity="1"
          d="M 2019.191406 1088.261719 C 1915.820312 1088.261719 1831.738281 1004.171875 1831.738281 900.808594 L 1831.738281 583.980469 L 917.402344 583.980469 C 733.558594 583.980469 583.972656 733.550781 583.972656 917.410156 L 583.972656 2082.585938 C 583.972656 2266.445312 733.539062 2416.019531 917.402344 2416.019531 L 2082.578125 2416.019531 C 2266.441406 2416.019531 2416.011719 2266.445312 2416.011719 2082.585938 L 2416.011719 1088.261719 Z M 1535.570312 1192.578125 C 1535.570312 1272.898438 1470.210938 1338.238281 1389.878906 1338.238281 C 1309.558594 1338.238281 1244.199219 1272.898438 1244.199219 1192.578125 L 1244.199219 1080.871094 C 1244.199219 1000.550781 1309.550781 935.191406 1389.878906 935.191406 C 1470.210938 935.191406 1535.570312 1000.53125 1535.570312 1080.871094 Z M 1619.089844 1769.140625 C 1639.859375 1752.050781 1666.441406 1741.769531 1695.359375 1741.769531 C 1761.648438 1741.769531 1815.589844 1795.710938 1815.589844 1862.019531 L 1815.589844 2018.671875 C 1815.558594 2030.816406 1805.71875 2040.675781 1793.578125 2040.675781 C 1781.441406 2040.675781 1771.589844 2030.816406 1771.589844 2018.691406 L 1771.589844 1862.019531 C 1771.589844 1819.960938 1737.398438 1785.761719 1695.351562 1785.761719 C 1653.308594 1785.761719 1619.109375 1819.960938 1619.109375 1862.019531 L 1619.109375 2018.671875 C 1619.109375 2030.808594 1609.25 2040.660156 1597.128906 2040.660156 C 1585 2040.660156 1575.140625 2030.800781 1575.140625 2018.671875 L 1575.140625 1862.929688 C 1575.121094 1862.628906 1575.121094 1862.328125 1575.121094 1862.039062 L 1575.121094 1743.890625 C 1575.121094 1731.75 1584.980469 1721.898438 1597.101562 1721.898438 C 1609.230469 1721.898438 1619.089844 1731.761719 1619.089844 1743.890625 Z M 1333.320312 1753.621094 C 1395.121094 1768.359375 1472.039062 1786.671875 1472.039062 1896.851562 C 1472.050781 1976.140625 1407.539062 2040.675781 1328.238281 2040.675781 C 1248.949219 2040.675781 1184.421875 1976.140625 1184.421875 1896.851562 C 1184.421875 1884.710938 1194.28125 1874.859375 1206.410156 1874.859375 C 1218.539062 1874.859375 1228.390625 1884.730469 1228.390625 1896.851562 C 1228.390625 1951.898438 1273.191406 1996.699219 1328.25 1996.699219 C 1383.308594 1996.699219 1428.101562 1951.898438 1428.101562 1896.851562 C 1428.101562 1824.890625 1390.179688 1812.378906 1323.160156 1796.410156 C 1261.359375 1781.691406 1184.441406 1763.378906 1184.441406 1653.191406 C 1184.441406 1573.890625 1248.960938 1509.390625 1328.261719 1509.390625 C 1407.550781 1509.390625 1472.058594 1573.890625 1472.058594 1653.191406 C 1472.058594 1665.320312 1462.210938 1675.171875 1450.070312 1675.171875 C 1437.941406 1675.171875 1428.089844 1665.308594 1428.089844 1653.191406 C 1428.089844 1598.148438 1383.300781 1553.351562 1328.238281 1553.351562 C 1273.191406 1553.351562 1228.378906 1598.148438 1228.378906 1653.191406 C 1228.378906 1725.140625 1266.308594 1737.671875 1333.320312 1753.621094 Z M 1009.671875 1049.71875 C 1089.210938 1049.71875 1153.921875 1114.441406 1153.921875 1193.96875 C 1153.921875 1273.511719 1089.25 1338.238281 1009.691406 1338.238281 C 951.890625 1338.238281 899.832031 1303.921875 877.050781 1250.800781 C 872.273438 1239.628906 877.433594 1226.699219 888.589844 1221.929688 C 899.753906 1217.148438 912.683594 1222.308594 917.460938 1233.460938 C 933.292969 1270.390625 969.488281 1294.261719 1009.671875 1294.261719 C 1064.96875 1294.261719 1109.960938 1249.269531 1109.960938 1193.96875 C 1109.960938 1138.679688 1064.96875 1093.691406 1009.671875 1093.691406 C 971.019531 1093.691406 935.578125 1116.148438 919.027344 1151.019531 C 918.871094 1151.410156 918.707031 1151.789062 918.5 1152.148438 C 917.460938 1154.480469 916.003906 1156.550781 914.257812 1158.320312 C 907.945312 1164.789062 898.019531 1166.921875 889.335938 1162.941406 C 879.4375 1158.378906 874.53125 1147.410156 877.285156 1137.238281 L 911.179688 953.191406 C 913.089844 942.761719 922.1875 935.191406 932.796875 935.191406 L 1112.519531 935.191406 C 1124.648438 935.191406 1134.5 945.039062 1134.5 957.179688 C 1134.5 969.308594 1124.648438 979.160156 1112.519531 979.160156 L 951.101562 979.160156 L 934.160156 1071.140625 C 956.480469 1057.421875 982.523438 1049.71875 1009.671875 1049.71875 Z M 979.007812 2140.324219 L 2020.980469 2140.324219 C 2033.109375 2140.324219 2042.960938 2150.183594 2042.960938 2162.304688 C 2042.960938 2174.433594 2033.121094 2184.289062 2020.980469 2184.289062 L 979.007812 2184.289062 C 966.871094 2184.289062 957.019531 2174.433594 957.019531 2162.304688 C 957.019531 2150.183594 966.871094 2140.324219 979.007812 2140.324219 "/>
</svg>
