<?xml version="1.0" encoding="UTF-8"?>
<svg xmlns="http://www.w3.org/2000/svg" xmlns:xlink="http://www.w3.org/1999/xlink" width="3000" height="2668"
     viewBox="0 0 3000 2668">
    <path fill-rule="evenodd" fill="rgb(0%, 0%, 0%)" fill-opacity="1"
          d="M 555.25 2667.429688 L 438.128906 2667.429688 C 317.960938 2667.429688 220.179688 2569.644531 220.179688 2449.453125 L 220.175781 984.109375 C 220.175781 964.710938 235.925781 948.960938 255.332031 948.960938 L 738.0625 948.960938 C 757.472656 948.960938 773.222656 964.710938 773.222656 984.109375 L 773.222656 2449.46875 C 773.195312 2569.644531 675.417969 2667.429688 555.25 2667.429688 Z M 496.671875 2439.855469 C 318.789062 2439.855469 318.769531 2169.539062 496.671875 2169.539062 C 674.53125 2169.539062 674.546875 2439.855469 496.671875 2439.855469 Z M 496.671875 2239.867188 C 411.328125 2239.867188 411.316406 2369.519531 496.671875 2369.519531 C 582 2369.519531 582 2239.867188 496.671875 2239.867188 "/>
    <path fill-rule="evenodd" fill="rgb(0%, 0%, 0%)" fill-opacity="1"
          d="M 255.285156 1019.269531 C 236.769531 1019.269531 221.269531 1004.820312 220.230469 986.109375 C 208.519531 777.640625 20.347656 700.949219 3.246094 524.761719 C -32.445312 168.921875 237.976562 47.789062 240.703125 46.621094 C 261.871094 37.5 286.082031 50.941406 289.445312 73.738281 L 344.820312 448.679688 L 609.300781 416.550781 L 551.925781 41.070312 C 547.71875 13.671875 575.632812 -7.589844 600.953125 3.648438 C 1066.878906 210.480469 1091.660156 658.761719 763.714844 1008.140625 C 744.398438 1028.730469 717.800781 1018.878906 707.148438 1000.410156 L 286.441406 1000.410156 C 280.578125 1011.570312 268.863281 1019.269531 255.285156 1019.269531 Z M 414.511719 717 L 394.359375 635.96875 L 351.988281 641.671875 L 363.070312 723.921875 Z M 464.46875 626.53125 L 484.621094 707.558594 L 564.210938 696.859375 L 545.46875 615.628906 Z M 467.296875 780.539062 L 343.152344 797.101562 C 319.683594 797.101562 299.613281 779.570312 296.464844 756.320312 C 286.398438 681.910156 254.382812 583.789062 319.59375 575.089844 L 690.0625 525.648438 C 713.578125 525.648438 733.648438 543.230469 736.75 566.511719 C 746.652344 640.710938 778.933594 738.921875 713.59375 747.699219 Z M 615.476562 606.210938 L 634.21875 687.441406 L 681.300781 681.101562 L 670.210938 598.839844 L 615.476562 606.210938 "/>
    <path fill-rule="evenodd" fill="rgb(0%, 0%, 0%)" fill-opacity="1"
          d="M 2569.328125 2667.402344 L 2468.058594 2667.402344 C 2367.789062 2667.402344 2286.191406 2585.808594 2286.191406 2485.5625 L 2286.191406 853.269531 C 1950.078125 668.148438 1956.550781 183.011719 2295.269531 5.238281 C 2318.558594 -6.988281 2346.761719 9.878906 2346.761719 36.351562 L 2346.761719 414.101562 C 2346.761719 421.539062 2353.058594 427.839844 2360.511719 427.839844 L 2702.839844 427.839844 C 2710.28125 427.839844 2716.558594 421.539062 2716.558594 414.101562 L 2716.558594 51.089844 C 2716.558594 23.648438 2746.78125 6.769531 2770.089844 21.109375 C 3086.101562 215.53125 3073.039062 676 2751.230469 853.25 L 2751.230469 2485.53125 C 2751.199219 2585.808594 2669.609375 2667.402344 2569.328125 2667.402344 Z M 2518.699219 2464.320312 C 2499.289062 2464.320312 2483.539062 2448.546875 2483.539062 2429.160156 L 2483.539062 2086.839844 C 2483.539062 2040.554688 2553.859375 2040.574219 2553.859375 2086.839844 L 2553.859375 2429.160156 C 2553.859375 2448.546875 2538.109375 2464.320312 2518.699219 2464.320312 "/>
    <path fill-rule="evenodd" fill="rgb(0%, 0%, 0%)" fill-opacity="1"
          d="M 1609.679688 2667.402344 L 1545.640625 2667.402344 L 1545.640625 2062.035156 C 1545.640625 2015.785156 1475.320312 2015.75 1475.320312 2062.035156 L 1475.320312 2667.402344 L 1411.308594 2667.402344 C 1311.179688 2667.402344 1229.738281 2585.949219 1229.738281 2485.824219 L 1229.738281 1922.179688 C 1191.449219 1900.378906 1167.140625 1859.730469 1167.140625 1814.289062 L 1167.140625 1580.859375 C 1167.140625 1512.320312 1222.871094 1456.589844 1291.390625 1456.589844 L 1729.578125 1456.589844 C 1798.121094 1456.589844 1853.851562 1512.320312 1853.851562 1580.859375 L 1853.851562 1814.289062 C 1853.851562 1859.730469 1829.539062 1900.378906 1791.28125 1922.179688 L 1791.28125 2485.824219 C 1791.28125 2585.949219 1709.808594 2667.402344 1609.679688 2667.402344 "/>
    <path fill-rule="evenodd" fill="rgb(0%, 0%, 0%)" fill-opacity="1"
          d="M 1678.578125 593.53125 L 1342.871094 593.53125 C 1322.671875 593.53125 1306.460938 576.261719 1307.789062 556.101562 L 1341.730469 34.101562 C 1342.921875 15.601562 1358.28125 1.21875 1376.808594 1.21875 L 1644.179688 1.21875 C 1662.710938 1.21875 1678.070312 15.601562 1679.261719 34.101562 L 1713.769531 558.398438 C 1713.761719 577.769531 1698.011719 593.53125 1678.578125 593.53125 "/>
    <path fill-rule="evenodd" fill="rgb(0%, 0%, 0%)" fill-opacity="1"
          d="M 1400.148438 1526.949219 C 1380.75 1526.949219 1364.988281 1511.179688 1364.988281 1491.800781 L 1364.988281 558.371094 C 1364.988281 514.460938 1428.28125 512.210938 1434.761719 551.628906 L 1586.210938 551.628906 C 1592.699219 512.21875 1655.980469 514.460938 1655.980469 558.371094 L 1655.980469 1491.800781 C 1655.988281 1534.621094 1593.199219 1539.648438 1586.148438 1497.660156 L 1434.828125 1497.660156 C 1432.039062 1514.28125 1417.589844 1526.949219 1400.148438 1526.949219 "/>
</svg>
