<?xml version="1.0" encoding="UTF-8"?>
<svg xmlns="http://www.w3.org/2000/svg" xmlns:xlink="http://www.w3.org/1999/xlink" width="3479.41" height="3003.45"
     viewBox="0 0 3479.41 3003.45">
    <defs>
        <clipPath id="clip-0">
            <path clip-rule="nonzero" d="M 0 0 L 3479.410156 0 L 3479.410156 3003.449219 L 0 3003.449219 Z M 0 0 "/>
        </clipPath>
        <clipPath id="clip-1">
            <path clip-rule="nonzero"
                  d="M 2306.46875 841.738281 C 2284.75 841.738281 2267.109375 824.109375 2267.109375 802.378906 L 2267.109375 39.359375 C 2267.109375 17.628906 2284.75 0 2306.46875 0 L 2569.46875 0 C 2591.199219 0 2608.828125 17.628906 2608.828125 39.359375 L 2608.828125 504.121094 C 2608.828125 525.839844 2591.199219 543.480469 2569.46875 543.480469 C 2547.75 543.480469 2530.109375 525.839844 2530.109375 504.121094 L 2530.109375 78.71875 L 2345.828125 78.71875 L 2345.828125 802.378906 C 2345.828125 824.191406 2328.199219 841.738281 2306.46875 841.738281 Z M 1172.921875 841.738281 C 1151.191406 841.738281 1133.558594 824.109375 1133.558594 802.378906 L 1133.558594 39.359375 C 1133.558594 17.628906 1151.191406 0 1172.921875 0 L 1435.921875 0 C 1457.640625 0 1475.28125 17.628906 1475.28125 39.359375 L 1475.28125 504.121094 C 1475.28125 525.839844 1457.640625 543.480469 1435.921875 543.480469 C 1414.191406 543.480469 1396.558594 525.839844 1396.558594 504.121094 L 1396.558594 78.71875 L 1212.28125 78.71875 L 1212.28125 802.378906 C 1212.28125 824.191406 1194.640625 841.738281 1172.921875 841.738281 Z M 39.359375 841.738281 C 17.632812 841.738281 0 824.109375 0 802.378906 L 0 39.359375 C 0 17.628906 17.632812 0 39.359375 0 L 302.359375 0 C 324.085938 0 341.71875 17.628906 341.71875 39.359375 L 341.71875 504.121094 C 341.71875 525.839844 324.085938 543.480469 302.359375 543.480469 C 280.632812 543.480469 263 525.839844 263 504.121094 L 263 78.71875 L 78.71875 78.71875 L 78.71875 802.378906 C 78.71875 824.191406 61.085938 841.738281 39.359375 841.738281 Z M 3010.21875 2664.488281 C 2988.488281 2664.488281 2970.859375 2646.851562 2970.859375 2625.128906 L 2970.859375 2549.558594 C 2970.859375 2527.828125 2988.488281 2510.199219 3010.21875 2510.199219 C 3031.949219 2510.199219 3049.578125 2527.828125 3049.578125 2549.558594 L 3049.578125 2625.128906 C 3049.578125 2646.851562 3031.949219 2664.488281 3010.21875 2664.488281 Z M 2736.28125 2664.488281 C 2714.550781 2664.488281 2696.921875 2646.851562 2696.921875 2625.128906 L 2696.921875 2549.558594 C 2696.921875 2527.828125 2714.550781 2510.199219 2736.28125 2510.199219 C 2758 2510.199219 2775.640625 2527.828125 2775.640625 2549.558594 L 2775.640625 2625.128906 C 2775.640625 2646.851562 2758 2664.488281 2736.28125 2664.488281 Z M 1876.671875 2664.488281 C 1854.941406 2664.488281 1837.308594 2646.851562 1837.308594 2625.128906 L 1837.308594 2549.558594 C 1837.308594 2527.828125 1854.941406 2510.199219 1876.671875 2510.199219 C 1898.390625 2510.199219 1916.019531 2527.828125 1916.019531 2549.558594 L 1916.019531 2625.128906 C 1916.019531 2646.851562 1898.390625 2664.488281 1876.671875 2664.488281 Z M 1602.71875 2664.488281 C 1581 2664.488281 1563.359375 2646.851562 1563.359375 2625.128906 L 1563.359375 2549.558594 C 1563.359375 2527.828125 1581 2510.199219 1602.71875 2510.199219 C 1624.449219 2510.199219 1642.078125 2527.828125 1642.078125 2549.558594 L 1642.078125 2625.128906 C 1642.078125 2646.851562 1624.449219 2664.488281 1602.71875 2664.488281 Z M 743.109375 2664.488281 C 721.382812 2664.488281 703.75 2646.851562 703.75 2625.128906 L 703.75 2549.558594 C 703.75 2527.828125 721.382812 2510.199219 743.109375 2510.199219 C 764.835938 2510.199219 782.46875 2527.828125 782.46875 2549.558594 L 782.46875 2625.128906 C 782.46875 2646.851562 764.835938 2664.488281 743.109375 2664.488281 Z M 469.164062 2664.488281 C 447.441406 2664.488281 429.808594 2646.851562 429.808594 2625.128906 L 429.808594 2549.558594 C 429.808594 2527.828125 447.441406 2510.199219 469.164062 2510.199219 C 490.894531 2510.199219 508.527344 2527.828125 508.527344 2549.558594 L 508.527344 2625.128906 C 508.527344 2646.851562 490.894531 2664.488281 469.164062 2664.488281 Z M 2873.25 3003.449219 C 2851.519531 3003.449219 2833.890625 2985.820312 2833.890625 2964.089844 L 2833.890625 2210.589844 C 2833.890625 2188.871094 2851.519531 2171.230469 2873.25 2171.230469 C 2894.980469 2171.230469 2912.609375 2188.871094 2912.609375 2210.589844 L 2912.609375 2964.089844 C 2912.609375 2985.820312 2894.980469 3003.449219 2873.25 3003.449219 Z M 1739.691406 3003.449219 C 1717.96875 3003.449219 1700.328125 2985.820312 1700.328125 2964.089844 L 1700.328125 2210.589844 C 1700.328125 2188.871094 1717.96875 2171.230469 1739.691406 2171.230469 C 1761.421875 2171.230469 1779.050781 2188.871094 1779.050781 2210.589844 L 1779.050781 2964.089844 C 1779.050781 2985.820312 1761.421875 3003.449219 1739.691406 3003.449219 Z M 606.136719 3003.449219 C 584.410156 3003.449219 566.777344 2985.820312 566.777344 2964.089844 L 566.777344 2210.589844 C 566.777344 2188.871094 584.410156 2171.230469 606.136719 2171.230469 C 627.863281 2171.230469 645.496094 2188.871094 645.496094 2210.589844 L 645.496094 2964.089844 C 645.496094 2985.820312 627.863281 3003.449219 606.136719 3003.449219 Z M 3258.578125 1921.609375 C 3253.859375 1921.609375 3249.058594 1920.75 3244.410156 1918.941406 C 3010.691406 1828.648438 2912.058594 1663.101562 2870.421875 1540.140625 C 2825.550781 1407.578125 2835.859375 1296.660156 2836.328125 1292.019531 C 2838.460938 1270.371094 2857.660156 1254.628906 2879.390625 1256.75 C 2900.960938 1258.878906 2916.78125 1278.078125 2914.660156 1299.730469 C 2914.5 1301.070312 2905.761719 1401.039062 2945.988281 1517.78125 C 2999.121094 1672 3109.011719 1782.28125 3272.75 1845.488281 C 3293.058594 1853.359375 3303.140625 1876.109375 3295.261719 1896.421875 C 3289.28125 1912.011719 3274.320312 1921.609375 3258.578125 1921.609375 Z M 2490.199219 1921.609375 C 2474.378906 1921.609375 2459.5 1912.011719 2453.441406 1896.421875 C 2445.570312 1876.109375 2455.71875 1853.359375 2475.949219 1845.488281 C 2868.371094 1693.878906 2834.441406 1303.671875 2834.050781 1299.730469 C 2831.921875 1278.078125 2847.738281 1258.800781 2869.308594 1256.671875 C 2891.039062 1254.550781 2910.25 1270.289062 2912.371094 1291.941406 C 2912.851562 1296.578125 2923.160156 1407.421875 2878.289062 1540.058594 C 2836.648438 1663.019531 2738.011719 1828.570312 2504.289062 1918.859375 C 2499.730469 1920.75 2494.929688 1921.609375 2490.199219 1921.609375 Z M 2560.578125 1335.230469 C 2543.488281 1335.230469 2529.558594 1349.171875 2529.558594 1366.25 L 2529.558594 1882.179688 C 2529.558594 1899.261719 2543.488281 1913.191406 2560.578125 1913.191406 L 3186 1913.191406 C 3203.078125 1913.191406 3217.019531 1899.261719 3217.019531 1882.179688 L 3217.019531 1366.25 C 3217.019531 1349.171875 3203.078125 1335.230469 3186 1335.230469 Z M 3185.921875 1991.910156 L 2560.5 1991.910156 C 2499.960938 1991.910156 2450.761719 1942.710938 2450.761719 1882.179688 L 2450.761719 1366.25 C 2450.761719 1305.710938 2499.960938 1256.519531 2560.5 1256.519531 L 3185.921875 1256.519531 C 3246.460938 1256.519531 3295.660156 1305.710938 3295.660156 1366.25 L 3295.660156 1882.179688 C 3295.660156 1942.710938 3246.460938 1991.910156 3185.921875 1991.910156 Z M 3193.789062 3003.449219 C 3172.070312 3003.449219 3154.441406 2985.820312 3154.441406 2964.089844 L 3154.441406 2531.058594 C 3154.441406 2375.980469 3028.328125 2249.871094 2873.25 2249.871094 C 2718.171875 2249.871094 2592.058594 2375.980469 2592.058594 2531.058594 L 2592.058594 2964.089844 C 2592.058594 2985.820312 2574.429688 3003.449219 2552.710938 3003.449219 C 2530.980469 3003.449219 2513.351562 2985.820312 2513.351562 2964.089844 L 2513.351562 2531.058594 C 2513.351562 2332.609375 2674.800781 2171.148438 2873.25 2171.148438 C 3071.699219 2171.148438 3233.148438 2332.609375 3233.148438 2531.058594 L 3233.148438 2964.089844 C 3233.148438 2985.820312 3215.519531 3003.449219 3193.789062 3003.449219 Z M 3440.03125 1077.269531 C 3418.300781 1077.269531 3400.671875 1059.640625 3400.671875 1037.910156 L 3400.671875 841.738281 L 2345.828125 841.738281 L 2345.828125 1037.910156 C 2345.828125 1059.640625 2328.199219 1077.269531 2306.46875 1077.269531 C 2284.75 1077.269531 2267.109375 1059.640625 2267.109375 1037.910156 L 2267.109375 802.378906 C 2267.109375 780.660156 2284.75 763.019531 2306.46875 763.019531 L 3440.03125 763.019531 C 3461.75 763.019531 3479.390625 780.660156 3479.390625 802.378906 L 3479.390625 1037.910156 C 3479.390625 1059.640625 3461.75 1077.269531 3440.03125 1077.269531 Z M 3440.03125 841.738281 C 3429.089844 841.738281 3418.300781 837.261719 3410.511719 828.441406 L 2873.25 219 L 2335.988281 828.441406 C 2321.589844 844.730469 2296.710938 846.308594 2280.421875 831.898438 C 2264.121094 817.5 2262.550781 792.621094 2276.949219 776.328125 L 2843.730469 133.429688 C 2851.210938 124.929688 2861.988281 120.128906 2873.25 120.128906 C 2884.511719 120.128906 2895.289062 125.011719 2902.769531 133.429688 L 3469.550781 776.328125 C 3483.949219 792.621094 3482.378906 817.5 3466.078125 831.898438 C 3458.609375 838.519531 3449.320312 841.738281 3440.03125 841.738281 Z M 3440.03125 3003.449219 L 2306.46875 3003.449219 C 2284.75 3003.449219 2267.109375 2985.820312 2267.109375 2964.089844 C 2267.109375 2942.371094 2284.75 2924.730469 2306.46875 2924.730469 L 3400.671875 2924.730469 L 3400.671875 1077.269531 L 2306.46875 1077.269531 C 2284.75 1077.269531 2267.109375 1059.640625 2267.109375 1037.910156 C 2267.109375 1016.191406 2284.75 998.550781 2306.46875 998.550781 L 3440.03125 998.550781 C 3461.75 998.550781 3479.390625 1016.191406 3479.390625 1037.910156 L 3479.390625 2964.089844 C 3479.390625 2985.820312 3461.75 3003.449219 3440.03125 3003.449219 Z M 1354.359375 1921.609375 C 1338.539062 1921.609375 1323.660156 1912.011719 1317.601562 1896.421875 C 1309.730469 1876.109375 1319.878906 1853.359375 1340.121094 1845.488281 C 1503.851562 1782.199219 1613.820312 1672 1666.878906 1517.78125 C 1707.179688 1400.808594 1698.289062 1300.679688 1698.210938 1299.730469 C 1696.160156 1278.078125 1711.980469 1258.878906 1733.550781 1256.828125 C 1755.28125 1254.710938 1774.410156 1270.449219 1776.53125 1292.101562 C 1777.011719 1296.738281 1787.320312 1407.578125 1742.449219 1540.21875 C 1700.808594 1663.179688 1602.171875 1828.71875 1368.449219 1919.019531 C 1363.890625 1920.75 1359.089844 1921.609375 1354.359375 1921.609375 Z M 2122.738281 1921.609375 C 2118.019531 1921.609375 2113.21875 1920.75 2108.570312 1918.941406 C 1874.851562 1828.648438 1776.21875 1663.101562 1734.578125 1540.140625 C 1689.710938 1407.578125 1700.019531 1296.660156 1700.488281 1292.019531 C 1702.621094 1270.371094 1721.898438 1254.628906 1743.550781 1256.75 C 1765.199219 1258.878906 1780.941406 1278.078125 1778.820312 1299.730469 C 1778.660156 1301.070312 1769.921875 1401.039062 1810.148438 1517.78125 C 1863.28125 1672 1973.171875 1782.28125 2136.910156 1845.488281 C 2157.21875 1853.359375 2167.300781 1876.109375 2159.421875 1896.421875 C 2153.441406 1912.011719 2138.558594 1921.609375 2122.738281 1921.609375 Z M 1427.019531 1335.230469 C 1409.941406 1335.230469 1396.011719 1349.171875 1396.011719 1366.25 L 1396.011719 1882.179688 C 1396.011719 1899.261719 1409.941406 1913.191406 1427.019531 1913.191406 L 2052.441406 1913.191406 C 2069.53125 1913.191406 2083.460938 1899.261719 2083.460938 1882.179688 L 2083.460938 1366.25 C 2083.460938 1349.171875 2069.53125 1335.230469 2052.441406 1335.230469 Z M 2052.371094 1991.910156 L 1426.941406 1991.910156 C 1366.410156 1991.910156 1317.210938 1942.710938 1317.210938 1882.179688 L 1317.210938 1366.25 C 1317.210938 1305.710938 1366.410156 1256.519531 1426.941406 1256.519531 L 2052.371094 1256.519531 C 2112.898438 1256.519531 2162.101562 1305.710938 2162.101562 1366.25 L 2162.101562 1882.179688 C 2162.101562 1942.710938 2112.898438 1991.910156 2052.371094 1991.910156 Z M 2060.238281 3003.449219 C 2038.511719 3003.449219 2020.878906 2985.820312 2020.878906 2964.089844 L 2020.878906 2531.058594 C 2020.878906 2375.980469 1894.769531 2249.871094 1739.691406 2249.871094 C 1584.621094 2249.871094 1458.511719 2375.980469 1458.511719 2531.058594 L 1458.511719 2964.089844 C 1458.511719 2985.820312 1440.878906 3003.449219 1419.148438 3003.449219 C 1397.421875 3003.449219 1379.789062 2985.820312 1379.789062 2964.089844 L 1379.789062 2531.058594 C 1379.789062 2332.609375 1541.238281 2171.148438 1739.691406 2171.148438 C 1938.148438 2171.148438 2099.601562 2332.609375 2099.601562 2531.058594 L 2099.601562 2964.089844 C 2099.601562 2985.820312 2081.960938 3003.449219 2060.238281 3003.449219 Z M 2306.46875 1077.269531 C 2284.75 1077.269531 2267.109375 1059.640625 2267.109375 1037.910156 L 2267.109375 841.738281 L 1212.28125 841.738281 L 1212.28125 1037.910156 C 1212.28125 1059.640625 1194.640625 1077.269531 1172.921875 1077.269531 C 1151.191406 1077.269531 1133.558594 1059.640625 1133.558594 1037.910156 L 1133.558594 802.378906 C 1133.558594 780.660156 1151.191406 763.019531 1172.921875 763.019531 L 2306.46875 763.019531 C 2328.199219 763.019531 2345.828125 780.660156 2345.828125 802.378906 L 2345.828125 1037.910156 C 2345.828125 1059.640625 2328.199219 1077.269531 2306.46875 1077.269531 Z M 2306.46875 841.738281 C 2295.53125 841.738281 2284.75 837.261719 2276.949219 828.441406 L 1739.691406 219 L 1202.441406 828.441406 C 1188.03125 844.730469 1163.230469 846.308594 1146.859375 831.898438 C 1130.570312 817.5 1128.988281 792.621094 1143.398438 776.328125 L 1710.171875 133.429688 C 1717.648438 124.929688 1728.441406 120.128906 1739.691406 120.128906 C 1751.03125 120.128906 1761.738281 125.011719 1769.210938 133.429688 L 2335.988281 776.328125 C 2350.398438 792.621094 2348.820312 817.5 2332.53125 831.898438 C 2325.050781 838.519531 2315.761719 841.738281 2306.46875 841.738281 Z M 2306.46875 3003.449219 L 1172.921875 3003.449219 C 1151.191406 3003.449219 1133.558594 2985.820312 1133.558594 2964.089844 C 1133.558594 2942.371094 1151.191406 2924.730469 1172.921875 2924.730469 L 2267.109375 2924.730469 L 2267.109375 1077.269531 L 1172.921875 1077.269531 C 1151.191406 1077.269531 1133.558594 1059.640625 1133.558594 1037.910156 C 1133.558594 1016.191406 1151.191406 998.550781 1172.921875 998.550781 L 2306.46875 998.550781 C 2328.199219 998.550781 2345.828125 1016.191406 2345.828125 1037.910156 L 2345.828125 2964.089844 C 2345.828125 2985.820312 2328.199219 3003.449219 2306.46875 3003.449219 Z M 991.46875 1921.609375 C 986.746094 1921.609375 981.941406 1920.75 977.296875 1918.941406 C 743.582031 1828.648438 644.945312 1663.101562 603.382812 1540.140625 C 558.511719 1407.578125 568.824219 1296.660156 569.296875 1292.019531 C 571.421875 1270.371094 590.710938 1254.628906 612.355469 1256.75 C 634.003906 1258.878906 649.746094 1278.078125 647.621094 1299.730469 C 647.464844 1301.070312 638.726562 1401.039062 678.953125 1517.78125 C 732.089844 1672 841.980469 1782.28125 1005.71875 1845.488281 C 1026.03125 1853.359375 1036.101562 1876.109375 1028.230469 1896.421875 C 1022.171875 1912.011719 1007.210938 1921.609375 991.46875 1921.609375 Z M 223.089844 1921.609375 C 207.269531 1921.609375 192.390625 1912.011719 186.328125 1896.421875 C 178.457031 1876.109375 188.609375 1853.359375 208.84375 1845.488281 C 601.257812 1693.878906 567.328125 1303.671875 566.9375 1299.730469 C 564.808594 1278.078125 580.554688 1258.800781 602.203125 1256.671875 C 623.929688 1254.550781 643.136719 1270.371094 645.261719 1291.941406 C 645.734375 1296.578125 656.046875 1407.421875 611.175781 1540.058594 C 569.53125 1663.019531 470.898438 1828.570312 237.261719 1918.859375 C 232.613281 1920.75 227.8125 1921.609375 223.089844 1921.609375 Z M 293.464844 1335.230469 C 276.382812 1335.230469 262.449219 1349.171875 262.449219 1366.25 L 262.449219 1882.179688 C 262.449219 1899.261719 276.382812 1913.191406 293.464844 1913.191406 L 918.890625 1913.191406 C 935.972656 1913.191406 949.902344 1899.261719 949.902344 1882.179688 L 949.902344 1366.25 C 949.902344 1349.171875 935.972656 1335.230469 918.890625 1335.230469 Z M 918.808594 1991.910156 L 293.464844 1991.910156 C 232.929688 1991.910156 183.730469 1942.710938 183.730469 1882.179688 L 183.730469 1366.25 C 183.730469 1305.710938 232.929688 1256.519531 293.464844 1256.519531 L 918.890625 1256.519531 C 979.425781 1256.519531 1028.621094 1305.710938 1028.621094 1366.25 L 1028.621094 1882.179688 C 1028.539062 1942.710938 979.34375 1991.910156 918.808594 1991.910156 Z M 926.683594 3003.449219 C 904.957031 3003.449219 887.320312 2985.820312 887.320312 2964.089844 L 887.320312 2531.058594 C 887.320312 2375.980469 761.214844 2249.871094 606.136719 2249.871094 C 451.0625 2249.871094 324.953125 2375.980469 324.953125 2531.058594 L 324.953125 2964.089844 C 324.953125 2985.820312 307.320312 3003.449219 285.59375 3003.449219 C 263.867188 3003.449219 246.234375 2985.820312 246.234375 2964.089844 L 246.234375 2531.058594 C 246.234375 2332.609375 407.6875 2171.148438 606.136719 2171.148438 C 804.589844 2171.148438 966.042969 2332.609375 966.042969 2531.058594 L 966.042969 2964.089844 C 966.042969 2985.820312 948.410156 3003.449219 926.683594 3003.449219 Z M 1172.921875 1077.269531 C 1151.191406 1077.269531 1133.558594 1059.640625 1133.558594 1037.910156 L 1133.558594 841.738281 L 78.71875 841.738281 L 78.71875 1037.910156 C 78.71875 1059.640625 61.085938 1077.269531 39.359375 1077.269531 C 17.632812 1077.269531 0 1059.640625 0 1037.910156 L 0 802.378906 C 0 780.660156 17.632812 763.019531 39.359375 763.019531 L 1172.921875 763.019531 C 1194.640625 763.019531 1212.28125 780.660156 1212.28125 802.378906 L 1212.28125 1037.910156 C 1212.28125 1059.640625 1194.640625 1077.269531 1172.921875 1077.269531 Z M 39.359375 841.738281 C 30.148438 841.738281 20.859375 838.519531 13.382812 831.898438 C -2.914062 817.5 -4.488281 792.621094 9.917969 776.328125 L 576.695312 133.429688 C 584.175781 124.929688 594.882812 120.128906 606.214844 120.128906 C 617.550781 120.128906 628.257812 125.011719 635.734375 133.429688 L 1202.511719 776.328125 C 1216.921875 792.621094 1215.351562 817.5 1199.050781 831.898438 C 1182.761719 846.308594 1157.878906 844.730469 1143.46875 828.441406 L 606.214844 219 L 68.957031 828.441406 C 61.085938 837.261719 50.222656 841.738281 39.359375 841.738281 Z M 78.71875 2924.730469 L 1133.558594 2924.730469 L 1133.558594 1077.269531 L 78.71875 1077.269531 Z M 1172.921875 3003.449219 L 39.359375 3003.449219 C 17.632812 3003.449219 0 2985.820312 0 2964.089844 L 0 1037.910156 C 0 1016.191406 17.632812 998.550781 39.359375 998.550781 L 1172.921875 998.550781 C 1194.640625 998.550781 1212.28125 1016.191406 1212.28125 1037.910156 L 1212.28125 2964.089844 C 1212.28125 2985.820312 1194.640625 3003.449219 1172.921875 3003.449219 Z M 1172.921875 3003.449219 "/>
        </clipPath>
        <clipPath id="clip-2">
            <path clip-rule="nonzero"
                  d="M 2306.46875 841.738281 C 2284.75 841.738281 2267.109375 824.109375 2267.109375 802.378906 L 2267.109375 39.359375 C 2267.109375 17.628906 2284.75 0 2306.46875 0 L 2569.46875 0 C 2591.199219 0 2608.828125 17.628906 2608.828125 39.359375 L 2608.828125 504.121094 C 2608.828125 525.839844 2591.199219 543.480469 2569.46875 543.480469 C 2547.75 543.480469 2530.109375 525.839844 2530.109375 504.121094 L 2530.109375 78.71875 L 2345.828125 78.71875 L 2345.828125 802.378906 C 2345.828125 824.191406 2328.199219 841.738281 2306.46875 841.738281 Z M 1172.921875 841.738281 C 1151.191406 841.738281 1133.558594 824.109375 1133.558594 802.378906 L 1133.558594 39.359375 C 1133.558594 17.628906 1151.191406 0 1172.921875 0 L 1435.921875 0 C 1457.640625 0 1475.28125 17.628906 1475.28125 39.359375 L 1475.28125 504.121094 C 1475.28125 525.839844 1457.640625 543.480469 1435.921875 543.480469 C 1414.191406 543.480469 1396.558594 525.839844 1396.558594 504.121094 L 1396.558594 78.71875 L 1212.28125 78.71875 L 1212.28125 802.378906 C 1212.28125 824.191406 1194.640625 841.738281 1172.921875 841.738281 Z M 39.359375 841.738281 C 17.632812 841.738281 0 824.109375 0 802.378906 L 0 39.359375 C 0 17.628906 17.632812 0 39.359375 0 L 302.359375 0 C 324.085938 0 341.71875 17.628906 341.71875 39.359375 L 341.71875 504.121094 C 341.71875 525.839844 324.085938 543.480469 302.359375 543.480469 C 280.632812 543.480469 263 525.839844 263 504.121094 L 263 78.71875 L 78.71875 78.71875 L 78.71875 802.378906 C 78.71875 824.191406 61.085938 841.738281 39.359375 841.738281 Z M 3010.21875 2664.488281 C 2988.488281 2664.488281 2970.859375 2646.851562 2970.859375 2625.128906 L 2970.859375 2549.558594 C 2970.859375 2527.828125 2988.488281 2510.199219 3010.21875 2510.199219 C 3031.949219 2510.199219 3049.578125 2527.828125 3049.578125 2549.558594 L 3049.578125 2625.128906 C 3049.578125 2646.851562 3031.949219 2664.488281 3010.21875 2664.488281 Z M 2736.28125 2664.488281 C 2714.550781 2664.488281 2696.921875 2646.851562 2696.921875 2625.128906 L 2696.921875 2549.558594 C 2696.921875 2527.828125 2714.550781 2510.199219 2736.28125 2510.199219 C 2758 2510.199219 2775.640625 2527.828125 2775.640625 2549.558594 L 2775.640625 2625.128906 C 2775.640625 2646.851562 2758 2664.488281 2736.28125 2664.488281 Z M 1876.671875 2664.488281 C 1854.941406 2664.488281 1837.308594 2646.851562 1837.308594 2625.128906 L 1837.308594 2549.558594 C 1837.308594 2527.828125 1854.941406 2510.199219 1876.671875 2510.199219 C 1898.390625 2510.199219 1916.019531 2527.828125 1916.019531 2549.558594 L 1916.019531 2625.128906 C 1916.019531 2646.851562 1898.390625 2664.488281 1876.671875 2664.488281 Z M 1602.71875 2664.488281 C 1581 2664.488281 1563.359375 2646.851562 1563.359375 2625.128906 L 1563.359375 2549.558594 C 1563.359375 2527.828125 1581 2510.199219 1602.71875 2510.199219 C 1624.449219 2510.199219 1642.078125 2527.828125 1642.078125 2549.558594 L 1642.078125 2625.128906 C 1642.078125 2646.851562 1624.449219 2664.488281 1602.71875 2664.488281 Z M 743.109375 2664.488281 C 721.382812 2664.488281 703.75 2646.851562 703.75 2625.128906 L 703.75 2549.558594 C 703.75 2527.828125 721.382812 2510.199219 743.109375 2510.199219 C 764.835938 2510.199219 782.46875 2527.828125 782.46875 2549.558594 L 782.46875 2625.128906 C 782.46875 2646.851562 764.835938 2664.488281 743.109375 2664.488281 Z M 469.164062 2664.488281 C 447.441406 2664.488281 429.808594 2646.851562 429.808594 2625.128906 L 429.808594 2549.558594 C 429.808594 2527.828125 447.441406 2510.199219 469.164062 2510.199219 C 490.894531 2510.199219 508.527344 2527.828125 508.527344 2549.558594 L 508.527344 2625.128906 C 508.527344 2646.851562 490.894531 2664.488281 469.164062 2664.488281 Z M 2873.25 3003.449219 C 2851.519531 3003.449219 2833.890625 2985.820312 2833.890625 2964.089844 L 2833.890625 2210.589844 C 2833.890625 2188.871094 2851.519531 2171.230469 2873.25 2171.230469 C 2894.980469 2171.230469 2912.609375 2188.871094 2912.609375 2210.589844 L 2912.609375 2964.089844 C 2912.609375 2985.820312 2894.980469 3003.449219 2873.25 3003.449219 Z M 1739.691406 3003.449219 C 1717.96875 3003.449219 1700.328125 2985.820312 1700.328125 2964.089844 L 1700.328125 2210.589844 C 1700.328125 2188.871094 1717.96875 2171.230469 1739.691406 2171.230469 C 1761.421875 2171.230469 1779.050781 2188.871094 1779.050781 2210.589844 L 1779.050781 2964.089844 C 1779.050781 2985.820312 1761.421875 3003.449219 1739.691406 3003.449219 Z M 606.136719 3003.449219 C 584.410156 3003.449219 566.777344 2985.820312 566.777344 2964.089844 L 566.777344 2210.589844 C 566.777344 2188.871094 584.410156 2171.230469 606.136719 2171.230469 C 627.863281 2171.230469 645.496094 2188.871094 645.496094 2210.589844 L 645.496094 2964.089844 C 645.496094 2985.820312 627.863281 3003.449219 606.136719 3003.449219 Z M 3258.578125 1921.609375 C 3253.859375 1921.609375 3249.058594 1920.75 3244.410156 1918.941406 C 3010.691406 1828.648438 2912.058594 1663.101562 2870.421875 1540.140625 C 2825.550781 1407.578125 2835.859375 1296.660156 2836.328125 1292.019531 C 2838.460938 1270.371094 2857.660156 1254.628906 2879.390625 1256.75 C 2900.960938 1258.878906 2916.78125 1278.078125 2914.660156 1299.730469 C 2914.5 1301.070312 2905.761719 1401.039062 2945.988281 1517.78125 C 2999.121094 1672 3109.011719 1782.28125 3272.75 1845.488281 C 3293.058594 1853.359375 3303.140625 1876.109375 3295.261719 1896.421875 C 3289.28125 1912.011719 3274.320312 1921.609375 3258.578125 1921.609375 Z M 2490.199219 1921.609375 C 2474.378906 1921.609375 2459.5 1912.011719 2453.441406 1896.421875 C 2445.570312 1876.109375 2455.71875 1853.359375 2475.949219 1845.488281 C 2868.371094 1693.878906 2834.441406 1303.671875 2834.050781 1299.730469 C 2831.921875 1278.078125 2847.738281 1258.800781 2869.308594 1256.671875 C 2891.039062 1254.550781 2910.25 1270.289062 2912.371094 1291.941406 C 2912.851562 1296.578125 2923.160156 1407.421875 2878.289062 1540.058594 C 2836.648438 1663.019531 2738.011719 1828.570312 2504.289062 1918.859375 C 2499.730469 1920.75 2494.929688 1921.609375 2490.199219 1921.609375 Z M 2560.578125 1335.230469 C 2543.488281 1335.230469 2529.558594 1349.171875 2529.558594 1366.25 L 2529.558594 1882.179688 C 2529.558594 1899.261719 2543.488281 1913.191406 2560.578125 1913.191406 L 3186 1913.191406 C 3203.078125 1913.191406 3217.019531 1899.261719 3217.019531 1882.179688 L 3217.019531 1366.25 C 3217.019531 1349.171875 3203.078125 1335.230469 3186 1335.230469 Z M 3185.921875 1991.910156 L 2560.5 1991.910156 C 2499.960938 1991.910156 2450.761719 1942.710938 2450.761719 1882.179688 L 2450.761719 1366.25 C 2450.761719 1305.710938 2499.960938 1256.519531 2560.5 1256.519531 L 3185.921875 1256.519531 C 3246.460938 1256.519531 3295.660156 1305.710938 3295.660156 1366.25 L 3295.660156 1882.179688 C 3295.660156 1942.710938 3246.460938 1991.910156 3185.921875 1991.910156 Z M 3193.789062 3003.449219 C 3172.070312 3003.449219 3154.441406 2985.820312 3154.441406 2964.089844 L 3154.441406 2531.058594 C 3154.441406 2375.980469 3028.328125 2249.871094 2873.25 2249.871094 C 2718.171875 2249.871094 2592.058594 2375.980469 2592.058594 2531.058594 L 2592.058594 2964.089844 C 2592.058594 2985.820312 2574.429688 3003.449219 2552.710938 3003.449219 C 2530.980469 3003.449219 2513.351562 2985.820312 2513.351562 2964.089844 L 2513.351562 2531.058594 C 2513.351562 2332.609375 2674.800781 2171.148438 2873.25 2171.148438 C 3071.699219 2171.148438 3233.148438 2332.609375 3233.148438 2531.058594 L 3233.148438 2964.089844 C 3233.148438 2985.820312 3215.519531 3003.449219 3193.789062 3003.449219 Z M 3440.03125 1077.269531 C 3418.300781 1077.269531 3400.671875 1059.640625 3400.671875 1037.910156 L 3400.671875 841.738281 L 2345.828125 841.738281 L 2345.828125 1037.910156 C 2345.828125 1059.640625 2328.199219 1077.269531 2306.46875 1077.269531 C 2284.75 1077.269531 2267.109375 1059.640625 2267.109375 1037.910156 L 2267.109375 802.378906 C 2267.109375 780.660156 2284.75 763.019531 2306.46875 763.019531 L 3440.03125 763.019531 C 3461.75 763.019531 3479.390625 780.660156 3479.390625 802.378906 L 3479.390625 1037.910156 C 3479.390625 1059.640625 3461.75 1077.269531 3440.03125 1077.269531 Z M 3440.03125 841.738281 C 3429.089844 841.738281 3418.300781 837.261719 3410.511719 828.441406 L 2873.25 219 L 2335.988281 828.441406 C 2321.589844 844.730469 2296.710938 846.308594 2280.421875 831.898438 C 2264.121094 817.5 2262.550781 792.621094 2276.949219 776.328125 L 2843.730469 133.429688 C 2851.210938 124.929688 2861.988281 120.128906 2873.25 120.128906 C 2884.511719 120.128906 2895.289062 125.011719 2902.769531 133.429688 L 3469.550781 776.328125 C 3483.949219 792.621094 3482.378906 817.5 3466.078125 831.898438 C 3458.609375 838.519531 3449.320312 841.738281 3440.03125 841.738281 Z M 3440.03125 3003.449219 L 2306.46875 3003.449219 C 2284.75 3003.449219 2267.109375 2985.820312 2267.109375 2964.089844 C 2267.109375 2942.371094 2284.75 2924.730469 2306.46875 2924.730469 L 3400.671875 2924.730469 L 3400.671875 1077.269531 L 2306.46875 1077.269531 C 2284.75 1077.269531 2267.109375 1059.640625 2267.109375 1037.910156 C 2267.109375 1016.191406 2284.75 998.550781 2306.46875 998.550781 L 3440.03125 998.550781 C 3461.75 998.550781 3479.390625 1016.191406 3479.390625 1037.910156 L 3479.390625 2964.089844 C 3479.390625 2985.820312 3461.75 3003.449219 3440.03125 3003.449219 Z M 1354.359375 1921.609375 C 1338.539062 1921.609375 1323.660156 1912.011719 1317.601562 1896.421875 C 1309.730469 1876.109375 1319.878906 1853.359375 1340.121094 1845.488281 C 1503.851562 1782.199219 1613.820312 1672 1666.878906 1517.78125 C 1707.179688 1400.808594 1698.289062 1300.679688 1698.210938 1299.730469 C 1696.160156 1278.078125 1711.980469 1258.878906 1733.550781 1256.828125 C 1755.28125 1254.710938 1774.410156 1270.449219 1776.53125 1292.101562 C 1777.011719 1296.738281 1787.320312 1407.578125 1742.449219 1540.21875 C 1700.808594 1663.179688 1602.171875 1828.71875 1368.449219 1919.019531 C 1363.890625 1920.75 1359.089844 1921.609375 1354.359375 1921.609375 Z M 2122.738281 1921.609375 C 2118.019531 1921.609375 2113.21875 1920.75 2108.570312 1918.941406 C 1874.851562 1828.648438 1776.21875 1663.101562 1734.578125 1540.140625 C 1689.710938 1407.578125 1700.019531 1296.660156 1700.488281 1292.019531 C 1702.621094 1270.371094 1721.898438 1254.628906 1743.550781 1256.75 C 1765.199219 1258.878906 1780.941406 1278.078125 1778.820312 1299.730469 C 1778.660156 1301.070312 1769.921875 1401.039062 1810.148438 1517.78125 C 1863.28125 1672 1973.171875 1782.28125 2136.910156 1845.488281 C 2157.21875 1853.359375 2167.300781 1876.109375 2159.421875 1896.421875 C 2153.441406 1912.011719 2138.558594 1921.609375 2122.738281 1921.609375 Z M 1427.019531 1335.230469 C 1409.941406 1335.230469 1396.011719 1349.171875 1396.011719 1366.25 L 1396.011719 1882.179688 C 1396.011719 1899.261719 1409.941406 1913.191406 1427.019531 1913.191406 L 2052.441406 1913.191406 C 2069.53125 1913.191406 2083.460938 1899.261719 2083.460938 1882.179688 L 2083.460938 1366.25 C 2083.460938 1349.171875 2069.53125 1335.230469 2052.441406 1335.230469 Z M 2052.371094 1991.910156 L 1426.941406 1991.910156 C 1366.410156 1991.910156 1317.210938 1942.710938 1317.210938 1882.179688 L 1317.210938 1366.25 C 1317.210938 1305.710938 1366.410156 1256.519531 1426.941406 1256.519531 L 2052.371094 1256.519531 C 2112.898438 1256.519531 2162.101562 1305.710938 2162.101562 1366.25 L 2162.101562 1882.179688 C 2162.101562 1942.710938 2112.898438 1991.910156 2052.371094 1991.910156 Z M 2060.238281 3003.449219 C 2038.511719 3003.449219 2020.878906 2985.820312 2020.878906 2964.089844 L 2020.878906 2531.058594 C 2020.878906 2375.980469 1894.769531 2249.871094 1739.691406 2249.871094 C 1584.621094 2249.871094 1458.511719 2375.980469 1458.511719 2531.058594 L 1458.511719 2964.089844 C 1458.511719 2985.820312 1440.878906 3003.449219 1419.148438 3003.449219 C 1397.421875 3003.449219 1379.789062 2985.820312 1379.789062 2964.089844 L 1379.789062 2531.058594 C 1379.789062 2332.609375 1541.238281 2171.148438 1739.691406 2171.148438 C 1938.148438 2171.148438 2099.601562 2332.609375 2099.601562 2531.058594 L 2099.601562 2964.089844 C 2099.601562 2985.820312 2081.960938 3003.449219 2060.238281 3003.449219 Z M 2306.46875 1077.269531 C 2284.75 1077.269531 2267.109375 1059.640625 2267.109375 1037.910156 L 2267.109375 841.738281 L 1212.28125 841.738281 L 1212.28125 1037.910156 C 1212.28125 1059.640625 1194.640625 1077.269531 1172.921875 1077.269531 C 1151.191406 1077.269531 1133.558594 1059.640625 1133.558594 1037.910156 L 1133.558594 802.378906 C 1133.558594 780.660156 1151.191406 763.019531 1172.921875 763.019531 L 2306.46875 763.019531 C 2328.199219 763.019531 2345.828125 780.660156 2345.828125 802.378906 L 2345.828125 1037.910156 C 2345.828125 1059.640625 2328.199219 1077.269531 2306.46875 1077.269531 Z M 2306.46875 841.738281 C 2295.53125 841.738281 2284.75 837.261719 2276.949219 828.441406 L 1739.691406 219 L 1202.441406 828.441406 C 1188.03125 844.730469 1163.230469 846.308594 1146.859375 831.898438 C 1130.570312 817.5 1128.988281 792.621094 1143.398438 776.328125 L 1710.171875 133.429688 C 1717.648438 124.929688 1728.441406 120.128906 1739.691406 120.128906 C 1751.03125 120.128906 1761.738281 125.011719 1769.210938 133.429688 L 2335.988281 776.328125 C 2350.398438 792.621094 2348.820312 817.5 2332.53125 831.898438 C 2325.050781 838.519531 2315.761719 841.738281 2306.46875 841.738281 Z M 2306.46875 3003.449219 L 1172.921875 3003.449219 C 1151.191406 3003.449219 1133.558594 2985.820312 1133.558594 2964.089844 C 1133.558594 2942.371094 1151.191406 2924.730469 1172.921875 2924.730469 L 2267.109375 2924.730469 L 2267.109375 1077.269531 L 1172.921875 1077.269531 C 1151.191406 1077.269531 1133.558594 1059.640625 1133.558594 1037.910156 C 1133.558594 1016.191406 1151.191406 998.550781 1172.921875 998.550781 L 2306.46875 998.550781 C 2328.199219 998.550781 2345.828125 1016.191406 2345.828125 1037.910156 L 2345.828125 2964.089844 C 2345.828125 2985.820312 2328.199219 3003.449219 2306.46875 3003.449219 Z M 991.46875 1921.609375 C 986.746094 1921.609375 981.941406 1920.75 977.296875 1918.941406 C 743.582031 1828.648438 644.945312 1663.101562 603.382812 1540.140625 C 558.511719 1407.578125 568.824219 1296.660156 569.296875 1292.019531 C 571.421875 1270.371094 590.710938 1254.628906 612.355469 1256.75 C 634.003906 1258.878906 649.746094 1278.078125 647.621094 1299.730469 C 647.464844 1301.070312 638.726562 1401.039062 678.953125 1517.78125 C 732.089844 1672 841.980469 1782.28125 1005.71875 1845.488281 C 1026.03125 1853.359375 1036.101562 1876.109375 1028.230469 1896.421875 C 1022.171875 1912.011719 1007.210938 1921.609375 991.46875 1921.609375 Z M 223.089844 1921.609375 C 207.269531 1921.609375 192.390625 1912.011719 186.328125 1896.421875 C 178.457031 1876.109375 188.609375 1853.359375 208.84375 1845.488281 C 601.257812 1693.878906 567.328125 1303.671875 566.9375 1299.730469 C 564.808594 1278.078125 580.554688 1258.800781 602.203125 1256.671875 C 623.929688 1254.550781 643.136719 1270.371094 645.261719 1291.941406 C 645.734375 1296.578125 656.046875 1407.421875 611.175781 1540.058594 C 569.53125 1663.019531 470.898438 1828.570312 237.261719 1918.859375 C 232.613281 1920.75 227.8125 1921.609375 223.089844 1921.609375 Z M 293.464844 1335.230469 C 276.382812 1335.230469 262.449219 1349.171875 262.449219 1366.25 L 262.449219 1882.179688 C 262.449219 1899.261719 276.382812 1913.191406 293.464844 1913.191406 L 918.890625 1913.191406 C 935.972656 1913.191406 949.902344 1899.261719 949.902344 1882.179688 L 949.902344 1366.25 C 949.902344 1349.171875 935.972656 1335.230469 918.890625 1335.230469 Z M 918.808594 1991.910156 L 293.464844 1991.910156 C 232.929688 1991.910156 183.730469 1942.710938 183.730469 1882.179688 L 183.730469 1366.25 C 183.730469 1305.710938 232.929688 1256.519531 293.464844 1256.519531 L 918.890625 1256.519531 C 979.425781 1256.519531 1028.621094 1305.710938 1028.621094 1366.25 L 1028.621094 1882.179688 C 1028.539062 1942.710938 979.34375 1991.910156 918.808594 1991.910156 Z M 926.683594 3003.449219 C 904.957031 3003.449219 887.320312 2985.820312 887.320312 2964.089844 L 887.320312 2531.058594 C 887.320312 2375.980469 761.214844 2249.871094 606.136719 2249.871094 C 451.0625 2249.871094 324.953125 2375.980469 324.953125 2531.058594 L 324.953125 2964.089844 C 324.953125 2985.820312 307.320312 3003.449219 285.59375 3003.449219 C 263.867188 3003.449219 246.234375 2985.820312 246.234375 2964.089844 L 246.234375 2531.058594 C 246.234375 2332.609375 407.6875 2171.148438 606.136719 2171.148438 C 804.589844 2171.148438 966.042969 2332.609375 966.042969 2531.058594 L 966.042969 2964.089844 C 966.042969 2985.820312 948.410156 3003.449219 926.683594 3003.449219 Z M 1172.921875 1077.269531 C 1151.191406 1077.269531 1133.558594 1059.640625 1133.558594 1037.910156 L 1133.558594 841.738281 L 78.71875 841.738281 L 78.71875 1037.910156 C 78.71875 1059.640625 61.085938 1077.269531 39.359375 1077.269531 C 17.632812 1077.269531 0 1059.640625 0 1037.910156 L 0 802.378906 C 0 780.660156 17.632812 763.019531 39.359375 763.019531 L 1172.921875 763.019531 C 1194.640625 763.019531 1212.28125 780.660156 1212.28125 802.378906 L 1212.28125 1037.910156 C 1212.28125 1059.640625 1194.640625 1077.269531 1172.921875 1077.269531 Z M 39.359375 841.738281 C 30.148438 841.738281 20.859375 838.519531 13.382812 831.898438 C -2.914062 817.5 -4.488281 792.621094 9.917969 776.328125 L 576.695312 133.429688 C 584.175781 124.929688 594.882812 120.128906 606.214844 120.128906 C 617.550781 120.128906 628.257812 125.011719 635.734375 133.429688 L 1202.511719 776.328125 C 1216.921875 792.621094 1215.351562 817.5 1199.050781 831.898438 C 1182.761719 846.308594 1157.878906 844.730469 1143.46875 828.441406 L 606.214844 219 L 68.957031 828.441406 C 61.085938 837.261719 50.222656 841.738281 39.359375 841.738281 Z M 78.71875 2924.730469 L 1133.558594 2924.730469 L 1133.558594 1077.269531 L 78.71875 1077.269531 Z M 1172.921875 3003.449219 L 39.359375 3003.449219 C 17.632812 3003.449219 0 2985.820312 0 2964.089844 L 0 1037.910156 C 0 1016.191406 17.632812 998.550781 39.359375 998.550781 L 1172.921875 998.550781 C 1194.640625 998.550781 1212.28125 1016.191406 1212.28125 1037.910156 L 1212.28125 2964.089844 C 1212.28125 2985.820312 1194.640625 3003.449219 1172.921875 3003.449219 "/>
        </clipPath>
        <linearGradient id="linear-pattern-0" gradientUnits="userSpaceOnUse" x1="-0.00358342" y1="0" x2="1.003588"
                        y2="0" gradientTransform="matrix(3218.35, 3218.35, 3218.35, -3218.35, -41.2046, 64.27)">
            <stop offset="0" stop-color="rgb(34.365845%, 58.634949%, 84.017944%)" stop-opacity="1"/>
            <stop offset="0.0078125" stop-color="rgb(34.327698%, 58.557129%, 83.97522%)" stop-opacity="1"/>
            <stop offset="0.015625" stop-color="rgb(34.21936%, 58.337402%, 83.851624%)" stop-opacity="1"/>
            <stop offset="0.0195313" stop-color="rgb(33.984375%, 58.03833%, 83.688354%)" stop-opacity="1"/>
            <stop offset="0.0234375" stop-color="rgb(33.81958%, 57.879639%, 83.605957%)" stop-opacity="1"/>
            <stop offset="0.0273438" stop-color="rgb(33.570862%, 57.707214%, 83.518982%)" stop-opacity="1"/>
            <stop offset="0.03125" stop-color="rgb(33.323669%, 57.53479%, 83.432007%)" stop-opacity="1"/>
            <stop offset="0.0390625" stop-color="rgb(33.166504%, 57.380676%, 83.349609%)" stop-opacity="1"/>
            <stop offset="0.046875" stop-color="rgb(32.940674%, 57.084656%, 83.187866%)" stop-opacity="1"/>
            <stop offset="0.0546875" stop-color="rgb(32.803345%, 56.806946%, 83.029175%)" stop-opacity="1"/>
            <stop offset="0.0625" stop-color="rgb(32.666016%, 56.529236%, 82.870483%)" stop-opacity="1"/>
            <stop offset="0.0703125" stop-color="rgb(32.481384%, 56.274414%, 82.728577%)" stop-opacity="1"/>
            <stop offset="0.078125" stop-color="rgb(32.199097%, 56.066895%, 82.621765%)" stop-opacity="1"/>
            <stop offset="0.0859375" stop-color="rgb(31.913757%, 55.836487%, 82.499695%)" stop-opacity="1"/>
            <stop offset="0.0898438" stop-color="rgb(31.739807%, 55.497742%, 82.304382%)" stop-opacity="1"/>
            <stop offset="0.09375" stop-color="rgb(31.68335%, 55.299377%, 82.188416%)" stop-opacity="1"/>
            <stop offset="0.0976563" stop-color="rgb(31.617737%, 55.155945%, 82.104492%)" stop-opacity="1"/>
            <stop offset="0.101563" stop-color="rgb(31.550598%, 55.012512%, 82.022095%)" stop-opacity="1"/>
            <stop offset="0.109375" stop-color="rgb(31.472778%, 54.937744%, 81.980896%)" stop-opacity="1"/>
            <stop offset="0.117188" stop-color="rgb(31.326294%, 54.736328%, 81.866455%)" stop-opacity="1"/>
            <stop offset="0.121094" stop-color="rgb(31.201172%, 54.412842%, 81.677246%)" stop-opacity="1"/>
            <stop offset="0.125" stop-color="rgb(31.144714%, 54.217529%, 81.561279%)" stop-opacity="1"/>
            <stop offset="0.128906" stop-color="rgb(31.080627%, 54.071045%, 81.47583%)" stop-opacity="1"/>
            <stop offset="0.132813" stop-color="rgb(31.016541%, 53.924561%, 81.390381%)" stop-opacity="1"/>
            <stop offset="0.140625" stop-color="rgb(30.938721%, 53.851318%, 81.349182%)" stop-opacity="1"/>
            <stop offset="0.148438" stop-color="rgb(30.758667%, 53.651428%, 81.237793%)" stop-opacity="1"/>
            <stop offset="0.152344" stop-color="rgb(30.513%, 53.318787%, 81.047058%)" stop-opacity="1"/>
            <stop offset="0.15625" stop-color="rgb(30.369568%, 53.111267%, 80.92804%)" stop-opacity="1"/>
            <stop offset="0.160156" stop-color="rgb(30.255127%, 52.932739%, 80.82428%)" stop-opacity="1"/>
            <stop offset="0.164063" stop-color="rgb(30.140686%, 52.754211%, 80.72052%)" stop-opacity="1"/>
            <stop offset="0.171875" stop-color="rgb(30.076599%, 52.62146%, 80.6427%)" stop-opacity="1"/>
            <stop offset="0.175781" stop-color="rgb(29.980469%, 52.340698%, 80.474854%)" stop-opacity="1"/>
            <stop offset="0.179688" stop-color="rgb(29.949951%, 52.191162%, 80.383301%)" stop-opacity="1"/>
            <stop offset="0.183594" stop-color="rgb(29.983521%, 52.011108%, 80.270386%)" stop-opacity="1"/>
            <stop offset="0.1875" stop-color="rgb(30.01709%, 51.831055%, 80.157471%)" stop-opacity="1"/>
            <stop offset="0.191406" stop-color="rgb(30.018616%, 51.667786%, 80.056763%)" stop-opacity="1"/>
            <stop offset="0.195313" stop-color="rgb(30.018616%, 51.504517%, 79.956055%)" stop-opacity="1"/>
            <stop offset="0.203125" stop-color="rgb(29.953003%, 51.373291%, 79.878235%)" stop-opacity="1"/>
            <stop offset="0.207031" stop-color="rgb(29.855347%, 51.095581%, 79.711914%)" stop-opacity="1"/>
            <stop offset="0.210938" stop-color="rgb(29.823303%, 50.949097%, 79.621887%)" stop-opacity="1"/>
            <stop offset="0.214844" stop-color="rgb(29.856873%, 50.770569%, 79.508972%)" stop-opacity="1"/>
            <stop offset="0.21875" stop-color="rgb(29.890442%, 50.590515%, 79.397583%)" stop-opacity="1"/>
            <stop offset="0.222656" stop-color="rgb(29.920959%, 50.428772%, 79.295349%)" stop-opacity="1"/>
            <stop offset="0.226563" stop-color="rgb(29.951477%, 50.268555%, 79.194641%)" stop-opacity="1"/>
            <stop offset="0.234375" stop-color="rgb(29.974365%, 50.14801%, 79.119873%)" stop-opacity="1"/>
            <stop offset="0.238281" stop-color="rgb(30.047607%, 49.894714%, 78.959656%)" stop-opacity="1"/>
            <stop offset="0.242188" stop-color="rgb(30.097961%, 49.760437%, 78.874207%)" stop-opacity="1"/>
            <stop offset="0.246094" stop-color="rgb(30.218506%, 49.591064%, 78.762817%)" stop-opacity="1"/>
            <stop offset="0.25" stop-color="rgb(30.33905%, 49.421692%, 78.652954%)" stop-opacity="1"/>
            <stop offset="0.253906" stop-color="rgb(30.459595%, 49.252319%, 78.543091%)" stop-opacity="1"/>
            <stop offset="0.257813" stop-color="rgb(30.578613%, 49.081421%, 78.433228%)" stop-opacity="1"/>
            <stop offset="0.261719" stop-color="rgb(30.699158%, 48.910522%, 78.321838%)" stop-opacity="1"/>
            <stop offset="0.265625" stop-color="rgb(30.818176%, 48.738098%, 78.211975%)" stop-opacity="1"/>
            <stop offset="0.269531" stop-color="rgb(30.938721%, 48.5672%, 78.100586%)" stop-opacity="1"/>
            <stop offset="0.273438" stop-color="rgb(31.057739%, 48.396301%, 77.990723%)" stop-opacity="1"/>
            <stop offset="0.277344" stop-color="rgb(31.178284%, 48.223877%, 77.880859%)" stop-opacity="1"/>
            <stop offset="0.28125" stop-color="rgb(31.295776%, 48.051453%, 77.76947%)" stop-opacity="1"/>
            <stop offset="0.285156" stop-color="rgb(31.414795%, 47.880554%, 77.659607%)" stop-opacity="1"/>
            <stop offset="0.289063" stop-color="rgb(31.535339%, 47.706604%, 77.548218%)" stop-opacity="1"/>
            <stop offset="0.292969" stop-color="rgb(31.654358%, 47.53418%, 77.438354%)" stop-opacity="1"/>
            <stop offset="0.296875" stop-color="rgb(31.771851%, 47.360229%, 77.326965%)" stop-opacity="1"/>
            <stop offset="0.300781" stop-color="rgb(31.890869%, 47.187805%, 77.215576%)" stop-opacity="1"/>
            <stop offset="0.304688" stop-color="rgb(32.008362%, 47.012329%, 77.104187%)" stop-opacity="1"/>
            <stop offset="0.308594" stop-color="rgb(32.125854%, 46.838379%, 76.994324%)" stop-opacity="1"/>
            <stop offset="0.3125" stop-color="rgb(32.244873%, 46.664429%, 76.882935%)" stop-opacity="1"/>
            <stop offset="0.316406" stop-color="rgb(32.365417%, 46.478271%, 76.763916%)" stop-opacity="1"/>
            <stop offset="0.320313" stop-color="rgb(32.484436%, 46.290588%, 76.646423%)" stop-opacity="1"/>
            <stop offset="0.324219" stop-color="rgb(32.61261%, 46.054077%, 76.496887%)" stop-opacity="1"/>
            <stop offset="0.328125" stop-color="rgb(32.74231%, 45.817566%, 76.347351%)" stop-opacity="1"/>
            <stop offset="0.332031" stop-color="rgb(32.88269%, 45.591736%, 76.205444%)" stop-opacity="1"/>
            <stop offset="0.335938" stop-color="rgb(33.023071%, 45.367432%, 76.063538%)" stop-opacity="1"/>
            <stop offset="0.339844" stop-color="rgb(33.226013%, 45.196533%, 75.9552%)" stop-opacity="1"/>
            <stop offset="0.34375" stop-color="rgb(33.427429%, 45.024109%, 75.845337%)" stop-opacity="1"/>
            <stop offset="0.347656" stop-color="rgb(33.630371%, 44.844055%, 75.72937%)" stop-opacity="1"/>
            <stop offset="0.351563" stop-color="rgb(33.833313%, 44.66095%, 75.613403%)" stop-opacity="1"/>
            <stop offset="0.355469" stop-color="rgb(34.042358%, 44.42749%, 75.465393%)" stop-opacity="1"/>
            <stop offset="0.359375" stop-color="rgb(34.25293%, 44.190979%, 75.317383%)" stop-opacity="1"/>
            <stop offset="0.363281" stop-color="rgb(34.463501%, 43.954468%, 75.169373%)" stop-opacity="1"/>
            <stop offset="0.367188" stop-color="rgb(34.674072%, 43.717957%, 75.021362%)" stop-opacity="1"/>
            <stop offset="0.371094" stop-color="rgb(34.883118%, 43.479919%, 74.873352%)" stop-opacity="1"/>
            <stop offset="0.375" stop-color="rgb(35.092163%, 43.241882%, 74.723816%)" stop-opacity="1"/>
            <stop offset="0.378906" stop-color="rgb(35.301208%, 43.003845%, 74.575806%)" stop-opacity="1"/>
            <stop offset="0.382813" stop-color="rgb(35.508728%, 42.762756%, 74.427795%)" stop-opacity="1"/>
            <stop offset="0.386719" stop-color="rgb(35.717773%, 42.523193%, 74.278259%)" stop-opacity="1"/>
            <stop offset="0.390625" stop-color="rgb(35.925293%, 42.280579%, 74.128723%)" stop-opacity="1"/>
            <stop offset="0.394531" stop-color="rgb(36.140442%, 42.047119%, 73.985291%)" stop-opacity="1"/>
            <stop offset="0.398438" stop-color="rgb(36.355591%, 41.810608%, 73.840332%)" stop-opacity="1"/>
            <stop offset="0.402344" stop-color="rgb(36.634827%, 41.633606%, 73.730469%)" stop-opacity="1"/>
            <stop offset="0.40625" stop-color="rgb(36.914062%, 41.453552%, 73.620605%)" stop-opacity="1"/>
            <stop offset="0.410156" stop-color="rgb(37.193298%, 41.268921%, 73.497009%)" stop-opacity="1"/>
            <stop offset="0.414063" stop-color="rgb(37.47406%, 41.081238%, 73.373413%)" stop-opacity="1"/>
            <stop offset="0.417969" stop-color="rgb(37.763977%, 40.840149%, 73.121643%)" stop-opacity="1"/>
            <stop offset="0.421875" stop-color="rgb(38.052368%, 40.597534%, 72.869873%)" stop-opacity="1"/>
            <stop offset="0.425781" stop-color="rgb(38.343811%, 40.34729%, 72.608948%)" stop-opacity="1"/>
            <stop offset="0.429688" stop-color="rgb(38.633728%, 40.098572%, 72.346497%)" stop-opacity="1"/>
            <stop offset="0.433594" stop-color="rgb(38.9328%, 39.79187%, 71.955872%)" stop-opacity="1"/>
            <stop offset="0.4375" stop-color="rgb(39.231873%, 39.482117%, 71.566772%)" stop-opacity="1"/>
            <stop offset="0.441406" stop-color="rgb(39.529419%, 39.178467%, 71.183777%)" stop-opacity="1"/>
            <stop offset="0.445313" stop-color="rgb(39.826965%, 38.871765%, 70.800781%)" stop-opacity="1"/>
            <stop offset="0.449219" stop-color="rgb(40.112305%, 38.623047%, 70.500183%)" stop-opacity="1"/>
            <stop offset="0.453125" stop-color="rgb(40.39917%, 38.372803%, 70.201111%)" stop-opacity="1"/>
            <stop offset="0.457031" stop-color="rgb(40.684509%, 38.124084%, 69.90509%)" stop-opacity="1"/>
            <stop offset="0.460938" stop-color="rgb(40.968323%, 37.872314%, 69.60907%)" stop-opacity="1"/>
            <stop offset="0.464844" stop-color="rgb(41.253662%, 37.617493%, 69.360352%)" stop-opacity="1"/>
            <stop offset="0.46875" stop-color="rgb(41.53595%, 37.362671%, 69.113159%)" stop-opacity="1"/>
            <stop offset="0.472656" stop-color="rgb(41.819763%, 37.109375%, 68.865967%)" stop-opacity="1"/>
            <stop offset="0.476563" stop-color="rgb(42.102051%, 36.853027%, 68.617249%)" stop-opacity="1"/>
            <stop offset="0.480469" stop-color="rgb(42.457581%, 36.662292%, 68.357849%)" stop-opacity="1"/>
            <stop offset="0.484375" stop-color="rgb(42.811584%, 36.471558%, 68.09845%)" stop-opacity="1"/>
            <stop offset="0.488281" stop-color="rgb(43.165588%, 36.277771%, 67.837524%)" stop-opacity="1"/>
            <stop offset="0.492188" stop-color="rgb(43.518066%, 36.082458%, 67.578125%)" stop-opacity="1"/>
            <stop offset="0.496094" stop-color="rgb(43.8797%, 35.823059%, 67.282104%)" stop-opacity="1"/>
            <stop offset="0.5" stop-color="rgb(44.239807%, 35.562134%, 66.98761%)" stop-opacity="1"/>
            <stop offset="0.503906" stop-color="rgb(44.598389%, 35.298157%, 66.691589%)" stop-opacity="1"/>
            <stop offset="0.507813" stop-color="rgb(44.95697%, 35.03418%, 66.397095%)" stop-opacity="1"/>
            <stop offset="0.511719" stop-color="rgb(45.315552%, 34.768677%, 66.1026%)" stop-opacity="1"/>
            <stop offset="0.515625" stop-color="rgb(45.671082%, 34.501648%, 65.80658%)" stop-opacity="1"/>
            <stop offset="0.519531" stop-color="rgb(46.028137%, 34.234619%, 65.513611%)" stop-opacity="1"/>
            <stop offset="0.523438" stop-color="rgb(46.383667%, 33.966064%, 65.219116%)" stop-opacity="1"/>
            <stop offset="0.527344" stop-color="rgb(46.691895%, 33.732605%, 64.903259%)" stop-opacity="1"/>
            <stop offset="0.53125" stop-color="rgb(46.998596%, 33.49762%, 64.588928%)" stop-opacity="1"/>
            <stop offset="0.535156" stop-color="rgb(47.303772%, 33.26416%, 64.274597%)" stop-opacity="1"/>
            <stop offset="0.539063" stop-color="rgb(47.608948%, 33.029175%, 63.95874%)" stop-opacity="1"/>
            <stop offset="0.542969" stop-color="rgb(47.958374%, 32.76062%, 63.619995%)" stop-opacity="1"/>
            <stop offset="0.546875" stop-color="rgb(48.3078%, 32.49054%, 63.282776%)" stop-opacity="1"/>
            <stop offset="0.550781" stop-color="rgb(48.657227%, 32.217407%, 62.944031%)" stop-opacity="1"/>
            <stop offset="0.554688" stop-color="rgb(49.006653%, 31.944275%, 62.605286%)" stop-opacity="1"/>
            <stop offset="0.558594" stop-color="rgb(49.424744%, 31.730652%, 62.30011%)" stop-opacity="1"/>
            <stop offset="0.5625" stop-color="rgb(49.841309%, 31.517029%, 61.994934%)" stop-opacity="1"/>
            <stop offset="0.566406" stop-color="rgb(50.260925%, 31.304932%, 61.691284%)" stop-opacity="1"/>
            <stop offset="0.570313" stop-color="rgb(50.679016%, 31.091309%, 61.387634%)" stop-opacity="1"/>
            <stop offset="0.574219" stop-color="rgb(51.097107%, 30.874634%, 61.129761%)" stop-opacity="1"/>
            <stop offset="0.578125" stop-color="rgb(51.513672%, 30.656433%, 60.870361%)" stop-opacity="1"/>
            <stop offset="0.582031" stop-color="rgb(51.928711%, 30.438232%, 60.61554%)" stop-opacity="1"/>
            <stop offset="0.585938" stop-color="rgb(52.34375%, 30.218506%, 60.362244%)" stop-opacity="1"/>
            <stop offset="0.589844" stop-color="rgb(52.71759%, 29.972839%, 60.058594%)" stop-opacity="1"/>
            <stop offset="0.59375" stop-color="rgb(53.089905%, 29.725647%, 59.753418%)" stop-opacity="1"/>
            <stop offset="0.597656" stop-color="rgb(53.456116%, 29.476929%, 59.44519%)" stop-opacity="1"/>
            <stop offset="0.601563" stop-color="rgb(53.820801%, 29.226685%, 59.138489%)" stop-opacity="1"/>
            <stop offset="0.605469" stop-color="rgb(54.255676%, 28.977966%, 58.744812%)" stop-opacity="1"/>
            <stop offset="0.609375" stop-color="rgb(54.689026%, 28.727722%, 58.351135%)" stop-opacity="1"/>
            <stop offset="0.613281" stop-color="rgb(55.128479%, 28.479004%, 57.951355%)" stop-opacity="1"/>
            <stop offset="0.617188" stop-color="rgb(55.567932%, 28.22876%, 57.548523%)" stop-opacity="1"/>
            <stop offset="0.621094" stop-color="rgb(55.976868%, 27.996826%, 57.279968%)" stop-opacity="1"/>
            <stop offset="0.625" stop-color="rgb(56.384277%, 27.764893%, 57.008362%)" stop-opacity="1"/>
            <stop offset="0.628906" stop-color="rgb(56.788635%, 27.534485%, 56.759644%)" stop-opacity="1"/>
            <stop offset="0.632813" stop-color="rgb(57.191467%, 27.304077%, 56.509399%)" stop-opacity="1"/>
            <stop offset="0.636719" stop-color="rgb(57.597351%, 27.01416%, 56.193542%)" stop-opacity="1"/>
            <stop offset="0.640625" stop-color="rgb(58.003235%, 26.722717%, 55.87616%)" stop-opacity="1"/>
            <stop offset="0.644531" stop-color="rgb(58.409119%, 26.420593%, 55.549622%)" stop-opacity="1"/>
            <stop offset="0.648438" stop-color="rgb(58.811951%, 26.115417%, 55.224609%)" stop-opacity="1"/>
            <stop offset="0.652344" stop-color="rgb(59.165955%, 25.978088%, 54.896545%)" stop-opacity="1"/>
            <stop offset="0.65625" stop-color="rgb(59.516907%, 25.839233%, 54.568481%)" stop-opacity="1"/>
            <stop offset="0.660156" stop-color="rgb(59.858704%, 25.733948%, 54.241943%)" stop-opacity="1"/>
            <stop offset="0.664063" stop-color="rgb(60.198975%, 25.628662%, 53.912354%)" stop-opacity="1"/>
            <stop offset="0.667969" stop-color="rgb(60.649109%, 25.352478%, 53.587341%)" stop-opacity="1"/>
            <stop offset="0.671875" stop-color="rgb(61.097717%, 25.074768%, 53.260803%)" stop-opacity="1"/>
            <stop offset="0.675781" stop-color="rgb(61.57074%, 24.760437%, 52.937317%)" stop-opacity="1"/>
            <stop offset="0.679688" stop-color="rgb(62.042236%, 24.441528%, 52.613831%)" stop-opacity="1"/>
            <stop offset="0.683594" stop-color="rgb(62.449646%, 24.246216%, 52.342224%)" stop-opacity="1"/>
            <stop offset="0.6875" stop-color="rgb(62.854004%, 24.050903%, 52.070618%)" stop-opacity="1"/>
            <stop offset="0.691406" stop-color="rgb(63.243103%, 23.887634%, 51.811218%)" stop-opacity="1"/>
            <stop offset="0.695313" stop-color="rgb(63.630676%, 23.722839%, 51.553345%)" stop-opacity="1"/>
            <stop offset="0.699219" stop-color="rgb(64.03656%, 23.475647%, 51.23291%)" stop-opacity="1"/>
            <stop offset="0.703125" stop-color="rgb(64.439392%, 23.226929%, 50.91095%)" stop-opacity="1"/>
            <stop offset="0.707031" stop-color="rgb(64.846802%, 22.956848%, 50.572205%)" stop-opacity="1"/>
            <stop offset="0.710938" stop-color="rgb(65.25116%, 22.685242%, 50.234985%)" stop-opacity="1"/>
            <stop offset="0.714844" stop-color="rgb(65.643311%, 22.439575%, 49.905396%)" stop-opacity="1"/>
            <stop offset="0.71875" stop-color="rgb(66.030884%, 22.193909%, 49.57428%)" stop-opacity="1"/>
            <stop offset="0.722656" stop-color="rgb(66.415405%, 21.954346%, 49.246216%)" stop-opacity="1"/>
            <stop offset="0.726563" stop-color="rgb(66.798401%, 21.713257%, 48.919678%)" stop-opacity="1"/>
            <stop offset="0.730469" stop-color="rgb(67.181396%, 21.530151%, 48.614502%)" stop-opacity="1"/>
            <stop offset="0.734375" stop-color="rgb(67.56134%, 21.34552%, 48.3078%)" stop-opacity="1"/>
            <stop offset="0.738281" stop-color="rgb(67.94281%, 21.180725%, 48.01178%)" stop-opacity="1"/>
            <stop offset="0.742188" stop-color="rgb(68.321228%, 21.014404%, 47.712708%)" stop-opacity="1"/>
            <stop offset="0.746094" stop-color="rgb(68.756104%, 20.846558%, 47.380066%)" stop-opacity="1"/>
            <stop offset="0.75" stop-color="rgb(69.189453%, 20.678711%, 47.047424%)" stop-opacity="1"/>
            <stop offset="0.753906" stop-color="rgb(69.642639%, 20.509338%, 46.702576%)" stop-opacity="1"/>
            <stop offset="0.757812" stop-color="rgb(70.094299%, 20.339966%, 46.357727%)" stop-opacity="1"/>
            <stop offset="0.761719" stop-color="rgb(70.492554%, 20.167542%, 46.080017%)" stop-opacity="1"/>
            <stop offset="0.765625" stop-color="rgb(70.889282%, 19.993591%, 45.803833%)" stop-opacity="1"/>
            <stop offset="0.769531" stop-color="rgb(71.264648%, 19.819641%, 45.553589%)" stop-opacity="1"/>
            <stop offset="0.773438" stop-color="rgb(71.636963%, 19.645691%, 45.303345%)" stop-opacity="1"/>
            <stop offset="0.777344" stop-color="rgb(72.062683%, 19.418335%, 44.972229%)" stop-opacity="1"/>
            <stop offset="0.78125" stop-color="rgb(72.488403%, 19.190979%, 44.642639%)" stop-opacity="1"/>
            <stop offset="0.785156" stop-color="rgb(72.935486%, 18.940735%, 44.277954%)" stop-opacity="1"/>
            <stop offset="0.789063" stop-color="rgb(73.381042%, 18.688965%, 43.913269%)" stop-opacity="1"/>
            <stop offset="0.792969" stop-color="rgb(73.776245%, 18.496704%, 43.569946%)" stop-opacity="1"/>
            <stop offset="0.796875" stop-color="rgb(74.171448%, 18.304443%, 43.226624%)" stop-opacity="1"/>
            <stop offset="0.800781" stop-color="rgb(74.542236%, 18.139648%, 42.893982%)" stop-opacity="1"/>
            <stop offset="0.804688" stop-color="rgb(74.913025%, 17.974854%, 42.559814%)" stop-opacity="1"/>
            <stop offset="0.808594" stop-color="rgb(75.233459%, 17.822266%, 42.202759%)" stop-opacity="1"/>
            <stop offset="0.8125" stop-color="rgb(75.553894%, 17.669678%, 41.845703%)" stop-opacity="1"/>
            <stop offset="0.816406" stop-color="rgb(75.849915%, 17.521667%, 41.47644%)" stop-opacity="1"/>
            <stop offset="0.820313" stop-color="rgb(76.145935%, 17.372131%, 41.108704%)" stop-opacity="1"/>
            <stop offset="0.824219" stop-color="rgb(76.530457%, 17.219543%, 40.820312%)" stop-opacity="1"/>
            <stop offset="0.828125" stop-color="rgb(76.913452%, 17.06543%, 40.531921%)" stop-opacity="1"/>
            <stop offset="0.832031" stop-color="rgb(77.345276%, 16.90979%, 40.287781%)" stop-opacity="1"/>
            <stop offset="0.835938" stop-color="rgb(77.775574%, 16.751099%, 40.040588%)" stop-opacity="1"/>
            <stop offset="0.839844" stop-color="rgb(78.253174%, 16.540527%, 39.753723%)" stop-opacity="1"/>
            <stop offset="0.84375" stop-color="rgb(78.729248%, 16.329956%, 39.465332%)" stop-opacity="1"/>
            <stop offset="0.847656" stop-color="rgb(79.232788%, 16.085815%, 39.154053%)" stop-opacity="1"/>
            <stop offset="0.851563" stop-color="rgb(79.733276%, 15.841675%, 38.842773%)" stop-opacity="1"/>
            <stop offset="0.855469" stop-color="rgb(80.108643%, 15.696716%, 38.565063%)" stop-opacity="1"/>
            <stop offset="0.859375" stop-color="rgb(80.482483%, 15.550232%, 38.287354%)" stop-opacity="1"/>
            <stop offset="0.863281" stop-color="rgb(80.775452%, 15.466309%, 38.031006%)" stop-opacity="1"/>
            <stop offset="0.867188" stop-color="rgb(81.066895%, 15.382385%, 37.774658%)" stop-opacity="1"/>
            <stop offset="0.871094" stop-color="rgb(81.361389%, 15.313721%, 37.442017%)" stop-opacity="1"/>
            <stop offset="0.875" stop-color="rgb(81.652832%, 15.245056%, 37.107849%)" stop-opacity="1"/>
            <stop offset="0.878906" stop-color="rgb(81.945801%, 15.185547%, 36.723328%)" stop-opacity="1"/>
            <stop offset="0.882813" stop-color="rgb(82.240295%, 15.127563%, 36.338806%)" stop-opacity="1"/>
            <stop offset="0.886719" stop-color="rgb(82.652283%, 14.961243%, 36.000061%)" stop-opacity="1"/>
            <stop offset="0.890625" stop-color="rgb(83.062744%, 14.794922%, 35.661316%)" stop-opacity="1"/>
            <stop offset="0.894531" stop-color="rgb(83.563232%, 14.547729%, 35.357666%)" stop-opacity="1"/>
            <stop offset="0.898438" stop-color="rgb(84.060669%, 14.299011%, 35.054016%)" stop-opacity="1"/>
            <stop offset="0.902344" stop-color="rgb(84.480286%, 14.108276%, 34.767151%)" stop-opacity="1"/>
            <stop offset="0.90625" stop-color="rgb(84.898376%, 13.917542%, 34.480286%)" stop-opacity="1"/>
            <stop offset="0.910156" stop-color="rgb(85.255432%, 13.772583%, 34.204102%)" stop-opacity="1"/>
            <stop offset="0.914063" stop-color="rgb(85.610962%, 13.626099%, 33.929443%)" stop-opacity="1"/>
            <stop offset="0.917969" stop-color="rgb(85.934448%, 13.574219%, 33.605957%)" stop-opacity="1"/>
            <stop offset="0.921875" stop-color="rgb(86.257935%, 13.523865%, 33.280945%)" stop-opacity="1"/>
            <stop offset="0.925781" stop-color="rgb(86.552429%, 13.551331%, 32.913208%)" stop-opacity="1"/>
            <stop offset="0.929688" stop-color="rgb(86.845398%, 13.580322%, 32.545471%)" stop-opacity="1"/>
            <stop offset="0.933594" stop-color="rgb(87.208557%, 13.464355%, 32.241821%)" stop-opacity="1"/>
            <stop offset="0.9375" stop-color="rgb(87.57019%, 13.346863%, 31.936646%)" stop-opacity="1"/>
            <stop offset="0.941406" stop-color="rgb(87.994385%, 13.096619%, 31.690979%)" stop-opacity="1"/>
            <stop offset="0.945313" stop-color="rgb(88.415527%, 12.846375%, 31.445312%)" stop-opacity="1"/>
            <stop offset="0.949219" stop-color="rgb(88.809204%, 12.722778%, 31.178284%)" stop-opacity="1"/>
            <stop offset="0.953125" stop-color="rgb(89.201355%, 12.600708%, 30.912781%)" stop-opacity="1"/>
            <stop offset="0.957031" stop-color="rgb(89.56604%, 12.602234%, 30.62439%)" stop-opacity="1"/>
            <stop offset="0.960938" stop-color="rgb(89.930725%, 12.605286%, 30.335999%)" stop-opacity="1"/>
            <stop offset="0.964844" stop-color="rgb(90.220642%, 12.57782%, 30.050659%)" stop-opacity="1"/>
            <stop offset="0.96875" stop-color="rgb(90.510559%, 12.547302%, 29.763794%)" stop-opacity="1"/>
            <stop offset="0.972656" stop-color="rgb(90.724182%, 12.487793%, 29.47998%)" stop-opacity="1"/>
            <stop offset="0.976563" stop-color="rgb(90.937805%, 12.426758%, 29.197693%)" stop-opacity="1"/>
            <stop offset="0.980469" stop-color="rgb(91.218567%, 12.356567%, 28.907776%)" stop-opacity="1"/>
            <stop offset="0.984375" stop-color="rgb(91.499329%, 12.286377%, 28.620911%)" stop-opacity="1"/>
            <stop offset="0.988281" stop-color="rgb(91.856384%, 12.205505%, 28.32489%)" stop-opacity="1"/>
            <stop offset="0.992188" stop-color="rgb(92.211914%, 12.124634%, 28.030396%)" stop-opacity="1"/>
            <stop offset="0.996094" stop-color="rgb(92.405701%, 12.081909%, 27.870178%)" stop-opacity="1"/>
            <stop offset="1" stop-color="rgb(92.597961%, 12.037659%, 27.711487%)" stop-opacity="1"/>
        </linearGradient>
    </defs>
    <g clip-path="url(#clip-0)">
        <g clip-path="url(#clip-1)">
            <g clip-path="url(#clip-2)">
                <path fill-rule="nonzero" fill="url(#linear-pattern-0)"
                      d="M -1501.726562 1501.726562 L 1739.703125 -1739.703125 L 4981.136719 1501.726562 L 1739.703125 4743.15625 Z M -1501.726562 1501.726562 "/>
            </g>
        </g>
    </g>
</svg>
