<?xml version="1.0" encoding="UTF-8"?>
<svg xmlns="http://www.w3.org/2000/svg" xmlns:xlink="http://www.w3.org/1999/xlink" width="3001" height="2230"
     viewBox="0 0 3001 2230">
    <path fill-rule="nonzero" fill="rgb(0%, 0%, 0%)" fill-opacity="1"
          d="M 2470.78125 1301.113281 L 2954.121094 1301.113281 C 2980.011719 1301.113281 3001 1322.101562 3001 1347.992188 L 3001 2012.863281 C 3001 2038.753906 2980.011719 2059.746094 2954.121094 2059.746094 L 2470.78125 2059.746094 C 2470.890625 2056.691406 2470.980469 2053.640625 2470.980469 2050.566406 L 2470.980469 1310.296875 C 2470.980469 1307.21875 2470.890625 1304.164062 2470.78125 1301.113281 "/>
    <path fill-rule="nonzero" fill="rgb(0%, 0%, 0%)" fill-opacity="1"
          d="M 1005.660156 1301.113281 L 1140.761719 1301.113281 C 1151.808594 1290.605469 1163.238281 1280.636719 1175.019531 1271.230469 C 1185.050781 1263.230469 1195.449219 1255.539062 1206.191406 1248.21875 L 1206.191406 1059.339844 L 1795.808594 1059.339844 L 1795.808594 1248.21875 C 1806.539062 1255.546875 1816.929688 1263.230469 1826.96875 1271.230469 C 1838.75 1280.628906 1850.191406 1290.601562 1861.238281 1301.113281 L 1996.339844 1301.113281 C 1996.230469 1304.164062 1996.148438 1307.21875 1996.148438 1310.296875 L 1996.148438 2050.566406 C 1996.148438 2053.640625 1996.230469 2056.699219 1996.339844 2059.746094 L 1861.191406 2059.746094 C 1815.851562 2102.796875 1762.71875 2137.84375 1704.101562 2162.578125 C 1641.359375 2189.039062 1572.71875 2203.683594 1501 2203.683594 C 1429.28125 2203.683594 1360.640625 2189.039062 1297.898438 2162.578125 C 1239.28125 2137.847656 1186.148438 2102.796875 1140.808594 2059.746094 L 1005.660156 2059.746094 C 1005.769531 2056.691406 1005.851562 2053.640625 1005.851562 2050.566406 L 1005.851562 1310.296875 C 1005.851562 1307.21875 1005.769531 1304.164062 1005.660156 1301.113281 "/>
    <path fill-rule="nonzero" fill="rgb(0%, 0%, 0%)" fill-opacity="1"
          d="M 47.875 1301.113281 L 531.21875 1301.113281 C 531.105469 1304.164062 531.023438 1307.21875 531.023438 1310.296875 L 531.023438 2050.566406 C 531.023438 2053.640625 531.105469 2056.699219 531.21875 2059.746094 L 47.875 2059.746094 C 21.984375 2059.746094 0.996094 2038.753906 0.996094 2012.863281 L 0.996094 1347.992188 C 0.996094 1322.101562 21.984375 1301.113281 47.875 1301.113281 "/>
    <path fill-rule="nonzero" fill="rgb(0%, 0%, 0%)" fill-opacity="1"
          d="M 768.4375 1131.46875 C 866.785156 1131.46875 947.265625 1211.988281 947.265625 1310.296875 L 947.265625 2050.566406 C 947.265625 2148.867188 866.648438 2229.394531 768.4375 2229.394531 C 670.140625 2229.394531 589.613281 2148.777344 589.613281 2050.566406 L 589.613281 1310.296875 C 589.613281 1211.949219 670.132812 1131.46875 768.4375 1131.46875 "/>
    <path fill-rule="nonzero" fill="rgb(0%, 0%, 0%)" fill-opacity="1"
          d="M 2233.558594 1131.46875 C 2331.910156 1131.46875 2412.390625 1211.988281 2412.390625 1310.296875 L 2412.390625 2050.566406 C 2412.390625 2148.867188 2331.769531 2229.394531 2233.558594 2229.394531 C 2135.261719 2229.394531 2054.738281 2148.777344 2054.738281 2050.566406 L 2054.738281 1310.296875 C 2054.738281 1211.949219 2135.261719 1131.46875 2233.558594 1131.46875 "/>
    <path fill-rule="nonzero" fill="rgb(0%, 0%, 0%)" fill-opacity="1"
          d="M 1096.589844 708.210938 L 1905.410156 708.210938 C 1945.679688 708.210938 1982.261719 724.660156 2008.738281 751.140625 C 2035.230469 777.628906 2051.671875 814.210938 2051.671875 854.480469 L 2051.671875 854.488281 C 2051.671875 894.761719 2035.230469 931.339844 2008.738281 957.820312 C 1982.261719 984.308594 1945.679688 1000.75 1905.410156 1000.75 L 1096.589844 1000.75 C 1016.148438 1000.75 950.328125 934.878906 950.328125 854.488281 L 950.328125 854.480469 C 950.328125 814.210938 966.773438 777.628906 993.257812 751.140625 C 1019.738281 724.660156 1056.320312 708.210938 1096.589844 708.210938 "/>
    <path fill-rule="nonzero" fill="rgb(0%, 0%, 0%)" fill-opacity="1"
          d="M 1275.050781 649.621094 L 1275.050781 564.949219 C 1275.050781 539.058594 1296.039062 518.070312 1321.929688 518.070312 L 1680.070312 518.070312 C 1705.960938 518.070312 1726.949219 539.058594 1726.949219 564.949219 L 1726.949219 649.621094 L 1275.050781 649.621094 "/>
    <path fill-rule="nonzero" fill="rgb(0%, 0%, 0%)" fill-opacity="1"
          d="M 1454.121094 564.949219 C 1454.121094 590.828125 1475.109375 611.820312 1501 611.820312 C 1526.890625 611.820312 1547.878906 590.828125 1547.878906 564.949219 L 1547.878906 246.261719 C 1547.878906 220.371094 1526.890625 199.378906 1501 199.378906 C 1475.109375 199.378906 1454.121094 220.371094 1454.121094 246.261719 L 1454.121094 564.949219 "/>
    <path fill-rule="nonzero" fill="rgb(0%, 0%, 0%)" fill-opacity="1"
          d="M 1096.589844 0.609375 L 1905.410156 0.609375 C 1945.679688 0.609375 1982.261719 17.050781 2008.738281 43.53125 C 2035.230469 70.019531 2051.671875 106.601562 2051.671875 146.871094 L 2051.671875 146.878906 C 2051.671875 187.148438 2035.230469 223.730469 2008.738281 250.210938 C 1982.261719 276.699219 1945.679688 293.140625 1905.410156 293.140625 L 1096.589844 293.140625 C 1016.148438 293.140625 950.328125 227.269531 950.328125 146.878906 L 950.328125 146.871094 C 950.328125 106.601562 966.773438 70.019531 993.257812 43.53125 C 1019.738281 17.050781 1056.320312 0.609375 1096.589844 0.609375 "/>
</svg>
