<?xml version="1.0" encoding="UTF-8"?>
<svg xmlns="http://www.w3.org/2000/svg" xmlns:xlink="http://www.w3.org/1999/xlink" width="3000" height="2366"
     viewBox="0 0 3000 2366">
    <path fill-rule="evenodd" fill="rgb(0%, 0%, 0%)" fill-opacity="1"
          d="M 2960.078125 2365.730469 L 2575.300781 2365.730469 C 2575.570312 2328.574219 2575.898438 2291.402344 2576.160156 2283.792969 C 2577.578125 2243.570312 2577.5 2207.871094 2557.511719 2196.0625 L 2329.261719 2061.546875 C 2289.320312 2038.035156 2253.75 2098.773438 2293.621094 2122.089844 L 2504.550781 2246.59375 C 2504.550781 2258.140625 2503.980469 2270.164062 2503.601562 2281.898438 C 2503.421875 2287.425781 2503.261719 2328.425781 2503.199219 2365.730469 L 2183.179688 2365.730469 C 2208.660156 2298.441406 2154.738281 2204.855469 2114.839844 2156.566406 C 2073.839844 2106.9375 2022.671875 2067.050781 1965.238281 2041.171875 C 1998.839844 1932.191406 2092.640625 1804.480469 2276.050781 1804.480469 C 2396.648438 1804.480469 2505.28125 1870.148438 2561.429688 1974.394531 C 2793.738281 1887.085938 3040.078125 2086.011719 2994.511719 2336.921875 C 2991.578125 2353.769531 2976.941406 2365.730469 2960.078125 2365.730469 Z M 2763.820312 2229.753906 C 2671.261719 2229.753906 2671.269531 2089.144531 2763.820312 2089.144531 C 2856.359375 2089.144531 2856.359375 2229.753906 2763.820312 2229.753906 "/>
    <path fill-rule="evenodd" fill="rgb(0%, 0%, 0%)" fill-opacity="1"
          d="M 2096.128906 2365.730469 L 1530.25 2365.730469 C 1427.089844 2365.730469 1564.050781 2066.683594 1813.191406 2066.683594 C 2062.058594 2066.683594 2199.371094 2365.730469 2096.128906 2365.730469 "/>
    <path fill-rule="evenodd" fill="rgb(0%, 0%, 0%)" fill-opacity="1"
          d="M 2232.589844 1653.613281 L 1430.238281 1653.613281 C 1487.179688 1596.195312 1521.628906 1523.285156 1532.710938 1440.277344 C 1538.839844 1394.328125 1538.191406 1335.121094 1526.789062 1289.550781 L 1526.519531 1288.511719 C 1477.949219 1108.539062 1346.75 962.671875 1200.820312 852.878906 C 1166.789062 827.28125 1129.921875 802.011719 1091.71875 778.359375 L 1166.011719 621.449219 L 1444.070312 550.648438 C 1459.449219 546.511719 1470.441406 532.570312 1470.441406 516.480469 L 1470.441406 276.738281 C 1565.761719 374.539062 1619.53125 554.359375 1711.140625 547.480469 C 1736.039062 545.519531 1933.289062 546.261719 2094.660156 546.980469 C 2197.738281 547.558594 2185.878906 560.421875 2257.980469 615.101562 L 2461.390625 768.050781 C 2441.261719 770.988281 2427.421875 773.019531 2425.878906 773.289062 C 2134.53125 825.839844 2221.269531 891.550781 1870.070312 784.519531 C 1825.71875 771.019531 1805.261719 838.441406 1849.558594 851.910156 C 1993.351562 895.851562 2068.550781 912.941406 2127.871094 912.941406 C 2203.96875 912.941406 2304.140625 868.511719 2441.328125 842.230469 C 2443.769531 841.769531 2489.25 835.148438 2538.371094 828.019531 C 2648.351562 920.011719 2650.390625 967.480469 2599.269531 1117.261719 C 2508.699219 1382.878906 2394.449219 1653.613281 2232.589844 1653.613281 Z M 1030.671875 742.660156 C 1001.191406 726.421875 971.394531 711.511719 941.941406 698.46875 C 921.199219 689.289062 867.234375 690.058594 843.878906 689.589844 C 793.035156 688.539062 742.132812 688.210938 691.277344 687.949219 C 617.09375 687.578125 542.917969 687.828125 468.734375 687.578125 C 411.210938 687.390625 358.5625 697.03125 310.628906 714.859375 C 415.945312 502.160156 545.007812 215.46875 687.039062 215.46875 L 1343.238281 215.46875 C 1363.691406 215.46875 1382.558594 219.519531 1400.121094 226.71875 L 1400.121094 489.140625 L 1132.558594 557.25 C 1122.320312 559.941406 1113.761719 566.769531 1109.371094 576.289062 L 1030.671875 742.660156 "/>
    <path fill-rule="evenodd" fill="rgb(0%, 0%, 0%)" fill-opacity="1"
          d="M 1367.421875 88.238281 C 1371.789062 84.75 1377.019531 82.289062 1382.789062 81.199219 L 1791.949219 0.878906 C 1800 -0.589844 1808.050781 0.628906 1815.378906 4.289062 L 2170.339844 194.21875 C 2179.859375 199.351562 2186.691406 208.621094 2188.398438 219.371094 C 2207.421875 330.210938 2229.78125 449.011719 2247.300781 530.800781 C 2237.089844 522.730469 2226.738281 515.269531 2216.238281 509.558594 C 2179.289062 489.460938 2135.980469 488.578125 2094.949219 488.378906 L 2019.421875 488.039062 L 1979.191406 338.011719 C 1974.121094 318.410156 1871.171875 186.210938 1759.230469 234.738281 C 1629.191406 291.101562 1648.160156 411.960938 1706.5 397.570312 C 1762.671875 383.71875 1692.289062 340.261719 1787.058594 299.199219 C 1840.03125 276.25 1898.628906 344.359375 1913.03125 362.671875 L 1946.609375 487.78125 C 1902.988281 487.640625 1859.371094 487.570312 1815.75 487.648438 C 1780.808594 487.699219 1741.390625 486.410156 1706.710938 489.039062 C 1678.558594 491.179688 1600.050781 353.238281 1585.339844 330.621094 C 1563.691406 297.28125 1540.210938 264.359375 1512.410156 235.828125 L 1411.839844 132.648438 L 1367.421875 88.238281 "/>
    <path fill-rule="evenodd" fill="rgb(0%, 0%, 0%)" fill-opacity="1"
          d="M 1327.621094 1653.613281 L 133.605469 1652.878906 C 110.65625 1648 -2.863281 1606.738281 0.0664062 1280.339844 C 0.105469 1271.738281 73.460938 744.859375 468.539062 746.191406 C 518.308594 746.359375 902.925781 745.128906 918.222656 752.058594 C 936.773438 760.109375 1375.460938 953.691406 1469.941406 1303.769531 C 1472.378906 1313.539062 1520.71875 1523.003906 1347.878906 1647.015625 C 1342.261719 1651.171875 1334.941406 1653.613281 1327.621094 1653.613281 Z M 948.25 1516.171875 C 932.625 1516.171875 918.464844 1505.910156 914.3125 1490.046875 L 862.804688 1298.171875 L 586.214844 1301.578125 C 575.953125 1301.578125 566.1875 1296.949219 559.363281 1289.140625 L 355.757812 1049.398438 C 326.152344 1014.269531 379.410156 968.648438 409.46875 1003.988281 L 602.320312 1231.269531 L 889.667969 1227.859375 C 905.53125 1227.859375 919.445312 1238.601562 923.601562 1253.988281 L 982.195312 1472.230469 C 988.097656 1494.0625 972.308594 1516.171875 948.25 1516.171875 "/>
    <path fill-rule="evenodd" fill="rgb(0%, 0%, 0%)" fill-opacity="1"
          d="M 718.519531 2320.5625 C 586.253906 2320.5625 438.484375 2324.175781 308.640625 2318.121094 C 280.019531 2316.785156 252.414062 2313.898438 226.671875 2308.84375 L 238.75 2287.898438 L 239.0625 2287.367188 L 308.996094 2166.113281 L 337.203125 2117.210938 C 360.121094 2077.0625 299.441406 2041.808594 276.171875 2082.058594 L 247.984375 2130.929688 L 247.964844 2130.960938 L 178.03125 2252.214844 L 157.734375 2287.398438 C 83.550781 2253.023438 42.109375 2184.855469 69.644531 2056.171875 C 110.789062 1863.882812 276.820312 1817.78125 391.394531 1844.273438 L 652.359375 1947.058594 C 932.617188 2046.027344 939.472656 2291.941406 723.648438 2320.328125 C 721.703125 2320.5625 720.238281 2320.5625 718.519531 2320.5625 Z M 523.230469 2187.765625 C 430.671875 2187.765625 430.675781 2047.15625 523.230469 2047.15625 C 615.777344 2047.15625 615.785156 2187.765625 523.230469 2187.765625 "/>
</svg>
