<?xml version="1.0" encoding="UTF-8"?>
<svg xmlns="http://www.w3.org/2000/svg" xmlns:xlink="http://www.w3.org/1999/xlink" width="3001" height="2877"
     viewBox="0 0 3001 2877">
    <path fill-rule="nonzero" fill="rgb(0%, 0%, 0%)" fill-opacity="1"
          d="M 2436.921875 1873.898438 C 2371.148438 1981.503906 2278.109375 2084.589844 2142 2083.066406 C 2038.871094 2081.921875 1938.210938 2020.945312 1851.859375 1969.957031 C 1730.671875 1898.402344 1614.96875 1823.210938 1510.710938 1964.671875 C 1509.578125 1966.417969 1508.371094 1968.109375 1507.078125 1969.738281 L 1489.390625 1992.089844 L 1488.699219 1991.554688 C 1438.269531 2048.871094 1373.300781 2096.238281 1292.699219 2086.503906 C 1139.871094 2068.058594 1024.828125 1855.871094 896.136719 1851.199219 L 891.085938 1851.019531 C 878.398438 1851.128906 866.113281 1853.359375 854.050781 1857.628906 C 800.492188 1876.558594 749.109375 1939.054688 709.921875 1979.132812 C 678.335938 2011.425781 644.492188 2042.550781 604.152344 2063.597656 C 538.214844 2098.003906 470.453125 2096.386719 401.683594 2070.722656 C 298.726562 2032.300781 196.957031 1942.042969 119.335938 1863.910156 L 62.476562 1863.910156 C -20.820312 1863.910156 -20.820312 1737.410156 62.476562 1737.410156 C 102.132812 1737.410156 164.363281 1727.070312 192.703125 1758.390625 C 254.621094 1822.140625 341.539062 1904.335938 424.640625 1939.394531 C 467.160156 1957.339844 509.0625 1963.328125 551.667969 1942.621094 C 588.035156 1924.941406 619.554688 1891.140625 647.257812 1862.269531 C 713.910156 1792.808594 776.632812 1731.621094 874.011719 1725.269531 L 874.179688 1723.808594 L 900.6875 1724.78125 C 1009.039062 1728.761719 1083.078125 1794.589844 1160.5 1862.429688 C 1238.308594 1930.613281 1309.160156 2000.835938 1389.53125 1913.832031 L 1389.199219 1913.578125 L 1409.019531 1889.863281 C 1463.960938 1815.039062 1535.46875 1754.890625 1632.390625 1752.738281 C 1732.449219 1750.511719 1832.679688 1811.871094 1916.128906 1861.140625 C 1979.378906 1898.488281 2063.28125 1950.492188 2138.800781 1950.023438 C 2222.441406 1949.515625 2281.390625 1883.671875 2323.25 1817.761719 L 2330.699219 1805.441406 C 2340.621094 1789.058594 2365.648438 1764.988281 2381.089844 1753.101562 C 2413.179688 1728.378906 2449.699219 1713.160156 2490.011719 1708.71875 C 2578.871094 1698.929688 2668.308594 1743.140625 2738.570312 1793.511719 C 2792.71875 1832.328125 2844.660156 1881.015625 2887.980469 1932.359375 L 2937.53125 1932.359375 C 3020.828125 1932.359375 3020.828125 2058.855469 2937.53125 2058.855469 C 2897.929688 2058.855469 2835.28125 2069.804688 2807.851562 2034.210938 L 2800.820312 2025.089844 C 2767.28125 1983.273438 2725.941406 1943.015625 2684.199219 1910.421875 C 2622.441406 1862.199219 2498.488281 1786.988281 2436.921875 1873.898438 Z M 2436.921875 2267.230469 C 2371.148438 2374.835938 2278.109375 2477.925781 2142 2476.402344 C 2038.871094 2475.253906 1938.210938 2414.28125 1851.859375 2363.289062 C 1730.671875 2291.734375 1614.96875 2216.539062 1510.710938 2358.007812 C 1509.578125 2359.753906 1508.371094 2361.445312 1507.078125 2363.074219 L 1489.390625 2385.425781 L 1488.699219 2384.886719 C 1438.269531 2442.207031 1373.300781 2489.570312 1292.699219 2479.839844 C 1139.871094 2461.394531 1024.828125 2249.207031 896.136719 2244.535156 L 891.085938 2244.351562 C 878.398438 2244.46875 866.113281 2246.695312 854.050781 2250.960938 C 800.492188 2269.894531 749.109375 2332.390625 709.921875 2372.464844 C 678.335938 2404.757812 644.492188 2435.886719 604.152344 2456.933594 C 538.214844 2491.335938 470.453125 2489.722656 401.683594 2464.054688 C 298.726562 2425.636719 196.957031 2335.378906 119.335938 2257.242188 L 62.476562 2257.242188 C -20.820312 2257.242188 -20.820312 2130.746094 62.476562 2130.746094 C 102.132812 2130.746094 164.363281 2120.40625 192.703125 2151.722656 C 254.621094 2215.476562 341.539062 2297.671875 424.640625 2332.730469 C 467.160156 2350.671875 509.0625 2356.660156 551.667969 2335.953125 C 588.035156 2318.277344 619.554688 2284.476562 647.257812 2255.605469 C 713.910156 2186.140625 776.632812 2124.949219 874.011719 2118.601562 L 874.179688 2117.148438 L 900.6875 2118.117188 C 1009.039062 2122.097656 1083.078125 2187.921875 1160.5 2255.761719 C 1238.308594 2323.949219 1309.160156 2394.171875 1389.53125 2307.164062 L 1389.199219 2306.914062 L 1409.019531 2283.199219 C 1463.960938 2208.371094 1535.46875 2148.226562 1632.390625 2146.074219 C 1732.449219 2143.84375 1832.679688 2205.199219 1916.128906 2254.476562 C 1979.378906 2291.824219 2063.28125 2343.828125 2138.800781 2343.359375 C 2222.441406 2342.847656 2281.390625 2277.003906 2323.25 2211.09375 L 2330.699219 2198.773438 C 2340.621094 2182.394531 2365.648438 2158.324219 2381.089844 2146.433594 C 2413.179688 2121.71875 2449.699219 2106.492188 2490.011719 2102.050781 C 2578.871094 2092.265625 2668.308594 2136.46875 2738.570312 2186.84375 C 2792.71875 2225.667969 2844.660156 2274.351562 2887.980469 2325.691406 L 2937.53125 2325.691406 C 3020.828125 2325.691406 3020.828125 2452.191406 2937.53125 2452.191406 C 2897.929688 2452.191406 2835.28125 2463.140625 2807.851562 2427.546875 L 2800.820312 2418.425781 C 2767.28125 2376.609375 2725.941406 2336.347656 2684.199219 2303.757812 C 2622.441406 2255.535156 2498.488281 2180.328125 2436.921875 2267.230469 Z M 2436.921875 2660.566406 C 2371.148438 2768.171875 2278.109375 2871.257812 2142 2869.738281 C 2038.871094 2868.582031 1938.210938 2807.609375 1851.859375 2756.625 C 1730.628906 2685.050781 1614.941406 2609.847656 1510.671875 2751.390625 C 1509.539062 2753.132812 1508.328125 2754.820312 1507.039062 2756.441406 L 1488.839844 2779.335938 L 1488.191406 2778.800781 C 1437.828125 2835.855469 1373.03125 2882.871094 1292.699219 2873.175781 C 1139.871094 2854.726562 1024.839844 2642.542969 896.136719 2637.871094 L 891.085938 2637.6875 C 878.398438 2637.800781 866.113281 2640.027344 854.042969 2644.296875 C 800.484375 2663.230469 749.109375 2725.722656 709.921875 2765.792969 C 678.34375 2798.085938 644.5 2829.210938 604.164062 2850.257812 C 538.226562 2884.664062 470.46875 2883.054688 401.699219 2857.390625 C 298.734375 2818.972656 196.957031 2728.710938 119.335938 2650.578125 L 62.476562 2650.578125 C -20.820312 2650.578125 -20.820312 2524.078125 62.476562 2524.078125 C 102.132812 2524.078125 164.363281 2513.742188 192.703125 2545.058594 C 254.621094 2608.808594 341.539062 2691.007812 424.640625 2726.0625 C 467.167969 2744 509.0625 2749.996094 551.667969 2729.289062 C 588.035156 2711.613281 619.554688 2677.8125 647.257812 2648.941406 C 713.910156 2579.476562 776.632812 2518.285156 874.011719 2511.9375 L 874.179688 2510.480469 L 900.6875 2511.453125 C 1009.03125 2515.433594 1083.101562 2581.257812 1160.5 2649.101562 C 1239.46875 2718.316406 1311.738281 2789.957031 1393.671875 2695.929688 L 1407.878906 2677.910156 C 1408.28125 2677.402344 1408.691406 2676.90625 1409.101562 2676.410156 C 1464.03125 2601.644531 1535.53125 2541.554688 1632.410156 2539.40625 C 1732.460938 2537.1875 1832.679688 2598.535156 1916.128906 2647.8125 C 1979.390625 2685.160156 2063.28125 2737.152344 2138.800781 2736.691406 C 2222.398438 2736.175781 2281.328125 2670.394531 2323.191406 2604.515625 L 2330.699219 2592.109375 C 2340.628906 2575.722656 2365.648438 2551.671875 2381.078125 2539.78125 C 2413.171875 2515.058594 2449.679688 2499.832031 2489.980469 2495.390625 C 2578.839844 2485.59375 2668.28125 2529.785156 2738.550781 2580.15625 C 2792.710938 2618.984375 2844.660156 2667.664062 2887.988281 2719.019531 L 2937.53125 2719.019531 C 3020.828125 2719.019531 3020.828125 2845.519531 2937.53125 2845.519531 C 2897.929688 2845.519531 2835.28125 2856.464844 2807.851562 2820.871094 L 2800.820312 2811.75 C 2767.28125 2769.9375 2725.941406 2729.683594 2684.210938 2697.089844 C 2622.449219 2648.863281 2498.488281 2573.664062 2436.921875 2660.566406 "/>
    <path fill-rule="nonzero" fill="rgb(0%, 0%, 0%)" fill-opacity="1"
          d="M 1023.199219 1380.519531 C 966.515625 1184.558594 1034.609375 882.558594 1367.328125 477.589844 C 1382.609375 457.191406 1408.78125 458.359375 1422.519531 475.039062 L 1422.429688 475.140625 C 2369.171875 1624.960938 1188.769531 1952.902344 1023.199219 1380.519531 Z M 1638.25 1314.339844 C 1638.25 1268.921875 1569.25 1268.921875 1569.25 1314.339844 C 1569.25 1352.191406 1553.941406 1386.449219 1529.21875 1411.199219 L 1529.160156 1411.128906 C 1487.539062 1452.75 1423.941406 1463.140625 1371.359375 1436.960938 C 1330.738281 1416.730469 1300 1478.441406 1340.628906 1498.679688 C 1419.851562 1538.128906 1515.621094 1522.25 1577.949219 1459.921875 C 1577.949219 1458.761719 1638.25 1407.148438 1638.25 1314.339844 "/>
    <path fill-rule="nonzero" fill="rgb(0%, 0%, 0%)" fill-opacity="1"
          d="M 289.082031 773.660156 C 241.394531 608.789062 298.210938 355.269531 576.699219 16.148438 C 591.945312 -4.25 618.148438 -3.101562 631.886719 13.589844 L 631.800781 13.691406 C 1427.441406 979.96875 429.550781 1259.308594 289.082031 773.660156 "/>
    <path fill-rule="nonzero" fill="rgb(0%, 0%, 0%)" fill-opacity="1"
          d="M 2036.910156 773.660156 C 1989.21875 608.789062 2046.03125 355.269531 2324.519531 16.148438 C 2339.769531 -4.25 2365.96875 -3.101562 2379.710938 13.589844 L 2379.621094 13.691406 C 3175.261719 979.960938 2177.378906 1259.308594 2036.910156 773.660156 "/>
</svg>
