<?xml version="1.0" encoding="UTF-8"?>
<svg xmlns="http://www.w3.org/2000/svg" xmlns:xlink="http://www.w3.org/1999/xlink" width="3308.08" height="3298.14"
     viewBox="0 0 3308.08 3298.14">
    <defs>
        <clipPath id="clip-0">
            <path clip-rule="nonzero" d="M 155 318 L 2288 318 L 2288 2264 L 155 2264 Z M 155 318 "/>
        </clipPath>
        <clipPath id="clip-1">
            <path clip-rule="evenodd"
                  d="M 1620.199219 828.738281 L 1619.179688 828.738281 C 1594.148438 828.160156 1574.28125 807.410156 1574.839844 782.378906 C 1578.011719 641.019531 1473.660156 565.808594 1383.359375 544.351562 C 1289.921875 522.160156 1157.910156 544.300781 1093.371094 679.800781 C 1082.609375 702.390625 1055.5 712 1032.921875 701.230469 C 1010.300781 690.449219 1000.71875 663.410156 1011.488281 640.78125 C 1093.640625 468.230469 1268.050781 423.730469 1404.328125 456.101562 C 1537.300781 487.679688 1669.601562 601.449219 1665.558594 784.378906 C 1664.988281 809.078125 1644.789062 828.738281 1620.199219 828.738281 Z M 1827.351562 1050.269531 C 1802.289062 1049.378906 1782.71875 1028.351562 1783.609375 1003.320312 C 1784.511719 978.289062 1805.761719 958.398438 1830.519531 959.601562 C 2049.339844 967.449219 2160.730469 1141.359375 2157.738281 1309.160156 C 2154.71875 1476.808594 2037.070312 1646.511719 1817.96875 1646.511719 C 1792.910156 1646.511719 1772.609375 1626.210938 1772.609375 1601.148438 C 1772.609375 1576.101562 1792.910156 1555.800781 1817.96875 1555.800781 C 1986.960938 1555.800781 2064.859375 1431.128906 2067.070312 1307.570312 C 2069.199219 1187.851562 1995.101562 1056.269531 1827.351562 1050.269531 Z M 362.382812 1387.300781 C 360.753906 1399.421875 354.332031 1410.359375 344.535156 1417.691406 C 224.28125 1507.289062 155.332031 1644.578125 155.332031 1794.289062 C 155.332031 2053.140625 365.890625 2263.730469 624.707031 2263.730469 C 883.527344 2263.730469 1094.109375 2053.140625 1094.109375 1794.289062 C 1094.109375 1688.390625 1059.691406 1588.441406 994.539062 1505.230469 C 987.011719 1495.609375 983.691406 1483.359375 985.304688 1471.269531 C 986.921875 1459.148438 993.34375 1448.210938 1003.148438 1440.890625 C 1064.480469 1395.191406 1114.269531 1334.609375 1147.050781 1265.789062 C 1156.460938 1246.019531 1178.660156 1235.859375 1199.761719 1241.5 C 1233.949219 1250.679688 1269.308594 1256 1304.898438 1257.261719 C 1329.300781 1258.121094 1348.628906 1278.148438 1348.628906 1302.578125 C 1348.628906 1561.71875 1559.179688 1772.308594 1818 1772.308594 C 2076.839844 1772.308594 2287.441406 1561.71875 2287.441406 1302.941406 C 2287.441406 1049 2088.769531 842.949219 1835.089844 833.878906 C 1810.71875 833.019531 1791.390625 812.988281 1791.390625 788.550781 C 1791.390625 529.328125 1580.789062 318.769531 1321.96875 318.769531 C 1141.890625 318.769531 975.429688 423.941406 897.933594 586.679688 C 888.53125 606.449219 866.335938 616.609375 845.207031 610.96875 C 805.441406 600.28125 764.335938 594.878906 722.941406 594.878906 C 464.121094 594.878906 253.578125 805.429688 253.578125 1064.289062 C 253.578125 1170.199219 287.988281 1270.140625 353.136719 1353.351562 C 360.675781 1362.960938 364 1375.210938 362.382812 1387.300781 Z M 523.601562 1219.851562 C 539.03125 1239.589844 535.550781 1268.101562 515.851562 1283.519531 C 507.550781 1290.039062 497.6875 1293.191406 487.933594 1293.191406 C 474.472656 1293.191406 461.128906 1287.230469 452.183594 1275.769531 C 370.878906 1171.890625 356.59375 1032.949219 414.953125 913.191406 C 472.816406 794.460938 590.8125 720.679688 722.941406 720.679688 C 747.996094 720.679688 768.300781 740.980469 768.300781 766.039062 C 768.300781 791.089844 747.996094 811.390625 722.941406 811.390625 C 624.328125 811.390625 539.660156 864.308594 496.492188 952.929688 C 453.457031 1041.25 463.886719 1143.539062 523.601562 1219.851562 Z M 371.785156 1794.238281 C 371.785156 1965.25 502.863281 2043.128906 624.644531 2043.128906 C 746.421875 2043.128906 877.5 1965.25 877.5 1794.238281 C 877.5 1769.179688 897.816406 1748.878906 922.859375 1748.878906 C 947.902344 1748.878906 968.21875 1769.179688 968.21875 1794.238281 C 968.246094 2017.199219 795.40625 2133.851562 624.644531 2133.851562 C 535.523438 2133.851562 452.066406 2103.75 389.710938 2049.011719 C 318.625 1986.691406 281.066406 1898.621094 281.066406 1794.238281 C 281.066406 1769.179688 301.382812 1748.878906 326.425781 1748.878906 C 351.46875 1748.878906 371.785156 1769.179688 371.785156 1794.238281 "/>
        </clipPath>
        <linearGradient id="linear-pattern-0" gradientUnits="userSpaceOnUse" x1="0.000000000000000014" y1="0"
                        x2="1.000003" y2="0" gradientTransform="matrix(2132.1, 0, 0, 2132.1, 155.333, 1291.25)">
            <stop offset="0" stop-color="rgb(41.567993%, 35.68573%, 65.881348%)" stop-opacity="1"/>
            <stop offset="0.015625" stop-color="rgb(41.438293%, 35.862732%, 66.00647%)" stop-opacity="1"/>
            <stop offset="0.03125" stop-color="rgb(41.181946%, 36.218262%, 66.25824%)" stop-opacity="1"/>
            <stop offset="0.046875" stop-color="rgb(40.924072%, 36.573792%, 66.508484%)" stop-opacity="1"/>
            <stop offset="0.0625" stop-color="rgb(40.666199%, 36.929321%, 66.760254%)" stop-opacity="1"/>
            <stop offset="0.078125" stop-color="rgb(40.409851%, 37.284851%, 67.012024%)" stop-opacity="1"/>
            <stop offset="0.09375" stop-color="rgb(40.151978%, 37.638855%, 67.262268%)" stop-opacity="1"/>
            <stop offset="0.109375" stop-color="rgb(39.894104%, 37.994385%, 67.514038%)" stop-opacity="1"/>
            <stop offset="0.125" stop-color="rgb(39.637756%, 38.349915%, 67.765808%)" stop-opacity="1"/>
            <stop offset="0.140625" stop-color="rgb(39.379883%, 38.705444%, 68.016052%)" stop-opacity="1"/>
            <stop offset="0.15625" stop-color="rgb(39.122009%, 39.060974%, 68.267822%)" stop-opacity="1"/>
            <stop offset="0.171875" stop-color="rgb(38.865662%, 39.416504%, 68.519592%)" stop-opacity="1"/>
            <stop offset="0.1875" stop-color="rgb(38.607788%, 39.772034%, 68.769836%)" stop-opacity="1"/>
            <stop offset="0.203125" stop-color="rgb(38.349915%, 40.127563%, 69.021606%)" stop-opacity="1"/>
            <stop offset="0.21875" stop-color="rgb(38.093567%, 40.483093%, 69.273376%)" stop-opacity="1"/>
            <stop offset="0.234375" stop-color="rgb(37.835693%, 40.838623%, 69.523621%)" stop-opacity="1"/>
            <stop offset="0.25" stop-color="rgb(37.57782%, 41.194153%, 69.775391%)" stop-opacity="1"/>
            <stop offset="0.265625" stop-color="rgb(37.321472%, 41.548157%, 70.025635%)" stop-opacity="1"/>
            <stop offset="0.28125" stop-color="rgb(37.063599%, 41.903687%, 70.277405%)" stop-opacity="1"/>
            <stop offset="0.296875" stop-color="rgb(36.805725%, 42.259216%, 70.529175%)" stop-opacity="1"/>
            <stop offset="0.3125" stop-color="rgb(36.549377%, 42.614746%, 70.779419%)" stop-opacity="1"/>
            <stop offset="0.328125" stop-color="rgb(36.291504%, 42.970276%, 71.031189%)" stop-opacity="1"/>
            <stop offset="0.34375" stop-color="rgb(36.03363%, 43.325806%, 71.282959%)" stop-opacity="1"/>
            <stop offset="0.359375" stop-color="rgb(35.777283%, 43.681335%, 71.533203%)" stop-opacity="1"/>
            <stop offset="0.375" stop-color="rgb(35.519409%, 44.036865%, 71.784973%)" stop-opacity="1"/>
            <stop offset="0.390625" stop-color="rgb(35.261536%, 44.392395%, 72.036743%)" stop-opacity="1"/>
            <stop offset="0.40625" stop-color="rgb(35.005188%, 44.747925%, 72.286987%)" stop-opacity="1"/>
            <stop offset="0.421875" stop-color="rgb(34.747314%, 45.103455%, 72.538757%)" stop-opacity="1"/>
            <stop offset="0.4375" stop-color="rgb(34.489441%, 45.457458%, 72.790527%)" stop-opacity="1"/>
            <stop offset="0.453125" stop-color="rgb(34.233093%, 45.812988%, 73.040771%)" stop-opacity="1"/>
            <stop offset="0.46875" stop-color="rgb(33.97522%, 46.168518%, 73.292542%)" stop-opacity="1"/>
            <stop offset="0.484375" stop-color="rgb(33.717346%, 46.524048%, 73.542786%)" stop-opacity="1"/>
            <stop offset="0.5" stop-color="rgb(33.460999%, 46.879578%, 73.794556%)" stop-opacity="1"/>
            <stop offset="0.515625" stop-color="rgb(33.203125%, 47.235107%, 74.046326%)" stop-opacity="1"/>
            <stop offset="0.53125" stop-color="rgb(32.945251%, 47.590637%, 74.29657%)" stop-opacity="1"/>
            <stop offset="0.546875" stop-color="rgb(32.688904%, 47.946167%, 74.54834%)" stop-opacity="1"/>
            <stop offset="0.5625" stop-color="rgb(32.43103%, 48.301697%, 74.80011%)" stop-opacity="1"/>
            <stop offset="0.578125" stop-color="rgb(32.173157%, 48.657227%, 75.050354%)" stop-opacity="1"/>
            <stop offset="0.59375" stop-color="rgb(31.916809%, 49.012756%, 75.302124%)" stop-opacity="1"/>
            <stop offset="0.609375" stop-color="rgb(31.658936%, 49.36676%, 75.553894%)" stop-opacity="1"/>
            <stop offset="0.625" stop-color="rgb(31.402588%, 49.72229%, 75.804138%)" stop-opacity="1"/>
            <stop offset="0.640625" stop-color="rgb(31.144714%, 50.07782%, 76.055908%)" stop-opacity="1"/>
            <stop offset="0.65625" stop-color="rgb(30.886841%, 50.43335%, 76.307678%)" stop-opacity="1"/>
            <stop offset="0.671875" stop-color="rgb(30.630493%, 50.788879%, 76.557922%)" stop-opacity="1"/>
            <stop offset="0.6875" stop-color="rgb(30.37262%, 51.144409%, 76.809692%)" stop-opacity="1"/>
            <stop offset="0.703125" stop-color="rgb(30.114746%, 51.499939%, 77.059937%)" stop-opacity="1"/>
            <stop offset="0.71875" stop-color="rgb(29.858398%, 51.855469%, 77.311707%)" stop-opacity="1"/>
            <stop offset="0.734375" stop-color="rgb(29.600525%, 52.210999%, 77.563477%)" stop-opacity="1"/>
            <stop offset="0.75" stop-color="rgb(29.342651%, 52.566528%, 77.813721%)" stop-opacity="1"/>
            <stop offset="0.765625" stop-color="rgb(29.086304%, 52.922058%, 78.065491%)" stop-opacity="1"/>
            <stop offset="0.78125" stop-color="rgb(28.82843%, 53.276062%, 78.317261%)" stop-opacity="1"/>
            <stop offset="0.796875" stop-color="rgb(28.570557%, 53.631592%, 78.567505%)" stop-opacity="1"/>
            <stop offset="0.8125" stop-color="rgb(28.314209%, 53.987122%, 78.819275%)" stop-opacity="1"/>
            <stop offset="0.828125" stop-color="rgb(28.056335%, 54.342651%, 79.071045%)" stop-opacity="1"/>
            <stop offset="0.84375" stop-color="rgb(27.798462%, 54.698181%, 79.321289%)" stop-opacity="1"/>
            <stop offset="0.859375" stop-color="rgb(27.542114%, 55.053711%, 79.573059%)" stop-opacity="1"/>
            <stop offset="0.875" stop-color="rgb(27.284241%, 55.409241%, 79.824829%)" stop-opacity="1"/>
            <stop offset="0.890625" stop-color="rgb(27.026367%, 55.764771%, 80.075073%)" stop-opacity="1"/>
            <stop offset="0.90625" stop-color="rgb(26.77002%, 56.1203%, 80.326843%)" stop-opacity="1"/>
            <stop offset="0.921875" stop-color="rgb(26.512146%, 56.47583%, 80.578613%)" stop-opacity="1"/>
            <stop offset="0.9375" stop-color="rgb(26.254272%, 56.83136%, 80.828857%)" stop-opacity="1"/>
            <stop offset="0.953125" stop-color="rgb(25.997925%, 57.18689%, 81.080627%)" stop-opacity="1"/>
            <stop offset="0.96875" stop-color="rgb(25.740051%, 57.540894%, 81.330872%)" stop-opacity="1"/>
            <stop offset="0.984375" stop-color="rgb(25.482178%, 57.896423%, 81.582642%)" stop-opacity="1"/>
            <stop offset="1" stop-color="rgb(25.22583%, 58.251953%, 81.834412%)" stop-opacity="1"/>
        </linearGradient>
        <clipPath id="clip-2">
            <path clip-rule="nonzero" d="M 2352 155 L 3282 155 L 3282 1080 L 2352 1080 Z M 2352 155 "/>
        </clipPath>
        <clipPath id="clip-3">
            <path clip-rule="evenodd"
                  d="M 2712.910156 795.011719 C 2712.910156 951.898438 2840.53125 1079.53125 2997.410156 1079.53125 C 3154.300781 1079.53125 3281.949219 951.878906 3281.949219 795.011719 C 3281.949219 638.140625 3154.300781 510.488281 2997.410156 510.488281 C 2988.011719 510.488281 2978.820312 510.949219 2969.699219 511.828125 C 2956.230469 513.261719 2943.050781 508.460938 2933.429688 498.988281 C 2923.871094 489.550781 2918.960938 476.328125 2920.089844 462.949219 C 2920.71875 455.308594 2921.058594 447.601562 2921.058594 439.761719 C 2921.058594 282.878906 2793.410156 155.230469 2636.53125 155.230469 C 2479.648438 155.230469 2352 282.878906 2352 439.761719 C 2352 596.628906 2479.648438 724.28125 2636.53125 724.28125 C 2645.910156 724.28125 2655.121094 723.820312 2664.269531 722.929688 L 2668.648438 722.71875 C 2680.5 722.71875 2691.949219 727.351562 2700.511719 735.769531 C 2710.070312 745.230469 2714.980469 758.441406 2713.828125 771.820312 C 2713.21875 779.460938 2712.910156 787.210938 2712.910156 795.011719 "/>
        </clipPath>
        <linearGradient id="linear-pattern-1" gradientUnits="userSpaceOnUse" x1="0.0671855" y1="0" x2="0.932908" y2="0"
                        gradientTransform="matrix(1074.19, 0, 0, 1074.19, 2279.83, 617.38)">
            <stop offset="0" stop-color="rgb(40.461731%, 37.213135%, 66.96167%)" stop-opacity="1"/>
            <stop offset="0.015625" stop-color="rgb(40.350342%, 37.367249%, 67.070007%)" stop-opacity="1"/>
            <stop offset="0.03125" stop-color="rgb(40.127563%, 37.675476%, 67.288208%)" stop-opacity="1"/>
            <stop offset="0.046875" stop-color="rgb(39.904785%, 37.982178%, 67.504883%)" stop-opacity="1"/>
            <stop offset="0.0625" stop-color="rgb(39.682007%, 38.290405%, 67.723083%)" stop-opacity="1"/>
            <stop offset="0.078125" stop-color="rgb(39.459229%, 38.598633%, 67.939758%)" stop-opacity="1"/>
            <stop offset="0.09375" stop-color="rgb(39.23645%, 38.905334%, 68.157959%)" stop-opacity="1"/>
            <stop offset="0.109375" stop-color="rgb(39.013672%, 39.213562%, 68.374634%)" stop-opacity="1"/>
            <stop offset="0.125" stop-color="rgb(38.790894%, 39.520264%, 68.592834%)" stop-opacity="1"/>
            <stop offset="0.140625" stop-color="rgb(38.568115%, 39.828491%, 68.809509%)" stop-opacity="1"/>
            <stop offset="0.15625" stop-color="rgb(38.345337%, 40.136719%, 69.02771%)" stop-opacity="1"/>
            <stop offset="0.171875" stop-color="rgb(38.122559%, 40.44342%, 69.244385%)" stop-opacity="1"/>
            <stop offset="0.1875" stop-color="rgb(37.89978%, 40.751648%, 69.462585%)" stop-opacity="1"/>
            <stop offset="0.203125" stop-color="rgb(37.677002%, 41.059875%, 69.680786%)" stop-opacity="1"/>
            <stop offset="0.21875" stop-color="rgb(37.454224%, 41.366577%, 69.897461%)" stop-opacity="1"/>
            <stop offset="0.234375" stop-color="rgb(37.231445%, 41.674805%, 70.115662%)" stop-opacity="1"/>
            <stop offset="0.25" stop-color="rgb(37.007141%, 41.983032%, 70.332336%)" stop-opacity="1"/>
            <stop offset="0.265625" stop-color="rgb(36.784363%, 42.289734%, 70.550537%)" stop-opacity="1"/>
            <stop offset="0.28125" stop-color="rgb(36.561584%, 42.597961%, 70.767212%)" stop-opacity="1"/>
            <stop offset="0.296875" stop-color="rgb(36.338806%, 42.904663%, 70.985413%)" stop-opacity="1"/>
            <stop offset="0.3125" stop-color="rgb(36.116028%, 43.212891%, 71.202087%)" stop-opacity="1"/>
            <stop offset="0.328125" stop-color="rgb(35.89325%, 43.521118%, 71.420288%)" stop-opacity="1"/>
            <stop offset="0.34375" stop-color="rgb(35.670471%, 43.82782%, 71.636963%)" stop-opacity="1"/>
            <stop offset="0.359375" stop-color="rgb(35.447693%, 44.136047%, 71.855164%)" stop-opacity="1"/>
            <stop offset="0.375" stop-color="rgb(35.224915%, 44.444275%, 72.071838%)" stop-opacity="1"/>
            <stop offset="0.390625" stop-color="rgb(35.002136%, 44.750977%, 72.290039%)" stop-opacity="1"/>
            <stop offset="0.40625" stop-color="rgb(34.779358%, 45.059204%, 72.50824%)" stop-opacity="1"/>
            <stop offset="0.421875" stop-color="rgb(34.55658%, 45.367432%, 72.724915%)" stop-opacity="1"/>
            <stop offset="0.4375" stop-color="rgb(34.333801%, 45.674133%, 72.943115%)" stop-opacity="1"/>
            <stop offset="0.453125" stop-color="rgb(34.111023%, 45.982361%, 73.15979%)" stop-opacity="1"/>
            <stop offset="0.46875" stop-color="rgb(33.888245%, 46.289062%, 73.377991%)" stop-opacity="1"/>
            <stop offset="0.484375" stop-color="rgb(33.665466%, 46.59729%, 73.594666%)" stop-opacity="1"/>
            <stop offset="0.5" stop-color="rgb(33.442688%, 46.905518%, 73.812866%)" stop-opacity="1"/>
            <stop offset="0.515625" stop-color="rgb(33.21991%, 47.212219%, 74.029541%)" stop-opacity="1"/>
            <stop offset="0.53125" stop-color="rgb(32.997131%, 47.520447%, 74.247742%)" stop-opacity="1"/>
            <stop offset="0.546875" stop-color="rgb(32.774353%, 47.828674%, 74.464417%)" stop-opacity="1"/>
            <stop offset="0.5625" stop-color="rgb(32.551575%, 48.135376%, 74.682617%)" stop-opacity="1"/>
            <stop offset="0.578125" stop-color="rgb(32.328796%, 48.443604%, 74.899292%)" stop-opacity="1"/>
            <stop offset="0.59375" stop-color="rgb(32.106018%, 48.750305%, 75.117493%)" stop-opacity="1"/>
            <stop offset="0.609375" stop-color="rgb(31.88324%, 49.058533%, 75.334167%)" stop-opacity="1"/>
            <stop offset="0.625" stop-color="rgb(31.660461%, 49.36676%, 75.552368%)" stop-opacity="1"/>
            <stop offset="0.640625" stop-color="rgb(31.437683%, 49.673462%, 75.770569%)" stop-opacity="1"/>
            <stop offset="0.65625" stop-color="rgb(31.214905%, 49.981689%, 75.987244%)" stop-opacity="1"/>
            <stop offset="0.671875" stop-color="rgb(30.992126%, 50.289917%, 76.205444%)" stop-opacity="1"/>
            <stop offset="0.6875" stop-color="rgb(30.769348%, 50.596619%, 76.422119%)" stop-opacity="1"/>
            <stop offset="0.703125" stop-color="rgb(30.54657%, 50.904846%, 76.64032%)" stop-opacity="1"/>
            <stop offset="0.71875" stop-color="rgb(30.323792%, 51.213074%, 76.856995%)" stop-opacity="1"/>
            <stop offset="0.734375" stop-color="rgb(30.101013%, 51.519775%, 77.075195%)" stop-opacity="1"/>
            <stop offset="0.75" stop-color="rgb(29.878235%, 51.828003%, 77.29187%)" stop-opacity="1"/>
            <stop offset="0.765625" stop-color="rgb(29.655457%, 52.134705%, 77.510071%)" stop-opacity="1"/>
            <stop offset="0.78125" stop-color="rgb(29.432678%, 52.442932%, 77.726746%)" stop-opacity="1"/>
            <stop offset="0.796875" stop-color="rgb(29.2099%, 52.75116%, 77.944946%)" stop-opacity="1"/>
            <stop offset="0.8125" stop-color="rgb(28.987122%, 53.057861%, 78.161621%)" stop-opacity="1"/>
            <stop offset="0.828125" stop-color="rgb(28.764343%, 53.366089%, 78.379822%)" stop-opacity="1"/>
            <stop offset="0.84375" stop-color="rgb(28.541565%, 53.674316%, 78.596497%)" stop-opacity="1"/>
            <stop offset="0.859375" stop-color="rgb(28.318787%, 53.981018%, 78.814697%)" stop-opacity="1"/>
            <stop offset="0.875" stop-color="rgb(28.096008%, 54.289246%, 79.032898%)" stop-opacity="1"/>
            <stop offset="0.890625" stop-color="rgb(27.87323%, 54.597473%, 79.249573%)" stop-opacity="1"/>
            <stop offset="0.90625" stop-color="rgb(27.650452%, 54.904175%, 79.467773%)" stop-opacity="1"/>
            <stop offset="0.921875" stop-color="rgb(27.427673%, 55.212402%, 79.684448%)" stop-opacity="1"/>
            <stop offset="0.9375" stop-color="rgb(27.204895%, 55.519104%, 79.902649%)" stop-opacity="1"/>
            <stop offset="0.953125" stop-color="rgb(26.982117%, 55.827332%, 80.119324%)" stop-opacity="1"/>
            <stop offset="0.96875" stop-color="rgb(26.759338%, 56.135559%, 80.337524%)" stop-opacity="1"/>
            <stop offset="0.984375" stop-color="rgb(26.53656%, 56.442261%, 80.554199%)" stop-opacity="1"/>
            <stop offset="1" stop-color="rgb(26.313782%, 56.750488%, 80.7724%)" stop-opacity="1"/>
        </linearGradient>
        <clipPath id="clip-4">
            <path clip-rule="nonzero" d="M 1941 2031 L 3200 2031 L 3200 3273 L 1941 3273 Z M 1941 2031 "/>
        </clipPath>
        <clipPath id="clip-5">
            <path clip-rule="evenodd"
                  d="M 3028.429688 2411.628906 C 3003.398438 2411.628906 2983.101562 2391.300781 2983.101562 2366.269531 C 2983.101562 2301.320312 2930.230469 2248.441406 2865.269531 2248.441406 C 2840.238281 2248.441406 2819.910156 2228.140625 2819.910156 2203.078125 C 2819.910156 2178.050781 2840.238281 2157.75 2865.269531 2157.75 C 2980.261719 2157.75 3073.789062 2251.28125 3073.789062 2366.269531 C 3073.769531 2391.351562 3053.46875 2411.628906 3028.429688 2411.628906 Z M 2158.03125 2536.210938 C 2158 2561.269531 2137.699219 2581.570312 2112.671875 2581.570312 C 2087.609375 2581.570312 2067.308594 2561.269531 2067.308594 2536.210938 C 2067.308594 2421.238281 2160.859375 2327.691406 2275.828125 2327.691406 C 2300.878906 2327.691406 2321.191406 2347.988281 2321.191406 2373.050781 C 2321.191406 2398.101562 2300.878906 2418.410156 2275.828125 2418.410156 C 2210.871094 2418.410156 2158.03125 2471.28125 2158.03125 2536.210938 Z M 2479.859375 2937.648438 C 2479.859375 3017.519531 2539.058594 3053.269531 2597.679688 3053.269531 C 2656.308594 3053.269531 2715.480469 3017.519531 2715.480469 2937.648438 C 2715.480469 2912.589844 2735.789062 2892.289062 2760.839844 2892.289062 C 2785.898438 2892.289062 2806.199219 2912.589844 2806.199219 2937.648438 C 2806.179688 3073.101562 2701.269531 3143.988281 2597.679688 3143.988281 C 2543.921875 3143.988281 2493.460938 3125.679688 2455.589844 3092.480469 C 2425.28125 3065.898438 2389.160156 3017.46875 2389.160156 2937.648438 C 2389.160156 2912.589844 2409.46875 2892.289062 2434.5 2892.289062 C 2459.550781 2892.289062 2479.859375 2912.589844 2479.859375 2937.648438 Z M 2865.300781 2031.941406 C 2725.308594 2031.941406 2599.070312 2120.238281 2551.089844 2251.730469 C 2546.121094 2265.328125 2534.941406 2275.761719 2521.039062 2279.75 C 2507.039062 2283.769531 2492.121094 2280.878906 2480.671875 2272.011719 C 2421.628906 2226.121094 2350.808594 2201.898438 2275.828125 2201.898438 C 2091.46875 2201.898438 1941.46875 2351.898438 1941.46875 2536.261719 C 1941.46875 2700.339844 2063.628906 2842.488281 2225.609375 2866.859375 C 2248.960938 2870.378906 2265.71875 2891.210938 2264.109375 2914.769531 C 2263.609375 2922.308594 2263.300781 2929.949219 2263.300781 2937.648438 C 2263.300781 3122 2413.300781 3272.03125 2597.679688 3272.03125 C 2782.039062 3272.03125 2932.039062 3122.03125 2932.039062 2937.648438 C 2932.039062 2876.691406 2915.46875 2817.011719 2884.128906 2765.058594 C 2876.308594 2752.109375 2875.488281 2736.089844 2881.871094 2722.378906 C 2888.308594 2708.671875 2901.148438 2699.078125 2916.148438 2696.789062 C 3077.789062 2672.179688 3199.679688 2530.109375 3199.679688 2366.300781 C 3199.679688 2181.941406 3049.679688 2031.941406 2865.300781 2031.941406 "/>
        </clipPath>
        <linearGradient id="linear-pattern-2" gradientUnits="userSpaceOnUse" x1="0.072436" y1="0" x2="0.927646" y2="0"
                        gradientTransform="matrix(1471.23, 0, 0, 1471.23, 1834.9, 2651.99)">
            <stop offset="0" stop-color="rgb(40.374756%, 37.333679%, 67.045593%)" stop-opacity="1"/>
            <stop offset="0.015625" stop-color="rgb(40.264893%, 37.484741%, 67.152405%)" stop-opacity="1"/>
            <stop offset="0.03125" stop-color="rgb(40.045166%, 37.788391%, 67.367554%)" stop-opacity="1"/>
            <stop offset="0.046875" stop-color="rgb(39.823914%, 38.092041%, 67.582703%)" stop-opacity="1"/>
            <stop offset="0.0625" stop-color="rgb(39.604187%, 38.395691%, 67.797852%)" stop-opacity="1"/>
            <stop offset="0.078125" stop-color="rgb(39.38446%, 38.700867%, 68.013%)" stop-opacity="1"/>
            <stop offset="0.09375" stop-color="rgb(39.164734%, 39.004517%, 68.226624%)" stop-opacity="1"/>
            <stop offset="0.109375" stop-color="rgb(38.943481%, 39.308167%, 68.441772%)" stop-opacity="1"/>
            <stop offset="0.125" stop-color="rgb(38.723755%, 39.611816%, 68.656921%)" stop-opacity="1"/>
            <stop offset="0.140625" stop-color="rgb(38.504028%, 39.915466%, 68.87207%)" stop-opacity="1"/>
            <stop offset="0.15625" stop-color="rgb(38.284302%, 40.219116%, 69.087219%)" stop-opacity="1"/>
            <stop offset="0.171875" stop-color="rgb(38.063049%, 40.524292%, 69.300842%)" stop-opacity="1"/>
            <stop offset="0.1875" stop-color="rgb(37.843323%, 40.827942%, 69.515991%)" stop-opacity="1"/>
            <stop offset="0.203125" stop-color="rgb(37.623596%, 41.131592%, 69.73114%)" stop-opacity="1"/>
            <stop offset="0.21875" stop-color="rgb(37.40387%, 41.435242%, 69.946289%)" stop-opacity="1"/>
            <stop offset="0.234375" stop-color="rgb(37.182617%, 41.738892%, 70.161438%)" stop-opacity="1"/>
            <stop offset="0.25" stop-color="rgb(36.962891%, 42.044067%, 70.376587%)" stop-opacity="1"/>
            <stop offset="0.265625" stop-color="rgb(36.743164%, 42.347717%, 70.59021%)" stop-opacity="1"/>
            <stop offset="0.28125" stop-color="rgb(36.523438%, 42.651367%, 70.805359%)" stop-opacity="1"/>
            <stop offset="0.296875" stop-color="rgb(36.302185%, 42.955017%, 71.020508%)" stop-opacity="1"/>
            <stop offset="0.3125" stop-color="rgb(36.082458%, 43.258667%, 71.235657%)" stop-opacity="1"/>
            <stop offset="0.328125" stop-color="rgb(35.862732%, 43.563843%, 71.450806%)" stop-opacity="1"/>
            <stop offset="0.34375" stop-color="rgb(35.643005%, 43.867493%, 71.664429%)" stop-opacity="1"/>
            <stop offset="0.359375" stop-color="rgb(35.423279%, 44.171143%, 71.879578%)" stop-opacity="1"/>
            <stop offset="0.375" stop-color="rgb(35.202026%, 44.474792%, 72.094727%)" stop-opacity="1"/>
            <stop offset="0.390625" stop-color="rgb(34.9823%, 44.778442%, 72.309875%)" stop-opacity="1"/>
            <stop offset="0.40625" stop-color="rgb(34.762573%, 45.082092%, 72.525024%)" stop-opacity="1"/>
            <stop offset="0.421875" stop-color="rgb(34.542847%, 45.387268%, 72.738647%)" stop-opacity="1"/>
            <stop offset="0.4375" stop-color="rgb(34.321594%, 45.690918%, 72.953796%)" stop-opacity="1"/>
            <stop offset="0.453125" stop-color="rgb(34.101868%, 45.994568%, 73.168945%)" stop-opacity="1"/>
            <stop offset="0.46875" stop-color="rgb(33.882141%, 46.298218%, 73.384094%)" stop-opacity="1"/>
            <stop offset="0.484375" stop-color="rgb(33.662415%, 46.601868%, 73.599243%)" stop-opacity="1"/>
            <stop offset="0.5" stop-color="rgb(33.441162%, 46.907043%, 73.812866%)" stop-opacity="1"/>
            <stop offset="0.515625" stop-color="rgb(33.221436%, 47.210693%, 74.028015%)" stop-opacity="1"/>
            <stop offset="0.53125" stop-color="rgb(33.001709%, 47.514343%, 74.243164%)" stop-opacity="1"/>
            <stop offset="0.546875" stop-color="rgb(32.781982%, 47.817993%, 74.458313%)" stop-opacity="1"/>
            <stop offset="0.5625" stop-color="rgb(32.56073%, 48.121643%, 74.673462%)" stop-opacity="1"/>
            <stop offset="0.578125" stop-color="rgb(32.341003%, 48.426819%, 74.887085%)" stop-opacity="1"/>
            <stop offset="0.59375" stop-color="rgb(32.121277%, 48.730469%, 75.102234%)" stop-opacity="1"/>
            <stop offset="0.609375" stop-color="rgb(31.90155%, 49.034119%, 75.317383%)" stop-opacity="1"/>
            <stop offset="0.625" stop-color="rgb(31.680298%, 49.337769%, 75.532532%)" stop-opacity="1"/>
            <stop offset="0.640625" stop-color="rgb(31.460571%, 49.641418%, 75.747681%)" stop-opacity="1"/>
            <stop offset="0.65625" stop-color="rgb(31.240845%, 49.945068%, 75.961304%)" stop-opacity="1"/>
            <stop offset="0.671875" stop-color="rgb(31.021118%, 50.250244%, 76.176453%)" stop-opacity="1"/>
            <stop offset="0.6875" stop-color="rgb(30.801392%, 50.553894%, 76.391602%)" stop-opacity="1"/>
            <stop offset="0.703125" stop-color="rgb(30.580139%, 50.857544%, 76.60675%)" stop-opacity="1"/>
            <stop offset="0.71875" stop-color="rgb(30.360413%, 51.161194%, 76.821899%)" stop-opacity="1"/>
            <stop offset="0.734375" stop-color="rgb(30.140686%, 51.464844%, 77.035522%)" stop-opacity="1"/>
            <stop offset="0.75" stop-color="rgb(29.920959%, 51.77002%, 77.250671%)" stop-opacity="1"/>
            <stop offset="0.765625" stop-color="rgb(29.699707%, 52.073669%, 77.46582%)" stop-opacity="1"/>
            <stop offset="0.78125" stop-color="rgb(29.47998%, 52.377319%, 77.680969%)" stop-opacity="1"/>
            <stop offset="0.796875" stop-color="rgb(29.260254%, 52.680969%, 77.896118%)" stop-opacity="1"/>
            <stop offset="0.8125" stop-color="rgb(29.040527%, 52.984619%, 78.109741%)" stop-opacity="1"/>
            <stop offset="0.828125" stop-color="rgb(28.819275%, 53.289795%, 78.32489%)" stop-opacity="1"/>
            <stop offset="0.84375" stop-color="rgb(28.599548%, 53.593445%, 78.540039%)" stop-opacity="1"/>
            <stop offset="0.859375" stop-color="rgb(28.379822%, 53.897095%, 78.755188%)" stop-opacity="1"/>
            <stop offset="0.875" stop-color="rgb(28.160095%, 54.200745%, 78.970337%)" stop-opacity="1"/>
            <stop offset="0.890625" stop-color="rgb(27.938843%, 54.504395%, 79.18396%)" stop-opacity="1"/>
            <stop offset="0.90625" stop-color="rgb(27.719116%, 54.808044%, 79.399109%)" stop-opacity="1"/>
            <stop offset="0.921875" stop-color="rgb(27.49939%, 55.11322%, 79.614258%)" stop-opacity="1"/>
            <stop offset="0.9375" stop-color="rgb(27.279663%, 55.41687%, 79.829407%)" stop-opacity="1"/>
            <stop offset="0.953125" stop-color="rgb(27.058411%, 55.72052%, 80.044556%)" stop-opacity="1"/>
            <stop offset="0.96875" stop-color="rgb(26.838684%, 56.02417%, 80.259705%)" stop-opacity="1"/>
            <stop offset="0.984375" stop-color="rgb(26.618958%, 56.32782%, 80.473328%)" stop-opacity="1"/>
            <stop offset="1" stop-color="rgb(26.399231%, 56.632996%, 80.688477%)" stop-opacity="1"/>
        </linearGradient>
        <clipPath id="clip-6">
            <path clip-rule="nonzero" d="M 0 0 L 3308.078125 0 L 3308.078125 3298.140625 L 0 3298.140625 Z M 0 0 "/>
        </clipPath>
    </defs>
    <g clip-path="url(#clip-0)">
        <g clip-path="url(#clip-1)">
            <path fill-rule="nonzero" fill="url(#linear-pattern-0)"
                  d="M 155.332031 318.769531 L 155.332031 2263.730469 L 2287.441406 2263.730469 L 2287.441406 318.769531 Z M 155.332031 318.769531 "/>
        </g>
    </g>
    <g clip-path="url(#clip-2)">
        <g clip-path="url(#clip-3)">
            <path fill-rule="nonzero" fill="url(#linear-pattern-1)"
                  d="M 2352 155.230469 L 2352 1079.53125 L 3281.949219 1079.53125 L 3281.949219 155.230469 Z M 2352 155.230469 "/>
        </g>
    </g>
    <g clip-path="url(#clip-4)">
        <g clip-path="url(#clip-5)">
            <path fill-rule="nonzero" fill="url(#linear-pattern-2)"
                  d="M 1941.46875 2031.941406 L 1941.46875 3272.03125 L 3199.679688 3272.03125 L 3199.679688 2031.941406 Z M 1941.46875 2031.941406 "/>
        </g>
    </g>
    <g clip-path="url(#clip-6)">
        <path fill-rule="evenodd" fill="rgb(21.166992%, 4.315186%, 29.417419%)" fill-opacity="1"
              d="M 658.394531 530.320312 C 399.5625 530.320312 189.019531 740.878906 189.019531 999.730469 C 189.019531 1105.648438 223.4375 1205.578125 288.578125 1288.789062 C 296.117188 1298.398438 299.4375 1310.648438 297.824219 1322.75 C 296.195312 1334.871094 289.785156 1345.808594 279.976562 1353.128906 C 159.71875 1442.730469 90.773438 1580.019531 90.773438 1729.730469 C 90.773438 1988.578125 301.328125 2199.171875 560.148438 2199.171875 C 818.980469 2199.171875 1029.558594 1988.578125 1029.558594 1729.730469 C 1029.558594 1623.828125 995.140625 1523.890625 929.992188 1440.679688 C 922.453125 1431.070312 919.128906 1418.808594 920.746094 1406.71875 C 922.375 1394.601562 928.796875 1383.660156 938.59375 1376.328125 C 999.933594 1330.640625 1049.71875 1270.050781 1082.488281 1201.230469 C 1091.898438 1181.46875 1114.101562 1171.320312 1135.210938 1176.941406 C 1169.398438 1186.121094 1204.769531 1191.441406 1240.339844 1192.710938 C 1264.761719 1193.558594 1284.070312 1213.601562 1284.070312 1238.03125 C 1284.070312 1497.179688 1494.628906 1707.75 1753.441406 1707.75 C 2012.308594 1707.75 2222.878906 1497.179688 2222.878906 1238.378906 C 2222.878906 984.441406 2024.199219 778.398438 1770.53125 769.328125 C 1746.160156 768.460938 1726.828125 748.429688 1726.828125 724 C 1726.828125 464.78125 1516.25 254.21875 1257.429688 254.21875 C 1077.328125 254.21875 910.882812 359.390625 833.375 522.128906 C 823.984375 541.910156 801.789062 552.058594 780.644531 546.410156 C 740.894531 535.71875 699.773438 530.320312 658.394531 530.320312 Z M 1555.660156 764.191406 C 1580.238281 764.191406 1600.441406 744.519531 1601 719.828125 C 1605.058594 536.898438 1472.75 423.128906 1339.78125 391.539062 C 1203.488281 359.171875 1029.089844 403.679688 946.933594 576.230469 C 936.175781 598.851562 945.75 625.898438 968.378906 636.679688 C 990.9375 647.441406 1018.039062 637.839844 1028.808594 615.238281 C 1093.351562 479.738281 1225.371094 457.601562 1318.808594 479.789062 C 1409.109375 501.261719 1513.460938 576.46875 1510.300781 717.828125 C 1509.71875 742.859375 1529.589844 763.609375 1554.621094 764.191406 C 1554.988281 764.191406 1555.328125 764.191406 1555.660156 764.191406 Z M 423.371094 1228.640625 C 433.140625 1228.640625 443.003906 1225.488281 451.292969 1218.96875 C 471.003906 1203.539062 474.484375 1175.050781 459.039062 1155.308594 C 399.324219 1078.988281 388.910156 976.691406 431.933594 888.390625 C 475.101562 799.75 559.78125 746.839844 658.394531 746.839844 C 683.449219 746.839844 703.753906 726.53125 703.753906 701.480469 C 703.753906 676.441406 683.449219 656.128906 658.394531 656.128906 C 526.265625 656.128906 408.253906 729.898438 350.394531 848.648438 C 292.03125 968.398438 306.320312 1107.328125 387.636719 1211.230469 C 396.582031 1222.671875 409.910156 1228.640625 423.371094 1228.640625 Z M 1753.410156 1581.960938 C 1972.519531 1581.960938 2090.179688 1412.261719 2093.199219 1244.601562 C 2096.171875 1076.800781 1984.78125 902.878906 1765.988281 895.058594 C 1741.199219 893.851562 1719.949219 913.75 1719.050781 938.78125 C 1718.191406 963.808594 1737.730469 984.828125 1762.789062 985.730469 C 1930.539062 991.730469 2004.660156 1123.289062 2002.511719 1243.011719 C 2000.300781 1366.570312 1922.429688 1491.238281 1753.410156 1491.238281 C 1728.351562 1491.238281 1708.050781 1511.539062 1708.050781 1536.601562 C 1708.050781 1561.660156 1728.351562 1581.960938 1753.410156 1581.960938 Z M 560.097656 2069.289062 C 730.847656 2069.289062 903.699219 1952.648438 903.660156 1729.679688 C 903.660156 1704.621094 883.355469 1684.320312 858.300781 1684.320312 C 833.253906 1684.320312 812.953125 1704.621094 812.953125 1729.679688 C 812.953125 1900.691406 681.875 1978.570312 560.097656 1978.570312 C 438.304688 1978.570312 307.238281 1900.691406 307.238281 1729.679688 C 307.238281 1704.621094 286.921875 1684.320312 261.878906 1684.320312 C 236.820312 1684.320312 216.519531 1704.621094 216.519531 1729.679688 C 216.519531 1834.058594 254.078125 1922.121094 325.152344 1984.449219 C 387.519531 2039.191406 470.976562 2069.289062 560.097656 2069.289062 Z M 2211.289062 2137.371094 C 2026.910156 2137.371094 1876.910156 2287.339844 1876.910156 2471.699219 C 1876.910156 2635.78125 1999.070312 2777.929688 2161.070312 2802.300781 C 2184.421875 2805.820312 2201.148438 2826.679688 2199.550781 2850.210938 C 2199.050781 2857.769531 2198.761719 2865.421875 2198.761719 2873.089844 C 2198.761719 3057.46875 2348.769531 3207.46875 2533.121094 3207.46875 C 2717.511719 3207.46875 2867.480469 3057.46875 2867.480469 2873.089844 C 2867.480469 2812.148438 2850.910156 2752.449219 2819.570312 2700.5 C 2811.738281 2687.550781 2810.929688 2671.53125 2817.339844 2657.820312 C 2823.75 2644.109375 2836.589844 2634.519531 2851.589844 2632.230469 C 3013.230469 2607.648438 3135.121094 2465.550781 3135.121094 2301.761719 C 3135.121094 2117.378906 2985.121094 1967.378906 2800.769531 1967.378906 C 2660.75 1967.378906 2534.511719 2055.679688 2486.53125 2187.171875 C 2481.558594 2200.800781 2470.398438 2211.199219 2456.480469 2215.191406 C 2442.511719 2219.210938 2427.558594 2216.320312 2416.109375 2207.441406 C 2357.070312 2161.558594 2286.25 2137.371094 2211.289062 2137.371094 Z M 2533.121094 3298.140625 C 2767.488281 3298.140625 2958.171875 3107.480469 2958.148438 2873.089844 C 2958.148438 2816.199219 2946.800781 2760.199219 2924.980469 2708.25 C 3100.109375 2654.378906 3225.769531 2489.25 3225.769531 2301.738281 C 3225.769531 2067.371094 3035.109375 1876.691406 2800.710938 1876.691406 C 2642.039062 1876.691406 2497.171875 1965.988281 2424.460938 2103.851562 C 2360.03125 2066.289062 2287.328125 2046.671875 2211.289062 2046.671875 C 1976.929688 2046.671875 1786.238281 2237.328125 1786.238281 2471.671875 C 1786.238281 2666.769531 1922.089844 2837.421875 2108.199219 2884.089844 C 2114.078125 3113.390625 2302.429688 3298.140625 2533.121094 3298.140625 Z M 2963.898438 2347.070312 C 2938.839844 2347.070312 2918.539062 2326.769531 2918.539062 2301.710938 C 2918.539062 2236.761719 2865.671875 2183.910156 2800.710938 2183.910156 C 2775.679688 2183.910156 2755.378906 2163.578125 2755.378906 2138.550781 C 2755.378906 2113.488281 2775.679688 2093.191406 2800.710938 2093.191406 C 2915.730469 2093.191406 3009.230469 2186.75 3009.230469 2301.710938 C 3009.210938 2326.789062 2988.929688 2347.070312 2963.898438 2347.070312 Z M 2048.109375 2517.03125 C 2073.140625 2517.03125 2093.441406 2496.730469 2093.46875 2471.671875 C 2093.46875 2406.71875 2146.339844 2353.851562 2211.289062 2353.851562 C 2236.320312 2353.851562 2256.648438 2333.539062 2256.648438 2308.488281 C 2256.648438 2283.460938 2236.320312 2263.148438 2211.289062 2263.148438 C 2096.300781 2263.148438 2002.769531 2356.691406 2002.769531 2471.671875 C 2002.769531 2496.730469 2023.078125 2517.03125 2048.109375 2517.03125 Z M 2533.121094 3079.429688 C 2479.359375 3079.429688 2428.898438 3061.121094 2391.03125 3027.921875 C 2360.71875 3001.339844 2324.601562 2952.929688 2324.601562 2873.089844 C 2324.601562 2848.03125 2344.898438 2827.730469 2369.960938 2827.730469 C 2395.019531 2827.730469 2415.320312 2848.03125 2415.320312 2873.089844 C 2415.320312 2952.988281 2474.5 2988.730469 2533.121094 2988.730469 C 2591.75 2988.730469 2650.949219 2952.988281 2650.949219 2873.089844 C 2650.949219 2848.03125 2671.230469 2827.730469 2696.28125 2827.730469 C 2721.339844 2827.730469 2741.640625 2848.03125 2741.640625 2873.089844 C 2741.621094 3008.539062 2636.710938 3079.429688 2533.121094 3079.429688 Z M 2604.089844 658.160156 C 2615.960938 658.160156 2627.390625 662.808594 2635.949219 671.21875 C 2645.511719 680.679688 2650.421875 693.890625 2649.289062 707.269531 C 2648.660156 714.921875 2648.351562 722.648438 2648.351562 730.460938 C 2648.351562 887.351562 2776 1014.980469 2932.851562 1014.980469 C 3089.738281 1014.980469 3217.390625 887.339844 3217.390625 730.460938 C 3217.390625 573.578125 3089.738281 445.929688 2932.851562 445.929688 C 2923.480469 445.929688 2914.261719 446.410156 2905.148438 447.289062 C 2891.671875 448.71875 2878.488281 443.910156 2868.898438 434.441406 C 2859.339844 425 2854.429688 411.789062 2855.558594 398.410156 C 2856.160156 390.75 2856.5 383.039062 2856.5 375.210938 C 2856.5 218.320312 2728.851562 90.679688 2571.96875 90.679688 C 2415.109375 90.679688 2287.460938 218.328125 2287.460938 375.210938 C 2287.460938 532.078125 2415.109375 659.730469 2571.96875 659.730469 C 2581.351562 659.730469 2590.558594 659.269531 2599.699219 658.378906 C 2601.179688 658.238281 2602.671875 658.160156 2604.089844 658.160156 Z M 2932.878906 1105.71875 C 3139.769531 1105.71875 3308.109375 937.371094 3308.078125 730.488281 C 3308.078125 528.199219 3147.210938 362.78125 2946.671875 355.488281 C 2936.351562 157.738281 2772.238281 0 2571.941406 0 C 2365.050781 0 2196.738281 168.320312 2196.738281 375.230469 C 2196.738281 577.519531 2357.621094 742.941406 2558.148438 750.230469 C 2568.480469 947.980469 2732.578125 1105.71875 2932.878906 1105.71875 Z M 560.121094 2289.839844 C 251.292969 2289.839844 0 2038.558594 0 1729.699219 C 0 1568.621094 70.652344 1414.28125 190.988281 1308.5 C 130.199219 1216.949219 98.257812 1111.078125 98.257812 999.710938 C 98.257812 690.859375 349.527344 439.589844 658.367188 439.589844 C 695.414062 439.589844 732.238281 443.238281 768.328125 450.421875 C 866.679688 274.960938 1054.78125 163.488281 1257.359375 163.488281 C 1552.121094 163.488281 1794.460938 392.359375 1815.890625 681.730469 C 2098.140625 712.699219 2313.519531 949.570312 2313.519531 1238.371094 C 2313.519531 1547.191406 2062.238281 1798.46875 1753.378906 1798.46875 C 1458.628906 1798.46875 1216.320312 1569.589844 1194.878906 1280.269531 C 1178.96875 1278.480469 1163.121094 1276.019531 1147.429688 1272.910156 C 1116.238281 1328.550781 1075.53125 1378.800781 1027.539062 1420.941406 C 1088.328125 1512.488281 1120.269531 1618.378906 1120.269531 1729.730469 C 1120.238281 2038.589844 868.964844 2289.839844 560.121094 2289.839844 "/>
    </g>
</svg>
