<?xml version="1.0" encoding="UTF-8"?>
<svg xmlns="http://www.w3.org/2000/svg" xmlns:xlink="http://www.w3.org/1999/xlink" width="3001" height="3000"
     viewBox="0 0 3001 3000">
    <path fill-rule="evenodd" fill="rgb(29.417419%, 38.426208%, 45.483398%)" fill-opacity="1"
          d="M 2411.28125 2999.980469 L 590.6875 2999.980469 C 265.546875 2999.980469 1 2735.4375 1 2410.265625 L 1 589.699219 C 1 264.558594 265.527344 0.0117188 590.6875 0.0117188 L 2411.28125 0.0117188 C 2736.441406 0.0117188 3001 264.539062 3001 589.699219 L 3001 2410.292969 C 3000.96875 2735.453125 2736.429688 2999.980469 2411.28125 2999.980469 Z M 590.6875 68.710938 C 303.429688 68.710938 69.703125 302.410156 69.703125 589.699219 L 69.703125 2410.292969 C 69.703125 2697.578125 303.402344 2931.28125 590.6875 2931.28125 L 2411.28125 2931.28125 C 2698.570312 2931.28125 2932.269531 2697.578125 2932.269531 2410.292969 L 2932.269531 589.699219 C 2932.269531 302.441406 2698.570312 68.710938 2411.28125 68.710938 L 590.6875 68.710938 "/>
    <path fill-rule="evenodd" fill="rgb(29.417419%, 38.426208%, 45.483398%)" fill-opacity="1"
          d="M 2966.621094 856.648438 L 2312.238281 856.648438 C 2150.71875 856.648438 2019.351562 725.261719 2019.351562 563.761719 L 2019.351562 34.359375 C 2019.351562 -10.851562 2088.050781 -10.851562 2088.050781 34.359375 L 2088.050781 563.738281 C 2088.050781 687.359375 2188.628906 787.929688 2312.21875 787.929688 L 2966.601562 787.929688 C 3011.828125 787.929688 3011.820312 856.648438 2966.621094 856.648438 "/>
    <path fill-rule="evenodd" fill="rgb(88.671875%, 44.700623%, 35.276794%)" fill-opacity="1"
          d="M 2315.03125 2569.207031 L 686.945312 2569.207031 C 641.730469 2569.207031 641.730469 2500.507812 686.945312 2500.507812 L 2315.03125 2500.507812 C 2360.238281 2500.507812 2360.25 2569.207031 2315.03125 2569.207031 "/>
    <path fill-rule="evenodd" fill="rgb(88.671875%, 44.700623%, 35.276794%)" fill-opacity="1"
          d="M 701.304688 966.71875 C 656.082031 966.71875 656.082031 898.019531 701.304688 898.019531 C 840.710938 898.019531 840.710938 686.179688 701.304688 686.179688 C 642.910156 686.179688 595.386719 733.699219 595.386719 792.101562 C 595.386719 837.320312 526.683594 837.320312 526.683594 792.101562 C 526.683594 695.820312 605.023438 617.480469 701.304688 617.480469 C 797.589844 617.480469 875.925781 695.820312 875.925781 792.101562 C 875.925781 888.378906 797.605469 966.71875 701.304688 966.71875 "/>
    <path fill-rule="evenodd" fill="rgb(88.671875%, 44.700623%, 35.276794%)" fill-opacity="1"
          d="M 701.304688 1247.25 C 541.417969 1247.25 481.21875 1038.28125 561.035156 1038.28125 C 579.996094 1038.28125 595.386719 1053.671875 595.386719 1072.628906 C 595.386719 1212.03125 807.226562 1212.03125 807.226562 1072.628906 C 807.226562 1014.230469 759.703125 966.710938 701.304688 966.710938 C 656.082031 966.710938 656.082031 898.011719 701.304688 898.011719 C 797.589844 898.011719 875.925781 976.351562 875.925781 1072.628906 C 875.925781 1168.910156 797.605469 1247.25 701.304688 1247.25 "/>
    <path fill-rule="evenodd" fill="rgb(88.671875%, 44.700623%, 35.276794%)" fill-opacity="1"
          d="M 1216.78125 1247.25 C 1091.28125 1247.25 989.1875 1145.148438 989.1875 1019.648438 L 989.1875 845.101562 C 989.1875 719.601562 1091.28125 617.480469 1216.78125 617.480469 C 1342.289062 617.480469 1444.410156 719.570312 1444.410156 845.101562 L 1444.410156 1019.648438 C 1444.398438 1145.148438 1342.308594 1247.25 1216.78125 1247.25 Z M 1216.78125 686.191406 C 1129.171875 686.191406 1057.890625 757.46875 1057.890625 845.109375 L 1057.890625 1019.660156 C 1057.890625 1107.28125 1129.171875 1178.558594 1216.78125 1178.558594 C 1304.398438 1178.558594 1375.710938 1107.28125 1375.710938 1019.660156 L 1375.710938 845.109375 C 1375.699219 757.46875 1304.429688 686.191406 1216.78125 686.191406 "/>
    <path fill-rule="evenodd" fill="rgb(88.671875%, 44.700623%, 35.276794%)" fill-opacity="1"
          d="M 883.769531 1800.230469 C 864.8125 1800.230469 849.421875 1784.820312 849.421875 1765.878906 L 849.421875 1631.199219 C 849.421875 1585.96875 918.121094 1585.988281 918.121094 1631.199219 L 918.121094 1765.878906 C 918.121094 1784.820312 902.730469 1800.230469 883.769531 1800.230469 "/>
    <path fill-rule="evenodd" fill="rgb(88.671875%, 44.700623%, 35.276794%)" fill-opacity="1"
          d="M 1599.339844 2426.890625 C 1580.378906 2426.890625 1564.988281 2411.484375 1564.988281 2392.539062 L 1564.988281 2257.859375 C 1564.988281 2212.636719 1633.691406 2212.652344 1633.691406 2257.859375 L 1633.691406 2392.539062 C 1633.71875 2411.511719 1618.300781 2426.890625 1599.339844 2426.890625 "/>
    <path fill-rule="evenodd" fill="rgb(88.671875%, 44.700623%, 35.276794%)" fill-opacity="1"
          d="M 1599.339844 1665.5 L 883.742188 1665.5 C 838.527344 1665.5 838.527344 1596.800781 883.742188 1596.800781 L 1599.339844 1596.800781 C 1644.558594 1596.800781 1644.558594 1665.5 1599.339844 1665.5 "/>
    <path fill-rule="evenodd" fill="rgb(88.671875%, 44.700623%, 35.276794%)" fill-opacity="1"
          d="M 883.742188 2426.917969 C 854.019531 2426.917969 838.007812 2391.078125 858.714844 2369.027344 L 1574.328125 1607.609375 C 1605.269531 1574.671875 1655.328125 1621.691406 1624.378906 1654.671875 L 908.789062 2416.089844 C 902.046875 2423.292969 892.902344 2426.917969 883.742188 2426.917969 "/>
    <path fill-rule="evenodd" fill="rgb(88.671875%, 44.700623%, 35.276794%)" fill-opacity="1"
          d="M 1599.339844 2426.917969 L 883.742188 2426.917969 C 838.527344 2426.917969 838.527344 2358.214844 883.742188 2358.214844 L 1599.339844 2358.214844 C 1644.558594 2358.214844 1644.558594 2426.917969 1599.339844 2426.917969 "/>
    <path fill-rule="evenodd" fill="rgb(88.671875%, 44.700623%, 35.276794%)" fill-opacity="1"
          d="M 2118.210938 2426.917969 C 2099.25 2426.917969 2083.859375 2411.511719 2083.859375 2392.566406 L 2083.859375 2147.792969 C 2083.859375 1990.960938 1845.601562 1990.960938 1845.601562 2147.792969 L 1845.601562 2392.566406 C 1845.601562 2437.789062 1776.898438 2437.773438 1776.898438 2392.566406 L 1776.890625 2147.792969 C 1776.890625 2044.191406 1861.171875 1959.910156 1964.75 1959.910156 C 2068.328125 1959.910156 2152.609375 2044.191406 2152.609375 2147.792969 L 2152.609375 2392.566406 C 2152.578125 2411.511719 2137.171875 2426.917969 2118.210938 2426.917969 "/>
    <path fill-rule="evenodd" fill="rgb(88.671875%, 44.700623%, 35.276794%)" fill-opacity="1"
          d="M 1811.21875 2182.144531 C 1792.261719 2182.144531 1776.871094 2166.734375 1776.871094 2147.792969 L 1776.871094 1963.179688 C 1776.871094 1917.960938 1845.570312 1917.980469 1845.570312 1963.179688 L 1845.570312 2147.792969 C 1845.589844 2166.753906 1830.191406 2182.144531 1811.21875 2182.144531 "/>
</svg>
